%TF.GenerationSoftware,KiCad,Pcbnew,8.0.5*%
%TF.CreationDate,2024-09-20T22:50:32+02:00*%
%TF.ProjectId,ESE_AL8,4553455f-414c-4382-9e6b-696361645f70,rev?*%
%TF.SameCoordinates,Original*%
%TF.FileFunction,Paste,Top*%
%TF.FilePolarity,Positive*%
%FSLAX46Y46*%
G04 Gerber Fmt 4.6, Leading zero omitted, Abs format (unit mm)*
G04 Created by KiCad (PCBNEW 8.0.5) date 2024-09-20 22:50:32*
%MOMM*%
%LPD*%
G01*
G04 APERTURE LIST*
G04 Aperture macros list*
%AMRoundRect*
0 Rectangle with rounded corners*
0 $1 Rounding radius*
0 $2 $3 $4 $5 $6 $7 $8 $9 X,Y pos of 4 corners*
0 Add a 4 corners polygon primitive as box body*
4,1,4,$2,$3,$4,$5,$6,$7,$8,$9,$2,$3,0*
0 Add four circle primitives for the rounded corners*
1,1,$1+$1,$2,$3*
1,1,$1+$1,$4,$5*
1,1,$1+$1,$6,$7*
1,1,$1+$1,$8,$9*
0 Add four rect primitives between the rounded corners*
20,1,$1+$1,$2,$3,$4,$5,0*
20,1,$1+$1,$4,$5,$6,$7,0*
20,1,$1+$1,$6,$7,$8,$9,0*
20,1,$1+$1,$8,$9,$2,$3,0*%
G04 Aperture macros list end*
%ADD10R,1.400000X1.200000*%
%ADD11RoundRect,0.162500X-0.617500X-0.162500X0.617500X-0.162500X0.617500X0.162500X-0.617500X0.162500X0*%
%ADD12RoundRect,0.150000X-0.325000X-0.150000X0.325000X-0.150000X0.325000X0.150000X-0.325000X0.150000X0*%
%ADD13RoundRect,0.150000X-0.150000X-0.325000X0.150000X-0.325000X0.150000X0.325000X-0.150000X0.325000X0*%
%ADD14RoundRect,0.250000X-0.315000X-0.315000X0.315000X-0.315000X0.315000X0.315000X-0.315000X0.315000X0*%
%ADD15RoundRect,0.062500X-0.375000X-0.062500X0.375000X-0.062500X0.375000X0.062500X-0.375000X0.062500X0*%
%ADD16RoundRect,0.062500X-0.062500X-0.375000X0.062500X-0.375000X0.062500X0.375000X-0.062500X0.375000X0*%
%ADD17RoundRect,0.160000X-0.197500X-0.160000X0.197500X-0.160000X0.197500X0.160000X-0.197500X0.160000X0*%
%ADD18RoundRect,0.160000X-0.160000X0.197500X-0.160000X-0.197500X0.160000X-0.197500X0.160000X0.197500X0*%
%ADD19RoundRect,0.160000X0.160000X-0.197500X0.160000X0.197500X-0.160000X0.197500X-0.160000X-0.197500X0*%
%ADD20RoundRect,0.160000X0.197500X0.160000X-0.197500X0.160000X-0.197500X-0.160000X0.197500X-0.160000X0*%
%ADD21RoundRect,0.155000X-0.212500X-0.155000X0.212500X-0.155000X0.212500X0.155000X-0.212500X0.155000X0*%
%ADD22R,2.400000X0.740000*%
%ADD23RoundRect,0.100000X0.900000X0.100000X-0.900000X0.100000X-0.900000X-0.100000X0.900000X-0.100000X0*%
%ADD24RoundRect,0.155000X0.155000X-0.212500X0.155000X0.212500X-0.155000X0.212500X-0.155000X-0.212500X0*%
%ADD25RoundRect,0.155000X-0.155000X0.212500X-0.155000X-0.212500X0.155000X-0.212500X0.155000X0.212500X0*%
%ADD26RoundRect,0.237500X0.237500X-0.300000X0.237500X0.300000X-0.237500X0.300000X-0.237500X-0.300000X0*%
%ADD27RoundRect,0.155000X0.212500X0.155000X-0.212500X0.155000X-0.212500X-0.155000X0.212500X-0.155000X0*%
%ADD28R,2.101200X1.567800*%
%ADD29R,0.802000X1.505000*%
%ADD30RoundRect,0.237500X-0.237500X0.300000X-0.237500X-0.300000X0.237500X-0.300000X0.237500X0.300000X0*%
%ADD31R,1.550000X1.300000*%
G04 APERTURE END LIST*
D10*
%TO.C,Y101*%
X150900000Y-98000000D03*
X148700000Y-98000000D03*
X148700000Y-96300000D03*
X150900000Y-96300000D03*
%TD*%
D11*
%TO.C,U301*%
X175850000Y-85350000D03*
X175850000Y-86300000D03*
X175850000Y-87250000D03*
X178550000Y-87250000D03*
X178550000Y-85350000D03*
%TD*%
D12*
%TO.C,U203*%
X169000000Y-88000000D03*
X169000000Y-88800000D03*
X169000000Y-89600000D03*
X169000000Y-90400000D03*
X169000000Y-91200000D03*
X169000000Y-92000000D03*
D13*
X170000000Y-92000000D03*
D12*
X171000000Y-92000000D03*
X171000000Y-91200000D03*
X171000000Y-90400000D03*
X171000000Y-89600000D03*
X171000000Y-88800000D03*
X171000000Y-88000000D03*
D13*
X170000000Y-88000000D03*
%TD*%
D14*
%TO.C,U101*%
X157350000Y-95037500D03*
X157350000Y-96437500D03*
X157350000Y-97837500D03*
X157350000Y-99237500D03*
X158750000Y-95037500D03*
X158750000Y-96437500D03*
X158750000Y-97837500D03*
X158750000Y-99237500D03*
X160150000Y-95037500D03*
X160150000Y-96437500D03*
X160150000Y-97837500D03*
X160150000Y-99237500D03*
X161550000Y-95037500D03*
X161550000Y-96437500D03*
X161550000Y-97837500D03*
X161550000Y-99237500D03*
D15*
X156012500Y-94387500D03*
X156012500Y-94887500D03*
X156012500Y-95387500D03*
X156012500Y-95887500D03*
X156012500Y-96387500D03*
X156012500Y-96887500D03*
X156012500Y-97387500D03*
X156012500Y-97887500D03*
X156012500Y-98387500D03*
X156012500Y-98887500D03*
X156012500Y-99387500D03*
X156012500Y-99887500D03*
D16*
X156700000Y-100575000D03*
X157200000Y-100575000D03*
X157700000Y-100575000D03*
X158200000Y-100575000D03*
X158700000Y-100575000D03*
X159200000Y-100575000D03*
X159700000Y-100575000D03*
X160200000Y-100575000D03*
X160700000Y-100575000D03*
X161200000Y-100575000D03*
X161700000Y-100575000D03*
X162200000Y-100575000D03*
D15*
X162887500Y-99887500D03*
X162887500Y-99387500D03*
X162887500Y-98887500D03*
X162887500Y-98387500D03*
X162887500Y-97887500D03*
X162887500Y-97387500D03*
X162887500Y-96887500D03*
X162887500Y-96387500D03*
X162887500Y-95887500D03*
X162887500Y-95387500D03*
X162887500Y-94887500D03*
X162887500Y-94387500D03*
D16*
X162200000Y-93700000D03*
X161700000Y-93700000D03*
X161200000Y-93700000D03*
X160700000Y-93700000D03*
X160200000Y-93700000D03*
X159700000Y-93700000D03*
X159200000Y-93700000D03*
X158700000Y-93700000D03*
X158200000Y-93700000D03*
X157700000Y-93700000D03*
X157200000Y-93700000D03*
X156700000Y-93700000D03*
%TD*%
D17*
%TO.C,R306*%
X163535000Y-81400000D03*
X164730000Y-81400000D03*
%TD*%
D18*
%TO.C,R305*%
X162432500Y-81402500D03*
X162432500Y-82597500D03*
%TD*%
%TO.C,R304*%
X162432500Y-79102500D03*
X162432500Y-80297500D03*
%TD*%
D19*
%TO.C,R303*%
X164800000Y-73497500D03*
X164800000Y-72302500D03*
%TD*%
D17*
%TO.C,R302*%
X168905000Y-81100000D03*
X170100000Y-81100000D03*
%TD*%
D20*
%TO.C,R301*%
X167900000Y-74000000D03*
X166705000Y-74000000D03*
%TD*%
%TO.C,R202*%
X170677500Y-85040000D03*
X169482500Y-85040000D03*
%TD*%
%TO.C,R201*%
X165097500Y-85600000D03*
X163902500Y-85600000D03*
%TD*%
D17*
%TO.C,R102*%
X150500000Y-99400000D03*
X151695000Y-99400000D03*
%TD*%
%TO.C,R101*%
X171905000Y-62100000D03*
X173100000Y-62100000D03*
%TD*%
D21*
%TO.C,L301*%
X170365000Y-73000000D03*
X171500000Y-73000000D03*
%TD*%
%TO.C,L101*%
X161265000Y-105300000D03*
X162400000Y-105300000D03*
%TD*%
D22*
%TO.C,J201*%
X158300000Y-61500000D03*
X162200000Y-61500000D03*
X158300000Y-62770000D03*
X162200000Y-62770000D03*
X158300000Y-64040000D03*
X162200000Y-64040000D03*
X158300000Y-65310000D03*
X162200000Y-65310000D03*
X158300000Y-66580000D03*
X162200000Y-66580000D03*
X158300000Y-67850000D03*
X162200000Y-67850000D03*
X158300000Y-69120000D03*
X162200000Y-69120000D03*
%TD*%
D23*
%TO.C,IC301*%
X165580000Y-77840000D03*
X165580000Y-77200000D03*
X165580000Y-76540000D03*
X165580000Y-75900000D03*
X169000000Y-75900000D03*
X169000000Y-76540000D03*
X169000000Y-77200000D03*
X169000000Y-77840000D03*
%TD*%
D20*
%TO.C,D101*%
X170800000Y-62100000D03*
X169605000Y-62100000D03*
%TD*%
D24*
%TO.C,C309*%
X178600000Y-83835000D03*
X178600000Y-82700000D03*
%TD*%
D25*
%TO.C,C308*%
X175500000Y-88765000D03*
X175500000Y-89900000D03*
%TD*%
D21*
%TO.C,C307*%
X163565000Y-82400000D03*
X164700000Y-82400000D03*
%TD*%
D26*
%TO.C,C306*%
X173400000Y-69600000D03*
X173400000Y-67875000D03*
%TD*%
%TO.C,C305*%
X171800000Y-69562500D03*
X171800000Y-67837500D03*
%TD*%
D21*
%TO.C,C304*%
X166600000Y-71100000D03*
X167735000Y-71100000D03*
%TD*%
D24*
%TO.C,C303*%
X173900000Y-77172500D03*
X173900000Y-76037500D03*
%TD*%
D27*
%TO.C,C302*%
X163600000Y-77200000D03*
X162465000Y-77200000D03*
%TD*%
D26*
%TO.C,C301*%
X175200000Y-77162500D03*
X175200000Y-75437500D03*
%TD*%
D27*
%TO.C,C210*%
X167500000Y-88000000D03*
X166365000Y-88000000D03*
%TD*%
%TO.C,C209*%
X167567500Y-92100000D03*
X166432500Y-92100000D03*
%TD*%
D24*
%TO.C,C208*%
X188820000Y-78735000D03*
X188820000Y-77600000D03*
%TD*%
D21*
%TO.C,C207*%
X187165000Y-84600000D03*
X188300000Y-84600000D03*
%TD*%
D24*
%TO.C,C206*%
X187900000Y-97367500D03*
X187900000Y-96232500D03*
%TD*%
D21*
%TO.C,C205*%
X187100000Y-103100000D03*
X188235000Y-103100000D03*
%TD*%
D25*
%TO.C,C202*%
X183100000Y-72832500D03*
X183100000Y-73967500D03*
%TD*%
%TO.C,C201*%
X183000000Y-91170000D03*
X183000000Y-92305000D03*
%TD*%
D27*
%TO.C,C112*%
X161200000Y-103800000D03*
X160065000Y-103800000D03*
%TD*%
%TO.C,C111*%
X161200000Y-102700000D03*
X160065000Y-102700000D03*
%TD*%
D21*
%TO.C,C110*%
X164165000Y-101900000D03*
X165300000Y-101900000D03*
%TD*%
%TO.C,C109*%
X163232500Y-103100000D03*
X164367500Y-103100000D03*
%TD*%
D24*
%TO.C,C108*%
X155500000Y-91435000D03*
X155500000Y-90300000D03*
%TD*%
D21*
%TO.C,C107*%
X163265000Y-104100000D03*
X164400000Y-104100000D03*
%TD*%
D24*
%TO.C,C106*%
X154700000Y-94100000D03*
X154700000Y-92965000D03*
%TD*%
D25*
%TO.C,C105*%
X148600000Y-99465000D03*
X148600000Y-100600000D03*
%TD*%
D21*
%TO.C,C104*%
X165222500Y-94400000D03*
X166357500Y-94400000D03*
%TD*%
D26*
%TO.C,C103*%
X156800000Y-90800000D03*
X156800000Y-89075000D03*
%TD*%
D28*
%TO.C,U202*%
X184695000Y-80302500D03*
D29*
X186600000Y-82800000D03*
X185330000Y-82800000D03*
X184060000Y-82800000D03*
X182790000Y-82800000D03*
X182790000Y-77805000D03*
X184060000Y-77805000D03*
X185330000Y-77805000D03*
X186600000Y-77805000D03*
%TD*%
D30*
%TO.C,C203*%
X184700000Y-90875000D03*
X184700000Y-92600000D03*
%TD*%
%TO.C,C204*%
X184800000Y-72475000D03*
X184800000Y-74200000D03*
%TD*%
D29*
%TO.C,U201*%
X186200000Y-96105000D03*
X184930000Y-96105000D03*
X183660000Y-96105000D03*
X182390000Y-96105000D03*
X182390000Y-101100000D03*
X183660000Y-101100000D03*
X184930000Y-101100000D03*
X186200000Y-101100000D03*
D28*
X184295000Y-98602500D03*
%TD*%
D31*
%TO.C,SW201*%
X165450000Y-112700000D03*
X173400000Y-112700000D03*
X165450000Y-117200000D03*
X173400000Y-117200000D03*
%TD*%
D21*
%TO.C,C102*%
X147415000Y-94100000D03*
X148550000Y-94100000D03*
%TD*%
M02*
