%TF.GenerationSoftware,KiCad,Pcbnew,8.0.5*%
%TF.CreationDate,2024-10-23T11:02:30+02:00*%
%TF.ProjectId,ESE_AL8,4553455f-414c-4382-9e6b-696361645f70,rev?*%
%TF.SameCoordinates,Original*%
%TF.FileFunction,Soldermask,Top*%
%TF.FilePolarity,Negative*%
%FSLAX46Y46*%
G04 Gerber Fmt 4.6, Leading zero omitted, Abs format (unit mm)*
G04 Created by KiCad (PCBNEW 8.0.5) date 2024-10-23 11:02:30*
%MOMM*%
%LPD*%
G01*
G04 APERTURE LIST*
G04 Aperture macros list*
%AMRoundRect*
0 Rectangle with rounded corners*
0 $1 Rounding radius*
0 $2 $3 $4 $5 $6 $7 $8 $9 X,Y pos of 4 corners*
0 Add a 4 corners polygon primitive as box body*
4,1,4,$2,$3,$4,$5,$6,$7,$8,$9,$2,$3,0*
0 Add four circle primitives for the rounded corners*
1,1,$1+$1,$2,$3*
1,1,$1+$1,$4,$5*
1,1,$1+$1,$6,$7*
1,1,$1+$1,$8,$9*
0 Add four rect primitives between the rounded corners*
20,1,$1+$1,$2,$3,$4,$5,0*
20,1,$1+$1,$4,$5,$6,$7,0*
20,1,$1+$1,$6,$7,$8,$9,0*
20,1,$1+$1,$8,$9,$2,$3,0*%
%AMFreePoly0*
4,1,19,0.500000,-0.750000,0.000000,-0.750000,0.000000,-0.744911,-0.071157,-0.744911,-0.207708,-0.704816,-0.327430,-0.627875,-0.420627,-0.520320,-0.479746,-0.390866,-0.500000,-0.250000,-0.500000,0.250000,-0.479746,0.390866,-0.420627,0.520320,-0.327430,0.627875,-0.207708,0.704816,-0.071157,0.744911,0.000000,0.744911,0.000000,0.750000,0.500000,0.750000,0.500000,-0.750000,0.500000,-0.750000,
$1*%
%AMFreePoly1*
4,1,19,0.000000,0.744911,0.071157,0.744911,0.207708,0.704816,0.327430,0.627875,0.420627,0.520320,0.479746,0.390866,0.500000,0.250000,0.500000,-0.250000,0.479746,-0.390866,0.420627,-0.520320,0.327430,-0.627875,0.207708,-0.704816,0.071157,-0.744911,0.000000,-0.744911,0.000000,-0.750000,-0.500000,-0.750000,-0.500000,0.750000,0.000000,0.750000,0.000000,0.744911,0.000000,0.744911,
$1*%
G04 Aperture macros list end*
%ADD10RoundRect,0.135000X-0.135000X-0.185000X0.135000X-0.185000X0.135000X0.185000X-0.135000X0.185000X0*%
%ADD11RoundRect,0.218750X-0.218750X-0.256250X0.218750X-0.256250X0.218750X0.256250X-0.218750X0.256250X0*%
%ADD12C,0.800000*%
%ADD13C,6.400000*%
%ADD14R,1.400000X1.200000*%
%ADD15RoundRect,0.125000X-0.125000X0.537500X-0.125000X-0.537500X0.125000X-0.537500X0.125000X0.537500X0*%
%ADD16R,4.191000X1.841500*%
%ADD17R,1.550000X1.300000*%
%ADD18RoundRect,0.140000X-0.140000X-0.170000X0.140000X-0.170000X0.140000X0.170000X-0.140000X0.170000X0*%
%ADD19RoundRect,0.150000X0.512500X0.150000X-0.512500X0.150000X-0.512500X-0.150000X0.512500X-0.150000X0*%
%ADD20RoundRect,0.140000X0.140000X0.170000X-0.140000X0.170000X-0.140000X-0.170000X0.140000X-0.170000X0*%
%ADD21FreePoly0,270.000000*%
%ADD22FreePoly1,270.000000*%
%ADD23RoundRect,0.225000X-0.250000X0.225000X-0.250000X-0.225000X0.250000X-0.225000X0.250000X0.225000X0*%
%ADD24RoundRect,0.135000X0.135000X0.185000X-0.135000X0.185000X-0.135000X-0.185000X0.135000X-0.185000X0*%
%ADD25RoundRect,0.135000X-0.185000X0.135000X-0.185000X-0.135000X0.185000X-0.135000X0.185000X0.135000X0*%
%ADD26C,1.000000*%
%ADD27RoundRect,0.140000X0.170000X-0.140000X0.170000X0.140000X-0.170000X0.140000X-0.170000X-0.140000X0*%
%ADD28RoundRect,0.218750X0.218750X0.256250X-0.218750X0.256250X-0.218750X-0.256250X0.218750X-0.256250X0*%
%ADD29RoundRect,0.250000X-0.250000X-0.475000X0.250000X-0.475000X0.250000X0.475000X-0.250000X0.475000X0*%
%ADD30RoundRect,0.140000X-0.170000X0.140000X-0.170000X-0.140000X0.170000X-0.140000X0.170000X0.140000X0*%
%ADD31RoundRect,0.200000X0.200000X0.275000X-0.200000X0.275000X-0.200000X-0.275000X0.200000X-0.275000X0*%
%ADD32RoundRect,0.250000X0.725000X-0.600000X0.725000X0.600000X-0.725000X0.600000X-0.725000X-0.600000X0*%
%ADD33O,1.950000X1.700000*%
%ADD34RoundRect,0.250000X-0.725000X0.600000X-0.725000X-0.600000X0.725000X-0.600000X0.725000X0.600000X0*%
%ADD35RoundRect,0.150000X-0.325000X-0.150000X0.325000X-0.150000X0.325000X0.150000X-0.325000X0.150000X0*%
%ADD36RoundRect,0.150000X-0.150000X-0.325000X0.150000X-0.325000X0.150000X0.325000X-0.150000X0.325000X0*%
%ADD37RoundRect,0.225000X0.250000X-0.225000X0.250000X0.225000X-0.250000X0.225000X-0.250000X-0.225000X0*%
%ADD38RoundRect,0.250000X0.600000X0.725000X-0.600000X0.725000X-0.600000X-0.725000X0.600000X-0.725000X0*%
%ADD39O,1.700000X1.950000*%
%ADD40R,0.802000X1.505000*%
%ADD41R,3.502000X2.613000*%
%ADD42RoundRect,0.200000X-0.275000X0.200000X-0.275000X-0.200000X0.275000X-0.200000X0.275000X0.200000X0*%
%ADD43RoundRect,0.155000X-0.212500X-0.155000X0.212500X-0.155000X0.212500X0.155000X-0.212500X0.155000X0*%
%ADD44RoundRect,0.250000X0.250000X0.475000X-0.250000X0.475000X-0.250000X-0.475000X0.250000X-0.475000X0*%
%ADD45RoundRect,0.135000X0.185000X-0.135000X0.185000X0.135000X-0.185000X0.135000X-0.185000X-0.135000X0*%
%ADD46RoundRect,0.250000X-0.600000X-0.725000X0.600000X-0.725000X0.600000X0.725000X-0.600000X0.725000X0*%
%ADD47RoundRect,0.200000X0.275000X-0.200000X0.275000X0.200000X-0.275000X0.200000X-0.275000X-0.200000X0*%
%ADD48RoundRect,0.250000X0.600000X0.750000X-0.600000X0.750000X-0.600000X-0.750000X0.600000X-0.750000X0*%
%ADD49O,1.700000X2.000000*%
%ADD50R,0.740000X2.400000*%
%ADD51RoundRect,0.062500X-0.375000X-0.062500X0.375000X-0.062500X0.375000X0.062500X-0.375000X0.062500X0*%
%ADD52RoundRect,0.062500X-0.062500X-0.375000X0.062500X-0.375000X0.062500X0.375000X-0.062500X0.375000X0*%
%ADD53R,5.600000X5.600000*%
G04 APERTURE END LIST*
D10*
%TO.C,R16*%
X138360000Y-114880000D03*
X139380000Y-114880000D03*
%TD*%
D11*
%TO.C,D3*%
X141470000Y-101480000D03*
X143045000Y-101480000D03*
%TD*%
D12*
%TO.C,H4*%
X131600000Y-119000000D03*
X132302944Y-117302944D03*
X132302944Y-120697056D03*
X134000000Y-116600000D03*
D13*
X134000000Y-119000000D03*
D12*
X134000000Y-121400000D03*
X135697056Y-117302944D03*
X135697056Y-120697056D03*
X136400000Y-119000000D03*
%TD*%
D14*
%TO.C,Y1*%
X148207500Y-106160000D03*
X146007500Y-106160000D03*
X146007500Y-107860000D03*
X148207500Y-107860000D03*
%TD*%
D15*
%TO.C,IC1*%
X164550000Y-83000000D03*
X163900000Y-83000000D03*
X163250000Y-83000000D03*
X162600000Y-83000000D03*
X162600000Y-85275000D03*
X163250000Y-85275000D03*
X163900000Y-85275000D03*
X164550000Y-85275000D03*
%TD*%
D16*
%TO.C,L1*%
X153770000Y-87312750D03*
X153770000Y-83947250D03*
%TD*%
D17*
%TO.C,SW1*%
X140200000Y-116540000D03*
X148150000Y-116540000D03*
X140200000Y-121040000D03*
X148150000Y-121040000D03*
%TD*%
D18*
%TO.C,C12*%
X145390000Y-104740000D03*
X146350000Y-104740000D03*
%TD*%
D10*
%TO.C,R10*%
X147600000Y-109260000D03*
X148620000Y-109260000D03*
%TD*%
D19*
%TO.C,U2*%
X165217500Y-95337500D03*
X165217500Y-94387500D03*
X165217500Y-93437500D03*
X162942500Y-93437500D03*
X162942500Y-95337500D03*
%TD*%
D20*
%TO.C,C14*%
X151500000Y-102977500D03*
X150540000Y-102977500D03*
%TD*%
D11*
%TO.C,D2*%
X141470000Y-99790000D03*
X143045000Y-99790000D03*
%TD*%
D20*
%TO.C,C2*%
X138720000Y-88090000D03*
X137760000Y-88090000D03*
%TD*%
D21*
%TO.C,JP2*%
X141090000Y-77810000D03*
D22*
X141090000Y-79110000D03*
%TD*%
D20*
%TO.C,C5*%
X163850000Y-87330000D03*
X162890000Y-87330000D03*
%TD*%
D23*
%TO.C,C15*%
X155250000Y-112700000D03*
X155250000Y-114250000D03*
%TD*%
D24*
%TO.C,R13*%
X139945000Y-103110000D03*
X138925000Y-103110000D03*
%TD*%
D25*
%TO.C,R1*%
X135880000Y-82002500D03*
X135880000Y-83022500D03*
%TD*%
D26*
%TO.C,TP6*%
X170020000Y-84720000D03*
%TD*%
D10*
%TO.C,R4*%
X166100000Y-81640000D03*
X167120000Y-81640000D03*
%TD*%
D12*
%TO.C,H3*%
X177600000Y-119000000D03*
X178302944Y-117302944D03*
X178302944Y-120697056D03*
X180000000Y-116600000D03*
D13*
X180000000Y-119000000D03*
D12*
X180000000Y-121400000D03*
X181697056Y-117302944D03*
X181697056Y-120697056D03*
X182400000Y-119000000D03*
%TD*%
D26*
%TO.C,TP4*%
X169990000Y-103520000D03*
%TD*%
D27*
%TO.C,C21*%
X161430000Y-103990000D03*
X161430000Y-103030000D03*
%TD*%
D24*
%TO.C,R12*%
X139855000Y-101540000D03*
X138835000Y-101540000D03*
%TD*%
D28*
%TO.C,D1*%
X156450000Y-75510000D03*
X154875000Y-75510000D03*
%TD*%
D29*
%TO.C,C9*%
X157087500Y-81787500D03*
X158987500Y-81787500D03*
%TD*%
D30*
%TO.C,C20*%
X150250000Y-107420000D03*
X150250000Y-108380000D03*
%TD*%
D31*
%TO.C,R6*%
X161075000Y-85500000D03*
X159425000Y-85500000D03*
%TD*%
D30*
%TO.C,C7*%
X167830000Y-89490000D03*
X167830000Y-90450000D03*
%TD*%
D32*
%TO.C,J4*%
X181540000Y-90770000D03*
D33*
X181540000Y-88270000D03*
X181540000Y-85770000D03*
X181540000Y-83270000D03*
X181540000Y-80770000D03*
X181540000Y-78270000D03*
%TD*%
D26*
%TO.C,TP7*%
X171660000Y-91880000D03*
%TD*%
D34*
%TO.C,J1*%
X132530000Y-90880000D03*
D33*
X132530000Y-93380000D03*
X132530000Y-95880000D03*
X132530000Y-98380000D03*
%TD*%
D30*
%TO.C,C201*%
X138470000Y-116540000D03*
X138470000Y-117500000D03*
%TD*%
D29*
%TO.C,C8*%
X157087500Y-79737500D03*
X158987500Y-79737500D03*
%TD*%
D32*
%TO.C,J5*%
X181440000Y-110520000D03*
D33*
X181440000Y-108020000D03*
X181440000Y-105520000D03*
X181440000Y-103020000D03*
X181440000Y-100520000D03*
X181440000Y-98020000D03*
%TD*%
D35*
%TO.C,U1*%
X140150000Y-88170000D03*
X140150000Y-88970000D03*
X140150000Y-89770000D03*
X140150000Y-90570000D03*
X140150000Y-91370000D03*
X140150000Y-92170000D03*
D36*
X141150000Y-92170000D03*
D35*
X142150000Y-92170000D03*
X142150000Y-91370000D03*
X142150000Y-90570000D03*
X142150000Y-89770000D03*
X142150000Y-88970000D03*
X142150000Y-88170000D03*
D36*
X141150000Y-88170000D03*
%TD*%
D37*
%TO.C,C28*%
X174100000Y-101050000D03*
X174100000Y-99500000D03*
%TD*%
D11*
%TO.C,D5*%
X164992500Y-98550000D03*
X166567500Y-98550000D03*
%TD*%
D38*
%TO.C,SW2*%
X170290000Y-71830000D03*
D39*
X167790000Y-71830000D03*
X165290000Y-71830000D03*
%TD*%
D40*
%TO.C,U4*%
X175517500Y-103822500D03*
X174247500Y-103822500D03*
X172977500Y-103822500D03*
X171707500Y-103822500D03*
X171707500Y-108817500D03*
X172977500Y-108817500D03*
X174247500Y-108817500D03*
X175517500Y-108817500D03*
D41*
X173612500Y-106320000D03*
%TD*%
D20*
%TO.C,C16*%
X146225000Y-109260000D03*
X145265000Y-109260000D03*
%TD*%
D42*
%TO.C,R7*%
X166120000Y-85390000D03*
X166120000Y-87040000D03*
%TD*%
D10*
%TO.C,R3*%
X157690000Y-75480000D03*
X158710000Y-75480000D03*
%TD*%
D43*
%TO.C,L2*%
X158575000Y-112580000D03*
X159710000Y-112580000D03*
%TD*%
D18*
%TO.C,C18*%
X158500000Y-114580000D03*
X159460000Y-114580000D03*
%TD*%
D21*
%TO.C,JP1*%
X138050000Y-77320000D03*
D22*
X138050000Y-78620000D03*
%TD*%
D37*
%TO.C,C29*%
X172570000Y-101030000D03*
X172570000Y-99480000D03*
%TD*%
D26*
%TO.C,TP1*%
X138600000Y-84700000D03*
%TD*%
D24*
%TO.C,R14*%
X163565000Y-98570000D03*
X162545000Y-98570000D03*
%TD*%
D10*
%TO.C,R15*%
X170620000Y-75520000D03*
X171640000Y-75520000D03*
%TD*%
D23*
%TO.C,C30*%
X174300000Y-80600000D03*
X174300000Y-82150000D03*
%TD*%
D44*
%TO.C,C3*%
X164510000Y-80570000D03*
X162610000Y-80570000D03*
%TD*%
D37*
%TO.C,C11*%
X161100000Y-95515000D03*
X161100000Y-93965000D03*
%TD*%
D30*
%TO.C,C24*%
X174250000Y-110700000D03*
X174250000Y-111660000D03*
%TD*%
D23*
%TO.C,C31*%
X172670000Y-80620000D03*
X172670000Y-82170000D03*
%TD*%
D18*
%TO.C,C19*%
X159810000Y-111220000D03*
X160770000Y-111220000D03*
%TD*%
D26*
%TO.C,TP5*%
X169670000Y-109780000D03*
%TD*%
D34*
%TO.C,J8*%
X132500000Y-76710000D03*
D33*
X132500000Y-79210000D03*
X132500000Y-81710000D03*
X132500000Y-84210000D03*
%TD*%
D40*
%TO.C,U5*%
X175730000Y-84775000D03*
X174460000Y-84775000D03*
X173190000Y-84775000D03*
X171920000Y-84775000D03*
X171920000Y-89770000D03*
X173190000Y-89770000D03*
X174460000Y-89770000D03*
X175730000Y-89770000D03*
D41*
X173825000Y-87272500D03*
%TD*%
D27*
%TO.C,C4*%
X166080000Y-80610000D03*
X166080000Y-79650000D03*
%TD*%
%TO.C,C25*%
X177140000Y-104250000D03*
X177140000Y-103290000D03*
%TD*%
D28*
%TO.C,D6*%
X169327500Y-75560000D03*
X167752500Y-75560000D03*
%TD*%
D11*
%TO.C,D4*%
X141490000Y-103110000D03*
X143065000Y-103110000D03*
%TD*%
D27*
%TO.C,C27*%
X177330000Y-85250000D03*
X177330000Y-84290000D03*
%TD*%
D37*
%TO.C,C13*%
X151750000Y-101450000D03*
X151750000Y-99900000D03*
%TD*%
D45*
%TO.C,R2*%
X135920000Y-85750000D03*
X135920000Y-84730000D03*
%TD*%
D24*
%TO.C,R5*%
X167090000Y-82700000D03*
X166070000Y-82700000D03*
%TD*%
D26*
%TO.C,TP3*%
X144200000Y-92500000D03*
%TD*%
D34*
%TO.C,J2*%
X132490000Y-104490000D03*
D33*
X132490000Y-106990000D03*
X132490000Y-109490000D03*
X132490000Y-111990000D03*
%TD*%
D46*
%TO.C,J3*%
X153810000Y-118890000D03*
D39*
X156310000Y-118890000D03*
X158810000Y-118890000D03*
X161310000Y-118890000D03*
X163810000Y-118890000D03*
X166310000Y-118890000D03*
X168810000Y-118890000D03*
X171310000Y-118890000D03*
%TD*%
D23*
%TO.C,C23*%
X156850000Y-112700000D03*
X156850000Y-114250000D03*
%TD*%
D47*
%TO.C,R8*%
X167770000Y-88160000D03*
X167770000Y-86510000D03*
%TD*%
D12*
%TO.C,H2*%
X177600000Y-70000000D03*
X178302944Y-68302944D03*
X178302944Y-71697056D03*
X180000000Y-67600000D03*
D13*
X180000000Y-70000000D03*
D12*
X180000000Y-72400000D03*
X181697056Y-68302944D03*
X181697056Y-71697056D03*
X182400000Y-70000000D03*
%TD*%
D48*
%TO.C,J6*%
X158860000Y-71840000D03*
D49*
X156360000Y-71840000D03*
%TD*%
D50*
%TO.C,J7*%
X148620000Y-70290000D03*
X148620000Y-74190000D03*
X147350000Y-70290000D03*
X147350000Y-74190000D03*
X146080000Y-70290000D03*
X146080000Y-74190000D03*
X144810000Y-70290000D03*
X144810000Y-74190000D03*
X143540000Y-70290000D03*
X143540000Y-74190000D03*
X142270000Y-70290000D03*
X142270000Y-74190000D03*
X141000000Y-70290000D03*
X141000000Y-74190000D03*
%TD*%
D24*
%TO.C,R11*%
X139925000Y-99810000D03*
X138905000Y-99810000D03*
%TD*%
D30*
%TO.C,C26*%
X174500000Y-91620000D03*
X174500000Y-92580000D03*
%TD*%
D23*
%TO.C,C1*%
X140140000Y-93750000D03*
X140140000Y-95300000D03*
%TD*%
D27*
%TO.C,C17*%
X153020000Y-101737500D03*
X153020000Y-100777500D03*
%TD*%
D24*
%TO.C,R17*%
X141320000Y-114880000D03*
X140300000Y-114880000D03*
%TD*%
D37*
%TO.C,C10*%
X167020000Y-95655000D03*
X167020000Y-94105000D03*
%TD*%
D51*
%TO.C,U3*%
X152932500Y-103790000D03*
X152932500Y-104290000D03*
X152932500Y-104790000D03*
X152932500Y-105290000D03*
X152932500Y-105790000D03*
X152932500Y-106290000D03*
X152932500Y-106790000D03*
X152932500Y-107290000D03*
X152932500Y-107790000D03*
X152932500Y-108290000D03*
X152932500Y-108790000D03*
X152932500Y-109290000D03*
D52*
X153620000Y-109977500D03*
X154120000Y-109977500D03*
X154620000Y-109977500D03*
X155120000Y-109977500D03*
X155620000Y-109977500D03*
X156120000Y-109977500D03*
X156620000Y-109977500D03*
X157120000Y-109977500D03*
X157620000Y-109977500D03*
X158120000Y-109977500D03*
X158620000Y-109977500D03*
X159120000Y-109977500D03*
D51*
X159807500Y-109290000D03*
X159807500Y-108790000D03*
X159807500Y-108290000D03*
X159807500Y-107790000D03*
X159807500Y-107290000D03*
X159807500Y-106790000D03*
X159807500Y-106290000D03*
X159807500Y-105790000D03*
X159807500Y-105290000D03*
X159807500Y-104790000D03*
X159807500Y-104290000D03*
X159807500Y-103790000D03*
D52*
X159120000Y-103102500D03*
X158620000Y-103102500D03*
X158120000Y-103102500D03*
X157620000Y-103102500D03*
X157120000Y-103102500D03*
X156620000Y-103102500D03*
X156120000Y-103102500D03*
X155620000Y-103102500D03*
X155120000Y-103102500D03*
X154620000Y-103102500D03*
X154120000Y-103102500D03*
X153620000Y-103102500D03*
D53*
X156370000Y-106540000D03*
%TD*%
D12*
%TO.C,H1*%
X131740000Y-69840000D03*
X132442944Y-68142944D03*
X132442944Y-71537056D03*
X134140000Y-67440000D03*
D13*
X134140000Y-69840000D03*
D12*
X134140000Y-72240000D03*
X135837056Y-68142944D03*
X135837056Y-71537056D03*
X136540000Y-69840000D03*
%TD*%
D26*
%TO.C,TP2*%
X144040000Y-88040000D03*
%TD*%
D20*
%TO.C,C6*%
X159630000Y-86840000D03*
X158670000Y-86840000D03*
%TD*%
D18*
%TO.C,C22*%
X158480000Y-113580000D03*
X159440000Y-113580000D03*
%TD*%
D42*
%TO.C,R9*%
X166190000Y-88590000D03*
X166190000Y-90240000D03*
%TD*%
M02*
