%TF.GenerationSoftware,KiCad,Pcbnew,8.0.5*%
%TF.CreationDate,2024-10-23T11:02:30+02:00*%
%TF.ProjectId,ESE_AL8,4553455f-414c-4382-9e6b-696361645f70,rev?*%
%TF.SameCoordinates,Original*%
%TF.FileFunction,Soldermask,Bot*%
%TF.FilePolarity,Negative*%
%FSLAX46Y46*%
G04 Gerber Fmt 4.6, Leading zero omitted, Abs format (unit mm)*
G04 Created by KiCad (PCBNEW 8.0.5) date 2024-10-23 11:02:30*
%MOMM*%
%LPD*%
G01*
G04 APERTURE LIST*
G04 Aperture macros list*
%AMRoundRect*
0 Rectangle with rounded corners*
0 $1 Rounding radius*
0 $2 $3 $4 $5 $6 $7 $8 $9 X,Y pos of 4 corners*
0 Add a 4 corners polygon primitive as box body*
4,1,4,$2,$3,$4,$5,$6,$7,$8,$9,$2,$3,0*
0 Add four circle primitives for the rounded corners*
1,1,$1+$1,$2,$3*
1,1,$1+$1,$4,$5*
1,1,$1+$1,$6,$7*
1,1,$1+$1,$8,$9*
0 Add four rect primitives between the rounded corners*
20,1,$1+$1,$2,$3,$4,$5,0*
20,1,$1+$1,$4,$5,$6,$7,0*
20,1,$1+$1,$6,$7,$8,$9,0*
20,1,$1+$1,$8,$9,$2,$3,0*%
G04 Aperture macros list end*
%ADD10C,0.800000*%
%ADD11C,6.400000*%
%ADD12RoundRect,0.250000X0.725000X-0.600000X0.725000X0.600000X-0.725000X0.600000X-0.725000X-0.600000X0*%
%ADD13O,1.950000X1.700000*%
%ADD14RoundRect,0.250000X-0.725000X0.600000X-0.725000X-0.600000X0.725000X-0.600000X0.725000X0.600000X0*%
%ADD15RoundRect,0.250000X0.600000X0.725000X-0.600000X0.725000X-0.600000X-0.725000X0.600000X-0.725000X0*%
%ADD16O,1.700000X1.950000*%
%ADD17RoundRect,0.250000X-0.600000X-0.725000X0.600000X-0.725000X0.600000X0.725000X-0.600000X0.725000X0*%
%ADD18RoundRect,0.250000X0.600000X0.750000X-0.600000X0.750000X-0.600000X-0.750000X0.600000X-0.750000X0*%
%ADD19O,1.700000X2.000000*%
G04 APERTURE END LIST*
D10*
%TO.C,H4*%
X131600000Y-119000000D03*
X132302944Y-117302944D03*
X132302944Y-120697056D03*
X134000000Y-116600000D03*
D11*
X134000000Y-119000000D03*
D10*
X134000000Y-121400000D03*
X135697056Y-117302944D03*
X135697056Y-120697056D03*
X136400000Y-119000000D03*
%TD*%
%TO.C,H3*%
X177600000Y-119000000D03*
X178302944Y-117302944D03*
X178302944Y-120697056D03*
X180000000Y-116600000D03*
D11*
X180000000Y-119000000D03*
D10*
X180000000Y-121400000D03*
X181697056Y-117302944D03*
X181697056Y-120697056D03*
X182400000Y-119000000D03*
%TD*%
D12*
%TO.C,J4*%
X181540000Y-90770000D03*
D13*
X181540000Y-88270000D03*
X181540000Y-85770000D03*
X181540000Y-83270000D03*
X181540000Y-80770000D03*
X181540000Y-78270000D03*
%TD*%
D14*
%TO.C,J1*%
X132530000Y-90880000D03*
D13*
X132530000Y-93380000D03*
X132530000Y-95880000D03*
X132530000Y-98380000D03*
%TD*%
D12*
%TO.C,J5*%
X181440000Y-110520000D03*
D13*
X181440000Y-108020000D03*
X181440000Y-105520000D03*
X181440000Y-103020000D03*
X181440000Y-100520000D03*
X181440000Y-98020000D03*
%TD*%
D15*
%TO.C,SW2*%
X170290000Y-71830000D03*
D16*
X167790000Y-71830000D03*
X165290000Y-71830000D03*
%TD*%
D14*
%TO.C,J8*%
X132500000Y-76710000D03*
D13*
X132500000Y-79210000D03*
X132500000Y-81710000D03*
X132500000Y-84210000D03*
%TD*%
D14*
%TO.C,J2*%
X132490000Y-104490000D03*
D13*
X132490000Y-106990000D03*
X132490000Y-109490000D03*
X132490000Y-111990000D03*
%TD*%
D17*
%TO.C,J3*%
X153810000Y-118890000D03*
D16*
X156310000Y-118890000D03*
X158810000Y-118890000D03*
X161310000Y-118890000D03*
X163810000Y-118890000D03*
X166310000Y-118890000D03*
X168810000Y-118890000D03*
X171310000Y-118890000D03*
%TD*%
D10*
%TO.C,H2*%
X177600000Y-70000000D03*
X178302944Y-68302944D03*
X178302944Y-71697056D03*
X180000000Y-67600000D03*
D11*
X180000000Y-70000000D03*
D10*
X180000000Y-72400000D03*
X181697056Y-68302944D03*
X181697056Y-71697056D03*
X182400000Y-70000000D03*
%TD*%
D18*
%TO.C,J6*%
X158860000Y-71840000D03*
D19*
X156360000Y-71840000D03*
%TD*%
D10*
%TO.C,H1*%
X131740000Y-69840000D03*
X132442944Y-68142944D03*
X132442944Y-71537056D03*
X134140000Y-67440000D03*
D11*
X134140000Y-69840000D03*
D10*
X134140000Y-72240000D03*
X135837056Y-68142944D03*
X135837056Y-71537056D03*
X136540000Y-69840000D03*
%TD*%
M02*
