%TF.GenerationSoftware,KiCad,Pcbnew,8.0.5*%
%TF.CreationDate,2024-10-22T21:03:55+02:00*%
%TF.ProjectId,ESE_AL8,4553455f-414c-4382-9e6b-696361645f70,rev?*%
%TF.SameCoordinates,Original*%
%TF.FileFunction,Copper,L2,Inr*%
%TF.FilePolarity,Positive*%
%FSLAX46Y46*%
G04 Gerber Fmt 4.6, Leading zero omitted, Abs format (unit mm)*
G04 Created by KiCad (PCBNEW 8.0.5) date 2024-10-22 21:03:55*
%MOMM*%
%LPD*%
G01*
G04 APERTURE LIST*
G04 Aperture macros list*
%AMRoundRect*
0 Rectangle with rounded corners*
0 $1 Rounding radius*
0 $2 $3 $4 $5 $6 $7 $8 $9 X,Y pos of 4 corners*
0 Add a 4 corners polygon primitive as box body*
4,1,4,$2,$3,$4,$5,$6,$7,$8,$9,$2,$3,0*
0 Add four circle primitives for the rounded corners*
1,1,$1+$1,$2,$3*
1,1,$1+$1,$4,$5*
1,1,$1+$1,$6,$7*
1,1,$1+$1,$8,$9*
0 Add four rect primitives between the rounded corners*
20,1,$1+$1,$2,$3,$4,$5,0*
20,1,$1+$1,$4,$5,$6,$7,0*
20,1,$1+$1,$6,$7,$8,$9,0*
20,1,$1+$1,$8,$9,$2,$3,0*%
G04 Aperture macros list end*
%TA.AperFunction,ComponentPad*%
%ADD10C,0.800000*%
%TD*%
%TA.AperFunction,ComponentPad*%
%ADD11C,6.400000*%
%TD*%
%TA.AperFunction,ComponentPad*%
%ADD12RoundRect,0.250000X0.725000X-0.600000X0.725000X0.600000X-0.725000X0.600000X-0.725000X-0.600000X0*%
%TD*%
%TA.AperFunction,ComponentPad*%
%ADD13O,1.950000X1.700000*%
%TD*%
%TA.AperFunction,ComponentPad*%
%ADD14RoundRect,0.250000X-0.725000X0.600000X-0.725000X-0.600000X0.725000X-0.600000X0.725000X0.600000X0*%
%TD*%
%TA.AperFunction,ComponentPad*%
%ADD15RoundRect,0.250000X0.600000X0.725000X-0.600000X0.725000X-0.600000X-0.725000X0.600000X-0.725000X0*%
%TD*%
%TA.AperFunction,ComponentPad*%
%ADD16O,1.700000X1.950000*%
%TD*%
%TA.AperFunction,ComponentPad*%
%ADD17RoundRect,0.250000X-0.600000X-0.725000X0.600000X-0.725000X0.600000X0.725000X-0.600000X0.725000X0*%
%TD*%
%TA.AperFunction,ComponentPad*%
%ADD18RoundRect,0.250000X0.600000X0.750000X-0.600000X0.750000X-0.600000X-0.750000X0.600000X-0.750000X0*%
%TD*%
%TA.AperFunction,ComponentPad*%
%ADD19O,1.700000X2.000000*%
%TD*%
%TA.AperFunction,ViaPad*%
%ADD20C,0.450000*%
%TD*%
%TA.AperFunction,ViaPad*%
%ADD21C,0.700000*%
%TD*%
G04 APERTURE END LIST*
D10*
%TO.N,GND*%
%TO.C,H4*%
X131600000Y-119000000D03*
X132302944Y-117302944D03*
X132302944Y-120697056D03*
X134000000Y-116600000D03*
D11*
X134000000Y-119000000D03*
D10*
X134000000Y-121400000D03*
X135697056Y-117302944D03*
X135697056Y-120697056D03*
X136400000Y-119000000D03*
%TD*%
%TO.N,GND*%
%TO.C,H3*%
X177600000Y-119000000D03*
X178302944Y-117302944D03*
X178302944Y-120697056D03*
X180000000Y-116600000D03*
D11*
X180000000Y-119000000D03*
D10*
X180000000Y-121400000D03*
X181697056Y-117302944D03*
X181697056Y-120697056D03*
X182400000Y-119000000D03*
%TD*%
D12*
%TO.N,/Actionneur/MOTEUR1-*%
%TO.C,J4*%
X181540000Y-90770000D03*
D13*
%TO.N,GND*%
X181540000Y-88270000D03*
%TO.N,/SENSORS/PHASE_A1*%
X181540000Y-85770000D03*
%TO.N,/SENSORS/PHASE_B1*%
X181540000Y-83270000D03*
%TO.N,+3.3V*%
X181540000Y-80770000D03*
%TO.N,/Actionneur/MOTEUR1+*%
X181540000Y-78270000D03*
%TD*%
D14*
%TO.N,+3.3V*%
%TO.C,J1*%
X132530000Y-90880000D03*
D13*
%TO.N,GND*%
X132530000Y-93380000D03*
%TO.N,/SENSORS/CB_OUT1*%
X132530000Y-95880000D03*
%TO.N,/SENSORS/CB_IN*%
X132530000Y-98380000D03*
%TD*%
D12*
%TO.N,/Actionneur/MOTEUR2-*%
%TO.C,J5*%
X181440000Y-110520000D03*
D13*
%TO.N,GND*%
X181440000Y-108020000D03*
%TO.N,/SENSORS/PHASE_A2*%
X181440000Y-105520000D03*
%TO.N,/SENSORS/PHASE_B2*%
X181440000Y-103020000D03*
%TO.N,+3.3V*%
X181440000Y-100520000D03*
%TO.N,/Actionneur/MOTEUR2+*%
X181440000Y-98020000D03*
%TD*%
D15*
%TO.N,unconnected-(SW2-C-Pad1)*%
%TO.C,SW2*%
X170290000Y-71830000D03*
D16*
%TO.N,+BATT*%
X167790000Y-71830000D03*
%TO.N,+7.2V*%
X165290000Y-71830000D03*
%TD*%
D14*
%TO.N,+3.3V*%
%TO.C,J8*%
X132500000Y-76710000D03*
D13*
%TO.N,GND*%
X132500000Y-79210000D03*
%TO.N,/Actionneur/SCL*%
X132500000Y-81710000D03*
%TO.N,/Actionneur/SDA*%
X132500000Y-84210000D03*
%TD*%
D14*
%TO.N,+3.3V*%
%TO.C,J2*%
X132490000Y-104490000D03*
D13*
%TO.N,GND*%
X132490000Y-106990000D03*
%TO.N,/SENSORS/CB_OUT2*%
X132490000Y-109490000D03*
%TO.N,/SENSORS/CB_IN*%
X132490000Y-111990000D03*
%TD*%
D17*
%TO.N,+5V*%
%TO.C,J3*%
X153810000Y-118890000D03*
D16*
%TO.N,/SENSORS/TX_LIDAR*%
X156310000Y-118890000D03*
%TO.N,/SENSORS/RX_LIDAR*%
X158810000Y-118890000D03*
%TO.N,GND*%
X161310000Y-118890000D03*
%TO.N,/SENSORS/M_SCTR_LIDAR*%
X163810000Y-118890000D03*
%TO.N,/SENSORS/DEV_EN_LIDAR*%
X166310000Y-118890000D03*
%TO.N,/SENSORS/M_EN_LIDAR*%
X168810000Y-118890000D03*
%TO.N,unconnected-(J3-Pin_8-Pad8)*%
X171310000Y-118890000D03*
%TD*%
D10*
%TO.N,GND*%
%TO.C,H2*%
X177600000Y-70000000D03*
X178302944Y-68302944D03*
X178302944Y-71697056D03*
X180000000Y-67600000D03*
D11*
X180000000Y-70000000D03*
D10*
X180000000Y-72400000D03*
X181697056Y-68302944D03*
X181697056Y-71697056D03*
X182400000Y-70000000D03*
%TD*%
D18*
%TO.N,+7.2V*%
%TO.C,J6*%
X158860000Y-71840000D03*
D19*
%TO.N,GND*%
X156360000Y-71840000D03*
%TD*%
D10*
%TO.N,GND*%
%TO.C,H1*%
X131740000Y-69840000D03*
X132442944Y-68142944D03*
X132442944Y-71537056D03*
X134140000Y-67440000D03*
D11*
X134140000Y-69840000D03*
D10*
X134140000Y-72240000D03*
X135837056Y-68142944D03*
X135837056Y-71537056D03*
X136540000Y-69840000D03*
%TD*%
D20*
%TO.N,GND*%
X173480000Y-105320000D03*
X134520000Y-83330000D03*
X149400000Y-121050000D03*
X172620000Y-98475000D03*
X175300000Y-87300000D03*
X155000000Y-106500000D03*
X144640000Y-108580000D03*
X145350000Y-103800000D03*
X135600000Y-86700000D03*
X172200000Y-106220000D03*
X146050000Y-68500000D03*
X155000000Y-107900000D03*
X159800000Y-79750000D03*
X173900000Y-88300000D03*
X167610000Y-85270000D03*
X156370000Y-106540000D03*
X175300000Y-88200000D03*
X156400000Y-105100000D03*
X138370000Y-103150000D03*
X163390000Y-104640000D03*
X173540000Y-107310000D03*
X172390000Y-86310000D03*
X157800000Y-105100000D03*
X138950000Y-91400000D03*
X153900000Y-100800000D03*
X162100000Y-87350000D03*
X154300000Y-114250000D03*
X159800000Y-81000000D03*
X160150000Y-114600000D03*
X161670000Y-82950000D03*
X157300000Y-115190000D03*
X170280000Y-106940000D03*
X160780000Y-111800000D03*
X144630000Y-107340000D03*
X160000000Y-94000000D03*
X172400000Y-88300000D03*
X138450000Y-118250000D03*
X177300000Y-85800000D03*
X144624964Y-106759367D03*
X175050000Y-105330000D03*
X177150000Y-104950000D03*
X177150000Y-108540000D03*
X161550000Y-80600000D03*
X148000000Y-114800000D03*
X144650000Y-106150000D03*
X150650000Y-99900000D03*
X175250000Y-111700000D03*
X139250000Y-90600000D03*
X144660000Y-107960000D03*
X140840000Y-110940000D03*
X142250000Y-68450000D03*
X137800000Y-87050000D03*
X163160000Y-110670000D03*
X174120000Y-98580000D03*
X150200000Y-108900000D03*
X140550000Y-81660000D03*
X138310000Y-101550000D03*
X150700000Y-96900000D03*
X175270000Y-86320000D03*
X161410000Y-102290000D03*
X141080000Y-95340000D03*
X145150000Y-85520000D03*
X138310000Y-99780000D03*
X168100000Y-94100000D03*
X172700000Y-79500000D03*
X176500000Y-108850000D03*
X173730000Y-86360000D03*
X156300000Y-107900000D03*
X139300000Y-89000000D03*
X144450000Y-109300000D03*
X141500000Y-121050000D03*
X176700000Y-89800000D03*
X164700000Y-109500000D03*
X150000000Y-103000000D03*
X175030000Y-106370000D03*
X176570000Y-106300000D03*
X159420000Y-75480000D03*
X144800000Y-68500000D03*
X177630000Y-108200000D03*
X172400000Y-87300000D03*
X166100000Y-78790000D03*
X157800000Y-107900000D03*
X172250000Y-105310000D03*
X160100000Y-113550000D03*
X174300000Y-79350000D03*
X143150000Y-89000000D03*
X175040000Y-107300000D03*
X157800000Y-106500000D03*
X172210000Y-107310000D03*
X164600000Y-108000000D03*
X155000000Y-105100000D03*
X137010000Y-84930000D03*
X174500000Y-93400000D03*
%TO.N,+3.3V*%
X147350000Y-68450000D03*
X160460000Y-112590000D03*
D21*
X142180000Y-114930000D03*
D20*
X135870000Y-83880000D03*
X138970000Y-92260000D03*
X138760000Y-87210000D03*
X154020000Y-75510000D03*
X150750000Y-101700000D03*
X151500000Y-103750000D03*
X162900000Y-96400000D03*
X141150000Y-93250000D03*
X162200000Y-103970000D03*
X161100000Y-96250000D03*
%TO.N,NRST*%
X151020000Y-107180000D03*
X142470000Y-75700000D03*
%TO.N,SWO*%
X157035000Y-100255000D03*
X144890000Y-76030000D03*
%TO.N,/SENSORS/PHASE_A1*%
X163340000Y-103660000D03*
%TO.N,/SENSORS/PHASE_B1*%
X164480000Y-104560000D03*
%TO.N,/SENSORS/PHASE_B2*%
X163100000Y-107310000D03*
%TO.N,/SENSORS/PHASE_A2*%
X156400000Y-101640000D03*
%TO.N,/SENSORS/INT1_ACCELERO*%
X149370000Y-92550000D03*
X145740000Y-92540000D03*
%TO.N,/Actionneur/FWD2*%
X169700000Y-104670000D03*
X161045023Y-106565023D03*
%TO.N,/SENSORS/RX_LIDAR*%
X158300000Y-111470000D03*
%TO.N,+BATT*%
X164940000Y-81800000D03*
X166840000Y-79450000D03*
X173190000Y-91030000D03*
X172890000Y-102390000D03*
X174530000Y-83340000D03*
X174290000Y-102380000D03*
D21*
X166650000Y-75590000D03*
D20*
X173610000Y-102390000D03*
X173110000Y-83350000D03*
X172950000Y-109930000D03*
X173810000Y-83340000D03*
X166820000Y-80650000D03*
X165410000Y-81800000D03*
X166847148Y-80025587D03*
%TO.N,/Alimentation/vcc*%
X167670000Y-82800000D03*
X164064199Y-86383239D03*
%TO.N,/Alimentation/sw*%
X163250000Y-81820000D03*
X157390000Y-88210000D03*
X162620000Y-81820000D03*
X157390000Y-87600000D03*
X162070000Y-81810000D03*
X157390000Y-86920000D03*
%TO.N,+5V*%
X166170000Y-91030000D03*
X155750000Y-80530000D03*
X167020000Y-96170000D03*
D21*
X167680000Y-98240000D03*
D20*
X167880000Y-91150000D03*
X155750000Y-81130000D03*
X165400000Y-92560000D03*
X155760000Y-79720000D03*
%TO.N,/Alimentation/en{slash}sync*%
X162550000Y-86520000D03*
X167920000Y-81580000D03*
%TD*%
%TA.AperFunction,Conductor*%
%TO.N,GND*%
G36*
X178268745Y-66520185D02*
G01*
X178314500Y-66572989D01*
X178324444Y-66642147D01*
X178295419Y-66705703D01*
X178258001Y-66734985D01*
X178147456Y-66791310D01*
X177822206Y-67002531D01*
X177564648Y-67211095D01*
X177564648Y-67211096D01*
X179059301Y-68705748D01*
X178957670Y-68779588D01*
X178779588Y-68957670D01*
X178705748Y-69059300D01*
X177211096Y-67564648D01*
X177211095Y-67564648D01*
X177002531Y-67822206D01*
X176791310Y-68147456D01*
X176615244Y-68493005D01*
X176476262Y-68855063D01*
X176375887Y-69229669D01*
X176375886Y-69229676D01*
X176315219Y-69612712D01*
X176294922Y-69999999D01*
X176294922Y-70000000D01*
X176315219Y-70387287D01*
X176375886Y-70770323D01*
X176375887Y-70770330D01*
X176476262Y-71144936D01*
X176615244Y-71506994D01*
X176791310Y-71852543D01*
X177002531Y-72177793D01*
X177211095Y-72435350D01*
X177211096Y-72435350D01*
X178705748Y-70940698D01*
X178779588Y-71042330D01*
X178957670Y-71220412D01*
X179059300Y-71294251D01*
X177564648Y-72788903D01*
X177564649Y-72788904D01*
X177822206Y-72997468D01*
X178147456Y-73208689D01*
X178493005Y-73384755D01*
X178855063Y-73523737D01*
X179229669Y-73624112D01*
X179229676Y-73624113D01*
X179612712Y-73684780D01*
X179999999Y-73705078D01*
X180000001Y-73705078D01*
X180387287Y-73684780D01*
X180770323Y-73624113D01*
X180770330Y-73624112D01*
X181144936Y-73523737D01*
X181506994Y-73384755D01*
X181852543Y-73208689D01*
X182177783Y-72997476D01*
X182177785Y-72997475D01*
X182435349Y-72788902D01*
X180940698Y-71294251D01*
X181042330Y-71220412D01*
X181220412Y-71042330D01*
X181294251Y-70940698D01*
X182788902Y-72435349D01*
X182997475Y-72177785D01*
X182997476Y-72177783D01*
X183208691Y-71852541D01*
X183208692Y-71852538D01*
X183265015Y-71741999D01*
X183312989Y-71691202D01*
X183380810Y-71674407D01*
X183446945Y-71696944D01*
X183490397Y-71751659D01*
X183499500Y-71798293D01*
X183499500Y-117201706D01*
X183479815Y-117268745D01*
X183427011Y-117314500D01*
X183357853Y-117324444D01*
X183294297Y-117295419D01*
X183265015Y-117258001D01*
X183208689Y-117147456D01*
X182997468Y-116822206D01*
X182788904Y-116564649D01*
X182788903Y-116564648D01*
X181294251Y-118059300D01*
X181220412Y-117957670D01*
X181042330Y-117779588D01*
X180940698Y-117705748D01*
X182435350Y-116211096D01*
X182435350Y-116211095D01*
X182177793Y-116002531D01*
X181852543Y-115791310D01*
X181506994Y-115615244D01*
X181144936Y-115476262D01*
X180770330Y-115375887D01*
X180770323Y-115375886D01*
X180387287Y-115315219D01*
X180000001Y-115294922D01*
X179999999Y-115294922D01*
X179612712Y-115315219D01*
X179229676Y-115375886D01*
X179229669Y-115375887D01*
X178855063Y-115476262D01*
X178493005Y-115615244D01*
X178147456Y-115791310D01*
X177822206Y-116002531D01*
X177564648Y-116211095D01*
X177564648Y-116211096D01*
X179059301Y-117705748D01*
X178957670Y-117779588D01*
X178779588Y-117957670D01*
X178705748Y-118059300D01*
X177211096Y-116564648D01*
X177211095Y-116564648D01*
X177002531Y-116822206D01*
X176791310Y-117147456D01*
X176615244Y-117493005D01*
X176476262Y-117855063D01*
X176375887Y-118229669D01*
X176375886Y-118229676D01*
X176315219Y-118612712D01*
X176294922Y-118999999D01*
X176294922Y-119000000D01*
X176315219Y-119387287D01*
X176375886Y-119770323D01*
X176375887Y-119770330D01*
X176476262Y-120144936D01*
X176615244Y-120506994D01*
X176791310Y-120852543D01*
X177002531Y-121177793D01*
X177211095Y-121435350D01*
X177211096Y-121435350D01*
X178705748Y-119940698D01*
X178779588Y-120042330D01*
X178957670Y-120220412D01*
X179059300Y-120294251D01*
X177564648Y-121788903D01*
X177564649Y-121788904D01*
X177822206Y-121997468D01*
X178147456Y-122208689D01*
X178258001Y-122265015D01*
X178308797Y-122312990D01*
X178325592Y-122380811D01*
X178303055Y-122446945D01*
X178248340Y-122490397D01*
X178201706Y-122499500D01*
X135798294Y-122499500D01*
X135731255Y-122479815D01*
X135685500Y-122427011D01*
X135675556Y-122357853D01*
X135704581Y-122294297D01*
X135741999Y-122265015D01*
X135852543Y-122208689D01*
X136177783Y-121997476D01*
X136177785Y-121997475D01*
X136435349Y-121788902D01*
X134940698Y-120294251D01*
X135042330Y-120220412D01*
X135220412Y-120042330D01*
X135294251Y-119940698D01*
X136788902Y-121435349D01*
X136997475Y-121177785D01*
X136997476Y-121177783D01*
X137208689Y-120852543D01*
X137384755Y-120506994D01*
X137523737Y-120144936D01*
X137624112Y-119770330D01*
X137624113Y-119770323D01*
X137684780Y-119387287D01*
X137705078Y-119000000D01*
X137705078Y-118999999D01*
X137684780Y-118612712D01*
X137624113Y-118229676D01*
X137624112Y-118229669D01*
X137592243Y-118110730D01*
X152759500Y-118110730D01*
X152759500Y-119669269D01*
X152762353Y-119699699D01*
X152762353Y-119699701D01*
X152807206Y-119827880D01*
X152807207Y-119827882D01*
X152887850Y-119937150D01*
X152997118Y-120017793D01*
X153018089Y-120025131D01*
X153125299Y-120062646D01*
X153155730Y-120065500D01*
X153155734Y-120065500D01*
X154464270Y-120065500D01*
X154494699Y-120062646D01*
X154494701Y-120062646D01*
X154558790Y-120040219D01*
X154622882Y-120017793D01*
X154732150Y-119937150D01*
X154812793Y-119827882D01*
X154849648Y-119722557D01*
X154857646Y-119699701D01*
X154857646Y-119699699D01*
X154860500Y-119669269D01*
X154860500Y-118661530D01*
X155259500Y-118661530D01*
X155259500Y-119118469D01*
X155299868Y-119321412D01*
X155299870Y-119321420D01*
X155317921Y-119365000D01*
X155379059Y-119512598D01*
X155392836Y-119533217D01*
X155494024Y-119684657D01*
X155640342Y-119830975D01*
X155640345Y-119830977D01*
X155812402Y-119945941D01*
X156003580Y-120025130D01*
X156192187Y-120062646D01*
X156206530Y-120065499D01*
X156206534Y-120065500D01*
X156206535Y-120065500D01*
X156413466Y-120065500D01*
X156413467Y-120065499D01*
X156616420Y-120025130D01*
X156807598Y-119945941D01*
X156979655Y-119830977D01*
X157125977Y-119684655D01*
X157240941Y-119512598D01*
X157320130Y-119321420D01*
X157360500Y-119118465D01*
X157360500Y-118661535D01*
X157360499Y-118661530D01*
X157759500Y-118661530D01*
X157759500Y-119118469D01*
X157799868Y-119321412D01*
X157799870Y-119321420D01*
X157817921Y-119365000D01*
X157879059Y-119512598D01*
X157892836Y-119533217D01*
X157994024Y-119684657D01*
X158140342Y-119830975D01*
X158140345Y-119830977D01*
X158312402Y-119945941D01*
X158503580Y-120025130D01*
X158692187Y-120062646D01*
X158706530Y-120065499D01*
X158706534Y-120065500D01*
X158706535Y-120065500D01*
X158913466Y-120065500D01*
X158913467Y-120065499D01*
X159116420Y-120025130D01*
X159307598Y-119945941D01*
X159479655Y-119830977D01*
X159625977Y-119684655D01*
X159740941Y-119512598D01*
X159786748Y-119402009D01*
X159830589Y-119347606D01*
X159896883Y-119325541D01*
X159964582Y-119342820D01*
X160012193Y-119393957D01*
X160019240Y-119411144D01*
X160058904Y-119533216D01*
X160155379Y-119722557D01*
X160280272Y-119894459D01*
X160280276Y-119894464D01*
X160430535Y-120044723D01*
X160430540Y-120044727D01*
X160602442Y-120169620D01*
X160791782Y-120266095D01*
X160993871Y-120331757D01*
X161060000Y-120342231D01*
X161060000Y-119294145D01*
X161126657Y-119332630D01*
X161247465Y-119365000D01*
X161372535Y-119365000D01*
X161493343Y-119332630D01*
X161560000Y-119294145D01*
X161560000Y-120342230D01*
X161626126Y-120331757D01*
X161626129Y-120331757D01*
X161828217Y-120266095D01*
X162017557Y-120169620D01*
X162189459Y-120044727D01*
X162189464Y-120044723D01*
X162339723Y-119894464D01*
X162339727Y-119894459D01*
X162464620Y-119722557D01*
X162561095Y-119533217D01*
X162600759Y-119411144D01*
X162640196Y-119353469D01*
X162704555Y-119326270D01*
X162773401Y-119338184D01*
X162824877Y-119385428D01*
X162833251Y-119402009D01*
X162879057Y-119512596D01*
X162994024Y-119684657D01*
X163140342Y-119830975D01*
X163140345Y-119830977D01*
X163312402Y-119945941D01*
X163503580Y-120025130D01*
X163692187Y-120062646D01*
X163706530Y-120065499D01*
X163706534Y-120065500D01*
X163706535Y-120065500D01*
X163913466Y-120065500D01*
X163913467Y-120065499D01*
X164116420Y-120025130D01*
X164307598Y-119945941D01*
X164479655Y-119830977D01*
X164625977Y-119684655D01*
X164740941Y-119512598D01*
X164820130Y-119321420D01*
X164860500Y-119118465D01*
X164860500Y-118661535D01*
X164860499Y-118661530D01*
X165259500Y-118661530D01*
X165259500Y-119118469D01*
X165299868Y-119321412D01*
X165299870Y-119321420D01*
X165317921Y-119365000D01*
X165379059Y-119512598D01*
X165392836Y-119533217D01*
X165494024Y-119684657D01*
X165640342Y-119830975D01*
X165640345Y-119830977D01*
X165812402Y-119945941D01*
X166003580Y-120025130D01*
X166192187Y-120062646D01*
X166206530Y-120065499D01*
X166206534Y-120065500D01*
X166206535Y-120065500D01*
X166413466Y-120065500D01*
X166413467Y-120065499D01*
X166616420Y-120025130D01*
X166807598Y-119945941D01*
X166979655Y-119830977D01*
X167125977Y-119684655D01*
X167240941Y-119512598D01*
X167320130Y-119321420D01*
X167360500Y-119118465D01*
X167360500Y-118661535D01*
X167360499Y-118661530D01*
X167759500Y-118661530D01*
X167759500Y-119118469D01*
X167799868Y-119321412D01*
X167799870Y-119321420D01*
X167817921Y-119365000D01*
X167879059Y-119512598D01*
X167892836Y-119533217D01*
X167994024Y-119684657D01*
X168140342Y-119830975D01*
X168140345Y-119830977D01*
X168312402Y-119945941D01*
X168503580Y-120025130D01*
X168692187Y-120062646D01*
X168706530Y-120065499D01*
X168706534Y-120065500D01*
X168706535Y-120065500D01*
X168913466Y-120065500D01*
X168913467Y-120065499D01*
X169116420Y-120025130D01*
X169307598Y-119945941D01*
X169479655Y-119830977D01*
X169625977Y-119684655D01*
X169740941Y-119512598D01*
X169820130Y-119321420D01*
X169860500Y-119118465D01*
X169860500Y-118661535D01*
X169860499Y-118661530D01*
X170259500Y-118661530D01*
X170259500Y-119118469D01*
X170299868Y-119321412D01*
X170299870Y-119321420D01*
X170317921Y-119365000D01*
X170379059Y-119512598D01*
X170392836Y-119533217D01*
X170494024Y-119684657D01*
X170640342Y-119830975D01*
X170640345Y-119830977D01*
X170812402Y-119945941D01*
X171003580Y-120025130D01*
X171192187Y-120062646D01*
X171206530Y-120065499D01*
X171206534Y-120065500D01*
X171206535Y-120065500D01*
X171413466Y-120065500D01*
X171413467Y-120065499D01*
X171616420Y-120025130D01*
X171807598Y-119945941D01*
X171979655Y-119830977D01*
X172125977Y-119684655D01*
X172240941Y-119512598D01*
X172320130Y-119321420D01*
X172360500Y-119118465D01*
X172360500Y-118661535D01*
X172320130Y-118458580D01*
X172240941Y-118267402D01*
X172125977Y-118095345D01*
X172125975Y-118095342D01*
X171979657Y-117949024D01*
X171839033Y-117855063D01*
X171807598Y-117834059D01*
X171616420Y-117754870D01*
X171616412Y-117754868D01*
X171413469Y-117714500D01*
X171413465Y-117714500D01*
X171206535Y-117714500D01*
X171206530Y-117714500D01*
X171003587Y-117754868D01*
X171003579Y-117754870D01*
X170812403Y-117834058D01*
X170640342Y-117949024D01*
X170494024Y-118095342D01*
X170379058Y-118267403D01*
X170299870Y-118458579D01*
X170299868Y-118458587D01*
X170259500Y-118661530D01*
X169860499Y-118661530D01*
X169820130Y-118458580D01*
X169740941Y-118267402D01*
X169625977Y-118095345D01*
X169625975Y-118095342D01*
X169479657Y-117949024D01*
X169339033Y-117855063D01*
X169307598Y-117834059D01*
X169116420Y-117754870D01*
X169116412Y-117754868D01*
X168913469Y-117714500D01*
X168913465Y-117714500D01*
X168706535Y-117714500D01*
X168706530Y-117714500D01*
X168503587Y-117754868D01*
X168503579Y-117754870D01*
X168312403Y-117834058D01*
X168140342Y-117949024D01*
X167994024Y-118095342D01*
X167879058Y-118267403D01*
X167799870Y-118458579D01*
X167799868Y-118458587D01*
X167759500Y-118661530D01*
X167360499Y-118661530D01*
X167320130Y-118458580D01*
X167240941Y-118267402D01*
X167125977Y-118095345D01*
X167125975Y-118095342D01*
X166979657Y-117949024D01*
X166839033Y-117855063D01*
X166807598Y-117834059D01*
X166616420Y-117754870D01*
X166616412Y-117754868D01*
X166413469Y-117714500D01*
X166413465Y-117714500D01*
X166206535Y-117714500D01*
X166206530Y-117714500D01*
X166003587Y-117754868D01*
X166003579Y-117754870D01*
X165812403Y-117834058D01*
X165640342Y-117949024D01*
X165494024Y-118095342D01*
X165379058Y-118267403D01*
X165299870Y-118458579D01*
X165299868Y-118458587D01*
X165259500Y-118661530D01*
X164860499Y-118661530D01*
X164820130Y-118458580D01*
X164740941Y-118267402D01*
X164625977Y-118095345D01*
X164625975Y-118095342D01*
X164479657Y-117949024D01*
X164339033Y-117855063D01*
X164307598Y-117834059D01*
X164116420Y-117754870D01*
X164116412Y-117754868D01*
X163913469Y-117714500D01*
X163913465Y-117714500D01*
X163706535Y-117714500D01*
X163706530Y-117714500D01*
X163503587Y-117754868D01*
X163503579Y-117754870D01*
X163312403Y-117834058D01*
X163140342Y-117949024D01*
X162994024Y-118095342D01*
X162879057Y-118267404D01*
X162833251Y-118377990D01*
X162789409Y-118432394D01*
X162723115Y-118454458D01*
X162655416Y-118437178D01*
X162607806Y-118386041D01*
X162600759Y-118368855D01*
X162561095Y-118246782D01*
X162464620Y-118057442D01*
X162339727Y-117885540D01*
X162339723Y-117885535D01*
X162189464Y-117735276D01*
X162189459Y-117735272D01*
X162017557Y-117610379D01*
X161828215Y-117513903D01*
X161626124Y-117448241D01*
X161560000Y-117437768D01*
X161560000Y-118485854D01*
X161493343Y-118447370D01*
X161372535Y-118415000D01*
X161247465Y-118415000D01*
X161126657Y-118447370D01*
X161060000Y-118485854D01*
X161060000Y-117437768D01*
X161059999Y-117437768D01*
X160993875Y-117448241D01*
X160791784Y-117513903D01*
X160602442Y-117610379D01*
X160430540Y-117735272D01*
X160430535Y-117735276D01*
X160280276Y-117885535D01*
X160280272Y-117885540D01*
X160155379Y-118057442D01*
X160058905Y-118246781D01*
X160019240Y-118368856D01*
X159979802Y-118426531D01*
X159915443Y-118453729D01*
X159846597Y-118441814D01*
X159795121Y-118394570D01*
X159786748Y-118377990D01*
X159782964Y-118368855D01*
X159740941Y-118267402D01*
X159625977Y-118095345D01*
X159625975Y-118095342D01*
X159479657Y-117949024D01*
X159339033Y-117855063D01*
X159307598Y-117834059D01*
X159116420Y-117754870D01*
X159116412Y-117754868D01*
X158913469Y-117714500D01*
X158913465Y-117714500D01*
X158706535Y-117714500D01*
X158706530Y-117714500D01*
X158503587Y-117754868D01*
X158503579Y-117754870D01*
X158312403Y-117834058D01*
X158140342Y-117949024D01*
X157994024Y-118095342D01*
X157879058Y-118267403D01*
X157799870Y-118458579D01*
X157799868Y-118458587D01*
X157759500Y-118661530D01*
X157360499Y-118661530D01*
X157320130Y-118458580D01*
X157240941Y-118267402D01*
X157125977Y-118095345D01*
X157125975Y-118095342D01*
X156979657Y-117949024D01*
X156839033Y-117855063D01*
X156807598Y-117834059D01*
X156616420Y-117754870D01*
X156616412Y-117754868D01*
X156413469Y-117714500D01*
X156413465Y-117714500D01*
X156206535Y-117714500D01*
X156206530Y-117714500D01*
X156003587Y-117754868D01*
X156003579Y-117754870D01*
X155812403Y-117834058D01*
X155640342Y-117949024D01*
X155494024Y-118095342D01*
X155379058Y-118267403D01*
X155299870Y-118458579D01*
X155299868Y-118458587D01*
X155259500Y-118661530D01*
X154860500Y-118661530D01*
X154860500Y-118110730D01*
X154857646Y-118080300D01*
X154857646Y-118080298D01*
X154824006Y-117984163D01*
X154812793Y-117952118D01*
X154732150Y-117842850D01*
X154622882Y-117762207D01*
X154622880Y-117762206D01*
X154494700Y-117717353D01*
X154464270Y-117714500D01*
X154464266Y-117714500D01*
X153155734Y-117714500D01*
X153155730Y-117714500D01*
X153125300Y-117717353D01*
X153125298Y-117717353D01*
X152997119Y-117762206D01*
X152997117Y-117762207D01*
X152887850Y-117842850D01*
X152807207Y-117952117D01*
X152807206Y-117952119D01*
X152762353Y-118080298D01*
X152762353Y-118080300D01*
X152759500Y-118110730D01*
X137592243Y-118110730D01*
X137523737Y-117855063D01*
X137384755Y-117493005D01*
X137208689Y-117147456D01*
X136997468Y-116822206D01*
X136788904Y-116564649D01*
X136788903Y-116564648D01*
X135294251Y-118059300D01*
X135220412Y-117957670D01*
X135042330Y-117779588D01*
X134940698Y-117705748D01*
X136435350Y-116211096D01*
X136435350Y-116211095D01*
X136177793Y-116002531D01*
X135852543Y-115791310D01*
X135506994Y-115615244D01*
X135144936Y-115476262D01*
X134770330Y-115375887D01*
X134770323Y-115375886D01*
X134387287Y-115315219D01*
X134000001Y-115294922D01*
X133999999Y-115294922D01*
X133612712Y-115315219D01*
X133229676Y-115375886D01*
X133229669Y-115375887D01*
X132855063Y-115476262D01*
X132493005Y-115615244D01*
X132147456Y-115791310D01*
X131822206Y-116002531D01*
X131564648Y-116211095D01*
X131564648Y-116211096D01*
X133059301Y-117705748D01*
X132957670Y-117779588D01*
X132779588Y-117957670D01*
X132705748Y-118059301D01*
X131211096Y-116564648D01*
X131211095Y-116564648D01*
X131002531Y-116822206D01*
X130791310Y-117147456D01*
X130734985Y-117258001D01*
X130687010Y-117308797D01*
X130619189Y-117325592D01*
X130553055Y-117303055D01*
X130509603Y-117248340D01*
X130500500Y-117201706D01*
X130500500Y-114929999D01*
X141624750Y-114929999D01*
X141624750Y-114930000D01*
X141643670Y-115073708D01*
X141643671Y-115073712D01*
X141699137Y-115207622D01*
X141699138Y-115207624D01*
X141699139Y-115207625D01*
X141787379Y-115322621D01*
X141902375Y-115410861D01*
X142036291Y-115466330D01*
X142163280Y-115483048D01*
X142179999Y-115485250D01*
X142180000Y-115485250D01*
X142180001Y-115485250D01*
X142194977Y-115483278D01*
X142323709Y-115466330D01*
X142457625Y-115410861D01*
X142572621Y-115322621D01*
X142660861Y-115207625D01*
X142716330Y-115073709D01*
X142735250Y-114930000D01*
X142716330Y-114786291D01*
X142660861Y-114652375D01*
X142572621Y-114537379D01*
X142457625Y-114449139D01*
X142457624Y-114449138D01*
X142457622Y-114449137D01*
X142323712Y-114393671D01*
X142323710Y-114393670D01*
X142323709Y-114393670D01*
X142251854Y-114384210D01*
X142180001Y-114374750D01*
X142179999Y-114374750D01*
X142036291Y-114393670D01*
X142036287Y-114393671D01*
X141902377Y-114449137D01*
X141787379Y-114537379D01*
X141699137Y-114652377D01*
X141643671Y-114786287D01*
X141643670Y-114786291D01*
X141624750Y-114929999D01*
X130500500Y-114929999D01*
X130500500Y-111886530D01*
X131314500Y-111886530D01*
X131314500Y-112093469D01*
X131354868Y-112296412D01*
X131354870Y-112296420D01*
X131434058Y-112487596D01*
X131549024Y-112659657D01*
X131695342Y-112805975D01*
X131695345Y-112805977D01*
X131867402Y-112920941D01*
X132058580Y-113000130D01*
X132261530Y-113040499D01*
X132261534Y-113040500D01*
X132261535Y-113040500D01*
X132718466Y-113040500D01*
X132718467Y-113040499D01*
X132921420Y-113000130D01*
X133112598Y-112920941D01*
X133284655Y-112805977D01*
X133430977Y-112659655D01*
X133477521Y-112589997D01*
X160029196Y-112589997D01*
X160029196Y-112590002D01*
X160050279Y-112723121D01*
X160050280Y-112723124D01*
X160050281Y-112723126D01*
X160092495Y-112805975D01*
X160111473Y-112843221D01*
X160111476Y-112843225D01*
X160206774Y-112938523D01*
X160206778Y-112938526D01*
X160206780Y-112938528D01*
X160326874Y-112999719D01*
X160326876Y-112999719D01*
X160326878Y-112999720D01*
X160459998Y-113020804D01*
X160460000Y-113020804D01*
X160460002Y-113020804D01*
X160593121Y-112999720D01*
X160593121Y-112999719D01*
X160593126Y-112999719D01*
X160713220Y-112938528D01*
X160808528Y-112843220D01*
X160869719Y-112723126D01*
X160869720Y-112723121D01*
X160890804Y-112590002D01*
X160890804Y-112589997D01*
X160869720Y-112456878D01*
X160869719Y-112456876D01*
X160869719Y-112456874D01*
X160808528Y-112336780D01*
X160808526Y-112336778D01*
X160808523Y-112336774D01*
X160713225Y-112241476D01*
X160713221Y-112241473D01*
X160713220Y-112241472D01*
X160593126Y-112180281D01*
X160593124Y-112180280D01*
X160593121Y-112180279D01*
X160460002Y-112159196D01*
X160459998Y-112159196D01*
X160326878Y-112180279D01*
X160206778Y-112241473D01*
X160206774Y-112241476D01*
X160111476Y-112336774D01*
X160111473Y-112336778D01*
X160050279Y-112456878D01*
X160029196Y-112589997D01*
X133477521Y-112589997D01*
X133545941Y-112487598D01*
X133625130Y-112296420D01*
X133665500Y-112093465D01*
X133665500Y-111886535D01*
X133625130Y-111683580D01*
X133545941Y-111492402D01*
X133530971Y-111469997D01*
X157869196Y-111469997D01*
X157869196Y-111470002D01*
X157890279Y-111603121D01*
X157890280Y-111603124D01*
X157890281Y-111603126D01*
X157931278Y-111683587D01*
X157951473Y-111723221D01*
X157951476Y-111723225D01*
X158046774Y-111818523D01*
X158046778Y-111818526D01*
X158046780Y-111818528D01*
X158166874Y-111879719D01*
X158166876Y-111879719D01*
X158166878Y-111879720D01*
X158299998Y-111900804D01*
X158300000Y-111900804D01*
X158300002Y-111900804D01*
X158433121Y-111879720D01*
X158433121Y-111879719D01*
X158433126Y-111879719D01*
X158553220Y-111818528D01*
X158648528Y-111723220D01*
X158709719Y-111603126D01*
X158709720Y-111603121D01*
X158730804Y-111470002D01*
X158730804Y-111469997D01*
X158709720Y-111336878D01*
X158709719Y-111336876D01*
X158709719Y-111336874D01*
X158648528Y-111216780D01*
X158648526Y-111216778D01*
X158648523Y-111216774D01*
X158553225Y-111121476D01*
X158553221Y-111121473D01*
X158553220Y-111121472D01*
X158433126Y-111060281D01*
X158433124Y-111060280D01*
X158433121Y-111060279D01*
X158300002Y-111039196D01*
X158299998Y-111039196D01*
X158166878Y-111060279D01*
X158046778Y-111121473D01*
X158046774Y-111121476D01*
X157951476Y-111216774D01*
X157951473Y-111216778D01*
X157951472Y-111216780D01*
X157898705Y-111320342D01*
X157890279Y-111336878D01*
X157869196Y-111469997D01*
X133530971Y-111469997D01*
X133430977Y-111320345D01*
X133430975Y-111320342D01*
X133284657Y-111174024D01*
X133198626Y-111116541D01*
X133112598Y-111059059D01*
X132921420Y-110979870D01*
X132921412Y-110979868D01*
X132718469Y-110939500D01*
X132718465Y-110939500D01*
X132261535Y-110939500D01*
X132261530Y-110939500D01*
X132058587Y-110979868D01*
X132058579Y-110979870D01*
X131867403Y-111059058D01*
X131695342Y-111174024D01*
X131549024Y-111320342D01*
X131434058Y-111492403D01*
X131354870Y-111683579D01*
X131354868Y-111683587D01*
X131314500Y-111886530D01*
X130500500Y-111886530D01*
X130500500Y-106740000D01*
X131037769Y-106740000D01*
X132085854Y-106740000D01*
X132047370Y-106806657D01*
X132015000Y-106927465D01*
X132015000Y-107052535D01*
X132047370Y-107173343D01*
X132085854Y-107240000D01*
X131037769Y-107240000D01*
X131048242Y-107306126D01*
X131048242Y-107306129D01*
X131113904Y-107508217D01*
X131210379Y-107697557D01*
X131335272Y-107869459D01*
X131335276Y-107869464D01*
X131485535Y-108019723D01*
X131485540Y-108019727D01*
X131657442Y-108144620D01*
X131846782Y-108241095D01*
X131968855Y-108280759D01*
X132026530Y-108320196D01*
X132053729Y-108384555D01*
X132041815Y-108453401D01*
X131994570Y-108504877D01*
X131977990Y-108513251D01*
X131867404Y-108559057D01*
X131695342Y-108674024D01*
X131549024Y-108820342D01*
X131434058Y-108992403D01*
X131354870Y-109183579D01*
X131354868Y-109183587D01*
X131314500Y-109386530D01*
X131314500Y-109593469D01*
X131354868Y-109796412D01*
X131354870Y-109796420D01*
X131434059Y-109987598D01*
X131484525Y-110063126D01*
X131549024Y-110159657D01*
X131695342Y-110305975D01*
X131695345Y-110305977D01*
X131867402Y-110420941D01*
X132058580Y-110500130D01*
X132261530Y-110540499D01*
X132261534Y-110540500D01*
X132261535Y-110540500D01*
X132718466Y-110540500D01*
X132718467Y-110540499D01*
X132921420Y-110500130D01*
X133112598Y-110420941D01*
X133284655Y-110305977D01*
X133430977Y-110159655D01*
X133545941Y-109987598D01*
X133569800Y-109929997D01*
X172519196Y-109929997D01*
X172519196Y-109930002D01*
X172540279Y-110063121D01*
X172540280Y-110063124D01*
X172540281Y-110063126D01*
X172601472Y-110183220D01*
X172601473Y-110183221D01*
X172601476Y-110183225D01*
X172696774Y-110278523D01*
X172696778Y-110278526D01*
X172696780Y-110278528D01*
X172816874Y-110339719D01*
X172816876Y-110339719D01*
X172816878Y-110339720D01*
X172949998Y-110360804D01*
X172950000Y-110360804D01*
X172950002Y-110360804D01*
X173083121Y-110339720D01*
X173083121Y-110339719D01*
X173083126Y-110339719D01*
X173203220Y-110278528D01*
X173298528Y-110183220D01*
X173359719Y-110063126D01*
X173359720Y-110063121D01*
X173380804Y-109930002D01*
X173380804Y-109929997D01*
X173359720Y-109796878D01*
X173359719Y-109796876D01*
X173359719Y-109796874D01*
X173298528Y-109676780D01*
X173298526Y-109676778D01*
X173298523Y-109676774D01*
X173203225Y-109581476D01*
X173203221Y-109581473D01*
X173203220Y-109581472D01*
X173083126Y-109520281D01*
X173083124Y-109520280D01*
X173083121Y-109520279D01*
X172950002Y-109499196D01*
X172949998Y-109499196D01*
X172816878Y-109520279D01*
X172696778Y-109581473D01*
X172696774Y-109581476D01*
X172601476Y-109676774D01*
X172601473Y-109676778D01*
X172540279Y-109796878D01*
X172519196Y-109929997D01*
X133569800Y-109929997D01*
X133625130Y-109796420D01*
X133665500Y-109593465D01*
X133665500Y-109386535D01*
X133625130Y-109183580D01*
X133545941Y-108992402D01*
X133430977Y-108820345D01*
X133430975Y-108820342D01*
X133284657Y-108674024D01*
X133112596Y-108559057D01*
X133002009Y-108513251D01*
X132947606Y-108469410D01*
X132925541Y-108403116D01*
X132942820Y-108335416D01*
X132993958Y-108287806D01*
X133011144Y-108280759D01*
X133133217Y-108241095D01*
X133322557Y-108144620D01*
X133494459Y-108019727D01*
X133494464Y-108019723D01*
X133644723Y-107869464D01*
X133644727Y-107869459D01*
X133716988Y-107770000D01*
X179987769Y-107770000D01*
X181035854Y-107770000D01*
X180997370Y-107836657D01*
X180965000Y-107957465D01*
X180965000Y-108082535D01*
X180997370Y-108203343D01*
X181035854Y-108270000D01*
X179987769Y-108270000D01*
X179998242Y-108336126D01*
X179998242Y-108336129D01*
X180063904Y-108538217D01*
X180160379Y-108727557D01*
X180285272Y-108899459D01*
X180285276Y-108899464D01*
X180435535Y-109049723D01*
X180435540Y-109049727D01*
X180607442Y-109174620D01*
X180725971Y-109235015D01*
X180776767Y-109282990D01*
X180793562Y-109350811D01*
X180771024Y-109416946D01*
X180716309Y-109460397D01*
X180669676Y-109469500D01*
X180660730Y-109469500D01*
X180630300Y-109472353D01*
X180630298Y-109472353D01*
X180502119Y-109517206D01*
X180502117Y-109517207D01*
X180392850Y-109597850D01*
X180312207Y-109707117D01*
X180312206Y-109707119D01*
X180267353Y-109835298D01*
X180267353Y-109835300D01*
X180264500Y-109865730D01*
X180264500Y-111174269D01*
X180267353Y-111204699D01*
X180267353Y-111204701D01*
X180307819Y-111320342D01*
X180312207Y-111332882D01*
X180392850Y-111442150D01*
X180502118Y-111522793D01*
X180544845Y-111537744D01*
X180630299Y-111567646D01*
X180660730Y-111570500D01*
X180660734Y-111570500D01*
X182219270Y-111570500D01*
X182249699Y-111567646D01*
X182249701Y-111567646D01*
X182313790Y-111545219D01*
X182377882Y-111522793D01*
X182487150Y-111442150D01*
X182567793Y-111332882D01*
X182608419Y-111216780D01*
X182612646Y-111204701D01*
X182612646Y-111204699D01*
X182615500Y-111174269D01*
X182615500Y-109865730D01*
X182612646Y-109835300D01*
X182612646Y-109835298D01*
X182567793Y-109707119D01*
X182567792Y-109707117D01*
X182487150Y-109597850D01*
X182377882Y-109517207D01*
X182377880Y-109517206D01*
X182249700Y-109472353D01*
X182219270Y-109469500D01*
X182219266Y-109469500D01*
X182210324Y-109469500D01*
X182143285Y-109449815D01*
X182097530Y-109397011D01*
X182087586Y-109327853D01*
X182116611Y-109264297D01*
X182154029Y-109235015D01*
X182272557Y-109174620D01*
X182444459Y-109049727D01*
X182444464Y-109049723D01*
X182594723Y-108899464D01*
X182594727Y-108899459D01*
X182719620Y-108727557D01*
X182816095Y-108538217D01*
X182881757Y-108336129D01*
X182881757Y-108336126D01*
X182892231Y-108270000D01*
X181844146Y-108270000D01*
X181882630Y-108203343D01*
X181915000Y-108082535D01*
X181915000Y-107957465D01*
X181882630Y-107836657D01*
X181844146Y-107770000D01*
X182892231Y-107770000D01*
X182881757Y-107703873D01*
X182881757Y-107703870D01*
X182816095Y-107501782D01*
X182719620Y-107312442D01*
X182594727Y-107140540D01*
X182594723Y-107140535D01*
X182444464Y-106990276D01*
X182444459Y-106990272D01*
X182272557Y-106865379D01*
X182083216Y-106768904D01*
X181961144Y-106729240D01*
X181903468Y-106689802D01*
X181876270Y-106625444D01*
X181888185Y-106556597D01*
X181935429Y-106505122D01*
X181952006Y-106496749D01*
X182062598Y-106450941D01*
X182234655Y-106335977D01*
X182380977Y-106189655D01*
X182495941Y-106017598D01*
X182575130Y-105826420D01*
X182615500Y-105623465D01*
X182615500Y-105416535D01*
X182575130Y-105213580D01*
X182495941Y-105022402D01*
X182380977Y-104850345D01*
X182380975Y-104850342D01*
X182234657Y-104704024D01*
X182148626Y-104646541D01*
X182062598Y-104589059D01*
X181871420Y-104509870D01*
X181871412Y-104509868D01*
X181668469Y-104469500D01*
X181668465Y-104469500D01*
X181211535Y-104469500D01*
X181211530Y-104469500D01*
X181008587Y-104509868D01*
X181008579Y-104509870D01*
X180817403Y-104589058D01*
X180645342Y-104704024D01*
X180499024Y-104850342D01*
X180384058Y-105022403D01*
X180304870Y-105213579D01*
X180304868Y-105213587D01*
X180264500Y-105416530D01*
X180264500Y-105623469D01*
X180304868Y-105826412D01*
X180304870Y-105826420D01*
X180384058Y-106017596D01*
X180499024Y-106189657D01*
X180645342Y-106335975D01*
X180645345Y-106335977D01*
X180817402Y-106450941D01*
X180927990Y-106496748D01*
X180982393Y-106540589D01*
X181004458Y-106606883D01*
X180987179Y-106674582D01*
X180936042Y-106722193D01*
X180918856Y-106729240D01*
X180796781Y-106768905D01*
X180607442Y-106865379D01*
X180435540Y-106990272D01*
X180435535Y-106990276D01*
X180285276Y-107140535D01*
X180285272Y-107140540D01*
X180160379Y-107312442D01*
X180063904Y-107501782D01*
X179998242Y-107703870D01*
X179998242Y-107703873D01*
X179987769Y-107770000D01*
X133716988Y-107770000D01*
X133769620Y-107697557D01*
X133866095Y-107508217D01*
X133931757Y-107306129D01*
X133931757Y-107306126D01*
X133942231Y-107240000D01*
X132894146Y-107240000D01*
X132928788Y-107179997D01*
X150589196Y-107179997D01*
X150589196Y-107180002D01*
X150610279Y-107313121D01*
X150610280Y-107313124D01*
X150610281Y-107313126D01*
X150671472Y-107433220D01*
X150671473Y-107433221D01*
X150671476Y-107433225D01*
X150766774Y-107528523D01*
X150766778Y-107528526D01*
X150766780Y-107528528D01*
X150886874Y-107589719D01*
X150886876Y-107589719D01*
X150886878Y-107589720D01*
X151019998Y-107610804D01*
X151020000Y-107610804D01*
X151020002Y-107610804D01*
X151153121Y-107589720D01*
X151153121Y-107589719D01*
X151153126Y-107589719D01*
X151273220Y-107528528D01*
X151368528Y-107433220D01*
X151429719Y-107313126D01*
X151429720Y-107313121D01*
X151430215Y-107309997D01*
X162669196Y-107309997D01*
X162669196Y-107310002D01*
X162690279Y-107443121D01*
X162690280Y-107443124D01*
X162690281Y-107443126D01*
X162751472Y-107563220D01*
X162751473Y-107563221D01*
X162751476Y-107563225D01*
X162846774Y-107658523D01*
X162846778Y-107658526D01*
X162846780Y-107658528D01*
X162966874Y-107719719D01*
X162966876Y-107719719D01*
X162966878Y-107719720D01*
X163099998Y-107740804D01*
X163100000Y-107740804D01*
X163100002Y-107740804D01*
X163233121Y-107719720D01*
X163233121Y-107719719D01*
X163233126Y-107719719D01*
X163353220Y-107658528D01*
X163448528Y-107563220D01*
X163509719Y-107443126D01*
X163511288Y-107433220D01*
X163530804Y-107310002D01*
X163530804Y-107309997D01*
X163509720Y-107176878D01*
X163509719Y-107176876D01*
X163509719Y-107176874D01*
X163448528Y-107056780D01*
X163448526Y-107056778D01*
X163448523Y-107056774D01*
X163353225Y-106961476D01*
X163353221Y-106961473D01*
X163353220Y-106961472D01*
X163233126Y-106900281D01*
X163233124Y-106900280D01*
X163233121Y-106900279D01*
X163100002Y-106879196D01*
X163099998Y-106879196D01*
X162966878Y-106900279D01*
X162846778Y-106961473D01*
X162846774Y-106961476D01*
X162751476Y-107056774D01*
X162751473Y-107056778D01*
X162690279Y-107176878D01*
X162669196Y-107309997D01*
X151430215Y-107309997D01*
X151450804Y-107180002D01*
X151450804Y-107179997D01*
X151429720Y-107046878D01*
X151429719Y-107046876D01*
X151429719Y-107046874D01*
X151368528Y-106926780D01*
X151368526Y-106926778D01*
X151368523Y-106926774D01*
X151273225Y-106831476D01*
X151273221Y-106831473D01*
X151273220Y-106831472D01*
X151153126Y-106770281D01*
X151153124Y-106770280D01*
X151153121Y-106770279D01*
X151020002Y-106749196D01*
X151019998Y-106749196D01*
X150886878Y-106770279D01*
X150766778Y-106831473D01*
X150766774Y-106831476D01*
X150671476Y-106926774D01*
X150671473Y-106926778D01*
X150610279Y-107046878D01*
X150589196Y-107179997D01*
X132928788Y-107179997D01*
X132932630Y-107173343D01*
X132965000Y-107052535D01*
X132965000Y-106927465D01*
X132932630Y-106806657D01*
X132894146Y-106740000D01*
X133942231Y-106740000D01*
X133931757Y-106673873D01*
X133931757Y-106673870D01*
X133896390Y-106565020D01*
X160614219Y-106565020D01*
X160614219Y-106565025D01*
X160635302Y-106698144D01*
X160635303Y-106698147D01*
X160635304Y-106698149D01*
X160690592Y-106806657D01*
X160696496Y-106818244D01*
X160696499Y-106818248D01*
X160791797Y-106913546D01*
X160791801Y-106913549D01*
X160791803Y-106913551D01*
X160911897Y-106974742D01*
X160911899Y-106974742D01*
X160911901Y-106974743D01*
X161045021Y-106995827D01*
X161045023Y-106995827D01*
X161045025Y-106995827D01*
X161178144Y-106974743D01*
X161178144Y-106974742D01*
X161178149Y-106974742D01*
X161298243Y-106913551D01*
X161393551Y-106818243D01*
X161454742Y-106698149D01*
X161458587Y-106673873D01*
X161475827Y-106565025D01*
X161475827Y-106565020D01*
X161454743Y-106431901D01*
X161454742Y-106431899D01*
X161454742Y-106431897D01*
X161393551Y-106311803D01*
X161393549Y-106311801D01*
X161393546Y-106311797D01*
X161298248Y-106216499D01*
X161298244Y-106216496D01*
X161298243Y-106216495D01*
X161178149Y-106155304D01*
X161178147Y-106155303D01*
X161178144Y-106155302D01*
X161045025Y-106134219D01*
X161045021Y-106134219D01*
X160911901Y-106155302D01*
X160911897Y-106155303D01*
X160911897Y-106155304D01*
X160831834Y-106196098D01*
X160791801Y-106216496D01*
X160791797Y-106216499D01*
X160696499Y-106311797D01*
X160696496Y-106311801D01*
X160635302Y-106431901D01*
X160614219Y-106565020D01*
X133896390Y-106565020D01*
X133866095Y-106471782D01*
X133769620Y-106282442D01*
X133644727Y-106110540D01*
X133644723Y-106110535D01*
X133494464Y-105960276D01*
X133494459Y-105960272D01*
X133322557Y-105835379D01*
X133204029Y-105774985D01*
X133153233Y-105727010D01*
X133136438Y-105659189D01*
X133158976Y-105593054D01*
X133213691Y-105549603D01*
X133260324Y-105540500D01*
X133269270Y-105540500D01*
X133299699Y-105537646D01*
X133299701Y-105537646D01*
X133363790Y-105515219D01*
X133427882Y-105492793D01*
X133537150Y-105412150D01*
X133617793Y-105302882D01*
X133649041Y-105213580D01*
X133662646Y-105174701D01*
X133662646Y-105174699D01*
X133665500Y-105144269D01*
X133665500Y-104559997D01*
X164049196Y-104559997D01*
X164049196Y-104560002D01*
X164070279Y-104693121D01*
X164070280Y-104693124D01*
X164070281Y-104693126D01*
X164126329Y-104803126D01*
X164131473Y-104813221D01*
X164131476Y-104813225D01*
X164226774Y-104908523D01*
X164226778Y-104908526D01*
X164226780Y-104908528D01*
X164346874Y-104969719D01*
X164346876Y-104969719D01*
X164346878Y-104969720D01*
X164479998Y-104990804D01*
X164480000Y-104990804D01*
X164480002Y-104990804D01*
X164613121Y-104969720D01*
X164613121Y-104969719D01*
X164613126Y-104969719D01*
X164733220Y-104908528D01*
X164828528Y-104813220D01*
X164889719Y-104693126D01*
X164889720Y-104693121D01*
X164893382Y-104669997D01*
X169269196Y-104669997D01*
X169269196Y-104670002D01*
X169290279Y-104803121D01*
X169290280Y-104803124D01*
X169290281Y-104803126D01*
X169351472Y-104923220D01*
X169351473Y-104923221D01*
X169351476Y-104923225D01*
X169446774Y-105018523D01*
X169446778Y-105018526D01*
X169446780Y-105018528D01*
X169566874Y-105079719D01*
X169566876Y-105079719D01*
X169566878Y-105079720D01*
X169699998Y-105100804D01*
X169700000Y-105100804D01*
X169700002Y-105100804D01*
X169833121Y-105079720D01*
X169833121Y-105079719D01*
X169833126Y-105079719D01*
X169953220Y-105018528D01*
X170048528Y-104923220D01*
X170109719Y-104803126D01*
X170125415Y-104704024D01*
X170130804Y-104670002D01*
X170130804Y-104669997D01*
X170109720Y-104536878D01*
X170109719Y-104536876D01*
X170109719Y-104536874D01*
X170048528Y-104416780D01*
X170048526Y-104416778D01*
X170048523Y-104416774D01*
X169953225Y-104321476D01*
X169953221Y-104321473D01*
X169953220Y-104321472D01*
X169833126Y-104260281D01*
X169833124Y-104260280D01*
X169833121Y-104260279D01*
X169700002Y-104239196D01*
X169699998Y-104239196D01*
X169566878Y-104260279D01*
X169446778Y-104321473D01*
X169446774Y-104321476D01*
X169351476Y-104416774D01*
X169351473Y-104416778D01*
X169290279Y-104536878D01*
X169269196Y-104669997D01*
X164893382Y-104669997D01*
X164910804Y-104560002D01*
X164910804Y-104559997D01*
X164889720Y-104426878D01*
X164889719Y-104426876D01*
X164889719Y-104426874D01*
X164828528Y-104306780D01*
X164828526Y-104306778D01*
X164828523Y-104306774D01*
X164733225Y-104211476D01*
X164733221Y-104211473D01*
X164733220Y-104211472D01*
X164613126Y-104150281D01*
X164613124Y-104150280D01*
X164613121Y-104150279D01*
X164480002Y-104129196D01*
X164479998Y-104129196D01*
X164346878Y-104150279D01*
X164226778Y-104211473D01*
X164226774Y-104211476D01*
X164131476Y-104306774D01*
X164131473Y-104306778D01*
X164070279Y-104426878D01*
X164049196Y-104559997D01*
X133665500Y-104559997D01*
X133665500Y-103835730D01*
X133662646Y-103805300D01*
X133662646Y-103805298D01*
X133643295Y-103749997D01*
X151069196Y-103749997D01*
X151069196Y-103750002D01*
X151090279Y-103883121D01*
X151090280Y-103883124D01*
X151090281Y-103883126D01*
X151134546Y-103970000D01*
X151151473Y-104003221D01*
X151151476Y-104003225D01*
X151246774Y-104098523D01*
X151246778Y-104098526D01*
X151246780Y-104098528D01*
X151366874Y-104159719D01*
X151366876Y-104159719D01*
X151366878Y-104159720D01*
X151499998Y-104180804D01*
X151500000Y-104180804D01*
X151500002Y-104180804D01*
X151633121Y-104159720D01*
X151633121Y-104159719D01*
X151633126Y-104159719D01*
X151753220Y-104098528D01*
X151848528Y-104003220D01*
X151865456Y-103969997D01*
X161769196Y-103969997D01*
X161769196Y-103970002D01*
X161790279Y-104103121D01*
X161790280Y-104103124D01*
X161790281Y-104103126D01*
X161851472Y-104223220D01*
X161851473Y-104223221D01*
X161851476Y-104223225D01*
X161946774Y-104318523D01*
X161946778Y-104318526D01*
X161946780Y-104318528D01*
X162066874Y-104379719D01*
X162066876Y-104379719D01*
X162066878Y-104379720D01*
X162199998Y-104400804D01*
X162200000Y-104400804D01*
X162200002Y-104400804D01*
X162333121Y-104379720D01*
X162333121Y-104379719D01*
X162333126Y-104379719D01*
X162453220Y-104318528D01*
X162548528Y-104223220D01*
X162609719Y-104103126D01*
X162611671Y-104090804D01*
X162630804Y-103970002D01*
X162630804Y-103969997D01*
X162609720Y-103836878D01*
X162609719Y-103836876D01*
X162609719Y-103836874D01*
X162548528Y-103716780D01*
X162548526Y-103716778D01*
X162548523Y-103716774D01*
X162491746Y-103659997D01*
X162909196Y-103659997D01*
X162909196Y-103660002D01*
X162930279Y-103793121D01*
X162930280Y-103793124D01*
X162930281Y-103793126D01*
X162991472Y-103913220D01*
X162991473Y-103913221D01*
X162991476Y-103913225D01*
X163086774Y-104008523D01*
X163086778Y-104008526D01*
X163086780Y-104008528D01*
X163206874Y-104069719D01*
X163206876Y-104069719D01*
X163206878Y-104069720D01*
X163339998Y-104090804D01*
X163340000Y-104090804D01*
X163340002Y-104090804D01*
X163473121Y-104069720D01*
X163473121Y-104069719D01*
X163473126Y-104069719D01*
X163593220Y-104008528D01*
X163688528Y-103913220D01*
X163749719Y-103793126D01*
X163756549Y-103750002D01*
X163770804Y-103660002D01*
X163770804Y-103659997D01*
X163749720Y-103526878D01*
X163749719Y-103526876D01*
X163749719Y-103526874D01*
X163688528Y-103406780D01*
X163688526Y-103406778D01*
X163688523Y-103406774D01*
X163593225Y-103311476D01*
X163593221Y-103311473D01*
X163593220Y-103311472D01*
X163473126Y-103250281D01*
X163473124Y-103250280D01*
X163473121Y-103250279D01*
X163340002Y-103229196D01*
X163339998Y-103229196D01*
X163206878Y-103250279D01*
X163086778Y-103311473D01*
X163086774Y-103311476D01*
X162991476Y-103406774D01*
X162991473Y-103406778D01*
X162930279Y-103526878D01*
X162909196Y-103659997D01*
X162491746Y-103659997D01*
X162453225Y-103621476D01*
X162453221Y-103621473D01*
X162453220Y-103621472D01*
X162333126Y-103560281D01*
X162333124Y-103560280D01*
X162333121Y-103560279D01*
X162200002Y-103539196D01*
X162199998Y-103539196D01*
X162066878Y-103560279D01*
X161946778Y-103621473D01*
X161946774Y-103621476D01*
X161851476Y-103716774D01*
X161851473Y-103716778D01*
X161790279Y-103836878D01*
X161769196Y-103969997D01*
X151865456Y-103969997D01*
X151909719Y-103883126D01*
X151922045Y-103805301D01*
X151930804Y-103750002D01*
X151930804Y-103749997D01*
X151909720Y-103616878D01*
X151909719Y-103616876D01*
X151909719Y-103616874D01*
X151848528Y-103496780D01*
X151848526Y-103496778D01*
X151848523Y-103496774D01*
X151753225Y-103401476D01*
X151753221Y-103401473D01*
X151753220Y-103401472D01*
X151633126Y-103340281D01*
X151633124Y-103340280D01*
X151633121Y-103340279D01*
X151500002Y-103319196D01*
X151499998Y-103319196D01*
X151366878Y-103340279D01*
X151246778Y-103401473D01*
X151246774Y-103401476D01*
X151151476Y-103496774D01*
X151151473Y-103496778D01*
X151090279Y-103616878D01*
X151069196Y-103749997D01*
X133643295Y-103749997D01*
X133629006Y-103709163D01*
X133617793Y-103677118D01*
X133537150Y-103567850D01*
X133427882Y-103487207D01*
X133427880Y-103487206D01*
X133299700Y-103442353D01*
X133269270Y-103439500D01*
X133269266Y-103439500D01*
X131710734Y-103439500D01*
X131710730Y-103439500D01*
X131680300Y-103442353D01*
X131680298Y-103442353D01*
X131552119Y-103487206D01*
X131552117Y-103487207D01*
X131442850Y-103567850D01*
X131362207Y-103677117D01*
X131362206Y-103677119D01*
X131317353Y-103805298D01*
X131317353Y-103805300D01*
X131314500Y-103835730D01*
X131314500Y-105144269D01*
X131317353Y-105174699D01*
X131317353Y-105174701D01*
X131362206Y-105302880D01*
X131362207Y-105302882D01*
X131442850Y-105412150D01*
X131552118Y-105492793D01*
X131594845Y-105507744D01*
X131680299Y-105537646D01*
X131710730Y-105540500D01*
X131719676Y-105540500D01*
X131786715Y-105560185D01*
X131832470Y-105612989D01*
X131842414Y-105682147D01*
X131813389Y-105745703D01*
X131775971Y-105774985D01*
X131657442Y-105835379D01*
X131485540Y-105960272D01*
X131485535Y-105960276D01*
X131335276Y-106110535D01*
X131335272Y-106110540D01*
X131210379Y-106282442D01*
X131113904Y-106471782D01*
X131048242Y-106673870D01*
X131048242Y-106673873D01*
X131037769Y-106740000D01*
X130500500Y-106740000D01*
X130500500Y-102916530D01*
X180264500Y-102916530D01*
X180264500Y-103123469D01*
X180304868Y-103326412D01*
X180304870Y-103326420D01*
X180371470Y-103487207D01*
X180384059Y-103517598D01*
X180412579Y-103560281D01*
X180499024Y-103689657D01*
X180645342Y-103835975D01*
X180645345Y-103835977D01*
X180817402Y-103950941D01*
X181008580Y-104030130D01*
X181207609Y-104069719D01*
X181211530Y-104070499D01*
X181211534Y-104070500D01*
X181211535Y-104070500D01*
X181668466Y-104070500D01*
X181668467Y-104070499D01*
X181871420Y-104030130D01*
X182062598Y-103950941D01*
X182234655Y-103835977D01*
X182380977Y-103689655D01*
X182495941Y-103517598D01*
X182575130Y-103326420D01*
X182615500Y-103123465D01*
X182615500Y-102916535D01*
X182575130Y-102713580D01*
X182495941Y-102522402D01*
X182380977Y-102350345D01*
X182380975Y-102350342D01*
X182234657Y-102204024D01*
X182113772Y-102123252D01*
X182062598Y-102089059D01*
X182014304Y-102069055D01*
X181871420Y-102009870D01*
X181871412Y-102009868D01*
X181668469Y-101969500D01*
X181668465Y-101969500D01*
X181211535Y-101969500D01*
X181211530Y-101969500D01*
X181008587Y-102009868D01*
X181008579Y-102009870D01*
X180817403Y-102089058D01*
X180645342Y-102204024D01*
X180499024Y-102350342D01*
X180384059Y-102522402D01*
X180304870Y-102713579D01*
X180304868Y-102713587D01*
X180264500Y-102916530D01*
X130500500Y-102916530D01*
X130500500Y-102389997D01*
X172459196Y-102389997D01*
X172459196Y-102390002D01*
X172480279Y-102523121D01*
X172480280Y-102523124D01*
X172480281Y-102523126D01*
X172541472Y-102643220D01*
X172541473Y-102643221D01*
X172541476Y-102643225D01*
X172636774Y-102738523D01*
X172636778Y-102738526D01*
X172636780Y-102738528D01*
X172756874Y-102799719D01*
X172756876Y-102799719D01*
X172756878Y-102799720D01*
X172889998Y-102820804D01*
X172890000Y-102820804D01*
X172890002Y-102820804D01*
X173023121Y-102799720D01*
X173023121Y-102799719D01*
X173023126Y-102799719D01*
X173143220Y-102738528D01*
X173162319Y-102719428D01*
X173223640Y-102685944D01*
X173293331Y-102690927D01*
X173337680Y-102719428D01*
X173356780Y-102738528D01*
X173476874Y-102799719D01*
X173476876Y-102799719D01*
X173476878Y-102799720D01*
X173609998Y-102820804D01*
X173610000Y-102820804D01*
X173610002Y-102820804D01*
X173743121Y-102799720D01*
X173743121Y-102799719D01*
X173743126Y-102799719D01*
X173863220Y-102738528D01*
X173867312Y-102734435D01*
X173928630Y-102700946D01*
X173998322Y-102705924D01*
X174027507Y-102724679D01*
X174028881Y-102722789D01*
X174036778Y-102728526D01*
X174036780Y-102728528D01*
X174156874Y-102789719D01*
X174156876Y-102789719D01*
X174156878Y-102789720D01*
X174289998Y-102810804D01*
X174290000Y-102810804D01*
X174290002Y-102810804D01*
X174423121Y-102789720D01*
X174423121Y-102789719D01*
X174423126Y-102789719D01*
X174543220Y-102728528D01*
X174638528Y-102633220D01*
X174699719Y-102513126D01*
X174720804Y-102380000D01*
X174716107Y-102350345D01*
X174699720Y-102246878D01*
X174699719Y-102246876D01*
X174699719Y-102246874D01*
X174638528Y-102126780D01*
X174638526Y-102126778D01*
X174638523Y-102126774D01*
X174543225Y-102031476D01*
X174543221Y-102031473D01*
X174543220Y-102031472D01*
X174423126Y-101970281D01*
X174423124Y-101970280D01*
X174423121Y-101970279D01*
X174290002Y-101949196D01*
X174289998Y-101949196D01*
X174156878Y-101970279D01*
X174036778Y-102031473D01*
X174036774Y-102031476D01*
X174032681Y-102035570D01*
X173971358Y-102069055D01*
X173901666Y-102064071D01*
X173872491Y-102045321D01*
X173871119Y-102047211D01*
X173863221Y-102041473D01*
X173863220Y-102041472D01*
X173743126Y-101980281D01*
X173743124Y-101980280D01*
X173743121Y-101980279D01*
X173610002Y-101959196D01*
X173609998Y-101959196D01*
X173476878Y-101980279D01*
X173356778Y-102041473D01*
X173356774Y-102041476D01*
X173337681Y-102060570D01*
X173276358Y-102094055D01*
X173206666Y-102089071D01*
X173162319Y-102060570D01*
X173143225Y-102041476D01*
X173143221Y-102041473D01*
X173143220Y-102041472D01*
X173023126Y-101980281D01*
X173023124Y-101980280D01*
X173023121Y-101980279D01*
X172890002Y-101959196D01*
X172889998Y-101959196D01*
X172756878Y-101980279D01*
X172636778Y-102041473D01*
X172636774Y-102041476D01*
X172541476Y-102136774D01*
X172541473Y-102136778D01*
X172480279Y-102256878D01*
X172459196Y-102389997D01*
X130500500Y-102389997D01*
X130500500Y-101699997D01*
X150319196Y-101699997D01*
X150319196Y-101700002D01*
X150340279Y-101833121D01*
X150340280Y-101833124D01*
X150340281Y-101833126D01*
X150399422Y-101949196D01*
X150401473Y-101953221D01*
X150401476Y-101953225D01*
X150496774Y-102048523D01*
X150496778Y-102048526D01*
X150496780Y-102048528D01*
X150616874Y-102109719D01*
X150616876Y-102109719D01*
X150616878Y-102109720D01*
X150749998Y-102130804D01*
X150750000Y-102130804D01*
X150750002Y-102130804D01*
X150883121Y-102109720D01*
X150883121Y-102109719D01*
X150883126Y-102109719D01*
X151003220Y-102048528D01*
X151098528Y-101953220D01*
X151159719Y-101833126D01*
X151180804Y-101700000D01*
X151171301Y-101640002D01*
X151171300Y-101639997D01*
X155969196Y-101639997D01*
X155969196Y-101640002D01*
X155990279Y-101773121D01*
X155990280Y-101773124D01*
X155990281Y-101773126D01*
X156020853Y-101833126D01*
X156051473Y-101893221D01*
X156051476Y-101893225D01*
X156146774Y-101988523D01*
X156146778Y-101988526D01*
X156146780Y-101988528D01*
X156266874Y-102049719D01*
X156266876Y-102049719D01*
X156266878Y-102049720D01*
X156399998Y-102070804D01*
X156400000Y-102070804D01*
X156400002Y-102070804D01*
X156533121Y-102049720D01*
X156533121Y-102049719D01*
X156533126Y-102049719D01*
X156653220Y-101988528D01*
X156748528Y-101893220D01*
X156809719Y-101773126D01*
X156821301Y-101700000D01*
X156830804Y-101640002D01*
X156830804Y-101639997D01*
X156809720Y-101506878D01*
X156809719Y-101506876D01*
X156809719Y-101506874D01*
X156748528Y-101386780D01*
X156748526Y-101386778D01*
X156748523Y-101386774D01*
X156653225Y-101291476D01*
X156653221Y-101291473D01*
X156653220Y-101291472D01*
X156533126Y-101230281D01*
X156533124Y-101230280D01*
X156533121Y-101230279D01*
X156400002Y-101209196D01*
X156399998Y-101209196D01*
X156266878Y-101230279D01*
X156146778Y-101291473D01*
X156146774Y-101291476D01*
X156051476Y-101386774D01*
X156051473Y-101386778D01*
X155990279Y-101506878D01*
X155969196Y-101639997D01*
X151171300Y-101639997D01*
X151159720Y-101566878D01*
X151159719Y-101566876D01*
X151159719Y-101566874D01*
X151098528Y-101446780D01*
X151098526Y-101446778D01*
X151098523Y-101446774D01*
X151003225Y-101351476D01*
X151003221Y-101351473D01*
X151003220Y-101351472D01*
X150883126Y-101290281D01*
X150883124Y-101290280D01*
X150883121Y-101290279D01*
X150750002Y-101269196D01*
X150749998Y-101269196D01*
X150616878Y-101290279D01*
X150496778Y-101351473D01*
X150496774Y-101351476D01*
X150401476Y-101446774D01*
X150401473Y-101446778D01*
X150340279Y-101566878D01*
X150319196Y-101699997D01*
X130500500Y-101699997D01*
X130500500Y-100254997D01*
X156604196Y-100254997D01*
X156604196Y-100255002D01*
X156625279Y-100388121D01*
X156625280Y-100388124D01*
X156625281Y-100388126D01*
X156686472Y-100508220D01*
X156686473Y-100508221D01*
X156686476Y-100508225D01*
X156781774Y-100603523D01*
X156781778Y-100603526D01*
X156781780Y-100603528D01*
X156901874Y-100664719D01*
X156901876Y-100664719D01*
X156901878Y-100664720D01*
X157034998Y-100685804D01*
X157035000Y-100685804D01*
X157035002Y-100685804D01*
X157168121Y-100664720D01*
X157168121Y-100664719D01*
X157168126Y-100664719D01*
X157288220Y-100603528D01*
X157383528Y-100508220D01*
X157430246Y-100416530D01*
X180264500Y-100416530D01*
X180264500Y-100623469D01*
X180304868Y-100826412D01*
X180304870Y-100826420D01*
X180384058Y-101017596D01*
X180499024Y-101189657D01*
X180645342Y-101335975D01*
X180645345Y-101335977D01*
X180817402Y-101450941D01*
X181008580Y-101530130D01*
X181193306Y-101566874D01*
X181211530Y-101570499D01*
X181211534Y-101570500D01*
X181211535Y-101570500D01*
X181668466Y-101570500D01*
X181668467Y-101570499D01*
X181871420Y-101530130D01*
X182062598Y-101450941D01*
X182234655Y-101335977D01*
X182380977Y-101189655D01*
X182495941Y-101017598D01*
X182575130Y-100826420D01*
X182615500Y-100623465D01*
X182615500Y-100416535D01*
X182575130Y-100213580D01*
X182495941Y-100022402D01*
X182380977Y-99850345D01*
X182380975Y-99850342D01*
X182234657Y-99704024D01*
X182148626Y-99646541D01*
X182062598Y-99589059D01*
X181871420Y-99509870D01*
X181871412Y-99509868D01*
X181668469Y-99469500D01*
X181668465Y-99469500D01*
X181211535Y-99469500D01*
X181211530Y-99469500D01*
X181008587Y-99509868D01*
X181008579Y-99509870D01*
X180817403Y-99589058D01*
X180645342Y-99704024D01*
X180499024Y-99850342D01*
X180384058Y-100022403D01*
X180304870Y-100213579D01*
X180304868Y-100213587D01*
X180264500Y-100416530D01*
X157430246Y-100416530D01*
X157444719Y-100388126D01*
X157465804Y-100255000D01*
X157444719Y-100121874D01*
X157383528Y-100001780D01*
X157383526Y-100001778D01*
X157383523Y-100001774D01*
X157288225Y-99906476D01*
X157288221Y-99906473D01*
X157288220Y-99906472D01*
X157168126Y-99845281D01*
X157168124Y-99845280D01*
X157168121Y-99845279D01*
X157035002Y-99824196D01*
X157034998Y-99824196D01*
X156901878Y-99845279D01*
X156781778Y-99906473D01*
X156781774Y-99906476D01*
X156686476Y-100001774D01*
X156686473Y-100001778D01*
X156625279Y-100121878D01*
X156604196Y-100254997D01*
X130500500Y-100254997D01*
X130500500Y-98276530D01*
X131354500Y-98276530D01*
X131354500Y-98483469D01*
X131394868Y-98686412D01*
X131394870Y-98686420D01*
X131474058Y-98877596D01*
X131589024Y-99049657D01*
X131735342Y-99195975D01*
X131735345Y-99195977D01*
X131907402Y-99310941D01*
X132098580Y-99390130D01*
X132301530Y-99430499D01*
X132301534Y-99430500D01*
X132301535Y-99430500D01*
X132758466Y-99430500D01*
X132758467Y-99430499D01*
X132961420Y-99390130D01*
X133152598Y-99310941D01*
X133324655Y-99195977D01*
X133470977Y-99049655D01*
X133585941Y-98877598D01*
X133665130Y-98686420D01*
X133705500Y-98483465D01*
X133705500Y-98276535D01*
X133698233Y-98239999D01*
X167124750Y-98239999D01*
X167124750Y-98240000D01*
X167143670Y-98383708D01*
X167143671Y-98383712D01*
X167199137Y-98517622D01*
X167199138Y-98517624D01*
X167199139Y-98517625D01*
X167287379Y-98632621D01*
X167402375Y-98720861D01*
X167536291Y-98776330D01*
X167663280Y-98793048D01*
X167679999Y-98795250D01*
X167680000Y-98795250D01*
X167680001Y-98795250D01*
X167694977Y-98793278D01*
X167823709Y-98776330D01*
X167957625Y-98720861D01*
X168072621Y-98632621D01*
X168160861Y-98517625D01*
X168216330Y-98383709D01*
X168235250Y-98240000D01*
X168216330Y-98096291D01*
X168160861Y-97962375D01*
X168125683Y-97916530D01*
X180264500Y-97916530D01*
X180264500Y-98123469D01*
X180304868Y-98326412D01*
X180304870Y-98326420D01*
X180384058Y-98517596D01*
X180499024Y-98689657D01*
X180645342Y-98835975D01*
X180645345Y-98835977D01*
X180817402Y-98950941D01*
X181008580Y-99030130D01*
X181211530Y-99070499D01*
X181211534Y-99070500D01*
X181211535Y-99070500D01*
X181668466Y-99070500D01*
X181668467Y-99070499D01*
X181871420Y-99030130D01*
X182062598Y-98950941D01*
X182234655Y-98835977D01*
X182380977Y-98689655D01*
X182495941Y-98517598D01*
X182575130Y-98326420D01*
X182615500Y-98123465D01*
X182615500Y-97916535D01*
X182575130Y-97713580D01*
X182495941Y-97522402D01*
X182380977Y-97350345D01*
X182380975Y-97350342D01*
X182234657Y-97204024D01*
X182148626Y-97146541D01*
X182062598Y-97089059D01*
X181871420Y-97009870D01*
X181871412Y-97009868D01*
X181668469Y-96969500D01*
X181668465Y-96969500D01*
X181211535Y-96969500D01*
X181211530Y-96969500D01*
X181008587Y-97009868D01*
X181008579Y-97009870D01*
X180817403Y-97089058D01*
X180645342Y-97204024D01*
X180499024Y-97350342D01*
X180384058Y-97522403D01*
X180304870Y-97713579D01*
X180304868Y-97713587D01*
X180264500Y-97916530D01*
X168125683Y-97916530D01*
X168072621Y-97847379D01*
X167957625Y-97759139D01*
X167957624Y-97759138D01*
X167957622Y-97759137D01*
X167823712Y-97703671D01*
X167823710Y-97703670D01*
X167823709Y-97703670D01*
X167751854Y-97694210D01*
X167680001Y-97684750D01*
X167679999Y-97684750D01*
X167536291Y-97703670D01*
X167536287Y-97703671D01*
X167402377Y-97759137D01*
X167287379Y-97847379D01*
X167199137Y-97962377D01*
X167143671Y-98096287D01*
X167143670Y-98096291D01*
X167124750Y-98239999D01*
X133698233Y-98239999D01*
X133665130Y-98073580D01*
X133585941Y-97882402D01*
X133470977Y-97710345D01*
X133470975Y-97710342D01*
X133324657Y-97564024D01*
X133238626Y-97506541D01*
X133152598Y-97449059D01*
X132961420Y-97369870D01*
X132961412Y-97369868D01*
X132758469Y-97329500D01*
X132758465Y-97329500D01*
X132301535Y-97329500D01*
X132301530Y-97329500D01*
X132098587Y-97369868D01*
X132098579Y-97369870D01*
X131907403Y-97449058D01*
X131735342Y-97564024D01*
X131589024Y-97710342D01*
X131474058Y-97882403D01*
X131394870Y-98073579D01*
X131394868Y-98073587D01*
X131354500Y-98276530D01*
X130500500Y-98276530D01*
X130500500Y-93130000D01*
X131077769Y-93130000D01*
X132125854Y-93130000D01*
X132087370Y-93196657D01*
X132055000Y-93317465D01*
X132055000Y-93442535D01*
X132087370Y-93563343D01*
X132125854Y-93630000D01*
X131077769Y-93630000D01*
X131088242Y-93696126D01*
X131088242Y-93696129D01*
X131153904Y-93898217D01*
X131250379Y-94087557D01*
X131375272Y-94259459D01*
X131375276Y-94259464D01*
X131525535Y-94409723D01*
X131525540Y-94409727D01*
X131697442Y-94534620D01*
X131886782Y-94631095D01*
X132008855Y-94670759D01*
X132066530Y-94710196D01*
X132093729Y-94774555D01*
X132081815Y-94843401D01*
X132034570Y-94894877D01*
X132017990Y-94903251D01*
X131907404Y-94949057D01*
X131735342Y-95064024D01*
X131589024Y-95210342D01*
X131474058Y-95382403D01*
X131394870Y-95573579D01*
X131394868Y-95573587D01*
X131354500Y-95776530D01*
X131354500Y-95983469D01*
X131394868Y-96186412D01*
X131394870Y-96186420D01*
X131443211Y-96303126D01*
X131474059Y-96377598D01*
X131504543Y-96423221D01*
X131589024Y-96549657D01*
X131735342Y-96695975D01*
X131735345Y-96695977D01*
X131907402Y-96810941D01*
X132098580Y-96890130D01*
X132301530Y-96930499D01*
X132301534Y-96930500D01*
X132301535Y-96930500D01*
X132758466Y-96930500D01*
X132758467Y-96930499D01*
X132961420Y-96890130D01*
X133152598Y-96810941D01*
X133324655Y-96695977D01*
X133470977Y-96549655D01*
X133585941Y-96377598D01*
X133638795Y-96249997D01*
X160669196Y-96249997D01*
X160669196Y-96250002D01*
X160690279Y-96383121D01*
X160690280Y-96383124D01*
X160690281Y-96383126D01*
X160751472Y-96503220D01*
X160751473Y-96503221D01*
X160751476Y-96503225D01*
X160846774Y-96598523D01*
X160846778Y-96598526D01*
X160846780Y-96598528D01*
X160966874Y-96659719D01*
X160966876Y-96659719D01*
X160966878Y-96659720D01*
X161099998Y-96680804D01*
X161100000Y-96680804D01*
X161100002Y-96680804D01*
X161233121Y-96659720D01*
X161233121Y-96659719D01*
X161233126Y-96659719D01*
X161353220Y-96598528D01*
X161448528Y-96503220D01*
X161501123Y-96399997D01*
X162469196Y-96399997D01*
X162469196Y-96400002D01*
X162490279Y-96533121D01*
X162490280Y-96533124D01*
X162490281Y-96533126D01*
X162524765Y-96600804D01*
X162551473Y-96653221D01*
X162551476Y-96653225D01*
X162646774Y-96748523D01*
X162646778Y-96748526D01*
X162646780Y-96748528D01*
X162766874Y-96809719D01*
X162766876Y-96809719D01*
X162766878Y-96809720D01*
X162899998Y-96830804D01*
X162900000Y-96830804D01*
X162900002Y-96830804D01*
X163033121Y-96809720D01*
X163033121Y-96809719D01*
X163033126Y-96809719D01*
X163153220Y-96748528D01*
X163248528Y-96653220D01*
X163309719Y-96533126D01*
X163312031Y-96518528D01*
X163330804Y-96400002D01*
X163330804Y-96399997D01*
X163309720Y-96266878D01*
X163309719Y-96266876D01*
X163309719Y-96266874D01*
X163260358Y-96169997D01*
X166589196Y-96169997D01*
X166589196Y-96170002D01*
X166610279Y-96303121D01*
X166610280Y-96303124D01*
X166610281Y-96303126D01*
X166659641Y-96400000D01*
X166671473Y-96423221D01*
X166671476Y-96423225D01*
X166766774Y-96518523D01*
X166766778Y-96518526D01*
X166766780Y-96518528D01*
X166886874Y-96579719D01*
X166886876Y-96579719D01*
X166886878Y-96579720D01*
X167019998Y-96600804D01*
X167020000Y-96600804D01*
X167020002Y-96600804D01*
X167153121Y-96579720D01*
X167153121Y-96579719D01*
X167153126Y-96579719D01*
X167273220Y-96518528D01*
X167368528Y-96423220D01*
X167429719Y-96303126D01*
X167438133Y-96250002D01*
X167450804Y-96170002D01*
X167450804Y-96169997D01*
X167429720Y-96036878D01*
X167429719Y-96036876D01*
X167429719Y-96036874D01*
X167368528Y-95916780D01*
X167368526Y-95916778D01*
X167368523Y-95916774D01*
X167273225Y-95821476D01*
X167273221Y-95821473D01*
X167273220Y-95821472D01*
X167153126Y-95760281D01*
X167153124Y-95760280D01*
X167153121Y-95760279D01*
X167020002Y-95739196D01*
X167019998Y-95739196D01*
X166886878Y-95760279D01*
X166766778Y-95821473D01*
X166766774Y-95821476D01*
X166671476Y-95916774D01*
X166671473Y-95916778D01*
X166610279Y-96036878D01*
X166589196Y-96169997D01*
X163260358Y-96169997D01*
X163248528Y-96146780D01*
X163248526Y-96146778D01*
X163248523Y-96146774D01*
X163153225Y-96051476D01*
X163153221Y-96051473D01*
X163153220Y-96051472D01*
X163033126Y-95990281D01*
X163033124Y-95990280D01*
X163033121Y-95990279D01*
X162900002Y-95969196D01*
X162899998Y-95969196D01*
X162766878Y-95990279D01*
X162646778Y-96051473D01*
X162646774Y-96051476D01*
X162551476Y-96146774D01*
X162551473Y-96146778D01*
X162490279Y-96266878D01*
X162469196Y-96399997D01*
X161501123Y-96399997D01*
X161509719Y-96383126D01*
X161522390Y-96303126D01*
X161530804Y-96250002D01*
X161530804Y-96249997D01*
X161509720Y-96116878D01*
X161509719Y-96116876D01*
X161509719Y-96116874D01*
X161448528Y-95996780D01*
X161448526Y-95996778D01*
X161448523Y-95996774D01*
X161353225Y-95901476D01*
X161353221Y-95901473D01*
X161353220Y-95901472D01*
X161233126Y-95840281D01*
X161233124Y-95840280D01*
X161233121Y-95840279D01*
X161100002Y-95819196D01*
X161099998Y-95819196D01*
X160966878Y-95840279D01*
X160846778Y-95901473D01*
X160846774Y-95901476D01*
X160751476Y-95996774D01*
X160751473Y-95996778D01*
X160690279Y-96116878D01*
X160669196Y-96249997D01*
X133638795Y-96249997D01*
X133665130Y-96186420D01*
X133705500Y-95983465D01*
X133705500Y-95776535D01*
X133665130Y-95573580D01*
X133585941Y-95382402D01*
X133470977Y-95210345D01*
X133470975Y-95210342D01*
X133324657Y-95064024D01*
X133152596Y-94949057D01*
X133042009Y-94903251D01*
X132987606Y-94859410D01*
X132965541Y-94793116D01*
X132982820Y-94725416D01*
X133033958Y-94677806D01*
X133051144Y-94670759D01*
X133173217Y-94631095D01*
X133362557Y-94534620D01*
X133534459Y-94409727D01*
X133534464Y-94409723D01*
X133684723Y-94259464D01*
X133684727Y-94259459D01*
X133809620Y-94087557D01*
X133906095Y-93898217D01*
X133971757Y-93696129D01*
X133971757Y-93696126D01*
X133982231Y-93630000D01*
X132934146Y-93630000D01*
X132972630Y-93563343D01*
X133005000Y-93442535D01*
X133005000Y-93317465D01*
X132986922Y-93249997D01*
X140719196Y-93249997D01*
X140719196Y-93250002D01*
X140740279Y-93383121D01*
X140740280Y-93383124D01*
X140740281Y-93383126D01*
X140801472Y-93503220D01*
X140801473Y-93503221D01*
X140801476Y-93503225D01*
X140896774Y-93598523D01*
X140896778Y-93598526D01*
X140896780Y-93598528D01*
X141016874Y-93659719D01*
X141016876Y-93659719D01*
X141016878Y-93659720D01*
X141149998Y-93680804D01*
X141150000Y-93680804D01*
X141150002Y-93680804D01*
X141283121Y-93659720D01*
X141283121Y-93659719D01*
X141283126Y-93659719D01*
X141403220Y-93598528D01*
X141498528Y-93503220D01*
X141559719Y-93383126D01*
X141580804Y-93250000D01*
X141572355Y-93196657D01*
X141559720Y-93116878D01*
X141559719Y-93116876D01*
X141559719Y-93116874D01*
X141498528Y-92996780D01*
X141498526Y-92996778D01*
X141498523Y-92996774D01*
X141403225Y-92901476D01*
X141403221Y-92901473D01*
X141403220Y-92901472D01*
X141283126Y-92840281D01*
X141283124Y-92840280D01*
X141283121Y-92840279D01*
X141150002Y-92819196D01*
X141149998Y-92819196D01*
X141016878Y-92840279D01*
X140896778Y-92901473D01*
X140896774Y-92901476D01*
X140801476Y-92996774D01*
X140801473Y-92996778D01*
X140740279Y-93116878D01*
X140719196Y-93249997D01*
X132986922Y-93249997D01*
X132972630Y-93196657D01*
X132934146Y-93130000D01*
X133982231Y-93130000D01*
X133971757Y-93063873D01*
X133971757Y-93063870D01*
X133906095Y-92861782D01*
X133809620Y-92672442D01*
X133684727Y-92500540D01*
X133684723Y-92500535D01*
X133534464Y-92350276D01*
X133534459Y-92350272D01*
X133410205Y-92259997D01*
X138539196Y-92259997D01*
X138539196Y-92260002D01*
X138560279Y-92393121D01*
X138560280Y-92393124D01*
X138560281Y-92393126D01*
X138621472Y-92513220D01*
X138621473Y-92513221D01*
X138621476Y-92513225D01*
X138716774Y-92608523D01*
X138716778Y-92608526D01*
X138716780Y-92608528D01*
X138836874Y-92669719D01*
X138836876Y-92669719D01*
X138836878Y-92669720D01*
X138969998Y-92690804D01*
X138970000Y-92690804D01*
X138970002Y-92690804D01*
X139103121Y-92669720D01*
X139103121Y-92669719D01*
X139103126Y-92669719D01*
X139223220Y-92608528D01*
X139291751Y-92539997D01*
X145309196Y-92539997D01*
X145309196Y-92540002D01*
X145330279Y-92673121D01*
X145330280Y-92673124D01*
X145330281Y-92673126D01*
X145340472Y-92693126D01*
X145391473Y-92793221D01*
X145391476Y-92793225D01*
X145486774Y-92888523D01*
X145486778Y-92888526D01*
X145486780Y-92888528D01*
X145606874Y-92949719D01*
X145606876Y-92949719D01*
X145606878Y-92949720D01*
X145739998Y-92970804D01*
X145740000Y-92970804D01*
X145740002Y-92970804D01*
X145873121Y-92949720D01*
X145873121Y-92949719D01*
X145873126Y-92949719D01*
X145993220Y-92888528D01*
X146088528Y-92793220D01*
X146149719Y-92673126D01*
X146149720Y-92673121D01*
X146169221Y-92549997D01*
X148939196Y-92549997D01*
X148939196Y-92550002D01*
X148960279Y-92683121D01*
X148960280Y-92683124D01*
X148960281Y-92683126D01*
X149021472Y-92803220D01*
X149021473Y-92803221D01*
X149021476Y-92803225D01*
X149116774Y-92898523D01*
X149116778Y-92898526D01*
X149116780Y-92898528D01*
X149236874Y-92959719D01*
X149236876Y-92959719D01*
X149236878Y-92959720D01*
X149369998Y-92980804D01*
X149370000Y-92980804D01*
X149370002Y-92980804D01*
X149503121Y-92959720D01*
X149503121Y-92959719D01*
X149503126Y-92959719D01*
X149623220Y-92898528D01*
X149718528Y-92803220D01*
X149779719Y-92683126D01*
X149781411Y-92672442D01*
X149799221Y-92559997D01*
X164969196Y-92559997D01*
X164969196Y-92560002D01*
X164990279Y-92693121D01*
X164990280Y-92693124D01*
X164990281Y-92693126D01*
X165051472Y-92813220D01*
X165051473Y-92813221D01*
X165051476Y-92813225D01*
X165146774Y-92908523D01*
X165146778Y-92908526D01*
X165146780Y-92908528D01*
X165266874Y-92969719D01*
X165266876Y-92969719D01*
X165266878Y-92969720D01*
X165399998Y-92990804D01*
X165400000Y-92990804D01*
X165400002Y-92990804D01*
X165533121Y-92969720D01*
X165533121Y-92969719D01*
X165533126Y-92969719D01*
X165653220Y-92908528D01*
X165748528Y-92813220D01*
X165809719Y-92693126D01*
X165812887Y-92673126D01*
X165830804Y-92560002D01*
X165830804Y-92559997D01*
X165809720Y-92426878D01*
X165809719Y-92426876D01*
X165809719Y-92426874D01*
X165748528Y-92306780D01*
X165748526Y-92306778D01*
X165748523Y-92306774D01*
X165653225Y-92211476D01*
X165653221Y-92211473D01*
X165653220Y-92211472D01*
X165533126Y-92150281D01*
X165533124Y-92150280D01*
X165533121Y-92150279D01*
X165400002Y-92129196D01*
X165399998Y-92129196D01*
X165266878Y-92150279D01*
X165146778Y-92211473D01*
X165146774Y-92211476D01*
X165051476Y-92306774D01*
X165051473Y-92306778D01*
X165051472Y-92306780D01*
X165000470Y-92406878D01*
X164990279Y-92426878D01*
X164969196Y-92559997D01*
X149799221Y-92559997D01*
X149800804Y-92550002D01*
X149800804Y-92549997D01*
X149779720Y-92416878D01*
X149779719Y-92416876D01*
X149779719Y-92416874D01*
X149718528Y-92296780D01*
X149718526Y-92296778D01*
X149718523Y-92296774D01*
X149623225Y-92201476D01*
X149623221Y-92201473D01*
X149623220Y-92201472D01*
X149503126Y-92140281D01*
X149503124Y-92140280D01*
X149503121Y-92140279D01*
X149370002Y-92119196D01*
X149369998Y-92119196D01*
X149236878Y-92140279D01*
X149116778Y-92201473D01*
X149116774Y-92201476D01*
X149021476Y-92296774D01*
X149021473Y-92296778D01*
X148960279Y-92416878D01*
X148939196Y-92549997D01*
X146169221Y-92549997D01*
X146170804Y-92540002D01*
X146170804Y-92539997D01*
X146149720Y-92406878D01*
X146149719Y-92406876D01*
X146149719Y-92406874D01*
X146088528Y-92286780D01*
X146088526Y-92286778D01*
X146088523Y-92286774D01*
X145993225Y-92191476D01*
X145993221Y-92191473D01*
X145993220Y-92191472D01*
X145873126Y-92130281D01*
X145873124Y-92130280D01*
X145873121Y-92130279D01*
X145740002Y-92109196D01*
X145739998Y-92109196D01*
X145606878Y-92130279D01*
X145486778Y-92191473D01*
X145486774Y-92191476D01*
X145391476Y-92286774D01*
X145391473Y-92286778D01*
X145330279Y-92406878D01*
X145309196Y-92539997D01*
X139291751Y-92539997D01*
X139318528Y-92513220D01*
X139379719Y-92393126D01*
X139386506Y-92350276D01*
X139400804Y-92260002D01*
X139400804Y-92259997D01*
X139379720Y-92126878D01*
X139379719Y-92126876D01*
X139379719Y-92126874D01*
X139318528Y-92006780D01*
X139318526Y-92006778D01*
X139318523Y-92006774D01*
X139223225Y-91911476D01*
X139223221Y-91911473D01*
X139223220Y-91911472D01*
X139103126Y-91850281D01*
X139103124Y-91850280D01*
X139103121Y-91850279D01*
X138970002Y-91829196D01*
X138969998Y-91829196D01*
X138836878Y-91850279D01*
X138716778Y-91911473D01*
X138716774Y-91911476D01*
X138621476Y-92006774D01*
X138621473Y-92006778D01*
X138560279Y-92126878D01*
X138539196Y-92259997D01*
X133410205Y-92259997D01*
X133362557Y-92225379D01*
X133244029Y-92164985D01*
X133193233Y-92117010D01*
X133176438Y-92049189D01*
X133198976Y-91983054D01*
X133253691Y-91939603D01*
X133300324Y-91930500D01*
X133309270Y-91930500D01*
X133339699Y-91927646D01*
X133339701Y-91927646D01*
X133403790Y-91905219D01*
X133467882Y-91882793D01*
X133577150Y-91802150D01*
X133657793Y-91692882D01*
X133696284Y-91582882D01*
X133702646Y-91564701D01*
X133702646Y-91564699D01*
X133705500Y-91534269D01*
X133705500Y-91029997D01*
X165739196Y-91029997D01*
X165739196Y-91030002D01*
X165760279Y-91163121D01*
X165760280Y-91163124D01*
X165760281Y-91163126D01*
X165821472Y-91283220D01*
X165821473Y-91283221D01*
X165821476Y-91283225D01*
X165916774Y-91378523D01*
X165916778Y-91378526D01*
X165916780Y-91378528D01*
X166036874Y-91439719D01*
X166036876Y-91439719D01*
X166036878Y-91439720D01*
X166169998Y-91460804D01*
X166170000Y-91460804D01*
X166170002Y-91460804D01*
X166303121Y-91439720D01*
X166303121Y-91439719D01*
X166303126Y-91439719D01*
X166423220Y-91378528D01*
X166518528Y-91283220D01*
X166579719Y-91163126D01*
X166581798Y-91150000D01*
X166581798Y-91149997D01*
X167449196Y-91149997D01*
X167449196Y-91150002D01*
X167470279Y-91283121D01*
X167470280Y-91283124D01*
X167470281Y-91283126D01*
X167518890Y-91378526D01*
X167531473Y-91403221D01*
X167531476Y-91403225D01*
X167626774Y-91498523D01*
X167626778Y-91498526D01*
X167626780Y-91498528D01*
X167746874Y-91559719D01*
X167746876Y-91559719D01*
X167746878Y-91559720D01*
X167879998Y-91580804D01*
X167880000Y-91580804D01*
X167880002Y-91580804D01*
X168013121Y-91559720D01*
X168013121Y-91559719D01*
X168013126Y-91559719D01*
X168133220Y-91498528D01*
X168228528Y-91403220D01*
X168289719Y-91283126D01*
X168310804Y-91150000D01*
X168291798Y-91030002D01*
X168291797Y-91029997D01*
X172759196Y-91029997D01*
X172759196Y-91030002D01*
X172780279Y-91163121D01*
X172780280Y-91163124D01*
X172780281Y-91163126D01*
X172841472Y-91283220D01*
X172841473Y-91283221D01*
X172841476Y-91283225D01*
X172936774Y-91378523D01*
X172936778Y-91378526D01*
X172936780Y-91378528D01*
X173056874Y-91439719D01*
X173056876Y-91439719D01*
X173056878Y-91439720D01*
X173189998Y-91460804D01*
X173190000Y-91460804D01*
X173190002Y-91460804D01*
X173323121Y-91439720D01*
X173323121Y-91439719D01*
X173323126Y-91439719D01*
X173443220Y-91378528D01*
X173538528Y-91283220D01*
X173599719Y-91163126D01*
X173601798Y-91150000D01*
X173620804Y-91030002D01*
X173620804Y-91029997D01*
X173599720Y-90896878D01*
X173599719Y-90896876D01*
X173599719Y-90896874D01*
X173538528Y-90776780D01*
X173538526Y-90776778D01*
X173538523Y-90776774D01*
X173443225Y-90681476D01*
X173443221Y-90681473D01*
X173443220Y-90681472D01*
X173323126Y-90620281D01*
X173323124Y-90620280D01*
X173323121Y-90620279D01*
X173190002Y-90599196D01*
X173189998Y-90599196D01*
X173056878Y-90620279D01*
X172936778Y-90681473D01*
X172936774Y-90681476D01*
X172841476Y-90776774D01*
X172841473Y-90776778D01*
X172780279Y-90896878D01*
X172759196Y-91029997D01*
X168291797Y-91029997D01*
X168289720Y-91016878D01*
X168289719Y-91016876D01*
X168289719Y-91016874D01*
X168228528Y-90896780D01*
X168228526Y-90896778D01*
X168228523Y-90896774D01*
X168133225Y-90801476D01*
X168133221Y-90801473D01*
X168133220Y-90801472D01*
X168013126Y-90740281D01*
X168013124Y-90740280D01*
X168013121Y-90740279D01*
X167880002Y-90719196D01*
X167879998Y-90719196D01*
X167746878Y-90740279D01*
X167626778Y-90801473D01*
X167626774Y-90801476D01*
X167531476Y-90896774D01*
X167531473Y-90896778D01*
X167470279Y-91016878D01*
X167449196Y-91149997D01*
X166581798Y-91149997D01*
X166600804Y-91030002D01*
X166600804Y-91029997D01*
X166579720Y-90896878D01*
X166579719Y-90896876D01*
X166579719Y-90896874D01*
X166518528Y-90776780D01*
X166518526Y-90776778D01*
X166518523Y-90776774D01*
X166423225Y-90681476D01*
X166423221Y-90681473D01*
X166423220Y-90681472D01*
X166303126Y-90620281D01*
X166303124Y-90620280D01*
X166303121Y-90620279D01*
X166170002Y-90599196D01*
X166169998Y-90599196D01*
X166036878Y-90620279D01*
X165916778Y-90681473D01*
X165916774Y-90681476D01*
X165821476Y-90776774D01*
X165821473Y-90776778D01*
X165760279Y-90896878D01*
X165739196Y-91029997D01*
X133705500Y-91029997D01*
X133705500Y-90225730D01*
X133702646Y-90195300D01*
X133702646Y-90195298D01*
X133657793Y-90067119D01*
X133657792Y-90067117D01*
X133577150Y-89957850D01*
X133467882Y-89877207D01*
X133467880Y-89877206D01*
X133339700Y-89832353D01*
X133309270Y-89829500D01*
X133309266Y-89829500D01*
X131750734Y-89829500D01*
X131750730Y-89829500D01*
X131720300Y-89832353D01*
X131720298Y-89832353D01*
X131592119Y-89877206D01*
X131592117Y-89877207D01*
X131482850Y-89957850D01*
X131402207Y-90067117D01*
X131402206Y-90067119D01*
X131357353Y-90195298D01*
X131357353Y-90195300D01*
X131354500Y-90225730D01*
X131354500Y-91534269D01*
X131357353Y-91564699D01*
X131357353Y-91564701D01*
X131401951Y-91692150D01*
X131402207Y-91692882D01*
X131482850Y-91802150D01*
X131592118Y-91882793D01*
X131634845Y-91897744D01*
X131720299Y-91927646D01*
X131750730Y-91930500D01*
X131759676Y-91930500D01*
X131826715Y-91950185D01*
X131872470Y-92002989D01*
X131882414Y-92072147D01*
X131853389Y-92135703D01*
X131815971Y-92164985D01*
X131697442Y-92225379D01*
X131525540Y-92350272D01*
X131525535Y-92350276D01*
X131375276Y-92500535D01*
X131375272Y-92500540D01*
X131250379Y-92672442D01*
X131153904Y-92861782D01*
X131088242Y-93063870D01*
X131088242Y-93063873D01*
X131077769Y-93130000D01*
X130500500Y-93130000D01*
X130500500Y-87209997D01*
X138329196Y-87209997D01*
X138329196Y-87210002D01*
X138350279Y-87343121D01*
X138350280Y-87343124D01*
X138350281Y-87343126D01*
X138374440Y-87390540D01*
X138411473Y-87463221D01*
X138411476Y-87463225D01*
X138506774Y-87558523D01*
X138506778Y-87558526D01*
X138506780Y-87558528D01*
X138626874Y-87619719D01*
X138626876Y-87619719D01*
X138626878Y-87619720D01*
X138759998Y-87640804D01*
X138760000Y-87640804D01*
X138760002Y-87640804D01*
X138893121Y-87619720D01*
X138893121Y-87619719D01*
X138893126Y-87619719D01*
X139013220Y-87558528D01*
X139108528Y-87463220D01*
X139169719Y-87343126D01*
X139169720Y-87343121D01*
X139190804Y-87210002D01*
X139190804Y-87209997D01*
X139169720Y-87076878D01*
X139169719Y-87076876D01*
X139169719Y-87076874D01*
X139108528Y-86956780D01*
X139108526Y-86956778D01*
X139108523Y-86956774D01*
X139071746Y-86919997D01*
X156959196Y-86919997D01*
X156959196Y-86920002D01*
X156980279Y-87053121D01*
X156980280Y-87053124D01*
X156980281Y-87053126D01*
X157012001Y-87115379D01*
X157041473Y-87173221D01*
X157047211Y-87181119D01*
X157045896Y-87182073D01*
X157074055Y-87233642D01*
X157069071Y-87303334D01*
X157046539Y-87338392D01*
X157047211Y-87338881D01*
X157041473Y-87346778D01*
X156980279Y-87466878D01*
X156959196Y-87599997D01*
X156959196Y-87600002D01*
X156980279Y-87733121D01*
X156980280Y-87733124D01*
X156980281Y-87733126D01*
X157039172Y-87848706D01*
X157052068Y-87917375D01*
X157039172Y-87961292D01*
X157009260Y-88020000D01*
X156980279Y-88076878D01*
X156959196Y-88209997D01*
X156959196Y-88210002D01*
X156980279Y-88343121D01*
X156980280Y-88343124D01*
X156980281Y-88343126D01*
X157041472Y-88463220D01*
X157041473Y-88463221D01*
X157041476Y-88463225D01*
X157136774Y-88558523D01*
X157136778Y-88558526D01*
X157136780Y-88558528D01*
X157256874Y-88619719D01*
X157256876Y-88619719D01*
X157256878Y-88619720D01*
X157389998Y-88640804D01*
X157390000Y-88640804D01*
X157390002Y-88640804D01*
X157523121Y-88619720D01*
X157523121Y-88619719D01*
X157523126Y-88619719D01*
X157643220Y-88558528D01*
X157738528Y-88463220D01*
X157799719Y-88343126D01*
X157799720Y-88343121D01*
X157820804Y-88210002D01*
X157820804Y-88209997D01*
X157799720Y-88076878D01*
X157799719Y-88076876D01*
X157799719Y-88076874D01*
X157770740Y-88020000D01*
X180087769Y-88020000D01*
X181135854Y-88020000D01*
X181097370Y-88086657D01*
X181065000Y-88207465D01*
X181065000Y-88332535D01*
X181097370Y-88453343D01*
X181135854Y-88520000D01*
X180087769Y-88520000D01*
X180098242Y-88586126D01*
X180098242Y-88586129D01*
X180163904Y-88788217D01*
X180260379Y-88977557D01*
X180385272Y-89149459D01*
X180385276Y-89149464D01*
X180535535Y-89299723D01*
X180535540Y-89299727D01*
X180707442Y-89424620D01*
X180825971Y-89485015D01*
X180876767Y-89532990D01*
X180893562Y-89600811D01*
X180871024Y-89666946D01*
X180816309Y-89710397D01*
X180769676Y-89719500D01*
X180760730Y-89719500D01*
X180730300Y-89722353D01*
X180730298Y-89722353D01*
X180602119Y-89767206D01*
X180602117Y-89767207D01*
X180492850Y-89847850D01*
X180412207Y-89957117D01*
X180412206Y-89957119D01*
X180367353Y-90085298D01*
X180367353Y-90085300D01*
X180364500Y-90115730D01*
X180364500Y-91424269D01*
X180367353Y-91454699D01*
X180367353Y-91454701D01*
X180405845Y-91564701D01*
X180412207Y-91582882D01*
X180492850Y-91692150D01*
X180602118Y-91772793D01*
X180644845Y-91787744D01*
X180730299Y-91817646D01*
X180760730Y-91820500D01*
X180760734Y-91820500D01*
X182319270Y-91820500D01*
X182349699Y-91817646D01*
X182349701Y-91817646D01*
X182413790Y-91795219D01*
X182477882Y-91772793D01*
X182587150Y-91692150D01*
X182667793Y-91582882D01*
X182697310Y-91498528D01*
X182712646Y-91454701D01*
X182712646Y-91454699D01*
X182715500Y-91424269D01*
X182715500Y-90115730D01*
X182712646Y-90085300D01*
X182712646Y-90085298D01*
X182667793Y-89957119D01*
X182667792Y-89957117D01*
X182608816Y-89877207D01*
X182587150Y-89847850D01*
X182477882Y-89767207D01*
X182477880Y-89767206D01*
X182349700Y-89722353D01*
X182319270Y-89719500D01*
X182319266Y-89719500D01*
X182310324Y-89719500D01*
X182243285Y-89699815D01*
X182197530Y-89647011D01*
X182187586Y-89577853D01*
X182216611Y-89514297D01*
X182254029Y-89485015D01*
X182372557Y-89424620D01*
X182544459Y-89299727D01*
X182544464Y-89299723D01*
X182694723Y-89149464D01*
X182694727Y-89149459D01*
X182819620Y-88977557D01*
X182916095Y-88788217D01*
X182981757Y-88586129D01*
X182981757Y-88586126D01*
X182992231Y-88520000D01*
X181944146Y-88520000D01*
X181982630Y-88453343D01*
X182015000Y-88332535D01*
X182015000Y-88207465D01*
X181982630Y-88086657D01*
X181944146Y-88020000D01*
X182992231Y-88020000D01*
X182981757Y-87953873D01*
X182981757Y-87953870D01*
X182916095Y-87751782D01*
X182819620Y-87562442D01*
X182694727Y-87390540D01*
X182694723Y-87390535D01*
X182544464Y-87240276D01*
X182544459Y-87240272D01*
X182372557Y-87115379D01*
X182183216Y-87018904D01*
X182061144Y-86979240D01*
X182003468Y-86939802D01*
X181976270Y-86875444D01*
X181988185Y-86806597D01*
X182035429Y-86755122D01*
X182052006Y-86746749D01*
X182162598Y-86700941D01*
X182334655Y-86585977D01*
X182480977Y-86439655D01*
X182595941Y-86267598D01*
X182675130Y-86076420D01*
X182715500Y-85873465D01*
X182715500Y-85666535D01*
X182675130Y-85463580D01*
X182595941Y-85272402D01*
X182480977Y-85100345D01*
X182480975Y-85100342D01*
X182334657Y-84954024D01*
X182248626Y-84896541D01*
X182162598Y-84839059D01*
X181971420Y-84759870D01*
X181971412Y-84759868D01*
X181768469Y-84719500D01*
X181768465Y-84719500D01*
X181311535Y-84719500D01*
X181311530Y-84719500D01*
X181108587Y-84759868D01*
X181108579Y-84759870D01*
X180917403Y-84839058D01*
X180745342Y-84954024D01*
X180599024Y-85100342D01*
X180484058Y-85272403D01*
X180404870Y-85463579D01*
X180404868Y-85463587D01*
X180364500Y-85666530D01*
X180364500Y-85873469D01*
X180404868Y-86076412D01*
X180404870Y-86076420D01*
X180484058Y-86267596D01*
X180599024Y-86439657D01*
X180745342Y-86585975D01*
X180745345Y-86585977D01*
X180917402Y-86700941D01*
X181027990Y-86746748D01*
X181082393Y-86790589D01*
X181104458Y-86856883D01*
X181087179Y-86924582D01*
X181036042Y-86972193D01*
X181018856Y-86979240D01*
X180896781Y-87018905D01*
X180707442Y-87115379D01*
X180535540Y-87240272D01*
X180535535Y-87240276D01*
X180385276Y-87390535D01*
X180385272Y-87390540D01*
X180260379Y-87562442D01*
X180163904Y-87751782D01*
X180098242Y-87953870D01*
X180098242Y-87953873D01*
X180087769Y-88020000D01*
X157770740Y-88020000D01*
X157740826Y-87961290D01*
X157727931Y-87892626D01*
X157740824Y-87848711D01*
X157799719Y-87733126D01*
X157799720Y-87733121D01*
X157820804Y-87600002D01*
X157820804Y-87599997D01*
X157799720Y-87466878D01*
X157799719Y-87466876D01*
X157799719Y-87466874D01*
X157738528Y-87346780D01*
X157738526Y-87346778D01*
X157732789Y-87338881D01*
X157734103Y-87337925D01*
X157705946Y-87286368D01*
X157710925Y-87216676D01*
X157733461Y-87181607D01*
X157732789Y-87181119D01*
X157738523Y-87173224D01*
X157738528Y-87173220D01*
X157799719Y-87053126D01*
X157805139Y-87018904D01*
X157820804Y-86920002D01*
X157820804Y-86919997D01*
X157799720Y-86786878D01*
X157799719Y-86786876D01*
X157799719Y-86786874D01*
X157738528Y-86666780D01*
X157738526Y-86666778D01*
X157738523Y-86666774D01*
X157643225Y-86571476D01*
X157643221Y-86571473D01*
X157643220Y-86571472D01*
X157542195Y-86519997D01*
X162119196Y-86519997D01*
X162119196Y-86520002D01*
X162140279Y-86653121D01*
X162140280Y-86653124D01*
X162140281Y-86653126D01*
X162180350Y-86731765D01*
X162201473Y-86773221D01*
X162201476Y-86773225D01*
X162296774Y-86868523D01*
X162296778Y-86868526D01*
X162296780Y-86868528D01*
X162416874Y-86929719D01*
X162416876Y-86929719D01*
X162416878Y-86929720D01*
X162549998Y-86950804D01*
X162550000Y-86950804D01*
X162550002Y-86950804D01*
X162683121Y-86929720D01*
X162683121Y-86929719D01*
X162683126Y-86929719D01*
X162803220Y-86868528D01*
X162898528Y-86773220D01*
X162959719Y-86653126D01*
X162962359Y-86636459D01*
X162980804Y-86520002D01*
X162980804Y-86519997D01*
X162959720Y-86386878D01*
X162959719Y-86386876D01*
X162959719Y-86386874D01*
X162957865Y-86383236D01*
X163633395Y-86383236D01*
X163633395Y-86383241D01*
X163654478Y-86516360D01*
X163654479Y-86516363D01*
X163654480Y-86516365D01*
X163715671Y-86636459D01*
X163715672Y-86636460D01*
X163715675Y-86636464D01*
X163810973Y-86731762D01*
X163810977Y-86731765D01*
X163810979Y-86731767D01*
X163931073Y-86792958D01*
X163931075Y-86792958D01*
X163931077Y-86792959D01*
X164064197Y-86814043D01*
X164064199Y-86814043D01*
X164064201Y-86814043D01*
X164197320Y-86792959D01*
X164197320Y-86792958D01*
X164197325Y-86792958D01*
X164317419Y-86731767D01*
X164412727Y-86636459D01*
X164473918Y-86516365D01*
X164478221Y-86489196D01*
X164495003Y-86383241D01*
X164495003Y-86383236D01*
X164473919Y-86250117D01*
X164473918Y-86250115D01*
X164473918Y-86250113D01*
X164412727Y-86130019D01*
X164412725Y-86130017D01*
X164412722Y-86130013D01*
X164317424Y-86034715D01*
X164317420Y-86034712D01*
X164317419Y-86034711D01*
X164197325Y-85973520D01*
X164197323Y-85973519D01*
X164197320Y-85973518D01*
X164064201Y-85952435D01*
X164064197Y-85952435D01*
X163931077Y-85973518D01*
X163810977Y-86034712D01*
X163810973Y-86034715D01*
X163715675Y-86130013D01*
X163715672Y-86130017D01*
X163654478Y-86250117D01*
X163633395Y-86383236D01*
X162957865Y-86383236D01*
X162898528Y-86266780D01*
X162898526Y-86266778D01*
X162898523Y-86266774D01*
X162803225Y-86171476D01*
X162803221Y-86171473D01*
X162803220Y-86171472D01*
X162683126Y-86110281D01*
X162683124Y-86110280D01*
X162683121Y-86110279D01*
X162550002Y-86089196D01*
X162549998Y-86089196D01*
X162416878Y-86110279D01*
X162296778Y-86171473D01*
X162296774Y-86171476D01*
X162201476Y-86266774D01*
X162201473Y-86266778D01*
X162140279Y-86386878D01*
X162119196Y-86519997D01*
X157542195Y-86519997D01*
X157523126Y-86510281D01*
X157523124Y-86510280D01*
X157523121Y-86510279D01*
X157390002Y-86489196D01*
X157389998Y-86489196D01*
X157256878Y-86510279D01*
X157256874Y-86510280D01*
X157256874Y-86510281D01*
X157176811Y-86551075D01*
X157136778Y-86571473D01*
X157136774Y-86571476D01*
X157041476Y-86666774D01*
X157041473Y-86666778D01*
X156980279Y-86786878D01*
X156959196Y-86919997D01*
X139071746Y-86919997D01*
X139013225Y-86861476D01*
X139013221Y-86861473D01*
X139013220Y-86861472D01*
X138893126Y-86800281D01*
X138893124Y-86800280D01*
X138893121Y-86800279D01*
X138760002Y-86779196D01*
X138759998Y-86779196D01*
X138626878Y-86800279D01*
X138506778Y-86861473D01*
X138506774Y-86861476D01*
X138411476Y-86956774D01*
X138411473Y-86956778D01*
X138350279Y-87076878D01*
X138329196Y-87209997D01*
X130500500Y-87209997D01*
X130500500Y-84106530D01*
X131324500Y-84106530D01*
X131324500Y-84313469D01*
X131325899Y-84320500D01*
X131364870Y-84516420D01*
X131444059Y-84707598D01*
X131478986Y-84759870D01*
X131559024Y-84879657D01*
X131705342Y-85025975D01*
X131705345Y-85025977D01*
X131877402Y-85140941D01*
X132068580Y-85220130D01*
X132271530Y-85260499D01*
X132271534Y-85260500D01*
X132271535Y-85260500D01*
X132728466Y-85260500D01*
X132728467Y-85260499D01*
X132931420Y-85220130D01*
X133122598Y-85140941D01*
X133294655Y-85025977D01*
X133440977Y-84879655D01*
X133555941Y-84707598D01*
X133635130Y-84516420D01*
X133675500Y-84313465D01*
X133675500Y-84106535D01*
X133635130Y-83903580D01*
X133625362Y-83879997D01*
X135439196Y-83879997D01*
X135439196Y-83880002D01*
X135460279Y-84013121D01*
X135460280Y-84013124D01*
X135460281Y-84013126D01*
X135521472Y-84133220D01*
X135521473Y-84133221D01*
X135521476Y-84133225D01*
X135616774Y-84228523D01*
X135616778Y-84228526D01*
X135616780Y-84228528D01*
X135736874Y-84289719D01*
X135736876Y-84289719D01*
X135736878Y-84289720D01*
X135869998Y-84310804D01*
X135870000Y-84310804D01*
X135870002Y-84310804D01*
X136003121Y-84289720D01*
X136003121Y-84289719D01*
X136003126Y-84289719D01*
X136123220Y-84228528D01*
X136218528Y-84133220D01*
X136279719Y-84013126D01*
X136279720Y-84013121D01*
X136300804Y-83880002D01*
X136300804Y-83879997D01*
X136279720Y-83746878D01*
X136279719Y-83746876D01*
X136279719Y-83746874D01*
X136218528Y-83626780D01*
X136218526Y-83626778D01*
X136218523Y-83626774D01*
X136123225Y-83531476D01*
X136123221Y-83531473D01*
X136123220Y-83531472D01*
X136003126Y-83470281D01*
X136003124Y-83470280D01*
X136003121Y-83470279D01*
X135870002Y-83449196D01*
X135869998Y-83449196D01*
X135736878Y-83470279D01*
X135616778Y-83531473D01*
X135616774Y-83531476D01*
X135521476Y-83626774D01*
X135521473Y-83626778D01*
X135460279Y-83746878D01*
X135439196Y-83879997D01*
X133625362Y-83879997D01*
X133555941Y-83712402D01*
X133440977Y-83540345D01*
X133440975Y-83540342D01*
X133294657Y-83394024D01*
X133228765Y-83349997D01*
X172679196Y-83349997D01*
X172679196Y-83350002D01*
X172700279Y-83483121D01*
X172700280Y-83483124D01*
X172700281Y-83483126D01*
X172757103Y-83594645D01*
X172761473Y-83603221D01*
X172761476Y-83603225D01*
X172856774Y-83698523D01*
X172856778Y-83698526D01*
X172856780Y-83698528D01*
X172976874Y-83759719D01*
X172976876Y-83759719D01*
X172976878Y-83759720D01*
X173109998Y-83780804D01*
X173110000Y-83780804D01*
X173110002Y-83780804D01*
X173243121Y-83759720D01*
X173243121Y-83759719D01*
X173243126Y-83759719D01*
X173363220Y-83698528D01*
X173377316Y-83684431D01*
X173438635Y-83650945D01*
X173508327Y-83655926D01*
X173552680Y-83684429D01*
X173556774Y-83688523D01*
X173556778Y-83688526D01*
X173556780Y-83688528D01*
X173676874Y-83749719D01*
X173676876Y-83749719D01*
X173676878Y-83749720D01*
X173809998Y-83770804D01*
X173810000Y-83770804D01*
X173810002Y-83770804D01*
X173943121Y-83749720D01*
X173943121Y-83749719D01*
X173943126Y-83749719D01*
X174063220Y-83688528D01*
X174082319Y-83669428D01*
X174143640Y-83635944D01*
X174213331Y-83640927D01*
X174257680Y-83669428D01*
X174276780Y-83688528D01*
X174396874Y-83749719D01*
X174396876Y-83749719D01*
X174396878Y-83749720D01*
X174529998Y-83770804D01*
X174530000Y-83770804D01*
X174530002Y-83770804D01*
X174663121Y-83749720D01*
X174663121Y-83749719D01*
X174663126Y-83749719D01*
X174783220Y-83688528D01*
X174878528Y-83593220D01*
X174939719Y-83473126D01*
X174943509Y-83449196D01*
X174960804Y-83340002D01*
X174960804Y-83339997D01*
X174939720Y-83206878D01*
X174939719Y-83206876D01*
X174939719Y-83206874D01*
X174919163Y-83166530D01*
X180364500Y-83166530D01*
X180364500Y-83373469D01*
X180404868Y-83576412D01*
X180404870Y-83576420D01*
X180484058Y-83767596D01*
X180599024Y-83939657D01*
X180745342Y-84085975D01*
X180745345Y-84085977D01*
X180917402Y-84200941D01*
X181108580Y-84280130D01*
X181276188Y-84313469D01*
X181311530Y-84320499D01*
X181311534Y-84320500D01*
X181311535Y-84320500D01*
X181768466Y-84320500D01*
X181768467Y-84320499D01*
X181971420Y-84280130D01*
X182162598Y-84200941D01*
X182334655Y-84085977D01*
X182480977Y-83939655D01*
X182595941Y-83767598D01*
X182675130Y-83576420D01*
X182715500Y-83373465D01*
X182715500Y-83166535D01*
X182675130Y-82963580D01*
X182595941Y-82772402D01*
X182480977Y-82600345D01*
X182480975Y-82600342D01*
X182334657Y-82454024D01*
X182239255Y-82390279D01*
X182162598Y-82339059D01*
X181971420Y-82259870D01*
X181971412Y-82259868D01*
X181768469Y-82219500D01*
X181768465Y-82219500D01*
X181311535Y-82219500D01*
X181311530Y-82219500D01*
X181108587Y-82259868D01*
X181108579Y-82259870D01*
X180917403Y-82339058D01*
X180745342Y-82454024D01*
X180599024Y-82600342D01*
X180484058Y-82772403D01*
X180404870Y-82963579D01*
X180404868Y-82963587D01*
X180364500Y-83166530D01*
X174919163Y-83166530D01*
X174878528Y-83086780D01*
X174878526Y-83086778D01*
X174878523Y-83086774D01*
X174783225Y-82991476D01*
X174783221Y-82991473D01*
X174783220Y-82991472D01*
X174663126Y-82930281D01*
X174663124Y-82930280D01*
X174663121Y-82930279D01*
X174530002Y-82909196D01*
X174529998Y-82909196D01*
X174396878Y-82930279D01*
X174276778Y-82991473D01*
X174276774Y-82991476D01*
X174257681Y-83010570D01*
X174196358Y-83044055D01*
X174126666Y-83039071D01*
X174082319Y-83010570D01*
X174063225Y-82991476D01*
X174063221Y-82991473D01*
X174063220Y-82991472D01*
X173943126Y-82930281D01*
X173943124Y-82930280D01*
X173943121Y-82930279D01*
X173810002Y-82909196D01*
X173809998Y-82909196D01*
X173676878Y-82930279D01*
X173556778Y-82991473D01*
X173556774Y-82991476D01*
X173542681Y-83005570D01*
X173481358Y-83039055D01*
X173411666Y-83034071D01*
X173367319Y-83005570D01*
X173363225Y-83001476D01*
X173363221Y-83001473D01*
X173363220Y-83001472D01*
X173243126Y-82940281D01*
X173243124Y-82940280D01*
X173243121Y-82940279D01*
X173110002Y-82919196D01*
X173109998Y-82919196D01*
X172976878Y-82940279D01*
X172856778Y-83001473D01*
X172856774Y-83001476D01*
X172761476Y-83096774D01*
X172761473Y-83096778D01*
X172700279Y-83216878D01*
X172679196Y-83349997D01*
X133228765Y-83349997D01*
X133208626Y-83336541D01*
X133122598Y-83279059D01*
X132931420Y-83199870D01*
X132931412Y-83199868D01*
X132728469Y-83159500D01*
X132728465Y-83159500D01*
X132271535Y-83159500D01*
X132271530Y-83159500D01*
X132068587Y-83199868D01*
X132068579Y-83199870D01*
X131877403Y-83279058D01*
X131705342Y-83394024D01*
X131559024Y-83540342D01*
X131444058Y-83712403D01*
X131364870Y-83903579D01*
X131364868Y-83903587D01*
X131324500Y-84106530D01*
X130500500Y-84106530D01*
X130500500Y-82799997D01*
X167239196Y-82799997D01*
X167239196Y-82800002D01*
X167260279Y-82933121D01*
X167260280Y-82933124D01*
X167260281Y-82933126D01*
X167321472Y-83053220D01*
X167321473Y-83053221D01*
X167321476Y-83053225D01*
X167416774Y-83148523D01*
X167416778Y-83148526D01*
X167416780Y-83148528D01*
X167536874Y-83209719D01*
X167536876Y-83209719D01*
X167536878Y-83209720D01*
X167669998Y-83230804D01*
X167670000Y-83230804D01*
X167670002Y-83230804D01*
X167803121Y-83209720D01*
X167803121Y-83209719D01*
X167803126Y-83209719D01*
X167923220Y-83148528D01*
X168018528Y-83053220D01*
X168079719Y-82933126D01*
X168080170Y-82930279D01*
X168100804Y-82800002D01*
X168100804Y-82799997D01*
X168079720Y-82666878D01*
X168079719Y-82666876D01*
X168079719Y-82666874D01*
X168018528Y-82546780D01*
X168018526Y-82546778D01*
X168018523Y-82546774D01*
X167923225Y-82451476D01*
X167923221Y-82451473D01*
X167923220Y-82451472D01*
X167803126Y-82390281D01*
X167803124Y-82390280D01*
X167803121Y-82390279D01*
X167670002Y-82369196D01*
X167669998Y-82369196D01*
X167536878Y-82390279D01*
X167416778Y-82451473D01*
X167416774Y-82451476D01*
X167321476Y-82546774D01*
X167321473Y-82546778D01*
X167260279Y-82666878D01*
X167239196Y-82799997D01*
X130500500Y-82799997D01*
X130500500Y-78960000D01*
X131047769Y-78960000D01*
X132095854Y-78960000D01*
X132057370Y-79026657D01*
X132025000Y-79147465D01*
X132025000Y-79272535D01*
X132057370Y-79393343D01*
X132095854Y-79460000D01*
X131047769Y-79460000D01*
X131058242Y-79526126D01*
X131058242Y-79526129D01*
X131123904Y-79728217D01*
X131220379Y-79917557D01*
X131345272Y-80089459D01*
X131345276Y-80089464D01*
X131495535Y-80239723D01*
X131495540Y-80239727D01*
X131667442Y-80364620D01*
X131856782Y-80461095D01*
X131978855Y-80500759D01*
X132036530Y-80540196D01*
X132063729Y-80604555D01*
X132051815Y-80673401D01*
X132004570Y-80724877D01*
X131987990Y-80733251D01*
X131877404Y-80779057D01*
X131705342Y-80894024D01*
X131559024Y-81040342D01*
X131444058Y-81212403D01*
X131364870Y-81403579D01*
X131364868Y-81403587D01*
X131324500Y-81606530D01*
X131324500Y-81813469D01*
X131364868Y-82016412D01*
X131364870Y-82016420D01*
X131427875Y-82168528D01*
X131444059Y-82207598D01*
X131478986Y-82259870D01*
X131559024Y-82379657D01*
X131705342Y-82525975D01*
X131705345Y-82525977D01*
X131877402Y-82640941D01*
X132068580Y-82720130D01*
X132271530Y-82760499D01*
X132271534Y-82760500D01*
X132271535Y-82760500D01*
X132728466Y-82760500D01*
X132728467Y-82760499D01*
X132931420Y-82720130D01*
X133122598Y-82640941D01*
X133294655Y-82525977D01*
X133440977Y-82379655D01*
X133555941Y-82207598D01*
X133635130Y-82016420D01*
X133675500Y-81813465D01*
X133675500Y-81809997D01*
X161639196Y-81809997D01*
X161639196Y-81810002D01*
X161660279Y-81943121D01*
X161660280Y-81943124D01*
X161660281Y-81943126D01*
X161721472Y-82063220D01*
X161721473Y-82063221D01*
X161721476Y-82063225D01*
X161816774Y-82158523D01*
X161816778Y-82158526D01*
X161816780Y-82158528D01*
X161936874Y-82219719D01*
X161936876Y-82219719D01*
X161936878Y-82219720D01*
X162069998Y-82240804D01*
X162070000Y-82240804D01*
X162070002Y-82240804D01*
X162203122Y-82219720D01*
X162203123Y-82219719D01*
X162203126Y-82219719D01*
X162278893Y-82181113D01*
X162347559Y-82168217D01*
X162391477Y-82181111D01*
X162486874Y-82229719D01*
X162486876Y-82229719D01*
X162486878Y-82229720D01*
X162619998Y-82250804D01*
X162620000Y-82250804D01*
X162620002Y-82250804D01*
X162753121Y-82229720D01*
X162753121Y-82229719D01*
X162753126Y-82229719D01*
X162873220Y-82168528D01*
X162873222Y-82168525D01*
X162878705Y-82165732D01*
X162947374Y-82152836D01*
X162991295Y-82165732D01*
X162996777Y-82168525D01*
X162996780Y-82168528D01*
X163116874Y-82229719D01*
X163116876Y-82229719D01*
X163116878Y-82229720D01*
X163249998Y-82250804D01*
X163250000Y-82250804D01*
X163250002Y-82250804D01*
X163383121Y-82229720D01*
X163383121Y-82229719D01*
X163383126Y-82229719D01*
X163503220Y-82168528D01*
X163598528Y-82073220D01*
X163659719Y-81953126D01*
X163662887Y-81933126D01*
X163680804Y-81820002D01*
X163680804Y-81819997D01*
X163677636Y-81799997D01*
X164509196Y-81799997D01*
X164509196Y-81800002D01*
X164530279Y-81933121D01*
X164530280Y-81933124D01*
X164530281Y-81933126D01*
X164591472Y-82053220D01*
X164591473Y-82053221D01*
X164591476Y-82053225D01*
X164686774Y-82148523D01*
X164686778Y-82148526D01*
X164686780Y-82148528D01*
X164806874Y-82209719D01*
X164806876Y-82209719D01*
X164806878Y-82209720D01*
X164939998Y-82230804D01*
X164940000Y-82230804D01*
X164940002Y-82230804D01*
X165073123Y-82209720D01*
X165073124Y-82209719D01*
X165073126Y-82209719D01*
X165118705Y-82186494D01*
X165187373Y-82173598D01*
X165231293Y-82186494D01*
X165272711Y-82207598D01*
X165276874Y-82209719D01*
X165276876Y-82209720D01*
X165409998Y-82230804D01*
X165410000Y-82230804D01*
X165410002Y-82230804D01*
X165543121Y-82209720D01*
X165543121Y-82209719D01*
X165543126Y-82209719D01*
X165663220Y-82148528D01*
X165758528Y-82053220D01*
X165819719Y-81933126D01*
X165835542Y-81833225D01*
X165840804Y-81800002D01*
X165840804Y-81799997D01*
X165819720Y-81666878D01*
X165819719Y-81666876D01*
X165819719Y-81666874D01*
X165775453Y-81579997D01*
X167489196Y-81579997D01*
X167489196Y-81580002D01*
X167510279Y-81713121D01*
X167510280Y-81713124D01*
X167510281Y-81713126D01*
X167564991Y-81820500D01*
X167571473Y-81833221D01*
X167571476Y-81833225D01*
X167666774Y-81928523D01*
X167666778Y-81928526D01*
X167666780Y-81928528D01*
X167786874Y-81989719D01*
X167786876Y-81989719D01*
X167786878Y-81989720D01*
X167919998Y-82010804D01*
X167920000Y-82010804D01*
X167920002Y-82010804D01*
X168053121Y-81989720D01*
X168053121Y-81989719D01*
X168053126Y-81989719D01*
X168173220Y-81928528D01*
X168268528Y-81833220D01*
X168329719Y-81713126D01*
X168337045Y-81666874D01*
X168350804Y-81580002D01*
X168350804Y-81579997D01*
X168329720Y-81446878D01*
X168329719Y-81446876D01*
X168329719Y-81446874D01*
X168268528Y-81326780D01*
X168268526Y-81326778D01*
X168268523Y-81326774D01*
X168173225Y-81231476D01*
X168173221Y-81231473D01*
X168173220Y-81231472D01*
X168053126Y-81170281D01*
X168053124Y-81170280D01*
X168053121Y-81170279D01*
X167920002Y-81149196D01*
X167919998Y-81149196D01*
X167786878Y-81170279D01*
X167666778Y-81231473D01*
X167666774Y-81231476D01*
X167571476Y-81326774D01*
X167571473Y-81326778D01*
X167510279Y-81446878D01*
X167489196Y-81579997D01*
X165775453Y-81579997D01*
X165758528Y-81546780D01*
X165758526Y-81546778D01*
X165758523Y-81546774D01*
X165663225Y-81451476D01*
X165663221Y-81451473D01*
X165663220Y-81451472D01*
X165543126Y-81390281D01*
X165543124Y-81390280D01*
X165543121Y-81390279D01*
X165410002Y-81369196D01*
X165409998Y-81369196D01*
X165276876Y-81390279D01*
X165231294Y-81413505D01*
X165162625Y-81426401D01*
X165118706Y-81413505D01*
X165073123Y-81390279D01*
X164940002Y-81369196D01*
X164939998Y-81369196D01*
X164806878Y-81390279D01*
X164686778Y-81451473D01*
X164686774Y-81451476D01*
X164591476Y-81546774D01*
X164591473Y-81546778D01*
X164530279Y-81666878D01*
X164509196Y-81799997D01*
X163677636Y-81799997D01*
X163659720Y-81686878D01*
X163659719Y-81686876D01*
X163659719Y-81686874D01*
X163598528Y-81566780D01*
X163598526Y-81566778D01*
X163598523Y-81566774D01*
X163503225Y-81471476D01*
X163503221Y-81471473D01*
X163503220Y-81471472D01*
X163383126Y-81410281D01*
X163383124Y-81410280D01*
X163383121Y-81410279D01*
X163250002Y-81389196D01*
X163249998Y-81389196D01*
X163116876Y-81410279D01*
X162991294Y-81474267D01*
X162922625Y-81487163D01*
X162878706Y-81474267D01*
X162753123Y-81410279D01*
X162620002Y-81389196D01*
X162619998Y-81389196D01*
X162486876Y-81410279D01*
X162411107Y-81448886D01*
X162342438Y-81461782D01*
X162298519Y-81448886D01*
X162203123Y-81400279D01*
X162070002Y-81379196D01*
X162069998Y-81379196D01*
X161936878Y-81400279D01*
X161936874Y-81400280D01*
X161936874Y-81400281D01*
X161885611Y-81426401D01*
X161816778Y-81461473D01*
X161816774Y-81461476D01*
X161721476Y-81556774D01*
X161721473Y-81556778D01*
X161660279Y-81676878D01*
X161639196Y-81809997D01*
X133675500Y-81809997D01*
X133675500Y-81606535D01*
X133635130Y-81403580D01*
X133555941Y-81212402D01*
X133440977Y-81040345D01*
X133440975Y-81040342D01*
X133294657Y-80894024D01*
X133122596Y-80779057D01*
X133012009Y-80733251D01*
X132957606Y-80689410D01*
X132935541Y-80623116D01*
X132952820Y-80555416D01*
X132980123Y-80529997D01*
X155319196Y-80529997D01*
X155319196Y-80530002D01*
X155340279Y-80663123D01*
X155396624Y-80773706D01*
X155409520Y-80842375D01*
X155396624Y-80886294D01*
X155340279Y-80996876D01*
X155319196Y-81129997D01*
X155319196Y-81130002D01*
X155340279Y-81263121D01*
X155340280Y-81263124D01*
X155340281Y-81263126D01*
X155399422Y-81379196D01*
X155401473Y-81383221D01*
X155401476Y-81383225D01*
X155496774Y-81478523D01*
X155496778Y-81478526D01*
X155496780Y-81478528D01*
X155616874Y-81539719D01*
X155616876Y-81539719D01*
X155616878Y-81539720D01*
X155749998Y-81560804D01*
X155750000Y-81560804D01*
X155750002Y-81560804D01*
X155883121Y-81539720D01*
X155883121Y-81539719D01*
X155883126Y-81539719D01*
X156003220Y-81478528D01*
X156098528Y-81383220D01*
X156159719Y-81263126D01*
X156164732Y-81231476D01*
X156180804Y-81130002D01*
X156180804Y-81129997D01*
X156159720Y-80996878D01*
X156159719Y-80996876D01*
X156159719Y-80996874D01*
X156103374Y-80886291D01*
X156090479Y-80817626D01*
X156103373Y-80773710D01*
X156159719Y-80663126D01*
X156159720Y-80663121D01*
X156161799Y-80649997D01*
X166389196Y-80649997D01*
X166389196Y-80650002D01*
X166410279Y-80783121D01*
X166410280Y-80783124D01*
X166410281Y-80783126D01*
X166471472Y-80903220D01*
X166471473Y-80903221D01*
X166471476Y-80903225D01*
X166566774Y-80998523D01*
X166566778Y-80998526D01*
X166566780Y-80998528D01*
X166686874Y-81059719D01*
X166686876Y-81059719D01*
X166686878Y-81059720D01*
X166819998Y-81080804D01*
X166820000Y-81080804D01*
X166820002Y-81080804D01*
X166953121Y-81059720D01*
X166953121Y-81059719D01*
X166953126Y-81059719D01*
X167073220Y-80998528D01*
X167168528Y-80903220D01*
X167229719Y-80783126D01*
X167230363Y-80779059D01*
X167248186Y-80666530D01*
X180364500Y-80666530D01*
X180364500Y-80873469D01*
X180404868Y-81076412D01*
X180404870Y-81076420D01*
X180484058Y-81267596D01*
X180599024Y-81439657D01*
X180745342Y-81585975D01*
X180745345Y-81585977D01*
X180917402Y-81700941D01*
X181108580Y-81780130D01*
X181276188Y-81813469D01*
X181311530Y-81820499D01*
X181311534Y-81820500D01*
X181311535Y-81820500D01*
X181768466Y-81820500D01*
X181768467Y-81820499D01*
X181971420Y-81780130D01*
X182162598Y-81700941D01*
X182334655Y-81585977D01*
X182480977Y-81439655D01*
X182595941Y-81267598D01*
X182675130Y-81076420D01*
X182715500Y-80873465D01*
X182715500Y-80666535D01*
X182675130Y-80463580D01*
X182595941Y-80272402D01*
X182480977Y-80100345D01*
X182480975Y-80100342D01*
X182334657Y-79954024D01*
X182183643Y-79853121D01*
X182162598Y-79839059D01*
X182070957Y-79801100D01*
X181971420Y-79759870D01*
X181971412Y-79759868D01*
X181768469Y-79719500D01*
X181768465Y-79719500D01*
X181311535Y-79719500D01*
X181311530Y-79719500D01*
X181108587Y-79759868D01*
X181108579Y-79759870D01*
X180917403Y-79839058D01*
X180745342Y-79954024D01*
X180599024Y-80100342D01*
X180484058Y-80272403D01*
X180404870Y-80463579D01*
X180404868Y-80463587D01*
X180364500Y-80666530D01*
X167248186Y-80666530D01*
X167250804Y-80650002D01*
X167250804Y-80649997D01*
X167229720Y-80516878D01*
X167229719Y-80516876D01*
X167229719Y-80516874D01*
X167178769Y-80416879D01*
X167165874Y-80348215D01*
X167190635Y-80287207D01*
X167189939Y-80286702D01*
X167191980Y-80283891D01*
X167192150Y-80283475D01*
X167192869Y-80282668D01*
X167195669Y-80278813D01*
X167195676Y-80278807D01*
X167256867Y-80158713D01*
X167267836Y-80089459D01*
X167277952Y-80025589D01*
X167277952Y-80025584D01*
X167256868Y-79892465D01*
X167256867Y-79892463D01*
X167256867Y-79892461D01*
X167203168Y-79787072D01*
X167190273Y-79718404D01*
X167203167Y-79674487D01*
X167249719Y-79583126D01*
X167249720Y-79583121D01*
X167270804Y-79450002D01*
X167270804Y-79449997D01*
X167249720Y-79316878D01*
X167249719Y-79316876D01*
X167249719Y-79316874D01*
X167188528Y-79196780D01*
X167188526Y-79196778D01*
X167188523Y-79196774D01*
X167093225Y-79101476D01*
X167093221Y-79101473D01*
X167093220Y-79101472D01*
X166973126Y-79040281D01*
X166973124Y-79040280D01*
X166973121Y-79040279D01*
X166840002Y-79019196D01*
X166839998Y-79019196D01*
X166706878Y-79040279D01*
X166586778Y-79101473D01*
X166586774Y-79101476D01*
X166491476Y-79196774D01*
X166491473Y-79196778D01*
X166430279Y-79316878D01*
X166409196Y-79449997D01*
X166409196Y-79450002D01*
X166430279Y-79583123D01*
X166483978Y-79688513D01*
X166496874Y-79757182D01*
X166483979Y-79801100D01*
X166437427Y-79892464D01*
X166416344Y-80025584D01*
X166416344Y-80025589D01*
X166437427Y-80158708D01*
X166437428Y-80158711D01*
X166437429Y-80158713D01*
X166488377Y-80258705D01*
X166501273Y-80327371D01*
X166476511Y-80388379D01*
X166477208Y-80388885D01*
X166475166Y-80391695D01*
X166474997Y-80392112D01*
X166474275Y-80392921D01*
X166471474Y-80396776D01*
X166410279Y-80516878D01*
X166389196Y-80649997D01*
X156161799Y-80649997D01*
X156180804Y-80530002D01*
X156180804Y-80529997D01*
X156159720Y-80396878D01*
X156159719Y-80396876D01*
X156159719Y-80396874D01*
X156098528Y-80276780D01*
X156098526Y-80276778D01*
X156098523Y-80276774D01*
X156039429Y-80217680D01*
X156005944Y-80156357D01*
X156010928Y-80086665D01*
X156039428Y-80042319D01*
X156108528Y-79973220D01*
X156169719Y-79853126D01*
X156182510Y-79772367D01*
X156190804Y-79720002D01*
X156190804Y-79719997D01*
X156169720Y-79586878D01*
X156169719Y-79586876D01*
X156169719Y-79586874D01*
X156108528Y-79466780D01*
X156108526Y-79466778D01*
X156108523Y-79466774D01*
X156013225Y-79371476D01*
X156013221Y-79371473D01*
X156013220Y-79371472D01*
X155893126Y-79310281D01*
X155893124Y-79310280D01*
X155893121Y-79310279D01*
X155760002Y-79289196D01*
X155759998Y-79289196D01*
X155626878Y-79310279D01*
X155506778Y-79371473D01*
X155506774Y-79371476D01*
X155411476Y-79466774D01*
X155411473Y-79466778D01*
X155350279Y-79586878D01*
X155329196Y-79719997D01*
X155329196Y-79720002D01*
X155350279Y-79853121D01*
X155350280Y-79853124D01*
X155350281Y-79853126D01*
X155411472Y-79973220D01*
X155411473Y-79973221D01*
X155411476Y-79973225D01*
X155470570Y-80032319D01*
X155504055Y-80093642D01*
X155499071Y-80163334D01*
X155470570Y-80207681D01*
X155401476Y-80276774D01*
X155401473Y-80276778D01*
X155340279Y-80396878D01*
X155319196Y-80529997D01*
X132980123Y-80529997D01*
X133003958Y-80507806D01*
X133021144Y-80500759D01*
X133143217Y-80461095D01*
X133332557Y-80364620D01*
X133504459Y-80239727D01*
X133504464Y-80239723D01*
X133654723Y-80089464D01*
X133654727Y-80089459D01*
X133779620Y-79917557D01*
X133876095Y-79728217D01*
X133941757Y-79526129D01*
X133941757Y-79526126D01*
X133952231Y-79460000D01*
X132904146Y-79460000D01*
X132942630Y-79393343D01*
X132975000Y-79272535D01*
X132975000Y-79147465D01*
X132942630Y-79026657D01*
X132904146Y-78960000D01*
X133952231Y-78960000D01*
X133941757Y-78893873D01*
X133941757Y-78893870D01*
X133876095Y-78691782D01*
X133779620Y-78502442D01*
X133654727Y-78330540D01*
X133654723Y-78330535D01*
X133504464Y-78180276D01*
X133504459Y-78180272D01*
X133485545Y-78166530D01*
X180364500Y-78166530D01*
X180364500Y-78373469D01*
X180404868Y-78576412D01*
X180404870Y-78576420D01*
X180484058Y-78767596D01*
X180599024Y-78939657D01*
X180745342Y-79085975D01*
X180745345Y-79085977D01*
X180917402Y-79200941D01*
X181108580Y-79280130D01*
X181293306Y-79316874D01*
X181311530Y-79320499D01*
X181311534Y-79320500D01*
X181311535Y-79320500D01*
X181768466Y-79320500D01*
X181768467Y-79320499D01*
X181971420Y-79280130D01*
X182162598Y-79200941D01*
X182334655Y-79085977D01*
X182480977Y-78939655D01*
X182595941Y-78767598D01*
X182675130Y-78576420D01*
X182715500Y-78373465D01*
X182715500Y-78166535D01*
X182675130Y-77963580D01*
X182595941Y-77772402D01*
X182480977Y-77600345D01*
X182480975Y-77600342D01*
X182334657Y-77454024D01*
X182245870Y-77394699D01*
X182162598Y-77339059D01*
X181971420Y-77259870D01*
X181971412Y-77259868D01*
X181768469Y-77219500D01*
X181768465Y-77219500D01*
X181311535Y-77219500D01*
X181311530Y-77219500D01*
X181108587Y-77259868D01*
X181108579Y-77259870D01*
X180917403Y-77339058D01*
X180745342Y-77454024D01*
X180599024Y-77600342D01*
X180484058Y-77772403D01*
X180404870Y-77963579D01*
X180404868Y-77963587D01*
X180364500Y-78166530D01*
X133485545Y-78166530D01*
X133332557Y-78055379D01*
X133214029Y-77994985D01*
X133163233Y-77947010D01*
X133146438Y-77879189D01*
X133168976Y-77813054D01*
X133223691Y-77769603D01*
X133270324Y-77760500D01*
X133279270Y-77760500D01*
X133309699Y-77757646D01*
X133309701Y-77757646D01*
X133373790Y-77735219D01*
X133437882Y-77712793D01*
X133547150Y-77632150D01*
X133627793Y-77522882D01*
X133651888Y-77454023D01*
X133672646Y-77394701D01*
X133672646Y-77394699D01*
X133675500Y-77364269D01*
X133675500Y-76055730D01*
X133672646Y-76025300D01*
X133672646Y-76025298D01*
X133627793Y-75897119D01*
X133627792Y-75897117D01*
X133599312Y-75858528D01*
X133547150Y-75787850D01*
X133437882Y-75707207D01*
X133437880Y-75707206D01*
X133417278Y-75699997D01*
X142039196Y-75699997D01*
X142039196Y-75700002D01*
X142060279Y-75833121D01*
X142060280Y-75833124D01*
X142060281Y-75833126D01*
X142104403Y-75919720D01*
X142121473Y-75953221D01*
X142121476Y-75953225D01*
X142216774Y-76048523D01*
X142216778Y-76048526D01*
X142216780Y-76048528D01*
X142336874Y-76109719D01*
X142336876Y-76109719D01*
X142336878Y-76109720D01*
X142469998Y-76130804D01*
X142470000Y-76130804D01*
X142470002Y-76130804D01*
X142603121Y-76109720D01*
X142603121Y-76109719D01*
X142603126Y-76109719D01*
X142723220Y-76048528D01*
X142741751Y-76029997D01*
X144459196Y-76029997D01*
X144459196Y-76030002D01*
X144480279Y-76163121D01*
X144480280Y-76163124D01*
X144480281Y-76163126D01*
X144541472Y-76283220D01*
X144541473Y-76283221D01*
X144541476Y-76283225D01*
X144636774Y-76378523D01*
X144636778Y-76378526D01*
X144636780Y-76378528D01*
X144756874Y-76439719D01*
X144756876Y-76439719D01*
X144756878Y-76439720D01*
X144889998Y-76460804D01*
X144890000Y-76460804D01*
X144890002Y-76460804D01*
X145023121Y-76439720D01*
X145023121Y-76439719D01*
X145023126Y-76439719D01*
X145143220Y-76378528D01*
X145238528Y-76283220D01*
X145299719Y-76163126D01*
X145302550Y-76145250D01*
X145320804Y-76030002D01*
X145320804Y-76029997D01*
X145299720Y-75896878D01*
X145299719Y-75896876D01*
X145299719Y-75896874D01*
X145238528Y-75776780D01*
X145238526Y-75776778D01*
X145238523Y-75776774D01*
X145143225Y-75681476D01*
X145143221Y-75681473D01*
X145143220Y-75681472D01*
X145023126Y-75620281D01*
X145023124Y-75620280D01*
X145023121Y-75620279D01*
X144890002Y-75599196D01*
X144889998Y-75599196D01*
X144756878Y-75620279D01*
X144636778Y-75681473D01*
X144636774Y-75681476D01*
X144541476Y-75776774D01*
X144541473Y-75776778D01*
X144480279Y-75896878D01*
X144459196Y-76029997D01*
X142741751Y-76029997D01*
X142818528Y-75953220D01*
X142879719Y-75833126D01*
X142886890Y-75787850D01*
X142900804Y-75700002D01*
X142900804Y-75699997D01*
X142879720Y-75566878D01*
X142879719Y-75566876D01*
X142879719Y-75566874D01*
X142850739Y-75509997D01*
X153589196Y-75509997D01*
X153589196Y-75510002D01*
X153610279Y-75643121D01*
X153610280Y-75643124D01*
X153610281Y-75643126D01*
X153656437Y-75733712D01*
X153671473Y-75763221D01*
X153671476Y-75763225D01*
X153766774Y-75858523D01*
X153766778Y-75858526D01*
X153766780Y-75858528D01*
X153886874Y-75919719D01*
X153886876Y-75919719D01*
X153886878Y-75919720D01*
X154019998Y-75940804D01*
X154020000Y-75940804D01*
X154020002Y-75940804D01*
X154153121Y-75919720D01*
X154153121Y-75919719D01*
X154153126Y-75919719D01*
X154273220Y-75858528D01*
X154368528Y-75763220D01*
X154429719Y-75643126D01*
X154429720Y-75643121D01*
X154438134Y-75589999D01*
X166094750Y-75589999D01*
X166094750Y-75590000D01*
X166113670Y-75733708D01*
X166113671Y-75733712D01*
X166169137Y-75867622D01*
X166169138Y-75867624D01*
X166169139Y-75867625D01*
X166257379Y-75982621D01*
X166372375Y-76070861D01*
X166506291Y-76126330D01*
X166633280Y-76143048D01*
X166649999Y-76145250D01*
X166650000Y-76145250D01*
X166650001Y-76145250D01*
X166664977Y-76143278D01*
X166793709Y-76126330D01*
X166927625Y-76070861D01*
X167042621Y-75982621D01*
X167130861Y-75867625D01*
X167186330Y-75733709D01*
X167205250Y-75590000D01*
X167186330Y-75446291D01*
X167130861Y-75312375D01*
X167042621Y-75197379D01*
X166927625Y-75109139D01*
X166927624Y-75109138D01*
X166927622Y-75109137D01*
X166793712Y-75053671D01*
X166793710Y-75053670D01*
X166793709Y-75053670D01*
X166721854Y-75044210D01*
X166650001Y-75034750D01*
X166649999Y-75034750D01*
X166506291Y-75053670D01*
X166506287Y-75053671D01*
X166372377Y-75109137D01*
X166257379Y-75197379D01*
X166169137Y-75312377D01*
X166113671Y-75446287D01*
X166113670Y-75446291D01*
X166094750Y-75589999D01*
X154438134Y-75589999D01*
X154450804Y-75510002D01*
X154450804Y-75509997D01*
X154429720Y-75376878D01*
X154429719Y-75376876D01*
X154429719Y-75376874D01*
X154368528Y-75256780D01*
X154368526Y-75256778D01*
X154368523Y-75256774D01*
X154273225Y-75161476D01*
X154273221Y-75161473D01*
X154273220Y-75161472D01*
X154153126Y-75100281D01*
X154153124Y-75100280D01*
X154153121Y-75100279D01*
X154020002Y-75079196D01*
X154019998Y-75079196D01*
X153886878Y-75100279D01*
X153766778Y-75161473D01*
X153766774Y-75161476D01*
X153671476Y-75256774D01*
X153671473Y-75256778D01*
X153610279Y-75376878D01*
X153589196Y-75509997D01*
X142850739Y-75509997D01*
X142818528Y-75446780D01*
X142818526Y-75446778D01*
X142818523Y-75446774D01*
X142723225Y-75351476D01*
X142723221Y-75351473D01*
X142723220Y-75351472D01*
X142603126Y-75290281D01*
X142603124Y-75290280D01*
X142603121Y-75290279D01*
X142470002Y-75269196D01*
X142469998Y-75269196D01*
X142336878Y-75290279D01*
X142216778Y-75351473D01*
X142216774Y-75351476D01*
X142121476Y-75446774D01*
X142121473Y-75446778D01*
X142060279Y-75566878D01*
X142039196Y-75699997D01*
X133417278Y-75699997D01*
X133309700Y-75662353D01*
X133279270Y-75659500D01*
X133279266Y-75659500D01*
X131720734Y-75659500D01*
X131720730Y-75659500D01*
X131690300Y-75662353D01*
X131690298Y-75662353D01*
X131562119Y-75707206D01*
X131562117Y-75707207D01*
X131452850Y-75787850D01*
X131372207Y-75897117D01*
X131372206Y-75897119D01*
X131327353Y-76025298D01*
X131327353Y-76025300D01*
X131324500Y-76055730D01*
X131324500Y-77364269D01*
X131327353Y-77394699D01*
X131327353Y-77394701D01*
X131372206Y-77522880D01*
X131372207Y-77522882D01*
X131452850Y-77632150D01*
X131562118Y-77712793D01*
X131604845Y-77727744D01*
X131690299Y-77757646D01*
X131720730Y-77760500D01*
X131729676Y-77760500D01*
X131796715Y-77780185D01*
X131842470Y-77832989D01*
X131852414Y-77902147D01*
X131823389Y-77965703D01*
X131785971Y-77994985D01*
X131667442Y-78055379D01*
X131495540Y-78180272D01*
X131495535Y-78180276D01*
X131345276Y-78330535D01*
X131345272Y-78330540D01*
X131220379Y-78502442D01*
X131123904Y-78691782D01*
X131058242Y-78893870D01*
X131058242Y-78893873D01*
X131047769Y-78960000D01*
X130500500Y-78960000D01*
X130500500Y-71352406D01*
X130520185Y-71285367D01*
X130572989Y-71239612D01*
X130642147Y-71229668D01*
X130705703Y-71258693D01*
X130740264Y-71307968D01*
X130755244Y-71346994D01*
X130931310Y-71692543D01*
X131142531Y-72017793D01*
X131351095Y-72275350D01*
X131351096Y-72275350D01*
X132845747Y-70780698D01*
X132919588Y-70882330D01*
X133097670Y-71060412D01*
X133199300Y-71134251D01*
X131704648Y-72628903D01*
X131704649Y-72628904D01*
X131962206Y-72837468D01*
X132287456Y-73048689D01*
X132633005Y-73224755D01*
X132995063Y-73363737D01*
X133369669Y-73464112D01*
X133369676Y-73464113D01*
X133752712Y-73524780D01*
X134139999Y-73545078D01*
X134140001Y-73545078D01*
X134527287Y-73524780D01*
X134910323Y-73464113D01*
X134910330Y-73464112D01*
X135284936Y-73363737D01*
X135646994Y-73224755D01*
X135992543Y-73048689D01*
X136317783Y-72837476D01*
X136317785Y-72837475D01*
X136575349Y-72628902D01*
X135080698Y-71134251D01*
X135182330Y-71060412D01*
X135360412Y-70882330D01*
X135434251Y-70780698D01*
X136928902Y-72275349D01*
X137137475Y-72017785D01*
X137137476Y-72017783D01*
X137348689Y-71692543D01*
X137404120Y-71583753D01*
X155010000Y-71583753D01*
X155010000Y-71590000D01*
X155926988Y-71590000D01*
X155894075Y-71647007D01*
X155860000Y-71774174D01*
X155860000Y-71905826D01*
X155894075Y-72032993D01*
X155926988Y-72090000D01*
X155010000Y-72090000D01*
X155010000Y-72096246D01*
X155043242Y-72306127D01*
X155043242Y-72306130D01*
X155108904Y-72508217D01*
X155205379Y-72697557D01*
X155330272Y-72869459D01*
X155330276Y-72869464D01*
X155480535Y-73019723D01*
X155480540Y-73019727D01*
X155652442Y-73144620D01*
X155841782Y-73241095D01*
X156043871Y-73306757D01*
X156110000Y-73317231D01*
X156110000Y-72273012D01*
X156167007Y-72305925D01*
X156294174Y-72340000D01*
X156425826Y-72340000D01*
X156552993Y-72305925D01*
X156610000Y-72273012D01*
X156610000Y-73317230D01*
X156676126Y-73306757D01*
X156676129Y-73306757D01*
X156878217Y-73241095D01*
X157067557Y-73144620D01*
X157239459Y-73019727D01*
X157239464Y-73019723D01*
X157389723Y-72869464D01*
X157389727Y-72869459D01*
X157514620Y-72697557D01*
X157575015Y-72579028D01*
X157622990Y-72528232D01*
X157690811Y-72511437D01*
X157756946Y-72533974D01*
X157800397Y-72588690D01*
X157809500Y-72635323D01*
X157809500Y-72644269D01*
X157812353Y-72674699D01*
X157812353Y-72674701D01*
X157857206Y-72802880D01*
X157857207Y-72802882D01*
X157937850Y-72912150D01*
X158047118Y-72992793D01*
X158083430Y-73005499D01*
X158175299Y-73037646D01*
X158205730Y-73040500D01*
X158205734Y-73040500D01*
X159514270Y-73040500D01*
X159544699Y-73037646D01*
X159544701Y-73037646D01*
X159608790Y-73015219D01*
X159672882Y-72992793D01*
X159782150Y-72912150D01*
X159862793Y-72802882D01*
X159899648Y-72697557D01*
X159907646Y-72674701D01*
X159907646Y-72674699D01*
X159910500Y-72644269D01*
X159910500Y-71601530D01*
X164239500Y-71601530D01*
X164239500Y-72058469D01*
X164279868Y-72261412D01*
X164279870Y-72261420D01*
X164359058Y-72452596D01*
X164474024Y-72624657D01*
X164620342Y-72770975D01*
X164620345Y-72770977D01*
X164792402Y-72885941D01*
X164983580Y-72965130D01*
X165172187Y-73002646D01*
X165186530Y-73005499D01*
X165186534Y-73005500D01*
X165186535Y-73005500D01*
X165393466Y-73005500D01*
X165393467Y-73005499D01*
X165596420Y-72965130D01*
X165787598Y-72885941D01*
X165959655Y-72770977D01*
X166105977Y-72624655D01*
X166220941Y-72452598D01*
X166300130Y-72261420D01*
X166340500Y-72058465D01*
X166340500Y-71601535D01*
X166340499Y-71601530D01*
X166739500Y-71601530D01*
X166739500Y-72058469D01*
X166779868Y-72261412D01*
X166779870Y-72261420D01*
X166859058Y-72452596D01*
X166974024Y-72624657D01*
X167120342Y-72770975D01*
X167120345Y-72770977D01*
X167292402Y-72885941D01*
X167483580Y-72965130D01*
X167672187Y-73002646D01*
X167686530Y-73005499D01*
X167686534Y-73005500D01*
X167686535Y-73005500D01*
X167893466Y-73005500D01*
X167893467Y-73005499D01*
X168096420Y-72965130D01*
X168287598Y-72885941D01*
X168459655Y-72770977D01*
X168605977Y-72624655D01*
X168720941Y-72452598D01*
X168800130Y-72261420D01*
X168840500Y-72058465D01*
X168840500Y-71601535D01*
X168800130Y-71398580D01*
X168720941Y-71207402D01*
X168616257Y-71050730D01*
X169239500Y-71050730D01*
X169239500Y-72609269D01*
X169242353Y-72639699D01*
X169242353Y-72639701D01*
X169287206Y-72767880D01*
X169287207Y-72767882D01*
X169367850Y-72877150D01*
X169477118Y-72957793D01*
X169498089Y-72965131D01*
X169605299Y-73002646D01*
X169635730Y-73005500D01*
X169635734Y-73005500D01*
X170944270Y-73005500D01*
X170974699Y-73002646D01*
X170974701Y-73002646D01*
X171038790Y-72980219D01*
X171102882Y-72957793D01*
X171212150Y-72877150D01*
X171292793Y-72767882D01*
X171317401Y-72697557D01*
X171337646Y-72639701D01*
X171337646Y-72639699D01*
X171340500Y-72609269D01*
X171340500Y-71050730D01*
X171337646Y-71020300D01*
X171337646Y-71020298D01*
X171292793Y-70892119D01*
X171292792Y-70892117D01*
X171212150Y-70782850D01*
X171102882Y-70702207D01*
X171102880Y-70702206D01*
X170974700Y-70657353D01*
X170944270Y-70654500D01*
X170944266Y-70654500D01*
X169635734Y-70654500D01*
X169635730Y-70654500D01*
X169605300Y-70657353D01*
X169605298Y-70657353D01*
X169477119Y-70702206D01*
X169477117Y-70702207D01*
X169367850Y-70782850D01*
X169287207Y-70892117D01*
X169287206Y-70892119D01*
X169242353Y-71020298D01*
X169242353Y-71020300D01*
X169239500Y-71050730D01*
X168616257Y-71050730D01*
X168605977Y-71035345D01*
X168605975Y-71035342D01*
X168459657Y-70889024D01*
X168342196Y-70810540D01*
X168287598Y-70774059D01*
X168278595Y-70770330D01*
X168096420Y-70694870D01*
X168096412Y-70694868D01*
X167893469Y-70654500D01*
X167893465Y-70654500D01*
X167686535Y-70654500D01*
X167686530Y-70654500D01*
X167483587Y-70694868D01*
X167483579Y-70694870D01*
X167292403Y-70774058D01*
X167120342Y-70889024D01*
X166974024Y-71035342D01*
X166859058Y-71207403D01*
X166779870Y-71398579D01*
X166779868Y-71398587D01*
X166739500Y-71601530D01*
X166340499Y-71601530D01*
X166300130Y-71398580D01*
X166220941Y-71207402D01*
X166105977Y-71035345D01*
X166105975Y-71035342D01*
X165959657Y-70889024D01*
X165842196Y-70810540D01*
X165787598Y-70774059D01*
X165778595Y-70770330D01*
X165596420Y-70694870D01*
X165596412Y-70694868D01*
X165393469Y-70654500D01*
X165393465Y-70654500D01*
X165186535Y-70654500D01*
X165186530Y-70654500D01*
X164983587Y-70694868D01*
X164983579Y-70694870D01*
X164792403Y-70774058D01*
X164620342Y-70889024D01*
X164474024Y-71035342D01*
X164359058Y-71207403D01*
X164279870Y-71398579D01*
X164279868Y-71398587D01*
X164239500Y-71601530D01*
X159910500Y-71601530D01*
X159910500Y-71035730D01*
X159907646Y-71005300D01*
X159907646Y-71005298D01*
X159866959Y-70889023D01*
X159862793Y-70877118D01*
X159782150Y-70767850D01*
X159672882Y-70687207D01*
X159672880Y-70687206D01*
X159544700Y-70642353D01*
X159514270Y-70639500D01*
X159514266Y-70639500D01*
X158205734Y-70639500D01*
X158205730Y-70639500D01*
X158175300Y-70642353D01*
X158175298Y-70642353D01*
X158047119Y-70687206D01*
X158047117Y-70687207D01*
X157937850Y-70767850D01*
X157857207Y-70877117D01*
X157857206Y-70877119D01*
X157812353Y-71005298D01*
X157812353Y-71005300D01*
X157809500Y-71035730D01*
X157809500Y-71044676D01*
X157789815Y-71111715D01*
X157737011Y-71157470D01*
X157667853Y-71167414D01*
X157604297Y-71138389D01*
X157575015Y-71100971D01*
X157514620Y-70982442D01*
X157389727Y-70810540D01*
X157389723Y-70810535D01*
X157239464Y-70660276D01*
X157239459Y-70660272D01*
X157067557Y-70535379D01*
X156878215Y-70438903D01*
X156676124Y-70373241D01*
X156610000Y-70362768D01*
X156610000Y-71406988D01*
X156552993Y-71374075D01*
X156425826Y-71340000D01*
X156294174Y-71340000D01*
X156167007Y-71374075D01*
X156110000Y-71406988D01*
X156110000Y-70362768D01*
X156109999Y-70362768D01*
X156043875Y-70373241D01*
X155841784Y-70438903D01*
X155652442Y-70535379D01*
X155480540Y-70660272D01*
X155480535Y-70660276D01*
X155330276Y-70810535D01*
X155330272Y-70810540D01*
X155205379Y-70982442D01*
X155108904Y-71171782D01*
X155043242Y-71373869D01*
X155043242Y-71373872D01*
X155010000Y-71583753D01*
X137404120Y-71583753D01*
X137524755Y-71346994D01*
X137663737Y-70984936D01*
X137764112Y-70610330D01*
X137764113Y-70610323D01*
X137824780Y-70227287D01*
X137845078Y-69840000D01*
X137845078Y-69839999D01*
X137824780Y-69452712D01*
X137764113Y-69069676D01*
X137764112Y-69069669D01*
X137663737Y-68695063D01*
X137569664Y-68449997D01*
X146919196Y-68449997D01*
X146919196Y-68450002D01*
X146940279Y-68583121D01*
X146940280Y-68583124D01*
X146940281Y-68583126D01*
X146997316Y-68695063D01*
X147001473Y-68703221D01*
X147001476Y-68703225D01*
X147096774Y-68798523D01*
X147096778Y-68798526D01*
X147096780Y-68798528D01*
X147216874Y-68859719D01*
X147216876Y-68859719D01*
X147216878Y-68859720D01*
X147349998Y-68880804D01*
X147350000Y-68880804D01*
X147350002Y-68880804D01*
X147483121Y-68859720D01*
X147483121Y-68859719D01*
X147483126Y-68859719D01*
X147603220Y-68798528D01*
X147698528Y-68703220D01*
X147759719Y-68583126D01*
X147759720Y-68583121D01*
X147780804Y-68450002D01*
X147780804Y-68449997D01*
X147759720Y-68316878D01*
X147759719Y-68316876D01*
X147759719Y-68316874D01*
X147698528Y-68196780D01*
X147698526Y-68196778D01*
X147698523Y-68196774D01*
X147603225Y-68101476D01*
X147603221Y-68101473D01*
X147603220Y-68101472D01*
X147483126Y-68040281D01*
X147483124Y-68040280D01*
X147483121Y-68040279D01*
X147350002Y-68019196D01*
X147349998Y-68019196D01*
X147216878Y-68040279D01*
X147096778Y-68101473D01*
X147096774Y-68101476D01*
X147001476Y-68196774D01*
X147001473Y-68196778D01*
X147001472Y-68196780D01*
X146961061Y-68276092D01*
X146940279Y-68316878D01*
X146919196Y-68449997D01*
X137569664Y-68449997D01*
X137524755Y-68333005D01*
X137348689Y-67987456D01*
X137137468Y-67662206D01*
X136928904Y-67404649D01*
X136928903Y-67404648D01*
X135434251Y-68899300D01*
X135360412Y-68797670D01*
X135182330Y-68619588D01*
X135080698Y-68545747D01*
X136575350Y-67051096D01*
X136575350Y-67051095D01*
X136317793Y-66842531D01*
X136142194Y-66728495D01*
X136096691Y-66675474D01*
X136087077Y-66606269D01*
X136116404Y-66542852D01*
X136175361Y-66505358D01*
X136209729Y-66500500D01*
X178201706Y-66500500D01*
X178268745Y-66520185D01*
G37*
%TD.AperFunction*%
%TD*%
M02*
