M48
; DRILL file {KiCad 8.0.5} date 2024-10-23T11:28:41+0200
; FORMAT={-:-/ absolute / inch / decimal}
; #@! TF.CreationDate,2024-10-23T11:28:41+02:00
; #@! TF.GenerationSoftware,Kicad,Pcbnew,8.0.5
; #@! TF.FileFunction,Plated,1,4,PTH
FMAT,2
INCH
; #@! TA.AperFunction,Plated,PTH,ViaDrill
T1C0.0118
; #@! TA.AperFunction,Plated,PTH,ComponentDrill
T2C0.0197
; #@! TA.AperFunction,Plated,PTH,ComponentDrill
T3C0.0374
; #@! TA.AperFunction,Plated,PTH,ComponentDrill
T4C0.0394
; #@! TA.AperFunction,Plated,PTH,ComponentDrill
T5C0.1260
%
G90
G05
T1
X5.2961Y-3.2807
X5.3386Y-3.4134
X5.3492Y-3.3024
X5.3941Y-3.3437
X5.4252Y-3.4272
X5.4453Y-3.9283
X5.4453Y-3.998
X5.4476Y-4.061
X5.4508Y-4.6555
X5.463Y-3.4335
X5.4705Y-3.5984
X5.4713Y-3.6323
X5.4823Y-3.5669
X5.4843Y-3.5039
X5.5335Y-3.215
X5.5449Y-4.3677
X5.5543Y-3.7535
X5.5571Y-3.6713
X5.5709Y-4.7657
X5.5976Y-4.5248
X5.6004Y-2.6949
X5.6091Y-2.9803
X5.6358Y-3.5039
X5.687Y-4.3031
X5.6939Y-4.2031
X5.6941Y-4.226
X5.6945Y-4.2748
X5.6949Y-4.1791
X5.6953Y-4.2504
X5.7008Y-2.6969
X5.7043Y-2.9933
X5.7146Y-3.3669
X5.7161Y-3.5642
X5.7224Y-4.0866
X5.7378Y-3.6433
X5.75Y-2.6969
X5.7898Y-3.8094
X5.8012Y-2.6949
X5.8256Y-3.8917
X5.8268Y-4.5197
X5.8807Y-3.6437
X5.8819Y-4.7657
X5.9055Y-4.0551
X5.9134Y-4.2874
X5.9311Y-3.9331
X5.9331Y-3.815
X5.935Y-4.0039
X5.9457Y-4.2197
X5.9646Y-4.0846
X6.0228Y-3.9374
X6.0638Y-2.9728
X6.0748Y-4.498
X6.1024Y-4.1378
X6.1024Y-4.1929
X6.1024Y-4.248
X6.1319Y-3.1705
X6.1319Y-3.1941
X6.1323Y-3.1386
X6.1535Y-4.248
X6.1563Y-4.1945
X6.1575Y-4.0016
X6.1575Y-4.1378
X6.1825Y-3.947
X6.1929Y-4.535
X6.1965Y-3.422
X6.1965Y-3.4488
X6.1965Y-3.4728
X6.2126Y-4.1378
X6.2126Y-4.1929
X6.2126Y-4.248
X6.2323Y-4.3886
X6.2764Y-2.9717
X6.2913Y-3.1398
X6.2913Y-3.189
X6.2992Y-3.7008
X6.3031Y-4.4705
X6.3051Y-4.5118
X6.3173Y-4.4327
X6.3299Y-4.4016
X6.3404Y-4.1955
X6.3425Y-3.7894
X6.3547Y-4.0272
X6.3602Y-3.1732
X6.365Y-3.2657
X6.3807Y-3.2209
X6.3819Y-3.439
X6.3858Y-4.0933
X6.3996Y-3.4063
X6.4024Y-3.2213
X6.4134Y-3.7953
X6.4213Y-4.2248
X6.4236Y-4.3571
X6.4272Y-3.2213
X6.4307Y-4.0811
X6.4327Y-4.1197
X6.4592Y-3.4009
X6.4756Y-4.1165
X6.4803Y-4.252
X6.4843Y-4.311
X6.4937Y-3.2205
X6.5118Y-3.6441
X6.5122Y-3.2205
X6.5394Y-3.102
X6.5421Y-3.5839
X6.561Y-2.976
X6.5677Y-3.1752
X6.5685Y-3.128
X6.5688Y-3.1506
X6.5756Y-3.7862
X6.5988Y-3.3571
X6.6012Y-3.2598
X6.6016Y-3.8677
X6.6094Y-3.5886
X6.611Y-3.2118
X6.6181Y-3.7047
X6.6811Y-4.1209
X6.7039Y-4.2102
X6.7795Y-4.1819
X6.7799Y-4.2248
X6.7815Y-4.1461
X6.787Y-3.398
X6.7874Y-3.437
X6.7874Y-3.4764
X6.7961Y-3.877
X6.7992Y-3.1299
X6.8067Y-4.0311
X6.8091Y-4.328
X6.8154Y-3.2815
X6.8185Y-3.5839
X6.8299Y-4.1465
X6.8323Y-4.2248
X6.835Y-4.0311
X6.8398Y-3.4
X6.8429Y-3.2811
X6.8465Y-3.4764
X6.8551Y-3.8811
X6.8618Y-4.0307
X6.8622Y-3.124
X6.8701Y-3.6772
X6.8713Y-3.2811
X6.8909Y-4.1878
X6.8913Y-4.2244
X6.8917Y-4.1469
X6.8996Y-4.3976
X6.9004Y-3.3984
X6.9016Y-3.437
X6.9016Y-3.4724
X6.9488Y-4.2854
X6.9516Y-4.185
X6.9567Y-3.5354
X6.9744Y-4.1319
X6.9744Y-4.2732
X6.9803Y-3.378
X6.9933Y-4.2598
T2
X5.1811Y-4.685
X5.1866Y-2.7496
X5.2088Y-4.6182
X5.2088Y-4.7519
X5.2143Y-2.6828
X5.2143Y-2.8164
X5.2756Y-4.5906
X5.2756Y-4.7795
X5.2811Y-2.6551
X5.2811Y-2.8441
X5.3424Y-4.6182
X5.3424Y-4.7519
X5.3479Y-2.6828
X5.3479Y-2.8164
X5.3701Y-4.685
X5.3756Y-2.7496
X6.9921Y-2.7559
X6.9921Y-4.685
X7.0198Y-2.6891
X7.0198Y-2.8227
X7.0198Y-4.6182
X7.0198Y-4.7519
X7.0866Y-2.6614
X7.0866Y-2.8504
X7.0866Y-4.5906
X7.0866Y-4.7795
X7.1534Y-2.6891
X7.1534Y-2.8227
X7.1534Y-4.6182
X7.1534Y-4.7519
X7.1811Y-2.7559
X7.1811Y-4.685
T3
X5.2161Y-4.1138
X5.2161Y-4.2122
X5.2161Y-4.3106
X5.2161Y-4.4091
X5.2165Y-3.0201
X5.2165Y-3.1185
X5.2165Y-3.2169
X5.2165Y-3.3154
X5.2177Y-3.578
X5.2177Y-3.6764
X5.2177Y-3.7748
X5.2177Y-3.8732
X6.0555Y-4.6807
X6.1539Y-4.6807
X6.2524Y-4.6807
X6.3508Y-4.6807
X6.4492Y-4.6807
X6.5075Y-2.828
X6.5476Y-4.6807
X6.6059Y-2.828
X6.6461Y-4.6807
X6.7043Y-2.828
X6.7445Y-4.6807
X7.1433Y-3.8591
X7.1433Y-3.9575
X7.1433Y-4.0559
X7.1433Y-4.1543
X7.1433Y-4.2528
X7.1433Y-4.3512
X7.1472Y-3.0815
X7.1472Y-3.1799
X7.1472Y-3.2783
X7.1472Y-3.3768
X7.1472Y-3.4752
X7.1472Y-3.5736
T4
X6.1559Y-2.8283
X6.2543Y-2.8283
T5
X5.2756Y-4.685
X5.2811Y-2.7496
X7.0866Y-2.7559
X7.0866Y-4.685
M30
