%TF.GenerationSoftware,KiCad,Pcbnew,8.0.5*%
%TF.CreationDate,2024-10-23T11:02:30+02:00*%
%TF.ProjectId,ESE_AL8,4553455f-414c-4382-9e6b-696361645f70,rev?*%
%TF.SameCoordinates,Original*%
%TF.FileFunction,Paste,Top*%
%TF.FilePolarity,Positive*%
%FSLAX46Y46*%
G04 Gerber Fmt 4.6, Leading zero omitted, Abs format (unit mm)*
G04 Created by KiCad (PCBNEW 8.0.5) date 2024-10-23 11:02:30*
%MOMM*%
%LPD*%
G01*
G04 APERTURE LIST*
G04 Aperture macros list*
%AMRoundRect*
0 Rectangle with rounded corners*
0 $1 Rounding radius*
0 $2 $3 $4 $5 $6 $7 $8 $9 X,Y pos of 4 corners*
0 Add a 4 corners polygon primitive as box body*
4,1,4,$2,$3,$4,$5,$6,$7,$8,$9,$2,$3,0*
0 Add four circle primitives for the rounded corners*
1,1,$1+$1,$2,$3*
1,1,$1+$1,$4,$5*
1,1,$1+$1,$6,$7*
1,1,$1+$1,$8,$9*
0 Add four rect primitives between the rounded corners*
20,1,$1+$1,$2,$3,$4,$5,0*
20,1,$1+$1,$4,$5,$6,$7,0*
20,1,$1+$1,$6,$7,$8,$9,0*
20,1,$1+$1,$8,$9,$2,$3,0*%
G04 Aperture macros list end*
%ADD10RoundRect,0.094500X-0.094500X-0.129500X0.094500X-0.129500X0.094500X0.129500X-0.094500X0.129500X0*%
%ADD11RoundRect,0.153125X-0.153125X-0.179375X0.153125X-0.179375X0.153125X0.179375X-0.153125X0.179375X0*%
%ADD12R,0.980000X0.840000*%
%ADD13RoundRect,0.087500X-0.087500X0.376250X-0.087500X-0.376250X0.087500X-0.376250X0.087500X0.376250X0*%
%ADD14R,2.933700X1.289050*%
%ADD15R,1.085000X0.910000*%
%ADD16RoundRect,0.098000X-0.098000X-0.119000X0.098000X-0.119000X0.098000X0.119000X-0.098000X0.119000X0*%
%ADD17RoundRect,0.105000X0.358750X0.105000X-0.358750X0.105000X-0.358750X-0.105000X0.358750X-0.105000X0*%
%ADD18RoundRect,0.098000X0.098000X0.119000X-0.098000X0.119000X-0.098000X-0.119000X0.098000X-0.119000X0*%
%ADD19RoundRect,0.157500X-0.175000X0.157500X-0.175000X-0.157500X0.175000X-0.157500X0.175000X0.157500X0*%
%ADD20RoundRect,0.094500X0.094500X0.129500X-0.094500X0.129500X-0.094500X-0.129500X0.094500X-0.129500X0*%
%ADD21RoundRect,0.094500X-0.129500X0.094500X-0.129500X-0.094500X0.129500X-0.094500X0.129500X0.094500X0*%
%ADD22RoundRect,0.098000X0.119000X-0.098000X0.119000X0.098000X-0.119000X0.098000X-0.119000X-0.098000X0*%
%ADD23RoundRect,0.153125X0.153125X0.179375X-0.153125X0.179375X-0.153125X-0.179375X0.153125X-0.179375X0*%
%ADD24RoundRect,0.175000X-0.175000X-0.332500X0.175000X-0.332500X0.175000X0.332500X-0.175000X0.332500X0*%
%ADD25RoundRect,0.098000X-0.119000X0.098000X-0.119000X-0.098000X0.119000X-0.098000X0.119000X0.098000X0*%
%ADD26RoundRect,0.140000X0.140000X0.192500X-0.140000X0.192500X-0.140000X-0.192500X0.140000X-0.192500X0*%
%ADD27RoundRect,0.105000X-0.227500X-0.105000X0.227500X-0.105000X0.227500X0.105000X-0.227500X0.105000X0*%
%ADD28RoundRect,0.105000X-0.105000X-0.227500X0.105000X-0.227500X0.105000X0.227500X-0.105000X0.227500X0*%
%ADD29RoundRect,0.157500X0.175000X-0.157500X0.175000X0.157500X-0.175000X0.157500X-0.175000X-0.157500X0*%
%ADD30R,0.561400X1.053500*%
%ADD31R,2.101200X1.567800*%
%ADD32RoundRect,0.140000X-0.192500X0.140000X-0.192500X-0.140000X0.192500X-0.140000X0.192500X0.140000X0*%
%ADD33RoundRect,0.108500X-0.148750X-0.108500X0.148750X-0.108500X0.148750X0.108500X-0.148750X0.108500X0*%
%ADD34RoundRect,0.175000X0.175000X0.332500X-0.175000X0.332500X-0.175000X-0.332500X0.175000X-0.332500X0*%
%ADD35RoundRect,0.094500X0.129500X-0.094500X0.129500X0.094500X-0.129500X0.094500X-0.129500X-0.094500X0*%
%ADD36RoundRect,0.140000X0.192500X-0.140000X0.192500X0.140000X-0.192500X0.140000X-0.192500X-0.140000X0*%
%ADD37R,0.518000X1.680000*%
%ADD38RoundRect,0.250000X-0.315000X-0.315000X0.315000X-0.315000X0.315000X0.315000X-0.315000X0.315000X0*%
%ADD39RoundRect,0.043750X-0.262500X-0.043750X0.262500X-0.043750X0.262500X0.043750X-0.262500X0.043750X0*%
%ADD40RoundRect,0.043750X-0.043750X-0.262500X0.043750X-0.262500X0.043750X0.262500X-0.043750X0.262500X0*%
G04 APERTURE END LIST*
D10*
%TO.C,R16*%
X138360000Y-114880000D03*
X139380000Y-114880000D03*
%TD*%
D11*
%TO.C,D3*%
X141470000Y-101480000D03*
X143045000Y-101480000D03*
%TD*%
D12*
%TO.C,Y1*%
X148207500Y-106160000D03*
X146007500Y-106160000D03*
X146007500Y-107860000D03*
X148207500Y-107860000D03*
%TD*%
D13*
%TO.C,IC1*%
X164550000Y-83000000D03*
X163900000Y-83000000D03*
X163250000Y-83000000D03*
X162600000Y-83000000D03*
X162600000Y-85275000D03*
X163250000Y-85275000D03*
X163900000Y-85275000D03*
X164550000Y-85275000D03*
%TD*%
D14*
%TO.C,L1*%
X153770000Y-87312750D03*
X153770000Y-83947250D03*
%TD*%
D15*
%TO.C,SW1*%
X140200000Y-116540000D03*
X148150000Y-116540000D03*
X140200000Y-121040000D03*
X148150000Y-121040000D03*
%TD*%
D16*
%TO.C,C12*%
X145390000Y-104740000D03*
X146350000Y-104740000D03*
%TD*%
D10*
%TO.C,R10*%
X147600000Y-109260000D03*
X148620000Y-109260000D03*
%TD*%
D17*
%TO.C,U2*%
X165217500Y-95337500D03*
X165217500Y-94387500D03*
X165217500Y-93437500D03*
X162942500Y-93437500D03*
X162942500Y-95337500D03*
%TD*%
D18*
%TO.C,C14*%
X151500000Y-102977500D03*
X150540000Y-102977500D03*
%TD*%
D11*
%TO.C,D2*%
X141470000Y-99790000D03*
X143045000Y-99790000D03*
%TD*%
D18*
%TO.C,C2*%
X138720000Y-88090000D03*
X137760000Y-88090000D03*
%TD*%
%TO.C,C5*%
X163850000Y-87330000D03*
X162890000Y-87330000D03*
%TD*%
D19*
%TO.C,C15*%
X155250000Y-112700000D03*
X155250000Y-114250000D03*
%TD*%
D20*
%TO.C,R13*%
X139945000Y-103110000D03*
X138925000Y-103110000D03*
%TD*%
D21*
%TO.C,R1*%
X135880000Y-82002500D03*
X135880000Y-83022500D03*
%TD*%
D10*
%TO.C,R4*%
X166100000Y-81640000D03*
X167120000Y-81640000D03*
%TD*%
D22*
%TO.C,C21*%
X161430000Y-103990000D03*
X161430000Y-103030000D03*
%TD*%
D20*
%TO.C,R12*%
X139855000Y-101540000D03*
X138835000Y-101540000D03*
%TD*%
D23*
%TO.C,D1*%
X156450000Y-75510000D03*
X154875000Y-75510000D03*
%TD*%
D24*
%TO.C,C9*%
X157087500Y-81787500D03*
X158987500Y-81787500D03*
%TD*%
D25*
%TO.C,C20*%
X150250000Y-107420000D03*
X150250000Y-108380000D03*
%TD*%
D26*
%TO.C,R6*%
X161075000Y-85500000D03*
X159425000Y-85500000D03*
%TD*%
D25*
%TO.C,C7*%
X167830000Y-89490000D03*
X167830000Y-90450000D03*
%TD*%
%TO.C,C201*%
X138470000Y-116540000D03*
X138470000Y-117500000D03*
%TD*%
D24*
%TO.C,C8*%
X157087500Y-79737500D03*
X158987500Y-79737500D03*
%TD*%
D27*
%TO.C,U1*%
X140150000Y-88170000D03*
X140150000Y-88970000D03*
X140150000Y-89770000D03*
X140150000Y-90570000D03*
X140150000Y-91370000D03*
X140150000Y-92170000D03*
D28*
X141150000Y-92170000D03*
D27*
X142150000Y-92170000D03*
X142150000Y-91370000D03*
X142150000Y-90570000D03*
X142150000Y-89770000D03*
X142150000Y-88970000D03*
X142150000Y-88170000D03*
D28*
X141150000Y-88170000D03*
%TD*%
D29*
%TO.C,C28*%
X174100000Y-101050000D03*
X174100000Y-99500000D03*
%TD*%
D11*
%TO.C,D5*%
X164992500Y-98550000D03*
X166567500Y-98550000D03*
%TD*%
D30*
%TO.C,U4*%
X175517500Y-103822500D03*
X174247500Y-103822500D03*
X172977500Y-103822500D03*
X171707500Y-103822500D03*
X171707500Y-108817500D03*
X172977500Y-108817500D03*
X174247500Y-108817500D03*
X175517500Y-108817500D03*
D31*
X173612500Y-106320000D03*
%TD*%
D18*
%TO.C,C16*%
X146225000Y-109260000D03*
X145265000Y-109260000D03*
%TD*%
D32*
%TO.C,R7*%
X166120000Y-85390000D03*
X166120000Y-87040000D03*
%TD*%
D10*
%TO.C,R3*%
X157690000Y-75480000D03*
X158710000Y-75480000D03*
%TD*%
D33*
%TO.C,L2*%
X158575000Y-112580000D03*
X159710000Y-112580000D03*
%TD*%
D16*
%TO.C,C18*%
X158500000Y-114580000D03*
X159460000Y-114580000D03*
%TD*%
D29*
%TO.C,C29*%
X172570000Y-101030000D03*
X172570000Y-99480000D03*
%TD*%
D20*
%TO.C,R14*%
X163565000Y-98570000D03*
X162545000Y-98570000D03*
%TD*%
D10*
%TO.C,R15*%
X170620000Y-75520000D03*
X171640000Y-75520000D03*
%TD*%
D19*
%TO.C,C30*%
X174300000Y-80600000D03*
X174300000Y-82150000D03*
%TD*%
D34*
%TO.C,C3*%
X164510000Y-80570000D03*
X162610000Y-80570000D03*
%TD*%
D29*
%TO.C,C11*%
X161100000Y-95515000D03*
X161100000Y-93965000D03*
%TD*%
D25*
%TO.C,C24*%
X174250000Y-110700000D03*
X174250000Y-111660000D03*
%TD*%
D19*
%TO.C,C31*%
X172670000Y-80620000D03*
X172670000Y-82170000D03*
%TD*%
D16*
%TO.C,C19*%
X159810000Y-111220000D03*
X160770000Y-111220000D03*
%TD*%
D30*
%TO.C,U5*%
X175730000Y-84775000D03*
X174460000Y-84775000D03*
X173190000Y-84775000D03*
X171920000Y-84775000D03*
X171920000Y-89770000D03*
X173190000Y-89770000D03*
X174460000Y-89770000D03*
X175730000Y-89770000D03*
D31*
X173825000Y-87272500D03*
%TD*%
D22*
%TO.C,C4*%
X166080000Y-80610000D03*
X166080000Y-79650000D03*
%TD*%
%TO.C,C25*%
X177140000Y-104250000D03*
X177140000Y-103290000D03*
%TD*%
D23*
%TO.C,D6*%
X169327500Y-75560000D03*
X167752500Y-75560000D03*
%TD*%
D11*
%TO.C,D4*%
X141490000Y-103110000D03*
X143065000Y-103110000D03*
%TD*%
D22*
%TO.C,C27*%
X177330000Y-85250000D03*
X177330000Y-84290000D03*
%TD*%
D29*
%TO.C,C13*%
X151750000Y-101450000D03*
X151750000Y-99900000D03*
%TD*%
D35*
%TO.C,R2*%
X135920000Y-85750000D03*
X135920000Y-84730000D03*
%TD*%
D20*
%TO.C,R5*%
X167090000Y-82700000D03*
X166070000Y-82700000D03*
%TD*%
D19*
%TO.C,C23*%
X156850000Y-112700000D03*
X156850000Y-114250000D03*
%TD*%
D36*
%TO.C,R8*%
X167770000Y-88160000D03*
X167770000Y-86510000D03*
%TD*%
D37*
%TO.C,J7*%
X148620000Y-70290000D03*
X148620000Y-74190000D03*
X147350000Y-70290000D03*
X147350000Y-74190000D03*
X146080000Y-70290000D03*
X146080000Y-74190000D03*
X144810000Y-70290000D03*
X144810000Y-74190000D03*
X143540000Y-70290000D03*
X143540000Y-74190000D03*
X142270000Y-70290000D03*
X142270000Y-74190000D03*
X141000000Y-70290000D03*
X141000000Y-74190000D03*
%TD*%
D20*
%TO.C,R11*%
X139925000Y-99810000D03*
X138905000Y-99810000D03*
%TD*%
D25*
%TO.C,C26*%
X174500000Y-91620000D03*
X174500000Y-92580000D03*
%TD*%
D19*
%TO.C,C1*%
X140140000Y-93750000D03*
X140140000Y-95300000D03*
%TD*%
D22*
%TO.C,C17*%
X153020000Y-101737500D03*
X153020000Y-100777500D03*
%TD*%
D20*
%TO.C,R17*%
X141320000Y-114880000D03*
X140300000Y-114880000D03*
%TD*%
D29*
%TO.C,C10*%
X167020000Y-95655000D03*
X167020000Y-94105000D03*
%TD*%
D38*
%TO.C,U3*%
X154270000Y-104440000D03*
X154270000Y-105840000D03*
X154270000Y-107240000D03*
X154270000Y-108640000D03*
X155670000Y-104440000D03*
X155670000Y-105840000D03*
X155670000Y-107240000D03*
X155670000Y-108640000D03*
X157070000Y-104440000D03*
X157070000Y-105840000D03*
X157070000Y-107240000D03*
X157070000Y-108640000D03*
X158470000Y-104440000D03*
X158470000Y-105840000D03*
X158470000Y-107240000D03*
X158470000Y-108640000D03*
D39*
X152932500Y-103790000D03*
X152932500Y-104290000D03*
X152932500Y-104790000D03*
X152932500Y-105290000D03*
X152932500Y-105790000D03*
X152932500Y-106290000D03*
X152932500Y-106790000D03*
X152932500Y-107290000D03*
X152932500Y-107790000D03*
X152932500Y-108290000D03*
X152932500Y-108790000D03*
X152932500Y-109290000D03*
D40*
X153620000Y-109977500D03*
X154120000Y-109977500D03*
X154620000Y-109977500D03*
X155120000Y-109977500D03*
X155620000Y-109977500D03*
X156120000Y-109977500D03*
X156620000Y-109977500D03*
X157120000Y-109977500D03*
X157620000Y-109977500D03*
X158120000Y-109977500D03*
X158620000Y-109977500D03*
X159120000Y-109977500D03*
D39*
X159807500Y-109290000D03*
X159807500Y-108790000D03*
X159807500Y-108290000D03*
X159807500Y-107790000D03*
X159807500Y-107290000D03*
X159807500Y-106790000D03*
X159807500Y-106290000D03*
X159807500Y-105790000D03*
X159807500Y-105290000D03*
X159807500Y-104790000D03*
X159807500Y-104290000D03*
X159807500Y-103790000D03*
D40*
X159120000Y-103102500D03*
X158620000Y-103102500D03*
X158120000Y-103102500D03*
X157620000Y-103102500D03*
X157120000Y-103102500D03*
X156620000Y-103102500D03*
X156120000Y-103102500D03*
X155620000Y-103102500D03*
X155120000Y-103102500D03*
X154620000Y-103102500D03*
X154120000Y-103102500D03*
X153620000Y-103102500D03*
%TD*%
D18*
%TO.C,C6*%
X159630000Y-86840000D03*
X158670000Y-86840000D03*
%TD*%
D16*
%TO.C,C22*%
X158480000Y-113580000D03*
X159440000Y-113580000D03*
%TD*%
D32*
%TO.C,R9*%
X166190000Y-88590000D03*
X166190000Y-90240000D03*
%TD*%
M02*
