%TF.GenerationSoftware,KiCad,Pcbnew,8.0.5*%
%TF.CreationDate,2024-10-23T11:02:30+02:00*%
%TF.ProjectId,ESE_AL8,4553455f-414c-4382-9e6b-696361645f70,rev?*%
%TF.SameCoordinates,Original*%
%TF.FileFunction,Copper,L3,Inr*%
%TF.FilePolarity,Positive*%
%FSLAX46Y46*%
G04 Gerber Fmt 4.6, Leading zero omitted, Abs format (unit mm)*
G04 Created by KiCad (PCBNEW 8.0.5) date 2024-10-23 11:02:30*
%MOMM*%
%LPD*%
G01*
G04 APERTURE LIST*
G04 Aperture macros list*
%AMRoundRect*
0 Rectangle with rounded corners*
0 $1 Rounding radius*
0 $2 $3 $4 $5 $6 $7 $8 $9 X,Y pos of 4 corners*
0 Add a 4 corners polygon primitive as box body*
4,1,4,$2,$3,$4,$5,$6,$7,$8,$9,$2,$3,0*
0 Add four circle primitives for the rounded corners*
1,1,$1+$1,$2,$3*
1,1,$1+$1,$4,$5*
1,1,$1+$1,$6,$7*
1,1,$1+$1,$8,$9*
0 Add four rect primitives between the rounded corners*
20,1,$1+$1,$2,$3,$4,$5,0*
20,1,$1+$1,$4,$5,$6,$7,0*
20,1,$1+$1,$6,$7,$8,$9,0*
20,1,$1+$1,$8,$9,$2,$3,0*%
G04 Aperture macros list end*
%TA.AperFunction,ComponentPad*%
%ADD10C,0.800000*%
%TD*%
%TA.AperFunction,ComponentPad*%
%ADD11C,6.400000*%
%TD*%
%TA.AperFunction,ComponentPad*%
%ADD12RoundRect,0.250000X0.725000X-0.600000X0.725000X0.600000X-0.725000X0.600000X-0.725000X-0.600000X0*%
%TD*%
%TA.AperFunction,ComponentPad*%
%ADD13O,1.950000X1.700000*%
%TD*%
%TA.AperFunction,ComponentPad*%
%ADD14RoundRect,0.250000X-0.725000X0.600000X-0.725000X-0.600000X0.725000X-0.600000X0.725000X0.600000X0*%
%TD*%
%TA.AperFunction,ComponentPad*%
%ADD15RoundRect,0.250000X0.600000X0.725000X-0.600000X0.725000X-0.600000X-0.725000X0.600000X-0.725000X0*%
%TD*%
%TA.AperFunction,ComponentPad*%
%ADD16O,1.700000X1.950000*%
%TD*%
%TA.AperFunction,ComponentPad*%
%ADD17RoundRect,0.250000X-0.600000X-0.725000X0.600000X-0.725000X0.600000X0.725000X-0.600000X0.725000X0*%
%TD*%
%TA.AperFunction,ComponentPad*%
%ADD18RoundRect,0.250000X0.600000X0.750000X-0.600000X0.750000X-0.600000X-0.750000X0.600000X-0.750000X0*%
%TD*%
%TA.AperFunction,ComponentPad*%
%ADD19O,1.700000X2.000000*%
%TD*%
%TA.AperFunction,ViaPad*%
%ADD20C,0.450000*%
%TD*%
%TA.AperFunction,ViaPad*%
%ADD21C,0.700000*%
%TD*%
G04 APERTURE END LIST*
D10*
%TO.N,GND*%
%TO.C,H4*%
X131600000Y-119000000D03*
X132302944Y-117302944D03*
X132302944Y-120697056D03*
X134000000Y-116600000D03*
D11*
X134000000Y-119000000D03*
D10*
X134000000Y-121400000D03*
X135697056Y-117302944D03*
X135697056Y-120697056D03*
X136400000Y-119000000D03*
%TD*%
%TO.N,GND*%
%TO.C,H3*%
X177600000Y-119000000D03*
X178302944Y-117302944D03*
X178302944Y-120697056D03*
X180000000Y-116600000D03*
D11*
X180000000Y-119000000D03*
D10*
X180000000Y-121400000D03*
X181697056Y-117302944D03*
X181697056Y-120697056D03*
X182400000Y-119000000D03*
%TD*%
D12*
%TO.N,/Actionneur/MOTEUR1-*%
%TO.C,J4*%
X181540000Y-90770000D03*
D13*
%TO.N,GND*%
X181540000Y-88270000D03*
%TO.N,/SENSORS/PHASE_A1*%
X181540000Y-85770000D03*
%TO.N,/SENSORS/PHASE_B1*%
X181540000Y-83270000D03*
%TO.N,+3.3V*%
X181540000Y-80770000D03*
%TO.N,/Actionneur/MOTEUR1+*%
X181540000Y-78270000D03*
%TD*%
D14*
%TO.N,+3.3V*%
%TO.C,J1*%
X132530000Y-90880000D03*
D13*
%TO.N,GND*%
X132530000Y-93380000D03*
%TO.N,/SENSORS/CB_OUT1*%
X132530000Y-95880000D03*
%TO.N,/SENSORS/CB_IN*%
X132530000Y-98380000D03*
%TD*%
D12*
%TO.N,/Actionneur/MOTEUR2-*%
%TO.C,J5*%
X181440000Y-110520000D03*
D13*
%TO.N,GND*%
X181440000Y-108020000D03*
%TO.N,/SENSORS/PHASE_A2*%
X181440000Y-105520000D03*
%TO.N,/SENSORS/PHASE_B2*%
X181440000Y-103020000D03*
%TO.N,+3.3V*%
X181440000Y-100520000D03*
%TO.N,/Actionneur/MOTEUR2+*%
X181440000Y-98020000D03*
%TD*%
D15*
%TO.N,unconnected-(SW2-C-Pad1)*%
%TO.C,SW2*%
X170290000Y-71830000D03*
D16*
%TO.N,+BATT*%
X167790000Y-71830000D03*
%TO.N,+7.2V*%
X165290000Y-71830000D03*
%TD*%
D14*
%TO.N,+3.3V*%
%TO.C,J8*%
X132500000Y-76710000D03*
D13*
%TO.N,GND*%
X132500000Y-79210000D03*
%TO.N,/Actionneur/SCL*%
X132500000Y-81710000D03*
%TO.N,/Actionneur/SDA*%
X132500000Y-84210000D03*
%TD*%
D14*
%TO.N,+3.3V*%
%TO.C,J2*%
X132490000Y-104490000D03*
D13*
%TO.N,GND*%
X132490000Y-106990000D03*
%TO.N,/SENSORS/CB_OUT2*%
X132490000Y-109490000D03*
%TO.N,/SENSORS/CB_IN*%
X132490000Y-111990000D03*
%TD*%
D17*
%TO.N,+5V*%
%TO.C,J3*%
X153810000Y-118890000D03*
D16*
%TO.N,/SENSORS/TX_LIDAR*%
X156310000Y-118890000D03*
%TO.N,/SENSORS/RX_LIDAR*%
X158810000Y-118890000D03*
%TO.N,GND*%
X161310000Y-118890000D03*
%TO.N,/SENSORS/M_SCTR_LIDAR*%
X163810000Y-118890000D03*
%TO.N,/SENSORS/DEV_EN_LIDAR*%
X166310000Y-118890000D03*
%TO.N,/SENSORS/M_EN_LIDAR*%
X168810000Y-118890000D03*
%TO.N,unconnected-(J3-Pin_8-Pad8)*%
X171310000Y-118890000D03*
%TD*%
D10*
%TO.N,GND*%
%TO.C,H2*%
X177600000Y-70000000D03*
X178302944Y-68302944D03*
X178302944Y-71697056D03*
X180000000Y-67600000D03*
D11*
X180000000Y-70000000D03*
D10*
X180000000Y-72400000D03*
X181697056Y-68302944D03*
X181697056Y-71697056D03*
X182400000Y-70000000D03*
%TD*%
D18*
%TO.N,+7.2V*%
%TO.C,J6*%
X158860000Y-71840000D03*
D19*
%TO.N,GND*%
X156360000Y-71840000D03*
%TD*%
D10*
%TO.N,GND*%
%TO.C,H1*%
X131740000Y-69840000D03*
X132442944Y-68142944D03*
X132442944Y-71537056D03*
X134140000Y-67440000D03*
D11*
X134140000Y-69840000D03*
D10*
X134140000Y-72240000D03*
X135837056Y-68142944D03*
X135837056Y-71537056D03*
X136540000Y-69840000D03*
%TD*%
D20*
%TO.N,GND*%
X173480000Y-105320000D03*
X134520000Y-83330000D03*
X149400000Y-121050000D03*
X172620000Y-98475000D03*
X175300000Y-87300000D03*
X155000000Y-106500000D03*
X144640000Y-108580000D03*
X145350000Y-103800000D03*
X135600000Y-86700000D03*
X172200000Y-106220000D03*
X146050000Y-68500000D03*
X155000000Y-107900000D03*
X159800000Y-79750000D03*
X173900000Y-88300000D03*
X167610000Y-85270000D03*
X156370000Y-106540000D03*
X175300000Y-88200000D03*
X156400000Y-105100000D03*
X138370000Y-103150000D03*
X163390000Y-104640000D03*
X173540000Y-107310000D03*
X172390000Y-86310000D03*
X157800000Y-105100000D03*
X138950000Y-91400000D03*
X153900000Y-100800000D03*
X162100000Y-87350000D03*
X154300000Y-114250000D03*
X159800000Y-81000000D03*
X160150000Y-114600000D03*
X161670000Y-82950000D03*
X157300000Y-115190000D03*
X170280000Y-106940000D03*
X160780000Y-111800000D03*
X144630000Y-107340000D03*
X160000000Y-94000000D03*
X172400000Y-88300000D03*
X138450000Y-118250000D03*
X177300000Y-85800000D03*
X144624964Y-106759367D03*
X175050000Y-105330000D03*
X177150000Y-104950000D03*
X177150000Y-108540000D03*
X161550000Y-80600000D03*
X148000000Y-114800000D03*
X144650000Y-106150000D03*
X150650000Y-99900000D03*
X175250000Y-111700000D03*
X139250000Y-90600000D03*
X144660000Y-107960000D03*
X140840000Y-110940000D03*
X142250000Y-68450000D03*
X137800000Y-87050000D03*
X163160000Y-110670000D03*
X174120000Y-98580000D03*
X150200000Y-108900000D03*
X140550000Y-81660000D03*
X138310000Y-101550000D03*
X150700000Y-96900000D03*
X175270000Y-86320000D03*
X161410000Y-102290000D03*
X141080000Y-95340000D03*
X145150000Y-85520000D03*
X138310000Y-99780000D03*
X168100000Y-94100000D03*
X172700000Y-79500000D03*
X176500000Y-108850000D03*
X173730000Y-86360000D03*
X156300000Y-107900000D03*
X139300000Y-89000000D03*
X144450000Y-109300000D03*
X141500000Y-121050000D03*
X176700000Y-89800000D03*
X164700000Y-109500000D03*
X150000000Y-103000000D03*
X175030000Y-106370000D03*
X176570000Y-106300000D03*
X159420000Y-75480000D03*
X144800000Y-68500000D03*
X177630000Y-108200000D03*
X172400000Y-87300000D03*
X166100000Y-78790000D03*
X157800000Y-107900000D03*
X172250000Y-105310000D03*
X160100000Y-113550000D03*
X174300000Y-79350000D03*
X143150000Y-89000000D03*
X175040000Y-107300000D03*
X157800000Y-106500000D03*
X172210000Y-107310000D03*
X164600000Y-108000000D03*
X155000000Y-105100000D03*
X137010000Y-84930000D03*
X174500000Y-93400000D03*
%TO.N,+3.3V*%
X147350000Y-68450000D03*
X160460000Y-112590000D03*
D21*
X142180000Y-114930000D03*
D20*
X135870000Y-83880000D03*
X138970000Y-92260000D03*
X138760000Y-87210000D03*
X154020000Y-75510000D03*
X150750000Y-101700000D03*
X151500000Y-103750000D03*
X162900000Y-96400000D03*
X141150000Y-93250000D03*
X162200000Y-103970000D03*
X161100000Y-96250000D03*
%TO.N,NRST*%
X151020000Y-107180000D03*
X142470000Y-75700000D03*
%TO.N,SWO*%
X157035000Y-100255000D03*
X144890000Y-76030000D03*
%TO.N,/SENSORS/PHASE_A1*%
X163340000Y-103660000D03*
%TO.N,/SENSORS/PHASE_B1*%
X164480000Y-104560000D03*
%TO.N,/SENSORS/PHASE_B2*%
X163100000Y-107310000D03*
%TO.N,/SENSORS/PHASE_A2*%
X156400000Y-101640000D03*
%TO.N,/SENSORS/INT1_ACCELERO*%
X149370000Y-92550000D03*
X145740000Y-92540000D03*
%TO.N,/Actionneur/FWD2*%
X169700000Y-104670000D03*
X161045023Y-106565023D03*
%TO.N,/SENSORS/RX_LIDAR*%
X158300000Y-111470000D03*
%TO.N,+BATT*%
X164940000Y-81800000D03*
X166840000Y-79450000D03*
X173190000Y-91030000D03*
X172890000Y-102390000D03*
X174530000Y-83340000D03*
X174290000Y-102380000D03*
D21*
X166650000Y-75590000D03*
D20*
X173610000Y-102390000D03*
X173110000Y-83350000D03*
X172950000Y-109930000D03*
X173810000Y-83340000D03*
X166820000Y-80650000D03*
X165410000Y-81800000D03*
X166847148Y-80025587D03*
%TO.N,/Alimentation/vcc*%
X167670000Y-82800000D03*
X164064199Y-86383239D03*
%TO.N,/Alimentation/sw*%
X163250000Y-81820000D03*
X157390000Y-88210000D03*
X162620000Y-81820000D03*
X157390000Y-87600000D03*
X162070000Y-81810000D03*
X157390000Y-86920000D03*
%TO.N,+5V*%
X166170000Y-91030000D03*
X155750000Y-80530000D03*
X167020000Y-96170000D03*
D21*
X167680000Y-98240000D03*
D20*
X167880000Y-91150000D03*
X155750000Y-81130000D03*
X165400000Y-92560000D03*
X155760000Y-79720000D03*
%TO.N,/Alimentation/en{slash}sync*%
X162550000Y-86520000D03*
X167920000Y-81580000D03*
%TD*%
%TA.AperFunction,Conductor*%
%TO.N,+3.3V*%
G36*
X178267646Y-66520185D02*
G01*
X178313401Y-66572989D01*
X178323345Y-66642147D01*
X178294320Y-66705703D01*
X178256902Y-66734985D01*
X178147206Y-66790877D01*
X177821917Y-67002122D01*
X177520488Y-67246215D01*
X177520480Y-67246222D01*
X177246222Y-67520480D01*
X177246215Y-67520488D01*
X177002122Y-67821917D01*
X176790877Y-68147206D01*
X176614787Y-68492802D01*
X176475788Y-68854905D01*
X176375397Y-69229570D01*
X176375397Y-69229572D01*
X176314722Y-69612660D01*
X176294422Y-69999999D01*
X176294422Y-70000000D01*
X176314722Y-70387339D01*
X176350056Y-70610427D01*
X176375398Y-70770433D01*
X176382973Y-70798705D01*
X176475788Y-71145094D01*
X176614787Y-71507197D01*
X176790877Y-71852793D01*
X177002122Y-72178082D01*
X177105902Y-72306239D01*
X177246219Y-72479516D01*
X177520484Y-72753781D01*
X177520488Y-72753784D01*
X177821917Y-72997877D01*
X178147206Y-73209122D01*
X178147211Y-73209125D01*
X178492806Y-73385214D01*
X178854913Y-73524214D01*
X179229567Y-73624602D01*
X179612662Y-73685278D01*
X179978576Y-73704455D01*
X179999999Y-73705578D01*
X180000000Y-73705578D01*
X180000001Y-73705578D01*
X180020301Y-73704514D01*
X180387338Y-73685278D01*
X180770433Y-73624602D01*
X181145087Y-73524214D01*
X181507194Y-73385214D01*
X181852789Y-73209125D01*
X182178084Y-72997876D01*
X182479516Y-72753781D01*
X182753781Y-72479516D01*
X182997876Y-72178084D01*
X183209125Y-71852789D01*
X183265015Y-71743097D01*
X183312989Y-71692302D01*
X183380810Y-71675507D01*
X183446945Y-71698044D01*
X183490397Y-71752759D01*
X183499500Y-71799393D01*
X183499500Y-117200606D01*
X183479815Y-117267645D01*
X183427011Y-117313400D01*
X183357853Y-117323344D01*
X183294297Y-117294319D01*
X183265015Y-117256901D01*
X183209122Y-117147206D01*
X182997877Y-116821917D01*
X182753784Y-116520488D01*
X182753781Y-116520484D01*
X182479516Y-116246219D01*
X182178084Y-116002124D01*
X182178082Y-116002122D01*
X181852793Y-115790877D01*
X181507197Y-115614787D01*
X181145094Y-115475788D01*
X181145087Y-115475786D01*
X180770433Y-115375398D01*
X180770429Y-115375397D01*
X180770428Y-115375397D01*
X180387339Y-115314722D01*
X180000001Y-115294422D01*
X179999999Y-115294422D01*
X179612660Y-115314722D01*
X179229572Y-115375397D01*
X179229570Y-115375397D01*
X178854905Y-115475788D01*
X178492802Y-115614787D01*
X178147206Y-115790877D01*
X177821917Y-116002122D01*
X177520488Y-116246215D01*
X177520480Y-116246222D01*
X177246222Y-116520480D01*
X177246215Y-116520488D01*
X177002122Y-116821917D01*
X176790877Y-117147206D01*
X176614787Y-117492802D01*
X176539764Y-117688245D01*
X176497362Y-117743777D01*
X176431668Y-117767570D01*
X176363540Y-117752068D01*
X176314607Y-117702195D01*
X176300000Y-117643807D01*
X176300000Y-109696312D01*
X176319685Y-109629273D01*
X176372489Y-109583518D01*
X176437883Y-109573092D01*
X176466442Y-109576310D01*
X176499998Y-109580091D01*
X176500000Y-109580091D01*
X176500004Y-109580091D01*
X176662455Y-109561787D01*
X176662456Y-109561786D01*
X176662461Y-109561786D01*
X176816775Y-109507789D01*
X176955204Y-109420808D01*
X177069643Y-109306369D01*
X177130966Y-109272884D01*
X177143441Y-109270830D01*
X177312455Y-109251787D01*
X177312456Y-109251786D01*
X177312461Y-109251786D01*
X177466775Y-109197789D01*
X177605204Y-109110808D01*
X177720808Y-108995204D01*
X177744715Y-108957154D01*
X177797048Y-108910864D01*
X177808747Y-108906087D01*
X177946775Y-108857789D01*
X178085204Y-108770808D01*
X178200808Y-108655204D01*
X178287789Y-108516775D01*
X178341786Y-108362461D01*
X178344281Y-108340318D01*
X178360091Y-108200003D01*
X178360091Y-108199996D01*
X178341787Y-108037544D01*
X178341786Y-108037542D01*
X178341786Y-108037539D01*
X178287789Y-107883225D01*
X178200808Y-107744796D01*
X178085204Y-107629192D01*
X177979671Y-107562881D01*
X177946774Y-107542210D01*
X177792455Y-107488212D01*
X177630004Y-107469909D01*
X177629996Y-107469909D01*
X177467544Y-107488212D01*
X177313225Y-107542210D01*
X177174795Y-107629192D01*
X177059194Y-107744793D01*
X177059188Y-107744800D01*
X177035281Y-107782848D01*
X176982946Y-107829138D01*
X176971245Y-107833915D01*
X176952659Y-107840419D01*
X176833224Y-107882211D01*
X176694797Y-107969191D01*
X176580356Y-108083631D01*
X176519032Y-108117115D01*
X176506559Y-108119169D01*
X176437884Y-108126907D01*
X176369062Y-108114853D01*
X176317682Y-108067504D01*
X176300000Y-108003687D01*
X176300000Y-107138425D01*
X176319685Y-107071386D01*
X176372489Y-107025631D01*
X176437883Y-107015205D01*
X176444274Y-107015925D01*
X176569997Y-107030091D01*
X176570000Y-107030091D01*
X176570004Y-107030091D01*
X176732455Y-107011787D01*
X176732456Y-107011786D01*
X176732461Y-107011786D01*
X176886775Y-106957789D01*
X177025204Y-106870808D01*
X177140808Y-106755204D01*
X177227789Y-106616775D01*
X177281786Y-106462461D01*
X177282079Y-106459864D01*
X177300091Y-106300003D01*
X177300091Y-106299996D01*
X177281787Y-106137544D01*
X177281786Y-106137542D01*
X177281786Y-106137539D01*
X177227789Y-105983225D01*
X177224373Y-105977789D01*
X177189789Y-105922749D01*
X177149760Y-105859044D01*
X177130760Y-105791808D01*
X177151127Y-105724973D01*
X177204395Y-105679758D01*
X177240864Y-105669852D01*
X177312461Y-105661786D01*
X177466775Y-105607789D01*
X177605204Y-105520808D01*
X177720808Y-105405204D01*
X177807789Y-105266775D01*
X177861786Y-105112461D01*
X177863190Y-105100000D01*
X177880091Y-104950003D01*
X177880091Y-104949996D01*
X177861787Y-104787544D01*
X177861786Y-104787542D01*
X177861786Y-104787539D01*
X177807789Y-104633225D01*
X177720808Y-104494796D01*
X177605204Y-104379192D01*
X177590430Y-104369909D01*
X177466774Y-104292210D01*
X177332929Y-104245376D01*
X177312461Y-104238214D01*
X177312460Y-104238213D01*
X177312455Y-104238212D01*
X177150004Y-104219909D01*
X177149996Y-104219909D01*
X176987544Y-104238212D01*
X176833225Y-104292210D01*
X176694795Y-104379192D01*
X176579190Y-104494797D01*
X176528993Y-104574686D01*
X176476659Y-104620976D01*
X176407605Y-104631624D01*
X176343757Y-104603249D01*
X176305385Y-104544859D01*
X176300000Y-104508713D01*
X176300000Y-97913713D01*
X179964500Y-97913713D01*
X179964500Y-98126286D01*
X179993999Y-98312539D01*
X179997754Y-98336243D01*
X180046506Y-98486287D01*
X180063444Y-98538414D01*
X180159951Y-98727820D01*
X180284890Y-98899786D01*
X180435209Y-99050105D01*
X180435214Y-99050109D01*
X180600218Y-99169991D01*
X180642884Y-99225320D01*
X180648863Y-99294934D01*
X180616258Y-99356729D01*
X180600218Y-99370627D01*
X180435540Y-99490272D01*
X180435535Y-99490276D01*
X180285276Y-99640535D01*
X180285272Y-99640540D01*
X180160379Y-99812442D01*
X180063904Y-100001782D01*
X179998242Y-100203870D01*
X179998242Y-100203873D01*
X179987769Y-100270000D01*
X181035854Y-100270000D01*
X180997370Y-100336657D01*
X180965000Y-100457465D01*
X180965000Y-100582535D01*
X180997370Y-100703343D01*
X181035854Y-100770000D01*
X179987769Y-100770000D01*
X179998242Y-100836126D01*
X179998242Y-100836129D01*
X180063904Y-101038217D01*
X180160379Y-101227557D01*
X180285272Y-101399459D01*
X180285276Y-101399464D01*
X180435535Y-101549723D01*
X180435540Y-101549727D01*
X180600218Y-101669372D01*
X180642884Y-101724701D01*
X180648863Y-101794315D01*
X180616258Y-101856110D01*
X180600218Y-101870008D01*
X180435214Y-101989890D01*
X180435209Y-101989894D01*
X180284890Y-102140213D01*
X180159951Y-102312179D01*
X180063444Y-102501585D01*
X180063443Y-102501587D01*
X180063443Y-102501588D01*
X180049404Y-102544795D01*
X179997753Y-102703760D01*
X179972879Y-102860808D01*
X179964500Y-102913713D01*
X179964500Y-103126287D01*
X179974534Y-103189644D01*
X179994670Y-103316775D01*
X179997754Y-103336243D01*
X180050162Y-103497539D01*
X180063444Y-103538414D01*
X180159951Y-103727820D01*
X180284890Y-103899786D01*
X180435209Y-104050105D01*
X180435214Y-104050109D01*
X180599793Y-104169682D01*
X180642459Y-104225011D01*
X180648438Y-104294625D01*
X180615833Y-104356420D01*
X180599793Y-104370318D01*
X180435214Y-104489890D01*
X180435209Y-104489894D01*
X180284890Y-104640213D01*
X180159951Y-104812179D01*
X180063444Y-105001585D01*
X179997753Y-105203760D01*
X179965848Y-105405204D01*
X179964500Y-105413713D01*
X179964500Y-105626287D01*
X179971552Y-105670809D01*
X179996727Y-105829763D01*
X179997754Y-105836243D01*
X180049082Y-105994215D01*
X180063444Y-106038414D01*
X180159951Y-106227820D01*
X180284890Y-106399786D01*
X180435209Y-106550105D01*
X180435214Y-106550109D01*
X180599793Y-106669682D01*
X180642459Y-106725011D01*
X180648438Y-106794625D01*
X180615833Y-106856420D01*
X180599793Y-106870318D01*
X180435214Y-106989890D01*
X180435209Y-106989894D01*
X180284890Y-107140213D01*
X180159951Y-107312179D01*
X180063444Y-107501585D01*
X179997753Y-107703760D01*
X179969489Y-107882211D01*
X179964500Y-107913713D01*
X179964500Y-108126287D01*
X179971409Y-108169909D01*
X179997587Y-108335192D01*
X179997754Y-108336243D01*
X180056412Y-108516774D01*
X180063444Y-108538414D01*
X180159951Y-108727820D01*
X180284890Y-108899786D01*
X180423705Y-109038601D01*
X180457190Y-109099924D01*
X180452206Y-109169616D01*
X180410334Y-109225549D01*
X180401121Y-109231821D01*
X180246342Y-109327289D01*
X180122289Y-109451342D01*
X180030187Y-109600663D01*
X180030185Y-109600668D01*
X180009709Y-109662461D01*
X179975001Y-109767203D01*
X179975001Y-109767204D01*
X179975000Y-109767204D01*
X179964500Y-109869983D01*
X179964500Y-111170001D01*
X179964501Y-111170018D01*
X179975000Y-111272796D01*
X179975001Y-111272799D01*
X179998859Y-111344796D01*
X180030186Y-111439334D01*
X180122288Y-111588656D01*
X180246344Y-111712712D01*
X180395666Y-111804814D01*
X180562203Y-111859999D01*
X180664991Y-111870500D01*
X182215008Y-111870499D01*
X182317797Y-111859999D01*
X182484334Y-111804814D01*
X182633656Y-111712712D01*
X182757712Y-111588656D01*
X182849814Y-111439334D01*
X182904999Y-111272797D01*
X182915500Y-111170009D01*
X182915499Y-109869992D01*
X182904999Y-109767203D01*
X182849814Y-109600666D01*
X182757712Y-109451344D01*
X182633656Y-109327288D01*
X182484334Y-109235186D01*
X182484333Y-109235185D01*
X182478878Y-109231821D01*
X182432154Y-109179873D01*
X182420931Y-109110910D01*
X182448775Y-109046828D01*
X182456272Y-109038623D01*
X182595104Y-108899792D01*
X182720051Y-108727816D01*
X182816557Y-108538412D01*
X182882246Y-108336243D01*
X182915500Y-108126287D01*
X182915500Y-107913713D01*
X182882246Y-107703757D01*
X182816557Y-107501588D01*
X182720051Y-107312184D01*
X182720049Y-107312181D01*
X182720048Y-107312179D01*
X182595109Y-107140213D01*
X182444792Y-106989896D01*
X182397038Y-106955201D01*
X182280204Y-106870316D01*
X182237540Y-106814989D01*
X182231561Y-106745376D01*
X182264166Y-106683580D01*
X182280199Y-106669686D01*
X182444792Y-106550104D01*
X182595104Y-106399792D01*
X182595106Y-106399788D01*
X182595109Y-106399786D01*
X182720048Y-106227820D01*
X182720047Y-106227820D01*
X182720051Y-106227816D01*
X182816557Y-106038412D01*
X182882246Y-105836243D01*
X182915500Y-105626287D01*
X182915500Y-105413713D01*
X182882246Y-105203757D01*
X182816557Y-105001588D01*
X182720051Y-104812184D01*
X182720049Y-104812181D01*
X182720048Y-104812179D01*
X182595109Y-104640213D01*
X182444792Y-104489896D01*
X182400600Y-104457789D01*
X182280204Y-104370316D01*
X182237540Y-104314989D01*
X182231561Y-104245376D01*
X182264166Y-104183580D01*
X182280199Y-104169686D01*
X182444792Y-104050104D01*
X182595104Y-103899792D01*
X182595106Y-103899788D01*
X182595109Y-103899786D01*
X182720048Y-103727820D01*
X182720047Y-103727820D01*
X182720051Y-103727816D01*
X182816557Y-103538412D01*
X182882246Y-103336243D01*
X182915500Y-103126287D01*
X182915500Y-102913713D01*
X182882246Y-102703757D01*
X182816557Y-102501588D01*
X182720051Y-102312184D01*
X182720049Y-102312181D01*
X182720048Y-102312179D01*
X182595109Y-102140213D01*
X182444790Y-101989894D01*
X182444785Y-101989890D01*
X182279781Y-101870008D01*
X182237115Y-101814678D01*
X182231136Y-101745065D01*
X182263741Y-101683270D01*
X182279781Y-101669371D01*
X182444466Y-101549721D01*
X182594723Y-101399464D01*
X182594727Y-101399459D01*
X182719620Y-101227557D01*
X182816095Y-101038217D01*
X182881757Y-100836129D01*
X182881757Y-100836126D01*
X182892231Y-100770000D01*
X181844146Y-100770000D01*
X181882630Y-100703343D01*
X181915000Y-100582535D01*
X181915000Y-100457465D01*
X181882630Y-100336657D01*
X181844146Y-100270000D01*
X182892231Y-100270000D01*
X182881757Y-100203873D01*
X182881757Y-100203870D01*
X182816095Y-100001782D01*
X182719620Y-99812442D01*
X182594727Y-99640540D01*
X182594723Y-99640535D01*
X182444464Y-99490276D01*
X182444459Y-99490272D01*
X182279781Y-99370627D01*
X182237115Y-99315297D01*
X182231136Y-99245684D01*
X182263741Y-99183889D01*
X182279776Y-99169994D01*
X182444792Y-99050104D01*
X182595104Y-98899792D01*
X182595106Y-98899788D01*
X182595109Y-98899786D01*
X182720048Y-98727820D01*
X182720047Y-98727820D01*
X182720051Y-98727816D01*
X182816557Y-98538412D01*
X182882246Y-98336243D01*
X182915500Y-98126287D01*
X182915500Y-97913713D01*
X182882246Y-97703757D01*
X182816557Y-97501588D01*
X182720051Y-97312184D01*
X182720049Y-97312181D01*
X182720048Y-97312179D01*
X182595109Y-97140213D01*
X182444786Y-96989890D01*
X182272820Y-96864951D01*
X182083414Y-96768444D01*
X182083413Y-96768443D01*
X182083412Y-96768443D01*
X181881243Y-96702754D01*
X181881241Y-96702753D01*
X181881240Y-96702753D01*
X181719957Y-96677208D01*
X181671287Y-96669500D01*
X181208713Y-96669500D01*
X181160042Y-96677208D01*
X180998760Y-96702753D01*
X180796585Y-96768444D01*
X180607179Y-96864951D01*
X180435213Y-96989890D01*
X180284890Y-97140213D01*
X180159951Y-97312179D01*
X180063444Y-97501585D01*
X179997753Y-97703760D01*
X179964500Y-97913713D01*
X176300000Y-97913713D01*
X176300000Y-90603429D01*
X176319685Y-90536390D01*
X176372489Y-90490635D01*
X176441647Y-90480691D01*
X176464950Y-90486386D01*
X176537539Y-90511786D01*
X176537542Y-90511786D01*
X176537544Y-90511787D01*
X176699996Y-90530091D01*
X176700000Y-90530091D01*
X176700004Y-90530091D01*
X176862455Y-90511787D01*
X176862456Y-90511786D01*
X176862461Y-90511786D01*
X177016775Y-90457789D01*
X177155204Y-90370808D01*
X177270808Y-90255204D01*
X177357789Y-90116775D01*
X177411786Y-89962461D01*
X177415918Y-89925788D01*
X177430091Y-89800003D01*
X177430091Y-89799996D01*
X177411787Y-89637544D01*
X177411786Y-89637542D01*
X177411786Y-89637539D01*
X177357789Y-89483225D01*
X177270808Y-89344796D01*
X177155204Y-89229192D01*
X177048993Y-89162455D01*
X177016774Y-89142210D01*
X176862455Y-89088212D01*
X176700004Y-89069909D01*
X176699996Y-89069909D01*
X176537544Y-89088212D01*
X176505553Y-89099406D01*
X176464952Y-89113613D01*
X176395175Y-89117174D01*
X176334548Y-89082445D01*
X176302321Y-89020452D01*
X176300000Y-88996571D01*
X176300000Y-85799996D01*
X176569909Y-85799996D01*
X176569909Y-85800003D01*
X176588212Y-85962455D01*
X176642210Y-86116774D01*
X176696531Y-86203225D01*
X176729192Y-86255204D01*
X176844796Y-86370808D01*
X176983225Y-86457789D01*
X177137539Y-86511786D01*
X177137542Y-86511786D01*
X177137544Y-86511787D01*
X177299996Y-86530091D01*
X177300000Y-86530091D01*
X177300004Y-86530091D01*
X177462455Y-86511787D01*
X177462456Y-86511786D01*
X177462461Y-86511786D01*
X177616775Y-86457789D01*
X177755204Y-86370808D01*
X177870808Y-86255204D01*
X177957789Y-86116775D01*
X178011786Y-85962461D01*
X178015693Y-85927789D01*
X178030091Y-85800003D01*
X178030091Y-85799996D01*
X178011787Y-85637544D01*
X178011786Y-85637542D01*
X178011786Y-85637539D01*
X177957789Y-85483225D01*
X177870808Y-85344796D01*
X177755204Y-85229192D01*
X177713878Y-85203225D01*
X177616774Y-85142210D01*
X177474581Y-85092455D01*
X177462461Y-85088214D01*
X177462460Y-85088213D01*
X177462455Y-85088212D01*
X177300004Y-85069909D01*
X177299996Y-85069909D01*
X177137544Y-85088212D01*
X176983225Y-85142210D01*
X176844795Y-85229192D01*
X176729192Y-85344795D01*
X176642210Y-85483225D01*
X176588212Y-85637544D01*
X176569909Y-85799996D01*
X176300000Y-85799996D01*
X176300000Y-79199999D01*
X176299999Y-79199997D01*
X175833971Y-78163713D01*
X180064500Y-78163713D01*
X180064500Y-78376286D01*
X180079853Y-78473225D01*
X180097754Y-78586243D01*
X180160447Y-78779192D01*
X180163444Y-78788414D01*
X180259951Y-78977820D01*
X180384890Y-79149786D01*
X180535209Y-79300105D01*
X180535214Y-79300109D01*
X180700218Y-79419991D01*
X180742884Y-79475320D01*
X180748863Y-79544934D01*
X180716258Y-79606729D01*
X180700218Y-79620627D01*
X180535540Y-79740272D01*
X180535535Y-79740276D01*
X180385276Y-79890535D01*
X180385272Y-79890540D01*
X180260379Y-80062442D01*
X180163904Y-80251782D01*
X180098242Y-80453870D01*
X180098242Y-80453873D01*
X180087769Y-80520000D01*
X181135854Y-80520000D01*
X181097370Y-80586657D01*
X181065000Y-80707465D01*
X181065000Y-80832535D01*
X181097370Y-80953343D01*
X181135854Y-81020000D01*
X180087769Y-81020000D01*
X180098242Y-81086126D01*
X180098242Y-81086129D01*
X180163904Y-81288217D01*
X180260379Y-81477557D01*
X180385272Y-81649459D01*
X180385276Y-81649464D01*
X180535535Y-81799723D01*
X180535540Y-81799727D01*
X180700218Y-81919372D01*
X180742884Y-81974701D01*
X180748863Y-82044315D01*
X180716258Y-82106110D01*
X180700218Y-82120008D01*
X180535214Y-82239890D01*
X180535209Y-82239894D01*
X180384890Y-82390213D01*
X180259951Y-82562179D01*
X180163444Y-82751585D01*
X180097753Y-82953760D01*
X180071934Y-83116775D01*
X180064500Y-83163713D01*
X180064500Y-83376287D01*
X180097754Y-83586243D01*
X180128247Y-83680091D01*
X180163444Y-83788414D01*
X180259951Y-83977820D01*
X180384890Y-84149786D01*
X180535209Y-84300105D01*
X180535214Y-84300109D01*
X180699793Y-84419682D01*
X180742459Y-84475011D01*
X180748438Y-84544625D01*
X180715833Y-84606420D01*
X180699793Y-84620318D01*
X180535214Y-84739890D01*
X180535209Y-84739894D01*
X180384890Y-84890213D01*
X180259951Y-85062179D01*
X180163444Y-85251585D01*
X180097753Y-85453760D01*
X180086114Y-85527246D01*
X180064500Y-85663713D01*
X180064500Y-85876287D01*
X180072657Y-85927789D01*
X180090940Y-86043225D01*
X180097754Y-86086243D01*
X180149271Y-86244796D01*
X180163444Y-86288414D01*
X180259951Y-86477820D01*
X180384890Y-86649786D01*
X180535209Y-86800105D01*
X180535214Y-86800109D01*
X180699793Y-86919682D01*
X180742459Y-86975011D01*
X180748438Y-87044625D01*
X180715833Y-87106420D01*
X180699793Y-87120318D01*
X180535214Y-87239890D01*
X180535209Y-87239894D01*
X180384890Y-87390213D01*
X180259951Y-87562179D01*
X180163444Y-87751585D01*
X180097753Y-87953760D01*
X180068646Y-88137539D01*
X180064500Y-88163713D01*
X180064500Y-88376287D01*
X180097754Y-88586243D01*
X180160972Y-88780808D01*
X180163444Y-88788414D01*
X180259951Y-88977820D01*
X180384890Y-89149786D01*
X180523705Y-89288601D01*
X180557190Y-89349924D01*
X180552206Y-89419616D01*
X180510334Y-89475549D01*
X180501121Y-89481821D01*
X180346342Y-89577289D01*
X180222289Y-89701342D01*
X180130187Y-89850663D01*
X180130186Y-89850666D01*
X180075001Y-90017203D01*
X180075001Y-90017204D01*
X180075000Y-90017204D01*
X180064500Y-90119983D01*
X180064500Y-91420001D01*
X180064501Y-91420018D01*
X180075000Y-91522796D01*
X180075001Y-91522799D01*
X180077383Y-91529986D01*
X180130186Y-91689334D01*
X180222288Y-91838656D01*
X180346344Y-91962712D01*
X180495666Y-92054814D01*
X180662203Y-92109999D01*
X180764991Y-92120500D01*
X182315008Y-92120499D01*
X182417797Y-92109999D01*
X182584334Y-92054814D01*
X182733656Y-91962712D01*
X182857712Y-91838656D01*
X182949814Y-91689334D01*
X183004999Y-91522797D01*
X183015500Y-91420009D01*
X183015499Y-90119992D01*
X183015170Y-90116775D01*
X183004999Y-90017203D01*
X183004998Y-90017200D01*
X182986335Y-89960880D01*
X182949814Y-89850666D01*
X182857712Y-89701344D01*
X182733656Y-89577288D01*
X182584334Y-89485186D01*
X182584333Y-89485185D01*
X182578878Y-89481821D01*
X182532154Y-89429873D01*
X182520931Y-89360910D01*
X182548775Y-89296828D01*
X182556272Y-89288623D01*
X182695104Y-89149792D01*
X182721390Y-89113613D01*
X182789074Y-89020452D01*
X182820051Y-88977816D01*
X182916557Y-88788412D01*
X182982246Y-88586243D01*
X183015500Y-88376287D01*
X183015500Y-88163713D01*
X182982246Y-87953757D01*
X182916557Y-87751588D01*
X182820051Y-87562184D01*
X182820049Y-87562181D01*
X182820048Y-87562179D01*
X182695109Y-87390213D01*
X182544792Y-87239896D01*
X182540496Y-87236775D01*
X182380204Y-87120316D01*
X182337540Y-87064989D01*
X182331561Y-86995376D01*
X182364166Y-86933580D01*
X182380199Y-86919686D01*
X182544792Y-86800104D01*
X182695104Y-86649792D01*
X182695106Y-86649788D01*
X182695109Y-86649786D01*
X182820048Y-86477820D01*
X182820047Y-86477820D01*
X182820051Y-86477816D01*
X182916557Y-86288412D01*
X182982246Y-86086243D01*
X183015500Y-85876287D01*
X183015500Y-85663713D01*
X182982246Y-85453757D01*
X182916557Y-85251588D01*
X182820051Y-85062184D01*
X182820049Y-85062181D01*
X182820048Y-85062179D01*
X182695109Y-84890213D01*
X182544792Y-84739896D01*
X182528988Y-84728414D01*
X182380204Y-84620316D01*
X182337540Y-84564989D01*
X182331561Y-84495376D01*
X182364166Y-84433580D01*
X182380199Y-84419686D01*
X182544792Y-84300104D01*
X182695104Y-84149792D01*
X182695106Y-84149788D01*
X182695109Y-84149786D01*
X182820048Y-83977820D01*
X182820047Y-83977820D01*
X182820051Y-83977816D01*
X182916557Y-83788412D01*
X182982246Y-83586243D01*
X183015500Y-83376287D01*
X183015500Y-83163713D01*
X182982246Y-82953757D01*
X182916557Y-82751588D01*
X182820051Y-82562184D01*
X182820049Y-82562181D01*
X182820048Y-82562179D01*
X182695109Y-82390213D01*
X182544790Y-82239894D01*
X182544785Y-82239890D01*
X182379781Y-82120008D01*
X182337115Y-82064678D01*
X182331136Y-81995065D01*
X182363741Y-81933270D01*
X182379781Y-81919371D01*
X182544466Y-81799721D01*
X182694723Y-81649464D01*
X182694727Y-81649459D01*
X182819620Y-81477557D01*
X182916095Y-81288217D01*
X182981757Y-81086129D01*
X182981757Y-81086126D01*
X182992231Y-81020000D01*
X181944146Y-81020000D01*
X181982630Y-80953343D01*
X182015000Y-80832535D01*
X182015000Y-80707465D01*
X181982630Y-80586657D01*
X181944146Y-80520000D01*
X182992231Y-80520000D01*
X182981757Y-80453873D01*
X182981757Y-80453870D01*
X182916095Y-80251782D01*
X182819620Y-80062442D01*
X182694727Y-79890540D01*
X182694723Y-79890535D01*
X182544464Y-79740276D01*
X182544459Y-79740272D01*
X182379781Y-79620627D01*
X182337115Y-79565297D01*
X182331136Y-79495684D01*
X182363741Y-79433889D01*
X182379776Y-79419994D01*
X182544792Y-79300104D01*
X182695104Y-79149792D01*
X182695106Y-79149788D01*
X182695109Y-79149786D01*
X182820048Y-78977820D01*
X182820047Y-78977820D01*
X182820051Y-78977816D01*
X182916557Y-78788412D01*
X182982246Y-78586243D01*
X183015500Y-78376287D01*
X183015500Y-78163713D01*
X182982246Y-77953757D01*
X182916557Y-77751588D01*
X182820051Y-77562184D01*
X182820049Y-77562181D01*
X182820048Y-77562179D01*
X182695109Y-77390213D01*
X182544786Y-77239890D01*
X182372820Y-77114951D01*
X182183414Y-77018444D01*
X182183413Y-77018443D01*
X182183412Y-77018443D01*
X181981243Y-76952754D01*
X181981241Y-76952753D01*
X181981240Y-76952753D01*
X181819957Y-76927208D01*
X181771287Y-76919500D01*
X181308713Y-76919500D01*
X181260042Y-76927208D01*
X181098760Y-76952753D01*
X180896585Y-77018444D01*
X180707179Y-77114951D01*
X180535213Y-77239890D01*
X180384890Y-77390213D01*
X180259951Y-77562179D01*
X180163444Y-77751585D01*
X180097753Y-77953760D01*
X180064500Y-78163713D01*
X175833971Y-78163713D01*
X172410000Y-70550000D01*
X171464083Y-70564446D01*
X171396751Y-70545787D01*
X171374509Y-70528141D01*
X171358657Y-70512289D01*
X171358656Y-70512288D01*
X171238935Y-70438444D01*
X171209336Y-70420187D01*
X171209331Y-70420185D01*
X171164064Y-70405185D01*
X171042797Y-70365001D01*
X171042795Y-70365000D01*
X170940010Y-70354500D01*
X169639998Y-70354500D01*
X169639981Y-70354501D01*
X169537203Y-70365000D01*
X169537200Y-70365001D01*
X169370668Y-70420185D01*
X169370663Y-70420187D01*
X169278857Y-70476813D01*
X169221344Y-70512288D01*
X169221342Y-70512289D01*
X169221340Y-70512291D01*
X169169124Y-70564506D01*
X169107800Y-70597990D01*
X169083338Y-70600809D01*
X168619768Y-70607889D01*
X168552435Y-70589230D01*
X168544989Y-70584222D01*
X168497815Y-70549948D01*
X168308414Y-70453444D01*
X168308413Y-70453443D01*
X168308412Y-70453443D01*
X168106243Y-70387754D01*
X168106241Y-70387753D01*
X168106240Y-70387753D01*
X167944957Y-70362208D01*
X167896287Y-70354500D01*
X167683713Y-70354500D01*
X167635042Y-70362208D01*
X167473760Y-70387753D01*
X167271585Y-70453444D01*
X167082181Y-70549950D01*
X166999454Y-70610054D01*
X166933647Y-70633533D01*
X166928464Y-70633721D01*
X166171242Y-70645286D01*
X166103909Y-70626627D01*
X166096464Y-70621619D01*
X165997816Y-70549949D01*
X165997814Y-70549948D01*
X165808414Y-70453444D01*
X165808413Y-70453443D01*
X165808412Y-70453443D01*
X165606243Y-70387754D01*
X165606241Y-70387753D01*
X165606240Y-70387753D01*
X165444957Y-70362208D01*
X165396287Y-70354500D01*
X165183713Y-70354500D01*
X165135042Y-70362208D01*
X164973760Y-70387753D01*
X164771585Y-70453444D01*
X164582185Y-70549948D01*
X164582183Y-70549949D01*
X164445768Y-70649058D01*
X164379961Y-70672537D01*
X164374778Y-70672725D01*
X160194891Y-70736567D01*
X160127558Y-70717908D01*
X160087458Y-70677677D01*
X160052713Y-70621345D01*
X159928657Y-70497289D01*
X159928656Y-70497288D01*
X159803653Y-70420186D01*
X159779336Y-70405187D01*
X159779331Y-70405185D01*
X159777862Y-70404698D01*
X159612797Y-70350001D01*
X159612795Y-70350000D01*
X159510010Y-70339500D01*
X158209998Y-70339500D01*
X158209981Y-70339501D01*
X158107203Y-70350000D01*
X158107200Y-70350001D01*
X157940668Y-70405185D01*
X157940663Y-70405187D01*
X157791342Y-70497289D01*
X157667289Y-70621342D01*
X157571821Y-70776121D01*
X157519873Y-70822845D01*
X157450910Y-70834068D01*
X157386828Y-70806224D01*
X157378601Y-70798705D01*
X157239786Y-70659890D01*
X157067820Y-70534951D01*
X156878414Y-70438444D01*
X156878413Y-70438443D01*
X156878412Y-70438443D01*
X156676243Y-70372754D01*
X156676241Y-70372753D01*
X156676240Y-70372753D01*
X156514957Y-70347208D01*
X156466287Y-70339500D01*
X156253713Y-70339500D01*
X156205042Y-70347208D01*
X156043760Y-70372753D01*
X155841585Y-70438444D01*
X155652179Y-70534951D01*
X155480213Y-70659890D01*
X155329890Y-70810213D01*
X155204951Y-70982179D01*
X155108444Y-71171585D01*
X155042753Y-71373760D01*
X155009500Y-71583713D01*
X155009500Y-72096286D01*
X155037210Y-72271243D01*
X155042754Y-72306243D01*
X155099052Y-72479511D01*
X155108444Y-72508414D01*
X155204951Y-72697820D01*
X155329890Y-72869786D01*
X155480213Y-73020109D01*
X155652179Y-73145048D01*
X155652181Y-73145049D01*
X155652184Y-73145051D01*
X155841588Y-73241557D01*
X156043757Y-73307246D01*
X156253713Y-73340500D01*
X156253714Y-73340500D01*
X156466286Y-73340500D01*
X156466287Y-73340500D01*
X156676243Y-73307246D01*
X156878412Y-73241557D01*
X157067816Y-73145051D01*
X157239792Y-73020104D01*
X157378604Y-72881291D01*
X157439923Y-72847809D01*
X157509615Y-72852793D01*
X157565549Y-72894664D01*
X157571821Y-72903878D01*
X157575185Y-72909333D01*
X157575186Y-72909334D01*
X157667288Y-73058656D01*
X157791344Y-73182712D01*
X157940666Y-73274814D01*
X158107203Y-73329999D01*
X158209991Y-73340500D01*
X159510008Y-73340499D01*
X159612797Y-73329999D01*
X159779334Y-73274814D01*
X159928656Y-73182712D01*
X159928657Y-73182710D01*
X159934803Y-73178920D01*
X159936193Y-73181173D01*
X159989551Y-73159627D01*
X160058197Y-73172645D01*
X160108908Y-73220710D01*
X160125706Y-73283238D01*
X160123068Y-74857902D01*
X160103271Y-74924908D01*
X160050390Y-74970575D01*
X159981215Y-74980402D01*
X159917708Y-74951271D01*
X159911387Y-74945375D01*
X159875204Y-74909192D01*
X159736774Y-74822210D01*
X159582455Y-74768212D01*
X159420004Y-74749909D01*
X159419996Y-74749909D01*
X159257544Y-74768212D01*
X159103225Y-74822210D01*
X158964795Y-74909192D01*
X158849192Y-75024795D01*
X158762210Y-75163225D01*
X158708212Y-75317544D01*
X158689909Y-75479996D01*
X158689909Y-75480003D01*
X158708212Y-75642455D01*
X158762210Y-75796774D01*
X158803484Y-75862461D01*
X158849192Y-75935204D01*
X158964796Y-76050808D01*
X159103225Y-76137789D01*
X159257539Y-76191786D01*
X159257542Y-76191786D01*
X159257544Y-76191787D01*
X159419996Y-76210091D01*
X159420000Y-76210091D01*
X159420004Y-76210091D01*
X159582455Y-76191787D01*
X159582456Y-76191786D01*
X159582461Y-76191786D01*
X159736775Y-76137789D01*
X159875204Y-76050808D01*
X159909300Y-76016711D01*
X159970620Y-75983227D01*
X160040312Y-75988211D01*
X160096246Y-76030081D01*
X160120664Y-76095545D01*
X160120980Y-76104601D01*
X160120206Y-76566888D01*
X160100409Y-76633894D01*
X160047529Y-76679560D01*
X159996889Y-76690678D01*
X149230000Y-76749999D01*
X149229999Y-76750000D01*
X149719999Y-89769999D01*
X149720000Y-89770000D01*
X157919604Y-89770000D01*
X157920206Y-89770001D01*
X163975546Y-89799395D01*
X164042487Y-89819405D01*
X164087985Y-89872431D01*
X164098937Y-89924453D01*
X163987424Y-102986673D01*
X163967168Y-103053542D01*
X163913976Y-103098844D01*
X163844735Y-103108197D01*
X163797457Y-103090607D01*
X163656778Y-103002211D01*
X163502455Y-102948212D01*
X163340004Y-102929909D01*
X163339996Y-102929909D01*
X163177544Y-102948212D01*
X163023225Y-103002210D01*
X162884795Y-103089192D01*
X162769192Y-103204795D01*
X162682210Y-103343225D01*
X162628212Y-103497544D01*
X162609909Y-103659996D01*
X162609909Y-103660003D01*
X162628212Y-103822455D01*
X162682210Y-103976774D01*
X162682211Y-103976775D01*
X162765862Y-104109905D01*
X162772897Y-104121100D01*
X162770916Y-104122344D01*
X162793165Y-104176824D01*
X162780417Y-104245521D01*
X162774805Y-104255436D01*
X162732210Y-104323224D01*
X162678212Y-104477544D01*
X162659909Y-104639996D01*
X162659909Y-104640003D01*
X162678212Y-104802455D01*
X162678213Y-104802460D01*
X162678214Y-104802461D01*
X162681616Y-104812184D01*
X162732210Y-104956774D01*
X162767681Y-105013225D01*
X162819192Y-105095204D01*
X162934796Y-105210808D01*
X163073225Y-105297789D01*
X163227539Y-105351786D01*
X163227542Y-105351786D01*
X163227544Y-105351787D01*
X163389996Y-105370091D01*
X163390000Y-105370091D01*
X163390004Y-105370091D01*
X163552455Y-105351787D01*
X163552456Y-105351786D01*
X163552461Y-105351786D01*
X163706775Y-105297789D01*
X163777198Y-105253538D01*
X163844435Y-105234538D01*
X163911270Y-105254905D01*
X163956484Y-105308173D01*
X163967166Y-105359591D01*
X163954216Y-106876490D01*
X163933960Y-106943359D01*
X163880768Y-106988661D01*
X163811527Y-106998014D01*
X163748221Y-106968447D01*
X163725227Y-106941403D01*
X163712923Y-106921822D01*
X163670808Y-106854796D01*
X163555204Y-106739192D01*
X163471783Y-106686775D01*
X163416774Y-106652210D01*
X163262455Y-106598212D01*
X163100004Y-106579909D01*
X163099996Y-106579909D01*
X162937544Y-106598212D01*
X162783225Y-106652210D01*
X162644795Y-106739192D01*
X162529192Y-106854795D01*
X162442210Y-106993225D01*
X162388212Y-107147544D01*
X162369909Y-107309996D01*
X162369909Y-107310003D01*
X162388212Y-107472455D01*
X162442210Y-107626774D01*
X162477681Y-107683225D01*
X162529192Y-107765204D01*
X162644796Y-107880808D01*
X162783225Y-107967789D01*
X162937539Y-108021786D01*
X162937542Y-108021786D01*
X162937544Y-108021787D01*
X163099996Y-108040091D01*
X163100000Y-108040091D01*
X163100004Y-108040091D01*
X163262455Y-108021787D01*
X163262456Y-108021786D01*
X163262461Y-108021786D01*
X163416775Y-107967789D01*
X163555204Y-107880808D01*
X163670808Y-107765204D01*
X163670811Y-107765198D01*
X163674425Y-107761585D01*
X163735748Y-107728100D01*
X163805440Y-107733084D01*
X163861374Y-107774955D01*
X163885791Y-107840419D01*
X163885327Y-107863149D01*
X163869909Y-107999995D01*
X163869909Y-108000003D01*
X163888212Y-108162453D01*
X163888213Y-108162457D01*
X163888214Y-108162461D01*
X163934790Y-108295568D01*
X163941743Y-108337579D01*
X163926592Y-110112282D01*
X163906336Y-110179151D01*
X163853144Y-110224453D01*
X163783903Y-110233806D01*
X163720597Y-110204239D01*
X163714916Y-110198904D01*
X163615204Y-110099192D01*
X163476774Y-110012210D01*
X163322455Y-109958212D01*
X163160004Y-109939909D01*
X163159996Y-109939909D01*
X162997544Y-109958212D01*
X162843225Y-110012210D01*
X162704795Y-110099192D01*
X162589192Y-110214795D01*
X162502210Y-110353225D01*
X162448212Y-110507544D01*
X162429909Y-110669996D01*
X162429909Y-110670003D01*
X162448212Y-110832455D01*
X162502210Y-110986774D01*
X162574898Y-111102455D01*
X162589192Y-111125204D01*
X162704796Y-111240808D01*
X162843225Y-111327789D01*
X162997539Y-111381786D01*
X162997542Y-111381786D01*
X162997544Y-111381787D01*
X163159996Y-111400091D01*
X163160000Y-111400091D01*
X163160004Y-111400091D01*
X163322455Y-111381787D01*
X163322456Y-111381786D01*
X163322461Y-111381786D01*
X163476775Y-111327789D01*
X163615204Y-111240808D01*
X163705297Y-111150714D01*
X163766616Y-111117232D01*
X163836308Y-111122216D01*
X163892242Y-111164087D01*
X163916659Y-111229551D01*
X163916970Y-111239457D01*
X163911672Y-111859999D01*
X163881210Y-115428353D01*
X163881050Y-115447059D01*
X163860794Y-115513928D01*
X163807602Y-115559230D01*
X163757055Y-115570000D01*
X160228775Y-115570000D01*
X160161736Y-115550315D01*
X160151827Y-115538879D01*
X160092619Y-115568140D01*
X160071225Y-115570000D01*
X158110427Y-115570000D01*
X158043388Y-115550315D01*
X157997633Y-115497511D01*
X157987689Y-115428353D01*
X157993386Y-115405045D01*
X158005366Y-115370807D01*
X158011786Y-115352461D01*
X158011786Y-115352459D01*
X158011787Y-115352457D01*
X158030091Y-115190003D01*
X158030091Y-115189996D01*
X158011787Y-115027544D01*
X158011786Y-115027542D01*
X158011786Y-115027539D01*
X157957789Y-114873225D01*
X157870808Y-114734796D01*
X157755204Y-114619192D01*
X157671782Y-114566774D01*
X157616774Y-114532210D01*
X157482939Y-114485379D01*
X157462461Y-114478214D01*
X157462460Y-114478213D01*
X157462455Y-114478212D01*
X157300004Y-114459909D01*
X157299996Y-114459909D01*
X157137544Y-114478212D01*
X156983225Y-114532210D01*
X156844795Y-114619192D01*
X156729192Y-114734795D01*
X156642210Y-114873225D01*
X156588212Y-115027544D01*
X156569909Y-115189996D01*
X156569909Y-115190003D01*
X156588212Y-115352457D01*
X156606614Y-115405045D01*
X156610176Y-115474824D01*
X156575448Y-115535451D01*
X156513454Y-115567679D01*
X156489573Y-115570000D01*
X150680000Y-115570000D01*
X150857520Y-122372267D01*
X150839592Y-122439795D01*
X150788000Y-122486912D01*
X150733563Y-122499500D01*
X135799393Y-122499500D01*
X135732354Y-122479815D01*
X135686599Y-122427011D01*
X135676655Y-122357853D01*
X135705680Y-122294297D01*
X135743098Y-122265015D01*
X135852789Y-122209125D01*
X136178084Y-121997876D01*
X136479516Y-121753781D01*
X136753781Y-121479516D01*
X136997876Y-121178084D01*
X137081057Y-121049996D01*
X140769909Y-121049996D01*
X140769909Y-121050003D01*
X140788212Y-121212455D01*
X140842210Y-121366774D01*
X140842211Y-121366775D01*
X140929192Y-121505204D01*
X141044796Y-121620808D01*
X141183225Y-121707789D01*
X141337539Y-121761786D01*
X141337542Y-121761786D01*
X141337544Y-121761787D01*
X141499996Y-121780091D01*
X141500000Y-121780091D01*
X141500004Y-121780091D01*
X141662455Y-121761787D01*
X141662456Y-121761786D01*
X141662461Y-121761786D01*
X141816775Y-121707789D01*
X141955204Y-121620808D01*
X142070808Y-121505204D01*
X142157789Y-121366775D01*
X142211786Y-121212461D01*
X142211787Y-121212455D01*
X142230091Y-121050003D01*
X142230091Y-121049996D01*
X148669909Y-121049996D01*
X148669909Y-121050003D01*
X148688212Y-121212455D01*
X148742210Y-121366774D01*
X148742211Y-121366775D01*
X148829192Y-121505204D01*
X148944796Y-121620808D01*
X149083225Y-121707789D01*
X149237539Y-121761786D01*
X149237542Y-121761786D01*
X149237544Y-121761787D01*
X149399996Y-121780091D01*
X149400000Y-121780091D01*
X149400004Y-121780091D01*
X149562455Y-121761787D01*
X149562456Y-121761786D01*
X149562461Y-121761786D01*
X149716775Y-121707789D01*
X149855204Y-121620808D01*
X149970808Y-121505204D01*
X150057789Y-121366775D01*
X150111786Y-121212461D01*
X150111787Y-121212455D01*
X150130091Y-121050003D01*
X150130091Y-121049996D01*
X150111787Y-120887544D01*
X150111786Y-120887542D01*
X150111786Y-120887539D01*
X150057789Y-120733225D01*
X149970808Y-120594796D01*
X149855204Y-120479192D01*
X149716774Y-120392210D01*
X149562455Y-120338212D01*
X149400004Y-120319909D01*
X149399996Y-120319909D01*
X149237544Y-120338212D01*
X149083225Y-120392210D01*
X148944795Y-120479192D01*
X148829192Y-120594795D01*
X148742210Y-120733225D01*
X148688212Y-120887544D01*
X148669909Y-121049996D01*
X142230091Y-121049996D01*
X142211787Y-120887544D01*
X142211786Y-120887542D01*
X142211786Y-120887539D01*
X142157789Y-120733225D01*
X142070808Y-120594796D01*
X141955204Y-120479192D01*
X141816774Y-120392210D01*
X141662455Y-120338212D01*
X141500004Y-120319909D01*
X141499996Y-120319909D01*
X141337544Y-120338212D01*
X141183225Y-120392210D01*
X141044795Y-120479192D01*
X140929192Y-120594795D01*
X140842210Y-120733225D01*
X140788212Y-120887544D01*
X140769909Y-121049996D01*
X137081057Y-121049996D01*
X137209125Y-120852789D01*
X137385214Y-120507194D01*
X137524214Y-120145087D01*
X137624602Y-119770433D01*
X137685278Y-119387338D01*
X137705578Y-119000000D01*
X137696577Y-118828268D01*
X137712726Y-118760294D01*
X137763062Y-118711837D01*
X137831605Y-118698288D01*
X137896593Y-118723946D01*
X137908088Y-118734100D01*
X137994796Y-118820808D01*
X138133225Y-118907789D01*
X138287539Y-118961786D01*
X138287542Y-118961786D01*
X138287544Y-118961787D01*
X138449996Y-118980091D01*
X138450000Y-118980091D01*
X138450004Y-118980091D01*
X138612455Y-118961787D01*
X138612456Y-118961786D01*
X138612461Y-118961786D01*
X138766775Y-118907789D01*
X138905204Y-118820808D01*
X139020808Y-118705204D01*
X139107789Y-118566775D01*
X139161786Y-118412461D01*
X139180091Y-118250000D01*
X139179362Y-118243532D01*
X139161787Y-118087544D01*
X139161786Y-118087542D01*
X139161786Y-118087539D01*
X139107789Y-117933225D01*
X139020808Y-117794796D01*
X138905204Y-117679192D01*
X138766774Y-117592210D01*
X138612455Y-117538212D01*
X138450004Y-117519909D01*
X138449996Y-117519909D01*
X138287544Y-117538212D01*
X138133225Y-117592210D01*
X137994795Y-117679192D01*
X137879192Y-117794795D01*
X137792210Y-117933225D01*
X137785090Y-117953573D01*
X137744367Y-118010348D01*
X137679414Y-118036094D01*
X137610852Y-118022637D01*
X137560450Y-117974248D01*
X137548276Y-117944713D01*
X137524214Y-117854913D01*
X137385214Y-117492806D01*
X137209125Y-117147211D01*
X136997876Y-116821916D01*
X136753781Y-116520484D01*
X136479516Y-116246219D01*
X136178084Y-116002124D01*
X136178082Y-116002122D01*
X135852793Y-115790877D01*
X135507197Y-115614787D01*
X135145094Y-115475788D01*
X135145087Y-115475786D01*
X134770433Y-115375398D01*
X134770429Y-115375397D01*
X134770428Y-115375397D01*
X134387339Y-115314722D01*
X134000001Y-115294422D01*
X133999999Y-115294422D01*
X133612660Y-115314722D01*
X133229572Y-115375397D01*
X133229570Y-115375397D01*
X132854905Y-115475788D01*
X132492802Y-115614787D01*
X132147206Y-115790877D01*
X131821917Y-116002122D01*
X131520488Y-116246215D01*
X131520480Y-116246222D01*
X131246222Y-116520480D01*
X131246215Y-116520488D01*
X131002122Y-116821917D01*
X130790877Y-117147206D01*
X130734985Y-117256901D01*
X130687010Y-117307697D01*
X130619189Y-117324492D01*
X130553054Y-117301955D01*
X130509603Y-117247240D01*
X130500500Y-117200606D01*
X130500500Y-114799996D01*
X147269909Y-114799996D01*
X147269909Y-114800003D01*
X147288212Y-114962455D01*
X147342210Y-115116774D01*
X147376162Y-115170808D01*
X147429192Y-115255204D01*
X147544796Y-115370808D01*
X147683225Y-115457789D01*
X147837539Y-115511786D01*
X147837542Y-115511786D01*
X147837544Y-115511787D01*
X147999996Y-115530091D01*
X148000000Y-115530091D01*
X148000004Y-115530091D01*
X148162455Y-115511787D01*
X148162456Y-115511786D01*
X148162461Y-115511786D01*
X148316775Y-115457789D01*
X148455204Y-115370808D01*
X148570808Y-115255204D01*
X148657789Y-115116775D01*
X148711786Y-114962461D01*
X148721841Y-114873225D01*
X148730091Y-114800003D01*
X148730091Y-114799996D01*
X148711787Y-114637544D01*
X148711786Y-114637542D01*
X148711786Y-114637539D01*
X148657789Y-114483225D01*
X148570808Y-114344796D01*
X148476008Y-114249996D01*
X153569909Y-114249996D01*
X153569909Y-114250003D01*
X153588212Y-114412455D01*
X153642210Y-114566774D01*
X153675147Y-114619192D01*
X153729192Y-114705204D01*
X153844796Y-114820808D01*
X153983225Y-114907789D01*
X154137539Y-114961786D01*
X154137542Y-114961786D01*
X154137544Y-114961787D01*
X154299996Y-114980091D01*
X154300000Y-114980091D01*
X154300004Y-114980091D01*
X154462455Y-114961787D01*
X154462456Y-114961786D01*
X154462461Y-114961786D01*
X154616775Y-114907789D01*
X154755204Y-114820808D01*
X154870808Y-114705204D01*
X154957789Y-114566775D01*
X155011786Y-114412461D01*
X155019410Y-114344795D01*
X155030091Y-114250003D01*
X155030091Y-114249996D01*
X155011787Y-114087544D01*
X155011786Y-114087542D01*
X155011786Y-114087539D01*
X154957789Y-113933225D01*
X154870808Y-113794796D01*
X154755204Y-113679192D01*
X154616774Y-113592210D01*
X154496132Y-113549996D01*
X159369909Y-113549996D01*
X159369909Y-113550003D01*
X159388212Y-113712455D01*
X159442210Y-113866774D01*
X159529192Y-114005204D01*
X159543840Y-114019852D01*
X159577325Y-114081175D01*
X159572341Y-114150867D01*
X159561153Y-114173505D01*
X159492210Y-114283225D01*
X159438212Y-114437544D01*
X159419909Y-114599996D01*
X159419909Y-114600003D01*
X159438212Y-114762455D01*
X159492210Y-114916774D01*
X159531995Y-114980091D01*
X159579192Y-115055204D01*
X159694796Y-115170808D01*
X159833225Y-115257789D01*
X159987539Y-115311786D01*
X159987542Y-115311786D01*
X159987544Y-115311787D01*
X160085108Y-115322780D01*
X160149522Y-115349846D01*
X160152218Y-115353771D01*
X160193840Y-115327023D01*
X160214892Y-115322780D01*
X160312455Y-115311787D01*
X160312456Y-115311786D01*
X160312461Y-115311786D01*
X160466775Y-115257789D01*
X160605204Y-115170808D01*
X160720808Y-115055204D01*
X160807789Y-114916775D01*
X160861786Y-114762461D01*
X160864903Y-114734796D01*
X160880091Y-114600003D01*
X160880091Y-114599996D01*
X160861787Y-114437544D01*
X160861786Y-114437542D01*
X160861786Y-114437539D01*
X160807789Y-114283225D01*
X160720808Y-114144796D01*
X160706159Y-114130147D01*
X160672674Y-114068824D01*
X160677658Y-113999132D01*
X160688841Y-113976503D01*
X160757789Y-113866775D01*
X160811786Y-113712461D01*
X160830091Y-113550000D01*
X160811786Y-113387539D01*
X160757789Y-113233225D01*
X160670808Y-113094796D01*
X160555204Y-112979192D01*
X160416774Y-112892210D01*
X160262455Y-112838212D01*
X160100004Y-112819909D01*
X160099996Y-112819909D01*
X159937544Y-112838212D01*
X159783225Y-112892210D01*
X159644795Y-112979192D01*
X159529192Y-113094795D01*
X159442210Y-113233225D01*
X159388212Y-113387544D01*
X159369909Y-113549996D01*
X154496132Y-113549996D01*
X154462455Y-113538212D01*
X154300004Y-113519909D01*
X154299996Y-113519909D01*
X154137544Y-113538212D01*
X153983225Y-113592210D01*
X153844795Y-113679192D01*
X153729192Y-113794795D01*
X153642210Y-113933225D01*
X153588212Y-114087544D01*
X153569909Y-114249996D01*
X148476008Y-114249996D01*
X148455204Y-114229192D01*
X148330551Y-114150867D01*
X148316774Y-114142210D01*
X148162455Y-114088212D01*
X148000004Y-114069909D01*
X147999996Y-114069909D01*
X147837544Y-114088212D01*
X147683225Y-114142210D01*
X147544795Y-114229192D01*
X147429192Y-114344795D01*
X147342210Y-114483225D01*
X147288212Y-114637544D01*
X147269909Y-114799996D01*
X130500500Y-114799996D01*
X130500500Y-106883713D01*
X131014500Y-106883713D01*
X131014500Y-107096287D01*
X131021457Y-107140213D01*
X131042126Y-107270714D01*
X131047754Y-107306243D01*
X131111509Y-107502461D01*
X131113444Y-107508414D01*
X131209951Y-107697820D01*
X131334890Y-107869786D01*
X131485209Y-108020105D01*
X131485214Y-108020109D01*
X131649793Y-108139682D01*
X131692459Y-108195011D01*
X131698438Y-108264625D01*
X131665833Y-108326420D01*
X131649793Y-108340318D01*
X131485214Y-108459890D01*
X131485209Y-108459894D01*
X131334890Y-108610213D01*
X131209951Y-108782179D01*
X131113444Y-108971585D01*
X131113443Y-108971587D01*
X131113443Y-108971588D01*
X131092773Y-109035202D01*
X131047753Y-109173760D01*
X131014500Y-109383713D01*
X131014500Y-109596286D01*
X131041570Y-109767203D01*
X131047754Y-109806243D01*
X131087965Y-109930000D01*
X131113444Y-110008414D01*
X131209951Y-110197820D01*
X131334890Y-110369786D01*
X131485209Y-110520105D01*
X131485214Y-110520109D01*
X131649793Y-110639682D01*
X131692459Y-110695011D01*
X131698438Y-110764625D01*
X131665833Y-110826420D01*
X131649793Y-110840318D01*
X131485214Y-110959890D01*
X131485209Y-110959894D01*
X131334890Y-111110213D01*
X131209951Y-111282179D01*
X131113444Y-111471585D01*
X131047753Y-111673760D01*
X131027759Y-111800000D01*
X131014500Y-111883713D01*
X131014500Y-112096287D01*
X131023832Y-112155204D01*
X131042141Y-112270808D01*
X131047754Y-112306243D01*
X131068732Y-112370807D01*
X131113444Y-112508414D01*
X131209951Y-112697820D01*
X131334890Y-112869786D01*
X131485213Y-113020109D01*
X131657179Y-113145048D01*
X131657181Y-113145049D01*
X131657184Y-113145051D01*
X131846588Y-113241557D01*
X132048757Y-113307246D01*
X132258713Y-113340500D01*
X132258714Y-113340500D01*
X132721286Y-113340500D01*
X132721287Y-113340500D01*
X132931243Y-113307246D01*
X133133412Y-113241557D01*
X133322816Y-113145051D01*
X133391988Y-113094795D01*
X133494786Y-113020109D01*
X133494788Y-113020106D01*
X133494792Y-113020104D01*
X133645104Y-112869792D01*
X133645106Y-112869788D01*
X133645109Y-112869786D01*
X133770048Y-112697820D01*
X133770047Y-112697820D01*
X133770051Y-112697816D01*
X133866557Y-112508412D01*
X133932246Y-112306243D01*
X133965500Y-112096287D01*
X133965500Y-111883713D01*
X133932246Y-111673757D01*
X133866557Y-111471588D01*
X133770051Y-111282184D01*
X133770049Y-111282181D01*
X133770048Y-111282179D01*
X133645109Y-111110213D01*
X133494792Y-110959896D01*
X133467402Y-110939996D01*
X140109909Y-110939996D01*
X140109909Y-110940003D01*
X140128212Y-111102455D01*
X140182210Y-111256774D01*
X140261665Y-111383225D01*
X140269192Y-111395204D01*
X140384796Y-111510808D01*
X140523225Y-111597789D01*
X140677539Y-111651786D01*
X140677542Y-111651786D01*
X140677544Y-111651787D01*
X140839996Y-111670091D01*
X140840000Y-111670091D01*
X140840004Y-111670091D01*
X141002455Y-111651787D01*
X141002456Y-111651786D01*
X141002461Y-111651786D01*
X141156775Y-111597789D01*
X141295204Y-111510808D01*
X141336016Y-111469996D01*
X157569909Y-111469996D01*
X157569909Y-111470003D01*
X157588212Y-111632455D01*
X157642210Y-111786774D01*
X157688220Y-111859998D01*
X157729192Y-111925204D01*
X157844796Y-112040808D01*
X157983225Y-112127789D01*
X158137539Y-112181786D01*
X158137542Y-112181786D01*
X158137544Y-112181787D01*
X158299996Y-112200091D01*
X158300000Y-112200091D01*
X158300004Y-112200091D01*
X158462455Y-112181787D01*
X158462456Y-112181786D01*
X158462461Y-112181786D01*
X158616775Y-112127789D01*
X158755204Y-112040808D01*
X158870808Y-111925204D01*
X158949482Y-111799996D01*
X160049909Y-111799996D01*
X160049909Y-111800003D01*
X160068212Y-111962455D01*
X160122210Y-112116774D01*
X160163060Y-112181786D01*
X160209192Y-112255204D01*
X160324796Y-112370808D01*
X160463225Y-112457789D01*
X160617539Y-112511786D01*
X160617542Y-112511786D01*
X160617544Y-112511787D01*
X160779996Y-112530091D01*
X160780000Y-112530091D01*
X160780004Y-112530091D01*
X160942455Y-112511787D01*
X160942456Y-112511786D01*
X160942461Y-112511786D01*
X161096775Y-112457789D01*
X161235204Y-112370808D01*
X161350808Y-112255204D01*
X161437789Y-112116775D01*
X161491786Y-111962461D01*
X161502148Y-111870498D01*
X161510091Y-111800003D01*
X161510091Y-111799996D01*
X161491787Y-111637544D01*
X161491786Y-111637542D01*
X161491786Y-111637539D01*
X161437789Y-111483225D01*
X161350808Y-111344796D01*
X161235204Y-111229192D01*
X161096774Y-111142210D01*
X160942455Y-111088212D01*
X160780004Y-111069909D01*
X160779996Y-111069909D01*
X160617544Y-111088212D01*
X160463225Y-111142210D01*
X160324795Y-111229192D01*
X160209192Y-111344795D01*
X160122210Y-111483225D01*
X160068212Y-111637544D01*
X160049909Y-111799996D01*
X158949482Y-111799996D01*
X158957789Y-111786775D01*
X159011786Y-111632461D01*
X159029912Y-111471588D01*
X159030091Y-111470003D01*
X159030091Y-111469996D01*
X159011787Y-111307544D01*
X159011786Y-111307542D01*
X159011786Y-111307539D01*
X158957789Y-111153225D01*
X158870808Y-111014796D01*
X158755204Y-110899192D01*
X158616774Y-110812210D01*
X158482939Y-110765379D01*
X158462461Y-110758214D01*
X158462460Y-110758213D01*
X158462455Y-110758212D01*
X158300004Y-110739909D01*
X158299996Y-110739909D01*
X158137544Y-110758212D01*
X157983225Y-110812210D01*
X157844795Y-110899192D01*
X157729192Y-111014795D01*
X157642210Y-111153225D01*
X157588212Y-111307544D01*
X157569909Y-111469996D01*
X141336016Y-111469996D01*
X141410808Y-111395204D01*
X141497789Y-111256775D01*
X141551786Y-111102461D01*
X141551787Y-111102455D01*
X141570091Y-110940003D01*
X141570091Y-110939996D01*
X141551787Y-110777544D01*
X141551786Y-110777542D01*
X141551786Y-110777539D01*
X141497789Y-110623225D01*
X141410808Y-110484796D01*
X141295204Y-110369192D01*
X141269793Y-110353225D01*
X141156774Y-110282210D01*
X141002455Y-110228212D01*
X140840004Y-110209909D01*
X140839996Y-110209909D01*
X140677544Y-110228212D01*
X140523225Y-110282210D01*
X140384795Y-110369192D01*
X140269192Y-110484795D01*
X140182210Y-110623225D01*
X140128212Y-110777544D01*
X140109909Y-110939996D01*
X133467402Y-110939996D01*
X133330204Y-110840316D01*
X133287540Y-110784989D01*
X133281561Y-110715376D01*
X133314166Y-110653580D01*
X133330199Y-110639686D01*
X133494792Y-110520104D01*
X133645104Y-110369792D01*
X133645106Y-110369788D01*
X133645109Y-110369786D01*
X133765384Y-110204239D01*
X133770051Y-110197816D01*
X133866557Y-110008412D01*
X133932246Y-109806243D01*
X133965500Y-109596287D01*
X133965500Y-109383713D01*
X133952240Y-109299996D01*
X143719909Y-109299996D01*
X143719909Y-109300003D01*
X143738212Y-109462455D01*
X143792210Y-109616774D01*
X143879192Y-109755204D01*
X143994796Y-109870808D01*
X144133225Y-109957789D01*
X144287539Y-110011786D01*
X144287542Y-110011786D01*
X144287544Y-110011787D01*
X144449996Y-110030091D01*
X144450000Y-110030091D01*
X144450004Y-110030091D01*
X144612455Y-110011787D01*
X144612456Y-110011786D01*
X144612461Y-110011786D01*
X144766775Y-109957789D01*
X144905204Y-109870808D01*
X145020808Y-109755204D01*
X145107789Y-109616775D01*
X145161786Y-109462461D01*
X145163039Y-109451342D01*
X145180091Y-109300003D01*
X145180091Y-109299996D01*
X145163074Y-109148963D01*
X145175129Y-109080141D01*
X145198612Y-109047398D01*
X145210808Y-109035204D01*
X145295765Y-108899996D01*
X149469909Y-108899996D01*
X149469909Y-108900003D01*
X149488212Y-109062455D01*
X149542210Y-109216774D01*
X149571934Y-109264079D01*
X149629192Y-109355204D01*
X149744796Y-109470808D01*
X149883225Y-109557789D01*
X150037539Y-109611786D01*
X150037542Y-109611786D01*
X150037544Y-109611787D01*
X150199996Y-109630091D01*
X150200000Y-109630091D01*
X150200004Y-109630091D01*
X150362455Y-109611787D01*
X150362456Y-109611786D01*
X150362461Y-109611786D01*
X150516775Y-109557789D01*
X150655204Y-109470808D01*
X150770808Y-109355204D01*
X150857789Y-109216775D01*
X150911786Y-109062461D01*
X150911787Y-109062455D01*
X150930091Y-108900003D01*
X150930091Y-108899996D01*
X150911787Y-108737544D01*
X150911786Y-108737542D01*
X150911786Y-108737539D01*
X150857789Y-108583225D01*
X150770808Y-108444796D01*
X150655204Y-108329192D01*
X150561394Y-108270247D01*
X150516774Y-108242210D01*
X150362455Y-108188212D01*
X150200004Y-108169909D01*
X150199996Y-108169909D01*
X150037544Y-108188212D01*
X149883225Y-108242210D01*
X149744795Y-108329192D01*
X149629192Y-108444795D01*
X149542210Y-108583225D01*
X149488212Y-108737544D01*
X149469909Y-108899996D01*
X145295765Y-108899996D01*
X145297789Y-108896775D01*
X145351786Y-108742461D01*
X145352341Y-108737539D01*
X145370091Y-108580003D01*
X145370091Y-108579996D01*
X145351787Y-108417542D01*
X145324490Y-108339533D01*
X145320928Y-108269754D01*
X145324486Y-108257633D01*
X145371786Y-108122461D01*
X145371786Y-108122459D01*
X145371787Y-108122457D01*
X145390091Y-107960003D01*
X145390091Y-107959996D01*
X145371787Y-107797542D01*
X145347488Y-107728100D01*
X145319489Y-107648086D01*
X145315928Y-107578308D01*
X145319484Y-107566193D01*
X145341786Y-107502461D01*
X145341787Y-107502455D01*
X145360091Y-107340003D01*
X145360091Y-107339996D01*
X145342063Y-107179996D01*
X150289909Y-107179996D01*
X150289909Y-107180003D01*
X150308212Y-107342455D01*
X150362210Y-107496774D01*
X150430947Y-107606167D01*
X150449192Y-107635204D01*
X150564796Y-107750808D01*
X150703225Y-107837789D01*
X150857539Y-107891786D01*
X150857542Y-107891786D01*
X150857544Y-107891787D01*
X151019996Y-107910091D01*
X151020000Y-107910091D01*
X151020004Y-107910091D01*
X151182455Y-107891787D01*
X151182456Y-107891786D01*
X151182461Y-107891786D01*
X151336775Y-107837789D01*
X151475204Y-107750808D01*
X151590808Y-107635204D01*
X151677789Y-107496775D01*
X151731786Y-107342461D01*
X151732063Y-107340003D01*
X151750091Y-107180003D01*
X151750091Y-107179996D01*
X151731787Y-107017544D01*
X151731786Y-107017542D01*
X151731786Y-107017539D01*
X151677789Y-106863225D01*
X151590808Y-106724796D01*
X151475204Y-106609192D01*
X151457733Y-106598214D01*
X151336774Y-106522210D01*
X151182455Y-106468212D01*
X151020004Y-106449909D01*
X151019996Y-106449909D01*
X150857544Y-106468212D01*
X150703225Y-106522210D01*
X150564795Y-106609192D01*
X150449192Y-106724795D01*
X150362210Y-106863225D01*
X150308212Y-107017544D01*
X150289909Y-107179996D01*
X145342063Y-107179996D01*
X145341787Y-107177544D01*
X145341786Y-107177540D01*
X145341786Y-107177539D01*
X145308858Y-107083438D01*
X145305296Y-107013664D01*
X145308852Y-107001554D01*
X145336750Y-106921828D01*
X145337765Y-106912819D01*
X145355055Y-106759370D01*
X145355055Y-106759363D01*
X145336751Y-106596911D01*
X145336750Y-106596909D01*
X145336750Y-106596906D01*
X145313831Y-106531410D01*
X145310269Y-106461635D01*
X145313828Y-106449516D01*
X145361786Y-106312461D01*
X145361786Y-106312459D01*
X145361787Y-106312457D01*
X145380091Y-106150003D01*
X145380091Y-106149996D01*
X145361787Y-105987544D01*
X145361786Y-105987542D01*
X145361786Y-105987539D01*
X145307789Y-105833225D01*
X145220808Y-105694796D01*
X145105204Y-105579192D01*
X145072026Y-105558345D01*
X144966774Y-105492210D01*
X144812455Y-105438212D01*
X144650004Y-105419909D01*
X144649996Y-105419909D01*
X144487544Y-105438212D01*
X144333225Y-105492210D01*
X144194795Y-105579192D01*
X144079192Y-105694795D01*
X143992210Y-105833225D01*
X143938212Y-105987544D01*
X143919909Y-106149996D01*
X143919909Y-106150003D01*
X143938212Y-106312455D01*
X143938214Y-106312463D01*
X143961131Y-106377956D01*
X143964692Y-106447735D01*
X143961131Y-106459864D01*
X143913176Y-106596911D01*
X143894873Y-106759363D01*
X143894873Y-106759370D01*
X143913177Y-106921825D01*
X143946103Y-107015925D01*
X143949664Y-107085704D01*
X143946103Y-107097832D01*
X143918213Y-107177539D01*
X143918213Y-107177540D01*
X143899909Y-107339996D01*
X143899909Y-107340003D01*
X143918212Y-107502455D01*
X143970509Y-107651912D01*
X143974070Y-107721691D01*
X143970509Y-107733819D01*
X143948213Y-107797539D01*
X143948213Y-107797540D01*
X143929909Y-107959996D01*
X143929909Y-107960003D01*
X143948213Y-108122458D01*
X143975509Y-108200468D01*
X143979070Y-108270247D01*
X143975509Y-108282376D01*
X143928212Y-108417544D01*
X143909909Y-108579996D01*
X143909909Y-108580003D01*
X143926926Y-108731035D01*
X143914872Y-108799856D01*
X143891390Y-108832597D01*
X143879193Y-108844794D01*
X143792210Y-108983225D01*
X143738212Y-109137544D01*
X143719909Y-109299996D01*
X133952240Y-109299996D01*
X133932246Y-109173757D01*
X133866557Y-108971588D01*
X133770051Y-108782184D01*
X133770049Y-108782181D01*
X133770048Y-108782179D01*
X133645109Y-108610213D01*
X133494792Y-108459896D01*
X133436492Y-108417539D01*
X133330204Y-108340316D01*
X133287540Y-108284989D01*
X133281561Y-108215376D01*
X133314166Y-108153580D01*
X133330199Y-108139686D01*
X133494792Y-108020104D01*
X133645104Y-107869792D01*
X133645106Y-107869788D01*
X133645109Y-107869786D01*
X133770048Y-107697820D01*
X133770047Y-107697820D01*
X133770051Y-107697816D01*
X133866557Y-107508412D01*
X133932246Y-107306243D01*
X133965500Y-107096287D01*
X133965500Y-106883713D01*
X133932246Y-106673757D01*
X133866557Y-106471588D01*
X133770051Y-106282184D01*
X133770049Y-106282181D01*
X133770048Y-106282179D01*
X133645109Y-106110213D01*
X133505931Y-105971035D01*
X133472446Y-105909712D01*
X133477430Y-105840020D01*
X133519302Y-105784087D01*
X133528516Y-105777815D01*
X133683343Y-105682317D01*
X133807315Y-105558345D01*
X133899356Y-105409124D01*
X133899358Y-105409119D01*
X133954505Y-105242697D01*
X133954506Y-105242690D01*
X133964999Y-105139986D01*
X133965000Y-105139973D01*
X133965000Y-105099996D01*
X154269909Y-105099996D01*
X154269909Y-105100003D01*
X154288212Y-105262455D01*
X154342210Y-105416774D01*
X154429192Y-105555204D01*
X154544795Y-105670807D01*
X154544798Y-105670809D01*
X154583307Y-105695007D01*
X154629598Y-105747342D01*
X154640245Y-105816396D01*
X154611869Y-105880244D01*
X154583307Y-105904993D01*
X154544798Y-105929190D01*
X154544795Y-105929192D01*
X154429192Y-106044795D01*
X154342210Y-106183225D01*
X154288212Y-106337544D01*
X154269909Y-106499996D01*
X154269909Y-106500003D01*
X154288212Y-106662455D01*
X154342210Y-106816774D01*
X154429192Y-106955204D01*
X154544795Y-107070807D01*
X154544798Y-107070809D01*
X154583307Y-107095007D01*
X154629598Y-107147342D01*
X154640245Y-107216396D01*
X154611869Y-107280244D01*
X154583307Y-107304993D01*
X154544798Y-107329190D01*
X154544795Y-107329192D01*
X154429192Y-107444795D01*
X154342210Y-107583225D01*
X154288212Y-107737544D01*
X154269909Y-107899996D01*
X154269909Y-107900003D01*
X154288212Y-108062455D01*
X154342210Y-108216774D01*
X154413486Y-108330208D01*
X154429192Y-108355204D01*
X154544796Y-108470808D01*
X154683225Y-108557789D01*
X154837539Y-108611786D01*
X154837542Y-108611786D01*
X154837544Y-108611787D01*
X154999996Y-108630091D01*
X155000000Y-108630091D01*
X155000004Y-108630091D01*
X155162455Y-108611787D01*
X155162456Y-108611786D01*
X155162461Y-108611786D01*
X155316775Y-108557789D01*
X155455204Y-108470808D01*
X155562319Y-108363693D01*
X155623642Y-108330208D01*
X155693334Y-108335192D01*
X155737681Y-108363693D01*
X155844796Y-108470808D01*
X155983225Y-108557789D01*
X156137539Y-108611786D01*
X156137542Y-108611786D01*
X156137544Y-108611787D01*
X156299996Y-108630091D01*
X156300000Y-108630091D01*
X156300004Y-108630091D01*
X156462455Y-108611787D01*
X156462456Y-108611786D01*
X156462461Y-108611786D01*
X156616775Y-108557789D01*
X156755204Y-108470808D01*
X156870808Y-108355204D01*
X156945006Y-108237119D01*
X156997341Y-108190828D01*
X157066395Y-108180180D01*
X157130243Y-108208555D01*
X157154994Y-108237119D01*
X157229192Y-108355204D01*
X157344796Y-108470808D01*
X157483225Y-108557789D01*
X157637539Y-108611786D01*
X157637542Y-108611786D01*
X157637544Y-108611787D01*
X157799996Y-108630091D01*
X157800000Y-108630091D01*
X157800004Y-108630091D01*
X157962455Y-108611787D01*
X157962456Y-108611786D01*
X157962461Y-108611786D01*
X158116775Y-108557789D01*
X158255204Y-108470808D01*
X158370808Y-108355204D01*
X158457789Y-108216775D01*
X158511786Y-108062461D01*
X158511787Y-108062455D01*
X158530091Y-107900003D01*
X158530091Y-107899996D01*
X158511787Y-107737544D01*
X158511786Y-107737542D01*
X158511786Y-107737539D01*
X158457789Y-107583225D01*
X158370808Y-107444796D01*
X158255204Y-107329192D01*
X158216692Y-107304993D01*
X158170402Y-107252659D01*
X158159754Y-107183605D01*
X158188129Y-107119757D01*
X158216693Y-107095006D01*
X158255204Y-107070808D01*
X158370808Y-106955204D01*
X158457789Y-106816775D01*
X158511786Y-106662461D01*
X158519172Y-106596911D01*
X158522765Y-106565019D01*
X160314932Y-106565019D01*
X160314932Y-106565026D01*
X160333235Y-106727478D01*
X160387233Y-106881797D01*
X160418767Y-106931983D01*
X160474215Y-107020227D01*
X160589819Y-107135831D01*
X160728248Y-107222812D01*
X160882562Y-107276809D01*
X160882565Y-107276809D01*
X160882567Y-107276810D01*
X161045019Y-107295114D01*
X161045023Y-107295114D01*
X161045027Y-107295114D01*
X161207478Y-107276810D01*
X161207479Y-107276809D01*
X161207484Y-107276809D01*
X161361798Y-107222812D01*
X161500227Y-107135831D01*
X161615831Y-107020227D01*
X161702812Y-106881798D01*
X161756809Y-106727484D01*
X161757112Y-106724795D01*
X161775114Y-106565026D01*
X161775114Y-106565019D01*
X161756810Y-106402567D01*
X161756809Y-106402565D01*
X161756809Y-106402562D01*
X161702812Y-106248248D01*
X161615831Y-106109819D01*
X161500227Y-105994215D01*
X161474085Y-105977789D01*
X161361797Y-105907233D01*
X161207478Y-105853235D01*
X161045027Y-105834932D01*
X161045019Y-105834932D01*
X160882567Y-105853235D01*
X160728248Y-105907233D01*
X160589818Y-105994215D01*
X160474215Y-106109818D01*
X160387233Y-106248248D01*
X160333235Y-106402567D01*
X160314932Y-106565019D01*
X158522765Y-106565019D01*
X158530091Y-106500003D01*
X158530091Y-106499996D01*
X158511787Y-106337544D01*
X158511786Y-106337542D01*
X158511786Y-106337539D01*
X158457789Y-106183225D01*
X158370808Y-106044796D01*
X158255204Y-105929192D01*
X158216692Y-105904993D01*
X158170402Y-105852659D01*
X158159754Y-105783605D01*
X158188129Y-105719757D01*
X158216693Y-105695006D01*
X158217029Y-105694795D01*
X158255204Y-105670808D01*
X158370808Y-105555204D01*
X158457789Y-105416775D01*
X158511786Y-105262461D01*
X158511787Y-105262455D01*
X158530091Y-105100003D01*
X158530091Y-105099996D01*
X158511787Y-104937544D01*
X158511786Y-104937542D01*
X158511786Y-104937539D01*
X158457789Y-104783225D01*
X158370808Y-104644796D01*
X158255204Y-104529192D01*
X158192662Y-104489894D01*
X158116774Y-104442210D01*
X157962455Y-104388212D01*
X157800004Y-104369909D01*
X157799996Y-104369909D01*
X157637544Y-104388212D01*
X157483225Y-104442210D01*
X157344795Y-104529192D01*
X157229192Y-104644795D01*
X157229190Y-104644798D01*
X157204993Y-104683307D01*
X157152658Y-104729598D01*
X157083604Y-104740245D01*
X157019756Y-104711869D01*
X156995007Y-104683307D01*
X156970809Y-104644798D01*
X156970807Y-104644795D01*
X156855204Y-104529192D01*
X156716774Y-104442210D01*
X156562455Y-104388212D01*
X156400004Y-104369909D01*
X156399996Y-104369909D01*
X156237544Y-104388212D01*
X156083225Y-104442210D01*
X155944795Y-104529192D01*
X155829192Y-104644795D01*
X155829190Y-104644798D01*
X155804993Y-104683307D01*
X155752658Y-104729598D01*
X155683604Y-104740245D01*
X155619756Y-104711869D01*
X155595007Y-104683307D01*
X155570809Y-104644798D01*
X155570807Y-104644795D01*
X155455204Y-104529192D01*
X155316774Y-104442210D01*
X155162455Y-104388212D01*
X155000004Y-104369909D01*
X154999996Y-104369909D01*
X154837544Y-104388212D01*
X154683225Y-104442210D01*
X154544795Y-104529192D01*
X154429192Y-104644795D01*
X154342210Y-104783225D01*
X154288212Y-104937544D01*
X154269909Y-105099996D01*
X133965000Y-105099996D01*
X133965000Y-104740000D01*
X132894146Y-104740000D01*
X132932630Y-104673343D01*
X132965000Y-104552535D01*
X132965000Y-104427465D01*
X132932630Y-104306657D01*
X132894146Y-104240000D01*
X133964999Y-104240000D01*
X133964999Y-103840028D01*
X133964998Y-103840013D01*
X133954505Y-103737302D01*
X133899358Y-103570880D01*
X133899356Y-103570875D01*
X133807315Y-103421654D01*
X133683345Y-103297684D01*
X133534124Y-103205643D01*
X133534119Y-103205641D01*
X133367697Y-103150494D01*
X133367690Y-103150493D01*
X133264986Y-103140000D01*
X132740000Y-103140000D01*
X132740000Y-104085854D01*
X132673343Y-104047370D01*
X132552535Y-104015000D01*
X132427465Y-104015000D01*
X132306657Y-104047370D01*
X132240000Y-104085854D01*
X132240000Y-103140000D01*
X131715028Y-103140000D01*
X131715012Y-103140001D01*
X131612302Y-103150494D01*
X131445880Y-103205641D01*
X131445875Y-103205643D01*
X131296654Y-103297684D01*
X131172684Y-103421654D01*
X131080643Y-103570875D01*
X131080641Y-103570880D01*
X131025494Y-103737302D01*
X131025493Y-103737309D01*
X131015000Y-103840013D01*
X131015000Y-104240000D01*
X132085854Y-104240000D01*
X132047370Y-104306657D01*
X132015000Y-104427465D01*
X132015000Y-104552535D01*
X132047370Y-104673343D01*
X132085854Y-104740000D01*
X131015001Y-104740000D01*
X131015001Y-105139986D01*
X131025494Y-105242697D01*
X131080641Y-105409119D01*
X131080643Y-105409124D01*
X131172684Y-105558345D01*
X131296654Y-105682315D01*
X131451484Y-105777815D01*
X131498208Y-105829763D01*
X131509431Y-105898726D01*
X131481587Y-105962808D01*
X131474069Y-105971035D01*
X131334889Y-106110215D01*
X131209951Y-106282179D01*
X131113444Y-106471585D01*
X131047753Y-106673760D01*
X131020664Y-106844796D01*
X131014500Y-106883713D01*
X130500500Y-106883713D01*
X130500500Y-101549996D01*
X137579909Y-101549996D01*
X137579909Y-101550003D01*
X137598212Y-101712455D01*
X137652210Y-101866774D01*
X137708761Y-101956774D01*
X137739192Y-102005204D01*
X137854796Y-102120808D01*
X137993225Y-102207789D01*
X138095153Y-102243455D01*
X138151929Y-102284177D01*
X138177677Y-102349129D01*
X138164221Y-102417691D01*
X138115834Y-102468094D01*
X138095154Y-102477538D01*
X138053227Y-102492208D01*
X137914795Y-102579192D01*
X137799192Y-102694795D01*
X137712210Y-102833225D01*
X137658212Y-102987544D01*
X137639909Y-103149996D01*
X137639909Y-103150003D01*
X137658212Y-103312455D01*
X137712210Y-103466774D01*
X137777625Y-103570880D01*
X137799192Y-103605204D01*
X137914796Y-103720808D01*
X138053225Y-103807789D01*
X138207539Y-103861786D01*
X138207542Y-103861786D01*
X138207544Y-103861787D01*
X138369996Y-103880091D01*
X138370000Y-103880091D01*
X138370004Y-103880091D01*
X138532455Y-103861787D01*
X138532456Y-103861786D01*
X138532461Y-103861786D01*
X138686775Y-103807789D01*
X138699177Y-103799996D01*
X144619909Y-103799996D01*
X144619909Y-103800003D01*
X144638212Y-103962455D01*
X144692210Y-104116774D01*
X144743464Y-104198343D01*
X144779192Y-104255204D01*
X144894796Y-104370808D01*
X145033225Y-104457789D01*
X145187539Y-104511786D01*
X145187542Y-104511786D01*
X145187544Y-104511787D01*
X145349996Y-104530091D01*
X145350000Y-104530091D01*
X145350004Y-104530091D01*
X145512455Y-104511787D01*
X145512456Y-104511786D01*
X145512461Y-104511786D01*
X145666775Y-104457789D01*
X145805204Y-104370808D01*
X145920808Y-104255204D01*
X146007789Y-104116775D01*
X146061786Y-103962461D01*
X146071067Y-103880091D01*
X146080091Y-103800003D01*
X146080091Y-103799996D01*
X146061787Y-103637544D01*
X146061786Y-103637542D01*
X146061786Y-103637539D01*
X146007789Y-103483225D01*
X145920808Y-103344796D01*
X145805204Y-103229192D01*
X145698993Y-103162455D01*
X145666774Y-103142210D01*
X145512455Y-103088212D01*
X145350004Y-103069909D01*
X145349996Y-103069909D01*
X145187544Y-103088212D01*
X145033225Y-103142210D01*
X144894795Y-103229192D01*
X144779192Y-103344795D01*
X144692210Y-103483225D01*
X144638212Y-103637544D01*
X144619909Y-103799996D01*
X138699177Y-103799996D01*
X138825204Y-103720808D01*
X138940808Y-103605204D01*
X139027789Y-103466775D01*
X139081786Y-103312461D01*
X139083451Y-103297684D01*
X139100091Y-103150003D01*
X139100091Y-103149996D01*
X139083190Y-102999996D01*
X149269909Y-102999996D01*
X149269909Y-103000003D01*
X149288212Y-103162455D01*
X149342210Y-103316774D01*
X149359817Y-103344795D01*
X149429192Y-103455204D01*
X149544796Y-103570808D01*
X149683225Y-103657789D01*
X149837539Y-103711786D01*
X149837542Y-103711786D01*
X149837544Y-103711787D01*
X149999996Y-103730091D01*
X150000000Y-103730091D01*
X150000004Y-103730091D01*
X150162455Y-103711787D01*
X150162456Y-103711786D01*
X150162461Y-103711786D01*
X150316775Y-103657789D01*
X150455204Y-103570808D01*
X150570808Y-103455204D01*
X150657789Y-103316775D01*
X150711786Y-103162461D01*
X150711787Y-103162455D01*
X150730091Y-103000003D01*
X150730091Y-102999996D01*
X150711787Y-102837544D01*
X150711786Y-102837542D01*
X150711786Y-102837539D01*
X150657789Y-102683225D01*
X150570808Y-102544796D01*
X150455204Y-102429192D01*
X150361146Y-102370091D01*
X150316774Y-102342210D01*
X150182939Y-102295379D01*
X150162461Y-102288214D01*
X150162460Y-102288213D01*
X150162455Y-102288212D01*
X150000004Y-102269909D01*
X149999996Y-102269909D01*
X149837544Y-102288212D01*
X149683225Y-102342210D01*
X149544795Y-102429192D01*
X149429192Y-102544795D01*
X149342210Y-102683225D01*
X149288212Y-102837544D01*
X149269909Y-102999996D01*
X139083190Y-102999996D01*
X139081787Y-102987544D01*
X139081786Y-102987542D01*
X139081786Y-102987539D01*
X139027789Y-102833225D01*
X138940808Y-102694796D01*
X138825204Y-102579192D01*
X138766747Y-102542461D01*
X138686772Y-102492209D01*
X138584845Y-102456543D01*
X138528069Y-102415822D01*
X138502322Y-102350869D01*
X138515778Y-102282307D01*
X138564166Y-102231905D01*
X138584844Y-102222461D01*
X138626775Y-102207789D01*
X138765204Y-102120808D01*
X138880808Y-102005204D01*
X138967789Y-101866775D01*
X139021786Y-101712461D01*
X139026641Y-101669371D01*
X139029951Y-101639996D01*
X155669909Y-101639996D01*
X155669909Y-101640003D01*
X155688212Y-101802455D01*
X155742210Y-101956774D01*
X155763021Y-101989894D01*
X155829192Y-102095204D01*
X155944796Y-102210808D01*
X156083225Y-102297789D01*
X156237539Y-102351786D01*
X156237542Y-102351786D01*
X156237544Y-102351787D01*
X156399996Y-102370091D01*
X156400000Y-102370091D01*
X156400004Y-102370091D01*
X156562455Y-102351787D01*
X156562456Y-102351786D01*
X156562461Y-102351786D01*
X156716775Y-102297789D01*
X156729177Y-102289996D01*
X160679909Y-102289996D01*
X160679909Y-102290003D01*
X160698212Y-102452455D01*
X160752210Y-102606774D01*
X160752211Y-102606775D01*
X160839192Y-102745204D01*
X160954796Y-102860808D01*
X161093225Y-102947789D01*
X161247539Y-103001786D01*
X161247542Y-103001786D01*
X161247544Y-103001787D01*
X161409996Y-103020091D01*
X161410000Y-103020091D01*
X161410004Y-103020091D01*
X161572455Y-103001787D01*
X161572456Y-103001786D01*
X161572461Y-103001786D01*
X161726775Y-102947789D01*
X161865204Y-102860808D01*
X161980808Y-102745204D01*
X162067789Y-102606775D01*
X162121786Y-102452461D01*
X162121787Y-102452455D01*
X162140091Y-102290003D01*
X162140091Y-102289996D01*
X162121787Y-102127544D01*
X162121786Y-102127542D01*
X162121786Y-102127539D01*
X162067789Y-101973225D01*
X161980808Y-101834796D01*
X161865204Y-101719192D01*
X161786120Y-101669500D01*
X161726774Y-101632210D01*
X161572455Y-101578212D01*
X161410004Y-101559909D01*
X161409996Y-101559909D01*
X161247544Y-101578212D01*
X161093225Y-101632210D01*
X160954795Y-101719192D01*
X160839192Y-101834795D01*
X160752210Y-101973225D01*
X160698212Y-102127544D01*
X160679909Y-102289996D01*
X156729177Y-102289996D01*
X156855204Y-102210808D01*
X156970808Y-102095204D01*
X157057789Y-101956775D01*
X157111786Y-101802461D01*
X157118253Y-101745065D01*
X157130091Y-101640003D01*
X157130091Y-101639996D01*
X157111787Y-101477544D01*
X157111786Y-101477542D01*
X157111786Y-101477539D01*
X157057789Y-101323225D01*
X156970808Y-101184796D01*
X156970807Y-101184795D01*
X156969864Y-101183613D01*
X156969492Y-101182702D01*
X156967103Y-101178900D01*
X156967768Y-101178481D01*
X156943450Y-101118929D01*
X156956200Y-101050233D01*
X157004066Y-100999335D01*
X157052921Y-100983072D01*
X157197455Y-100966787D01*
X157197456Y-100966786D01*
X157197461Y-100966786D01*
X157351775Y-100912789D01*
X157490204Y-100825808D01*
X157605808Y-100710204D01*
X157692789Y-100571775D01*
X157746786Y-100417461D01*
X157754296Y-100350807D01*
X157765091Y-100255003D01*
X157765091Y-100254996D01*
X157746787Y-100092544D01*
X157746786Y-100092542D01*
X157746786Y-100092539D01*
X157692789Y-99938225D01*
X157605808Y-99799796D01*
X157490204Y-99684192D01*
X157351774Y-99597210D01*
X157197455Y-99543212D01*
X157035004Y-99524909D01*
X157034996Y-99524909D01*
X156872544Y-99543212D01*
X156718225Y-99597210D01*
X156579795Y-99684192D01*
X156464192Y-99799795D01*
X156377210Y-99938225D01*
X156323212Y-100092544D01*
X156304909Y-100254996D01*
X156304909Y-100255003D01*
X156323212Y-100417455D01*
X156377210Y-100571774D01*
X156458347Y-100700901D01*
X156464192Y-100710204D01*
X156464198Y-100710210D01*
X156465137Y-100711387D01*
X156465510Y-100712302D01*
X156467897Y-100716100D01*
X156467232Y-100716517D01*
X156491550Y-100776072D01*
X156478798Y-100844769D01*
X156430931Y-100895666D01*
X156382079Y-100911927D01*
X156237544Y-100928212D01*
X156083225Y-100982210D01*
X155944795Y-101069192D01*
X155829192Y-101184795D01*
X155742210Y-101323225D01*
X155688212Y-101477544D01*
X155669909Y-101639996D01*
X139029951Y-101639996D01*
X139040091Y-101550003D01*
X139040091Y-101549996D01*
X139021787Y-101387544D01*
X139021786Y-101387542D01*
X139021786Y-101387539D01*
X138967789Y-101233225D01*
X138880808Y-101094796D01*
X138765204Y-100979192D01*
X138738567Y-100962455D01*
X138626774Y-100892210D01*
X138472455Y-100838212D01*
X138310004Y-100819909D01*
X138309996Y-100819909D01*
X138147544Y-100838212D01*
X137993225Y-100892210D01*
X137854795Y-100979192D01*
X137739192Y-101094795D01*
X137652210Y-101233225D01*
X137598212Y-101387544D01*
X137579909Y-101549996D01*
X130500500Y-101549996D01*
X130500500Y-100799996D01*
X153169909Y-100799996D01*
X153169909Y-100800003D01*
X153188212Y-100962455D01*
X153188213Y-100962460D01*
X153188214Y-100962461D01*
X153195125Y-100982211D01*
X153242210Y-101116774D01*
X153311820Y-101227557D01*
X153329192Y-101255204D01*
X153444796Y-101370808D01*
X153583225Y-101457789D01*
X153737539Y-101511786D01*
X153737542Y-101511786D01*
X153737544Y-101511787D01*
X153899996Y-101530091D01*
X153900000Y-101530091D01*
X153900004Y-101530091D01*
X154062455Y-101511787D01*
X154062456Y-101511786D01*
X154062461Y-101511786D01*
X154216775Y-101457789D01*
X154355204Y-101370808D01*
X154470808Y-101255204D01*
X154557789Y-101116775D01*
X154611786Y-100962461D01*
X154617480Y-100911927D01*
X154630091Y-100800003D01*
X154630091Y-100799996D01*
X154611787Y-100637544D01*
X154611786Y-100637542D01*
X154611786Y-100637539D01*
X154557789Y-100483225D01*
X154470808Y-100344796D01*
X154355204Y-100229192D01*
X154314909Y-100203873D01*
X154216774Y-100142210D01*
X154062455Y-100088212D01*
X153900004Y-100069909D01*
X153899996Y-100069909D01*
X153737544Y-100088212D01*
X153583225Y-100142210D01*
X153444795Y-100229192D01*
X153329192Y-100344795D01*
X153242210Y-100483225D01*
X153188212Y-100637544D01*
X153169909Y-100799996D01*
X130500500Y-100799996D01*
X130500500Y-99779996D01*
X137579909Y-99779996D01*
X137579909Y-99780003D01*
X137598212Y-99942455D01*
X137652210Y-100096774D01*
X137652211Y-100096775D01*
X137739192Y-100235204D01*
X137854796Y-100350808D01*
X137993225Y-100437789D01*
X138147539Y-100491786D01*
X138147542Y-100491786D01*
X138147544Y-100491787D01*
X138309996Y-100510091D01*
X138310000Y-100510091D01*
X138310004Y-100510091D01*
X138472455Y-100491787D01*
X138472456Y-100491786D01*
X138472461Y-100491786D01*
X138626775Y-100437789D01*
X138765204Y-100350808D01*
X138880808Y-100235204D01*
X138967789Y-100096775D01*
X139021786Y-99942461D01*
X139021787Y-99942455D01*
X139026571Y-99899996D01*
X149919909Y-99899996D01*
X149919909Y-99900003D01*
X149938212Y-100062455D01*
X149992210Y-100216774D01*
X150067538Y-100336657D01*
X150079192Y-100355204D01*
X150194796Y-100470808D01*
X150333225Y-100557789D01*
X150487539Y-100611786D01*
X150487542Y-100611786D01*
X150487544Y-100611787D01*
X150649996Y-100630091D01*
X150650000Y-100630091D01*
X150650004Y-100630091D01*
X150812455Y-100611787D01*
X150812456Y-100611786D01*
X150812461Y-100611786D01*
X150966775Y-100557789D01*
X151105204Y-100470808D01*
X151220808Y-100355204D01*
X151307789Y-100216775D01*
X151361786Y-100062461D01*
X151361787Y-100062455D01*
X151380091Y-99900003D01*
X151380091Y-99899996D01*
X151361787Y-99737544D01*
X151361786Y-99737542D01*
X151361786Y-99737539D01*
X151307789Y-99583225D01*
X151220808Y-99444796D01*
X151105204Y-99329192D01*
X150994755Y-99259792D01*
X150966774Y-99242210D01*
X150812455Y-99188212D01*
X150650004Y-99169909D01*
X150649996Y-99169909D01*
X150487544Y-99188212D01*
X150333225Y-99242210D01*
X150194795Y-99329192D01*
X150079192Y-99444795D01*
X149992210Y-99583225D01*
X149938212Y-99737544D01*
X149919909Y-99899996D01*
X139026571Y-99899996D01*
X139040091Y-99780003D01*
X139040091Y-99779996D01*
X139021787Y-99617544D01*
X139021786Y-99617542D01*
X139021786Y-99617539D01*
X138967789Y-99463225D01*
X138880808Y-99324796D01*
X138765204Y-99209192D01*
X138643610Y-99132789D01*
X138626774Y-99122210D01*
X138472455Y-99068212D01*
X138310004Y-99049909D01*
X138309996Y-99049909D01*
X138147544Y-99068212D01*
X137993225Y-99122210D01*
X137854795Y-99209192D01*
X137739192Y-99324795D01*
X137652210Y-99463225D01*
X137598212Y-99617544D01*
X137579909Y-99779996D01*
X130500500Y-99779996D01*
X130500500Y-93273713D01*
X131054500Y-93273713D01*
X131054500Y-93486286D01*
X131079605Y-93644796D01*
X131087754Y-93696243D01*
X131116016Y-93783225D01*
X131153444Y-93898414D01*
X131249951Y-94087820D01*
X131374890Y-94259786D01*
X131525209Y-94410105D01*
X131525214Y-94410109D01*
X131689793Y-94529682D01*
X131732459Y-94585011D01*
X131738438Y-94654625D01*
X131705833Y-94716420D01*
X131689793Y-94730318D01*
X131525214Y-94849890D01*
X131525209Y-94849894D01*
X131374890Y-95000213D01*
X131249951Y-95172179D01*
X131153444Y-95361585D01*
X131087753Y-95563760D01*
X131054500Y-95773713D01*
X131054500Y-95986286D01*
X131087753Y-96196239D01*
X131153444Y-96398414D01*
X131249951Y-96587820D01*
X131374890Y-96759786D01*
X131525209Y-96910105D01*
X131525214Y-96910109D01*
X131689793Y-97029682D01*
X131732459Y-97085011D01*
X131738438Y-97154625D01*
X131705833Y-97216420D01*
X131689793Y-97230318D01*
X131525214Y-97349890D01*
X131525209Y-97349894D01*
X131374890Y-97500213D01*
X131249951Y-97672179D01*
X131153444Y-97861585D01*
X131087753Y-98063760D01*
X131059840Y-98240000D01*
X131054500Y-98273713D01*
X131054500Y-98486287D01*
X131087754Y-98696243D01*
X131118794Y-98791775D01*
X131153444Y-98898414D01*
X131249951Y-99087820D01*
X131374890Y-99259786D01*
X131525213Y-99410109D01*
X131697179Y-99535048D01*
X131697181Y-99535049D01*
X131697184Y-99535051D01*
X131886588Y-99631557D01*
X132088757Y-99697246D01*
X132298713Y-99730500D01*
X132298714Y-99730500D01*
X132761286Y-99730500D01*
X132761287Y-99730500D01*
X132971243Y-99697246D01*
X133173412Y-99631557D01*
X133362816Y-99535051D01*
X133424444Y-99490276D01*
X133534786Y-99410109D01*
X133534788Y-99410106D01*
X133534792Y-99410104D01*
X133685104Y-99259792D01*
X133685106Y-99259788D01*
X133685109Y-99259786D01*
X133810048Y-99087820D01*
X133810047Y-99087820D01*
X133810051Y-99087816D01*
X133906557Y-98898412D01*
X133972246Y-98696243D01*
X134005500Y-98486287D01*
X134005500Y-98273713D01*
X133972246Y-98063757D01*
X133906557Y-97861588D01*
X133810051Y-97672184D01*
X133810049Y-97672181D01*
X133810048Y-97672179D01*
X133685109Y-97500213D01*
X133534792Y-97349896D01*
X133534784Y-97349890D01*
X133370204Y-97230316D01*
X133327540Y-97174989D01*
X133321561Y-97105376D01*
X133354166Y-97043580D01*
X133370199Y-97029686D01*
X133534792Y-96910104D01*
X133544900Y-96899996D01*
X149969909Y-96899996D01*
X149969909Y-96900003D01*
X149988212Y-97062455D01*
X150042210Y-97216774D01*
X150102161Y-97312184D01*
X150129192Y-97355204D01*
X150244796Y-97470808D01*
X150383225Y-97557789D01*
X150537539Y-97611786D01*
X150537542Y-97611786D01*
X150537544Y-97611787D01*
X150699996Y-97630091D01*
X150700000Y-97630091D01*
X150700004Y-97630091D01*
X150862455Y-97611787D01*
X150862456Y-97611786D01*
X150862461Y-97611786D01*
X151016775Y-97557789D01*
X151155204Y-97470808D01*
X151270808Y-97355204D01*
X151357789Y-97216775D01*
X151411786Y-97062461D01*
X151411787Y-97062455D01*
X151430091Y-96900003D01*
X151430091Y-96899996D01*
X151411787Y-96737544D01*
X151411786Y-96737542D01*
X151411786Y-96737539D01*
X151357789Y-96583225D01*
X151270808Y-96444796D01*
X151155204Y-96329192D01*
X151016774Y-96242210D01*
X150862455Y-96188212D01*
X150700004Y-96169909D01*
X150699996Y-96169909D01*
X150537544Y-96188212D01*
X150383225Y-96242210D01*
X150244795Y-96329192D01*
X150129192Y-96444795D01*
X150042210Y-96583225D01*
X149988212Y-96737544D01*
X149969909Y-96899996D01*
X133544900Y-96899996D01*
X133685104Y-96759792D01*
X133685106Y-96759788D01*
X133685109Y-96759786D01*
X133810048Y-96587820D01*
X133810047Y-96587820D01*
X133810051Y-96587816D01*
X133906557Y-96398412D01*
X133972246Y-96196243D01*
X134005500Y-95986287D01*
X134005500Y-95773713D01*
X133972246Y-95563757D01*
X133906557Y-95361588D01*
X133895555Y-95339996D01*
X140349909Y-95339996D01*
X140349909Y-95340003D01*
X140368212Y-95502455D01*
X140422210Y-95656774D01*
X140422211Y-95656775D01*
X140509192Y-95795204D01*
X140624796Y-95910808D01*
X140763225Y-95997789D01*
X140917539Y-96051786D01*
X140917542Y-96051786D01*
X140917544Y-96051787D01*
X141079996Y-96070091D01*
X141080000Y-96070091D01*
X141080004Y-96070091D01*
X141242455Y-96051787D01*
X141242456Y-96051786D01*
X141242461Y-96051786D01*
X141396775Y-95997789D01*
X141535204Y-95910808D01*
X141650808Y-95795204D01*
X141737789Y-95656775D01*
X141791786Y-95502461D01*
X141791787Y-95502455D01*
X141810091Y-95340003D01*
X141810091Y-95339996D01*
X141791787Y-95177544D01*
X141791786Y-95177542D01*
X141791786Y-95177539D01*
X141737789Y-95023225D01*
X141650808Y-94884796D01*
X141535204Y-94769192D01*
X141473337Y-94730318D01*
X141396774Y-94682210D01*
X141242455Y-94628212D01*
X141080004Y-94609909D01*
X141079996Y-94609909D01*
X140917544Y-94628212D01*
X140763225Y-94682210D01*
X140624795Y-94769192D01*
X140509192Y-94884795D01*
X140422210Y-95023225D01*
X140368212Y-95177544D01*
X140349909Y-95339996D01*
X133895555Y-95339996D01*
X133810051Y-95172184D01*
X133810049Y-95172181D01*
X133810048Y-95172179D01*
X133685109Y-95000213D01*
X133534792Y-94849896D01*
X133534784Y-94849890D01*
X133370204Y-94730316D01*
X133327540Y-94674989D01*
X133321561Y-94605376D01*
X133354166Y-94543580D01*
X133370199Y-94529686D01*
X133534792Y-94410104D01*
X133685104Y-94259792D01*
X133685106Y-94259788D01*
X133685109Y-94259786D01*
X133810048Y-94087820D01*
X133810047Y-94087820D01*
X133810051Y-94087816D01*
X133854797Y-93999996D01*
X159269909Y-93999996D01*
X159269909Y-94000003D01*
X159288212Y-94162455D01*
X159342210Y-94316774D01*
X159342211Y-94316775D01*
X159429192Y-94455204D01*
X159544796Y-94570808D01*
X159683225Y-94657789D01*
X159837539Y-94711786D01*
X159837542Y-94711786D01*
X159837544Y-94711787D01*
X159999996Y-94730091D01*
X160000000Y-94730091D01*
X160000004Y-94730091D01*
X160162455Y-94711787D01*
X160162456Y-94711786D01*
X160162461Y-94711786D01*
X160316775Y-94657789D01*
X160455204Y-94570808D01*
X160570808Y-94455204D01*
X160657789Y-94316775D01*
X160711786Y-94162461D01*
X160711787Y-94162455D01*
X160730091Y-94000003D01*
X160730091Y-93999996D01*
X160711787Y-93837544D01*
X160711786Y-93837542D01*
X160711786Y-93837539D01*
X160657789Y-93683225D01*
X160570808Y-93544796D01*
X160455204Y-93429192D01*
X160316774Y-93342210D01*
X160162455Y-93288212D01*
X160000004Y-93269909D01*
X159999996Y-93269909D01*
X159837544Y-93288212D01*
X159683225Y-93342210D01*
X159544795Y-93429192D01*
X159429192Y-93544795D01*
X159342210Y-93683225D01*
X159288212Y-93837544D01*
X159269909Y-93999996D01*
X133854797Y-93999996D01*
X133906557Y-93898412D01*
X133972246Y-93696243D01*
X134005500Y-93486287D01*
X134005500Y-93273713D01*
X133972246Y-93063757D01*
X133906557Y-92861588D01*
X133810051Y-92672184D01*
X133810049Y-92672181D01*
X133810048Y-92672179D01*
X133714013Y-92539996D01*
X145009909Y-92539996D01*
X145009909Y-92540003D01*
X145028212Y-92702455D01*
X145082210Y-92856774D01*
X145088494Y-92866775D01*
X145169192Y-92995204D01*
X145284796Y-93110808D01*
X145423225Y-93197789D01*
X145577539Y-93251786D01*
X145577542Y-93251786D01*
X145577544Y-93251787D01*
X145739996Y-93270091D01*
X145740000Y-93270091D01*
X145740004Y-93270091D01*
X145902455Y-93251787D01*
X145902456Y-93251786D01*
X145902461Y-93251786D01*
X146056775Y-93197789D01*
X146195204Y-93110808D01*
X146310808Y-92995204D01*
X146397789Y-92856775D01*
X146451786Y-92702461D01*
X146451787Y-92702455D01*
X146468965Y-92549996D01*
X148639909Y-92549996D01*
X148639909Y-92550003D01*
X148658212Y-92712455D01*
X148712210Y-92866774D01*
X148712211Y-92866775D01*
X148799192Y-93005204D01*
X148914796Y-93120808D01*
X149053225Y-93207789D01*
X149207539Y-93261786D01*
X149207542Y-93261786D01*
X149207544Y-93261787D01*
X149369996Y-93280091D01*
X149370000Y-93280091D01*
X149370004Y-93280091D01*
X149532455Y-93261787D01*
X149532456Y-93261786D01*
X149532461Y-93261786D01*
X149686775Y-93207789D01*
X149825204Y-93120808D01*
X149940808Y-93005204D01*
X150027789Y-92866775D01*
X150081786Y-92712461D01*
X150082913Y-92702461D01*
X150100091Y-92550003D01*
X150100091Y-92549996D01*
X150081787Y-92387544D01*
X150081786Y-92387542D01*
X150081786Y-92387539D01*
X150027789Y-92233225D01*
X149940808Y-92094796D01*
X149825204Y-91979192D01*
X149798973Y-91962710D01*
X149686774Y-91892210D01*
X149532455Y-91838212D01*
X149370004Y-91819909D01*
X149369996Y-91819909D01*
X149207544Y-91838212D01*
X149053225Y-91892210D01*
X148914795Y-91979192D01*
X148799192Y-92094795D01*
X148712210Y-92233225D01*
X148658212Y-92387544D01*
X148639909Y-92549996D01*
X146468965Y-92549996D01*
X146470091Y-92540003D01*
X146470091Y-92539996D01*
X146451787Y-92377544D01*
X146451786Y-92377542D01*
X146451786Y-92377539D01*
X146397789Y-92223225D01*
X146310808Y-92084796D01*
X146195204Y-91969192D01*
X146072690Y-91892211D01*
X146056774Y-91882210D01*
X145902455Y-91828212D01*
X145740004Y-91809909D01*
X145739996Y-91809909D01*
X145577544Y-91828212D01*
X145423225Y-91882210D01*
X145284795Y-91969192D01*
X145169192Y-92084795D01*
X145082210Y-92223225D01*
X145028212Y-92377544D01*
X145009909Y-92539996D01*
X133714013Y-92539996D01*
X133685109Y-92500213D01*
X133545931Y-92361035D01*
X133512446Y-92299712D01*
X133517430Y-92230020D01*
X133559302Y-92174087D01*
X133568516Y-92167815D01*
X133723343Y-92072317D01*
X133847315Y-91948345D01*
X133939356Y-91799124D01*
X133939358Y-91799119D01*
X133994505Y-91632697D01*
X133994506Y-91632690D01*
X134004999Y-91529986D01*
X134005000Y-91529973D01*
X134005000Y-91399996D01*
X138219909Y-91399996D01*
X138219909Y-91400003D01*
X138238212Y-91562455D01*
X138292210Y-91716774D01*
X138319428Y-91760091D01*
X138379192Y-91855204D01*
X138494796Y-91970808D01*
X138633225Y-92057789D01*
X138787539Y-92111786D01*
X138787542Y-92111786D01*
X138787544Y-92111787D01*
X138949996Y-92130091D01*
X138950000Y-92130091D01*
X138950004Y-92130091D01*
X139112455Y-92111787D01*
X139112456Y-92111786D01*
X139112461Y-92111786D01*
X139266775Y-92057789D01*
X139405204Y-91970808D01*
X139520808Y-91855204D01*
X139607789Y-91716775D01*
X139661786Y-91562461D01*
X139666255Y-91522797D01*
X139680091Y-91400003D01*
X139680091Y-91399997D01*
X139666111Y-91275927D01*
X139678165Y-91207105D01*
X139701650Y-91174362D01*
X139746012Y-91130000D01*
X139820808Y-91055204D01*
X139907789Y-90916775D01*
X139961786Y-90762461D01*
X139961787Y-90762455D01*
X139980091Y-90600003D01*
X139980091Y-90599996D01*
X139961787Y-90437544D01*
X139961786Y-90437542D01*
X139961786Y-90437539D01*
X139907789Y-90283225D01*
X139820808Y-90144796D01*
X139705204Y-90029192D01*
X139599003Y-89962461D01*
X139566773Y-89942209D01*
X139519844Y-89925788D01*
X139463069Y-89885066D01*
X139437322Y-89820113D01*
X139450779Y-89751552D01*
X139499166Y-89701149D01*
X139519840Y-89691707D01*
X139587603Y-89667996D01*
X139616773Y-89657790D01*
X139616775Y-89657789D01*
X139755204Y-89570808D01*
X139870808Y-89455204D01*
X139957789Y-89316775D01*
X140011786Y-89162461D01*
X140011787Y-89162455D01*
X140030091Y-89000003D01*
X140030091Y-88999996D01*
X142419909Y-88999996D01*
X142419909Y-89000003D01*
X142438212Y-89162455D01*
X142492210Y-89316774D01*
X142560431Y-89425346D01*
X142579192Y-89455204D01*
X142694796Y-89570808D01*
X142833225Y-89657789D01*
X142987539Y-89711786D01*
X142987542Y-89711786D01*
X142987544Y-89711787D01*
X143149996Y-89730091D01*
X143150000Y-89730091D01*
X143150004Y-89730091D01*
X143312455Y-89711787D01*
X143312456Y-89711786D01*
X143312461Y-89711786D01*
X143466775Y-89657789D01*
X143605204Y-89570808D01*
X143720808Y-89455204D01*
X143807789Y-89316775D01*
X143861786Y-89162461D01*
X143861787Y-89162455D01*
X143880091Y-89000003D01*
X143880091Y-88999996D01*
X143861787Y-88837544D01*
X143861786Y-88837542D01*
X143861786Y-88837539D01*
X143807789Y-88683225D01*
X143720808Y-88544796D01*
X143605204Y-88429192D01*
X143466774Y-88342210D01*
X143312455Y-88288212D01*
X143150004Y-88269909D01*
X143149996Y-88269909D01*
X142987544Y-88288212D01*
X142833225Y-88342210D01*
X142694795Y-88429192D01*
X142579192Y-88544795D01*
X142492210Y-88683225D01*
X142438212Y-88837544D01*
X142419909Y-88999996D01*
X140030091Y-88999996D01*
X140011787Y-88837544D01*
X140011786Y-88837542D01*
X140011786Y-88837539D01*
X139957789Y-88683225D01*
X139870808Y-88544796D01*
X139755204Y-88429192D01*
X139616774Y-88342210D01*
X139462455Y-88288212D01*
X139300004Y-88269909D01*
X139299996Y-88269909D01*
X139137544Y-88288212D01*
X138983225Y-88342210D01*
X138844795Y-88429192D01*
X138729192Y-88544795D01*
X138642210Y-88683225D01*
X138588212Y-88837544D01*
X138569909Y-88999996D01*
X138569909Y-89000003D01*
X138588212Y-89162455D01*
X138642210Y-89316774D01*
X138710431Y-89425346D01*
X138729192Y-89455204D01*
X138844796Y-89570808D01*
X138983225Y-89657789D01*
X139030153Y-89674210D01*
X139086929Y-89714932D01*
X139112677Y-89779884D01*
X139099221Y-89848446D01*
X139050834Y-89898849D01*
X139030154Y-89908294D01*
X138933224Y-89942211D01*
X138794795Y-90029192D01*
X138679192Y-90144795D01*
X138592210Y-90283225D01*
X138538212Y-90437544D01*
X138519909Y-90599996D01*
X138519909Y-90600003D01*
X138533888Y-90724074D01*
X138521833Y-90792896D01*
X138498350Y-90825638D01*
X138379191Y-90944797D01*
X138292210Y-91083225D01*
X138238212Y-91237544D01*
X138219909Y-91399996D01*
X134005000Y-91399996D01*
X134005000Y-91130000D01*
X132934146Y-91130000D01*
X132972630Y-91063343D01*
X133005000Y-90942535D01*
X133005000Y-90817465D01*
X132972630Y-90696657D01*
X132934146Y-90630000D01*
X134004999Y-90630000D01*
X134004999Y-90230028D01*
X134004998Y-90230013D01*
X133994505Y-90127302D01*
X133939358Y-89960880D01*
X133939356Y-89960875D01*
X133847315Y-89811654D01*
X133723345Y-89687684D01*
X133574124Y-89595643D01*
X133574119Y-89595641D01*
X133407697Y-89540494D01*
X133407690Y-89540493D01*
X133304986Y-89530000D01*
X132780000Y-89530000D01*
X132780000Y-90475854D01*
X132713343Y-90437370D01*
X132592535Y-90405000D01*
X132467465Y-90405000D01*
X132346657Y-90437370D01*
X132280000Y-90475854D01*
X132280000Y-89530000D01*
X131755028Y-89530000D01*
X131755012Y-89530001D01*
X131652302Y-89540494D01*
X131485880Y-89595641D01*
X131485875Y-89595643D01*
X131336654Y-89687684D01*
X131212684Y-89811654D01*
X131120643Y-89960875D01*
X131120641Y-89960880D01*
X131065494Y-90127302D01*
X131065493Y-90127309D01*
X131055000Y-90230013D01*
X131055000Y-90630000D01*
X132125854Y-90630000D01*
X132087370Y-90696657D01*
X132055000Y-90817465D01*
X132055000Y-90942535D01*
X132087370Y-91063343D01*
X132125854Y-91130000D01*
X131055001Y-91130000D01*
X131055001Y-91529986D01*
X131065494Y-91632697D01*
X131120641Y-91799119D01*
X131120643Y-91799124D01*
X131212684Y-91948345D01*
X131336654Y-92072315D01*
X131491484Y-92167815D01*
X131538208Y-92219763D01*
X131549431Y-92288726D01*
X131521587Y-92352808D01*
X131514069Y-92361035D01*
X131374889Y-92500215D01*
X131249951Y-92672179D01*
X131153444Y-92861585D01*
X131087753Y-93063760D01*
X131054500Y-93273713D01*
X130500500Y-93273713D01*
X130500500Y-86699996D01*
X134869909Y-86699996D01*
X134869909Y-86700003D01*
X134888212Y-86862455D01*
X134942210Y-87016774D01*
X134988729Y-87090808D01*
X135029192Y-87155204D01*
X135144796Y-87270808D01*
X135283225Y-87357789D01*
X135437539Y-87411786D01*
X135437542Y-87411786D01*
X135437544Y-87411787D01*
X135599996Y-87430091D01*
X135600000Y-87430091D01*
X135600004Y-87430091D01*
X135762455Y-87411787D01*
X135762456Y-87411786D01*
X135762461Y-87411786D01*
X135916775Y-87357789D01*
X136055204Y-87270808D01*
X136170808Y-87155204D01*
X136236915Y-87049996D01*
X137069909Y-87049996D01*
X137069909Y-87050003D01*
X137088212Y-87212455D01*
X137142210Y-87366774D01*
X137142211Y-87366775D01*
X137229192Y-87505204D01*
X137344796Y-87620808D01*
X137483225Y-87707789D01*
X137637539Y-87761786D01*
X137637542Y-87761786D01*
X137637544Y-87761787D01*
X137799996Y-87780091D01*
X137800000Y-87780091D01*
X137800004Y-87780091D01*
X137962455Y-87761787D01*
X137962456Y-87761786D01*
X137962461Y-87761786D01*
X138116775Y-87707789D01*
X138255204Y-87620808D01*
X138370808Y-87505204D01*
X138457789Y-87366775D01*
X138511786Y-87212461D01*
X138511787Y-87212455D01*
X138530091Y-87050003D01*
X138530091Y-87049996D01*
X138511787Y-86887544D01*
X138511786Y-86887542D01*
X138511786Y-86887539D01*
X138457789Y-86733225D01*
X138370808Y-86594796D01*
X138255204Y-86479192D01*
X138232293Y-86464796D01*
X138116774Y-86392210D01*
X137962455Y-86338212D01*
X137800004Y-86319909D01*
X137799996Y-86319909D01*
X137637544Y-86338212D01*
X137483225Y-86392210D01*
X137344795Y-86479192D01*
X137229192Y-86594795D01*
X137142210Y-86733225D01*
X137088212Y-86887544D01*
X137069909Y-87049996D01*
X136236915Y-87049996D01*
X136257789Y-87016775D01*
X136311786Y-86862461D01*
X136311787Y-86862455D01*
X136330091Y-86700003D01*
X136330091Y-86699996D01*
X136311787Y-86537544D01*
X136311786Y-86537542D01*
X136311786Y-86537539D01*
X136257789Y-86383225D01*
X136170808Y-86244796D01*
X136055204Y-86129192D01*
X136035441Y-86116774D01*
X135916774Y-86042210D01*
X135782939Y-85995379D01*
X135762461Y-85988214D01*
X135762460Y-85988213D01*
X135762455Y-85988212D01*
X135600004Y-85969909D01*
X135599996Y-85969909D01*
X135437544Y-85988212D01*
X135283225Y-86042210D01*
X135144795Y-86129192D01*
X135029192Y-86244795D01*
X134942210Y-86383225D01*
X134888212Y-86537544D01*
X134869909Y-86699996D01*
X130500500Y-86699996D01*
X130500500Y-79103713D01*
X131024500Y-79103713D01*
X131024500Y-79316287D01*
X131034534Y-79379644D01*
X131057011Y-79521557D01*
X131057754Y-79526243D01*
X131123172Y-79727579D01*
X131123444Y-79728414D01*
X131219951Y-79917820D01*
X131344890Y-80089786D01*
X131495209Y-80240105D01*
X131495214Y-80240109D01*
X131659793Y-80359682D01*
X131702459Y-80415011D01*
X131708438Y-80484625D01*
X131675833Y-80546420D01*
X131659793Y-80560318D01*
X131495214Y-80679890D01*
X131495209Y-80679894D01*
X131344890Y-80830213D01*
X131219951Y-81002179D01*
X131123444Y-81191585D01*
X131057753Y-81393760D01*
X131024500Y-81603713D01*
X131024500Y-81816286D01*
X131056518Y-82018443D01*
X131057754Y-82026243D01*
X131095434Y-82142211D01*
X131123444Y-82228414D01*
X131219951Y-82417820D01*
X131344890Y-82589786D01*
X131495209Y-82740105D01*
X131495214Y-82740109D01*
X131659793Y-82859682D01*
X131702459Y-82915011D01*
X131708438Y-82984625D01*
X131675833Y-83046420D01*
X131659793Y-83060318D01*
X131495214Y-83179890D01*
X131495209Y-83179894D01*
X131344890Y-83330213D01*
X131219951Y-83502179D01*
X131123444Y-83691585D01*
X131057753Y-83893760D01*
X131024500Y-84103713D01*
X131024500Y-84316286D01*
X131049639Y-84475011D01*
X131057754Y-84526243D01*
X131088321Y-84620319D01*
X131123444Y-84728414D01*
X131219951Y-84917820D01*
X131344890Y-85089786D01*
X131495213Y-85240109D01*
X131667179Y-85365048D01*
X131667181Y-85365049D01*
X131667184Y-85365051D01*
X131856588Y-85461557D01*
X132058757Y-85527246D01*
X132268713Y-85560500D01*
X132268714Y-85560500D01*
X132731286Y-85560500D01*
X132731287Y-85560500D01*
X132941243Y-85527246D01*
X133143412Y-85461557D01*
X133332816Y-85365051D01*
X133360696Y-85344795D01*
X133504786Y-85240109D01*
X133504788Y-85240106D01*
X133504792Y-85240104D01*
X133655104Y-85089792D01*
X133655106Y-85089788D01*
X133655109Y-85089786D01*
X133771202Y-84929996D01*
X136279909Y-84929996D01*
X136279909Y-84930003D01*
X136298212Y-85092455D01*
X136352210Y-85246774D01*
X136352211Y-85246775D01*
X136439192Y-85385204D01*
X136554796Y-85500808D01*
X136693225Y-85587789D01*
X136847539Y-85641786D01*
X136847542Y-85641786D01*
X136847544Y-85641787D01*
X137009996Y-85660091D01*
X137010000Y-85660091D01*
X137010004Y-85660091D01*
X137172455Y-85641787D01*
X137172456Y-85641786D01*
X137172461Y-85641786D01*
X137326775Y-85587789D01*
X137434667Y-85519996D01*
X144419909Y-85519996D01*
X144419909Y-85520003D01*
X144438212Y-85682455D01*
X144492210Y-85836774D01*
X144571181Y-85962455D01*
X144579192Y-85975204D01*
X144694796Y-86090808D01*
X144833225Y-86177789D01*
X144987539Y-86231786D01*
X144987542Y-86231786D01*
X144987544Y-86231787D01*
X145149996Y-86250091D01*
X145150000Y-86250091D01*
X145150004Y-86250091D01*
X145312455Y-86231787D01*
X145312456Y-86231786D01*
X145312461Y-86231786D01*
X145466775Y-86177789D01*
X145605204Y-86090808D01*
X145720808Y-85975204D01*
X145807789Y-85836775D01*
X145861786Y-85682461D01*
X145861787Y-85682455D01*
X145880091Y-85520003D01*
X145880091Y-85519996D01*
X145861787Y-85357544D01*
X145861786Y-85357542D01*
X145861786Y-85357539D01*
X145807789Y-85203225D01*
X145720808Y-85064796D01*
X145605204Y-84949192D01*
X145511332Y-84890208D01*
X145466774Y-84862210D01*
X145312455Y-84808212D01*
X145150004Y-84789909D01*
X145149996Y-84789909D01*
X144987544Y-84808212D01*
X144833225Y-84862210D01*
X144694795Y-84949192D01*
X144579192Y-85064795D01*
X144492210Y-85203225D01*
X144438212Y-85357544D01*
X144419909Y-85519996D01*
X137434667Y-85519996D01*
X137465204Y-85500808D01*
X137580808Y-85385204D01*
X137667789Y-85246775D01*
X137721786Y-85092461D01*
X137722087Y-85089792D01*
X137740091Y-84930003D01*
X137740091Y-84929996D01*
X137721787Y-84767544D01*
X137721786Y-84767542D01*
X137721786Y-84767539D01*
X137667789Y-84613225D01*
X137580808Y-84474796D01*
X137465204Y-84359192D01*
X137326774Y-84272210D01*
X137172455Y-84218212D01*
X137010004Y-84199909D01*
X137009996Y-84199909D01*
X136847544Y-84218212D01*
X136693225Y-84272210D01*
X136554795Y-84359192D01*
X136439192Y-84474795D01*
X136352210Y-84613225D01*
X136298212Y-84767544D01*
X136279909Y-84929996D01*
X133771202Y-84929996D01*
X133780048Y-84917820D01*
X133780047Y-84917820D01*
X133780051Y-84917816D01*
X133876557Y-84728412D01*
X133942246Y-84526243D01*
X133975500Y-84316287D01*
X133975500Y-84103713D01*
X133972648Y-84085706D01*
X133981603Y-84016413D01*
X134026599Y-83962961D01*
X134093350Y-83942322D01*
X134160664Y-83961047D01*
X134160886Y-83961186D01*
X134203225Y-83987789D01*
X134357539Y-84041786D01*
X134357542Y-84041786D01*
X134357544Y-84041787D01*
X134519996Y-84060091D01*
X134520000Y-84060091D01*
X134520004Y-84060091D01*
X134682455Y-84041787D01*
X134682456Y-84041786D01*
X134682461Y-84041786D01*
X134836775Y-83987789D01*
X134975204Y-83900808D01*
X135090808Y-83785204D01*
X135177789Y-83646775D01*
X135231786Y-83492461D01*
X135247838Y-83350000D01*
X135250091Y-83330003D01*
X135250091Y-83329996D01*
X135231787Y-83167544D01*
X135231786Y-83167542D01*
X135231786Y-83167539D01*
X135177789Y-83013225D01*
X135090808Y-82874796D01*
X134975204Y-82759192D01*
X134852690Y-82682211D01*
X134836774Y-82672210D01*
X134682455Y-82618212D01*
X134520004Y-82599909D01*
X134519996Y-82599909D01*
X134357544Y-82618212D01*
X134203225Y-82672210D01*
X134064795Y-82759192D01*
X133949192Y-82874795D01*
X133862210Y-83013225D01*
X133808212Y-83167544D01*
X133805066Y-83195472D01*
X133777999Y-83259886D01*
X133720405Y-83299441D01*
X133650568Y-83301578D01*
X133594165Y-83269269D01*
X133504792Y-83179896D01*
X133482518Y-83163713D01*
X133340204Y-83060316D01*
X133297540Y-83004989D01*
X133291561Y-82935376D01*
X133324166Y-82873580D01*
X133340199Y-82859686D01*
X133504792Y-82740104D01*
X133655104Y-82589792D01*
X133655106Y-82589788D01*
X133655109Y-82589786D01*
X133780048Y-82417820D01*
X133780047Y-82417820D01*
X133780051Y-82417816D01*
X133876557Y-82228412D01*
X133942246Y-82026243D01*
X133975500Y-81816287D01*
X133975500Y-81659996D01*
X139819909Y-81659996D01*
X139819909Y-81660003D01*
X139838212Y-81822455D01*
X139892210Y-81976774D01*
X139903703Y-81995065D01*
X139979192Y-82115204D01*
X140094796Y-82230808D01*
X140233225Y-82317789D01*
X140387539Y-82371786D01*
X140387542Y-82371786D01*
X140387544Y-82371787D01*
X140549996Y-82390091D01*
X140550000Y-82390091D01*
X140550004Y-82390091D01*
X140712455Y-82371787D01*
X140712456Y-82371786D01*
X140712461Y-82371786D01*
X140866775Y-82317789D01*
X141005204Y-82230808D01*
X141120808Y-82115204D01*
X141207789Y-81976775D01*
X141261786Y-81822461D01*
X141261787Y-81822455D01*
X141280091Y-81660003D01*
X141280091Y-81659996D01*
X141261787Y-81497544D01*
X141261786Y-81497542D01*
X141261786Y-81497539D01*
X141207789Y-81343225D01*
X141120808Y-81204796D01*
X141005204Y-81089192D01*
X140994637Y-81082552D01*
X140866774Y-81002210D01*
X140712455Y-80948212D01*
X140550004Y-80929909D01*
X140549996Y-80929909D01*
X140387544Y-80948212D01*
X140233225Y-81002210D01*
X140094795Y-81089192D01*
X139979192Y-81204795D01*
X139892210Y-81343225D01*
X139838212Y-81497544D01*
X139819909Y-81659996D01*
X133975500Y-81659996D01*
X133975500Y-81603713D01*
X133942246Y-81393757D01*
X133876557Y-81191588D01*
X133780051Y-81002184D01*
X133780049Y-81002181D01*
X133780048Y-81002179D01*
X133655109Y-80830213D01*
X133504792Y-80679896D01*
X133463643Y-80650000D01*
X133340204Y-80560316D01*
X133297540Y-80504989D01*
X133291561Y-80435376D01*
X133324166Y-80373580D01*
X133340199Y-80359686D01*
X133504792Y-80240104D01*
X133655104Y-80089792D01*
X133655106Y-80089788D01*
X133655109Y-80089786D01*
X133780048Y-79917820D01*
X133780047Y-79917820D01*
X133780051Y-79917816D01*
X133876557Y-79728412D01*
X133942246Y-79526243D01*
X133975500Y-79316287D01*
X133975500Y-79103713D01*
X133942246Y-78893757D01*
X133876557Y-78691588D01*
X133780051Y-78502184D01*
X133780049Y-78502181D01*
X133780048Y-78502179D01*
X133655109Y-78330213D01*
X133515931Y-78191035D01*
X133482446Y-78129712D01*
X133487430Y-78060020D01*
X133529302Y-78004087D01*
X133538516Y-77997815D01*
X133693343Y-77902317D01*
X133817315Y-77778345D01*
X133909356Y-77629124D01*
X133909358Y-77629119D01*
X133964505Y-77462697D01*
X133964506Y-77462690D01*
X133974999Y-77359986D01*
X133975000Y-77359973D01*
X133975000Y-76960000D01*
X132904146Y-76960000D01*
X132942630Y-76893343D01*
X132975000Y-76772535D01*
X132975000Y-76647465D01*
X132942630Y-76526657D01*
X132904146Y-76460000D01*
X133974999Y-76460000D01*
X133974999Y-76060028D01*
X133974998Y-76060013D01*
X133964505Y-75957302D01*
X133909358Y-75790879D01*
X133909356Y-75790875D01*
X133853301Y-75699996D01*
X141739909Y-75699996D01*
X141739909Y-75700003D01*
X141758212Y-75862455D01*
X141812210Y-76016774D01*
X141867396Y-76104601D01*
X141899192Y-76155204D01*
X142014796Y-76270808D01*
X142153225Y-76357789D01*
X142307539Y-76411786D01*
X142307542Y-76411786D01*
X142307544Y-76411787D01*
X142469996Y-76430091D01*
X142470000Y-76430091D01*
X142470004Y-76430091D01*
X142632455Y-76411787D01*
X142632456Y-76411786D01*
X142632461Y-76411786D01*
X142786775Y-76357789D01*
X142925204Y-76270808D01*
X143040808Y-76155204D01*
X143119482Y-76029996D01*
X144159909Y-76029996D01*
X144159909Y-76030003D01*
X144178212Y-76192455D01*
X144232210Y-76346774D01*
X144303355Y-76460000D01*
X144319192Y-76485204D01*
X144434796Y-76600808D01*
X144573225Y-76687789D01*
X144727539Y-76741786D01*
X144727542Y-76741786D01*
X144727544Y-76741787D01*
X144889996Y-76760091D01*
X144890000Y-76760091D01*
X144890004Y-76760091D01*
X145052455Y-76741787D01*
X145052456Y-76741786D01*
X145052461Y-76741786D01*
X145206775Y-76687789D01*
X145345204Y-76600808D01*
X145460808Y-76485204D01*
X145547789Y-76346775D01*
X145601786Y-76192461D01*
X145607946Y-76137789D01*
X145620091Y-76030003D01*
X145620091Y-76029996D01*
X145601787Y-75867544D01*
X145601786Y-75867542D01*
X145601786Y-75867539D01*
X145547789Y-75713225D01*
X145460808Y-75574796D01*
X145345204Y-75459192D01*
X145224304Y-75383225D01*
X145206774Y-75372210D01*
X145052455Y-75318212D01*
X144890004Y-75299909D01*
X144889996Y-75299909D01*
X144727544Y-75318212D01*
X144573225Y-75372210D01*
X144434795Y-75459192D01*
X144319192Y-75574795D01*
X144232210Y-75713225D01*
X144178212Y-75867544D01*
X144159909Y-76029996D01*
X143119482Y-76029996D01*
X143127789Y-76016775D01*
X143181786Y-75862461D01*
X143189187Y-75796774D01*
X143200091Y-75700003D01*
X143200091Y-75699996D01*
X143181787Y-75537544D01*
X143181786Y-75537542D01*
X143181786Y-75537539D01*
X143127789Y-75383225D01*
X143040808Y-75244796D01*
X142925204Y-75129192D01*
X142858589Y-75087335D01*
X142786774Y-75042210D01*
X142632455Y-74988212D01*
X142470004Y-74969909D01*
X142469996Y-74969909D01*
X142307544Y-74988212D01*
X142153225Y-75042210D01*
X142014795Y-75129192D01*
X141899192Y-75244795D01*
X141812210Y-75383225D01*
X141758212Y-75537544D01*
X141739909Y-75699996D01*
X133853301Y-75699996D01*
X133817315Y-75641654D01*
X133693345Y-75517684D01*
X133544124Y-75425643D01*
X133544119Y-75425641D01*
X133377697Y-75370494D01*
X133377690Y-75370493D01*
X133274986Y-75360000D01*
X132750000Y-75360000D01*
X132750000Y-76305854D01*
X132683343Y-76267370D01*
X132562535Y-76235000D01*
X132437465Y-76235000D01*
X132316657Y-76267370D01*
X132250000Y-76305854D01*
X132250000Y-75360000D01*
X131725028Y-75360000D01*
X131725012Y-75360001D01*
X131622302Y-75370494D01*
X131455880Y-75425641D01*
X131455875Y-75425643D01*
X131306654Y-75517684D01*
X131182684Y-75641654D01*
X131090643Y-75790875D01*
X131090642Y-75790879D01*
X131035494Y-75957302D01*
X131035493Y-75957309D01*
X131025000Y-76060013D01*
X131025000Y-76460000D01*
X132095854Y-76460000D01*
X132057370Y-76526657D01*
X132025000Y-76647465D01*
X132025000Y-76772535D01*
X132057370Y-76893343D01*
X132095854Y-76960000D01*
X131025001Y-76960000D01*
X131025001Y-77359986D01*
X131035494Y-77462697D01*
X131090641Y-77629119D01*
X131090643Y-77629124D01*
X131182684Y-77778345D01*
X131306654Y-77902315D01*
X131461484Y-77997815D01*
X131508208Y-78049763D01*
X131519431Y-78118726D01*
X131491587Y-78182808D01*
X131484069Y-78191035D01*
X131344889Y-78330215D01*
X131219951Y-78502179D01*
X131123444Y-78691585D01*
X131057753Y-78893760D01*
X131031073Y-79062211D01*
X131024500Y-79103713D01*
X130500500Y-79103713D01*
X130500500Y-71353799D01*
X130520185Y-71286760D01*
X130572989Y-71241005D01*
X130642147Y-71231061D01*
X130705703Y-71260086D01*
X130740264Y-71309362D01*
X130754786Y-71347194D01*
X130930877Y-71692793D01*
X131142122Y-72018082D01*
X131347128Y-72271243D01*
X131386219Y-72319516D01*
X131660484Y-72593781D01*
X131788961Y-72697820D01*
X131961917Y-72837877D01*
X132247992Y-73023656D01*
X132287211Y-73049125D01*
X132632806Y-73225214D01*
X132994913Y-73364214D01*
X133369567Y-73464602D01*
X133752662Y-73525278D01*
X134118576Y-73544455D01*
X134139999Y-73545578D01*
X134140000Y-73545578D01*
X134140001Y-73545578D01*
X134160301Y-73544514D01*
X134527338Y-73525278D01*
X134910433Y-73464602D01*
X135285087Y-73364214D01*
X135647194Y-73225214D01*
X135992789Y-73049125D01*
X136318084Y-72837876D01*
X136619516Y-72593781D01*
X136893781Y-72319516D01*
X137137876Y-72018084D01*
X137349125Y-71692789D01*
X137525214Y-71347194D01*
X137664214Y-70985087D01*
X137764602Y-70610433D01*
X137825278Y-70227338D01*
X137845578Y-69840000D01*
X137825278Y-69452662D01*
X137764602Y-69069567D01*
X137664214Y-68694913D01*
X137570199Y-68449996D01*
X141519909Y-68449996D01*
X141519909Y-68450003D01*
X141538212Y-68612455D01*
X141592210Y-68766774D01*
X141623628Y-68816775D01*
X141679192Y-68905204D01*
X141794796Y-69020808D01*
X141933225Y-69107789D01*
X142087539Y-69161786D01*
X142087542Y-69161786D01*
X142087544Y-69161787D01*
X142249996Y-69180091D01*
X142250000Y-69180091D01*
X142250004Y-69180091D01*
X142412455Y-69161787D01*
X142412456Y-69161786D01*
X142412461Y-69161786D01*
X142566775Y-69107789D01*
X142705204Y-69020808D01*
X142820808Y-68905204D01*
X142907789Y-68766775D01*
X142961786Y-68612461D01*
X142974457Y-68500003D01*
X142974458Y-68499996D01*
X144069909Y-68499996D01*
X144069909Y-68500003D01*
X144088212Y-68662455D01*
X144142210Y-68816774D01*
X144166175Y-68854913D01*
X144229192Y-68955204D01*
X144344796Y-69070808D01*
X144483225Y-69157789D01*
X144637539Y-69211786D01*
X144637542Y-69211786D01*
X144637544Y-69211787D01*
X144799996Y-69230091D01*
X144800000Y-69230091D01*
X144800004Y-69230091D01*
X144962455Y-69211787D01*
X144962456Y-69211786D01*
X144962461Y-69211786D01*
X145116775Y-69157789D01*
X145255204Y-69070808D01*
X145337319Y-68988693D01*
X145398642Y-68955208D01*
X145468334Y-68960192D01*
X145512681Y-68988693D01*
X145594796Y-69070808D01*
X145733225Y-69157789D01*
X145887539Y-69211786D01*
X145887542Y-69211786D01*
X145887544Y-69211787D01*
X146049996Y-69230091D01*
X146050000Y-69230091D01*
X146050004Y-69230091D01*
X146212455Y-69211787D01*
X146212456Y-69211786D01*
X146212461Y-69211786D01*
X146366775Y-69157789D01*
X146505204Y-69070808D01*
X146620808Y-68955204D01*
X146707789Y-68816775D01*
X146761786Y-68662461D01*
X146767420Y-68612461D01*
X146780091Y-68500003D01*
X146780091Y-68499996D01*
X146761787Y-68337544D01*
X146761786Y-68337542D01*
X146761786Y-68337539D01*
X146707789Y-68183225D01*
X146620808Y-68044796D01*
X146505204Y-67929192D01*
X146425630Y-67879192D01*
X146366774Y-67842210D01*
X146212455Y-67788212D01*
X146050004Y-67769909D01*
X146049996Y-67769909D01*
X145887544Y-67788212D01*
X145733225Y-67842210D01*
X145594795Y-67929192D01*
X145512681Y-68011307D01*
X145451358Y-68044792D01*
X145381666Y-68039808D01*
X145337319Y-68011307D01*
X145255204Y-67929192D01*
X145116774Y-67842210D01*
X144962455Y-67788212D01*
X144800004Y-67769909D01*
X144799996Y-67769909D01*
X144637544Y-67788212D01*
X144483225Y-67842210D01*
X144344795Y-67929192D01*
X144229192Y-68044795D01*
X144142210Y-68183225D01*
X144088212Y-68337544D01*
X144069909Y-68499996D01*
X142974458Y-68499996D01*
X142980091Y-68450003D01*
X142980091Y-68449996D01*
X142961787Y-68287544D01*
X142961786Y-68287542D01*
X142961786Y-68287539D01*
X142907789Y-68133225D01*
X142820808Y-67994796D01*
X142705204Y-67879192D01*
X142566774Y-67792210D01*
X142412455Y-67738212D01*
X142250004Y-67719909D01*
X142249996Y-67719909D01*
X142087544Y-67738212D01*
X141933225Y-67792210D01*
X141794795Y-67879192D01*
X141679192Y-67994795D01*
X141592210Y-68133225D01*
X141538212Y-68287544D01*
X141519909Y-68449996D01*
X137570199Y-68449996D01*
X137525214Y-68332806D01*
X137349125Y-67987211D01*
X137254961Y-67842211D01*
X137137877Y-67661917D01*
X136893784Y-67360488D01*
X136893781Y-67360484D01*
X136619516Y-67086219D01*
X136585164Y-67058401D01*
X136318082Y-66842122D01*
X136143111Y-66728495D01*
X136097608Y-66675474D01*
X136087994Y-66606269D01*
X136117321Y-66542852D01*
X136176278Y-66505358D01*
X136210646Y-66500500D01*
X178200607Y-66500500D01*
X178267646Y-66520185D01*
G37*
%TD.AperFunction*%
%TD*%
%TA.AperFunction,Conductor*%
%TO.N,+5V*%
G36*
X159958329Y-77216081D02*
G01*
X160004374Y-77268632D01*
X160004455Y-77268808D01*
X160030095Y-77324372D01*
X160030096Y-77324373D01*
X160030097Y-77324375D01*
X160030098Y-77324377D01*
X160108361Y-77445110D01*
X161283008Y-78789996D01*
X161573448Y-79122529D01*
X161903134Y-79499996D01*
X162768102Y-80490322D01*
X163124802Y-80898718D01*
X163135635Y-80911120D01*
X163164909Y-80974561D01*
X163155238Y-81043758D01*
X163109691Y-81096742D01*
X163083196Y-81109733D01*
X162975954Y-81147258D01*
X162906175Y-81150819D01*
X162894047Y-81147258D01*
X162782459Y-81108213D01*
X162620004Y-81089909D01*
X162619996Y-81089909D01*
X162457544Y-81108212D01*
X162457533Y-81108215D01*
X162400241Y-81128262D01*
X162330463Y-81131823D01*
X162318333Y-81128262D01*
X162265543Y-81109790D01*
X162208767Y-81069068D01*
X162183020Y-81004115D01*
X162196476Y-80935554D01*
X162201500Y-80926782D01*
X162207789Y-80916775D01*
X162261786Y-80762461D01*
X162280091Y-80600000D01*
X162278402Y-80585014D01*
X162261787Y-80437544D01*
X162261786Y-80437542D01*
X162261786Y-80437539D01*
X162207789Y-80283225D01*
X162120808Y-80144796D01*
X162005204Y-80029192D01*
X161945320Y-79991564D01*
X161866774Y-79942210D01*
X161712455Y-79888212D01*
X161550004Y-79869909D01*
X161549996Y-79869909D01*
X161387544Y-79888212D01*
X161233225Y-79942210D01*
X161094795Y-80029192D01*
X160979192Y-80144795D01*
X160892210Y-80283225D01*
X160838212Y-80437544D01*
X160819909Y-80599996D01*
X160819909Y-80600003D01*
X160838212Y-80762455D01*
X160892210Y-80916774D01*
X160972000Y-81043758D01*
X160979192Y-81055204D01*
X161094796Y-81170808D01*
X161233225Y-81257789D01*
X161354455Y-81300209D01*
X161411231Y-81340931D01*
X161436979Y-81405883D01*
X161423523Y-81474445D01*
X161418496Y-81483221D01*
X161412211Y-81493223D01*
X161358212Y-81647544D01*
X161339909Y-81809996D01*
X161339909Y-81810003D01*
X161358212Y-81972457D01*
X161414511Y-82133348D01*
X161413214Y-82133801D01*
X161423327Y-82195235D01*
X161395602Y-82259368D01*
X161358847Y-82288070D01*
X161359121Y-82288506D01*
X161354861Y-82291182D01*
X161354063Y-82291806D01*
X161353232Y-82292205D01*
X161214795Y-82379192D01*
X161099192Y-82494795D01*
X161012210Y-82633225D01*
X160958212Y-82787544D01*
X160939909Y-82949996D01*
X160939909Y-82950003D01*
X160958212Y-83112455D01*
X160958213Y-83112460D01*
X160958214Y-83112461D01*
X160964537Y-83130532D01*
X161012210Y-83266774D01*
X161050857Y-83328280D01*
X161099192Y-83405204D01*
X161214796Y-83520808D01*
X161353225Y-83607789D01*
X161507539Y-83661786D01*
X161507542Y-83661786D01*
X161507544Y-83661787D01*
X161669996Y-83680091D01*
X161670000Y-83680091D01*
X161670004Y-83680091D01*
X161832455Y-83661787D01*
X161832456Y-83661786D01*
X161832461Y-83661786D01*
X161986775Y-83607789D01*
X162125204Y-83520808D01*
X162240808Y-83405204D01*
X162327789Y-83266775D01*
X162381786Y-83112461D01*
X162381787Y-83112455D01*
X162400091Y-82950003D01*
X162400091Y-82949996D01*
X162381787Y-82787542D01*
X162362214Y-82731607D01*
X162350689Y-82698671D01*
X162347127Y-82628896D01*
X162381856Y-82568268D01*
X162443849Y-82536041D01*
X162481615Y-82534499D01*
X162619997Y-82550091D01*
X162620000Y-82550091D01*
X162620004Y-82550091D01*
X162782455Y-82531787D01*
X162782456Y-82531786D01*
X162782461Y-82531786D01*
X162894048Y-82492739D01*
X162963823Y-82489177D01*
X162975934Y-82492733D01*
X163087539Y-82531786D01*
X163087543Y-82531786D01*
X163087545Y-82531787D01*
X163087542Y-82531787D01*
X163249996Y-82550091D01*
X163250000Y-82550091D01*
X163250004Y-82550091D01*
X163412455Y-82531787D01*
X163412456Y-82531786D01*
X163412461Y-82531786D01*
X163566775Y-82477789D01*
X163705204Y-82390808D01*
X163820808Y-82275204D01*
X163907789Y-82136775D01*
X163922790Y-82093905D01*
X163963512Y-82037129D01*
X164028464Y-82011381D01*
X164097026Y-82024837D01*
X164133223Y-82053286D01*
X164785413Y-82799996D01*
X165075853Y-83132529D01*
X166648160Y-84932706D01*
X166678946Y-84967953D01*
X166727419Y-85016386D01*
X166727430Y-85016396D01*
X166727440Y-85016406D01*
X166738508Y-85026057D01*
X166752728Y-85038457D01*
X166752753Y-85038477D01*
X166807332Y-85079904D01*
X166807333Y-85079904D01*
X166807334Y-85079905D01*
X166816086Y-85084010D01*
X166868423Y-85130299D01*
X166887425Y-85197536D01*
X166886651Y-85210158D01*
X166879909Y-85269996D01*
X166879909Y-85270003D01*
X166898212Y-85432455D01*
X166952210Y-85586774D01*
X167005418Y-85671453D01*
X167039192Y-85725204D01*
X167154796Y-85840808D01*
X167293225Y-85927789D01*
X167447539Y-85981786D01*
X167447542Y-85981786D01*
X167447544Y-85981787D01*
X167558541Y-85994293D01*
X167587848Y-85997595D01*
X167652262Y-86024661D01*
X167686557Y-86068863D01*
X167707687Y-86114657D01*
X167707689Y-86114662D01*
X167785953Y-86235397D01*
X167785956Y-86235402D01*
X167851108Y-86309995D01*
X167851108Y-86309996D01*
X167851109Y-86309996D01*
X168554655Y-87115506D01*
X168583929Y-87178947D01*
X168585261Y-87196676D01*
X168605097Y-93335779D01*
X168585630Y-93402882D01*
X168532974Y-93448807D01*
X168463848Y-93458974D01*
X168423523Y-93444243D01*
X168423048Y-93445231D01*
X168416780Y-93442212D01*
X168262455Y-93388212D01*
X168100004Y-93369909D01*
X168099996Y-93369909D01*
X167937544Y-93388212D01*
X167783225Y-93442210D01*
X167644795Y-93529192D01*
X167529192Y-93644795D01*
X167442210Y-93783225D01*
X167388212Y-93937544D01*
X167369909Y-94099996D01*
X167369909Y-94100003D01*
X167388212Y-94262455D01*
X167442210Y-94416774D01*
X167442211Y-94416775D01*
X167529192Y-94555204D01*
X167644796Y-94670808D01*
X167783225Y-94757789D01*
X167937539Y-94811786D01*
X167937542Y-94811786D01*
X167937544Y-94811787D01*
X168099996Y-94830091D01*
X168100000Y-94830091D01*
X168100004Y-94830091D01*
X168262455Y-94811787D01*
X168262456Y-94811786D01*
X168262461Y-94811786D01*
X168416775Y-94757789D01*
X168420044Y-94755735D01*
X168422460Y-94755051D01*
X168423048Y-94754769D01*
X168423097Y-94754871D01*
X168487280Y-94736730D01*
X168554116Y-94757093D01*
X168599334Y-94810358D01*
X168610022Y-94860323D01*
X168621702Y-98474994D01*
X168621706Y-98476226D01*
X168621707Y-98476629D01*
X168623891Y-99152441D01*
X168639358Y-103939658D01*
X168639359Y-103939668D01*
X168650533Y-104043737D01*
X168650536Y-104043755D01*
X168661219Y-104093704D01*
X168661222Y-104093715D01*
X168693604Y-104193276D01*
X168770147Y-104315095D01*
X168770148Y-104315097D01*
X168770152Y-104315102D01*
X168770153Y-104315103D01*
X168815367Y-104368371D01*
X168923134Y-104463694D01*
X168923141Y-104463697D01*
X168924677Y-104464707D01*
X168925872Y-104466115D01*
X168929777Y-104469569D01*
X168929280Y-104470130D01*
X168969892Y-104517974D01*
X168979799Y-104582218D01*
X168969909Y-104669996D01*
X168969909Y-104670005D01*
X168981234Y-104770526D01*
X168969179Y-104839347D01*
X168925394Y-104888504D01*
X168889454Y-104911767D01*
X168836800Y-104957690D01*
X168742934Y-105066727D01*
X168683586Y-105197796D01*
X168664119Y-105264890D01*
X168664115Y-105264911D01*
X168644100Y-105407387D01*
X168646727Y-106219996D01*
X168649053Y-106939996D01*
X168649053Y-106940015D01*
X168649058Y-106941618D01*
X168682562Y-117311543D01*
X168663094Y-117378646D01*
X168610439Y-117424571D01*
X168577961Y-117434417D01*
X168493760Y-117447753D01*
X168291585Y-117513444D01*
X168102179Y-117609951D01*
X167930213Y-117734890D01*
X167779894Y-117885209D01*
X167779890Y-117885214D01*
X167660318Y-118049793D01*
X167604989Y-118092459D01*
X167535375Y-118098438D01*
X167473580Y-118065833D01*
X167459682Y-118049793D01*
X167340109Y-117885214D01*
X167340105Y-117885209D01*
X167189786Y-117734890D01*
X167017820Y-117609951D01*
X166828414Y-117513444D01*
X166828413Y-117513443D01*
X166828412Y-117513443D01*
X166626243Y-117447754D01*
X166626241Y-117447753D01*
X166626240Y-117447753D01*
X166435777Y-117417587D01*
X166416287Y-117414500D01*
X166203713Y-117414500D01*
X166184223Y-117417587D01*
X165993760Y-117447753D01*
X165791585Y-117513444D01*
X165602179Y-117609951D01*
X165430213Y-117734890D01*
X165279894Y-117885209D01*
X165279890Y-117885214D01*
X165160318Y-118049793D01*
X165104989Y-118092459D01*
X165035375Y-118098438D01*
X164973580Y-118065833D01*
X164959682Y-118049793D01*
X164840109Y-117885214D01*
X164840105Y-117885209D01*
X164689786Y-117734890D01*
X164517820Y-117609951D01*
X164328414Y-117513444D01*
X164328413Y-117513443D01*
X164328412Y-117513443D01*
X164126243Y-117447754D01*
X164126241Y-117447753D01*
X164126240Y-117447753D01*
X163935777Y-117417587D01*
X163916287Y-117414500D01*
X163703713Y-117414500D01*
X163684223Y-117417587D01*
X163493760Y-117447753D01*
X163291585Y-117513444D01*
X163102179Y-117609951D01*
X162930213Y-117734890D01*
X162779894Y-117885209D01*
X162779890Y-117885214D01*
X162660318Y-118049793D01*
X162604989Y-118092459D01*
X162535375Y-118098438D01*
X162473580Y-118065833D01*
X162459682Y-118049793D01*
X162340109Y-117885214D01*
X162340105Y-117885209D01*
X162189786Y-117734890D01*
X162017820Y-117609951D01*
X161828414Y-117513444D01*
X161828413Y-117513443D01*
X161828412Y-117513443D01*
X161626243Y-117447754D01*
X161626241Y-117447753D01*
X161626240Y-117447753D01*
X161435777Y-117417587D01*
X161416287Y-117414500D01*
X161203713Y-117414500D01*
X161184223Y-117417587D01*
X160993760Y-117447753D01*
X160791585Y-117513444D01*
X160602179Y-117609951D01*
X160430213Y-117734890D01*
X160279894Y-117885209D01*
X160279890Y-117885214D01*
X160160318Y-118049793D01*
X160104989Y-118092459D01*
X160035375Y-118098438D01*
X159973580Y-118065833D01*
X159959682Y-118049793D01*
X159840109Y-117885214D01*
X159840105Y-117885209D01*
X159689786Y-117734890D01*
X159517820Y-117609951D01*
X159328414Y-117513444D01*
X159328413Y-117513443D01*
X159328412Y-117513443D01*
X159126243Y-117447754D01*
X159126241Y-117447753D01*
X159126240Y-117447753D01*
X158935777Y-117417587D01*
X158916287Y-117414500D01*
X158703713Y-117414500D01*
X158684223Y-117417587D01*
X158493760Y-117447753D01*
X158291585Y-117513444D01*
X158102179Y-117609951D01*
X157930213Y-117734890D01*
X157779894Y-117885209D01*
X157779890Y-117885214D01*
X157660318Y-118049793D01*
X157604989Y-118092459D01*
X157535375Y-118098438D01*
X157473580Y-118065833D01*
X157459682Y-118049793D01*
X157340109Y-117885214D01*
X157340105Y-117885209D01*
X157189786Y-117734890D01*
X157017820Y-117609951D01*
X156828414Y-117513444D01*
X156828413Y-117513443D01*
X156828412Y-117513443D01*
X156626243Y-117447754D01*
X156626241Y-117447753D01*
X156626240Y-117447753D01*
X156435777Y-117417587D01*
X156416287Y-117414500D01*
X156203713Y-117414500D01*
X156184223Y-117417587D01*
X155993760Y-117447753D01*
X155791585Y-117513444D01*
X155602179Y-117609951D01*
X155430215Y-117734889D01*
X155291035Y-117874069D01*
X155229712Y-117907553D01*
X155160020Y-117902569D01*
X155104087Y-117860697D01*
X155097815Y-117851484D01*
X155002315Y-117696654D01*
X154878345Y-117572684D01*
X154729124Y-117480643D01*
X154729119Y-117480641D01*
X154562697Y-117425494D01*
X154562690Y-117425493D01*
X154459986Y-117415000D01*
X154060000Y-117415000D01*
X154060000Y-118485854D01*
X153993343Y-118447370D01*
X153872535Y-118415000D01*
X153747465Y-118415000D01*
X153626657Y-118447370D01*
X153560000Y-118485854D01*
X153560000Y-117415000D01*
X153160028Y-117415000D01*
X153160012Y-117415001D01*
X153057302Y-117425494D01*
X152890880Y-117480641D01*
X152890875Y-117480643D01*
X152741654Y-117572684D01*
X152617684Y-117696654D01*
X152525643Y-117845875D01*
X152525641Y-117845880D01*
X152470494Y-118012302D01*
X152470493Y-118012309D01*
X152460000Y-118115013D01*
X152460000Y-118640000D01*
X153405854Y-118640000D01*
X153367370Y-118706657D01*
X153335000Y-118827465D01*
X153335000Y-118952535D01*
X153367370Y-119073343D01*
X153405854Y-119140000D01*
X152460001Y-119140000D01*
X152460001Y-119664986D01*
X152470494Y-119767697D01*
X152525641Y-119934119D01*
X152525643Y-119934124D01*
X152617684Y-120083345D01*
X152741654Y-120207315D01*
X152890875Y-120299356D01*
X152890880Y-120299358D01*
X153057302Y-120354505D01*
X153057309Y-120354506D01*
X153160019Y-120364999D01*
X153559999Y-120364999D01*
X153560000Y-120364998D01*
X153560000Y-119294145D01*
X153626657Y-119332630D01*
X153747465Y-119365000D01*
X153872535Y-119365000D01*
X153993343Y-119332630D01*
X154060000Y-119294145D01*
X154060000Y-120364999D01*
X154459972Y-120364999D01*
X154459986Y-120364998D01*
X154562697Y-120354505D01*
X154729119Y-120299358D01*
X154729124Y-120299356D01*
X154878345Y-120207315D01*
X155002317Y-120083343D01*
X155097815Y-119928516D01*
X155149763Y-119881791D01*
X155218725Y-119870568D01*
X155282808Y-119898412D01*
X155291035Y-119905931D01*
X155430213Y-120045109D01*
X155602179Y-120170048D01*
X155602181Y-120170049D01*
X155602184Y-120170051D01*
X155791588Y-120266557D01*
X155993757Y-120332246D01*
X156203713Y-120365500D01*
X156203714Y-120365500D01*
X156416286Y-120365500D01*
X156416287Y-120365500D01*
X156626243Y-120332246D01*
X156828412Y-120266557D01*
X157017816Y-120170051D01*
X157072131Y-120130589D01*
X157189786Y-120045109D01*
X157189788Y-120045106D01*
X157189792Y-120045104D01*
X157340104Y-119894792D01*
X157459683Y-119730204D01*
X157515011Y-119687540D01*
X157584624Y-119681561D01*
X157646420Y-119714166D01*
X157660313Y-119730199D01*
X157739502Y-119839194D01*
X157779896Y-119894792D01*
X157930213Y-120045109D01*
X158102179Y-120170048D01*
X158102181Y-120170049D01*
X158102184Y-120170051D01*
X158291588Y-120266557D01*
X158493757Y-120332246D01*
X158703713Y-120365500D01*
X158703714Y-120365500D01*
X158916286Y-120365500D01*
X158916287Y-120365500D01*
X159126243Y-120332246D01*
X159328412Y-120266557D01*
X159517816Y-120170051D01*
X159572131Y-120130589D01*
X159689786Y-120045109D01*
X159689788Y-120045106D01*
X159689792Y-120045104D01*
X159840104Y-119894792D01*
X159959683Y-119730204D01*
X160015011Y-119687540D01*
X160084624Y-119681561D01*
X160146420Y-119714166D01*
X160160313Y-119730199D01*
X160239502Y-119839194D01*
X160279896Y-119894792D01*
X160430213Y-120045109D01*
X160602179Y-120170048D01*
X160602181Y-120170049D01*
X160602184Y-120170051D01*
X160791588Y-120266557D01*
X160993757Y-120332246D01*
X161203713Y-120365500D01*
X161203714Y-120365500D01*
X161416286Y-120365500D01*
X161416287Y-120365500D01*
X161626243Y-120332246D01*
X161828412Y-120266557D01*
X162017816Y-120170051D01*
X162072131Y-120130589D01*
X162189786Y-120045109D01*
X162189788Y-120045106D01*
X162189792Y-120045104D01*
X162340104Y-119894792D01*
X162459683Y-119730204D01*
X162515011Y-119687540D01*
X162584624Y-119681561D01*
X162646420Y-119714166D01*
X162660313Y-119730199D01*
X162739502Y-119839194D01*
X162779896Y-119894792D01*
X162930213Y-120045109D01*
X163102179Y-120170048D01*
X163102181Y-120170049D01*
X163102184Y-120170051D01*
X163291588Y-120266557D01*
X163493757Y-120332246D01*
X163703713Y-120365500D01*
X163703714Y-120365500D01*
X163916286Y-120365500D01*
X163916287Y-120365500D01*
X164126243Y-120332246D01*
X164328412Y-120266557D01*
X164517816Y-120170051D01*
X164572131Y-120130589D01*
X164689786Y-120045109D01*
X164689788Y-120045106D01*
X164689792Y-120045104D01*
X164840104Y-119894792D01*
X164959683Y-119730204D01*
X165015011Y-119687540D01*
X165084624Y-119681561D01*
X165146420Y-119714166D01*
X165160313Y-119730199D01*
X165239502Y-119839194D01*
X165279896Y-119894792D01*
X165430213Y-120045109D01*
X165602179Y-120170048D01*
X165602181Y-120170049D01*
X165602184Y-120170051D01*
X165791588Y-120266557D01*
X165993757Y-120332246D01*
X166203713Y-120365500D01*
X166203714Y-120365500D01*
X166416286Y-120365500D01*
X166416287Y-120365500D01*
X166626243Y-120332246D01*
X166828412Y-120266557D01*
X167017816Y-120170051D01*
X167072131Y-120130589D01*
X167189786Y-120045109D01*
X167189788Y-120045106D01*
X167189792Y-120045104D01*
X167340104Y-119894792D01*
X167459683Y-119730204D01*
X167515011Y-119687540D01*
X167584624Y-119681561D01*
X167646420Y-119714166D01*
X167660313Y-119730199D01*
X167739502Y-119839194D01*
X167779896Y-119894792D01*
X167930213Y-120045109D01*
X168102179Y-120170048D01*
X168102181Y-120170049D01*
X168102184Y-120170051D01*
X168130222Y-120184337D01*
X168291583Y-120266555D01*
X168291585Y-120266555D01*
X168291588Y-120266557D01*
X168392539Y-120299358D01*
X168493756Y-120332246D01*
X168521262Y-120336602D01*
X168588164Y-120347198D01*
X168651298Y-120377127D01*
X168688230Y-120436438D01*
X168692765Y-120469270D01*
X168698924Y-122375099D01*
X168679457Y-122442202D01*
X168626801Y-122488127D01*
X168574925Y-122499500D01*
X151485772Y-122499500D01*
X151418733Y-122479815D01*
X151372978Y-122427011D01*
X151363001Y-122363521D01*
X151362647Y-122363505D01*
X151362725Y-122361767D01*
X151362615Y-122361063D01*
X151362848Y-122359079D01*
X151202184Y-116202733D01*
X151220113Y-116135205D01*
X151271705Y-116088088D01*
X151326142Y-116075500D01*
X156489559Y-116075500D01*
X156489573Y-116075500D01*
X156538472Y-116073129D01*
X156562353Y-116070808D01*
X156610811Y-116063715D01*
X156746617Y-116016193D01*
X156799332Y-115988788D01*
X156805438Y-115986240D01*
X156808606Y-115983967D01*
X156808611Y-115983965D01*
X156808612Y-115983965D01*
X156925528Y-115900107D01*
X156925533Y-115900099D01*
X156925930Y-115899720D01*
X156926431Y-115899459D01*
X156932735Y-115894938D01*
X156933384Y-115895843D01*
X156987921Y-115867488D01*
X157052767Y-115872122D01*
X157079128Y-115881347D01*
X157137542Y-115901787D01*
X157299996Y-115920091D01*
X157300000Y-115920091D01*
X157300004Y-115920091D01*
X157462457Y-115901787D01*
X157462459Y-115901786D01*
X157462461Y-115901786D01*
X157553105Y-115870067D01*
X157622884Y-115866506D01*
X157675262Y-115893396D01*
X157770091Y-115975567D01*
X157770094Y-115975568D01*
X157770095Y-115975569D01*
X157869189Y-116020825D01*
X157900968Y-116035338D01*
X157968007Y-116055023D01*
X157968011Y-116055024D01*
X158110427Y-116075500D01*
X158110430Y-116075500D01*
X160071234Y-116075500D01*
X160114994Y-116073601D01*
X160115003Y-116073600D01*
X160115008Y-116073600D01*
X160136402Y-116071740D01*
X160154197Y-116069412D01*
X160187921Y-116069625D01*
X160228775Y-116075500D01*
X160228778Y-116075500D01*
X163757054Y-116075500D01*
X163757055Y-116075500D01*
X163862397Y-116064402D01*
X163912944Y-116053632D01*
X164013662Y-116020825D01*
X164135361Y-115944073D01*
X164175185Y-115910155D01*
X164182733Y-115905372D01*
X164188549Y-115898773D01*
X164188553Y-115898771D01*
X164188554Y-115898771D01*
X164283700Y-115790841D01*
X164344585Y-115660478D01*
X164364841Y-115593609D01*
X164386532Y-115451383D01*
X164386692Y-115432677D01*
X164386697Y-115432149D01*
X164386697Y-115432082D01*
X164417154Y-111864315D01*
X164422452Y-111243801D01*
X164422221Y-111223597D01*
X164421909Y-111213665D01*
X164420871Y-111193493D01*
X164420871Y-111193488D01*
X164390287Y-111052896D01*
X164366614Y-110989427D01*
X164366081Y-110987917D01*
X164365865Y-110987420D01*
X164296914Y-110861150D01*
X164202526Y-110766763D01*
X164169041Y-110705440D01*
X164174025Y-110635748D01*
X164209805Y-110584680D01*
X164220733Y-110575373D01*
X164228278Y-110570593D01*
X164234095Y-110563994D01*
X164234096Y-110563994D01*
X164329242Y-110456064D01*
X164390127Y-110325701D01*
X164398421Y-110298318D01*
X164436693Y-110239867D01*
X164500494Y-110211383D01*
X164530980Y-110211047D01*
X164699997Y-110230091D01*
X164700000Y-110230091D01*
X164700004Y-110230091D01*
X164862455Y-110211787D01*
X164862456Y-110211786D01*
X164862461Y-110211786D01*
X165016775Y-110157789D01*
X165155204Y-110070808D01*
X165270808Y-109955204D01*
X165357789Y-109816775D01*
X165411786Y-109662461D01*
X165411787Y-109662455D01*
X165430091Y-109500003D01*
X165430091Y-109499996D01*
X165411787Y-109337544D01*
X165411786Y-109337542D01*
X165411786Y-109337539D01*
X165357789Y-109183225D01*
X165270808Y-109044796D01*
X165155204Y-108929192D01*
X165088163Y-108887067D01*
X165016773Y-108842209D01*
X165007061Y-108838811D01*
X164950285Y-108798088D01*
X164924539Y-108733135D01*
X164937996Y-108664574D01*
X164982045Y-108616776D01*
X165042918Y-108578528D01*
X165055201Y-108570810D01*
X165055201Y-108570809D01*
X165055204Y-108570808D01*
X165170808Y-108455204D01*
X165257789Y-108316775D01*
X165311786Y-108162461D01*
X165311896Y-108161489D01*
X165330091Y-108000003D01*
X165330091Y-107999996D01*
X165311787Y-107837544D01*
X165311786Y-107837542D01*
X165311786Y-107837539D01*
X165257789Y-107683225D01*
X165170808Y-107544796D01*
X165055204Y-107429192D01*
X165049728Y-107425751D01*
X164916774Y-107342210D01*
X164772066Y-107291575D01*
X164762461Y-107288214D01*
X164762460Y-107288213D01*
X164762455Y-107288212D01*
X164600004Y-107269909D01*
X164599995Y-107269909D01*
X164538749Y-107276809D01*
X164469927Y-107264754D01*
X164418549Y-107217404D01*
X164400925Y-107149794D01*
X164412518Y-107101113D01*
X164417750Y-107089911D01*
X164417749Y-107089911D01*
X164417751Y-107089909D01*
X164438007Y-107023040D01*
X164459698Y-106880805D01*
X164465416Y-106211000D01*
X164472334Y-105400709D01*
X164492590Y-105333840D01*
X164545782Y-105288538D01*
X164582447Y-105278548D01*
X164642454Y-105271787D01*
X164642454Y-105271786D01*
X164642461Y-105271786D01*
X164796775Y-105217789D01*
X164935204Y-105130808D01*
X165050808Y-105015204D01*
X165137789Y-104876775D01*
X165191786Y-104722461D01*
X165191787Y-104722455D01*
X165210091Y-104560003D01*
X165210091Y-104559996D01*
X165191787Y-104397544D01*
X165191786Y-104397542D01*
X165191786Y-104397539D01*
X165137789Y-104243225D01*
X165050808Y-104104796D01*
X164935204Y-103989192D01*
X164869151Y-103947688D01*
X164796774Y-103902210D01*
X164642455Y-103848212D01*
X164480004Y-103829909D01*
X164479996Y-103829909D01*
X164317544Y-103848212D01*
X164224127Y-103880900D01*
X164154348Y-103884461D01*
X164093721Y-103849732D01*
X164061494Y-103787738D01*
X164059953Y-103749974D01*
X164070871Y-103653080D01*
X164072178Y-103653227D01*
X164089776Y-103593296D01*
X164127942Y-103555452D01*
X164241735Y-103483687D01*
X164281559Y-103449769D01*
X164289107Y-103444986D01*
X164294923Y-103438387D01*
X164294927Y-103438385D01*
X164294928Y-103438385D01*
X164390074Y-103330455D01*
X164450959Y-103200092D01*
X164471215Y-103133223D01*
X164492906Y-102990988D01*
X164604419Y-89928768D01*
X164593594Y-89820315D01*
X164582642Y-89768293D01*
X164548819Y-89664676D01*
X164471621Y-89543259D01*
X164426123Y-89490233D01*
X164386630Y-89455675D01*
X164317846Y-89395485D01*
X164187267Y-89335082D01*
X164187262Y-89335080D01*
X164125669Y-89316668D01*
X164123718Y-89315988D01*
X164120314Y-89315067D01*
X163978000Y-89293901D01*
X157922660Y-89264507D01*
X157922551Y-89264506D01*
X157921169Y-89264501D01*
X157921169Y-89264502D01*
X157920449Y-89264501D01*
X157920449Y-89264500D01*
X157919604Y-89264500D01*
X150326253Y-89264500D01*
X150259214Y-89244815D01*
X150213459Y-89192011D01*
X150202341Y-89145163D01*
X150118598Y-86919996D01*
X156659909Y-86919996D01*
X156659909Y-86920003D01*
X156678212Y-87082455D01*
X156726007Y-87219046D01*
X156729568Y-87288825D01*
X156726007Y-87300954D01*
X156678212Y-87437544D01*
X156659909Y-87599996D01*
X156659909Y-87600003D01*
X156678213Y-87762458D01*
X156713759Y-87864046D01*
X156717320Y-87933825D01*
X156713759Y-87945954D01*
X156678213Y-88047541D01*
X156659909Y-88209996D01*
X156659909Y-88210003D01*
X156678212Y-88372455D01*
X156732210Y-88526774D01*
X156732211Y-88526775D01*
X156819192Y-88665204D01*
X156934796Y-88780808D01*
X157073225Y-88867789D01*
X157227539Y-88921786D01*
X157227542Y-88921786D01*
X157227544Y-88921787D01*
X157389996Y-88940091D01*
X157390000Y-88940091D01*
X157390004Y-88940091D01*
X157552455Y-88921787D01*
X157552456Y-88921786D01*
X157552461Y-88921786D01*
X157706775Y-88867789D01*
X157845204Y-88780808D01*
X157960808Y-88665204D01*
X158047789Y-88526775D01*
X158101786Y-88372461D01*
X158103465Y-88357562D01*
X158120091Y-88210003D01*
X158120091Y-88209996D01*
X158101787Y-88047544D01*
X158101786Y-88047541D01*
X158101786Y-88047539D01*
X158066238Y-87945951D01*
X158062676Y-87876177D01*
X158066232Y-87864066D01*
X158101786Y-87762461D01*
X158102467Y-87756418D01*
X158120091Y-87600003D01*
X158120091Y-87599996D01*
X158101787Y-87437542D01*
X158087272Y-87396062D01*
X158071153Y-87349996D01*
X161369909Y-87349996D01*
X161369909Y-87350003D01*
X161388212Y-87512455D01*
X161442210Y-87666774D01*
X161502331Y-87762455D01*
X161529192Y-87805204D01*
X161644796Y-87920808D01*
X161783225Y-88007789D01*
X161937539Y-88061786D01*
X161937542Y-88061786D01*
X161937544Y-88061787D01*
X162099996Y-88080091D01*
X162100000Y-88080091D01*
X162100004Y-88080091D01*
X162262455Y-88061787D01*
X162262456Y-88061786D01*
X162262461Y-88061786D01*
X162416775Y-88007789D01*
X162555204Y-87920808D01*
X162670808Y-87805204D01*
X162757789Y-87666775D01*
X162811786Y-87512461D01*
X162811787Y-87512455D01*
X162830091Y-87350003D01*
X162830091Y-87349999D01*
X162824565Y-87300955D01*
X162823119Y-87288126D01*
X162835173Y-87219305D01*
X162880365Y-87169249D01*
X163005204Y-87090808D01*
X163120808Y-86975204D01*
X163207789Y-86836775D01*
X163208706Y-86834156D01*
X163224528Y-86788938D01*
X163265249Y-86732161D01*
X163330202Y-86706413D01*
X163398763Y-86719869D01*
X163446563Y-86763918D01*
X163493389Y-86838441D01*
X163493391Y-86838443D01*
X163608995Y-86954047D01*
X163747424Y-87041028D01*
X163901738Y-87095025D01*
X163901741Y-87095025D01*
X163901743Y-87095026D01*
X164064195Y-87113330D01*
X164064199Y-87113330D01*
X164064203Y-87113330D01*
X164226654Y-87095026D01*
X164226655Y-87095025D01*
X164226660Y-87095025D01*
X164380974Y-87041028D01*
X164519403Y-86954047D01*
X164635007Y-86838443D01*
X164721988Y-86700014D01*
X164775985Y-86545700D01*
X164777406Y-86533088D01*
X164794290Y-86383242D01*
X164794290Y-86383235D01*
X164775986Y-86220783D01*
X164775985Y-86220781D01*
X164775985Y-86220778D01*
X164721988Y-86066464D01*
X164635007Y-85928035D01*
X164519403Y-85812431D01*
X164421221Y-85750739D01*
X164380973Y-85725449D01*
X164226654Y-85671451D01*
X164064203Y-85653148D01*
X164064195Y-85653148D01*
X163901743Y-85671451D01*
X163747424Y-85725449D01*
X163608994Y-85812431D01*
X163493391Y-85928034D01*
X163406408Y-86066465D01*
X163389669Y-86114303D01*
X163348947Y-86171079D01*
X163283994Y-86196825D01*
X163215432Y-86183368D01*
X163167634Y-86139319D01*
X163151915Y-86114303D01*
X163120808Y-86064796D01*
X163005204Y-85949192D01*
X162971531Y-85928034D01*
X162866774Y-85862210D01*
X162712455Y-85808212D01*
X162550004Y-85789909D01*
X162549996Y-85789909D01*
X162387544Y-85808212D01*
X162233225Y-85862210D01*
X162094795Y-85949192D01*
X161979192Y-86064795D01*
X161892210Y-86203225D01*
X161838212Y-86357544D01*
X161819909Y-86519996D01*
X161819909Y-86520003D01*
X161826880Y-86581875D01*
X161814825Y-86650697D01*
X161769632Y-86700752D01*
X161644795Y-86779192D01*
X161529192Y-86894795D01*
X161442210Y-87033225D01*
X161388212Y-87187544D01*
X161369909Y-87349996D01*
X158071153Y-87349996D01*
X158053992Y-87300954D01*
X158050431Y-87231176D01*
X158053993Y-87219045D01*
X158061822Y-87196670D01*
X158101786Y-87082461D01*
X158101786Y-87082459D01*
X158101787Y-87082457D01*
X158120091Y-86920003D01*
X158120091Y-86919996D01*
X158101787Y-86757544D01*
X158101786Y-86757542D01*
X158101786Y-86757539D01*
X158047789Y-86603225D01*
X157960808Y-86464796D01*
X157845204Y-86349192D01*
X157782823Y-86309995D01*
X157706774Y-86262210D01*
X157552455Y-86208212D01*
X157390004Y-86189909D01*
X157389996Y-86189909D01*
X157227544Y-86208212D01*
X157073225Y-86262210D01*
X156934795Y-86349192D01*
X156819192Y-86464795D01*
X156732210Y-86603225D01*
X156678212Y-86757544D01*
X156659909Y-86919996D01*
X150118598Y-86919996D01*
X150068423Y-85586774D01*
X149848759Y-79749996D01*
X159069909Y-79749996D01*
X159069909Y-79750003D01*
X159088212Y-79912455D01*
X159142210Y-80066774D01*
X159229192Y-80205204D01*
X159311307Y-80287319D01*
X159344792Y-80348642D01*
X159339808Y-80418334D01*
X159311307Y-80462681D01*
X159229192Y-80544795D01*
X159142210Y-80683225D01*
X159088212Y-80837544D01*
X159069909Y-80999996D01*
X159069909Y-81000003D01*
X159088212Y-81162455D01*
X159142210Y-81316774D01*
X159157389Y-81340931D01*
X159229192Y-81455204D01*
X159344796Y-81570808D01*
X159483225Y-81657789D01*
X159637539Y-81711786D01*
X159637542Y-81711786D01*
X159637544Y-81711787D01*
X159799996Y-81730091D01*
X159800000Y-81730091D01*
X159800004Y-81730091D01*
X159962455Y-81711787D01*
X159962456Y-81711786D01*
X159962461Y-81711786D01*
X160116775Y-81657789D01*
X160255204Y-81570808D01*
X160370808Y-81455204D01*
X160457789Y-81316775D01*
X160511786Y-81162461D01*
X160511787Y-81162455D01*
X160530091Y-81000003D01*
X160530091Y-80999996D01*
X160511787Y-80837544D01*
X160511786Y-80837542D01*
X160511786Y-80837539D01*
X160457789Y-80683225D01*
X160370808Y-80544796D01*
X160288693Y-80462681D01*
X160255208Y-80401358D01*
X160260192Y-80331666D01*
X160288693Y-80287319D01*
X160292787Y-80283225D01*
X160370808Y-80205204D01*
X160457789Y-80066775D01*
X160511786Y-79912461D01*
X160514518Y-79888214D01*
X160530091Y-79750003D01*
X160530091Y-79749996D01*
X160511787Y-79587544D01*
X160511786Y-79587542D01*
X160511786Y-79587539D01*
X160457789Y-79433225D01*
X160370808Y-79294796D01*
X160255204Y-79179192D01*
X160194874Y-79141284D01*
X160116774Y-79092210D01*
X159962455Y-79038212D01*
X159800004Y-79019909D01*
X159799996Y-79019909D01*
X159637544Y-79038212D01*
X159483225Y-79092210D01*
X159344795Y-79179192D01*
X159229192Y-79294795D01*
X159142210Y-79433225D01*
X159088212Y-79587544D01*
X159069909Y-79749996D01*
X149848759Y-79749996D01*
X149759587Y-77380568D01*
X149776736Y-77312838D01*
X149827782Y-77265130D01*
X149882813Y-77251909D01*
X159891185Y-77196766D01*
X159958329Y-77216081D01*
G37*
%TD.AperFunction*%
%TD*%
%TA.AperFunction,Conductor*%
%TO.N,+BATT*%
G36*
X172071116Y-71080421D02*
G01*
X172117672Y-71132520D01*
X172118767Y-71134890D01*
X174784319Y-77062145D01*
X175297599Y-78203499D01*
X175372945Y-78371042D01*
X175780143Y-79276508D01*
X175783590Y-79284171D01*
X175794500Y-79335029D01*
X175794500Y-85568371D01*
X175774815Y-85635410D01*
X175722011Y-85681165D01*
X175652853Y-85691109D01*
X175604530Y-85673366D01*
X175586776Y-85662211D01*
X175432455Y-85608212D01*
X175270004Y-85589909D01*
X175269996Y-85589909D01*
X175107544Y-85608212D01*
X174953225Y-85662210D01*
X174814795Y-85749192D01*
X174699192Y-85864795D01*
X174612209Y-86003226D01*
X174607989Y-86015288D01*
X174567266Y-86072064D01*
X174502313Y-86097810D01*
X174433752Y-86084353D01*
X174385955Y-86040304D01*
X174300812Y-85904801D01*
X174300807Y-85904795D01*
X174185204Y-85789192D01*
X174046774Y-85702210D01*
X173912939Y-85655379D01*
X173892461Y-85648214D01*
X173892460Y-85648213D01*
X173892455Y-85648212D01*
X173730004Y-85629909D01*
X173729996Y-85629909D01*
X173567544Y-85648212D01*
X173413225Y-85702210D01*
X173274797Y-85789191D01*
X173166602Y-85897386D01*
X173105279Y-85930870D01*
X173035587Y-85925886D01*
X172979654Y-85884014D01*
X172973939Y-85875695D01*
X172960808Y-85854796D01*
X172845204Y-85739192D01*
X172789104Y-85703942D01*
X172706774Y-85652210D01*
X172552455Y-85598212D01*
X172390004Y-85579909D01*
X172389996Y-85579909D01*
X172227544Y-85598212D01*
X172073225Y-85652210D01*
X171934795Y-85739192D01*
X171819192Y-85854795D01*
X171732210Y-85993225D01*
X171678212Y-86147544D01*
X171659909Y-86309996D01*
X171659909Y-86310003D01*
X171678212Y-86472455D01*
X171732210Y-86626774D01*
X171807744Y-86746985D01*
X171826744Y-86814222D01*
X171807744Y-86878929D01*
X171742210Y-86983225D01*
X171688212Y-87137544D01*
X171669909Y-87299996D01*
X171669909Y-87300003D01*
X171688212Y-87462455D01*
X171742210Y-87616774D01*
X171815886Y-87734028D01*
X171834886Y-87801265D01*
X171815886Y-87865972D01*
X171742210Y-87983225D01*
X171688212Y-88137544D01*
X171669909Y-88299996D01*
X171669909Y-88300003D01*
X171688212Y-88462455D01*
X171742210Y-88616774D01*
X171809162Y-88723326D01*
X171829192Y-88755204D01*
X171944796Y-88870808D01*
X172083225Y-88957789D01*
X172237539Y-89011786D01*
X172237542Y-89011786D01*
X172237544Y-89011787D01*
X172399996Y-89030091D01*
X172400000Y-89030091D01*
X172400004Y-89030091D01*
X172562455Y-89011787D01*
X172562456Y-89011786D01*
X172562461Y-89011786D01*
X172716775Y-88957789D01*
X172855204Y-88870808D01*
X172970808Y-88755204D01*
X173045006Y-88637119D01*
X173097341Y-88590828D01*
X173166395Y-88580180D01*
X173230243Y-88608555D01*
X173254994Y-88637119D01*
X173329192Y-88755204D01*
X173444796Y-88870808D01*
X173583225Y-88957789D01*
X173737539Y-89011786D01*
X173737542Y-89011786D01*
X173737544Y-89011787D01*
X173899996Y-89030091D01*
X173900000Y-89030091D01*
X173900004Y-89030091D01*
X174062455Y-89011787D01*
X174062456Y-89011786D01*
X174062461Y-89011786D01*
X174216775Y-88957789D01*
X174355204Y-88870808D01*
X174470808Y-88755204D01*
X174526841Y-88666027D01*
X174579175Y-88619738D01*
X174648228Y-88609090D01*
X174712077Y-88637465D01*
X174728781Y-88654688D01*
X174729190Y-88655201D01*
X174729192Y-88655204D01*
X174844796Y-88770808D01*
X174983225Y-88857789D01*
X175137539Y-88911786D01*
X175137542Y-88911786D01*
X175137544Y-88911787D01*
X175299996Y-88930091D01*
X175300000Y-88930091D01*
X175300004Y-88930091D01*
X175462455Y-88911787D01*
X175462456Y-88911786D01*
X175462461Y-88911786D01*
X175584461Y-88869095D01*
X175623349Y-88855489D01*
X175623760Y-88856665D01*
X175685629Y-88846472D01*
X175749766Y-88874189D01*
X175788736Y-88932181D01*
X175794500Y-88969546D01*
X175794500Y-88996571D01*
X175796871Y-89045470D01*
X175796872Y-89045486D01*
X175799190Y-89069338D01*
X175806284Y-89117806D01*
X175806284Y-89117807D01*
X175853803Y-89253608D01*
X175853805Y-89253613D01*
X175874749Y-89293901D01*
X175886033Y-89315608D01*
X175969886Y-89432519D01*
X175969891Y-89432524D01*
X175970531Y-89433024D01*
X175971003Y-89433683D01*
X175976030Y-89438919D01*
X175975277Y-89439641D01*
X176011250Y-89489802D01*
X176014809Y-89559581D01*
X176011249Y-89571704D01*
X175988213Y-89637539D01*
X175988213Y-89637540D01*
X175969909Y-89799996D01*
X175969909Y-89800003D01*
X175988212Y-89962455D01*
X175988213Y-89962460D01*
X176012434Y-90031678D01*
X176015995Y-90101457D01*
X175989105Y-90153836D01*
X175894433Y-90263093D01*
X175894430Y-90263097D01*
X175834664Y-90393963D01*
X175814976Y-90461011D01*
X175794500Y-90603430D01*
X175794500Y-104508729D01*
X175800016Y-104583179D01*
X175800018Y-104583199D01*
X175805402Y-104619344D01*
X175821838Y-104692212D01*
X175821840Y-104692216D01*
X175882939Y-104822473D01*
X175918624Y-104876775D01*
X175921313Y-104880866D01*
X175921316Y-104880869D01*
X175921318Y-104880872D01*
X175999728Y-104969519D01*
X176016639Y-104988637D01*
X176138465Y-105065186D01*
X176202313Y-105093561D01*
X176218078Y-105098016D01*
X176277238Y-105135186D01*
X176306911Y-105198442D01*
X176308360Y-105217398D01*
X176308217Y-105539179D01*
X176288503Y-105606210D01*
X176250190Y-105644117D01*
X176114797Y-105729190D01*
X175999192Y-105844795D01*
X175912210Y-105983225D01*
X175901246Y-106014558D01*
X175860523Y-106071333D01*
X175795570Y-106097079D01*
X175727008Y-106083622D01*
X175679211Y-106039573D01*
X175612973Y-105934157D01*
X175610886Y-105930836D01*
X175591887Y-105863601D01*
X175612254Y-105796765D01*
X175618942Y-105787542D01*
X175620794Y-105785217D01*
X175620808Y-105785204D01*
X175707789Y-105646775D01*
X175761786Y-105492461D01*
X175763061Y-105481147D01*
X175780091Y-105330003D01*
X175780091Y-105329996D01*
X175761787Y-105167544D01*
X175761786Y-105167542D01*
X175761786Y-105167539D01*
X175707789Y-105013225D01*
X175620808Y-104874796D01*
X175505204Y-104759192D01*
X175465360Y-104734156D01*
X175366774Y-104672210D01*
X175212455Y-104618212D01*
X175050004Y-104599909D01*
X175049996Y-104599909D01*
X174887544Y-104618212D01*
X174733225Y-104672210D01*
X174594795Y-104759192D01*
X174479192Y-104874795D01*
X174392210Y-105013225D01*
X174383790Y-105037288D01*
X174343067Y-105094063D01*
X174278114Y-105119809D01*
X174209552Y-105106352D01*
X174159150Y-105057963D01*
X174149707Y-105037284D01*
X174137790Y-105003226D01*
X174084183Y-104917912D01*
X174050808Y-104864796D01*
X173935204Y-104749192D01*
X173911276Y-104734157D01*
X173796774Y-104662210D01*
X173642455Y-104608212D01*
X173480004Y-104589909D01*
X173479996Y-104589909D01*
X173317544Y-104608212D01*
X173163225Y-104662210D01*
X173024795Y-104749192D01*
X173024794Y-104749193D01*
X172957679Y-104816307D01*
X172896355Y-104849792D01*
X172826664Y-104844806D01*
X172782318Y-104816306D01*
X172705204Y-104739192D01*
X172566774Y-104652210D01*
X172412455Y-104598212D01*
X172250004Y-104579909D01*
X172249996Y-104579909D01*
X172087544Y-104598212D01*
X171933225Y-104652210D01*
X171794795Y-104739192D01*
X171679192Y-104854795D01*
X171592210Y-104993225D01*
X171538212Y-105147544D01*
X171519909Y-105309996D01*
X171519909Y-105310003D01*
X171538212Y-105472455D01*
X171592211Y-105626777D01*
X171612610Y-105659242D01*
X171631610Y-105726479D01*
X171612610Y-105791185D01*
X171542210Y-105903225D01*
X171488212Y-106057544D01*
X171469909Y-106219996D01*
X171469909Y-106220003D01*
X171488212Y-106382455D01*
X171542210Y-106536774D01*
X171629192Y-106675204D01*
X171636307Y-106682319D01*
X171669792Y-106743642D01*
X171664808Y-106813334D01*
X171642294Y-106848365D01*
X171643533Y-106849353D01*
X171639192Y-106854795D01*
X171552210Y-106993225D01*
X171498212Y-107147544D01*
X171479909Y-107309996D01*
X171479909Y-107310003D01*
X171498212Y-107472455D01*
X171552210Y-107626774D01*
X171595475Y-107695629D01*
X171639192Y-107765204D01*
X171754796Y-107880808D01*
X171893225Y-107967789D01*
X172047539Y-108021786D01*
X172047542Y-108021786D01*
X172047544Y-108021787D01*
X172209996Y-108040091D01*
X172210000Y-108040091D01*
X172210004Y-108040091D01*
X172372455Y-108021787D01*
X172372456Y-108021786D01*
X172372461Y-108021786D01*
X172526775Y-107967789D01*
X172665204Y-107880808D01*
X172780808Y-107765204D01*
X172780808Y-107765203D01*
X172785732Y-107760280D01*
X172787487Y-107762035D01*
X172835242Y-107728517D01*
X172905054Y-107725668D01*
X172964195Y-107760352D01*
X172964268Y-107760280D01*
X172964545Y-107760557D01*
X172965324Y-107761014D01*
X172967412Y-107763424D01*
X172969192Y-107765204D01*
X173084796Y-107880808D01*
X173223225Y-107967789D01*
X173377539Y-108021786D01*
X173377542Y-108021786D01*
X173377544Y-108021787D01*
X173539996Y-108040091D01*
X173540000Y-108040091D01*
X173540004Y-108040091D01*
X173702455Y-108021787D01*
X173702456Y-108021786D01*
X173702461Y-108021786D01*
X173856775Y-107967789D01*
X173995204Y-107880808D01*
X174110808Y-107765204D01*
X174188148Y-107642117D01*
X174240482Y-107595828D01*
X174309535Y-107585180D01*
X174373384Y-107613555D01*
X174398134Y-107642118D01*
X174469190Y-107755202D01*
X174469192Y-107755204D01*
X174584796Y-107870808D01*
X174723225Y-107957789D01*
X174877539Y-108011786D01*
X174877542Y-108011786D01*
X174877544Y-108011787D01*
X175039996Y-108030091D01*
X175040000Y-108030091D01*
X175040004Y-108030091D01*
X175202455Y-108011787D01*
X175202456Y-108011786D01*
X175202461Y-108011786D01*
X175356775Y-107957789D01*
X175495204Y-107870808D01*
X175582819Y-107783193D01*
X175644142Y-107749708D01*
X175713834Y-107754692D01*
X175769767Y-107796564D01*
X175794184Y-107862028D01*
X175794500Y-107870874D01*
X175794500Y-108003692D01*
X175812851Y-108138656D01*
X175812852Y-108138660D01*
X175830535Y-108202480D01*
X175884266Y-108327660D01*
X175887401Y-108332837D01*
X175905280Y-108400380D01*
X175886319Y-108463027D01*
X175842210Y-108533225D01*
X175788212Y-108687544D01*
X175769909Y-108849996D01*
X175769909Y-108850003D01*
X175788212Y-109012455D01*
X175842211Y-109166778D01*
X175886901Y-109237900D01*
X175905902Y-109305136D01*
X175894702Y-109355384D01*
X175834664Y-109486846D01*
X175814976Y-109553894D01*
X175794500Y-109696313D01*
X175794500Y-110960938D01*
X175774815Y-111027977D01*
X175722011Y-111073732D01*
X175652853Y-111083676D01*
X175604529Y-111065932D01*
X175566777Y-111042211D01*
X175412455Y-110988212D01*
X175250004Y-110969909D01*
X175249996Y-110969909D01*
X175087544Y-110988212D01*
X174933225Y-111042210D01*
X174794795Y-111129192D01*
X174679192Y-111244795D01*
X174592210Y-111383225D01*
X174538212Y-111537544D01*
X174519909Y-111699996D01*
X174519909Y-111700003D01*
X174538212Y-111862455D01*
X174592210Y-112016774D01*
X174592211Y-112016775D01*
X174679192Y-112155204D01*
X174794796Y-112270808D01*
X174933225Y-112357789D01*
X175087539Y-112411786D01*
X175087542Y-112411786D01*
X175087544Y-112411787D01*
X175249996Y-112430091D01*
X175250000Y-112430091D01*
X175250004Y-112430091D01*
X175412455Y-112411787D01*
X175412456Y-112411786D01*
X175412461Y-112411786D01*
X175566775Y-112357789D01*
X175604527Y-112334068D01*
X175671764Y-112315067D01*
X175738599Y-112335434D01*
X175783813Y-112388702D01*
X175794500Y-112439061D01*
X175794500Y-117643807D01*
X175803285Y-117715117D01*
X175806875Y-117744267D01*
X175809613Y-117766488D01*
X175824220Y-117824876D01*
X175868656Y-117940224D01*
X175953779Y-118056220D01*
X175953779Y-118056221D01*
X176002706Y-118106088D01*
X176002722Y-118106101D01*
X176117057Y-118193402D01*
X176117063Y-118193406D01*
X176222953Y-118234055D01*
X176278485Y-118276457D01*
X176302277Y-118342152D01*
X176302514Y-118349873D01*
X176302293Y-118846607D01*
X176302123Y-118853041D01*
X176294422Y-118999997D01*
X176294422Y-119000002D01*
X176301987Y-119144373D01*
X176302157Y-119150917D01*
X176301935Y-119649865D01*
X176282221Y-119716896D01*
X176229396Y-119762627D01*
X176212872Y-119768787D01*
X176162495Y-119783579D01*
X176162492Y-119783581D01*
X176041462Y-119861363D01*
X176041451Y-119861371D01*
X175988659Y-119907115D01*
X175894433Y-120015856D01*
X175894430Y-120015860D01*
X175834664Y-120146726D01*
X175814976Y-120213774D01*
X175794500Y-120356193D01*
X175794500Y-122375500D01*
X175774815Y-122442539D01*
X175722011Y-122488294D01*
X175670500Y-122499500D01*
X169328429Y-122499500D01*
X169261390Y-122479815D01*
X169215635Y-122427011D01*
X169204430Y-122375901D01*
X169198043Y-120399409D01*
X169217510Y-120332306D01*
X169270166Y-120286381D01*
X169283725Y-120281077D01*
X169328406Y-120266559D01*
X169328412Y-120266557D01*
X169328416Y-120266555D01*
X169517816Y-120170051D01*
X169552176Y-120145087D01*
X169689786Y-120045109D01*
X169689788Y-120045106D01*
X169689792Y-120045104D01*
X169840104Y-119894792D01*
X169959683Y-119730204D01*
X170015011Y-119687540D01*
X170084624Y-119681561D01*
X170146420Y-119714166D01*
X170160313Y-119730199D01*
X170279892Y-119894786D01*
X170279896Y-119894792D01*
X170430213Y-120045109D01*
X170602179Y-120170048D01*
X170602181Y-120170049D01*
X170602184Y-120170051D01*
X170791588Y-120266557D01*
X170993757Y-120332246D01*
X171203713Y-120365500D01*
X171203714Y-120365500D01*
X171416286Y-120365500D01*
X171416287Y-120365500D01*
X171626243Y-120332246D01*
X171828412Y-120266557D01*
X172017816Y-120170051D01*
X172052176Y-120145087D01*
X172189786Y-120045109D01*
X172189788Y-120045106D01*
X172189792Y-120045104D01*
X172340104Y-119894792D01*
X172340106Y-119894788D01*
X172340109Y-119894786D01*
X172465048Y-119722820D01*
X172465047Y-119722820D01*
X172465051Y-119722816D01*
X172561557Y-119533412D01*
X172627246Y-119331243D01*
X172660500Y-119121287D01*
X172660500Y-118658713D01*
X172627246Y-118448757D01*
X172561557Y-118246588D01*
X172465051Y-118057184D01*
X172465049Y-118057181D01*
X172465048Y-118057179D01*
X172340109Y-117885213D01*
X172189786Y-117734890D01*
X172017820Y-117609951D01*
X171828414Y-117513444D01*
X171828413Y-117513443D01*
X171828412Y-117513443D01*
X171626243Y-117447754D01*
X171626241Y-117447753D01*
X171626240Y-117447753D01*
X171464957Y-117422208D01*
X171416287Y-117414500D01*
X171203713Y-117414500D01*
X171155042Y-117422208D01*
X170993760Y-117447753D01*
X170791585Y-117513444D01*
X170602179Y-117609951D01*
X170430213Y-117734890D01*
X170279894Y-117885209D01*
X170279890Y-117885214D01*
X170160318Y-118049793D01*
X170104989Y-118092459D01*
X170035375Y-118098438D01*
X169973580Y-118065833D01*
X169959682Y-118049793D01*
X169840109Y-117885214D01*
X169840105Y-117885209D01*
X169689786Y-117734890D01*
X169517820Y-117609951D01*
X169328416Y-117513444D01*
X169300545Y-117504388D01*
X169273960Y-117495750D01*
X169216286Y-117456313D01*
X169189088Y-117391954D01*
X169188281Y-117378237D01*
X169154555Y-106939996D01*
X169549909Y-106939996D01*
X169549909Y-106940003D01*
X169568212Y-107102455D01*
X169622210Y-107256774D01*
X169699304Y-107379467D01*
X169709192Y-107395204D01*
X169824796Y-107510808D01*
X169963225Y-107597789D01*
X170117539Y-107651786D01*
X170117542Y-107651786D01*
X170117544Y-107651787D01*
X170279996Y-107670091D01*
X170280000Y-107670091D01*
X170280004Y-107670091D01*
X170442455Y-107651787D01*
X170442456Y-107651786D01*
X170442461Y-107651786D01*
X170596775Y-107597789D01*
X170735204Y-107510808D01*
X170850808Y-107395204D01*
X170937789Y-107256775D01*
X170991786Y-107102461D01*
X170991787Y-107102455D01*
X171010091Y-106940003D01*
X171010091Y-106939996D01*
X170991787Y-106777544D01*
X170991786Y-106777542D01*
X170991786Y-106777539D01*
X170937789Y-106623225D01*
X170850808Y-106484796D01*
X170735204Y-106369192D01*
X170670407Y-106328477D01*
X170596774Y-106282210D01*
X170442455Y-106228212D01*
X170280004Y-106209909D01*
X170279996Y-106209909D01*
X170117544Y-106228212D01*
X169963225Y-106282210D01*
X169824795Y-106369192D01*
X169709192Y-106484795D01*
X169622210Y-106623225D01*
X169568212Y-106777544D01*
X169549909Y-106939996D01*
X169154555Y-106939996D01*
X169149598Y-105405750D01*
X169169066Y-105338650D01*
X169221721Y-105292725D01*
X169290847Y-105282558D01*
X169339570Y-105300359D01*
X169374222Y-105322132D01*
X169383225Y-105327789D01*
X169537539Y-105381786D01*
X169537542Y-105381786D01*
X169537544Y-105381787D01*
X169699996Y-105400091D01*
X169700000Y-105400091D01*
X169700004Y-105400091D01*
X169862455Y-105381787D01*
X169862456Y-105381786D01*
X169862461Y-105381786D01*
X170016775Y-105327789D01*
X170155204Y-105240808D01*
X170270808Y-105125204D01*
X170357789Y-104986775D01*
X170411786Y-104832461D01*
X170412911Y-104822476D01*
X170430091Y-104670003D01*
X170430091Y-104669996D01*
X170411787Y-104507544D01*
X170411786Y-104507542D01*
X170411786Y-104507539D01*
X170357789Y-104353225D01*
X170270808Y-104214796D01*
X170155204Y-104099192D01*
X170129198Y-104082851D01*
X170016774Y-104012210D01*
X169862455Y-103958212D01*
X169700004Y-103939909D01*
X169699996Y-103939909D01*
X169537544Y-103958212D01*
X169383224Y-104012210D01*
X169334827Y-104042621D01*
X169267590Y-104061621D01*
X169200755Y-104041253D01*
X169155541Y-103987985D01*
X169144856Y-103938028D01*
X169129388Y-99150807D01*
X169127204Y-98474996D01*
X171889909Y-98474996D01*
X171889909Y-98475003D01*
X171908212Y-98637455D01*
X171962210Y-98791774D01*
X172028186Y-98896774D01*
X172049192Y-98930204D01*
X172164796Y-99045808D01*
X172303225Y-99132789D01*
X172457539Y-99186786D01*
X172457542Y-99186786D01*
X172457544Y-99186787D01*
X172619996Y-99205091D01*
X172620000Y-99205091D01*
X172620004Y-99205091D01*
X172782455Y-99186787D01*
X172782456Y-99186786D01*
X172782461Y-99186786D01*
X172936775Y-99132789D01*
X173075204Y-99045808D01*
X173190808Y-98930204D01*
X173235654Y-98858832D01*
X173287986Y-98812543D01*
X173357040Y-98801894D01*
X173420888Y-98830269D01*
X173457686Y-98883848D01*
X173462208Y-98896771D01*
X173483391Y-98930483D01*
X173549192Y-99035204D01*
X173664796Y-99150808D01*
X173803225Y-99237789D01*
X173957539Y-99291786D01*
X173957542Y-99291786D01*
X173957544Y-99291787D01*
X174119996Y-99310091D01*
X174120000Y-99310091D01*
X174120004Y-99310091D01*
X174282455Y-99291787D01*
X174282456Y-99291786D01*
X174282461Y-99291786D01*
X174436775Y-99237789D01*
X174575204Y-99150808D01*
X174690808Y-99035204D01*
X174777789Y-98896775D01*
X174831786Y-98742461D01*
X174843617Y-98637461D01*
X174850091Y-98580003D01*
X174850091Y-98579996D01*
X174831787Y-98417544D01*
X174831786Y-98417542D01*
X174831786Y-98417539D01*
X174777789Y-98263225D01*
X174690808Y-98124796D01*
X174575204Y-98009192D01*
X174436774Y-97922210D01*
X174282455Y-97868212D01*
X174120004Y-97849909D01*
X174119996Y-97849909D01*
X173957544Y-97868212D01*
X173803225Y-97922210D01*
X173664795Y-98009192D01*
X173549192Y-98124795D01*
X173549190Y-98124798D01*
X173504346Y-98196166D01*
X173452011Y-98242457D01*
X173382957Y-98253104D01*
X173319109Y-98224728D01*
X173282312Y-98171148D01*
X173277790Y-98158227D01*
X173232724Y-98086505D01*
X173190808Y-98019796D01*
X173075204Y-97904192D01*
X173017946Y-97868214D01*
X172936774Y-97817210D01*
X172782455Y-97763212D01*
X172620004Y-97744909D01*
X172619996Y-97744909D01*
X172457544Y-97763212D01*
X172303225Y-97817210D01*
X172164795Y-97904192D01*
X172049192Y-98019795D01*
X171962210Y-98158225D01*
X171908212Y-98312544D01*
X171889909Y-98474996D01*
X169127204Y-98474996D01*
X169110807Y-93399996D01*
X173769909Y-93399996D01*
X173769909Y-93400003D01*
X173788212Y-93562455D01*
X173842210Y-93716774D01*
X173908882Y-93822881D01*
X173929192Y-93855204D01*
X174044796Y-93970808D01*
X174183225Y-94057789D01*
X174337539Y-94111786D01*
X174337542Y-94111786D01*
X174337544Y-94111787D01*
X174499996Y-94130091D01*
X174500000Y-94130091D01*
X174500004Y-94130091D01*
X174662455Y-94111787D01*
X174662456Y-94111786D01*
X174662461Y-94111786D01*
X174816775Y-94057789D01*
X174955204Y-93970808D01*
X175070808Y-93855204D01*
X175157789Y-93716775D01*
X175211786Y-93562461D01*
X175230091Y-93400000D01*
X175220344Y-93313494D01*
X175211787Y-93237544D01*
X175211786Y-93237542D01*
X175211786Y-93237539D01*
X175157789Y-93083225D01*
X175070808Y-92944796D01*
X174955204Y-92829192D01*
X174816774Y-92742210D01*
X174682939Y-92695379D01*
X174662461Y-92688214D01*
X174662460Y-92688213D01*
X174662455Y-92688212D01*
X174500004Y-92669909D01*
X174499996Y-92669909D01*
X174337544Y-92688212D01*
X174183225Y-92742210D01*
X174044795Y-92829192D01*
X173929192Y-92944795D01*
X173842210Y-93083225D01*
X173788212Y-93237544D01*
X173769909Y-93399996D01*
X169110807Y-93399996D01*
X169090000Y-86960000D01*
X168166682Y-85902868D01*
X168137409Y-85839428D01*
X168147080Y-85770231D01*
X168172395Y-85733616D01*
X168180808Y-85725204D01*
X168267789Y-85586775D01*
X168321786Y-85432461D01*
X168322746Y-85423942D01*
X168340091Y-85270003D01*
X168340091Y-85269996D01*
X168321787Y-85107544D01*
X168321786Y-85107542D01*
X168321786Y-85107539D01*
X168267789Y-84953225D01*
X168180808Y-84814796D01*
X168065204Y-84699192D01*
X168000972Y-84658832D01*
X167926774Y-84612210D01*
X167772455Y-84558212D01*
X167610004Y-84539909D01*
X167609996Y-84539909D01*
X167447544Y-84558212D01*
X167293224Y-84612210D01*
X167219027Y-84658832D01*
X167151790Y-84677832D01*
X167084955Y-84657464D01*
X167059662Y-84635409D01*
X165456579Y-82799996D01*
X166939909Y-82799996D01*
X166939909Y-82800003D01*
X166958212Y-82962455D01*
X167012210Y-83116774D01*
X167085830Y-83233939D01*
X167099192Y-83255204D01*
X167214796Y-83370808D01*
X167353225Y-83457789D01*
X167507539Y-83511786D01*
X167507542Y-83511786D01*
X167507544Y-83511787D01*
X167669996Y-83530091D01*
X167670000Y-83530091D01*
X167670004Y-83530091D01*
X167832455Y-83511787D01*
X167832456Y-83511786D01*
X167832461Y-83511786D01*
X167986775Y-83457789D01*
X168125204Y-83370808D01*
X168240808Y-83255204D01*
X168327789Y-83116775D01*
X168381786Y-82962461D01*
X168383190Y-82950000D01*
X168400091Y-82800003D01*
X168400091Y-82799996D01*
X168381787Y-82637544D01*
X168381786Y-82637542D01*
X168381786Y-82637539D01*
X168327789Y-82483225D01*
X168324373Y-82477789D01*
X168257434Y-82371256D01*
X168238433Y-82304019D01*
X168258800Y-82237184D01*
X168296453Y-82200290D01*
X168375204Y-82150808D01*
X168490808Y-82035204D01*
X168577789Y-81896775D01*
X168631786Y-81742461D01*
X168633180Y-81730091D01*
X168650091Y-81580003D01*
X168650091Y-81579996D01*
X168631787Y-81417544D01*
X168631786Y-81417542D01*
X168631786Y-81417539D01*
X168577789Y-81263225D01*
X168490808Y-81124796D01*
X168375204Y-81009192D01*
X168360575Y-81000000D01*
X168236774Y-80922210D01*
X168082455Y-80868212D01*
X167920004Y-80849909D01*
X167919996Y-80849909D01*
X167757544Y-80868212D01*
X167603225Y-80922210D01*
X167464795Y-81009192D01*
X167349192Y-81124795D01*
X167262210Y-81263225D01*
X167208212Y-81417544D01*
X167189909Y-81579996D01*
X167189909Y-81580003D01*
X167208212Y-81742455D01*
X167262210Y-81896774D01*
X167332566Y-82008745D01*
X167351566Y-82075982D01*
X167331198Y-82142817D01*
X167293545Y-82179710D01*
X167214797Y-82229190D01*
X167099192Y-82344795D01*
X167012210Y-82483225D01*
X166958212Y-82637544D01*
X166939909Y-82799996D01*
X165456579Y-82799996D01*
X163148828Y-80157789D01*
X161954174Y-78789996D01*
X165369909Y-78789996D01*
X165369909Y-78790003D01*
X165388212Y-78952455D01*
X165442210Y-79106774D01*
X165492962Y-79187544D01*
X165529192Y-79245204D01*
X165644796Y-79360808D01*
X165783225Y-79447789D01*
X165937539Y-79501786D01*
X165937542Y-79501786D01*
X165937544Y-79501787D01*
X166099996Y-79520091D01*
X166100000Y-79520091D01*
X166100004Y-79520091D01*
X166262455Y-79501787D01*
X166262456Y-79501786D01*
X166262461Y-79501786D01*
X166267577Y-79499996D01*
X171969909Y-79499996D01*
X171969909Y-79500003D01*
X171988212Y-79662455D01*
X171988213Y-79662460D01*
X171988214Y-79662461D01*
X171989723Y-79666774D01*
X172042210Y-79816774D01*
X172042211Y-79816775D01*
X172129192Y-79955204D01*
X172244796Y-80070808D01*
X172383225Y-80157789D01*
X172537539Y-80211786D01*
X172537542Y-80211786D01*
X172537544Y-80211787D01*
X172699996Y-80230091D01*
X172700000Y-80230091D01*
X172700004Y-80230091D01*
X172862455Y-80211787D01*
X172862456Y-80211786D01*
X172862461Y-80211786D01*
X173016775Y-80157789D01*
X173155204Y-80070808D01*
X173270808Y-79955204D01*
X173357789Y-79816775D01*
X173409202Y-79669843D01*
X173449923Y-79613070D01*
X173514875Y-79587322D01*
X173583437Y-79600778D01*
X173633840Y-79649165D01*
X173639047Y-79660567D01*
X173639188Y-79660500D01*
X173642207Y-79666769D01*
X173693686Y-79748697D01*
X173729192Y-79805204D01*
X173844796Y-79920808D01*
X173983225Y-80007789D01*
X174137539Y-80061786D01*
X174137542Y-80061786D01*
X174137544Y-80061787D01*
X174299996Y-80080091D01*
X174300000Y-80080091D01*
X174300004Y-80080091D01*
X174462455Y-80061787D01*
X174462456Y-80061786D01*
X174462461Y-80061786D01*
X174616775Y-80007789D01*
X174755204Y-79920808D01*
X174870808Y-79805204D01*
X174957789Y-79666775D01*
X175011786Y-79512461D01*
X175013190Y-79500000D01*
X175030091Y-79350003D01*
X175030091Y-79349996D01*
X175011787Y-79187544D01*
X175011786Y-79187542D01*
X175011786Y-79187539D01*
X174957789Y-79033225D01*
X174870808Y-78894796D01*
X174755204Y-78779192D01*
X174649665Y-78712877D01*
X174616774Y-78692210D01*
X174462455Y-78638212D01*
X174300004Y-78619909D01*
X174299996Y-78619909D01*
X174137544Y-78638212D01*
X173983225Y-78692210D01*
X173844795Y-78779192D01*
X173729192Y-78894795D01*
X173642209Y-79033227D01*
X173590797Y-79180154D01*
X173550076Y-79236930D01*
X173485123Y-79262677D01*
X173416561Y-79249221D01*
X173366159Y-79200833D01*
X173360952Y-79189432D01*
X173360812Y-79189500D01*
X173357792Y-79183230D01*
X173355255Y-79179192D01*
X173270808Y-79044796D01*
X173155204Y-78929192D01*
X173085874Y-78885629D01*
X173016774Y-78842210D01*
X172882939Y-78795379D01*
X172862461Y-78788214D01*
X172862460Y-78788213D01*
X172862455Y-78788212D01*
X172700004Y-78769909D01*
X172699996Y-78769909D01*
X172537544Y-78788212D01*
X172383225Y-78842210D01*
X172244795Y-78929192D01*
X172129192Y-79044795D01*
X172042210Y-79183225D01*
X171988212Y-79337544D01*
X171969909Y-79499996D01*
X166267577Y-79499996D01*
X166416775Y-79447789D01*
X166555204Y-79360808D01*
X166670808Y-79245204D01*
X166757789Y-79106775D01*
X166811786Y-78952461D01*
X166816060Y-78914527D01*
X166830091Y-78790003D01*
X166830091Y-78789996D01*
X166811787Y-78627544D01*
X166811786Y-78627542D01*
X166811786Y-78627539D01*
X166757789Y-78473225D01*
X166670808Y-78334796D01*
X166555204Y-78219192D01*
X166495035Y-78181385D01*
X166416774Y-78132210D01*
X166262455Y-78078212D01*
X166100004Y-78059909D01*
X166099996Y-78059909D01*
X165937544Y-78078212D01*
X165783225Y-78132210D01*
X165644795Y-78219192D01*
X165529192Y-78334795D01*
X165442210Y-78473225D01*
X165388212Y-78627544D01*
X165369909Y-78789996D01*
X161954174Y-78789996D01*
X160489087Y-77112577D01*
X160459814Y-77049139D01*
X160469485Y-76979942D01*
X160488899Y-76949656D01*
X160525203Y-76907902D01*
X160585193Y-76777124D01*
X160604695Y-76711113D01*
X160604984Y-76710166D01*
X160625703Y-76567745D01*
X160625705Y-76567734D01*
X160626479Y-76105447D01*
X160626173Y-76086973D01*
X160625857Y-76077917D01*
X160624875Y-76059475D01*
X160594289Y-75918883D01*
X160572192Y-75859642D01*
X160570743Y-75855015D01*
X160500916Y-75727141D01*
X160500915Y-75727140D01*
X160500914Y-75727138D01*
X160399173Y-75625402D01*
X160399171Y-75625400D01*
X160399162Y-75625393D01*
X160339695Y-75580879D01*
X160340635Y-75579622D01*
X160299261Y-75531848D01*
X160289336Y-75462687D01*
X160318378Y-75399139D01*
X160345197Y-75375945D01*
X160380783Y-75353160D01*
X160433664Y-75307493D01*
X160528065Y-75198916D01*
X160588055Y-75068138D01*
X160607852Y-75001132D01*
X160607852Y-75001130D01*
X160628567Y-74858749D01*
X160631205Y-73284085D01*
X160631205Y-73284082D01*
X160631205Y-73284080D01*
X160613897Y-73152097D01*
X160613896Y-73152087D01*
X160597098Y-73089559D01*
X160597097Y-73089558D01*
X160597096Y-73089552D01*
X160597095Y-73089551D01*
X160553611Y-72985109D01*
X160545928Y-72966656D01*
X160501289Y-72910240D01*
X160456653Y-72853826D01*
X160456651Y-72853824D01*
X160405938Y-72805757D01*
X160405615Y-72805529D01*
X160345204Y-72762782D01*
X160288488Y-72722649D01*
X160288486Y-72722648D01*
X160280592Y-72718608D01*
X160281968Y-72715917D01*
X160237259Y-72684282D01*
X160211096Y-72619495D01*
X160210499Y-72607357D01*
X160210499Y-71364007D01*
X160230184Y-71296969D01*
X160282988Y-71251214D01*
X160332604Y-71240022D01*
X163866057Y-71186053D01*
X163933388Y-71204712D01*
X163979944Y-71256811D01*
X163990942Y-71325810D01*
X163985881Y-71348354D01*
X163972753Y-71388758D01*
X163972753Y-71388759D01*
X163939500Y-71598713D01*
X163939500Y-72061286D01*
X163964257Y-72217600D01*
X163972754Y-72271243D01*
X163997042Y-72345994D01*
X164038444Y-72473414D01*
X164134951Y-72662820D01*
X164259890Y-72834786D01*
X164410213Y-72985109D01*
X164582179Y-73110048D01*
X164582181Y-73110049D01*
X164582184Y-73110051D01*
X164771588Y-73206557D01*
X164973757Y-73272246D01*
X165183713Y-73305500D01*
X165183714Y-73305500D01*
X165396286Y-73305500D01*
X165396287Y-73305500D01*
X165606243Y-73272246D01*
X165808412Y-73206557D01*
X165997816Y-73110051D01*
X166026032Y-73089551D01*
X166169786Y-72985109D01*
X166169788Y-72985106D01*
X166169792Y-72985104D01*
X166320104Y-72834792D01*
X166439991Y-72669779D01*
X166495320Y-72627115D01*
X166564933Y-72621136D01*
X166626729Y-72653741D01*
X166640627Y-72669781D01*
X166760272Y-72834459D01*
X166760276Y-72834464D01*
X166910535Y-72984723D01*
X166910540Y-72984727D01*
X167082442Y-73109620D01*
X167271782Y-73206095D01*
X167473871Y-73271757D01*
X167540000Y-73282231D01*
X167540000Y-72234145D01*
X167606657Y-72272630D01*
X167727465Y-72305000D01*
X167852535Y-72305000D01*
X167973343Y-72272630D01*
X168040000Y-72234145D01*
X168040000Y-73282230D01*
X168106126Y-73271757D01*
X168106129Y-73271757D01*
X168308217Y-73206095D01*
X168497557Y-73109620D01*
X168669458Y-72984728D01*
X168808330Y-72845856D01*
X168869653Y-72812371D01*
X168939345Y-72817355D01*
X168995279Y-72859226D01*
X169001551Y-72868440D01*
X169005185Y-72874331D01*
X169005186Y-72874334D01*
X169097288Y-73023656D01*
X169221344Y-73147712D01*
X169370666Y-73239814D01*
X169537203Y-73294999D01*
X169639991Y-73305500D01*
X170940008Y-73305499D01*
X171042797Y-73294999D01*
X171209334Y-73239814D01*
X171358656Y-73147712D01*
X171482712Y-73023656D01*
X171574814Y-72874334D01*
X171629999Y-72707797D01*
X171640500Y-72605009D01*
X171640499Y-71189430D01*
X171660184Y-71122392D01*
X171712987Y-71076637D01*
X171762604Y-71065445D01*
X172003784Y-71061762D01*
X172071116Y-71080421D01*
G37*
%TD.AperFunction*%
%TD*%
M02*
