%TF.GenerationSoftware,KiCad,Pcbnew,8.0.5*%
%TF.CreationDate,2024-09-20T22:50:29+02:00*%
%TF.ProjectId,ESE_AL8,4553455f-414c-4382-9e6b-696361645f70,rev?*%
%TF.SameCoordinates,Original*%
%TF.FileFunction,Copper,L3,Inr*%
%TF.FilePolarity,Positive*%
%FSLAX46Y46*%
G04 Gerber Fmt 4.6, Leading zero omitted, Abs format (unit mm)*
G04 Created by KiCad (PCBNEW 8.0.5) date 2024-09-20 22:50:29*
%MOMM*%
%LPD*%
G01*
G04 APERTURE LIST*
G04 Aperture macros list*
%AMRoundRect*
0 Rectangle with rounded corners*
0 $1 Rounding radius*
0 $2 $3 $4 $5 $6 $7 $8 $9 X,Y pos of 4 corners*
0 Add a 4 corners polygon primitive as box body*
4,1,4,$2,$3,$4,$5,$6,$7,$8,$9,$2,$3,0*
0 Add four circle primitives for the rounded corners*
1,1,$1+$1,$2,$3*
1,1,$1+$1,$4,$5*
1,1,$1+$1,$6,$7*
1,1,$1+$1,$8,$9*
0 Add four rect primitives between the rounded corners*
20,1,$1+$1,$2,$3,$4,$5,0*
20,1,$1+$1,$4,$5,$6,$7,0*
20,1,$1+$1,$6,$7,$8,$9,0*
20,1,$1+$1,$8,$9,$2,$3,0*%
G04 Aperture macros list end*
%TA.AperFunction,ComponentPad*%
%ADD10R,1.700000X1.700000*%
%TD*%
%TA.AperFunction,ComponentPad*%
%ADD11O,1.700000X1.700000*%
%TD*%
%TA.AperFunction,ComponentPad*%
%ADD12RoundRect,0.250000X0.725000X-0.600000X0.725000X0.600000X-0.725000X0.600000X-0.725000X-0.600000X0*%
%TD*%
%TA.AperFunction,ComponentPad*%
%ADD13O,1.950000X1.700000*%
%TD*%
%TA.AperFunction,ComponentPad*%
%ADD14C,0.800000*%
%TD*%
%TA.AperFunction,ComponentPad*%
%ADD15C,6.400000*%
%TD*%
%TA.AperFunction,ComponentPad*%
%ADD16RoundRect,0.250000X-0.600000X-0.750000X0.600000X-0.750000X0.600000X0.750000X-0.600000X0.750000X0*%
%TD*%
%TA.AperFunction,ComponentPad*%
%ADD17O,1.700000X2.000000*%
%TD*%
%TA.AperFunction,ComponentPad*%
%ADD18RoundRect,0.250000X-0.725000X0.600000X-0.725000X-0.600000X0.725000X-0.600000X0.725000X0.600000X0*%
%TD*%
%TA.AperFunction,ComponentPad*%
%ADD19RoundRect,0.250000X-0.600000X-0.725000X0.600000X-0.725000X0.600000X0.725000X-0.600000X0.725000X0*%
%TD*%
%TA.AperFunction,ComponentPad*%
%ADD20O,1.700000X1.950000*%
%TD*%
%TA.AperFunction,ComponentPad*%
%ADD21O,3.000000X3.000000*%
%TD*%
%TA.AperFunction,ViaPad*%
%ADD22C,0.700000*%
%TD*%
%TA.AperFunction,Conductor*%
%ADD23C,0.300000*%
%TD*%
G04 APERTURE END LIST*
D10*
%TO.N,GND*%
%TO.C,J102*%
X142400000Y-73800000D03*
D11*
%TO.N,+5V*%
X142400000Y-76340000D03*
%TO.N,SDA_ACCELERO*%
X142400000Y-78880000D03*
%TO.N,SCL_ACCELERO*%
X142400000Y-81420000D03*
%TD*%
D10*
%TO.N,GPIO1*%
%TO.C,J101*%
X147600000Y-73800000D03*
D11*
%TO.N,GPIO2*%
X147600000Y-76340000D03*
%TO.N,GPIO3*%
X147600000Y-78880000D03*
%TD*%
D12*
%TO.N,MOTEUR1-*%
%TO.C,J202*%
X196700000Y-87600000D03*
D13*
%TO.N,GND*%
X196700000Y-85100000D03*
%TO.N,PHASE_A1*%
X196700000Y-82600000D03*
%TO.N,PHASE_B1*%
X196700000Y-80100000D03*
%TO.N,+3.3V*%
X196700000Y-77600000D03*
%TO.N,MOTEUR1+*%
X196700000Y-75100000D03*
%TD*%
D14*
%TO.N,N/C*%
%TO.C,H104*%
X192200000Y-115302900D03*
X192902944Y-113605844D03*
X192902944Y-116999956D03*
X194600000Y-112902900D03*
D15*
X194600000Y-115302900D03*
D14*
X194600000Y-117702900D03*
X196297056Y-113605844D03*
X196297056Y-116999956D03*
X197000000Y-115302900D03*
%TD*%
D16*
%TO.N,+7.2V*%
%TO.C,J301*%
X183700000Y-62300000D03*
D17*
%TO.N,GND*%
X186200000Y-62300000D03*
%TD*%
D18*
%TO.N,+5V*%
%TO.C,J204*%
X143300000Y-89500000D03*
D13*
%TO.N,TX_LIDAR*%
X143300000Y-92000000D03*
%TO.N,RX_LIDAR*%
X143300000Y-94500000D03*
%TO.N,GND*%
X143300000Y-97000000D03*
%TO.N,M_EN_LIDAR*%
X143300000Y-99500000D03*
%TO.N,DEV_EN_LIDAR*%
X143300000Y-102000000D03*
%TO.N,M_SCTR_LIDAR*%
X143300000Y-104500000D03*
%TD*%
D14*
%TO.N,N/C*%
%TO.C,H102*%
X192902900Y-64697100D03*
X193605844Y-63000044D03*
X193605844Y-66394156D03*
X195302900Y-62297100D03*
D15*
X195302900Y-64697100D03*
D14*
X195302900Y-67097100D03*
X196999956Y-63000044D03*
X196999956Y-66394156D03*
X197702900Y-64697100D03*
%TD*%
D12*
%TO.N,MOTEUR2-*%
%TO.C,J203*%
X196700000Y-107000000D03*
D13*
%TO.N,GND*%
X196700000Y-104500000D03*
%TO.N,PHASE_A2*%
X196700000Y-102000000D03*
%TO.N,PHASE_B2*%
X196700000Y-99500000D03*
%TO.N,+3.3V*%
X196700000Y-97000000D03*
%TO.N,MOTEUR2+*%
X196700000Y-94500000D03*
%TD*%
D14*
%TO.N,N/C*%
%TO.C,H101*%
X142200000Y-65000000D03*
X142902944Y-63302944D03*
X142902944Y-66697056D03*
X144600000Y-62600000D03*
D15*
X144600000Y-65000000D03*
D14*
X144600000Y-67400000D03*
X146297056Y-63302944D03*
X146297056Y-66697056D03*
X147000000Y-65000000D03*
%TD*%
%TO.N,N/C*%
%TO.C,H103*%
X142297100Y-115302900D03*
X143000044Y-113605844D03*
X143000044Y-116999956D03*
X144697100Y-112902900D03*
D15*
X144697100Y-115302900D03*
D14*
X144697100Y-117702900D03*
X146394156Y-113605844D03*
X146394156Y-116999956D03*
X147097100Y-115302900D03*
%TD*%
D19*
%TO.N,+3.3V*%
%TO.C,J206*%
X178900000Y-110500000D03*
D20*
%TO.N,GND*%
X181400000Y-110500000D03*
%TO.N,CB_OUT2*%
X183900000Y-110500000D03*
%TO.N,CB_IN*%
X186400000Y-110500000D03*
%TD*%
D19*
%TO.N,+3.3V*%
%TO.C,J205*%
X152500000Y-110400000D03*
D20*
%TO.N,GND*%
X155000000Y-110400000D03*
%TO.N,CB_OUT1*%
X157500000Y-110400000D03*
%TO.N,CB_IN*%
X160000000Y-110400000D03*
%TD*%
D19*
%TO.N,+3.3V*%
%TO.C,J208*%
X178800000Y-116000000D03*
D20*
%TO.N,GND*%
X181300000Y-116000000D03*
%TO.N,CB_OUT4*%
X183800000Y-116000000D03*
%TO.N,CB_IN*%
X186300000Y-116000000D03*
%TD*%
D19*
%TO.N,+3.3V*%
%TO.C,J207*%
X152400000Y-115900000D03*
D20*
%TO.N,GND*%
X154900000Y-115900000D03*
%TO.N,CB_OUT3*%
X157400000Y-115900000D03*
%TO.N,CB_IN*%
X159900000Y-115900000D03*
%TD*%
D21*
%TO.N,+7.2V*%
%TO.C,SW301*%
X178900000Y-68900000D03*
%TO.N,VIN*%
X183600000Y-68900000D03*
%TO.N,GND*%
X188300000Y-68900000D03*
%TD*%
D22*
%TO.N,GND*%
X160220000Y-72970000D03*
X163680000Y-90460000D03*
X155380000Y-89040000D03*
X182620000Y-87980000D03*
X191670000Y-109400000D03*
X172320000Y-88800000D03*
%TO.N,RX_LIDAR*%
X147120000Y-107050000D03*
%TO.N,GND*%
X170100000Y-106710000D03*
X159710000Y-105460000D03*
X179620000Y-77040000D03*
X169160000Y-74210000D03*
X153750000Y-67440000D03*
%TO.N,PHASE_B2*%
X189490000Y-99530000D03*
X170360000Y-94490000D03*
%TO.N,GND*%
X159450000Y-97137500D03*
%TO.N,M_SCTR_LIDAR*%
X169480000Y-97520000D03*
%TO.N,FWD2*%
X180260000Y-96180000D03*
X176100000Y-96280000D03*
%TO.N,INT1_ACCELERO*%
X159160000Y-89860000D03*
X172410300Y-92547000D03*
%TO.N,SCL_ACCELERO*%
X163750000Y-88770000D03*
X156023000Y-85733200D03*
%TO.N,SDA_ACCELERO*%
X161960000Y-84400000D03*
X156100000Y-83080000D03*
%TO.N,PHASE_A2*%
X170470000Y-96940000D03*
%TO.N,PHASE_B1*%
X159460000Y-91600000D03*
%TO.N,PHASE_A1*%
X179490000Y-94150000D03*
%TO.N,+5V*%
X167640000Y-66900000D03*
X169396500Y-82365500D03*
%TO.N,VIN*%
X184900000Y-105750000D03*
X187480000Y-91480000D03*
%TO.N,NRST*%
X155400000Y-72760000D03*
X153180000Y-98150000D03*
%TO.N,+3.3V*%
X164290000Y-100550000D03*
X168310000Y-62080000D03*
X154780000Y-64430000D03*
X167233000Y-89155000D03*
X177714700Y-83756800D03*
X162768500Y-85328500D03*
X154249700Y-91586900D03*
%TD*%
D23*
%TO.N,PHASE_B1*%
X185200000Y-91600000D02*
X196700000Y-80100000D01*
X159460000Y-91600000D02*
X185200000Y-91600000D01*
%TO.N,INT1_ACCELERO*%
X159335100Y-92547000D02*
X172410300Y-92547000D01*
X158755000Y-91966900D02*
X159335100Y-92547000D01*
X158755000Y-90265000D02*
X158755000Y-91966900D01*
X159160000Y-89860000D02*
X158755000Y-90265000D01*
%TD*%
%TA.AperFunction,Conductor*%
%TO.N,+3.3V*%
G36*
X197003736Y-60500726D02*
G01*
X197293796Y-60518271D01*
X197308659Y-60520076D01*
X197590798Y-60571780D01*
X197605335Y-60575363D01*
X197879172Y-60660695D01*
X197893163Y-60666000D01*
X198154743Y-60783727D01*
X198167989Y-60790680D01*
X198413465Y-60939075D01*
X198425776Y-60947573D01*
X198585232Y-61072498D01*
X198651573Y-61124473D01*
X198662781Y-61134403D01*
X198865596Y-61337218D01*
X198875526Y-61348426D01*
X198896657Y-61375398D01*
X198995481Y-61501538D01*
X199052422Y-61574217D01*
X199060926Y-61586537D01*
X199129048Y-61699224D01*
X199209316Y-61832004D01*
X199216275Y-61845263D01*
X199333997Y-62106831D01*
X199339306Y-62120832D01*
X199424635Y-62394663D01*
X199428219Y-62409201D01*
X199479923Y-62691340D01*
X199481728Y-62706205D01*
X199499274Y-62996263D01*
X199499500Y-63003750D01*
X199499500Y-116996249D01*
X199499274Y-117003736D01*
X199481728Y-117293794D01*
X199479923Y-117308659D01*
X199428219Y-117590798D01*
X199424635Y-117605336D01*
X199339306Y-117879167D01*
X199333997Y-117893168D01*
X199216275Y-118154736D01*
X199209316Y-118167995D01*
X199060928Y-118413459D01*
X199052422Y-118425782D01*
X198875526Y-118651573D01*
X198865596Y-118662781D01*
X198662781Y-118865596D01*
X198651573Y-118875526D01*
X198425782Y-119052422D01*
X198413459Y-119060928D01*
X198167995Y-119209316D01*
X198154736Y-119216275D01*
X197893168Y-119333997D01*
X197879167Y-119339306D01*
X197605336Y-119424635D01*
X197590798Y-119428219D01*
X197308659Y-119479923D01*
X197293794Y-119481728D01*
X197003736Y-119499274D01*
X196996249Y-119499500D01*
X143003751Y-119499500D01*
X142996264Y-119499274D01*
X142706205Y-119481728D01*
X142691340Y-119479923D01*
X142409201Y-119428219D01*
X142394663Y-119424635D01*
X142120832Y-119339306D01*
X142106831Y-119333997D01*
X141845263Y-119216275D01*
X141832004Y-119209316D01*
X141586540Y-119060928D01*
X141574217Y-119052422D01*
X141348426Y-118875526D01*
X141337218Y-118865596D01*
X141134403Y-118662781D01*
X141124473Y-118651573D01*
X141015142Y-118512022D01*
X140947573Y-118425776D01*
X140939075Y-118413465D01*
X140790680Y-118167989D01*
X140783727Y-118154743D01*
X140666000Y-117893163D01*
X140660693Y-117879167D01*
X140575364Y-117605336D01*
X140571780Y-117590798D01*
X140538530Y-117409358D01*
X140520075Y-117308657D01*
X140518271Y-117293794D01*
X140500726Y-117003736D01*
X140500500Y-116996249D01*
X140500500Y-115302899D01*
X140991522Y-115302899D01*
X140991522Y-115302900D01*
X141011822Y-115690239D01*
X141016006Y-115716657D01*
X141072498Y-116073333D01*
X141154694Y-116380095D01*
X141172888Y-116447994D01*
X141311887Y-116810097D01*
X141487977Y-117155693D01*
X141699222Y-117480982D01*
X141794119Y-117598170D01*
X141943319Y-117782416D01*
X142217584Y-118056681D01*
X142355045Y-118167995D01*
X142519017Y-118300777D01*
X142844306Y-118512022D01*
X142844311Y-118512025D01*
X143189906Y-118688114D01*
X143552013Y-118827114D01*
X143926667Y-118927502D01*
X144309762Y-118988178D01*
X144675676Y-119007355D01*
X144697099Y-119008478D01*
X144697100Y-119008478D01*
X144697101Y-119008478D01*
X144717401Y-119007414D01*
X145084438Y-118988178D01*
X145467533Y-118927502D01*
X145842187Y-118827114D01*
X146204294Y-118688114D01*
X146549889Y-118512025D01*
X146875184Y-118300776D01*
X147176616Y-118056681D01*
X147450881Y-117782416D01*
X147694976Y-117480984D01*
X147906225Y-117155689D01*
X148082314Y-116810094D01*
X148221314Y-116447987D01*
X148321702Y-116073333D01*
X148382378Y-115690238D01*
X148402678Y-115302900D01*
X148393355Y-115125013D01*
X151050000Y-115125013D01*
X151050000Y-115650000D01*
X151995854Y-115650000D01*
X151957370Y-115716657D01*
X151925000Y-115837465D01*
X151925000Y-115962535D01*
X151957370Y-116083343D01*
X151995854Y-116150000D01*
X151050001Y-116150000D01*
X151050001Y-116674986D01*
X151060494Y-116777697D01*
X151115641Y-116944119D01*
X151115643Y-116944124D01*
X151207684Y-117093345D01*
X151331654Y-117217315D01*
X151480875Y-117309356D01*
X151480880Y-117309358D01*
X151647302Y-117364505D01*
X151647309Y-117364506D01*
X151750019Y-117374999D01*
X152149999Y-117374999D01*
X152150000Y-117374998D01*
X152150000Y-116304145D01*
X152216657Y-116342630D01*
X152337465Y-116375000D01*
X152462535Y-116375000D01*
X152583343Y-116342630D01*
X152650000Y-116304145D01*
X152650000Y-117374999D01*
X153049972Y-117374999D01*
X153049986Y-117374998D01*
X153152697Y-117364505D01*
X153319119Y-117309358D01*
X153319124Y-117309356D01*
X153468345Y-117217315D01*
X153592317Y-117093343D01*
X153687815Y-116938516D01*
X153739763Y-116891791D01*
X153808725Y-116880568D01*
X153872808Y-116908412D01*
X153881035Y-116915931D01*
X154020213Y-117055109D01*
X154192179Y-117180048D01*
X154192181Y-117180049D01*
X154192184Y-117180051D01*
X154381588Y-117276557D01*
X154583757Y-117342246D01*
X154793713Y-117375500D01*
X154793714Y-117375500D01*
X155006286Y-117375500D01*
X155006287Y-117375500D01*
X155216243Y-117342246D01*
X155418412Y-117276557D01*
X155607816Y-117180051D01*
X155642153Y-117155104D01*
X155779786Y-117055109D01*
X155779788Y-117055106D01*
X155779792Y-117055104D01*
X155930104Y-116904792D01*
X156049683Y-116740204D01*
X156105011Y-116697540D01*
X156174624Y-116691561D01*
X156236420Y-116724166D01*
X156250313Y-116740199D01*
X156352296Y-116880568D01*
X156369896Y-116904792D01*
X156520213Y-117055109D01*
X156692179Y-117180048D01*
X156692181Y-117180049D01*
X156692184Y-117180051D01*
X156881588Y-117276557D01*
X157083757Y-117342246D01*
X157293713Y-117375500D01*
X157293714Y-117375500D01*
X157506286Y-117375500D01*
X157506287Y-117375500D01*
X157716243Y-117342246D01*
X157918412Y-117276557D01*
X158107816Y-117180051D01*
X158142153Y-117155104D01*
X158279786Y-117055109D01*
X158279788Y-117055106D01*
X158279792Y-117055104D01*
X158430104Y-116904792D01*
X158549683Y-116740204D01*
X158605011Y-116697540D01*
X158674624Y-116691561D01*
X158736420Y-116724166D01*
X158750313Y-116740199D01*
X158852296Y-116880568D01*
X158869896Y-116904792D01*
X159020213Y-117055109D01*
X159192179Y-117180048D01*
X159192181Y-117180049D01*
X159192184Y-117180051D01*
X159381588Y-117276557D01*
X159583757Y-117342246D01*
X159793713Y-117375500D01*
X159793714Y-117375500D01*
X160006286Y-117375500D01*
X160006287Y-117375500D01*
X160216243Y-117342246D01*
X160418412Y-117276557D01*
X160607816Y-117180051D01*
X160642153Y-117155104D01*
X160779786Y-117055109D01*
X160779788Y-117055106D01*
X160779792Y-117055104D01*
X160930104Y-116904792D01*
X160930106Y-116904788D01*
X160930109Y-116904786D01*
X161055048Y-116732820D01*
X161055047Y-116732820D01*
X161055051Y-116732816D01*
X161151557Y-116543412D01*
X161217246Y-116341243D01*
X161250500Y-116131287D01*
X161250500Y-115668713D01*
X161217246Y-115458757D01*
X161151557Y-115256588D01*
X161135469Y-115225013D01*
X177450000Y-115225013D01*
X177450000Y-115750000D01*
X178395854Y-115750000D01*
X178357370Y-115816657D01*
X178325000Y-115937465D01*
X178325000Y-116062535D01*
X178357370Y-116183343D01*
X178395854Y-116250000D01*
X177450001Y-116250000D01*
X177450001Y-116774986D01*
X177460494Y-116877697D01*
X177515641Y-117044119D01*
X177515643Y-117044124D01*
X177607684Y-117193345D01*
X177731654Y-117317315D01*
X177880875Y-117409356D01*
X177880880Y-117409358D01*
X178047302Y-117464505D01*
X178047309Y-117464506D01*
X178150019Y-117474999D01*
X178549999Y-117474999D01*
X178550000Y-117474998D01*
X178550000Y-116404145D01*
X178616657Y-116442630D01*
X178737465Y-116475000D01*
X178862535Y-116475000D01*
X178983343Y-116442630D01*
X179050000Y-116404145D01*
X179050000Y-117474999D01*
X179449972Y-117474999D01*
X179449986Y-117474998D01*
X179552697Y-117464505D01*
X179719119Y-117409358D01*
X179719124Y-117409356D01*
X179868345Y-117317315D01*
X179992317Y-117193343D01*
X180087815Y-117038516D01*
X180139763Y-116991791D01*
X180208725Y-116980568D01*
X180272808Y-117008412D01*
X180281035Y-117015931D01*
X180420213Y-117155109D01*
X180592179Y-117280048D01*
X180592181Y-117280049D01*
X180592184Y-117280051D01*
X180781588Y-117376557D01*
X180983757Y-117442246D01*
X181193713Y-117475500D01*
X181193714Y-117475500D01*
X181406286Y-117475500D01*
X181406287Y-117475500D01*
X181616243Y-117442246D01*
X181818412Y-117376557D01*
X182007816Y-117280051D01*
X182029789Y-117264086D01*
X182179786Y-117155109D01*
X182179788Y-117155106D01*
X182179792Y-117155104D01*
X182330104Y-117004792D01*
X182449683Y-116840204D01*
X182505011Y-116797540D01*
X182574624Y-116791561D01*
X182636420Y-116824166D01*
X182650313Y-116840199D01*
X182752296Y-116980568D01*
X182769896Y-117004792D01*
X182920213Y-117155109D01*
X183092179Y-117280048D01*
X183092181Y-117280049D01*
X183092184Y-117280051D01*
X183281588Y-117376557D01*
X183483757Y-117442246D01*
X183693713Y-117475500D01*
X183693714Y-117475500D01*
X183906286Y-117475500D01*
X183906287Y-117475500D01*
X184116243Y-117442246D01*
X184318412Y-117376557D01*
X184507816Y-117280051D01*
X184529789Y-117264086D01*
X184679786Y-117155109D01*
X184679788Y-117155106D01*
X184679792Y-117155104D01*
X184830104Y-117004792D01*
X184949683Y-116840204D01*
X185005011Y-116797540D01*
X185074624Y-116791561D01*
X185136420Y-116824166D01*
X185150313Y-116840199D01*
X185252296Y-116980568D01*
X185269896Y-117004792D01*
X185420213Y-117155109D01*
X185592179Y-117280048D01*
X185592181Y-117280049D01*
X185592184Y-117280051D01*
X185781588Y-117376557D01*
X185983757Y-117442246D01*
X186193713Y-117475500D01*
X186193714Y-117475500D01*
X186406286Y-117475500D01*
X186406287Y-117475500D01*
X186616243Y-117442246D01*
X186818412Y-117376557D01*
X187007816Y-117280051D01*
X187029789Y-117264086D01*
X187179786Y-117155109D01*
X187179788Y-117155106D01*
X187179792Y-117155104D01*
X187330104Y-117004792D01*
X187330106Y-117004788D01*
X187330109Y-117004786D01*
X187455048Y-116832820D01*
X187455047Y-116832820D01*
X187455051Y-116832816D01*
X187551557Y-116643412D01*
X187617246Y-116441243D01*
X187650500Y-116231287D01*
X187650500Y-115768713D01*
X187617246Y-115558757D01*
X187551557Y-115356588D01*
X187524201Y-115302899D01*
X190894422Y-115302899D01*
X190894422Y-115302900D01*
X190914722Y-115690239D01*
X190918906Y-115716657D01*
X190975398Y-116073333D01*
X191057594Y-116380095D01*
X191075788Y-116447994D01*
X191214787Y-116810097D01*
X191390877Y-117155693D01*
X191602122Y-117480982D01*
X191697019Y-117598170D01*
X191846219Y-117782416D01*
X192120484Y-118056681D01*
X192257945Y-118167995D01*
X192421917Y-118300777D01*
X192747206Y-118512022D01*
X192747211Y-118512025D01*
X193092806Y-118688114D01*
X193454913Y-118827114D01*
X193829567Y-118927502D01*
X194212662Y-118988178D01*
X194578576Y-119007355D01*
X194599999Y-119008478D01*
X194600000Y-119008478D01*
X194600001Y-119008478D01*
X194620301Y-119007414D01*
X194987338Y-118988178D01*
X195370433Y-118927502D01*
X195745087Y-118827114D01*
X196107194Y-118688114D01*
X196452789Y-118512025D01*
X196778084Y-118300776D01*
X197079516Y-118056681D01*
X197353781Y-117782416D01*
X197597876Y-117480984D01*
X197809125Y-117155689D01*
X197985214Y-116810094D01*
X198124214Y-116447987D01*
X198224602Y-116073333D01*
X198285278Y-115690238D01*
X198305578Y-115302900D01*
X198285278Y-114915562D01*
X198224602Y-114532467D01*
X198124214Y-114157813D01*
X197985214Y-113795706D01*
X197809125Y-113450111D01*
X197597876Y-113124816D01*
X197353781Y-112823384D01*
X197079516Y-112549119D01*
X196778084Y-112305024D01*
X196778082Y-112305022D01*
X196452793Y-112093777D01*
X196107197Y-111917687D01*
X195745094Y-111778688D01*
X195737141Y-111776557D01*
X195370433Y-111678298D01*
X195370429Y-111678297D01*
X195370428Y-111678297D01*
X194987339Y-111617622D01*
X194600001Y-111597322D01*
X194599999Y-111597322D01*
X194212660Y-111617622D01*
X193829572Y-111678297D01*
X193829570Y-111678297D01*
X193454905Y-111778688D01*
X193092802Y-111917687D01*
X192747206Y-112093777D01*
X192421917Y-112305022D01*
X192120488Y-112549115D01*
X192120480Y-112549122D01*
X191846222Y-112823380D01*
X191846215Y-112823388D01*
X191602122Y-113124817D01*
X191390877Y-113450106D01*
X191214787Y-113795702D01*
X191075788Y-114157805D01*
X190975397Y-114532470D01*
X190975397Y-114532472D01*
X190914722Y-114915560D01*
X190894422Y-115302899D01*
X187524201Y-115302899D01*
X187455051Y-115167184D01*
X187455049Y-115167181D01*
X187455048Y-115167179D01*
X187330109Y-114995213D01*
X187179786Y-114844890D01*
X187007820Y-114719951D01*
X186818414Y-114623444D01*
X186818413Y-114623443D01*
X186818412Y-114623443D01*
X186616243Y-114557754D01*
X186616241Y-114557753D01*
X186616240Y-114557753D01*
X186454957Y-114532208D01*
X186406287Y-114524500D01*
X186193713Y-114524500D01*
X186145042Y-114532208D01*
X185983760Y-114557753D01*
X185781585Y-114623444D01*
X185592179Y-114719951D01*
X185420213Y-114844890D01*
X185269894Y-114995209D01*
X185269890Y-114995214D01*
X185150318Y-115159793D01*
X185094989Y-115202459D01*
X185025375Y-115208438D01*
X184963580Y-115175833D01*
X184949682Y-115159793D01*
X184830109Y-114995214D01*
X184830105Y-114995209D01*
X184679786Y-114844890D01*
X184507820Y-114719951D01*
X184318414Y-114623444D01*
X184318413Y-114623443D01*
X184318412Y-114623443D01*
X184116243Y-114557754D01*
X184116241Y-114557753D01*
X184116240Y-114557753D01*
X183954957Y-114532208D01*
X183906287Y-114524500D01*
X183693713Y-114524500D01*
X183645042Y-114532208D01*
X183483760Y-114557753D01*
X183281585Y-114623444D01*
X183092179Y-114719951D01*
X182920213Y-114844890D01*
X182769894Y-114995209D01*
X182769890Y-114995214D01*
X182650318Y-115159793D01*
X182594989Y-115202459D01*
X182525375Y-115208438D01*
X182463580Y-115175833D01*
X182449682Y-115159793D01*
X182330109Y-114995214D01*
X182330105Y-114995209D01*
X182179786Y-114844890D01*
X182007820Y-114719951D01*
X181818414Y-114623444D01*
X181818413Y-114623443D01*
X181818412Y-114623443D01*
X181616243Y-114557754D01*
X181616241Y-114557753D01*
X181616240Y-114557753D01*
X181454957Y-114532208D01*
X181406287Y-114524500D01*
X181193713Y-114524500D01*
X181145042Y-114532208D01*
X180983760Y-114557753D01*
X180781585Y-114623444D01*
X180592179Y-114719951D01*
X180420215Y-114844889D01*
X180281035Y-114984069D01*
X180219712Y-115017553D01*
X180150020Y-115012569D01*
X180094087Y-114970697D01*
X180087815Y-114961484D01*
X179992315Y-114806654D01*
X179868345Y-114682684D01*
X179719124Y-114590643D01*
X179719119Y-114590641D01*
X179552697Y-114535494D01*
X179552690Y-114535493D01*
X179449986Y-114525000D01*
X179050000Y-114525000D01*
X179050000Y-115595854D01*
X178983343Y-115557370D01*
X178862535Y-115525000D01*
X178737465Y-115525000D01*
X178616657Y-115557370D01*
X178550000Y-115595854D01*
X178550000Y-114525000D01*
X178150028Y-114525000D01*
X178150012Y-114525001D01*
X178047302Y-114535494D01*
X177880880Y-114590641D01*
X177880875Y-114590643D01*
X177731654Y-114682684D01*
X177607684Y-114806654D01*
X177515643Y-114955875D01*
X177515641Y-114955880D01*
X177460494Y-115122302D01*
X177460493Y-115122309D01*
X177450000Y-115225013D01*
X161135469Y-115225013D01*
X161055051Y-115067184D01*
X161055049Y-115067181D01*
X161055048Y-115067179D01*
X160930109Y-114895213D01*
X160779786Y-114744890D01*
X160607820Y-114619951D01*
X160418414Y-114523444D01*
X160418413Y-114523443D01*
X160418412Y-114523443D01*
X160216243Y-114457754D01*
X160216241Y-114457753D01*
X160216240Y-114457753D01*
X160054957Y-114432208D01*
X160006287Y-114424500D01*
X159793713Y-114424500D01*
X159745042Y-114432208D01*
X159583760Y-114457753D01*
X159381585Y-114523444D01*
X159192179Y-114619951D01*
X159020213Y-114744890D01*
X158869894Y-114895209D01*
X158869890Y-114895214D01*
X158750318Y-115059793D01*
X158694989Y-115102459D01*
X158625375Y-115108438D01*
X158563580Y-115075833D01*
X158549682Y-115059793D01*
X158430109Y-114895214D01*
X158430105Y-114895209D01*
X158279786Y-114744890D01*
X158107820Y-114619951D01*
X157918414Y-114523444D01*
X157918413Y-114523443D01*
X157918412Y-114523443D01*
X157716243Y-114457754D01*
X157716241Y-114457753D01*
X157716240Y-114457753D01*
X157554957Y-114432208D01*
X157506287Y-114424500D01*
X157293713Y-114424500D01*
X157245042Y-114432208D01*
X157083760Y-114457753D01*
X156881585Y-114523444D01*
X156692179Y-114619951D01*
X156520213Y-114744890D01*
X156369894Y-114895209D01*
X156369890Y-114895214D01*
X156250318Y-115059793D01*
X156194989Y-115102459D01*
X156125375Y-115108438D01*
X156063580Y-115075833D01*
X156049682Y-115059793D01*
X155930109Y-114895214D01*
X155930105Y-114895209D01*
X155779786Y-114744890D01*
X155607820Y-114619951D01*
X155418414Y-114523444D01*
X155418413Y-114523443D01*
X155418412Y-114523443D01*
X155216243Y-114457754D01*
X155216241Y-114457753D01*
X155216240Y-114457753D01*
X155054957Y-114432208D01*
X155006287Y-114424500D01*
X154793713Y-114424500D01*
X154745042Y-114432208D01*
X154583760Y-114457753D01*
X154381585Y-114523444D01*
X154192179Y-114619951D01*
X154020215Y-114744889D01*
X153881035Y-114884069D01*
X153819712Y-114917553D01*
X153750020Y-114912569D01*
X153694087Y-114870697D01*
X153687815Y-114861484D01*
X153592315Y-114706654D01*
X153468345Y-114582684D01*
X153319124Y-114490643D01*
X153319119Y-114490641D01*
X153152697Y-114435494D01*
X153152690Y-114435493D01*
X153049986Y-114425000D01*
X152650000Y-114425000D01*
X152650000Y-115495854D01*
X152583343Y-115457370D01*
X152462535Y-115425000D01*
X152337465Y-115425000D01*
X152216657Y-115457370D01*
X152150000Y-115495854D01*
X152150000Y-114425000D01*
X151750028Y-114425000D01*
X151750012Y-114425001D01*
X151647302Y-114435494D01*
X151480880Y-114490641D01*
X151480875Y-114490643D01*
X151331654Y-114582684D01*
X151207684Y-114706654D01*
X151115643Y-114855875D01*
X151115641Y-114855880D01*
X151060494Y-115022302D01*
X151060493Y-115022309D01*
X151050000Y-115125013D01*
X148393355Y-115125013D01*
X148382378Y-114915562D01*
X148321702Y-114532467D01*
X148221314Y-114157813D01*
X148082314Y-113795706D01*
X147906225Y-113450111D01*
X147694976Y-113124816D01*
X147450881Y-112823384D01*
X147176616Y-112549119D01*
X146875184Y-112305024D01*
X146875182Y-112305022D01*
X146549893Y-112093777D01*
X146204297Y-111917687D01*
X145842194Y-111778688D01*
X145834241Y-111776557D01*
X145467533Y-111678298D01*
X145467529Y-111678297D01*
X145467528Y-111678297D01*
X145084439Y-111617622D01*
X144697101Y-111597322D01*
X144697099Y-111597322D01*
X144309760Y-111617622D01*
X143926672Y-111678297D01*
X143926670Y-111678297D01*
X143552005Y-111778688D01*
X143189902Y-111917687D01*
X142844306Y-112093777D01*
X142519017Y-112305022D01*
X142217588Y-112549115D01*
X142217580Y-112549122D01*
X141943322Y-112823380D01*
X141943315Y-112823388D01*
X141699222Y-113124817D01*
X141487977Y-113450106D01*
X141311887Y-113795702D01*
X141172888Y-114157805D01*
X141072497Y-114532470D01*
X141072497Y-114532472D01*
X141011822Y-114915560D01*
X140991522Y-115302899D01*
X140500500Y-115302899D01*
X140500500Y-109625013D01*
X151150000Y-109625013D01*
X151150000Y-110150000D01*
X152095854Y-110150000D01*
X152057370Y-110216657D01*
X152025000Y-110337465D01*
X152025000Y-110462535D01*
X152057370Y-110583343D01*
X152095854Y-110650000D01*
X151150001Y-110650000D01*
X151150001Y-111174986D01*
X151160494Y-111277697D01*
X151215641Y-111444119D01*
X151215643Y-111444124D01*
X151307684Y-111593345D01*
X151431654Y-111717315D01*
X151580875Y-111809356D01*
X151580880Y-111809358D01*
X151747302Y-111864505D01*
X151747309Y-111864506D01*
X151850019Y-111874999D01*
X152249999Y-111874999D01*
X152250000Y-111874998D01*
X152250000Y-110804145D01*
X152316657Y-110842630D01*
X152437465Y-110875000D01*
X152562535Y-110875000D01*
X152683343Y-110842630D01*
X152750000Y-110804145D01*
X152750000Y-111874999D01*
X153149972Y-111874999D01*
X153149986Y-111874998D01*
X153252697Y-111864505D01*
X153419119Y-111809358D01*
X153419124Y-111809356D01*
X153568345Y-111717315D01*
X153692317Y-111593343D01*
X153787815Y-111438516D01*
X153839763Y-111391791D01*
X153908725Y-111380568D01*
X153972808Y-111408412D01*
X153981035Y-111415931D01*
X154120213Y-111555109D01*
X154292179Y-111680048D01*
X154292181Y-111680049D01*
X154292184Y-111680051D01*
X154481588Y-111776557D01*
X154683757Y-111842246D01*
X154893713Y-111875500D01*
X154893714Y-111875500D01*
X155106286Y-111875500D01*
X155106287Y-111875500D01*
X155316243Y-111842246D01*
X155518412Y-111776557D01*
X155707816Y-111680051D01*
X155793743Y-111617622D01*
X155879786Y-111555109D01*
X155879788Y-111555106D01*
X155879792Y-111555104D01*
X156030104Y-111404792D01*
X156149683Y-111240204D01*
X156205011Y-111197540D01*
X156274624Y-111191561D01*
X156336420Y-111224166D01*
X156350313Y-111240199D01*
X156452296Y-111380568D01*
X156469896Y-111404792D01*
X156620213Y-111555109D01*
X156792179Y-111680048D01*
X156792181Y-111680049D01*
X156792184Y-111680051D01*
X156981588Y-111776557D01*
X157183757Y-111842246D01*
X157393713Y-111875500D01*
X157393714Y-111875500D01*
X157606286Y-111875500D01*
X157606287Y-111875500D01*
X157816243Y-111842246D01*
X158018412Y-111776557D01*
X158207816Y-111680051D01*
X158293743Y-111617622D01*
X158379786Y-111555109D01*
X158379788Y-111555106D01*
X158379792Y-111555104D01*
X158530104Y-111404792D01*
X158649683Y-111240204D01*
X158705011Y-111197540D01*
X158774624Y-111191561D01*
X158836420Y-111224166D01*
X158850313Y-111240199D01*
X158952296Y-111380568D01*
X158969896Y-111404792D01*
X159120213Y-111555109D01*
X159292179Y-111680048D01*
X159292181Y-111680049D01*
X159292184Y-111680051D01*
X159481588Y-111776557D01*
X159683757Y-111842246D01*
X159893713Y-111875500D01*
X159893714Y-111875500D01*
X160106286Y-111875500D01*
X160106287Y-111875500D01*
X160316243Y-111842246D01*
X160518412Y-111776557D01*
X160707816Y-111680051D01*
X160793743Y-111617622D01*
X160879786Y-111555109D01*
X160879788Y-111555106D01*
X160879792Y-111555104D01*
X161030104Y-111404792D01*
X161030106Y-111404788D01*
X161030109Y-111404786D01*
X161155048Y-111232820D01*
X161155047Y-111232820D01*
X161155051Y-111232816D01*
X161251557Y-111043412D01*
X161317246Y-110841243D01*
X161350500Y-110631287D01*
X161350500Y-110168713D01*
X161317246Y-109958757D01*
X161251557Y-109756588D01*
X161235469Y-109725013D01*
X177550000Y-109725013D01*
X177550000Y-110250000D01*
X178495854Y-110250000D01*
X178457370Y-110316657D01*
X178425000Y-110437465D01*
X178425000Y-110562535D01*
X178457370Y-110683343D01*
X178495854Y-110750000D01*
X177550001Y-110750000D01*
X177550001Y-111274986D01*
X177560494Y-111377697D01*
X177615641Y-111544119D01*
X177615643Y-111544124D01*
X177707684Y-111693345D01*
X177831654Y-111817315D01*
X177980875Y-111909356D01*
X177980880Y-111909358D01*
X178147302Y-111964505D01*
X178147309Y-111964506D01*
X178250019Y-111974999D01*
X178649999Y-111974999D01*
X178650000Y-111974998D01*
X178650000Y-110904145D01*
X178716657Y-110942630D01*
X178837465Y-110975000D01*
X178962535Y-110975000D01*
X179083343Y-110942630D01*
X179150000Y-110904145D01*
X179150000Y-111974999D01*
X179549972Y-111974999D01*
X179549986Y-111974998D01*
X179652697Y-111964505D01*
X179819119Y-111909358D01*
X179819124Y-111909356D01*
X179968345Y-111817315D01*
X180092317Y-111693343D01*
X180187815Y-111538516D01*
X180239763Y-111491791D01*
X180308725Y-111480568D01*
X180372808Y-111508412D01*
X180381035Y-111515931D01*
X180520213Y-111655109D01*
X180692179Y-111780048D01*
X180692181Y-111780049D01*
X180692184Y-111780051D01*
X180881588Y-111876557D01*
X181083757Y-111942246D01*
X181293713Y-111975500D01*
X181293714Y-111975500D01*
X181506286Y-111975500D01*
X181506287Y-111975500D01*
X181716243Y-111942246D01*
X181918412Y-111876557D01*
X182107816Y-111780051D01*
X182129789Y-111764086D01*
X182279786Y-111655109D01*
X182279788Y-111655106D01*
X182279792Y-111655104D01*
X182430104Y-111504792D01*
X182549683Y-111340204D01*
X182605011Y-111297540D01*
X182674624Y-111291561D01*
X182736420Y-111324166D01*
X182750313Y-111340199D01*
X182852296Y-111480568D01*
X182869896Y-111504792D01*
X183020213Y-111655109D01*
X183192179Y-111780048D01*
X183192181Y-111780049D01*
X183192184Y-111780051D01*
X183381588Y-111876557D01*
X183583757Y-111942246D01*
X183793713Y-111975500D01*
X183793714Y-111975500D01*
X184006286Y-111975500D01*
X184006287Y-111975500D01*
X184216243Y-111942246D01*
X184418412Y-111876557D01*
X184607816Y-111780051D01*
X184629789Y-111764086D01*
X184779786Y-111655109D01*
X184779788Y-111655106D01*
X184779792Y-111655104D01*
X184930104Y-111504792D01*
X185049683Y-111340204D01*
X185105011Y-111297540D01*
X185174624Y-111291561D01*
X185236420Y-111324166D01*
X185250313Y-111340199D01*
X185352296Y-111480568D01*
X185369896Y-111504792D01*
X185520213Y-111655109D01*
X185692179Y-111780048D01*
X185692181Y-111780049D01*
X185692184Y-111780051D01*
X185881588Y-111876557D01*
X186083757Y-111942246D01*
X186293713Y-111975500D01*
X186293714Y-111975500D01*
X186506286Y-111975500D01*
X186506287Y-111975500D01*
X186716243Y-111942246D01*
X186918412Y-111876557D01*
X187107816Y-111780051D01*
X187129789Y-111764086D01*
X187279786Y-111655109D01*
X187279788Y-111655106D01*
X187279792Y-111655104D01*
X187430104Y-111504792D01*
X187430106Y-111504788D01*
X187430109Y-111504786D01*
X187555048Y-111332820D01*
X187555047Y-111332820D01*
X187555051Y-111332816D01*
X187651557Y-111143412D01*
X187717246Y-110941243D01*
X187750500Y-110731287D01*
X187750500Y-110268713D01*
X187717246Y-110058757D01*
X187651557Y-109856588D01*
X187555051Y-109667184D01*
X187555049Y-109667181D01*
X187555048Y-109667179D01*
X187430109Y-109495213D01*
X187334896Y-109400000D01*
X190814815Y-109400000D01*
X190833503Y-109577805D01*
X190833504Y-109577807D01*
X190888747Y-109747829D01*
X190888750Y-109747835D01*
X190978141Y-109902665D01*
X190998252Y-109925000D01*
X191097764Y-110035521D01*
X191097767Y-110035523D01*
X191097770Y-110035526D01*
X191242407Y-110140612D01*
X191405733Y-110213329D01*
X191580609Y-110250500D01*
X191580610Y-110250500D01*
X191759389Y-110250500D01*
X191759391Y-110250500D01*
X191934267Y-110213329D01*
X192097593Y-110140612D01*
X192242230Y-110035526D01*
X192361859Y-109902665D01*
X192451250Y-109747835D01*
X192506497Y-109577803D01*
X192525185Y-109400000D01*
X192506497Y-109222197D01*
X192473275Y-109119951D01*
X192451252Y-109052170D01*
X192451249Y-109052164D01*
X192441624Y-109035493D01*
X192361859Y-108897335D01*
X192315003Y-108845296D01*
X192242235Y-108764478D01*
X192242232Y-108764476D01*
X192242231Y-108764475D01*
X192242230Y-108764474D01*
X192097593Y-108659388D01*
X191934267Y-108586671D01*
X191934265Y-108586670D01*
X191806594Y-108559533D01*
X191759391Y-108549500D01*
X191580609Y-108549500D01*
X191549954Y-108556015D01*
X191405733Y-108586670D01*
X191405728Y-108586672D01*
X191242408Y-108659387D01*
X191097768Y-108764475D01*
X190978140Y-108897336D01*
X190888750Y-109052164D01*
X190888747Y-109052170D01*
X190833504Y-109222192D01*
X190833503Y-109222194D01*
X190814815Y-109400000D01*
X187334896Y-109400000D01*
X187279786Y-109344890D01*
X187107820Y-109219951D01*
X186918414Y-109123444D01*
X186918413Y-109123443D01*
X186918412Y-109123443D01*
X186716243Y-109057754D01*
X186716241Y-109057753D01*
X186716240Y-109057753D01*
X186554957Y-109032208D01*
X186506287Y-109024500D01*
X186293713Y-109024500D01*
X186245042Y-109032208D01*
X186083760Y-109057753D01*
X185881585Y-109123444D01*
X185692179Y-109219951D01*
X185520213Y-109344890D01*
X185369894Y-109495209D01*
X185369890Y-109495214D01*
X185250318Y-109659793D01*
X185194989Y-109702459D01*
X185125375Y-109708438D01*
X185063580Y-109675833D01*
X185049682Y-109659793D01*
X184930109Y-109495214D01*
X184930105Y-109495209D01*
X184779786Y-109344890D01*
X184607820Y-109219951D01*
X184418414Y-109123444D01*
X184418413Y-109123443D01*
X184418412Y-109123443D01*
X184216243Y-109057754D01*
X184216241Y-109057753D01*
X184216240Y-109057753D01*
X184054957Y-109032208D01*
X184006287Y-109024500D01*
X183793713Y-109024500D01*
X183745042Y-109032208D01*
X183583760Y-109057753D01*
X183381585Y-109123444D01*
X183192179Y-109219951D01*
X183020213Y-109344890D01*
X182869894Y-109495209D01*
X182869890Y-109495214D01*
X182750318Y-109659793D01*
X182694989Y-109702459D01*
X182625375Y-109708438D01*
X182563580Y-109675833D01*
X182549682Y-109659793D01*
X182430109Y-109495214D01*
X182430105Y-109495209D01*
X182279786Y-109344890D01*
X182107820Y-109219951D01*
X181918414Y-109123444D01*
X181918413Y-109123443D01*
X181918412Y-109123443D01*
X181716243Y-109057754D01*
X181716241Y-109057753D01*
X181716240Y-109057753D01*
X181554957Y-109032208D01*
X181506287Y-109024500D01*
X181293713Y-109024500D01*
X181245042Y-109032208D01*
X181083760Y-109057753D01*
X180881585Y-109123444D01*
X180692179Y-109219951D01*
X180520215Y-109344889D01*
X180381035Y-109484069D01*
X180319712Y-109517553D01*
X180250020Y-109512569D01*
X180194087Y-109470697D01*
X180187815Y-109461484D01*
X180092315Y-109306654D01*
X179968345Y-109182684D01*
X179819124Y-109090643D01*
X179819119Y-109090641D01*
X179652697Y-109035494D01*
X179652690Y-109035493D01*
X179549986Y-109025000D01*
X179150000Y-109025000D01*
X179150000Y-110095854D01*
X179083343Y-110057370D01*
X178962535Y-110025000D01*
X178837465Y-110025000D01*
X178716657Y-110057370D01*
X178650000Y-110095854D01*
X178650000Y-109025000D01*
X178250028Y-109025000D01*
X178250012Y-109025001D01*
X178147302Y-109035494D01*
X177980880Y-109090641D01*
X177980875Y-109090643D01*
X177831654Y-109182684D01*
X177707684Y-109306654D01*
X177615643Y-109455875D01*
X177615641Y-109455880D01*
X177560494Y-109622302D01*
X177560493Y-109622309D01*
X177550000Y-109725013D01*
X161235469Y-109725013D01*
X161155051Y-109567184D01*
X161155049Y-109567181D01*
X161155048Y-109567179D01*
X161030109Y-109395213D01*
X160879786Y-109244890D01*
X160707820Y-109119951D01*
X160518414Y-109023444D01*
X160518413Y-109023443D01*
X160518412Y-109023443D01*
X160316243Y-108957754D01*
X160316241Y-108957753D01*
X160316240Y-108957753D01*
X160154957Y-108932208D01*
X160106287Y-108924500D01*
X159893713Y-108924500D01*
X159845042Y-108932208D01*
X159683760Y-108957753D01*
X159481585Y-109023444D01*
X159292179Y-109119951D01*
X159120213Y-109244890D01*
X158969894Y-109395209D01*
X158969890Y-109395214D01*
X158850318Y-109559793D01*
X158794989Y-109602459D01*
X158725375Y-109608438D01*
X158663580Y-109575833D01*
X158649682Y-109559793D01*
X158530109Y-109395214D01*
X158530105Y-109395209D01*
X158379786Y-109244890D01*
X158207820Y-109119951D01*
X158018414Y-109023444D01*
X158018413Y-109023443D01*
X158018412Y-109023443D01*
X157816243Y-108957754D01*
X157816241Y-108957753D01*
X157816240Y-108957753D01*
X157654957Y-108932208D01*
X157606287Y-108924500D01*
X157393713Y-108924500D01*
X157345042Y-108932208D01*
X157183760Y-108957753D01*
X156981585Y-109023444D01*
X156792179Y-109119951D01*
X156620213Y-109244890D01*
X156469894Y-109395209D01*
X156469890Y-109395214D01*
X156350318Y-109559793D01*
X156294989Y-109602459D01*
X156225375Y-109608438D01*
X156163580Y-109575833D01*
X156149682Y-109559793D01*
X156030109Y-109395214D01*
X156030105Y-109395209D01*
X155879786Y-109244890D01*
X155707820Y-109119951D01*
X155518414Y-109023444D01*
X155518413Y-109023443D01*
X155518412Y-109023443D01*
X155316243Y-108957754D01*
X155316241Y-108957753D01*
X155316240Y-108957753D01*
X155154957Y-108932208D01*
X155106287Y-108924500D01*
X154893713Y-108924500D01*
X154845042Y-108932208D01*
X154683760Y-108957753D01*
X154481585Y-109023444D01*
X154292179Y-109119951D01*
X154120215Y-109244889D01*
X153981035Y-109384069D01*
X153919712Y-109417553D01*
X153850020Y-109412569D01*
X153794087Y-109370697D01*
X153787815Y-109361484D01*
X153692315Y-109206654D01*
X153568345Y-109082684D01*
X153419124Y-108990643D01*
X153419119Y-108990641D01*
X153252697Y-108935494D01*
X153252690Y-108935493D01*
X153149986Y-108925000D01*
X152750000Y-108925000D01*
X152750000Y-109995854D01*
X152683343Y-109957370D01*
X152562535Y-109925000D01*
X152437465Y-109925000D01*
X152316657Y-109957370D01*
X152250000Y-109995854D01*
X152250000Y-108925000D01*
X151850028Y-108925000D01*
X151850012Y-108925001D01*
X151747302Y-108935494D01*
X151580880Y-108990641D01*
X151580875Y-108990643D01*
X151431654Y-109082684D01*
X151307684Y-109206654D01*
X151215643Y-109355875D01*
X151215641Y-109355880D01*
X151160494Y-109522302D01*
X151160493Y-109522309D01*
X151150000Y-109625013D01*
X140500500Y-109625013D01*
X140500500Y-107050000D01*
X146264815Y-107050000D01*
X146283503Y-107227805D01*
X146283504Y-107227807D01*
X146338747Y-107397829D01*
X146338750Y-107397835D01*
X146428141Y-107552665D01*
X146435196Y-107560500D01*
X146547764Y-107685521D01*
X146547767Y-107685523D01*
X146547770Y-107685526D01*
X146692407Y-107790612D01*
X146855733Y-107863329D01*
X147030609Y-107900500D01*
X147030610Y-107900500D01*
X147209389Y-107900500D01*
X147209391Y-107900500D01*
X147384267Y-107863329D01*
X147547593Y-107790612D01*
X147692230Y-107685526D01*
X147811859Y-107552665D01*
X147901250Y-107397835D01*
X147956497Y-107227803D01*
X147975185Y-107050000D01*
X147956497Y-106872197D01*
X147903796Y-106710000D01*
X169244815Y-106710000D01*
X169263503Y-106887805D01*
X169263504Y-106887807D01*
X169318747Y-107057829D01*
X169318750Y-107057835D01*
X169408141Y-107212665D01*
X169449812Y-107258946D01*
X169527764Y-107345521D01*
X169527767Y-107345523D01*
X169527770Y-107345526D01*
X169672407Y-107450612D01*
X169835733Y-107523329D01*
X170010609Y-107560500D01*
X170010610Y-107560500D01*
X170189389Y-107560500D01*
X170189391Y-107560500D01*
X170364267Y-107523329D01*
X170527593Y-107450612D01*
X170672230Y-107345526D01*
X170791859Y-107212665D01*
X170881250Y-107057835D01*
X170936497Y-106887803D01*
X170955185Y-106710000D01*
X170936497Y-106532197D01*
X170898246Y-106414474D01*
X170881252Y-106362170D01*
X170881249Y-106362164D01*
X170874225Y-106349998D01*
X170791859Y-106207335D01*
X170745003Y-106155296D01*
X170672235Y-106074478D01*
X170672232Y-106074476D01*
X170672231Y-106074475D01*
X170672230Y-106074474D01*
X170527593Y-105969388D01*
X170364267Y-105896671D01*
X170364265Y-105896670D01*
X170236594Y-105869533D01*
X170189391Y-105859500D01*
X170010609Y-105859500D01*
X169979954Y-105866015D01*
X169835733Y-105896670D01*
X169835728Y-105896672D01*
X169672408Y-105969387D01*
X169527768Y-106074475D01*
X169408140Y-106207336D01*
X169318750Y-106362164D01*
X169318747Y-106362170D01*
X169263504Y-106532192D01*
X169263503Y-106532194D01*
X169244815Y-106710000D01*
X147903796Y-106710000D01*
X147901250Y-106702165D01*
X147811859Y-106547335D01*
X147760783Y-106490610D01*
X147692235Y-106414478D01*
X147692232Y-106414476D01*
X147692231Y-106414475D01*
X147692230Y-106414474D01*
X147547593Y-106309388D01*
X147384267Y-106236671D01*
X147384265Y-106236670D01*
X147256594Y-106209533D01*
X147209391Y-106199500D01*
X147030609Y-106199500D01*
X146999954Y-106206015D01*
X146855733Y-106236670D01*
X146855728Y-106236672D01*
X146692408Y-106309387D01*
X146547768Y-106414475D01*
X146428140Y-106547336D01*
X146338750Y-106702164D01*
X146338747Y-106702170D01*
X146283504Y-106872192D01*
X146283503Y-106872194D01*
X146264815Y-107050000D01*
X140500500Y-107050000D01*
X140500500Y-88849983D01*
X141824500Y-88849983D01*
X141824500Y-90150001D01*
X141824501Y-90150018D01*
X141835000Y-90252796D01*
X141835001Y-90252799D01*
X141889684Y-90417819D01*
X141890186Y-90419334D01*
X141975105Y-90557011D01*
X141982289Y-90568657D01*
X142106344Y-90692712D01*
X142261120Y-90788178D01*
X142307845Y-90840126D01*
X142319068Y-90909088D01*
X142291224Y-90973171D01*
X142283706Y-90981398D01*
X142144889Y-91120215D01*
X142019951Y-91292179D01*
X141923444Y-91481585D01*
X141857753Y-91683760D01*
X141824500Y-91893713D01*
X141824500Y-92106286D01*
X141854124Y-92293329D01*
X141857754Y-92316243D01*
X141862386Y-92330500D01*
X141923444Y-92518414D01*
X142019951Y-92707820D01*
X142144890Y-92879786D01*
X142295209Y-93030105D01*
X142295214Y-93030109D01*
X142459793Y-93149682D01*
X142502459Y-93205011D01*
X142508438Y-93274625D01*
X142475833Y-93336420D01*
X142459793Y-93350318D01*
X142295214Y-93469890D01*
X142295209Y-93469894D01*
X142144890Y-93620213D01*
X142019951Y-93792179D01*
X141923444Y-93981585D01*
X141857753Y-94183760D01*
X141824500Y-94393713D01*
X141824500Y-94606287D01*
X141857754Y-94816243D01*
X141915077Y-94992665D01*
X141923444Y-95018414D01*
X142019951Y-95207820D01*
X142144890Y-95379786D01*
X142295209Y-95530105D01*
X142295214Y-95530109D01*
X142459793Y-95649682D01*
X142502459Y-95705011D01*
X142508438Y-95774625D01*
X142475833Y-95836420D01*
X142459793Y-95850318D01*
X142295214Y-95969890D01*
X142295209Y-95969894D01*
X142144890Y-96120213D01*
X142019951Y-96292179D01*
X141923444Y-96481585D01*
X141857753Y-96683760D01*
X141824500Y-96893713D01*
X141824500Y-97106286D01*
X141857605Y-97315307D01*
X141857754Y-97316243D01*
X141922163Y-97514474D01*
X141923444Y-97518414D01*
X142019951Y-97707820D01*
X142144890Y-97879786D01*
X142295209Y-98030105D01*
X142295214Y-98030109D01*
X142459793Y-98149682D01*
X142502459Y-98205011D01*
X142508438Y-98274625D01*
X142475833Y-98336420D01*
X142459793Y-98350318D01*
X142295214Y-98469890D01*
X142295209Y-98469894D01*
X142144890Y-98620213D01*
X142019951Y-98792179D01*
X141923444Y-98981585D01*
X141857753Y-99183760D01*
X141824500Y-99393713D01*
X141824500Y-99606286D01*
X141857753Y-99816239D01*
X141923444Y-100018414D01*
X142019951Y-100207820D01*
X142144890Y-100379786D01*
X142295209Y-100530105D01*
X142295214Y-100530109D01*
X142459793Y-100649682D01*
X142502459Y-100705011D01*
X142508438Y-100774625D01*
X142475833Y-100836420D01*
X142459793Y-100850318D01*
X142295214Y-100969890D01*
X142295209Y-100969894D01*
X142144890Y-101120213D01*
X142019951Y-101292179D01*
X141923444Y-101481585D01*
X141857753Y-101683760D01*
X141824500Y-101893713D01*
X141824500Y-102106286D01*
X141857753Y-102316239D01*
X141923444Y-102518414D01*
X142019951Y-102707820D01*
X142144890Y-102879786D01*
X142295209Y-103030105D01*
X142295214Y-103030109D01*
X142459793Y-103149682D01*
X142502459Y-103205011D01*
X142508438Y-103274625D01*
X142475833Y-103336420D01*
X142459793Y-103350318D01*
X142295214Y-103469890D01*
X142295209Y-103469894D01*
X142144890Y-103620213D01*
X142019951Y-103792179D01*
X141923444Y-103981585D01*
X141857753Y-104183760D01*
X141824500Y-104393713D01*
X141824500Y-104606286D01*
X141842413Y-104719388D01*
X141857754Y-104816243D01*
X141920511Y-105009389D01*
X141923444Y-105018414D01*
X142019951Y-105207820D01*
X142144890Y-105379786D01*
X142295213Y-105530109D01*
X142467179Y-105655048D01*
X142467181Y-105655049D01*
X142467184Y-105655051D01*
X142656588Y-105751557D01*
X142858757Y-105817246D01*
X143068713Y-105850500D01*
X143068714Y-105850500D01*
X143531286Y-105850500D01*
X143531287Y-105850500D01*
X143741243Y-105817246D01*
X143943412Y-105751557D01*
X144132816Y-105655051D01*
X144154789Y-105639086D01*
X144304786Y-105530109D01*
X144304788Y-105530106D01*
X144304792Y-105530104D01*
X144374896Y-105460000D01*
X158854815Y-105460000D01*
X158873503Y-105637805D01*
X158873504Y-105637807D01*
X158928747Y-105807829D01*
X158928750Y-105807835D01*
X159018141Y-105962665D01*
X159059812Y-106008946D01*
X159137764Y-106095521D01*
X159137767Y-106095523D01*
X159137770Y-106095526D01*
X159282407Y-106200612D01*
X159445733Y-106273329D01*
X159620609Y-106310500D01*
X159620610Y-106310500D01*
X159799389Y-106310500D01*
X159799391Y-106310500D01*
X159974267Y-106273329D01*
X160137593Y-106200612D01*
X160282230Y-106095526D01*
X160301185Y-106074475D01*
X160308148Y-106066741D01*
X160401859Y-105962665D01*
X160491250Y-105807835D01*
X160510042Y-105750000D01*
X184044815Y-105750000D01*
X184063503Y-105927805D01*
X184063504Y-105927807D01*
X184118747Y-106097829D01*
X184118750Y-106097835D01*
X184208141Y-106252665D01*
X184226747Y-106273329D01*
X184327764Y-106385521D01*
X184327767Y-106385523D01*
X184327770Y-106385526D01*
X184472407Y-106490612D01*
X184635733Y-106563329D01*
X184810609Y-106600500D01*
X184810610Y-106600500D01*
X184989389Y-106600500D01*
X184989391Y-106600500D01*
X185164267Y-106563329D01*
X185327593Y-106490612D01*
X185472230Y-106385526D01*
X185493265Y-106362165D01*
X185504235Y-106349981D01*
X185591859Y-106252665D01*
X185681250Y-106097835D01*
X185736497Y-105927803D01*
X185755185Y-105750000D01*
X185736497Y-105572197D01*
X185681250Y-105402165D01*
X185591859Y-105247335D01*
X185545003Y-105195296D01*
X185472235Y-105114478D01*
X185472232Y-105114476D01*
X185472231Y-105114475D01*
X185472230Y-105114474D01*
X185327593Y-105009388D01*
X185164267Y-104936671D01*
X185164265Y-104936670D01*
X185036594Y-104909533D01*
X184989391Y-104899500D01*
X184810609Y-104899500D01*
X184779954Y-104906015D01*
X184635733Y-104936670D01*
X184635728Y-104936672D01*
X184472408Y-105009387D01*
X184327768Y-105114475D01*
X184208140Y-105247336D01*
X184118750Y-105402164D01*
X184118747Y-105402170D01*
X184063504Y-105572192D01*
X184063503Y-105572194D01*
X184044815Y-105750000D01*
X160510042Y-105750000D01*
X160546497Y-105637803D01*
X160565185Y-105460000D01*
X160546497Y-105282197D01*
X160492001Y-105114475D01*
X160491252Y-105112170D01*
X160491249Y-105112164D01*
X160401859Y-104957335D01*
X160349784Y-104899500D01*
X160282235Y-104824478D01*
X160282232Y-104824476D01*
X160282231Y-104824475D01*
X160282230Y-104824474D01*
X160137593Y-104719388D01*
X159974267Y-104646671D01*
X159974265Y-104646670D01*
X159846594Y-104619533D01*
X159799391Y-104609500D01*
X159620609Y-104609500D01*
X159589954Y-104616015D01*
X159445733Y-104646670D01*
X159445728Y-104646672D01*
X159282408Y-104719387D01*
X159137768Y-104824475D01*
X159018140Y-104957336D01*
X158928750Y-105112164D01*
X158928747Y-105112170D01*
X158873504Y-105282192D01*
X158873503Y-105282194D01*
X158854815Y-105460000D01*
X144374896Y-105460000D01*
X144455104Y-105379792D01*
X144455106Y-105379788D01*
X144455109Y-105379786D01*
X144580048Y-105207820D01*
X144580047Y-105207820D01*
X144580051Y-105207816D01*
X144676557Y-105018412D01*
X144742246Y-104816243D01*
X144775500Y-104606287D01*
X144775500Y-104393713D01*
X144742246Y-104183757D01*
X144676557Y-103981588D01*
X144580051Y-103792184D01*
X144580049Y-103792181D01*
X144580048Y-103792179D01*
X144455109Y-103620213D01*
X144304792Y-103469896D01*
X144304784Y-103469890D01*
X144140204Y-103350316D01*
X144097540Y-103294989D01*
X144091561Y-103225376D01*
X144124166Y-103163580D01*
X144140199Y-103149686D01*
X144304792Y-103030104D01*
X144455104Y-102879792D01*
X144455106Y-102879788D01*
X144455109Y-102879786D01*
X144580048Y-102707820D01*
X144580047Y-102707820D01*
X144580051Y-102707816D01*
X144676557Y-102518412D01*
X144742246Y-102316243D01*
X144775500Y-102106287D01*
X144775500Y-101893713D01*
X144742246Y-101683757D01*
X144676557Y-101481588D01*
X144580051Y-101292184D01*
X144580049Y-101292181D01*
X144580048Y-101292179D01*
X144455109Y-101120213D01*
X144304792Y-100969896D01*
X144304784Y-100969890D01*
X144140204Y-100850316D01*
X144097540Y-100794989D01*
X144091561Y-100725376D01*
X144124166Y-100663580D01*
X144140199Y-100649686D01*
X144304792Y-100530104D01*
X144455104Y-100379792D01*
X144455106Y-100379788D01*
X144455109Y-100379786D01*
X144580048Y-100207820D01*
X144580047Y-100207820D01*
X144580051Y-100207816D01*
X144676557Y-100018412D01*
X144742246Y-99816243D01*
X144775500Y-99606287D01*
X144775500Y-99530000D01*
X188634815Y-99530000D01*
X188653503Y-99707805D01*
X188653504Y-99707807D01*
X188708747Y-99877829D01*
X188708750Y-99877835D01*
X188798141Y-100032665D01*
X188839812Y-100078946D01*
X188917764Y-100165521D01*
X188917767Y-100165523D01*
X188917770Y-100165526D01*
X189062407Y-100270612D01*
X189225733Y-100343329D01*
X189400609Y-100380500D01*
X189400610Y-100380500D01*
X189579389Y-100380500D01*
X189579391Y-100380500D01*
X189754267Y-100343329D01*
X189917593Y-100270612D01*
X190062230Y-100165526D01*
X190181859Y-100032665D01*
X190271250Y-99877835D01*
X190326497Y-99707803D01*
X190345185Y-99530000D01*
X190326497Y-99352197D01*
X190298873Y-99267181D01*
X190271252Y-99182170D01*
X190271249Y-99182164D01*
X190181859Y-99027335D01*
X190124228Y-98963329D01*
X190062235Y-98894478D01*
X190062232Y-98894476D01*
X190062231Y-98894475D01*
X190062230Y-98894474D01*
X189917593Y-98789388D01*
X189754267Y-98716671D01*
X189754265Y-98716670D01*
X189626594Y-98689533D01*
X189579391Y-98679500D01*
X189400609Y-98679500D01*
X189369954Y-98686015D01*
X189225733Y-98716670D01*
X189225728Y-98716672D01*
X189062408Y-98789387D01*
X188917768Y-98894475D01*
X188798140Y-99027336D01*
X188708750Y-99182164D01*
X188708747Y-99182170D01*
X188653504Y-99352192D01*
X188653503Y-99352194D01*
X188634815Y-99530000D01*
X144775500Y-99530000D01*
X144775500Y-99393713D01*
X144742246Y-99183757D01*
X144676557Y-98981588D01*
X144580051Y-98792184D01*
X144580049Y-98792181D01*
X144580048Y-98792179D01*
X144455109Y-98620213D01*
X144304792Y-98469896D01*
X144304784Y-98469890D01*
X144140204Y-98350316D01*
X144097540Y-98294989D01*
X144091561Y-98225376D01*
X144124166Y-98163580D01*
X144139837Y-98150000D01*
X152324815Y-98150000D01*
X152343503Y-98327805D01*
X152343504Y-98327807D01*
X152398747Y-98497829D01*
X152398750Y-98497835D01*
X152488141Y-98652665D01*
X152529812Y-98698946D01*
X152607764Y-98785521D01*
X152607767Y-98785523D01*
X152607770Y-98785526D01*
X152752407Y-98890612D01*
X152915733Y-98963329D01*
X153090609Y-99000500D01*
X153090610Y-99000500D01*
X153269389Y-99000500D01*
X153269391Y-99000500D01*
X153444267Y-98963329D01*
X153607593Y-98890612D01*
X153752230Y-98785526D01*
X153871859Y-98652665D01*
X153961250Y-98497835D01*
X154016497Y-98327803D01*
X154035185Y-98150000D01*
X154016497Y-97972197D01*
X153961250Y-97802165D01*
X153871859Y-97647335D01*
X153807199Y-97575523D01*
X153752235Y-97514478D01*
X153752232Y-97514476D01*
X153752231Y-97514475D01*
X153752230Y-97514474D01*
X153607593Y-97409388D01*
X153444267Y-97336671D01*
X153444265Y-97336670D01*
X153316594Y-97309533D01*
X153269391Y-97299500D01*
X153090609Y-97299500D01*
X153059954Y-97306015D01*
X152915733Y-97336670D01*
X152915728Y-97336672D01*
X152752408Y-97409387D01*
X152607768Y-97514475D01*
X152488140Y-97647336D01*
X152398750Y-97802164D01*
X152398747Y-97802170D01*
X152343504Y-97972192D01*
X152343503Y-97972194D01*
X152324815Y-98150000D01*
X144139837Y-98150000D01*
X144140199Y-98149686D01*
X144304792Y-98030104D01*
X144455104Y-97879792D01*
X144455106Y-97879788D01*
X144455109Y-97879786D01*
X144580048Y-97707820D01*
X144580047Y-97707820D01*
X144580051Y-97707816D01*
X144676557Y-97518412D01*
X144742246Y-97316243D01*
X144770556Y-97137500D01*
X158594815Y-97137500D01*
X158613503Y-97315305D01*
X158613504Y-97315307D01*
X158668747Y-97485329D01*
X158668750Y-97485335D01*
X158758141Y-97640165D01*
X158764598Y-97647336D01*
X158877764Y-97773021D01*
X158877767Y-97773023D01*
X158877770Y-97773026D01*
X159022407Y-97878112D01*
X159185733Y-97950829D01*
X159360609Y-97988000D01*
X159360610Y-97988000D01*
X159539389Y-97988000D01*
X159539391Y-97988000D01*
X159714267Y-97950829D01*
X159877593Y-97878112D01*
X160022230Y-97773026D01*
X160023367Y-97771764D01*
X160048148Y-97744241D01*
X160141859Y-97640165D01*
X160211236Y-97520000D01*
X168624815Y-97520000D01*
X168643503Y-97697805D01*
X168643504Y-97697807D01*
X168698747Y-97867829D01*
X168698750Y-97867835D01*
X168788141Y-98022665D01*
X168794844Y-98030109D01*
X168907764Y-98155521D01*
X168907767Y-98155523D01*
X168907770Y-98155526D01*
X169052407Y-98260612D01*
X169215733Y-98333329D01*
X169390609Y-98370500D01*
X169390610Y-98370500D01*
X169569389Y-98370500D01*
X169569391Y-98370500D01*
X169744267Y-98333329D01*
X169907593Y-98260612D01*
X170052230Y-98155526D01*
X170171859Y-98022665D01*
X170261250Y-97867835D01*
X170261250Y-97867834D01*
X170262925Y-97864073D01*
X170264477Y-97862246D01*
X170264500Y-97862207D01*
X170264507Y-97862211D01*
X170308171Y-97810832D01*
X170375019Y-97790506D01*
X170376208Y-97790500D01*
X170559389Y-97790500D01*
X170559391Y-97790500D01*
X170734267Y-97753329D01*
X170897593Y-97680612D01*
X171042230Y-97575526D01*
X171161859Y-97442665D01*
X171251250Y-97287835D01*
X171306497Y-97117803D01*
X171325185Y-96940000D01*
X171306497Y-96762197D01*
X171265115Y-96634836D01*
X171251252Y-96592170D01*
X171251249Y-96592164D01*
X171161859Y-96437335D01*
X171115003Y-96385296D01*
X171042235Y-96304478D01*
X171042232Y-96304476D01*
X171042231Y-96304475D01*
X171042230Y-96304474D01*
X171008545Y-96280000D01*
X175244815Y-96280000D01*
X175263503Y-96457805D01*
X175263504Y-96457807D01*
X175318747Y-96627829D01*
X175318750Y-96627835D01*
X175408141Y-96782665D01*
X175438748Y-96816657D01*
X175527764Y-96915521D01*
X175527767Y-96915523D01*
X175527770Y-96915526D01*
X175672407Y-97020612D01*
X175835733Y-97093329D01*
X176010609Y-97130500D01*
X176010610Y-97130500D01*
X176189389Y-97130500D01*
X176189391Y-97130500D01*
X176364267Y-97093329D01*
X176527593Y-97020612D01*
X176672230Y-96915526D01*
X176791859Y-96782665D01*
X176881250Y-96627835D01*
X176936497Y-96457803D01*
X176955185Y-96280000D01*
X176944674Y-96180000D01*
X179404815Y-96180000D01*
X179423503Y-96357805D01*
X179423504Y-96357807D01*
X179478747Y-96527829D01*
X179478750Y-96527835D01*
X179568141Y-96682665D01*
X179589757Y-96706672D01*
X179687764Y-96815521D01*
X179687767Y-96815523D01*
X179687770Y-96815526D01*
X179832407Y-96920612D01*
X179995733Y-96993329D01*
X180170609Y-97030500D01*
X180170610Y-97030500D01*
X180349389Y-97030500D01*
X180349391Y-97030500D01*
X180524267Y-96993329D01*
X180687593Y-96920612D01*
X180832230Y-96815526D01*
X180951859Y-96682665D01*
X181041250Y-96527835D01*
X181096497Y-96357803D01*
X181115185Y-96180000D01*
X181096497Y-96002197D01*
X181047249Y-95850627D01*
X181041252Y-95832170D01*
X181041249Y-95832164D01*
X180951859Y-95677335D01*
X180905003Y-95625296D01*
X180832235Y-95544478D01*
X180832232Y-95544476D01*
X180832231Y-95544475D01*
X180832230Y-95544474D01*
X180687593Y-95439388D01*
X180524267Y-95366671D01*
X180524265Y-95366670D01*
X180396594Y-95339533D01*
X180349391Y-95329500D01*
X180170609Y-95329500D01*
X180139954Y-95336015D01*
X179995733Y-95366670D01*
X179995728Y-95366672D01*
X179832408Y-95439387D01*
X179687768Y-95544475D01*
X179568140Y-95677336D01*
X179478750Y-95832164D01*
X179478747Y-95832170D01*
X179423504Y-96002192D01*
X179423503Y-96002194D01*
X179404815Y-96180000D01*
X176944674Y-96180000D01*
X176936497Y-96102197D01*
X176881250Y-95932165D01*
X176791859Y-95777335D01*
X176745003Y-95725296D01*
X176672235Y-95644478D01*
X176672232Y-95644476D01*
X176672231Y-95644475D01*
X176672230Y-95644474D01*
X176527593Y-95539388D01*
X176364267Y-95466671D01*
X176364265Y-95466670D01*
X176235906Y-95439387D01*
X176189391Y-95429500D01*
X176010609Y-95429500D01*
X175979954Y-95436015D01*
X175835733Y-95466670D01*
X175835728Y-95466672D01*
X175672408Y-95539387D01*
X175527768Y-95644475D01*
X175408140Y-95777336D01*
X175318750Y-95932164D01*
X175318747Y-95932170D01*
X175263504Y-96102192D01*
X175263503Y-96102194D01*
X175244815Y-96280000D01*
X171008545Y-96280000D01*
X170897593Y-96199388D01*
X170734267Y-96126671D01*
X170734265Y-96126670D01*
X170606594Y-96099533D01*
X170559391Y-96089500D01*
X170380609Y-96089500D01*
X170349954Y-96096015D01*
X170205733Y-96126670D01*
X170205728Y-96126672D01*
X170042408Y-96199387D01*
X169897768Y-96304475D01*
X169778140Y-96437336D01*
X169688751Y-96592163D01*
X169687071Y-96595937D01*
X169685517Y-96597765D01*
X169685501Y-96597793D01*
X169685495Y-96597790D01*
X169641820Y-96649173D01*
X169574971Y-96669494D01*
X169573792Y-96669500D01*
X169569391Y-96669500D01*
X169390609Y-96669500D01*
X169359954Y-96676015D01*
X169215733Y-96706670D01*
X169215728Y-96706672D01*
X169052408Y-96779387D01*
X168907768Y-96884475D01*
X168788140Y-97017336D01*
X168698750Y-97172164D01*
X168698747Y-97172170D01*
X168643504Y-97342192D01*
X168643503Y-97342194D01*
X168624815Y-97520000D01*
X160211236Y-97520000D01*
X160231250Y-97485335D01*
X160286497Y-97315303D01*
X160305185Y-97137500D01*
X160286497Y-96959697D01*
X160258873Y-96874681D01*
X160231252Y-96789670D01*
X160231249Y-96789664D01*
X160141859Y-96634835D01*
X160072109Y-96557370D01*
X160022235Y-96501978D01*
X160022232Y-96501976D01*
X160022231Y-96501975D01*
X160022230Y-96501974D01*
X159877593Y-96396888D01*
X159714267Y-96324171D01*
X159714265Y-96324170D01*
X159586594Y-96297033D01*
X159539391Y-96287000D01*
X159360609Y-96287000D01*
X159329954Y-96293515D01*
X159185733Y-96324170D01*
X159185728Y-96324172D01*
X159022408Y-96396887D01*
X158877768Y-96501975D01*
X158758140Y-96634836D01*
X158668750Y-96789664D01*
X158668747Y-96789670D01*
X158613504Y-96959692D01*
X158613503Y-96959694D01*
X158594815Y-97137500D01*
X144770556Y-97137500D01*
X144775500Y-97106287D01*
X144775500Y-96893713D01*
X144742246Y-96683757D01*
X144676557Y-96481588D01*
X144580051Y-96292184D01*
X144580049Y-96292181D01*
X144580048Y-96292179D01*
X144455109Y-96120213D01*
X144304792Y-95969896D01*
X144252858Y-95932164D01*
X144140204Y-95850316D01*
X144097540Y-95794989D01*
X144091561Y-95725376D01*
X144124166Y-95663580D01*
X144140199Y-95649686D01*
X144304792Y-95530104D01*
X144455104Y-95379792D01*
X144455106Y-95379788D01*
X144455109Y-95379786D01*
X144580048Y-95207820D01*
X144580047Y-95207820D01*
X144580051Y-95207816D01*
X144676557Y-95018412D01*
X144742246Y-94816243D01*
X144775500Y-94606287D01*
X144775500Y-94490000D01*
X169504815Y-94490000D01*
X169523503Y-94667805D01*
X169523504Y-94667807D01*
X169578747Y-94837829D01*
X169578750Y-94837835D01*
X169668141Y-94992665D01*
X169675196Y-95000500D01*
X169787764Y-95125521D01*
X169787767Y-95125523D01*
X169787770Y-95125526D01*
X169932407Y-95230612D01*
X170095733Y-95303329D01*
X170270609Y-95340500D01*
X170270610Y-95340500D01*
X170449389Y-95340500D01*
X170449391Y-95340500D01*
X170624267Y-95303329D01*
X170787593Y-95230612D01*
X170932230Y-95125526D01*
X171051859Y-94992665D01*
X171141250Y-94837835D01*
X171196497Y-94667803D01*
X171215185Y-94490000D01*
X171196497Y-94312197D01*
X171143796Y-94150000D01*
X178634815Y-94150000D01*
X178653503Y-94327805D01*
X178653504Y-94327807D01*
X178708747Y-94497829D01*
X178708750Y-94497835D01*
X178798141Y-94652665D01*
X178839812Y-94698946D01*
X178917764Y-94785521D01*
X178917767Y-94785523D01*
X178917770Y-94785526D01*
X179062407Y-94890612D01*
X179225733Y-94963329D01*
X179400609Y-95000500D01*
X179400610Y-95000500D01*
X179579389Y-95000500D01*
X179579391Y-95000500D01*
X179754267Y-94963329D01*
X179917593Y-94890612D01*
X180062230Y-94785526D01*
X180181859Y-94652665D01*
X180271250Y-94497835D01*
X180305081Y-94393713D01*
X195224500Y-94393713D01*
X195224500Y-94606287D01*
X195257754Y-94816243D01*
X195315077Y-94992665D01*
X195323444Y-95018414D01*
X195419951Y-95207820D01*
X195544890Y-95379786D01*
X195695209Y-95530105D01*
X195695214Y-95530109D01*
X195860218Y-95649991D01*
X195902884Y-95705320D01*
X195908863Y-95774934D01*
X195876258Y-95836729D01*
X195860218Y-95850627D01*
X195695540Y-95970272D01*
X195695535Y-95970276D01*
X195545276Y-96120535D01*
X195545272Y-96120540D01*
X195420379Y-96292442D01*
X195323904Y-96481782D01*
X195258242Y-96683870D01*
X195258242Y-96683873D01*
X195247769Y-96750000D01*
X196295854Y-96750000D01*
X196257370Y-96816657D01*
X196225000Y-96937465D01*
X196225000Y-97062535D01*
X196257370Y-97183343D01*
X196295854Y-97250000D01*
X195247769Y-97250000D01*
X195258242Y-97316126D01*
X195258242Y-97316129D01*
X195323904Y-97518217D01*
X195420379Y-97707557D01*
X195545272Y-97879459D01*
X195545276Y-97879464D01*
X195695535Y-98029723D01*
X195695540Y-98029727D01*
X195860218Y-98149372D01*
X195902884Y-98204701D01*
X195908863Y-98274315D01*
X195876258Y-98336110D01*
X195860218Y-98350008D01*
X195695214Y-98469890D01*
X195695209Y-98469894D01*
X195544890Y-98620213D01*
X195419951Y-98792179D01*
X195323444Y-98981585D01*
X195257753Y-99183760D01*
X195224500Y-99393713D01*
X195224500Y-99606286D01*
X195257753Y-99816239D01*
X195323444Y-100018414D01*
X195419951Y-100207820D01*
X195544890Y-100379786D01*
X195695209Y-100530105D01*
X195695214Y-100530109D01*
X195859793Y-100649682D01*
X195902459Y-100705011D01*
X195908438Y-100774625D01*
X195875833Y-100836420D01*
X195859793Y-100850318D01*
X195695214Y-100969890D01*
X195695209Y-100969894D01*
X195544890Y-101120213D01*
X195419951Y-101292179D01*
X195323444Y-101481585D01*
X195257753Y-101683760D01*
X195224500Y-101893713D01*
X195224500Y-102106286D01*
X195257753Y-102316239D01*
X195323444Y-102518414D01*
X195419951Y-102707820D01*
X195544890Y-102879786D01*
X195695209Y-103030105D01*
X195695214Y-103030109D01*
X195859793Y-103149682D01*
X195902459Y-103205011D01*
X195908438Y-103274625D01*
X195875833Y-103336420D01*
X195859793Y-103350318D01*
X195695214Y-103469890D01*
X195695209Y-103469894D01*
X195544890Y-103620213D01*
X195419951Y-103792179D01*
X195323444Y-103981585D01*
X195257753Y-104183760D01*
X195224500Y-104393713D01*
X195224500Y-104606286D01*
X195242413Y-104719388D01*
X195257754Y-104816243D01*
X195320511Y-105009389D01*
X195323444Y-105018414D01*
X195419951Y-105207820D01*
X195544890Y-105379786D01*
X195683705Y-105518601D01*
X195717190Y-105579924D01*
X195712206Y-105649616D01*
X195670334Y-105705549D01*
X195661121Y-105711821D01*
X195506342Y-105807289D01*
X195382289Y-105931342D01*
X195290187Y-106080663D01*
X195290185Y-106080668D01*
X195262349Y-106164670D01*
X195235001Y-106247203D01*
X195235001Y-106247204D01*
X195235000Y-106247204D01*
X195224500Y-106349983D01*
X195224500Y-107650001D01*
X195224501Y-107650018D01*
X195235000Y-107752796D01*
X195235001Y-107752799D01*
X195271628Y-107863329D01*
X195290186Y-107919334D01*
X195382288Y-108068656D01*
X195506344Y-108192712D01*
X195655666Y-108284814D01*
X195822203Y-108339999D01*
X195924991Y-108350500D01*
X197475008Y-108350499D01*
X197577797Y-108339999D01*
X197744334Y-108284814D01*
X197893656Y-108192712D01*
X198017712Y-108068656D01*
X198109814Y-107919334D01*
X198164999Y-107752797D01*
X198175500Y-107650009D01*
X198175499Y-106349992D01*
X198164999Y-106247203D01*
X198109814Y-106080666D01*
X198017712Y-105931344D01*
X197893656Y-105807288D01*
X197744334Y-105715186D01*
X197744333Y-105715185D01*
X197738878Y-105711821D01*
X197692154Y-105659873D01*
X197680931Y-105590910D01*
X197708775Y-105526828D01*
X197716272Y-105518623D01*
X197855104Y-105379792D01*
X197980051Y-105207816D01*
X198076557Y-105018412D01*
X198142246Y-104816243D01*
X198175500Y-104606287D01*
X198175500Y-104393713D01*
X198142246Y-104183757D01*
X198076557Y-103981588D01*
X197980051Y-103792184D01*
X197980049Y-103792181D01*
X197980048Y-103792179D01*
X197855109Y-103620213D01*
X197704792Y-103469896D01*
X197704784Y-103469890D01*
X197540204Y-103350316D01*
X197497540Y-103294989D01*
X197491561Y-103225376D01*
X197524166Y-103163580D01*
X197540199Y-103149686D01*
X197704792Y-103030104D01*
X197855104Y-102879792D01*
X197855106Y-102879788D01*
X197855109Y-102879786D01*
X197980048Y-102707820D01*
X197980047Y-102707820D01*
X197980051Y-102707816D01*
X198076557Y-102518412D01*
X198142246Y-102316243D01*
X198175500Y-102106287D01*
X198175500Y-101893713D01*
X198142246Y-101683757D01*
X198076557Y-101481588D01*
X197980051Y-101292184D01*
X197980049Y-101292181D01*
X197980048Y-101292179D01*
X197855109Y-101120213D01*
X197704792Y-100969896D01*
X197704784Y-100969890D01*
X197540204Y-100850316D01*
X197497540Y-100794989D01*
X197491561Y-100725376D01*
X197524166Y-100663580D01*
X197540199Y-100649686D01*
X197704792Y-100530104D01*
X197855104Y-100379792D01*
X197855106Y-100379788D01*
X197855109Y-100379786D01*
X197980048Y-100207820D01*
X197980047Y-100207820D01*
X197980051Y-100207816D01*
X198076557Y-100018412D01*
X198142246Y-99816243D01*
X198175500Y-99606287D01*
X198175500Y-99393713D01*
X198142246Y-99183757D01*
X198076557Y-98981588D01*
X197980051Y-98792184D01*
X197980049Y-98792181D01*
X197980048Y-98792179D01*
X197855109Y-98620213D01*
X197704790Y-98469894D01*
X197704785Y-98469890D01*
X197539781Y-98350008D01*
X197497115Y-98294678D01*
X197491136Y-98225065D01*
X197523741Y-98163270D01*
X197539781Y-98149371D01*
X197704466Y-98029721D01*
X197854723Y-97879464D01*
X197854727Y-97879459D01*
X197979620Y-97707557D01*
X198076095Y-97518217D01*
X198141757Y-97316129D01*
X198141757Y-97316126D01*
X198152231Y-97250000D01*
X197104146Y-97250000D01*
X197142630Y-97183343D01*
X197175000Y-97062535D01*
X197175000Y-96937465D01*
X197142630Y-96816657D01*
X197104146Y-96750000D01*
X198152231Y-96750000D01*
X198141757Y-96683873D01*
X198141757Y-96683870D01*
X198076095Y-96481782D01*
X197979620Y-96292442D01*
X197854727Y-96120540D01*
X197854723Y-96120535D01*
X197704464Y-95970276D01*
X197704459Y-95970272D01*
X197539781Y-95850627D01*
X197497115Y-95795297D01*
X197491136Y-95725684D01*
X197523741Y-95663889D01*
X197539776Y-95649994D01*
X197704792Y-95530104D01*
X197855104Y-95379792D01*
X197855106Y-95379788D01*
X197855109Y-95379786D01*
X197980048Y-95207820D01*
X197980047Y-95207820D01*
X197980051Y-95207816D01*
X198076557Y-95018412D01*
X198142246Y-94816243D01*
X198175500Y-94606287D01*
X198175500Y-94393713D01*
X198142246Y-94183757D01*
X198076557Y-93981588D01*
X197980051Y-93792184D01*
X197980049Y-93792181D01*
X197980048Y-93792179D01*
X197855109Y-93620213D01*
X197704786Y-93469890D01*
X197532820Y-93344951D01*
X197343414Y-93248444D01*
X197343413Y-93248443D01*
X197343412Y-93248443D01*
X197141243Y-93182754D01*
X197141241Y-93182753D01*
X197141240Y-93182753D01*
X196966334Y-93155051D01*
X196931287Y-93149500D01*
X196468713Y-93149500D01*
X196433666Y-93155051D01*
X196258760Y-93182753D01*
X196056585Y-93248444D01*
X195867179Y-93344951D01*
X195695213Y-93469890D01*
X195544890Y-93620213D01*
X195419951Y-93792179D01*
X195323444Y-93981585D01*
X195257753Y-94183760D01*
X195224500Y-94393713D01*
X180305081Y-94393713D01*
X180326497Y-94327803D01*
X180345185Y-94150000D01*
X180326497Y-93972197D01*
X180271250Y-93802165D01*
X180181859Y-93647335D01*
X180135003Y-93595296D01*
X180062235Y-93514478D01*
X180062232Y-93514476D01*
X180062231Y-93514475D01*
X180062230Y-93514474D01*
X179917593Y-93409388D01*
X179754267Y-93336671D01*
X179754265Y-93336670D01*
X179626594Y-93309533D01*
X179579391Y-93299500D01*
X179400609Y-93299500D01*
X179369954Y-93306015D01*
X179225733Y-93336670D01*
X179225728Y-93336672D01*
X179062408Y-93409387D01*
X178917768Y-93514475D01*
X178798140Y-93647336D01*
X178708750Y-93802164D01*
X178708747Y-93802170D01*
X178653504Y-93972192D01*
X178653503Y-93972194D01*
X178634815Y-94150000D01*
X171143796Y-94150000D01*
X171141250Y-94142165D01*
X171051859Y-93987335D01*
X171005003Y-93935296D01*
X170932235Y-93854478D01*
X170932232Y-93854476D01*
X170932231Y-93854475D01*
X170932230Y-93854474D01*
X170787593Y-93749388D01*
X170624267Y-93676671D01*
X170624265Y-93676670D01*
X170496594Y-93649533D01*
X170449391Y-93639500D01*
X170270609Y-93639500D01*
X170239954Y-93646015D01*
X170095733Y-93676670D01*
X170095728Y-93676672D01*
X169932408Y-93749387D01*
X169787768Y-93854475D01*
X169668140Y-93987336D01*
X169578750Y-94142164D01*
X169578747Y-94142170D01*
X169523504Y-94312192D01*
X169523503Y-94312194D01*
X169504815Y-94490000D01*
X144775500Y-94490000D01*
X144775500Y-94393713D01*
X144742246Y-94183757D01*
X144676557Y-93981588D01*
X144580051Y-93792184D01*
X144580049Y-93792181D01*
X144580048Y-93792179D01*
X144455109Y-93620213D01*
X144304792Y-93469896D01*
X144304784Y-93469890D01*
X144140204Y-93350316D01*
X144097540Y-93294989D01*
X144091561Y-93225376D01*
X144124166Y-93163580D01*
X144140199Y-93149686D01*
X144304792Y-93030104D01*
X144455104Y-92879792D01*
X144455106Y-92879788D01*
X144455109Y-92879786D01*
X144580048Y-92707820D01*
X144580047Y-92707820D01*
X144580051Y-92707816D01*
X144676557Y-92518412D01*
X144742246Y-92316243D01*
X144775500Y-92106287D01*
X144775500Y-91893713D01*
X144742246Y-91683757D01*
X144676557Y-91481588D01*
X144580051Y-91292184D01*
X144580049Y-91292181D01*
X144580048Y-91292179D01*
X144455109Y-91120213D01*
X144316294Y-90981398D01*
X144282809Y-90920075D01*
X144287793Y-90850383D01*
X144329665Y-90794450D01*
X144338879Y-90788178D01*
X144344331Y-90784814D01*
X144344334Y-90784814D01*
X144493656Y-90692712D01*
X144617712Y-90568656D01*
X144709814Y-90419334D01*
X144764999Y-90252797D01*
X144770298Y-90200928D01*
X158104500Y-90200928D01*
X158104500Y-92030970D01*
X158124662Y-92132325D01*
X158124662Y-92132328D01*
X158129497Y-92156635D01*
X158129500Y-92156647D01*
X158178532Y-92275023D01*
X158206074Y-92316243D01*
X158241456Y-92369197D01*
X158249726Y-92381573D01*
X158920427Y-93052274D01*
X158971327Y-93086284D01*
X159026966Y-93123461D01*
X159026972Y-93123464D01*
X159026973Y-93123465D01*
X159145356Y-93172501D01*
X159145360Y-93172501D01*
X159145361Y-93172502D01*
X159271028Y-93197500D01*
X159271031Y-93197500D01*
X171818389Y-93197500D01*
X171885428Y-93217185D01*
X171891276Y-93221182D01*
X171982707Y-93287612D01*
X172146033Y-93360329D01*
X172320909Y-93397500D01*
X172320910Y-93397500D01*
X172499689Y-93397500D01*
X172499691Y-93397500D01*
X172674567Y-93360329D01*
X172837893Y-93287612D01*
X172982530Y-93182526D01*
X172991558Y-93172500D01*
X173035708Y-93123466D01*
X173102159Y-93049665D01*
X173191550Y-92894835D01*
X173246797Y-92724803D01*
X173265485Y-92547000D01*
X173248716Y-92387459D01*
X173261285Y-92318732D01*
X173309017Y-92267708D01*
X173372037Y-92250500D01*
X185264071Y-92250500D01*
X185348615Y-92233682D01*
X185389744Y-92225501D01*
X185508127Y-92176465D01*
X185614669Y-92105277D01*
X186422413Y-91297533D01*
X186483736Y-91264048D01*
X186553427Y-91269032D01*
X186609361Y-91310904D01*
X186633778Y-91376368D01*
X186633415Y-91398175D01*
X186624815Y-91479999D01*
X186643503Y-91657805D01*
X186643504Y-91657807D01*
X186698747Y-91827829D01*
X186698750Y-91827835D01*
X186788141Y-91982665D01*
X186829812Y-92028946D01*
X186907764Y-92115521D01*
X186907767Y-92115523D01*
X186907770Y-92115526D01*
X187052407Y-92220612D01*
X187215733Y-92293329D01*
X187390609Y-92330500D01*
X187390610Y-92330500D01*
X187569389Y-92330500D01*
X187569391Y-92330500D01*
X187744267Y-92293329D01*
X187907593Y-92220612D01*
X188052230Y-92115526D01*
X188061459Y-92105277D01*
X188078148Y-92086741D01*
X188171859Y-91982665D01*
X188261250Y-91827835D01*
X188316497Y-91657803D01*
X188335185Y-91480000D01*
X188316497Y-91302197D01*
X188261250Y-91132165D01*
X188171859Y-90977335D01*
X188081527Y-90877011D01*
X188052235Y-90844478D01*
X188052232Y-90844476D01*
X188052231Y-90844475D01*
X188052230Y-90844474D01*
X187907593Y-90739388D01*
X187744267Y-90666671D01*
X187744265Y-90666670D01*
X187608463Y-90637805D01*
X187569391Y-90629500D01*
X187390609Y-90629500D01*
X187389809Y-90629500D01*
X187322770Y-90609815D01*
X187277015Y-90557011D01*
X187267071Y-90487853D01*
X187296096Y-90424297D01*
X187302128Y-90417819D01*
X192972117Y-84747829D01*
X195023590Y-82696355D01*
X195084911Y-82662872D01*
X195154603Y-82667856D01*
X195210536Y-82709728D01*
X195233742Y-82764640D01*
X195255528Y-82902194D01*
X195257754Y-82916243D01*
X195319446Y-83106112D01*
X195323444Y-83118414D01*
X195419951Y-83307820D01*
X195544890Y-83479786D01*
X195695209Y-83630105D01*
X195695214Y-83630109D01*
X195859793Y-83749682D01*
X195902459Y-83805011D01*
X195908438Y-83874625D01*
X195875833Y-83936420D01*
X195859793Y-83950318D01*
X195695214Y-84069890D01*
X195695209Y-84069894D01*
X195544890Y-84220213D01*
X195419951Y-84392179D01*
X195323444Y-84581585D01*
X195257753Y-84783760D01*
X195236195Y-84919872D01*
X195224500Y-84993713D01*
X195224500Y-85206287D01*
X195257754Y-85416243D01*
X195302966Y-85555392D01*
X195323444Y-85618414D01*
X195419951Y-85807820D01*
X195544890Y-85979786D01*
X195683705Y-86118601D01*
X195717190Y-86179924D01*
X195712206Y-86249616D01*
X195670334Y-86305549D01*
X195661121Y-86311821D01*
X195506342Y-86407289D01*
X195382289Y-86531342D01*
X195290187Y-86680663D01*
X195290186Y-86680666D01*
X195235001Y-86847203D01*
X195235001Y-86847204D01*
X195235000Y-86847204D01*
X195224500Y-86949983D01*
X195224500Y-88250001D01*
X195224501Y-88250018D01*
X195235000Y-88352796D01*
X195235001Y-88352799D01*
X195290185Y-88519331D01*
X195290187Y-88519336D01*
X195325069Y-88575888D01*
X195382288Y-88668656D01*
X195506344Y-88792712D01*
X195655666Y-88884814D01*
X195822203Y-88939999D01*
X195924991Y-88950500D01*
X197475008Y-88950499D01*
X197577797Y-88939999D01*
X197744334Y-88884814D01*
X197893656Y-88792712D01*
X198017712Y-88668656D01*
X198109814Y-88519334D01*
X198164999Y-88352797D01*
X198175500Y-88250009D01*
X198175499Y-86949992D01*
X198164999Y-86847203D01*
X198109814Y-86680666D01*
X198017712Y-86531344D01*
X197893656Y-86407288D01*
X197744334Y-86315186D01*
X197744333Y-86315185D01*
X197738878Y-86311821D01*
X197692154Y-86259873D01*
X197680931Y-86190910D01*
X197708775Y-86126828D01*
X197716272Y-86118623D01*
X197855104Y-85979792D01*
X197980051Y-85807816D01*
X198076557Y-85618412D01*
X198142246Y-85416243D01*
X198175500Y-85206287D01*
X198175500Y-84993713D01*
X198142246Y-84783757D01*
X198076557Y-84581588D01*
X197980051Y-84392184D01*
X197980049Y-84392181D01*
X197980048Y-84392179D01*
X197855109Y-84220213D01*
X197704792Y-84069896D01*
X197680386Y-84052164D01*
X197540204Y-83950316D01*
X197497540Y-83894989D01*
X197491561Y-83825376D01*
X197524166Y-83763580D01*
X197540199Y-83749686D01*
X197704792Y-83630104D01*
X197855104Y-83479792D01*
X197855106Y-83479788D01*
X197855109Y-83479786D01*
X197980048Y-83307820D01*
X197980047Y-83307820D01*
X197980051Y-83307816D01*
X198076557Y-83118412D01*
X198142246Y-82916243D01*
X198175500Y-82706287D01*
X198175500Y-82493713D01*
X198142246Y-82283757D01*
X198076557Y-82081588D01*
X197980051Y-81892184D01*
X197980049Y-81892181D01*
X197980048Y-81892179D01*
X197855109Y-81720213D01*
X197704792Y-81569896D01*
X197680394Y-81552170D01*
X197540204Y-81450316D01*
X197497540Y-81394989D01*
X197491561Y-81325376D01*
X197524166Y-81263580D01*
X197540199Y-81249686D01*
X197704792Y-81130104D01*
X197855104Y-80979792D01*
X197855106Y-80979788D01*
X197855109Y-80979786D01*
X197980048Y-80807820D01*
X197980047Y-80807820D01*
X197980051Y-80807816D01*
X198076557Y-80618412D01*
X198142246Y-80416243D01*
X198175500Y-80206287D01*
X198175500Y-79993713D01*
X198142246Y-79783757D01*
X198076557Y-79581588D01*
X197980051Y-79392184D01*
X197980049Y-79392181D01*
X197980048Y-79392179D01*
X197855109Y-79220213D01*
X197704790Y-79069894D01*
X197704785Y-79069890D01*
X197539781Y-78950008D01*
X197497115Y-78894678D01*
X197491136Y-78825065D01*
X197523741Y-78763270D01*
X197539781Y-78749371D01*
X197704466Y-78629721D01*
X197854723Y-78479464D01*
X197854727Y-78479459D01*
X197979620Y-78307557D01*
X198076095Y-78118217D01*
X198141757Y-77916129D01*
X198141757Y-77916126D01*
X198152231Y-77850000D01*
X197104146Y-77850000D01*
X197142630Y-77783343D01*
X197175000Y-77662535D01*
X197175000Y-77537465D01*
X197142630Y-77416657D01*
X197104146Y-77350000D01*
X198152231Y-77350000D01*
X198141757Y-77283873D01*
X198141757Y-77283870D01*
X198076095Y-77081782D01*
X197979620Y-76892442D01*
X197854727Y-76720540D01*
X197854723Y-76720535D01*
X197704464Y-76570276D01*
X197704459Y-76570272D01*
X197539781Y-76450627D01*
X197497115Y-76395297D01*
X197491136Y-76325684D01*
X197523741Y-76263889D01*
X197539776Y-76249994D01*
X197704792Y-76130104D01*
X197855104Y-75979792D01*
X197855106Y-75979788D01*
X197855109Y-75979786D01*
X197980048Y-75807820D01*
X197980047Y-75807820D01*
X197980051Y-75807816D01*
X198076557Y-75618412D01*
X198142246Y-75416243D01*
X198175500Y-75206287D01*
X198175500Y-74993713D01*
X198142246Y-74783757D01*
X198076557Y-74581588D01*
X197980051Y-74392184D01*
X197980049Y-74392181D01*
X197980048Y-74392179D01*
X197855109Y-74220213D01*
X197704786Y-74069890D01*
X197532820Y-73944951D01*
X197343414Y-73848444D01*
X197343413Y-73848443D01*
X197343412Y-73848443D01*
X197141243Y-73782754D01*
X197141241Y-73782753D01*
X197141240Y-73782753D01*
X196979957Y-73757208D01*
X196931287Y-73749500D01*
X196468713Y-73749500D01*
X196420042Y-73757208D01*
X196258760Y-73782753D01*
X196056585Y-73848444D01*
X195867179Y-73944951D01*
X195695213Y-74069890D01*
X195544890Y-74220213D01*
X195419951Y-74392179D01*
X195323444Y-74581585D01*
X195257753Y-74783760D01*
X195224500Y-74993713D01*
X195224500Y-75206287D01*
X195234534Y-75269644D01*
X195257753Y-75416239D01*
X195323444Y-75618414D01*
X195419951Y-75807820D01*
X195544890Y-75979786D01*
X195695209Y-76130105D01*
X195695214Y-76130109D01*
X195860218Y-76249991D01*
X195902884Y-76305320D01*
X195908863Y-76374934D01*
X195876258Y-76436729D01*
X195860218Y-76450627D01*
X195695540Y-76570272D01*
X195695535Y-76570276D01*
X195545276Y-76720535D01*
X195545272Y-76720540D01*
X195420379Y-76892442D01*
X195323904Y-77081782D01*
X195258242Y-77283870D01*
X195258242Y-77283873D01*
X195247769Y-77350000D01*
X196295854Y-77350000D01*
X196257370Y-77416657D01*
X196225000Y-77537465D01*
X196225000Y-77662535D01*
X196257370Y-77783343D01*
X196295854Y-77850000D01*
X195247769Y-77850000D01*
X195258242Y-77916126D01*
X195258242Y-77916129D01*
X195323904Y-78118217D01*
X195420379Y-78307557D01*
X195545272Y-78479459D01*
X195545276Y-78479464D01*
X195695535Y-78629723D01*
X195695540Y-78629727D01*
X195860218Y-78749372D01*
X195902884Y-78804701D01*
X195908863Y-78874315D01*
X195876258Y-78936110D01*
X195860218Y-78950008D01*
X195695214Y-79069890D01*
X195695209Y-79069894D01*
X195544890Y-79220213D01*
X195419951Y-79392179D01*
X195323444Y-79581585D01*
X195257753Y-79783760D01*
X195224500Y-79993713D01*
X195224500Y-80206286D01*
X195257753Y-80416240D01*
X195257754Y-80416244D01*
X195284805Y-80499499D01*
X195286800Y-80569340D01*
X195254555Y-80625497D01*
X184966873Y-90913181D01*
X184905550Y-90946666D01*
X184879192Y-90949500D01*
X164585892Y-90949500D01*
X164518853Y-90929815D01*
X164473098Y-90877011D01*
X164463154Y-90807853D01*
X164467961Y-90787182D01*
X164500957Y-90685630D01*
X164516497Y-90637803D01*
X164535185Y-90460000D01*
X164516497Y-90282197D01*
X164473549Y-90150016D01*
X164461252Y-90112170D01*
X164461249Y-90112164D01*
X164439943Y-90075261D01*
X164371859Y-89957335D01*
X164325003Y-89905296D01*
X164252235Y-89824478D01*
X164252226Y-89824471D01*
X164129774Y-89735502D01*
X164087108Y-89680172D01*
X164081130Y-89610558D01*
X164113737Y-89548764D01*
X164152220Y-89521908D01*
X164177593Y-89510612D01*
X164322230Y-89405526D01*
X164441859Y-89272665D01*
X164531250Y-89117835D01*
X164586497Y-88947803D01*
X164602032Y-88800000D01*
X171464815Y-88800000D01*
X171483503Y-88977805D01*
X171483504Y-88977807D01*
X171538747Y-89147829D01*
X171538750Y-89147835D01*
X171628141Y-89302665D01*
X171669812Y-89348946D01*
X171747764Y-89435521D01*
X171747767Y-89435523D01*
X171747770Y-89435526D01*
X171892407Y-89540612D01*
X172055733Y-89613329D01*
X172230609Y-89650500D01*
X172230610Y-89650500D01*
X172409389Y-89650500D01*
X172409391Y-89650500D01*
X172584267Y-89613329D01*
X172747593Y-89540612D01*
X172892230Y-89435526D01*
X173011859Y-89302665D01*
X173101250Y-89147835D01*
X173156497Y-88977803D01*
X173175185Y-88800000D01*
X173156497Y-88622197D01*
X173111160Y-88482665D01*
X173101252Y-88452170D01*
X173101249Y-88452164D01*
X173089229Y-88431344D01*
X173011859Y-88297335D01*
X172948232Y-88226670D01*
X172892235Y-88164478D01*
X172892232Y-88164476D01*
X172892231Y-88164475D01*
X172892230Y-88164474D01*
X172747593Y-88059388D01*
X172584267Y-87986671D01*
X172584265Y-87986670D01*
X172552885Y-87980000D01*
X181764815Y-87980000D01*
X181783503Y-88157805D01*
X181783504Y-88157807D01*
X181838747Y-88327829D01*
X181838750Y-88327835D01*
X181928141Y-88482665D01*
X181961155Y-88519331D01*
X182047764Y-88615521D01*
X182047767Y-88615523D01*
X182047770Y-88615526D01*
X182192407Y-88720612D01*
X182355733Y-88793329D01*
X182530609Y-88830500D01*
X182530610Y-88830500D01*
X182709389Y-88830500D01*
X182709391Y-88830500D01*
X182884267Y-88793329D01*
X183047593Y-88720612D01*
X183192230Y-88615526D01*
X183311859Y-88482665D01*
X183401250Y-88327835D01*
X183456497Y-88157803D01*
X183475185Y-87980000D01*
X183456497Y-87802197D01*
X183401250Y-87632165D01*
X183311859Y-87477335D01*
X183265003Y-87425296D01*
X183192235Y-87344478D01*
X183192232Y-87344476D01*
X183192231Y-87344475D01*
X183192230Y-87344474D01*
X183047593Y-87239388D01*
X182884267Y-87166671D01*
X182884265Y-87166670D01*
X182756594Y-87139533D01*
X182709391Y-87129500D01*
X182530609Y-87129500D01*
X182499954Y-87136015D01*
X182355733Y-87166670D01*
X182355728Y-87166672D01*
X182192408Y-87239387D01*
X182047768Y-87344475D01*
X181928140Y-87477336D01*
X181838750Y-87632164D01*
X181838747Y-87632170D01*
X181783504Y-87802192D01*
X181783503Y-87802194D01*
X181764815Y-87980000D01*
X172552885Y-87980000D01*
X172456594Y-87959533D01*
X172409391Y-87949500D01*
X172230609Y-87949500D01*
X172199954Y-87956015D01*
X172055733Y-87986670D01*
X172055728Y-87986672D01*
X171892408Y-88059387D01*
X171747768Y-88164475D01*
X171628140Y-88297336D01*
X171538750Y-88452164D01*
X171538747Y-88452170D01*
X171483504Y-88622192D01*
X171483503Y-88622194D01*
X171464815Y-88800000D01*
X164602032Y-88800000D01*
X164605185Y-88770000D01*
X164586497Y-88592197D01*
X164550907Y-88482663D01*
X164531252Y-88422170D01*
X164531249Y-88422164D01*
X164521037Y-88404476D01*
X164441859Y-88267335D01*
X164371776Y-88189500D01*
X164322235Y-88134478D01*
X164322232Y-88134476D01*
X164322231Y-88134475D01*
X164322230Y-88134474D01*
X164177593Y-88029388D01*
X164014267Y-87956671D01*
X164014265Y-87956670D01*
X163886594Y-87929533D01*
X163839391Y-87919500D01*
X163660609Y-87919500D01*
X163629954Y-87926015D01*
X163485733Y-87956670D01*
X163485728Y-87956672D01*
X163322408Y-88029387D01*
X163177768Y-88134475D01*
X163058140Y-88267336D01*
X162968750Y-88422164D01*
X162968747Y-88422170D01*
X162913504Y-88592192D01*
X162913503Y-88592194D01*
X162894815Y-88770000D01*
X162913503Y-88947805D01*
X162913504Y-88947807D01*
X162968747Y-89117829D01*
X162968750Y-89117835D01*
X163058141Y-89272665D01*
X163085153Y-89302665D01*
X163177764Y-89405521D01*
X163177767Y-89405523D01*
X163177770Y-89405526D01*
X163300226Y-89494496D01*
X163342891Y-89549826D01*
X163348870Y-89619440D01*
X163316264Y-89681235D01*
X163277777Y-89708093D01*
X163252407Y-89719388D01*
X163107768Y-89824475D01*
X162988140Y-89957336D01*
X162898750Y-90112164D01*
X162898747Y-90112170D01*
X162843504Y-90282192D01*
X162843503Y-90282194D01*
X162824815Y-90460000D01*
X162843503Y-90637805D01*
X162843504Y-90637807D01*
X162892039Y-90787182D01*
X162894034Y-90857023D01*
X162857954Y-90916856D01*
X162795253Y-90947684D01*
X162774108Y-90949500D01*
X160051911Y-90949500D01*
X159984872Y-90929815D01*
X159979025Y-90925818D01*
X159955998Y-90909088D01*
X159887593Y-90859388D01*
X159724267Y-90786671D01*
X159724265Y-90786670D01*
X159724266Y-90786670D01*
X159692823Y-90779987D01*
X159631341Y-90746794D01*
X159597565Y-90685630D01*
X159602219Y-90615916D01*
X159643824Y-90559784D01*
X159645662Y-90558421D01*
X159732230Y-90495526D01*
X159851859Y-90362665D01*
X159941250Y-90207835D01*
X159996497Y-90037803D01*
X160015185Y-89860000D01*
X159996497Y-89682197D01*
X159951160Y-89542665D01*
X159941252Y-89512170D01*
X159941249Y-89512164D01*
X159940353Y-89510612D01*
X159851859Y-89357335D01*
X159775620Y-89272663D01*
X159732235Y-89224478D01*
X159732232Y-89224476D01*
X159732231Y-89224475D01*
X159732230Y-89224474D01*
X159587593Y-89119388D01*
X159424267Y-89046671D01*
X159424265Y-89046670D01*
X159296594Y-89019533D01*
X159249391Y-89009500D01*
X159070609Y-89009500D01*
X159039954Y-89016015D01*
X158895733Y-89046670D01*
X158895728Y-89046672D01*
X158732408Y-89119387D01*
X158587768Y-89224475D01*
X158468140Y-89357336D01*
X158378750Y-89512164D01*
X158378747Y-89512170D01*
X158323504Y-89682192D01*
X158323503Y-89682194D01*
X158317011Y-89743963D01*
X158290425Y-89808577D01*
X158281374Y-89818679D01*
X158249719Y-89850335D01*
X158249718Y-89850336D01*
X158200455Y-89924067D01*
X158200453Y-89924070D01*
X158178539Y-89956864D01*
X158178533Y-89956875D01*
X158129499Y-90075255D01*
X158129497Y-90075261D01*
X158104500Y-90200928D01*
X144770298Y-90200928D01*
X144775500Y-90150009D01*
X144775499Y-89040000D01*
X154524815Y-89040000D01*
X154543503Y-89217805D01*
X154543504Y-89217807D01*
X154598747Y-89387829D01*
X154598750Y-89387835D01*
X154688141Y-89542665D01*
X154693633Y-89548764D01*
X154807764Y-89675521D01*
X154807767Y-89675523D01*
X154807770Y-89675526D01*
X154952407Y-89780612D01*
X155115733Y-89853329D01*
X155290609Y-89890500D01*
X155290610Y-89890500D01*
X155469389Y-89890500D01*
X155469391Y-89890500D01*
X155644267Y-89853329D01*
X155807593Y-89780612D01*
X155952230Y-89675526D01*
X156071859Y-89542665D01*
X156161250Y-89387835D01*
X156216497Y-89217803D01*
X156235185Y-89040000D01*
X156216497Y-88862197D01*
X156170493Y-88720612D01*
X156161252Y-88692170D01*
X156161249Y-88692164D01*
X156071859Y-88537335D01*
X155995176Y-88452170D01*
X155952235Y-88404478D01*
X155952232Y-88404476D01*
X155952231Y-88404475D01*
X155952230Y-88404474D01*
X155807593Y-88299388D01*
X155644267Y-88226671D01*
X155644265Y-88226670D01*
X155516594Y-88199533D01*
X155469391Y-88189500D01*
X155290609Y-88189500D01*
X155259954Y-88196015D01*
X155115733Y-88226670D01*
X155115728Y-88226672D01*
X154952408Y-88299387D01*
X154807768Y-88404475D01*
X154688140Y-88537336D01*
X154598750Y-88692164D01*
X154598747Y-88692170D01*
X154543504Y-88862192D01*
X154543503Y-88862194D01*
X154524815Y-89040000D01*
X144775499Y-89040000D01*
X144775499Y-88849992D01*
X144764999Y-88747203D01*
X144709814Y-88580666D01*
X144617712Y-88431344D01*
X144493656Y-88307288D01*
X144362956Y-88226672D01*
X144344336Y-88215187D01*
X144344331Y-88215185D01*
X144342862Y-88214698D01*
X144177797Y-88160001D01*
X144177795Y-88160000D01*
X144075010Y-88149500D01*
X142524998Y-88149500D01*
X142524981Y-88149501D01*
X142422203Y-88160000D01*
X142422200Y-88160001D01*
X142255668Y-88215185D01*
X142255663Y-88215187D01*
X142106342Y-88307289D01*
X141982289Y-88431342D01*
X141890187Y-88580663D01*
X141890185Y-88580668D01*
X141876425Y-88622194D01*
X141835001Y-88747203D01*
X141835001Y-88747204D01*
X141835000Y-88747204D01*
X141824500Y-88849983D01*
X140500500Y-88849983D01*
X140500500Y-85733200D01*
X155167815Y-85733200D01*
X155186503Y-85911005D01*
X155186504Y-85911007D01*
X155241747Y-86081029D01*
X155241750Y-86081035D01*
X155331141Y-86235865D01*
X155372812Y-86282146D01*
X155450764Y-86368721D01*
X155450767Y-86368723D01*
X155450770Y-86368726D01*
X155595407Y-86473812D01*
X155758733Y-86546529D01*
X155933609Y-86583700D01*
X155933610Y-86583700D01*
X156112389Y-86583700D01*
X156112391Y-86583700D01*
X156287267Y-86546529D01*
X156450593Y-86473812D01*
X156595230Y-86368726D01*
X156714859Y-86235865D01*
X156804250Y-86081035D01*
X156859497Y-85911003D01*
X156878185Y-85733200D01*
X156859497Y-85555397D01*
X156804250Y-85385365D01*
X156714859Y-85230535D01*
X156633892Y-85140612D01*
X156595235Y-85097678D01*
X156595232Y-85097676D01*
X156595231Y-85097675D01*
X156595230Y-85097674D01*
X156450593Y-84992588D01*
X156287267Y-84919871D01*
X156287265Y-84919870D01*
X156159594Y-84892733D01*
X156112391Y-84882700D01*
X155933609Y-84882700D01*
X155902954Y-84889215D01*
X155758733Y-84919870D01*
X155758728Y-84919872D01*
X155595408Y-84992587D01*
X155450768Y-85097675D01*
X155331140Y-85230536D01*
X155241750Y-85385364D01*
X155241747Y-85385370D01*
X155186504Y-85555392D01*
X155186503Y-85555394D01*
X155167815Y-85733200D01*
X140500500Y-85733200D01*
X140500500Y-84400000D01*
X161104815Y-84400000D01*
X161123503Y-84577805D01*
X161123504Y-84577807D01*
X161178747Y-84747829D01*
X161178750Y-84747835D01*
X161268141Y-84902665D01*
X161309812Y-84948946D01*
X161387764Y-85035521D01*
X161387767Y-85035523D01*
X161387770Y-85035526D01*
X161532407Y-85140612D01*
X161695733Y-85213329D01*
X161870609Y-85250500D01*
X161870610Y-85250500D01*
X162049389Y-85250500D01*
X162049391Y-85250500D01*
X162224267Y-85213329D01*
X162387593Y-85140612D01*
X162532230Y-85035526D01*
X162651859Y-84902665D01*
X162741250Y-84747835D01*
X162796497Y-84577803D01*
X162815185Y-84400000D01*
X162796497Y-84222197D01*
X162747011Y-84069894D01*
X162741252Y-84052170D01*
X162741249Y-84052164D01*
X162682449Y-83950319D01*
X162651859Y-83897335D01*
X162582777Y-83820612D01*
X162532235Y-83764478D01*
X162532232Y-83764476D01*
X162532231Y-83764475D01*
X162532230Y-83764474D01*
X162387593Y-83659388D01*
X162224267Y-83586671D01*
X162224265Y-83586670D01*
X162096594Y-83559533D01*
X162049391Y-83549500D01*
X161870609Y-83549500D01*
X161839954Y-83556015D01*
X161695733Y-83586670D01*
X161695728Y-83586672D01*
X161532408Y-83659387D01*
X161387768Y-83764475D01*
X161268140Y-83897336D01*
X161178750Y-84052164D01*
X161178747Y-84052170D01*
X161123504Y-84222192D01*
X161123503Y-84222194D01*
X161104815Y-84400000D01*
X140500500Y-84400000D01*
X140500500Y-83080000D01*
X155244815Y-83080000D01*
X155263503Y-83257805D01*
X155263504Y-83257807D01*
X155318747Y-83427829D01*
X155318750Y-83427835D01*
X155408141Y-83582665D01*
X155449812Y-83628946D01*
X155527764Y-83715521D01*
X155527767Y-83715523D01*
X155527770Y-83715526D01*
X155672407Y-83820612D01*
X155835733Y-83893329D01*
X156010609Y-83930500D01*
X156010610Y-83930500D01*
X156189389Y-83930500D01*
X156189391Y-83930500D01*
X156364267Y-83893329D01*
X156527593Y-83820612D01*
X156672230Y-83715526D01*
X156791859Y-83582665D01*
X156881250Y-83427835D01*
X156936497Y-83257803D01*
X156955185Y-83080000D01*
X156936497Y-82902197D01*
X156888690Y-82755063D01*
X156881252Y-82732170D01*
X156881249Y-82732164D01*
X156791859Y-82577335D01*
X156718126Y-82495446D01*
X156672235Y-82444478D01*
X156672232Y-82444476D01*
X156672231Y-82444475D01*
X156672230Y-82444474D01*
X156563533Y-82365500D01*
X168541315Y-82365500D01*
X168560003Y-82543305D01*
X168560004Y-82543307D01*
X168615247Y-82713329D01*
X168615250Y-82713335D01*
X168704641Y-82868165D01*
X168735279Y-82902192D01*
X168824264Y-83001021D01*
X168824267Y-83001023D01*
X168824270Y-83001026D01*
X168968907Y-83106112D01*
X169132233Y-83178829D01*
X169307109Y-83216000D01*
X169307110Y-83216000D01*
X169485889Y-83216000D01*
X169485891Y-83216000D01*
X169660767Y-83178829D01*
X169824093Y-83106112D01*
X169968730Y-83001026D01*
X170088359Y-82868165D01*
X170177750Y-82713335D01*
X170232997Y-82543303D01*
X170251685Y-82365500D01*
X170232997Y-82187697D01*
X170177750Y-82017665D01*
X170088359Y-81862835D01*
X170041503Y-81810796D01*
X169968735Y-81729978D01*
X169968732Y-81729976D01*
X169968731Y-81729975D01*
X169968730Y-81729974D01*
X169824093Y-81624888D01*
X169660767Y-81552171D01*
X169660765Y-81552170D01*
X169533094Y-81525033D01*
X169485891Y-81515000D01*
X169307109Y-81515000D01*
X169276454Y-81521515D01*
X169132233Y-81552170D01*
X169132228Y-81552172D01*
X168968908Y-81624887D01*
X168824268Y-81729975D01*
X168704640Y-81862836D01*
X168615250Y-82017664D01*
X168615247Y-82017670D01*
X168560004Y-82187692D01*
X168560003Y-82187694D01*
X168541315Y-82365500D01*
X156563533Y-82365500D01*
X156527593Y-82339388D01*
X156364267Y-82266671D01*
X156364265Y-82266670D01*
X156236594Y-82239533D01*
X156189391Y-82229500D01*
X156010609Y-82229500D01*
X155979954Y-82236015D01*
X155835733Y-82266670D01*
X155835728Y-82266672D01*
X155672408Y-82339387D01*
X155527768Y-82444475D01*
X155408140Y-82577336D01*
X155318750Y-82732164D01*
X155318747Y-82732170D01*
X155263504Y-82902192D01*
X155263503Y-82902194D01*
X155244815Y-83080000D01*
X140500500Y-83080000D01*
X140500500Y-76339999D01*
X141044341Y-76339999D01*
X141044341Y-76340000D01*
X141064936Y-76575403D01*
X141064938Y-76575413D01*
X141126094Y-76803655D01*
X141126096Y-76803659D01*
X141126097Y-76803663D01*
X141225965Y-77017830D01*
X141225967Y-77017834D01*
X141361501Y-77211395D01*
X141361506Y-77211402D01*
X141528597Y-77378493D01*
X141528603Y-77378498D01*
X141714158Y-77508425D01*
X141757783Y-77563002D01*
X141764977Y-77632500D01*
X141733454Y-77694855D01*
X141714158Y-77711575D01*
X141528597Y-77841505D01*
X141361505Y-78008597D01*
X141225965Y-78202169D01*
X141225964Y-78202171D01*
X141126098Y-78416335D01*
X141126094Y-78416344D01*
X141064938Y-78644586D01*
X141064936Y-78644596D01*
X141044341Y-78879999D01*
X141044341Y-78880000D01*
X141064936Y-79115403D01*
X141064938Y-79115413D01*
X141126094Y-79343655D01*
X141126096Y-79343659D01*
X141126097Y-79343663D01*
X141148723Y-79392184D01*
X141225965Y-79557830D01*
X141225967Y-79557834D01*
X141361501Y-79751395D01*
X141361506Y-79751402D01*
X141528597Y-79918493D01*
X141528603Y-79918498D01*
X141714158Y-80048425D01*
X141757783Y-80103002D01*
X141764977Y-80172500D01*
X141733454Y-80234855D01*
X141714158Y-80251575D01*
X141528597Y-80381505D01*
X141361505Y-80548597D01*
X141225965Y-80742169D01*
X141225964Y-80742171D01*
X141126098Y-80956335D01*
X141126094Y-80956344D01*
X141064938Y-81184586D01*
X141064936Y-81184596D01*
X141044341Y-81419999D01*
X141044341Y-81420000D01*
X141064936Y-81655403D01*
X141064938Y-81655413D01*
X141126094Y-81883655D01*
X141126096Y-81883659D01*
X141126097Y-81883663D01*
X141188586Y-82017670D01*
X141225965Y-82097830D01*
X141225967Y-82097834D01*
X141318161Y-82229500D01*
X141361505Y-82291401D01*
X141528599Y-82458495D01*
X141625384Y-82526265D01*
X141722165Y-82594032D01*
X141722167Y-82594033D01*
X141722170Y-82594035D01*
X141936337Y-82693903D01*
X141936343Y-82693904D01*
X141936344Y-82693905D01*
X141982555Y-82706287D01*
X142164592Y-82755063D01*
X142352918Y-82771539D01*
X142399999Y-82775659D01*
X142400000Y-82775659D01*
X142400001Y-82775659D01*
X142439234Y-82772226D01*
X142635408Y-82755063D01*
X142863663Y-82693903D01*
X143077830Y-82594035D01*
X143271401Y-82458495D01*
X143438495Y-82291401D01*
X143574035Y-82097830D01*
X143673903Y-81883663D01*
X143735063Y-81655408D01*
X143755659Y-81420000D01*
X143735063Y-81184592D01*
X143673903Y-80956337D01*
X143574035Y-80742171D01*
X143492340Y-80625497D01*
X143438494Y-80548597D01*
X143271402Y-80381506D01*
X143271396Y-80381501D01*
X143085842Y-80251575D01*
X143042217Y-80196998D01*
X143035023Y-80127500D01*
X143066546Y-80065145D01*
X143085842Y-80048425D01*
X143108026Y-80032891D01*
X143271401Y-79918495D01*
X143438495Y-79751401D01*
X143574035Y-79557830D01*
X143673903Y-79343663D01*
X143735063Y-79115408D01*
X143755659Y-78880000D01*
X143735063Y-78644592D01*
X143673903Y-78416337D01*
X143574035Y-78202171D01*
X143484990Y-78075000D01*
X143438494Y-78008597D01*
X143271402Y-77841506D01*
X143271396Y-77841501D01*
X143085842Y-77711575D01*
X143042217Y-77656998D01*
X143035023Y-77587500D01*
X143066546Y-77525145D01*
X143085842Y-77508425D01*
X143216900Y-77416657D01*
X143271401Y-77378495D01*
X143438495Y-77211401D01*
X143574035Y-77017830D01*
X143673903Y-76803663D01*
X143735063Y-76575408D01*
X143755659Y-76340000D01*
X143755659Y-76339999D01*
X146244341Y-76339999D01*
X146244341Y-76340000D01*
X146264936Y-76575403D01*
X146264938Y-76575413D01*
X146326094Y-76803655D01*
X146326096Y-76803659D01*
X146326097Y-76803663D01*
X146425965Y-77017830D01*
X146425967Y-77017834D01*
X146561501Y-77211395D01*
X146561506Y-77211402D01*
X146728597Y-77378493D01*
X146728603Y-77378498D01*
X146914158Y-77508425D01*
X146957783Y-77563002D01*
X146964977Y-77632500D01*
X146933454Y-77694855D01*
X146914158Y-77711575D01*
X146728597Y-77841505D01*
X146561505Y-78008597D01*
X146425965Y-78202169D01*
X146425964Y-78202171D01*
X146326098Y-78416335D01*
X146326094Y-78416344D01*
X146264938Y-78644586D01*
X146264936Y-78644596D01*
X146244341Y-78879999D01*
X146244341Y-78880000D01*
X146264936Y-79115403D01*
X146264938Y-79115413D01*
X146326094Y-79343655D01*
X146326096Y-79343659D01*
X146326097Y-79343663D01*
X146348723Y-79392184D01*
X146425965Y-79557830D01*
X146425967Y-79557834D01*
X146534281Y-79712521D01*
X146561505Y-79751401D01*
X146728599Y-79918495D01*
X146825384Y-79986265D01*
X146922165Y-80054032D01*
X146922167Y-80054033D01*
X146922170Y-80054035D01*
X147136337Y-80153903D01*
X147364592Y-80215063D01*
X147552918Y-80231539D01*
X147599999Y-80235659D01*
X147600000Y-80235659D01*
X147600001Y-80235659D01*
X147639234Y-80232226D01*
X147835408Y-80215063D01*
X148063663Y-80153903D01*
X148277830Y-80054035D01*
X148471401Y-79918495D01*
X148638495Y-79751401D01*
X148774035Y-79557830D01*
X148873903Y-79343663D01*
X148935063Y-79115408D01*
X148955659Y-78880000D01*
X148935063Y-78644592D01*
X148873903Y-78416337D01*
X148774035Y-78202171D01*
X148684990Y-78075000D01*
X148638494Y-78008597D01*
X148471402Y-77841506D01*
X148471396Y-77841501D01*
X148285842Y-77711575D01*
X148242217Y-77656998D01*
X148235023Y-77587500D01*
X148266546Y-77525145D01*
X148285842Y-77508425D01*
X148416900Y-77416657D01*
X148471401Y-77378495D01*
X148638495Y-77211401D01*
X148758511Y-77040000D01*
X178764815Y-77040000D01*
X178783503Y-77217805D01*
X178783504Y-77217807D01*
X178838747Y-77387829D01*
X178838750Y-77387835D01*
X178928141Y-77542665D01*
X178946453Y-77563002D01*
X179047764Y-77675521D01*
X179047767Y-77675523D01*
X179047770Y-77675526D01*
X179192407Y-77780612D01*
X179355733Y-77853329D01*
X179530609Y-77890500D01*
X179530610Y-77890500D01*
X179709389Y-77890500D01*
X179709391Y-77890500D01*
X179884267Y-77853329D01*
X180047593Y-77780612D01*
X180192230Y-77675526D01*
X180311859Y-77542665D01*
X180401250Y-77387835D01*
X180456497Y-77217803D01*
X180475185Y-77040000D01*
X180456497Y-76862197D01*
X180401250Y-76692165D01*
X180311859Y-76537335D01*
X180265003Y-76485296D01*
X180192235Y-76404478D01*
X180192232Y-76404476D01*
X180192231Y-76404475D01*
X180192230Y-76404474D01*
X180047593Y-76299388D01*
X179884267Y-76226671D01*
X179884265Y-76226670D01*
X179756594Y-76199533D01*
X179709391Y-76189500D01*
X179530609Y-76189500D01*
X179499954Y-76196015D01*
X179355733Y-76226670D01*
X179355728Y-76226672D01*
X179192408Y-76299387D01*
X179047768Y-76404475D01*
X178928140Y-76537336D01*
X178838750Y-76692164D01*
X178838747Y-76692170D01*
X178783504Y-76862192D01*
X178783503Y-76862194D01*
X178764815Y-77040000D01*
X148758511Y-77040000D01*
X148774035Y-77017830D01*
X148873903Y-76803663D01*
X148935063Y-76575408D01*
X148955659Y-76340000D01*
X148954406Y-76325684D01*
X148945744Y-76226670D01*
X148935063Y-76104592D01*
X148873903Y-75876337D01*
X148774035Y-75662171D01*
X148743396Y-75618414D01*
X148638496Y-75468600D01*
X148586135Y-75416239D01*
X148516567Y-75346671D01*
X148483084Y-75285351D01*
X148488068Y-75215659D01*
X148529939Y-75159725D01*
X148560915Y-75142810D01*
X148692331Y-75093796D01*
X148807546Y-75007546D01*
X148893796Y-74892331D01*
X148944091Y-74757483D01*
X148950500Y-74697873D01*
X148950500Y-74210000D01*
X168304815Y-74210000D01*
X168323503Y-74387805D01*
X168323504Y-74387807D01*
X168378747Y-74557829D01*
X168378750Y-74557835D01*
X168468141Y-74712665D01*
X168508495Y-74757482D01*
X168587764Y-74845521D01*
X168587767Y-74845523D01*
X168587770Y-74845526D01*
X168732407Y-74950612D01*
X168895733Y-75023329D01*
X169070609Y-75060500D01*
X169070610Y-75060500D01*
X169249389Y-75060500D01*
X169249391Y-75060500D01*
X169424267Y-75023329D01*
X169587593Y-74950612D01*
X169732230Y-74845526D01*
X169851859Y-74712665D01*
X169941250Y-74557835D01*
X169996497Y-74387803D01*
X170015185Y-74210000D01*
X169996497Y-74032197D01*
X169941250Y-73862165D01*
X169851859Y-73707335D01*
X169805003Y-73655296D01*
X169732235Y-73574478D01*
X169732232Y-73574476D01*
X169732231Y-73574475D01*
X169732230Y-73574474D01*
X169587593Y-73469388D01*
X169424267Y-73396671D01*
X169424265Y-73396670D01*
X169296594Y-73369533D01*
X169249391Y-73359500D01*
X169070609Y-73359500D01*
X169039954Y-73366015D01*
X168895733Y-73396670D01*
X168895728Y-73396672D01*
X168732408Y-73469387D01*
X168587768Y-73574475D01*
X168468140Y-73707336D01*
X168378750Y-73862164D01*
X168378747Y-73862170D01*
X168323504Y-74032192D01*
X168323503Y-74032194D01*
X168304815Y-74210000D01*
X148950500Y-74210000D01*
X148950499Y-72902128D01*
X148944091Y-72842517D01*
X148913314Y-72760000D01*
X154544815Y-72760000D01*
X154563503Y-72937805D01*
X154563504Y-72937807D01*
X154618747Y-73107829D01*
X154618750Y-73107835D01*
X154708141Y-73262665D01*
X154749812Y-73308946D01*
X154827764Y-73395521D01*
X154827767Y-73395523D01*
X154827770Y-73395526D01*
X154972407Y-73500612D01*
X155135733Y-73573329D01*
X155310609Y-73610500D01*
X155310610Y-73610500D01*
X155489389Y-73610500D01*
X155489391Y-73610500D01*
X155664267Y-73573329D01*
X155827593Y-73500612D01*
X155972230Y-73395526D01*
X156091859Y-73262665D01*
X156181250Y-73107835D01*
X156226036Y-72970000D01*
X159364815Y-72970000D01*
X159383503Y-73147805D01*
X159383504Y-73147807D01*
X159438747Y-73317829D01*
X159438750Y-73317835D01*
X159528141Y-73472665D01*
X159553303Y-73500610D01*
X159647764Y-73605521D01*
X159647767Y-73605523D01*
X159647770Y-73605526D01*
X159792407Y-73710612D01*
X159955733Y-73783329D01*
X160130609Y-73820500D01*
X160130610Y-73820500D01*
X160309389Y-73820500D01*
X160309391Y-73820500D01*
X160484267Y-73783329D01*
X160647593Y-73710612D01*
X160792230Y-73605526D01*
X160911859Y-73472665D01*
X161001250Y-73317835D01*
X161056497Y-73147803D01*
X161075185Y-72970000D01*
X161056497Y-72792197D01*
X161001250Y-72622165D01*
X160911859Y-72467335D01*
X160862183Y-72412164D01*
X160792235Y-72334478D01*
X160792232Y-72334476D01*
X160792231Y-72334475D01*
X160792230Y-72334474D01*
X160647593Y-72229388D01*
X160484267Y-72156671D01*
X160484265Y-72156670D01*
X160356594Y-72129533D01*
X160309391Y-72119500D01*
X160130609Y-72119500D01*
X160099954Y-72126015D01*
X159955733Y-72156670D01*
X159955728Y-72156672D01*
X159792408Y-72229387D01*
X159647768Y-72334475D01*
X159528140Y-72467336D01*
X159438750Y-72622164D01*
X159438747Y-72622170D01*
X159383504Y-72792192D01*
X159383503Y-72792194D01*
X159364815Y-72970000D01*
X156226036Y-72970000D01*
X156236497Y-72937803D01*
X156255185Y-72760000D01*
X156236497Y-72582197D01*
X156199176Y-72467335D01*
X156181252Y-72412170D01*
X156181249Y-72412164D01*
X156136396Y-72334476D01*
X156091859Y-72257335D01*
X156045003Y-72205296D01*
X155972235Y-72124478D01*
X155972232Y-72124476D01*
X155972231Y-72124475D01*
X155972230Y-72124474D01*
X155827593Y-72019388D01*
X155664267Y-71946671D01*
X155664265Y-71946670D01*
X155536594Y-71919533D01*
X155489391Y-71909500D01*
X155310609Y-71909500D01*
X155279954Y-71916015D01*
X155135733Y-71946670D01*
X155135728Y-71946672D01*
X154972408Y-72019387D01*
X154827768Y-72124475D01*
X154708140Y-72257336D01*
X154618750Y-72412164D01*
X154618747Y-72412170D01*
X154563504Y-72582192D01*
X154563503Y-72582194D01*
X154544815Y-72760000D01*
X148913314Y-72760000D01*
X148893796Y-72707669D01*
X148893795Y-72707668D01*
X148893793Y-72707664D01*
X148807547Y-72592455D01*
X148807544Y-72592452D01*
X148692335Y-72506206D01*
X148692328Y-72506202D01*
X148557482Y-72455908D01*
X148557483Y-72455908D01*
X148497883Y-72449501D01*
X148497881Y-72449500D01*
X148497873Y-72449500D01*
X148497864Y-72449500D01*
X146702129Y-72449500D01*
X146702123Y-72449501D01*
X146642516Y-72455908D01*
X146507671Y-72506202D01*
X146507664Y-72506206D01*
X146392455Y-72592452D01*
X146392452Y-72592455D01*
X146306206Y-72707664D01*
X146306202Y-72707671D01*
X146255908Y-72842517D01*
X146249501Y-72902116D01*
X146249501Y-72902123D01*
X146249500Y-72902135D01*
X146249500Y-74697870D01*
X146249501Y-74697876D01*
X146255908Y-74757483D01*
X146306202Y-74892328D01*
X146306206Y-74892335D01*
X146392452Y-75007544D01*
X146392455Y-75007547D01*
X146507664Y-75093793D01*
X146507671Y-75093797D01*
X146639081Y-75142810D01*
X146695015Y-75184681D01*
X146719432Y-75250145D01*
X146704580Y-75318418D01*
X146683430Y-75346673D01*
X146561503Y-75468600D01*
X146425965Y-75662169D01*
X146425964Y-75662171D01*
X146326098Y-75876335D01*
X146326094Y-75876344D01*
X146264938Y-76104586D01*
X146264936Y-76104596D01*
X146244341Y-76339999D01*
X143755659Y-76339999D01*
X143754406Y-76325684D01*
X143745744Y-76226670D01*
X143735063Y-76104592D01*
X143673903Y-75876337D01*
X143574035Y-75662171D01*
X143543396Y-75618414D01*
X143438496Y-75468600D01*
X143386135Y-75416239D01*
X143316567Y-75346671D01*
X143283084Y-75285351D01*
X143288068Y-75215659D01*
X143329939Y-75159725D01*
X143360915Y-75142810D01*
X143492331Y-75093796D01*
X143607546Y-75007546D01*
X143693796Y-74892331D01*
X143744091Y-74757483D01*
X143750500Y-74697873D01*
X143750499Y-72902128D01*
X143744091Y-72842517D01*
X143693796Y-72707669D01*
X143693795Y-72707668D01*
X143693793Y-72707664D01*
X143607547Y-72592455D01*
X143607544Y-72592452D01*
X143492335Y-72506206D01*
X143492328Y-72506202D01*
X143357482Y-72455908D01*
X143357483Y-72455908D01*
X143297883Y-72449501D01*
X143297881Y-72449500D01*
X143297873Y-72449500D01*
X143297864Y-72449500D01*
X141502129Y-72449500D01*
X141502123Y-72449501D01*
X141442516Y-72455908D01*
X141307671Y-72506202D01*
X141307664Y-72506206D01*
X141192455Y-72592452D01*
X141192452Y-72592455D01*
X141106206Y-72707664D01*
X141106202Y-72707671D01*
X141055908Y-72842517D01*
X141049501Y-72902116D01*
X141049501Y-72902123D01*
X141049500Y-72902135D01*
X141049500Y-74697870D01*
X141049501Y-74697876D01*
X141055908Y-74757483D01*
X141106202Y-74892328D01*
X141106206Y-74892335D01*
X141192452Y-75007544D01*
X141192455Y-75007547D01*
X141307664Y-75093793D01*
X141307671Y-75093797D01*
X141439081Y-75142810D01*
X141495015Y-75184681D01*
X141519432Y-75250145D01*
X141504580Y-75318418D01*
X141483430Y-75346673D01*
X141361503Y-75468600D01*
X141225965Y-75662169D01*
X141225964Y-75662171D01*
X141126098Y-75876335D01*
X141126094Y-75876344D01*
X141064938Y-76104586D01*
X141064936Y-76104596D01*
X141044341Y-76339999D01*
X140500500Y-76339999D01*
X140500500Y-68899998D01*
X176894390Y-68899998D01*
X176894390Y-68900001D01*
X176914804Y-69185433D01*
X176975628Y-69465037D01*
X177075635Y-69733166D01*
X177212770Y-69984309D01*
X177212775Y-69984317D01*
X177384254Y-70213387D01*
X177384270Y-70213405D01*
X177586594Y-70415729D01*
X177586612Y-70415745D01*
X177815682Y-70587224D01*
X177815690Y-70587229D01*
X178066833Y-70724364D01*
X178066832Y-70724364D01*
X178066836Y-70724365D01*
X178066839Y-70724367D01*
X178334954Y-70824369D01*
X178334960Y-70824370D01*
X178334962Y-70824371D01*
X178614566Y-70885195D01*
X178614568Y-70885195D01*
X178614572Y-70885196D01*
X178868220Y-70903337D01*
X178899999Y-70905610D01*
X178900000Y-70905610D01*
X178900001Y-70905610D01*
X178928595Y-70903564D01*
X179185428Y-70885196D01*
X179465046Y-70824369D01*
X179733161Y-70724367D01*
X179984315Y-70587226D01*
X180213395Y-70415739D01*
X180415739Y-70213395D01*
X180587226Y-69984315D01*
X180724367Y-69733161D01*
X180824369Y-69465046D01*
X180885196Y-69185428D01*
X180905610Y-68900000D01*
X180905610Y-68899998D01*
X181594390Y-68899998D01*
X181594390Y-68900001D01*
X181614804Y-69185433D01*
X181675628Y-69465037D01*
X181775635Y-69733166D01*
X181912770Y-69984309D01*
X181912775Y-69984317D01*
X182084254Y-70213387D01*
X182084270Y-70213405D01*
X182286594Y-70415729D01*
X182286612Y-70415745D01*
X182515682Y-70587224D01*
X182515690Y-70587229D01*
X182766833Y-70724364D01*
X182766832Y-70724364D01*
X182766836Y-70724365D01*
X182766839Y-70724367D01*
X183034954Y-70824369D01*
X183034960Y-70824370D01*
X183034962Y-70824371D01*
X183314566Y-70885195D01*
X183314568Y-70885195D01*
X183314572Y-70885196D01*
X183568220Y-70903337D01*
X183599999Y-70905610D01*
X183600000Y-70905610D01*
X183600001Y-70905610D01*
X183628595Y-70903564D01*
X183885428Y-70885196D01*
X184165046Y-70824369D01*
X184433161Y-70724367D01*
X184684315Y-70587226D01*
X184913395Y-70415739D01*
X185115739Y-70213395D01*
X185287226Y-69984315D01*
X185424367Y-69733161D01*
X185524369Y-69465046D01*
X185585196Y-69185428D01*
X185605610Y-68900000D01*
X185605610Y-68899998D01*
X186294390Y-68899998D01*
X186294390Y-68900001D01*
X186314804Y-69185433D01*
X186375628Y-69465037D01*
X186475635Y-69733166D01*
X186612770Y-69984309D01*
X186612775Y-69984317D01*
X186784254Y-70213387D01*
X186784270Y-70213405D01*
X186986594Y-70415729D01*
X186986612Y-70415745D01*
X187215682Y-70587224D01*
X187215690Y-70587229D01*
X187466833Y-70724364D01*
X187466832Y-70724364D01*
X187466836Y-70724365D01*
X187466839Y-70724367D01*
X187734954Y-70824369D01*
X187734960Y-70824370D01*
X187734962Y-70824371D01*
X188014566Y-70885195D01*
X188014568Y-70885195D01*
X188014572Y-70885196D01*
X188268220Y-70903337D01*
X188299999Y-70905610D01*
X188300000Y-70905610D01*
X188300001Y-70905610D01*
X188328595Y-70903564D01*
X188585428Y-70885196D01*
X188865046Y-70824369D01*
X189133161Y-70724367D01*
X189384315Y-70587226D01*
X189613395Y-70415739D01*
X189815739Y-70213395D01*
X189987226Y-69984315D01*
X190124367Y-69733161D01*
X190224369Y-69465046D01*
X190285196Y-69185428D01*
X190305610Y-68900000D01*
X190285196Y-68614572D01*
X190265539Y-68524211D01*
X190224371Y-68334962D01*
X190224370Y-68334960D01*
X190224369Y-68334954D01*
X190124367Y-68066839D01*
X189987226Y-67815685D01*
X189966378Y-67787835D01*
X189815745Y-67586612D01*
X189815729Y-67586594D01*
X189613405Y-67384270D01*
X189613387Y-67384254D01*
X189384317Y-67212775D01*
X189384309Y-67212770D01*
X189133166Y-67075635D01*
X189133167Y-67075635D01*
X189025915Y-67035632D01*
X188865046Y-66975631D01*
X188865043Y-66975630D01*
X188865037Y-66975628D01*
X188585433Y-66914804D01*
X188300001Y-66894390D01*
X188299999Y-66894390D01*
X188014566Y-66914804D01*
X187734962Y-66975628D01*
X187466833Y-67075635D01*
X187215690Y-67212770D01*
X187215682Y-67212775D01*
X186986612Y-67384254D01*
X186986594Y-67384270D01*
X186784270Y-67586594D01*
X186784254Y-67586612D01*
X186612775Y-67815682D01*
X186612770Y-67815690D01*
X186475635Y-68066833D01*
X186375628Y-68334962D01*
X186314804Y-68614566D01*
X186294390Y-68899998D01*
X185605610Y-68899998D01*
X185585196Y-68614572D01*
X185565539Y-68524211D01*
X185524371Y-68334962D01*
X185524370Y-68334960D01*
X185524369Y-68334954D01*
X185424367Y-68066839D01*
X185287226Y-67815685D01*
X185266378Y-67787835D01*
X185115745Y-67586612D01*
X185115729Y-67586594D01*
X184913405Y-67384270D01*
X184913387Y-67384254D01*
X184684317Y-67212775D01*
X184684309Y-67212770D01*
X184433166Y-67075635D01*
X184433167Y-67075635D01*
X184325915Y-67035632D01*
X184165046Y-66975631D01*
X184165043Y-66975630D01*
X184165037Y-66975628D01*
X183885433Y-66914804D01*
X183600001Y-66894390D01*
X183599999Y-66894390D01*
X183314566Y-66914804D01*
X183034962Y-66975628D01*
X182766833Y-67075635D01*
X182515690Y-67212770D01*
X182515682Y-67212775D01*
X182286612Y-67384254D01*
X182286594Y-67384270D01*
X182084270Y-67586594D01*
X182084254Y-67586612D01*
X181912775Y-67815682D01*
X181912770Y-67815690D01*
X181775635Y-68066833D01*
X181675628Y-68334962D01*
X181614804Y-68614566D01*
X181594390Y-68899998D01*
X180905610Y-68899998D01*
X180885196Y-68614572D01*
X180865539Y-68524211D01*
X180824371Y-68334962D01*
X180824370Y-68334960D01*
X180824369Y-68334954D01*
X180724367Y-68066839D01*
X180587226Y-67815685D01*
X180566378Y-67787835D01*
X180415745Y-67586612D01*
X180415729Y-67586594D01*
X180213405Y-67384270D01*
X180213387Y-67384254D01*
X179984317Y-67212775D01*
X179984309Y-67212770D01*
X179733166Y-67075635D01*
X179733167Y-67075635D01*
X179625915Y-67035632D01*
X179465046Y-66975631D01*
X179465043Y-66975630D01*
X179465037Y-66975628D01*
X179185433Y-66914804D01*
X178900001Y-66894390D01*
X178899999Y-66894390D01*
X178614566Y-66914804D01*
X178334962Y-66975628D01*
X178066833Y-67075635D01*
X177815690Y-67212770D01*
X177815682Y-67212775D01*
X177586612Y-67384254D01*
X177586594Y-67384270D01*
X177384270Y-67586594D01*
X177384254Y-67586612D01*
X177212775Y-67815682D01*
X177212770Y-67815690D01*
X177075635Y-68066833D01*
X176975628Y-68334962D01*
X176914804Y-68614566D01*
X176894390Y-68899998D01*
X140500500Y-68899998D01*
X140500500Y-64999999D01*
X140894422Y-64999999D01*
X140894422Y-65000000D01*
X140914722Y-65387339D01*
X140975397Y-65770427D01*
X140975397Y-65770429D01*
X141075788Y-66145094D01*
X141214787Y-66507197D01*
X141390877Y-66852793D01*
X141602122Y-67178082D01*
X141602124Y-67178084D01*
X141846219Y-67479516D01*
X142120484Y-67753781D01*
X142120488Y-67753784D01*
X142421917Y-67997877D01*
X142747206Y-68209122D01*
X142747211Y-68209125D01*
X143092806Y-68385214D01*
X143454913Y-68524214D01*
X143829567Y-68624602D01*
X144212662Y-68685278D01*
X144578576Y-68704455D01*
X144599999Y-68705578D01*
X144600000Y-68705578D01*
X144600001Y-68705578D01*
X144620301Y-68704514D01*
X144987338Y-68685278D01*
X145370433Y-68624602D01*
X145745087Y-68524214D01*
X146107194Y-68385214D01*
X146452789Y-68209125D01*
X146778084Y-67997876D01*
X147079516Y-67753781D01*
X147353781Y-67479516D01*
X147385780Y-67440000D01*
X152894815Y-67440000D01*
X152913503Y-67617805D01*
X152913504Y-67617807D01*
X152968747Y-67787829D01*
X152968750Y-67787835D01*
X153058141Y-67942665D01*
X153099812Y-67988946D01*
X153177764Y-68075521D01*
X153177767Y-68075523D01*
X153177770Y-68075526D01*
X153322407Y-68180612D01*
X153485733Y-68253329D01*
X153660609Y-68290500D01*
X153660610Y-68290500D01*
X153839389Y-68290500D01*
X153839391Y-68290500D01*
X154014267Y-68253329D01*
X154177593Y-68180612D01*
X154322230Y-68075526D01*
X154330058Y-68066833D01*
X154348148Y-68046741D01*
X154441859Y-67942665D01*
X154531250Y-67787835D01*
X154586497Y-67617803D01*
X154605185Y-67440000D01*
X154586497Y-67262197D01*
X154531250Y-67092165D01*
X154441859Y-66937335D01*
X154408242Y-66900000D01*
X166784815Y-66900000D01*
X166803503Y-67077805D01*
X166803504Y-67077807D01*
X166858747Y-67247829D01*
X166858750Y-67247835D01*
X166948141Y-67402665D01*
X166981758Y-67440000D01*
X167067764Y-67535521D01*
X167067767Y-67535523D01*
X167067770Y-67535526D01*
X167212407Y-67640612D01*
X167375733Y-67713329D01*
X167550609Y-67750500D01*
X167550610Y-67750500D01*
X167729389Y-67750500D01*
X167729391Y-67750500D01*
X167904267Y-67713329D01*
X168067593Y-67640612D01*
X168212230Y-67535526D01*
X168331859Y-67402665D01*
X168421250Y-67247835D01*
X168476497Y-67077803D01*
X168495185Y-66900000D01*
X168476497Y-66722197D01*
X168421250Y-66552165D01*
X168331859Y-66397335D01*
X168285003Y-66345296D01*
X168212235Y-66264478D01*
X168212232Y-66264476D01*
X168212231Y-66264475D01*
X168212230Y-66264474D01*
X168067593Y-66159388D01*
X167904267Y-66086671D01*
X167904265Y-66086670D01*
X167776594Y-66059533D01*
X167729391Y-66049500D01*
X167550609Y-66049500D01*
X167519954Y-66056015D01*
X167375733Y-66086670D01*
X167375728Y-66086672D01*
X167212408Y-66159387D01*
X167067768Y-66264475D01*
X166948140Y-66397336D01*
X166858750Y-66552164D01*
X166858747Y-66552170D01*
X166803504Y-66722192D01*
X166803503Y-66722194D01*
X166784815Y-66900000D01*
X154408242Y-66900000D01*
X154365737Y-66852793D01*
X154322235Y-66804478D01*
X154322232Y-66804476D01*
X154322231Y-66804475D01*
X154322230Y-66804474D01*
X154177593Y-66699388D01*
X154014267Y-66626671D01*
X154014265Y-66626670D01*
X153886594Y-66599533D01*
X153839391Y-66589500D01*
X153660609Y-66589500D01*
X153629954Y-66596015D01*
X153485733Y-66626670D01*
X153485728Y-66626672D01*
X153322408Y-66699387D01*
X153177768Y-66804475D01*
X153058140Y-66937336D01*
X152968750Y-67092164D01*
X152968747Y-67092170D01*
X152913504Y-67262192D01*
X152913503Y-67262194D01*
X152894815Y-67440000D01*
X147385780Y-67440000D01*
X147597876Y-67178084D01*
X147809125Y-66852789D01*
X147985214Y-66507194D01*
X148124214Y-66145087D01*
X148224602Y-65770433D01*
X148285278Y-65387338D01*
X148305578Y-65000000D01*
X148289703Y-64697099D01*
X191597322Y-64697099D01*
X191597322Y-64697100D01*
X191617622Y-65084439D01*
X191678297Y-65467527D01*
X191678297Y-65467529D01*
X191778688Y-65842194D01*
X191917687Y-66204297D01*
X192093777Y-66549893D01*
X192305022Y-66875182D01*
X192467346Y-67075635D01*
X192549119Y-67176616D01*
X192823384Y-67450881D01*
X192823388Y-67450884D01*
X193124817Y-67694977D01*
X193310699Y-67815690D01*
X193450111Y-67906225D01*
X193795706Y-68082314D01*
X194157813Y-68221314D01*
X194532467Y-68321702D01*
X194915562Y-68382378D01*
X195281476Y-68401555D01*
X195302899Y-68402678D01*
X195302900Y-68402678D01*
X195302901Y-68402678D01*
X195323201Y-68401614D01*
X195690238Y-68382378D01*
X196073333Y-68321702D01*
X196447987Y-68221314D01*
X196810094Y-68082314D01*
X197155689Y-67906225D01*
X197480984Y-67694976D01*
X197782416Y-67450881D01*
X198056681Y-67176616D01*
X198300776Y-66875184D01*
X198512025Y-66549889D01*
X198688114Y-66204294D01*
X198827114Y-65842187D01*
X198927502Y-65467533D01*
X198988178Y-65084438D01*
X199008478Y-64697100D01*
X198988178Y-64309762D01*
X198927502Y-63926667D01*
X198827114Y-63552013D01*
X198688114Y-63189906D01*
X198512025Y-62844311D01*
X198461327Y-62766243D01*
X198300777Y-62519017D01*
X198192637Y-62385475D01*
X198056681Y-62217584D01*
X197782416Y-61943319D01*
X197594166Y-61790877D01*
X197480982Y-61699222D01*
X197155693Y-61487977D01*
X196810097Y-61311887D01*
X196447994Y-61172888D01*
X196447987Y-61172886D01*
X196073333Y-61072498D01*
X196073329Y-61072497D01*
X196073328Y-61072497D01*
X195690239Y-61011822D01*
X195302901Y-60991522D01*
X195302899Y-60991522D01*
X194915560Y-61011822D01*
X194532472Y-61072497D01*
X194532470Y-61072497D01*
X194157805Y-61172888D01*
X193795702Y-61311887D01*
X193450106Y-61487977D01*
X193124817Y-61699222D01*
X192823388Y-61943315D01*
X192823380Y-61943322D01*
X192549122Y-62217580D01*
X192549115Y-62217588D01*
X192305022Y-62519017D01*
X192093777Y-62844306D01*
X191917687Y-63189902D01*
X191778688Y-63552005D01*
X191678297Y-63926670D01*
X191678297Y-63926672D01*
X191617622Y-64309760D01*
X191597322Y-64697099D01*
X148289703Y-64697099D01*
X148285278Y-64612662D01*
X148224602Y-64229567D01*
X148124214Y-63854913D01*
X147985214Y-63492806D01*
X147809125Y-63147211D01*
X147778471Y-63100008D01*
X147597877Y-62821917D01*
X147353784Y-62520488D01*
X147353781Y-62520484D01*
X147079516Y-62246219D01*
X146915826Y-62113665D01*
X146778082Y-62002122D01*
X146452793Y-61790877D01*
X146107197Y-61614787D01*
X145808124Y-61499983D01*
X182349500Y-61499983D01*
X182349500Y-63100001D01*
X182349501Y-63100018D01*
X182360000Y-63202796D01*
X182360001Y-63202799D01*
X182405894Y-63341294D01*
X182415186Y-63369334D01*
X182507288Y-63518656D01*
X182631344Y-63642712D01*
X182780666Y-63734814D01*
X182947203Y-63789999D01*
X183049991Y-63800500D01*
X184350008Y-63800499D01*
X184452797Y-63789999D01*
X184619334Y-63734814D01*
X184768656Y-63642712D01*
X184892712Y-63518656D01*
X184984814Y-63369334D01*
X184984814Y-63369331D01*
X184988178Y-63363879D01*
X185040126Y-63317154D01*
X185109088Y-63305931D01*
X185173170Y-63333774D01*
X185181398Y-63341294D01*
X185320213Y-63480109D01*
X185492179Y-63605048D01*
X185492181Y-63605049D01*
X185492184Y-63605051D01*
X185681588Y-63701557D01*
X185883757Y-63767246D01*
X186093713Y-63800500D01*
X186093714Y-63800500D01*
X186306286Y-63800500D01*
X186306287Y-63800500D01*
X186516243Y-63767246D01*
X186718412Y-63701557D01*
X186907816Y-63605051D01*
X186980828Y-63552005D01*
X187079786Y-63480109D01*
X187079788Y-63480106D01*
X187079792Y-63480104D01*
X187230104Y-63329792D01*
X187230106Y-63329788D01*
X187230109Y-63329786D01*
X187355048Y-63157820D01*
X187355047Y-63157820D01*
X187355051Y-63157816D01*
X187451557Y-62968412D01*
X187517246Y-62766243D01*
X187550500Y-62556287D01*
X187550500Y-62043713D01*
X187517246Y-61833757D01*
X187451557Y-61631588D01*
X187355051Y-61442184D01*
X187355049Y-61442181D01*
X187355048Y-61442179D01*
X187230109Y-61270213D01*
X187079786Y-61119890D01*
X186907820Y-60994951D01*
X186718414Y-60898444D01*
X186718413Y-60898443D01*
X186718412Y-60898443D01*
X186516243Y-60832754D01*
X186516241Y-60832753D01*
X186516240Y-60832753D01*
X186354957Y-60807208D01*
X186306287Y-60799500D01*
X186093713Y-60799500D01*
X186045042Y-60807208D01*
X185883760Y-60832753D01*
X185681585Y-60898444D01*
X185492179Y-60994951D01*
X185320215Y-61119889D01*
X185181398Y-61258706D01*
X185120075Y-61292190D01*
X185050383Y-61287206D01*
X184994450Y-61245334D01*
X184988178Y-61236120D01*
X184892712Y-61081344D01*
X184768657Y-60957289D01*
X184768656Y-60957288D01*
X184619334Y-60865186D01*
X184452797Y-60810001D01*
X184452795Y-60810000D01*
X184350010Y-60799500D01*
X183049998Y-60799500D01*
X183049981Y-60799501D01*
X182947203Y-60810000D01*
X182947200Y-60810001D01*
X182780668Y-60865185D01*
X182780663Y-60865187D01*
X182631342Y-60957289D01*
X182507289Y-61081342D01*
X182415187Y-61230663D01*
X182415185Y-61230668D01*
X182410325Y-61245334D01*
X182360001Y-61397203D01*
X182360001Y-61397204D01*
X182360000Y-61397204D01*
X182349500Y-61499983D01*
X145808124Y-61499983D01*
X145745094Y-61475788D01*
X145745087Y-61475786D01*
X145370433Y-61375398D01*
X145370429Y-61375397D01*
X145370428Y-61375397D01*
X144987339Y-61314722D01*
X144600001Y-61294422D01*
X144599999Y-61294422D01*
X144212660Y-61314722D01*
X143829572Y-61375397D01*
X143829570Y-61375397D01*
X143454905Y-61475788D01*
X143092802Y-61614787D01*
X142747206Y-61790877D01*
X142421917Y-62002122D01*
X142120488Y-62246215D01*
X142120480Y-62246222D01*
X141846222Y-62520480D01*
X141846215Y-62520488D01*
X141602122Y-62821917D01*
X141390877Y-63147206D01*
X141214787Y-63492802D01*
X141075788Y-63854905D01*
X140975397Y-64229570D01*
X140975397Y-64229572D01*
X140914722Y-64612660D01*
X140894422Y-64999999D01*
X140500500Y-64999999D01*
X140500500Y-63003750D01*
X140500726Y-62996263D01*
X140511272Y-62821916D01*
X140518271Y-62706201D01*
X140520076Y-62691340D01*
X140544826Y-62556287D01*
X140571780Y-62409197D01*
X140575364Y-62394663D01*
X140621621Y-62246219D01*
X140660696Y-62120822D01*
X140665998Y-62106841D01*
X140783731Y-61845249D01*
X140790676Y-61832016D01*
X140939080Y-61586526D01*
X140947567Y-61574230D01*
X141124480Y-61348417D01*
X141134395Y-61337226D01*
X141337226Y-61134395D01*
X141348417Y-61124480D01*
X141574230Y-60947567D01*
X141586526Y-60939080D01*
X141832016Y-60790676D01*
X141845249Y-60783731D01*
X142106841Y-60665998D01*
X142120822Y-60660696D01*
X142394668Y-60575362D01*
X142409197Y-60571780D01*
X142691344Y-60520075D01*
X142706201Y-60518271D01*
X142996264Y-60500726D01*
X143003751Y-60500500D01*
X143065892Y-60500500D01*
X196934108Y-60500500D01*
X196996249Y-60500500D01*
X197003736Y-60500726D01*
G37*
%TD.AperFunction*%
%TD*%
M02*
