%TF.GenerationSoftware,KiCad,Pcbnew,8.0.5*%
%TF.CreationDate,2024-10-08T13:01:26+02:00*%
%TF.ProjectId,ESE_AL8,4553455f-414c-4382-9e6b-696361645f70,rev?*%
%TF.SameCoordinates,Original*%
%TF.FileFunction,Copper,L3,Inr*%
%TF.FilePolarity,Positive*%
%FSLAX46Y46*%
G04 Gerber Fmt 4.6, Leading zero omitted, Abs format (unit mm)*
G04 Created by KiCad (PCBNEW 8.0.5) date 2024-10-08 13:01:26*
%MOMM*%
%LPD*%
G01*
G04 APERTURE LIST*
G04 Aperture macros list*
%AMRoundRect*
0 Rectangle with rounded corners*
0 $1 Rounding radius*
0 $2 $3 $4 $5 $6 $7 $8 $9 X,Y pos of 4 corners*
0 Add a 4 corners polygon primitive as box body*
4,1,4,$2,$3,$4,$5,$6,$7,$8,$9,$2,$3,0*
0 Add four circle primitives for the rounded corners*
1,1,$1+$1,$2,$3*
1,1,$1+$1,$4,$5*
1,1,$1+$1,$6,$7*
1,1,$1+$1,$8,$9*
0 Add four rect primitives between the rounded corners*
20,1,$1+$1,$2,$3,$4,$5,0*
20,1,$1+$1,$4,$5,$6,$7,0*
20,1,$1+$1,$6,$7,$8,$9,0*
20,1,$1+$1,$8,$9,$2,$3,0*%
G04 Aperture macros list end*
%TA.AperFunction,ComponentPad*%
%ADD10C,0.800000*%
%TD*%
%TA.AperFunction,ComponentPad*%
%ADD11C,6.400000*%
%TD*%
%TA.AperFunction,ComponentPad*%
%ADD12RoundRect,0.250000X0.725000X-0.600000X0.725000X0.600000X-0.725000X0.600000X-0.725000X-0.600000X0*%
%TD*%
%TA.AperFunction,ComponentPad*%
%ADD13O,1.950000X1.700000*%
%TD*%
%TA.AperFunction,ComponentPad*%
%ADD14RoundRect,0.250000X-0.725000X0.600000X-0.725000X-0.600000X0.725000X-0.600000X0.725000X0.600000X0*%
%TD*%
%TA.AperFunction,ComponentPad*%
%ADD15RoundRect,0.250000X0.600000X0.725000X-0.600000X0.725000X-0.600000X-0.725000X0.600000X-0.725000X0*%
%TD*%
%TA.AperFunction,ComponentPad*%
%ADD16O,1.700000X1.950000*%
%TD*%
%TA.AperFunction,ComponentPad*%
%ADD17RoundRect,0.250000X-0.600000X-0.725000X0.600000X-0.725000X0.600000X0.725000X-0.600000X0.725000X0*%
%TD*%
%TA.AperFunction,ComponentPad*%
%ADD18RoundRect,0.250000X0.600000X0.750000X-0.600000X0.750000X-0.600000X-0.750000X0.600000X-0.750000X0*%
%TD*%
%TA.AperFunction,ComponentPad*%
%ADD19O,1.700000X2.000000*%
%TD*%
%TA.AperFunction,ViaPad*%
%ADD20C,0.700000*%
%TD*%
G04 APERTURE END LIST*
D10*
%TO.N,GND*%
%TO.C,H4*%
X131600000Y-119000000D03*
X132302944Y-117302944D03*
X132302944Y-120697056D03*
X134000000Y-116600000D03*
D11*
X134000000Y-119000000D03*
D10*
X134000000Y-121400000D03*
X135697056Y-117302944D03*
X135697056Y-120697056D03*
X136400000Y-119000000D03*
%TD*%
%TO.N,GND*%
%TO.C,H3*%
X177600000Y-119000000D03*
X178302944Y-117302944D03*
X178302944Y-120697056D03*
X180000000Y-116600000D03*
D11*
X180000000Y-119000000D03*
D10*
X180000000Y-121400000D03*
X181697056Y-117302944D03*
X181697056Y-120697056D03*
X182400000Y-119000000D03*
%TD*%
D12*
%TO.N,/Actionneur/MOTEUR1-*%
%TO.C,J4*%
X181540000Y-90770000D03*
D13*
%TO.N,GND*%
X181540000Y-88270000D03*
%TO.N,/SENSORS/PHASE_A1*%
X181540000Y-85770000D03*
%TO.N,/SENSORS/PHASE_B1*%
X181540000Y-83270000D03*
%TO.N,+3.3V*%
X181540000Y-80770000D03*
%TO.N,/Actionneur/MOTEUR1+*%
X181540000Y-78270000D03*
%TD*%
D14*
%TO.N,+3.3V*%
%TO.C,J1*%
X132530000Y-90880000D03*
D13*
%TO.N,GND*%
X132530000Y-93380000D03*
%TO.N,/SENSORS/CB_OUT1*%
X132530000Y-95880000D03*
%TO.N,/SENSORS/CB_IN*%
X132530000Y-98380000D03*
%TD*%
D12*
%TO.N,/Actionneur/MOTEUR2-*%
%TO.C,J5*%
X181440000Y-110520000D03*
D13*
%TO.N,GND*%
X181440000Y-108020000D03*
%TO.N,/SENSORS/PHASE_A2*%
X181440000Y-105520000D03*
%TO.N,/SENSORS/PHASE_B2*%
X181440000Y-103020000D03*
%TO.N,+3.3V*%
X181440000Y-100520000D03*
%TO.N,/Actionneur/MOTEUR2+*%
X181440000Y-98020000D03*
%TD*%
D15*
%TO.N,unconnected-(SW2-C-Pad1)*%
%TO.C,SW2*%
X170290000Y-71830000D03*
D16*
%TO.N,+BATT*%
X167790000Y-71830000D03*
%TO.N,+7.2V*%
X165290000Y-71830000D03*
%TD*%
D14*
%TO.N,+3.3V*%
%TO.C,J8*%
X132500000Y-76710000D03*
D13*
%TO.N,GND*%
X132500000Y-79210000D03*
%TO.N,/Actionneur/SCL*%
X132500000Y-81710000D03*
%TO.N,/Actionneur/SDA*%
X132500000Y-84210000D03*
%TD*%
D14*
%TO.N,+3.3V*%
%TO.C,J2*%
X132490000Y-104490000D03*
D13*
%TO.N,GND*%
X132490000Y-106990000D03*
%TO.N,/SENSORS/CB_OUT2*%
X132490000Y-109490000D03*
%TO.N,/SENSORS/CB_IN*%
X132490000Y-111990000D03*
%TD*%
D17*
%TO.N,+5V*%
%TO.C,J3*%
X153810000Y-118890000D03*
D16*
%TO.N,/SENSORS/TX_LIDAR*%
X156310000Y-118890000D03*
%TO.N,/SENSORS/RX_LIDAR*%
X158810000Y-118890000D03*
%TO.N,GND*%
X161310000Y-118890000D03*
%TO.N,/SENSORS/M_EN_LIDAR*%
X163810000Y-118890000D03*
%TO.N,/SENSORS/DEV_EN_LIDAR*%
X166310000Y-118890000D03*
%TO.N,/SENSORS/M_SCTR_LIDAR*%
X168810000Y-118890000D03*
%TO.N,unconnected-(J3-Pin_8-Pad8)*%
X171310000Y-118890000D03*
%TD*%
D10*
%TO.N,GND*%
%TO.C,H2*%
X177600000Y-70000000D03*
X178302944Y-68302944D03*
X178302944Y-71697056D03*
X180000000Y-67600000D03*
D11*
X180000000Y-70000000D03*
D10*
X180000000Y-72400000D03*
X181697056Y-68302944D03*
X181697056Y-71697056D03*
X182400000Y-70000000D03*
%TD*%
D18*
%TO.N,+7.2V*%
%TO.C,J6*%
X158860000Y-71840000D03*
D19*
%TO.N,GND*%
X156360000Y-71840000D03*
%TD*%
D10*
%TO.N,GND*%
%TO.C,H1*%
X131740000Y-69840000D03*
X132442944Y-68142944D03*
X132442944Y-71537056D03*
X134140000Y-67440000D03*
D11*
X134140000Y-69840000D03*
D10*
X134140000Y-72240000D03*
X135837056Y-68142944D03*
X135837056Y-71537056D03*
X136540000Y-69840000D03*
%TD*%
D20*
%TO.N,+3.3V*%
X151170000Y-101780000D03*
X147440000Y-67560000D03*
%TO.N,GND*%
X143280000Y-81550000D03*
%TO.N,+3.3V*%
X138970000Y-92260000D03*
X138760000Y-87210000D03*
%TO.N,GND*%
X147900000Y-96200000D03*
%TO.N,+3.3V*%
X135870000Y-83880000D03*
X153640000Y-75500000D03*
%TO.N,GND*%
X156370000Y-106540000D03*
%TO.N,+3.3V*%
X160460000Y-112590000D03*
X161910000Y-104030000D03*
X161060000Y-95960000D03*
%TO.N,NRST*%
X151490000Y-107650000D03*
X142480000Y-78940000D03*
%TO.N,SWO*%
X156030000Y-98430000D03*
X144890000Y-79540000D03*
%TO.N,/SENSORS/TX_LIDAR*%
X158300000Y-111470000D03*
%TO.N,/SENSORS/PHASE_A1*%
X163340000Y-103660000D03*
%TO.N,/SENSORS/PHASE_B1*%
X164480000Y-104560000D03*
%TO.N,/SENSORS/PHASE_B2*%
X162380000Y-107310000D03*
%TO.N,/SENSORS/PHASE_A2*%
X156400000Y-101640000D03*
%TO.N,/SENSORS/INT1_ACCELERO*%
X155430000Y-99200000D03*
X143590000Y-94030000D03*
%TO.N,/Actionneur/FWD2*%
X169700000Y-104670000D03*
X161045023Y-106565023D03*
%TO.N,+BATT*%
X173190000Y-91030000D03*
X173680000Y-102360000D03*
X172950000Y-109930000D03*
X173880000Y-83340000D03*
X166820000Y-80650000D03*
%TO.N,/Alimentation/vcc*%
X167670000Y-82800000D03*
X164064199Y-86383239D03*
%TO.N,/Alimentation/sw*%
X157230000Y-86730000D03*
X163250000Y-81970000D03*
X157230000Y-87620000D03*
%TO.N,+5V*%
X166050000Y-89200000D03*
X167020000Y-96170000D03*
X166440000Y-93450000D03*
X155760000Y-79720000D03*
%TO.N,/Alimentation/en{slash}sync*%
X163166012Y-86326147D03*
X167920000Y-81580000D03*
%TD*%
%TA.AperFunction,Conductor*%
%TO.N,+3.3V*%
G36*
X178267646Y-66520185D02*
G01*
X178313401Y-66572989D01*
X178323345Y-66642147D01*
X178294320Y-66705703D01*
X178256902Y-66734985D01*
X178147206Y-66790877D01*
X177821917Y-67002122D01*
X177520488Y-67246215D01*
X177520480Y-67246222D01*
X177246222Y-67520480D01*
X177246215Y-67520488D01*
X177002122Y-67821917D01*
X176790877Y-68147206D01*
X176614787Y-68492802D01*
X176475788Y-68854905D01*
X176375397Y-69229570D01*
X176375397Y-69229572D01*
X176314722Y-69612660D01*
X176294422Y-69999999D01*
X176294422Y-70000000D01*
X176314722Y-70387339D01*
X176350056Y-70610427D01*
X176375398Y-70770433D01*
X176382973Y-70798705D01*
X176475788Y-71145094D01*
X176614787Y-71507197D01*
X176790877Y-71852793D01*
X177002122Y-72178082D01*
X177105902Y-72306239D01*
X177246219Y-72479516D01*
X177520484Y-72753781D01*
X177520488Y-72753784D01*
X177821917Y-72997877D01*
X178147206Y-73209122D01*
X178147211Y-73209125D01*
X178492806Y-73385214D01*
X178854913Y-73524214D01*
X179229567Y-73624602D01*
X179612662Y-73685278D01*
X179978576Y-73704455D01*
X179999999Y-73705578D01*
X180000000Y-73705578D01*
X180000001Y-73705578D01*
X180020301Y-73704514D01*
X180387338Y-73685278D01*
X180770433Y-73624602D01*
X181145087Y-73524214D01*
X181507194Y-73385214D01*
X181852789Y-73209125D01*
X182178084Y-72997876D01*
X182479516Y-72753781D01*
X182753781Y-72479516D01*
X182997876Y-72178084D01*
X183209125Y-71852789D01*
X183265015Y-71743097D01*
X183312989Y-71692302D01*
X183380810Y-71675507D01*
X183446945Y-71698044D01*
X183490397Y-71752759D01*
X183499500Y-71799393D01*
X183499500Y-117200606D01*
X183479815Y-117267645D01*
X183427011Y-117313400D01*
X183357853Y-117323344D01*
X183294297Y-117294319D01*
X183265015Y-117256901D01*
X183209122Y-117147206D01*
X182997877Y-116821917D01*
X182753784Y-116520488D01*
X182753781Y-116520484D01*
X182479516Y-116246219D01*
X182178084Y-116002124D01*
X182178082Y-116002122D01*
X181852793Y-115790877D01*
X181507197Y-115614787D01*
X181145094Y-115475788D01*
X181145087Y-115475786D01*
X180770433Y-115375398D01*
X180770429Y-115375397D01*
X180770428Y-115375397D01*
X180387339Y-115314722D01*
X180000001Y-115294422D01*
X179999999Y-115294422D01*
X179612660Y-115314722D01*
X179229572Y-115375397D01*
X179229570Y-115375397D01*
X178854905Y-115475788D01*
X178492802Y-115614787D01*
X178147206Y-115790877D01*
X177821917Y-116002122D01*
X177520488Y-116246215D01*
X177520480Y-116246222D01*
X177246222Y-116520480D01*
X177246215Y-116520488D01*
X177002122Y-116821917D01*
X176790877Y-117147206D01*
X176614787Y-117492802D01*
X176539764Y-117688245D01*
X176497362Y-117743777D01*
X176431668Y-117767570D01*
X176363540Y-117752068D01*
X176314607Y-117702195D01*
X176300000Y-117643807D01*
X176300000Y-97913713D01*
X179964500Y-97913713D01*
X179964500Y-98126286D01*
X179984441Y-98252192D01*
X179997754Y-98336243D01*
X180046506Y-98486287D01*
X180063444Y-98538414D01*
X180159951Y-98727820D01*
X180284890Y-98899786D01*
X180435209Y-99050105D01*
X180435214Y-99050109D01*
X180600218Y-99169991D01*
X180642884Y-99225320D01*
X180648863Y-99294934D01*
X180616258Y-99356729D01*
X180600218Y-99370627D01*
X180435540Y-99490272D01*
X180435535Y-99490276D01*
X180285276Y-99640535D01*
X180285272Y-99640540D01*
X180160379Y-99812442D01*
X180063904Y-100001782D01*
X179998242Y-100203870D01*
X179998242Y-100203873D01*
X179987769Y-100270000D01*
X181035854Y-100270000D01*
X180997370Y-100336657D01*
X180965000Y-100457465D01*
X180965000Y-100582535D01*
X180997370Y-100703343D01*
X181035854Y-100770000D01*
X179987769Y-100770000D01*
X179998242Y-100836126D01*
X179998242Y-100836129D01*
X180063904Y-101038217D01*
X180160379Y-101227557D01*
X180285272Y-101399459D01*
X180285276Y-101399464D01*
X180435535Y-101549723D01*
X180435540Y-101549727D01*
X180600218Y-101669372D01*
X180642884Y-101724701D01*
X180648863Y-101794315D01*
X180616258Y-101856110D01*
X180600218Y-101870008D01*
X180435214Y-101989890D01*
X180435209Y-101989894D01*
X180284890Y-102140213D01*
X180159951Y-102312179D01*
X180063444Y-102501585D01*
X179997753Y-102703760D01*
X179964500Y-102913713D01*
X179964500Y-103126286D01*
X179997753Y-103336239D01*
X180063444Y-103538414D01*
X180159951Y-103727820D01*
X180284890Y-103899786D01*
X180435209Y-104050105D01*
X180435214Y-104050109D01*
X180599793Y-104169682D01*
X180642459Y-104225011D01*
X180648438Y-104294625D01*
X180615833Y-104356420D01*
X180599793Y-104370318D01*
X180435214Y-104489890D01*
X180435209Y-104489894D01*
X180284890Y-104640213D01*
X180159951Y-104812179D01*
X180063444Y-105001585D01*
X179997753Y-105203760D01*
X179964500Y-105413713D01*
X179964500Y-105626286D01*
X179996727Y-105829763D01*
X179997754Y-105836243D01*
X180063093Y-106037336D01*
X180063444Y-106038414D01*
X180159951Y-106227820D01*
X180284890Y-106399786D01*
X180435209Y-106550105D01*
X180435214Y-106550109D01*
X180599793Y-106669682D01*
X180642459Y-106725011D01*
X180648438Y-106794625D01*
X180615833Y-106856420D01*
X180599793Y-106870318D01*
X180435214Y-106989890D01*
X180435209Y-106989894D01*
X180284890Y-107140213D01*
X180159951Y-107312179D01*
X180063444Y-107501585D01*
X179997753Y-107703760D01*
X179978106Y-107827807D01*
X179964500Y-107913713D01*
X179964500Y-108126287D01*
X179966622Y-108139682D01*
X179989720Y-108285523D01*
X179997754Y-108336243D01*
X180037931Y-108459896D01*
X180063444Y-108538414D01*
X180159951Y-108727820D01*
X180284890Y-108899786D01*
X180423705Y-109038601D01*
X180457190Y-109099924D01*
X180452206Y-109169616D01*
X180410334Y-109225549D01*
X180401121Y-109231821D01*
X180246342Y-109327289D01*
X180122289Y-109451342D01*
X180030187Y-109600663D01*
X180030186Y-109600666D01*
X179975001Y-109767203D01*
X179975001Y-109767204D01*
X179975000Y-109767204D01*
X179964500Y-109869983D01*
X179964500Y-111170001D01*
X179964501Y-111170018D01*
X179975000Y-111272796D01*
X179975001Y-111272799D01*
X180030185Y-111439331D01*
X180030186Y-111439334D01*
X180122288Y-111588656D01*
X180246344Y-111712712D01*
X180395666Y-111804814D01*
X180562203Y-111859999D01*
X180664991Y-111870500D01*
X182215008Y-111870499D01*
X182317797Y-111859999D01*
X182484334Y-111804814D01*
X182633656Y-111712712D01*
X182757712Y-111588656D01*
X182849814Y-111439334D01*
X182904999Y-111272797D01*
X182915500Y-111170009D01*
X182915499Y-109869992D01*
X182904999Y-109767203D01*
X182849814Y-109600666D01*
X182757712Y-109451344D01*
X182633656Y-109327288D01*
X182484334Y-109235186D01*
X182484333Y-109235185D01*
X182478878Y-109231821D01*
X182432154Y-109179873D01*
X182420931Y-109110910D01*
X182448775Y-109046828D01*
X182456272Y-109038623D01*
X182595104Y-108899792D01*
X182720051Y-108727816D01*
X182816557Y-108538412D01*
X182882246Y-108336243D01*
X182915500Y-108126287D01*
X182915500Y-107913713D01*
X182882246Y-107703757D01*
X182816557Y-107501588D01*
X182720051Y-107312184D01*
X182720049Y-107312181D01*
X182720048Y-107312179D01*
X182595109Y-107140213D01*
X182444792Y-106989896D01*
X182406622Y-106962164D01*
X182280204Y-106870316D01*
X182237540Y-106814989D01*
X182231561Y-106745376D01*
X182264166Y-106683580D01*
X182280199Y-106669686D01*
X182444792Y-106550104D01*
X182595104Y-106399792D01*
X182595106Y-106399788D01*
X182595109Y-106399786D01*
X182720048Y-106227820D01*
X182720047Y-106227820D01*
X182720051Y-106227816D01*
X182816557Y-106038412D01*
X182882246Y-105836243D01*
X182915500Y-105626287D01*
X182915500Y-105413713D01*
X182882246Y-105203757D01*
X182816557Y-105001588D01*
X182720051Y-104812184D01*
X182720049Y-104812181D01*
X182720048Y-104812179D01*
X182595109Y-104640213D01*
X182444792Y-104489896D01*
X182358862Y-104427465D01*
X182280204Y-104370316D01*
X182237540Y-104314989D01*
X182231561Y-104245376D01*
X182264166Y-104183580D01*
X182280199Y-104169686D01*
X182444792Y-104050104D01*
X182595104Y-103899792D01*
X182595106Y-103899788D01*
X182595109Y-103899786D01*
X182720048Y-103727820D01*
X182720047Y-103727820D01*
X182720051Y-103727816D01*
X182816557Y-103538412D01*
X182882246Y-103336243D01*
X182915500Y-103126287D01*
X182915500Y-102913713D01*
X182882246Y-102703757D01*
X182816557Y-102501588D01*
X182720051Y-102312184D01*
X182720049Y-102312181D01*
X182720048Y-102312179D01*
X182595109Y-102140213D01*
X182444790Y-101989894D01*
X182444785Y-101989890D01*
X182279781Y-101870008D01*
X182237115Y-101814678D01*
X182231136Y-101745065D01*
X182263741Y-101683270D01*
X182279781Y-101669371D01*
X182444466Y-101549721D01*
X182594723Y-101399464D01*
X182594727Y-101399459D01*
X182719620Y-101227557D01*
X182816095Y-101038217D01*
X182881757Y-100836129D01*
X182881757Y-100836126D01*
X182892231Y-100770000D01*
X181844146Y-100770000D01*
X181882630Y-100703343D01*
X181915000Y-100582535D01*
X181915000Y-100457465D01*
X181882630Y-100336657D01*
X181844146Y-100270000D01*
X182892231Y-100270000D01*
X182881757Y-100203873D01*
X182881757Y-100203870D01*
X182816095Y-100001782D01*
X182719620Y-99812442D01*
X182594727Y-99640540D01*
X182594723Y-99640535D01*
X182444464Y-99490276D01*
X182444459Y-99490272D01*
X182279781Y-99370627D01*
X182237115Y-99315297D01*
X182231136Y-99245684D01*
X182263741Y-99183889D01*
X182279776Y-99169994D01*
X182444792Y-99050104D01*
X182595104Y-98899792D01*
X182595106Y-98899788D01*
X182595109Y-98899786D01*
X182720048Y-98727820D01*
X182720047Y-98727820D01*
X182720051Y-98727816D01*
X182816557Y-98538412D01*
X182882246Y-98336243D01*
X182915500Y-98126287D01*
X182915500Y-97913713D01*
X182882246Y-97703757D01*
X182816557Y-97501588D01*
X182720051Y-97312184D01*
X182720049Y-97312181D01*
X182720048Y-97312179D01*
X182595109Y-97140213D01*
X182444786Y-96989890D01*
X182272820Y-96864951D01*
X182083414Y-96768444D01*
X182083413Y-96768443D01*
X182083412Y-96768443D01*
X181881243Y-96702754D01*
X181881241Y-96702753D01*
X181881240Y-96702753D01*
X181719957Y-96677208D01*
X181671287Y-96669500D01*
X181208713Y-96669500D01*
X181160042Y-96677208D01*
X180998760Y-96702753D01*
X180796585Y-96768444D01*
X180607179Y-96864951D01*
X180435213Y-96989890D01*
X180284890Y-97140213D01*
X180159951Y-97312179D01*
X180063444Y-97501585D01*
X179997753Y-97703760D01*
X179964500Y-97913713D01*
X176300000Y-97913713D01*
X176300000Y-79199999D01*
X176299999Y-79199997D01*
X175833971Y-78163713D01*
X180064500Y-78163713D01*
X180064500Y-78376287D01*
X180097754Y-78586243D01*
X180154925Y-78762197D01*
X180163444Y-78788414D01*
X180259951Y-78977820D01*
X180384890Y-79149786D01*
X180535209Y-79300105D01*
X180535214Y-79300109D01*
X180700218Y-79419991D01*
X180742884Y-79475320D01*
X180748863Y-79544934D01*
X180716258Y-79606729D01*
X180700218Y-79620627D01*
X180535540Y-79740272D01*
X180535535Y-79740276D01*
X180385276Y-79890535D01*
X180385272Y-79890540D01*
X180260379Y-80062442D01*
X180163904Y-80251782D01*
X180098242Y-80453870D01*
X180098242Y-80453873D01*
X180087769Y-80520000D01*
X181135854Y-80520000D01*
X181097370Y-80586657D01*
X181065000Y-80707465D01*
X181065000Y-80832535D01*
X181097370Y-80953343D01*
X181135854Y-81020000D01*
X180087769Y-81020000D01*
X180098242Y-81086126D01*
X180098242Y-81086129D01*
X180163904Y-81288217D01*
X180260379Y-81477557D01*
X180385272Y-81649459D01*
X180385276Y-81649464D01*
X180535535Y-81799723D01*
X180535540Y-81799727D01*
X180700218Y-81919372D01*
X180742884Y-81974701D01*
X180748863Y-82044315D01*
X180716258Y-82106110D01*
X180700218Y-82120008D01*
X180535214Y-82239890D01*
X180535209Y-82239894D01*
X180384890Y-82390213D01*
X180259951Y-82562179D01*
X180163444Y-82751585D01*
X180097753Y-82953760D01*
X180064500Y-83163713D01*
X180064500Y-83376286D01*
X180090526Y-83540612D01*
X180097754Y-83586243D01*
X180130763Y-83687835D01*
X180163444Y-83788414D01*
X180259951Y-83977820D01*
X180384890Y-84149786D01*
X180535209Y-84300105D01*
X180535214Y-84300109D01*
X180699793Y-84419682D01*
X180742459Y-84475011D01*
X180748438Y-84544625D01*
X180715833Y-84606420D01*
X180699793Y-84620318D01*
X180535214Y-84739890D01*
X180535209Y-84739894D01*
X180384890Y-84890213D01*
X180259951Y-85062179D01*
X180163444Y-85251585D01*
X180097753Y-85453760D01*
X180064500Y-85663713D01*
X180064500Y-85876286D01*
X180082413Y-85989388D01*
X180097754Y-86086243D01*
X180136482Y-86205436D01*
X180163444Y-86288414D01*
X180259951Y-86477820D01*
X180384890Y-86649786D01*
X180535209Y-86800105D01*
X180535214Y-86800109D01*
X180699793Y-86919682D01*
X180742459Y-86975011D01*
X180748438Y-87044625D01*
X180715833Y-87106420D01*
X180699793Y-87120318D01*
X180535214Y-87239890D01*
X180535209Y-87239894D01*
X180384890Y-87390213D01*
X180259951Y-87562179D01*
X180163444Y-87751585D01*
X180097753Y-87953760D01*
X180064500Y-88163713D01*
X180064500Y-88376286D01*
X180097753Y-88586239D01*
X180163444Y-88788414D01*
X180259951Y-88977820D01*
X180384890Y-89149786D01*
X180523705Y-89288601D01*
X180557190Y-89349924D01*
X180552206Y-89419616D01*
X180510334Y-89475549D01*
X180501121Y-89481821D01*
X180346342Y-89577289D01*
X180222289Y-89701342D01*
X180130187Y-89850663D01*
X180130186Y-89850666D01*
X180075001Y-90017203D01*
X180075001Y-90017204D01*
X180075000Y-90017204D01*
X180064500Y-90119983D01*
X180064500Y-91420001D01*
X180064501Y-91420018D01*
X180075000Y-91522796D01*
X180075001Y-91522799D01*
X180111416Y-91632690D01*
X180130186Y-91689334D01*
X180222288Y-91838656D01*
X180346344Y-91962712D01*
X180495666Y-92054814D01*
X180662203Y-92109999D01*
X180764991Y-92120500D01*
X182315008Y-92120499D01*
X182417797Y-92109999D01*
X182584334Y-92054814D01*
X182733656Y-91962712D01*
X182857712Y-91838656D01*
X182949814Y-91689334D01*
X183004999Y-91522797D01*
X183015500Y-91420009D01*
X183015499Y-90119992D01*
X183004999Y-90017203D01*
X182949814Y-89850666D01*
X182857712Y-89701344D01*
X182733656Y-89577288D01*
X182584334Y-89485186D01*
X182584333Y-89485185D01*
X182578878Y-89481821D01*
X182532154Y-89429873D01*
X182520931Y-89360910D01*
X182548775Y-89296828D01*
X182556272Y-89288623D01*
X182695104Y-89149792D01*
X182820051Y-88977816D01*
X182916557Y-88788412D01*
X182982246Y-88586243D01*
X183015500Y-88376287D01*
X183015500Y-88163713D01*
X182982246Y-87953757D01*
X182916557Y-87751588D01*
X182820051Y-87562184D01*
X182820049Y-87562181D01*
X182820048Y-87562179D01*
X182695109Y-87390213D01*
X182544792Y-87239896D01*
X182544784Y-87239890D01*
X182380204Y-87120316D01*
X182337540Y-87064989D01*
X182331561Y-86995376D01*
X182364166Y-86933580D01*
X182380199Y-86919686D01*
X182544792Y-86800104D01*
X182695104Y-86649792D01*
X182695106Y-86649788D01*
X182695109Y-86649786D01*
X182820048Y-86477820D01*
X182820047Y-86477820D01*
X182820051Y-86477816D01*
X182916557Y-86288412D01*
X182982246Y-86086243D01*
X183015500Y-85876287D01*
X183015500Y-85663713D01*
X182982246Y-85453757D01*
X182916557Y-85251588D01*
X182820051Y-85062184D01*
X182820049Y-85062181D01*
X182820048Y-85062179D01*
X182695109Y-84890213D01*
X182544792Y-84739896D01*
X182528988Y-84728414D01*
X182380204Y-84620316D01*
X182337540Y-84564989D01*
X182331561Y-84495376D01*
X182364166Y-84433580D01*
X182380199Y-84419686D01*
X182544792Y-84300104D01*
X182695104Y-84149792D01*
X182695106Y-84149788D01*
X182695109Y-84149786D01*
X182820048Y-83977820D01*
X182820047Y-83977820D01*
X182820051Y-83977816D01*
X182916557Y-83788412D01*
X182982246Y-83586243D01*
X183015500Y-83376287D01*
X183015500Y-83163713D01*
X182982246Y-82953757D01*
X182916557Y-82751588D01*
X182820051Y-82562184D01*
X182820049Y-82562181D01*
X182820048Y-82562179D01*
X182695109Y-82390213D01*
X182544790Y-82239894D01*
X182544785Y-82239890D01*
X182379781Y-82120008D01*
X182337115Y-82064678D01*
X182331136Y-81995065D01*
X182363741Y-81933270D01*
X182379781Y-81919371D01*
X182544466Y-81799721D01*
X182694723Y-81649464D01*
X182694727Y-81649459D01*
X182819620Y-81477557D01*
X182916095Y-81288217D01*
X182981757Y-81086129D01*
X182981757Y-81086126D01*
X182992231Y-81020000D01*
X181944146Y-81020000D01*
X181982630Y-80953343D01*
X182015000Y-80832535D01*
X182015000Y-80707465D01*
X181982630Y-80586657D01*
X181944146Y-80520000D01*
X182992231Y-80520000D01*
X182981757Y-80453873D01*
X182981757Y-80453870D01*
X182916095Y-80251782D01*
X182819620Y-80062442D01*
X182694727Y-79890540D01*
X182694723Y-79890535D01*
X182544464Y-79740276D01*
X182544459Y-79740272D01*
X182379781Y-79620627D01*
X182337115Y-79565297D01*
X182331136Y-79495684D01*
X182363741Y-79433889D01*
X182379776Y-79419994D01*
X182544792Y-79300104D01*
X182695104Y-79149792D01*
X182695106Y-79149788D01*
X182695109Y-79149786D01*
X182820048Y-78977820D01*
X182820047Y-78977820D01*
X182820051Y-78977816D01*
X182916557Y-78788412D01*
X182982246Y-78586243D01*
X183015500Y-78376287D01*
X183015500Y-78163713D01*
X182982246Y-77953757D01*
X182916557Y-77751588D01*
X182820051Y-77562184D01*
X182820049Y-77562181D01*
X182820048Y-77562179D01*
X182695109Y-77390213D01*
X182544786Y-77239890D01*
X182372820Y-77114951D01*
X182183414Y-77018444D01*
X182183413Y-77018443D01*
X182183412Y-77018443D01*
X181981243Y-76952754D01*
X181981241Y-76952753D01*
X181981240Y-76952753D01*
X181819957Y-76927208D01*
X181771287Y-76919500D01*
X181308713Y-76919500D01*
X181260042Y-76927208D01*
X181098760Y-76952753D01*
X180896585Y-77018444D01*
X180707179Y-77114951D01*
X180535213Y-77239890D01*
X180384890Y-77390213D01*
X180259951Y-77562179D01*
X180163444Y-77751585D01*
X180097753Y-77953760D01*
X180080923Y-78060020D01*
X180064500Y-78163713D01*
X175833971Y-78163713D01*
X172410000Y-70550000D01*
X171464083Y-70564446D01*
X171396751Y-70545787D01*
X171374509Y-70528141D01*
X171358657Y-70512289D01*
X171358656Y-70512288D01*
X171238935Y-70438444D01*
X171209336Y-70420187D01*
X171209331Y-70420185D01*
X171164064Y-70405185D01*
X171042797Y-70365001D01*
X171042795Y-70365000D01*
X170940010Y-70354500D01*
X169639998Y-70354500D01*
X169639981Y-70354501D01*
X169537203Y-70365000D01*
X169537200Y-70365001D01*
X169370668Y-70420185D01*
X169370663Y-70420187D01*
X169278857Y-70476813D01*
X169221344Y-70512288D01*
X169221342Y-70512289D01*
X169221340Y-70512291D01*
X169169124Y-70564506D01*
X169107800Y-70597990D01*
X169083338Y-70600809D01*
X168619768Y-70607889D01*
X168552435Y-70589230D01*
X168544989Y-70584222D01*
X168497815Y-70549948D01*
X168308414Y-70453444D01*
X168308413Y-70453443D01*
X168308412Y-70453443D01*
X168106243Y-70387754D01*
X168106241Y-70387753D01*
X168106240Y-70387753D01*
X167944957Y-70362208D01*
X167896287Y-70354500D01*
X167683713Y-70354500D01*
X167635042Y-70362208D01*
X167473760Y-70387753D01*
X167271585Y-70453444D01*
X167082181Y-70549950D01*
X166999454Y-70610054D01*
X166933647Y-70633533D01*
X166928464Y-70633721D01*
X166171242Y-70645286D01*
X166103909Y-70626627D01*
X166096464Y-70621619D01*
X165997816Y-70549949D01*
X165997814Y-70549948D01*
X165808414Y-70453444D01*
X165808413Y-70453443D01*
X165808412Y-70453443D01*
X165606243Y-70387754D01*
X165606241Y-70387753D01*
X165606240Y-70387753D01*
X165444957Y-70362208D01*
X165396287Y-70354500D01*
X165183713Y-70354500D01*
X165135042Y-70362208D01*
X164973760Y-70387753D01*
X164771585Y-70453444D01*
X164582185Y-70549948D01*
X164582183Y-70549949D01*
X164445768Y-70649058D01*
X164379961Y-70672537D01*
X164374778Y-70672725D01*
X160194891Y-70736567D01*
X160127558Y-70717908D01*
X160087458Y-70677677D01*
X160052713Y-70621345D01*
X159928657Y-70497289D01*
X159928656Y-70497288D01*
X159803653Y-70420186D01*
X159779336Y-70405187D01*
X159779331Y-70405185D01*
X159777862Y-70404698D01*
X159612797Y-70350001D01*
X159612795Y-70350000D01*
X159510010Y-70339500D01*
X158209998Y-70339500D01*
X158209981Y-70339501D01*
X158107203Y-70350000D01*
X158107200Y-70350001D01*
X157940668Y-70405185D01*
X157940663Y-70405187D01*
X157791342Y-70497289D01*
X157667289Y-70621342D01*
X157571821Y-70776121D01*
X157519873Y-70822845D01*
X157450910Y-70834068D01*
X157386828Y-70806224D01*
X157378601Y-70798705D01*
X157239786Y-70659890D01*
X157067820Y-70534951D01*
X156878414Y-70438444D01*
X156878413Y-70438443D01*
X156878412Y-70438443D01*
X156676243Y-70372754D01*
X156676241Y-70372753D01*
X156676240Y-70372753D01*
X156514957Y-70347208D01*
X156466287Y-70339500D01*
X156253713Y-70339500D01*
X156205042Y-70347208D01*
X156043760Y-70372753D01*
X155841585Y-70438444D01*
X155652179Y-70534951D01*
X155480213Y-70659890D01*
X155329890Y-70810213D01*
X155204951Y-70982179D01*
X155108444Y-71171585D01*
X155042753Y-71373760D01*
X155009500Y-71583713D01*
X155009500Y-72096286D01*
X155037210Y-72271243D01*
X155042754Y-72306243D01*
X155099052Y-72479511D01*
X155108444Y-72508414D01*
X155204951Y-72697820D01*
X155329890Y-72869786D01*
X155480213Y-73020109D01*
X155652179Y-73145048D01*
X155652181Y-73145049D01*
X155652184Y-73145051D01*
X155841588Y-73241557D01*
X156043757Y-73307246D01*
X156253713Y-73340500D01*
X156253714Y-73340500D01*
X156466286Y-73340500D01*
X156466287Y-73340500D01*
X156676243Y-73307246D01*
X156878412Y-73241557D01*
X157067816Y-73145051D01*
X157239792Y-73020104D01*
X157378604Y-72881291D01*
X157439923Y-72847809D01*
X157509615Y-72852793D01*
X157565549Y-72894664D01*
X157571821Y-72903878D01*
X157575185Y-72909333D01*
X157575186Y-72909334D01*
X157667288Y-73058656D01*
X157791344Y-73182712D01*
X157940666Y-73274814D01*
X158107203Y-73329999D01*
X158209991Y-73340500D01*
X159510008Y-73340499D01*
X159612797Y-73329999D01*
X159779334Y-73274814D01*
X159928656Y-73182712D01*
X159928657Y-73182710D01*
X159934803Y-73178920D01*
X159936193Y-73181173D01*
X159989551Y-73159627D01*
X160058197Y-73172645D01*
X160108908Y-73220710D01*
X160125706Y-73283238D01*
X160120206Y-76566888D01*
X160100409Y-76633894D01*
X160047528Y-76679560D01*
X159996889Y-76690678D01*
X149230000Y-76749999D01*
X149229999Y-76750000D01*
X149719999Y-89769999D01*
X149720000Y-89770000D01*
X157919604Y-89770000D01*
X157920206Y-89770001D01*
X163975546Y-89799395D01*
X164042487Y-89819405D01*
X164087985Y-89872431D01*
X164098937Y-89924453D01*
X163988695Y-102837727D01*
X163968439Y-102904596D01*
X163915247Y-102949898D01*
X163846006Y-102959251D01*
X163791814Y-102936986D01*
X163767594Y-102919389D01*
X163767593Y-102919388D01*
X163604267Y-102846671D01*
X163604265Y-102846670D01*
X163476594Y-102819533D01*
X163429391Y-102809500D01*
X163250609Y-102809500D01*
X163219954Y-102816015D01*
X163075733Y-102846670D01*
X163075728Y-102846672D01*
X162912408Y-102919387D01*
X162767768Y-103024475D01*
X162648140Y-103157336D01*
X162558750Y-103312164D01*
X162558747Y-103312170D01*
X162503504Y-103482192D01*
X162503503Y-103482194D01*
X162484815Y-103660000D01*
X162503503Y-103837805D01*
X162503504Y-103837807D01*
X162558747Y-104007829D01*
X162558750Y-104007835D01*
X162648141Y-104162665D01*
X162666973Y-104183580D01*
X162767764Y-104295521D01*
X162767767Y-104295523D01*
X162767770Y-104295526D01*
X162912407Y-104400612D01*
X163075733Y-104473329D01*
X163250609Y-104510500D01*
X163250610Y-104510500D01*
X163429389Y-104510500D01*
X163429391Y-104510500D01*
X163480750Y-104499583D01*
X163550416Y-104504899D01*
X163606149Y-104547035D01*
X163629851Y-104607911D01*
X163643503Y-104737805D01*
X163643504Y-104737807D01*
X163698747Y-104907829D01*
X163698750Y-104907835D01*
X163788141Y-105062665D01*
X163907770Y-105195526D01*
X163915832Y-105201383D01*
X163916536Y-105201895D01*
X163959202Y-105257225D01*
X163967646Y-105303272D01*
X163907863Y-112306239D01*
X163881662Y-115375397D01*
X163881050Y-115447059D01*
X163860794Y-115513928D01*
X163807602Y-115559230D01*
X163757055Y-115570000D01*
X150680000Y-115570000D01*
X150857520Y-122372267D01*
X150839592Y-122439795D01*
X150788000Y-122486912D01*
X150733563Y-122499500D01*
X135799393Y-122499500D01*
X135732354Y-122479815D01*
X135686599Y-122427011D01*
X135676655Y-122357853D01*
X135705680Y-122294297D01*
X135743098Y-122265015D01*
X135852789Y-122209125D01*
X136178084Y-121997876D01*
X136479516Y-121753781D01*
X136753781Y-121479516D01*
X136997876Y-121178084D01*
X137209125Y-120852789D01*
X137385214Y-120507194D01*
X137524214Y-120145087D01*
X137624602Y-119770433D01*
X137685278Y-119387338D01*
X137705578Y-119000000D01*
X137685278Y-118612662D01*
X137624602Y-118229567D01*
X137524214Y-117854913D01*
X137385214Y-117492806D01*
X137209125Y-117147211D01*
X136997876Y-116821916D01*
X136753781Y-116520484D01*
X136479516Y-116246219D01*
X136178084Y-116002124D01*
X136178082Y-116002122D01*
X135852793Y-115790877D01*
X135507197Y-115614787D01*
X135145094Y-115475788D01*
X135145087Y-115475786D01*
X134770433Y-115375398D01*
X134770429Y-115375397D01*
X134770428Y-115375397D01*
X134387339Y-115314722D01*
X134000001Y-115294422D01*
X133999999Y-115294422D01*
X133612660Y-115314722D01*
X133229572Y-115375397D01*
X133229570Y-115375397D01*
X132854905Y-115475788D01*
X132492802Y-115614787D01*
X132147206Y-115790877D01*
X131821917Y-116002122D01*
X131520488Y-116246215D01*
X131520480Y-116246222D01*
X131246222Y-116520480D01*
X131246215Y-116520488D01*
X131002122Y-116821917D01*
X130790877Y-117147206D01*
X130734985Y-117256901D01*
X130687010Y-117307697D01*
X130619189Y-117324492D01*
X130553054Y-117301955D01*
X130509603Y-117247240D01*
X130500500Y-117200606D01*
X130500500Y-106883713D01*
X131014500Y-106883713D01*
X131014500Y-107096287D01*
X131021457Y-107140213D01*
X131047657Y-107305635D01*
X131047754Y-107306243D01*
X131106747Y-107487805D01*
X131113444Y-107508414D01*
X131209951Y-107697820D01*
X131334890Y-107869786D01*
X131485209Y-108020105D01*
X131485214Y-108020109D01*
X131649793Y-108139682D01*
X131692459Y-108195011D01*
X131698438Y-108264625D01*
X131665833Y-108326420D01*
X131649793Y-108340318D01*
X131485214Y-108459890D01*
X131485209Y-108459894D01*
X131334890Y-108610213D01*
X131209951Y-108782179D01*
X131113444Y-108971585D01*
X131047753Y-109173760D01*
X131014500Y-109383713D01*
X131014500Y-109596286D01*
X131041570Y-109767203D01*
X131047754Y-109806243D01*
X131087965Y-109930000D01*
X131113444Y-110008414D01*
X131209951Y-110197820D01*
X131334890Y-110369786D01*
X131485209Y-110520105D01*
X131485214Y-110520109D01*
X131649793Y-110639682D01*
X131692459Y-110695011D01*
X131698438Y-110764625D01*
X131665833Y-110826420D01*
X131649793Y-110840318D01*
X131485214Y-110959890D01*
X131485209Y-110959894D01*
X131334890Y-111110213D01*
X131209951Y-111282179D01*
X131113444Y-111471585D01*
X131047753Y-111673760D01*
X131014500Y-111883713D01*
X131014500Y-112096286D01*
X131044124Y-112283329D01*
X131047754Y-112306243D01*
X131052386Y-112320500D01*
X131113444Y-112508414D01*
X131209951Y-112697820D01*
X131334890Y-112869786D01*
X131485213Y-113020109D01*
X131657179Y-113145048D01*
X131657181Y-113145049D01*
X131657184Y-113145051D01*
X131846588Y-113241557D01*
X132048757Y-113307246D01*
X132258713Y-113340500D01*
X132258714Y-113340500D01*
X132721286Y-113340500D01*
X132721287Y-113340500D01*
X132931243Y-113307246D01*
X133133412Y-113241557D01*
X133322816Y-113145051D01*
X133344789Y-113129086D01*
X133494786Y-113020109D01*
X133494788Y-113020106D01*
X133494792Y-113020104D01*
X133645104Y-112869792D01*
X133645106Y-112869788D01*
X133645109Y-112869786D01*
X133770048Y-112697820D01*
X133770047Y-112697820D01*
X133770051Y-112697816D01*
X133866557Y-112508412D01*
X133932246Y-112306243D01*
X133965500Y-112096287D01*
X133965500Y-111883713D01*
X133932246Y-111673757D01*
X133866557Y-111471588D01*
X133865748Y-111470000D01*
X157444815Y-111470000D01*
X157463503Y-111647805D01*
X157463504Y-111647807D01*
X157518747Y-111817829D01*
X157518750Y-111817835D01*
X157608141Y-111972665D01*
X157649812Y-112018946D01*
X157727764Y-112105521D01*
X157727767Y-112105523D01*
X157727770Y-112105526D01*
X157872407Y-112210612D01*
X158035733Y-112283329D01*
X158210609Y-112320500D01*
X158210610Y-112320500D01*
X158389389Y-112320500D01*
X158389391Y-112320500D01*
X158564267Y-112283329D01*
X158727593Y-112210612D01*
X158872230Y-112105526D01*
X158991859Y-111972665D01*
X159081250Y-111817835D01*
X159136497Y-111647803D01*
X159155185Y-111470000D01*
X159136497Y-111292197D01*
X159108873Y-111207181D01*
X159081252Y-111122170D01*
X159081249Y-111122164D01*
X158991859Y-110967335D01*
X158945003Y-110915296D01*
X158872235Y-110834478D01*
X158872232Y-110834476D01*
X158872231Y-110834475D01*
X158872230Y-110834474D01*
X158727593Y-110729388D01*
X158564267Y-110656671D01*
X158564265Y-110656670D01*
X158436594Y-110629533D01*
X158389391Y-110619500D01*
X158210609Y-110619500D01*
X158179954Y-110626015D01*
X158035733Y-110656670D01*
X158035728Y-110656672D01*
X157872408Y-110729387D01*
X157727768Y-110834475D01*
X157608140Y-110967336D01*
X157518750Y-111122164D01*
X157518747Y-111122170D01*
X157463504Y-111292192D01*
X157463503Y-111292194D01*
X157444815Y-111470000D01*
X133865748Y-111470000D01*
X133770051Y-111282184D01*
X133770049Y-111282181D01*
X133770048Y-111282179D01*
X133645109Y-111110213D01*
X133494792Y-110959896D01*
X133494784Y-110959890D01*
X133330204Y-110840316D01*
X133287540Y-110784989D01*
X133281561Y-110715376D01*
X133314166Y-110653580D01*
X133330199Y-110639686D01*
X133494792Y-110520104D01*
X133645104Y-110369792D01*
X133645106Y-110369788D01*
X133645109Y-110369786D01*
X133770048Y-110197820D01*
X133770047Y-110197820D01*
X133770051Y-110197816D01*
X133866557Y-110008412D01*
X133932246Y-109806243D01*
X133965500Y-109596287D01*
X133965500Y-109383713D01*
X133932246Y-109173757D01*
X133866557Y-108971588D01*
X133770051Y-108782184D01*
X133770049Y-108782181D01*
X133770048Y-108782179D01*
X133645109Y-108610213D01*
X133494792Y-108459896D01*
X133494784Y-108459890D01*
X133330204Y-108340316D01*
X133287540Y-108284989D01*
X133281561Y-108215376D01*
X133314166Y-108153580D01*
X133330199Y-108139686D01*
X133494792Y-108020104D01*
X133645104Y-107869792D01*
X133645106Y-107869788D01*
X133645109Y-107869786D01*
X133770048Y-107697820D01*
X133770047Y-107697820D01*
X133770051Y-107697816D01*
X133794414Y-107650000D01*
X150634815Y-107650000D01*
X150653503Y-107827805D01*
X150653504Y-107827807D01*
X150708747Y-107997829D01*
X150708750Y-107997835D01*
X150798141Y-108152665D01*
X150805196Y-108160500D01*
X150917764Y-108285521D01*
X150917767Y-108285523D01*
X150917770Y-108285526D01*
X151062407Y-108390612D01*
X151225733Y-108463329D01*
X151400609Y-108500500D01*
X151400610Y-108500500D01*
X151579389Y-108500500D01*
X151579391Y-108500500D01*
X151754267Y-108463329D01*
X151917593Y-108390612D01*
X152062230Y-108285526D01*
X152081050Y-108264625D01*
X152103222Y-108240000D01*
X152181859Y-108152665D01*
X152271250Y-107997835D01*
X152326497Y-107827803D01*
X152345185Y-107650000D01*
X152326497Y-107472197D01*
X152284765Y-107343760D01*
X152271252Y-107302170D01*
X152271249Y-107302164D01*
X152198132Y-107175521D01*
X152181859Y-107147335D01*
X152135003Y-107095296D01*
X152062235Y-107014478D01*
X152062232Y-107014476D01*
X152062231Y-107014475D01*
X152062230Y-107014474D01*
X151917593Y-106909388D01*
X151754267Y-106836671D01*
X151754265Y-106836670D01*
X151626594Y-106809533D01*
X151579391Y-106799500D01*
X151400609Y-106799500D01*
X151369954Y-106806015D01*
X151225733Y-106836670D01*
X151225728Y-106836672D01*
X151062408Y-106909387D01*
X150917768Y-107014475D01*
X150798140Y-107147336D01*
X150708750Y-107302164D01*
X150708747Y-107302170D01*
X150653504Y-107472192D01*
X150653503Y-107472194D01*
X150634815Y-107650000D01*
X133794414Y-107650000D01*
X133866557Y-107508412D01*
X133932246Y-107306243D01*
X133965500Y-107096287D01*
X133965500Y-106883713D01*
X133932246Y-106673757D01*
X133888786Y-106540000D01*
X155514815Y-106540000D01*
X155533503Y-106717805D01*
X155533504Y-106717807D01*
X155588747Y-106887829D01*
X155588750Y-106887835D01*
X155678141Y-107042665D01*
X155700670Y-107067686D01*
X155797764Y-107175521D01*
X155797767Y-107175523D01*
X155797770Y-107175526D01*
X155942407Y-107280612D01*
X156105733Y-107353329D01*
X156280609Y-107390500D01*
X156280610Y-107390500D01*
X156459389Y-107390500D01*
X156459391Y-107390500D01*
X156634267Y-107353329D01*
X156797593Y-107280612D01*
X156942230Y-107175526D01*
X157061859Y-107042665D01*
X157151250Y-106887835D01*
X157206497Y-106717803D01*
X157222555Y-106565023D01*
X160189838Y-106565023D01*
X160208526Y-106742828D01*
X160208527Y-106742830D01*
X160263770Y-106912852D01*
X160263773Y-106912858D01*
X160353164Y-107067688D01*
X160378914Y-107096286D01*
X160472787Y-107200544D01*
X160472790Y-107200546D01*
X160472793Y-107200549D01*
X160617430Y-107305635D01*
X160780756Y-107378352D01*
X160955632Y-107415523D01*
X160955633Y-107415523D01*
X161134412Y-107415523D01*
X161134414Y-107415523D01*
X161309290Y-107378352D01*
X161366130Y-107353045D01*
X161435375Y-107343760D01*
X161498652Y-107373388D01*
X161535866Y-107432522D01*
X161539882Y-107453361D01*
X161543502Y-107487796D01*
X161543504Y-107487807D01*
X161598747Y-107657829D01*
X161598750Y-107657835D01*
X161688141Y-107812665D01*
X161729812Y-107858946D01*
X161807764Y-107945521D01*
X161807767Y-107945523D01*
X161807770Y-107945526D01*
X161952407Y-108050612D01*
X162115733Y-108123329D01*
X162290609Y-108160500D01*
X162290610Y-108160500D01*
X162469389Y-108160500D01*
X162469391Y-108160500D01*
X162644267Y-108123329D01*
X162807593Y-108050612D01*
X162952230Y-107945526D01*
X163071859Y-107812665D01*
X163161250Y-107657835D01*
X163216497Y-107487803D01*
X163235185Y-107310000D01*
X163216497Y-107132197D01*
X163178246Y-107014474D01*
X163161252Y-106962170D01*
X163161249Y-106962164D01*
X163071859Y-106807335D01*
X163013778Y-106742830D01*
X162952235Y-106674478D01*
X162952232Y-106674476D01*
X162952231Y-106674475D01*
X162952230Y-106674474D01*
X162807593Y-106569388D01*
X162644267Y-106496671D01*
X162644265Y-106496670D01*
X162516594Y-106469533D01*
X162469391Y-106459500D01*
X162290609Y-106459500D01*
X162259954Y-106466015D01*
X162115733Y-106496670D01*
X162115728Y-106496672D01*
X162058896Y-106521976D01*
X161989646Y-106531261D01*
X161926369Y-106501633D01*
X161889156Y-106442498D01*
X161885140Y-106421667D01*
X161881520Y-106387220D01*
X161829728Y-106227820D01*
X161826275Y-106217193D01*
X161826272Y-106217187D01*
X161736882Y-106062358D01*
X161690026Y-106010319D01*
X161617258Y-105929501D01*
X161617255Y-105929499D01*
X161617254Y-105929498D01*
X161617253Y-105929497D01*
X161472616Y-105824411D01*
X161309290Y-105751694D01*
X161309288Y-105751693D01*
X161181617Y-105724556D01*
X161134414Y-105714523D01*
X160955632Y-105714523D01*
X160924977Y-105721038D01*
X160780756Y-105751693D01*
X160780751Y-105751695D01*
X160617431Y-105824410D01*
X160472791Y-105929498D01*
X160353163Y-106062359D01*
X160263773Y-106217187D01*
X160263770Y-106217193D01*
X160208527Y-106387215D01*
X160208526Y-106387217D01*
X160189838Y-106565023D01*
X157222555Y-106565023D01*
X157225185Y-106540000D01*
X157206497Y-106362197D01*
X157151250Y-106192165D01*
X157061859Y-106037335D01*
X157002162Y-105971035D01*
X156942235Y-105904478D01*
X156942232Y-105904476D01*
X156942231Y-105904475D01*
X156942230Y-105904474D01*
X156797593Y-105799388D01*
X156634267Y-105726671D01*
X156634265Y-105726670D01*
X156506594Y-105699533D01*
X156459391Y-105689500D01*
X156280609Y-105689500D01*
X156249954Y-105696015D01*
X156105733Y-105726670D01*
X156105728Y-105726672D01*
X155942408Y-105799387D01*
X155797768Y-105904475D01*
X155678140Y-106037336D01*
X155588750Y-106192164D01*
X155588747Y-106192170D01*
X155533504Y-106362192D01*
X155533503Y-106362194D01*
X155514815Y-106540000D01*
X133888786Y-106540000D01*
X133866557Y-106471588D01*
X133770051Y-106282184D01*
X133770049Y-106282181D01*
X133770048Y-106282179D01*
X133645109Y-106110213D01*
X133505931Y-105971035D01*
X133472446Y-105909712D01*
X133477430Y-105840020D01*
X133519302Y-105784087D01*
X133528516Y-105777815D01*
X133683343Y-105682317D01*
X133807315Y-105558345D01*
X133899356Y-105409124D01*
X133899358Y-105409119D01*
X133954505Y-105242697D01*
X133954506Y-105242690D01*
X133964999Y-105139986D01*
X133965000Y-105139973D01*
X133965000Y-104740000D01*
X132894146Y-104740000D01*
X132932630Y-104673343D01*
X132965000Y-104552535D01*
X132965000Y-104427465D01*
X132932630Y-104306657D01*
X132894146Y-104240000D01*
X133964999Y-104240000D01*
X133964999Y-103840028D01*
X133964998Y-103840013D01*
X133954505Y-103737302D01*
X133899358Y-103570880D01*
X133899356Y-103570875D01*
X133807315Y-103421654D01*
X133683345Y-103297684D01*
X133534124Y-103205643D01*
X133534119Y-103205641D01*
X133367697Y-103150494D01*
X133367690Y-103150493D01*
X133264986Y-103140000D01*
X132740000Y-103140000D01*
X132740000Y-104085854D01*
X132673343Y-104047370D01*
X132552535Y-104015000D01*
X132427465Y-104015000D01*
X132306657Y-104047370D01*
X132240000Y-104085854D01*
X132240000Y-103140000D01*
X131715028Y-103140000D01*
X131715012Y-103140001D01*
X131612302Y-103150494D01*
X131445880Y-103205641D01*
X131445875Y-103205643D01*
X131296654Y-103297684D01*
X131172684Y-103421654D01*
X131080643Y-103570875D01*
X131080641Y-103570880D01*
X131025494Y-103737302D01*
X131025493Y-103737309D01*
X131015000Y-103840013D01*
X131015000Y-104240000D01*
X132085854Y-104240000D01*
X132047370Y-104306657D01*
X132015000Y-104427465D01*
X132015000Y-104552535D01*
X132047370Y-104673343D01*
X132085854Y-104740000D01*
X131015001Y-104740000D01*
X131015001Y-105139986D01*
X131025494Y-105242697D01*
X131080641Y-105409119D01*
X131080643Y-105409124D01*
X131172684Y-105558345D01*
X131296654Y-105682315D01*
X131451484Y-105777815D01*
X131498208Y-105829763D01*
X131509431Y-105898726D01*
X131481587Y-105962808D01*
X131474069Y-105971035D01*
X131334889Y-106110215D01*
X131209951Y-106282179D01*
X131113444Y-106471585D01*
X131047753Y-106673760D01*
X131018823Y-106856420D01*
X131014500Y-106883713D01*
X130500500Y-106883713D01*
X130500500Y-101640000D01*
X155544815Y-101640000D01*
X155563503Y-101817805D01*
X155563504Y-101817807D01*
X155618747Y-101987829D01*
X155618750Y-101987835D01*
X155708141Y-102142665D01*
X155743736Y-102182197D01*
X155827764Y-102275521D01*
X155827767Y-102275523D01*
X155827770Y-102275526D01*
X155972407Y-102380612D01*
X156135733Y-102453329D01*
X156310609Y-102490500D01*
X156310610Y-102490500D01*
X156489389Y-102490500D01*
X156489391Y-102490500D01*
X156664267Y-102453329D01*
X156827593Y-102380612D01*
X156972230Y-102275526D01*
X157091859Y-102142665D01*
X157181250Y-101987835D01*
X157236497Y-101817803D01*
X157255185Y-101640000D01*
X157236497Y-101462197D01*
X157181250Y-101292165D01*
X157091859Y-101137335D01*
X157045003Y-101085296D01*
X156972235Y-101004478D01*
X156972232Y-101004476D01*
X156972231Y-101004475D01*
X156972230Y-101004474D01*
X156827593Y-100899388D01*
X156664267Y-100826671D01*
X156664265Y-100826670D01*
X156536594Y-100799533D01*
X156489391Y-100789500D01*
X156310609Y-100789500D01*
X156279954Y-100796015D01*
X156135733Y-100826670D01*
X156135728Y-100826672D01*
X155972408Y-100899387D01*
X155827768Y-101004475D01*
X155708140Y-101137336D01*
X155618750Y-101292164D01*
X155618747Y-101292170D01*
X155563504Y-101462192D01*
X155563503Y-101462194D01*
X155544815Y-101640000D01*
X130500500Y-101640000D01*
X130500500Y-93273713D01*
X131054500Y-93273713D01*
X131054500Y-93486287D01*
X131087754Y-93696243D01*
X131120763Y-93797835D01*
X131153444Y-93898414D01*
X131249951Y-94087820D01*
X131374890Y-94259786D01*
X131525209Y-94410105D01*
X131525214Y-94410109D01*
X131689793Y-94529682D01*
X131732459Y-94585011D01*
X131738438Y-94654625D01*
X131705833Y-94716420D01*
X131689793Y-94730318D01*
X131525214Y-94849890D01*
X131525209Y-94849894D01*
X131374890Y-95000213D01*
X131249951Y-95172179D01*
X131153444Y-95361585D01*
X131087753Y-95563760D01*
X131066597Y-95697335D01*
X131054500Y-95773713D01*
X131054500Y-95986287D01*
X131087754Y-96196243D01*
X131146747Y-96377805D01*
X131153444Y-96398414D01*
X131249951Y-96587820D01*
X131374890Y-96759786D01*
X131525209Y-96910105D01*
X131525214Y-96910109D01*
X131689793Y-97029682D01*
X131732459Y-97085011D01*
X131738438Y-97154625D01*
X131705833Y-97216420D01*
X131689793Y-97230318D01*
X131525214Y-97349890D01*
X131525209Y-97349894D01*
X131374890Y-97500213D01*
X131249951Y-97672179D01*
X131153444Y-97861585D01*
X131087753Y-98063760D01*
X131077850Y-98126286D01*
X131054500Y-98273713D01*
X131054500Y-98486287D01*
X131087754Y-98696243D01*
X131138416Y-98852165D01*
X131153444Y-98898414D01*
X131249951Y-99087820D01*
X131374890Y-99259786D01*
X131525213Y-99410109D01*
X131697179Y-99535048D01*
X131697181Y-99535049D01*
X131697184Y-99535051D01*
X131886588Y-99631557D01*
X132088757Y-99697246D01*
X132298713Y-99730500D01*
X132298714Y-99730500D01*
X132761286Y-99730500D01*
X132761287Y-99730500D01*
X132971243Y-99697246D01*
X133173412Y-99631557D01*
X133362816Y-99535051D01*
X133424444Y-99490276D01*
X133534786Y-99410109D01*
X133534788Y-99410106D01*
X133534792Y-99410104D01*
X133685104Y-99259792D01*
X133685106Y-99259788D01*
X133685109Y-99259786D01*
X133728546Y-99200000D01*
X154574815Y-99200000D01*
X154593503Y-99377805D01*
X154593504Y-99377807D01*
X154648747Y-99547829D01*
X154648750Y-99547835D01*
X154738141Y-99702665D01*
X154763204Y-99730500D01*
X154857764Y-99835521D01*
X154857767Y-99835523D01*
X154857770Y-99835526D01*
X155002407Y-99940612D01*
X155165733Y-100013329D01*
X155340609Y-100050500D01*
X155340610Y-100050500D01*
X155519389Y-100050500D01*
X155519391Y-100050500D01*
X155694267Y-100013329D01*
X155857593Y-99940612D01*
X156002230Y-99835526D01*
X156121859Y-99702665D01*
X156211250Y-99547835D01*
X156266497Y-99377803D01*
X156272478Y-99320895D01*
X156299061Y-99256283D01*
X156345360Y-99220580D01*
X156457593Y-99170612D01*
X156602230Y-99065526D01*
X156721859Y-98932665D01*
X156811250Y-98777835D01*
X156866497Y-98607803D01*
X156885185Y-98430000D01*
X156866497Y-98252197D01*
X156811250Y-98082165D01*
X156721859Y-97927335D01*
X156662657Y-97861585D01*
X156602235Y-97794478D01*
X156602232Y-97794476D01*
X156602231Y-97794475D01*
X156602230Y-97794474D01*
X156457593Y-97689388D01*
X156294267Y-97616671D01*
X156294265Y-97616670D01*
X156166594Y-97589533D01*
X156119391Y-97579500D01*
X155940609Y-97579500D01*
X155909954Y-97586015D01*
X155765733Y-97616670D01*
X155765728Y-97616672D01*
X155602408Y-97689387D01*
X155457768Y-97794475D01*
X155338140Y-97927336D01*
X155248750Y-98082164D01*
X155248747Y-98082170D01*
X155193504Y-98252192D01*
X155193502Y-98252202D01*
X155187520Y-98309106D01*
X155160934Y-98373720D01*
X155114636Y-98409420D01*
X155002408Y-98459387D01*
X154857768Y-98564475D01*
X154738140Y-98697336D01*
X154648750Y-98852164D01*
X154648747Y-98852170D01*
X154593504Y-99022192D01*
X154593503Y-99022194D01*
X154574815Y-99200000D01*
X133728546Y-99200000D01*
X133810048Y-99087820D01*
X133810047Y-99087820D01*
X133810051Y-99087816D01*
X133906557Y-98898412D01*
X133972246Y-98696243D01*
X134005500Y-98486287D01*
X134005500Y-98273713D01*
X133972246Y-98063757D01*
X133906557Y-97861588D01*
X133810051Y-97672184D01*
X133810049Y-97672181D01*
X133810048Y-97672179D01*
X133685109Y-97500213D01*
X133534792Y-97349896D01*
X133534784Y-97349890D01*
X133370204Y-97230316D01*
X133327540Y-97174989D01*
X133321561Y-97105376D01*
X133354166Y-97043580D01*
X133370199Y-97029686D01*
X133534792Y-96910104D01*
X133685104Y-96759792D01*
X133685106Y-96759788D01*
X133685109Y-96759786D01*
X133810048Y-96587820D01*
X133810047Y-96587820D01*
X133810051Y-96587816D01*
X133906557Y-96398412D01*
X133971025Y-96200000D01*
X147044815Y-96200000D01*
X147063503Y-96377805D01*
X147063504Y-96377807D01*
X147118747Y-96547829D01*
X147118750Y-96547835D01*
X147208141Y-96702665D01*
X147249812Y-96748946D01*
X147327764Y-96835521D01*
X147327767Y-96835523D01*
X147327770Y-96835526D01*
X147472407Y-96940612D01*
X147635733Y-97013329D01*
X147810609Y-97050500D01*
X147810610Y-97050500D01*
X147989389Y-97050500D01*
X147989391Y-97050500D01*
X148164267Y-97013329D01*
X148327593Y-96940612D01*
X148472230Y-96835526D01*
X148591859Y-96702665D01*
X148681250Y-96547835D01*
X148736497Y-96377803D01*
X148755185Y-96200000D01*
X148736497Y-96022197D01*
X148681250Y-95852165D01*
X148591859Y-95697335D01*
X148545003Y-95645296D01*
X148472235Y-95564478D01*
X148472232Y-95564476D01*
X148472231Y-95564475D01*
X148472230Y-95564474D01*
X148327593Y-95459388D01*
X148164267Y-95386671D01*
X148164265Y-95386670D01*
X148023128Y-95356671D01*
X147989391Y-95349500D01*
X147810609Y-95349500D01*
X147779954Y-95356015D01*
X147635733Y-95386670D01*
X147635728Y-95386672D01*
X147472408Y-95459387D01*
X147327768Y-95564475D01*
X147208140Y-95697336D01*
X147118750Y-95852164D01*
X147118747Y-95852170D01*
X147063504Y-96022192D01*
X147063503Y-96022194D01*
X147044815Y-96200000D01*
X133971025Y-96200000D01*
X133972246Y-96196243D01*
X134005500Y-95986287D01*
X134005500Y-95773713D01*
X133972246Y-95563757D01*
X133906557Y-95361588D01*
X133810051Y-95172184D01*
X133810049Y-95172181D01*
X133810048Y-95172179D01*
X133685109Y-95000213D01*
X133534792Y-94849896D01*
X133525753Y-94843329D01*
X133370204Y-94730316D01*
X133327540Y-94674989D01*
X133321561Y-94605376D01*
X133354166Y-94543580D01*
X133370199Y-94529686D01*
X133534792Y-94410104D01*
X133685104Y-94259792D01*
X133685106Y-94259788D01*
X133685109Y-94259786D01*
X133810048Y-94087820D01*
X133810047Y-94087820D01*
X133810051Y-94087816D01*
X133839510Y-94030000D01*
X142734815Y-94030000D01*
X142753503Y-94207805D01*
X142753504Y-94207807D01*
X142808747Y-94377829D01*
X142808750Y-94377835D01*
X142898141Y-94532665D01*
X142939812Y-94578946D01*
X143017764Y-94665521D01*
X143017767Y-94665523D01*
X143017770Y-94665526D01*
X143162407Y-94770612D01*
X143325733Y-94843329D01*
X143500609Y-94880500D01*
X143500610Y-94880500D01*
X143679389Y-94880500D01*
X143679391Y-94880500D01*
X143854267Y-94843329D01*
X144017593Y-94770612D01*
X144162230Y-94665526D01*
X144172046Y-94654625D01*
X144216389Y-94605376D01*
X144281859Y-94532665D01*
X144371250Y-94377835D01*
X144426497Y-94207803D01*
X144445185Y-94030000D01*
X144426497Y-93852197D01*
X144398873Y-93767181D01*
X144371252Y-93682170D01*
X144371249Y-93682164D01*
X144339864Y-93627803D01*
X144281859Y-93527335D01*
X144212226Y-93450000D01*
X144162235Y-93394478D01*
X144162232Y-93394476D01*
X144162231Y-93394475D01*
X144162230Y-93394474D01*
X144017593Y-93289388D01*
X143854267Y-93216671D01*
X143854265Y-93216670D01*
X143726594Y-93189533D01*
X143679391Y-93179500D01*
X143500609Y-93179500D01*
X143469954Y-93186015D01*
X143325733Y-93216670D01*
X143325728Y-93216672D01*
X143162408Y-93289387D01*
X143017768Y-93394475D01*
X142898140Y-93527336D01*
X142808750Y-93682164D01*
X142808747Y-93682170D01*
X142753504Y-93852192D01*
X142753503Y-93852194D01*
X142734815Y-94030000D01*
X133839510Y-94030000D01*
X133906557Y-93898412D01*
X133972246Y-93696243D01*
X134005500Y-93486287D01*
X134005500Y-93273713D01*
X133972246Y-93063757D01*
X133906557Y-92861588D01*
X133810051Y-92672184D01*
X133810049Y-92672181D01*
X133810048Y-92672179D01*
X133685109Y-92500213D01*
X133545931Y-92361035D01*
X133512446Y-92299712D01*
X133517430Y-92230020D01*
X133559302Y-92174087D01*
X133568516Y-92167815D01*
X133723343Y-92072317D01*
X133847315Y-91948345D01*
X133939356Y-91799124D01*
X133939358Y-91799119D01*
X133994505Y-91632697D01*
X133994506Y-91632690D01*
X134004999Y-91529986D01*
X134005000Y-91529973D01*
X134005000Y-91130000D01*
X132934146Y-91130000D01*
X132972630Y-91063343D01*
X133005000Y-90942535D01*
X133005000Y-90817465D01*
X132972630Y-90696657D01*
X132934146Y-90630000D01*
X134004999Y-90630000D01*
X134004999Y-90230028D01*
X134004998Y-90230013D01*
X133994505Y-90127302D01*
X133939358Y-89960880D01*
X133939356Y-89960875D01*
X133847315Y-89811654D01*
X133723345Y-89687684D01*
X133574124Y-89595643D01*
X133574119Y-89595641D01*
X133407697Y-89540494D01*
X133407690Y-89540493D01*
X133304986Y-89530000D01*
X132780000Y-89530000D01*
X132780000Y-90475854D01*
X132713343Y-90437370D01*
X132592535Y-90405000D01*
X132467465Y-90405000D01*
X132346657Y-90437370D01*
X132280000Y-90475854D01*
X132280000Y-89530000D01*
X131755028Y-89530000D01*
X131755012Y-89530001D01*
X131652302Y-89540494D01*
X131485880Y-89595641D01*
X131485875Y-89595643D01*
X131336654Y-89687684D01*
X131212684Y-89811654D01*
X131120643Y-89960875D01*
X131120641Y-89960880D01*
X131065494Y-90127302D01*
X131065493Y-90127309D01*
X131055000Y-90230013D01*
X131055000Y-90630000D01*
X132125854Y-90630000D01*
X132087370Y-90696657D01*
X132055000Y-90817465D01*
X132055000Y-90942535D01*
X132087370Y-91063343D01*
X132125854Y-91130000D01*
X131055001Y-91130000D01*
X131055001Y-91529986D01*
X131065494Y-91632697D01*
X131120641Y-91799119D01*
X131120643Y-91799124D01*
X131212684Y-91948345D01*
X131336654Y-92072315D01*
X131491484Y-92167815D01*
X131538208Y-92219763D01*
X131549431Y-92288726D01*
X131521587Y-92352808D01*
X131514069Y-92361035D01*
X131374889Y-92500215D01*
X131249951Y-92672179D01*
X131153444Y-92861585D01*
X131087753Y-93063760D01*
X131063534Y-93216672D01*
X131054500Y-93273713D01*
X130500500Y-93273713D01*
X130500500Y-79103713D01*
X131024500Y-79103713D01*
X131024500Y-79316287D01*
X131033350Y-79372165D01*
X131057011Y-79521557D01*
X131057754Y-79526243D01*
X131119997Y-79717807D01*
X131123444Y-79728414D01*
X131219951Y-79917820D01*
X131344890Y-80089786D01*
X131495209Y-80240105D01*
X131495214Y-80240109D01*
X131659793Y-80359682D01*
X131702459Y-80415011D01*
X131708438Y-80484625D01*
X131675833Y-80546420D01*
X131659793Y-80560318D01*
X131495214Y-80679890D01*
X131495209Y-80679894D01*
X131344890Y-80830213D01*
X131219951Y-81002179D01*
X131123444Y-81191585D01*
X131057753Y-81393760D01*
X131024500Y-81603713D01*
X131024500Y-81816286D01*
X131056518Y-82018443D01*
X131057754Y-82026243D01*
X131109508Y-82185526D01*
X131123444Y-82228414D01*
X131219951Y-82417820D01*
X131344890Y-82589786D01*
X131495209Y-82740105D01*
X131495214Y-82740109D01*
X131659793Y-82859682D01*
X131702459Y-82915011D01*
X131708438Y-82984625D01*
X131675833Y-83046420D01*
X131659793Y-83060318D01*
X131495214Y-83179890D01*
X131495209Y-83179894D01*
X131344890Y-83330213D01*
X131219951Y-83502179D01*
X131123444Y-83691585D01*
X131057753Y-83893760D01*
X131024500Y-84103713D01*
X131024500Y-84316286D01*
X131049639Y-84475011D01*
X131057754Y-84526243D01*
X131088321Y-84620319D01*
X131123444Y-84728414D01*
X131219951Y-84917820D01*
X131344890Y-85089786D01*
X131495213Y-85240109D01*
X131667179Y-85365048D01*
X131667181Y-85365049D01*
X131667184Y-85365051D01*
X131856588Y-85461557D01*
X132058757Y-85527246D01*
X132268713Y-85560500D01*
X132268714Y-85560500D01*
X132731286Y-85560500D01*
X132731287Y-85560500D01*
X132941243Y-85527246D01*
X133143412Y-85461557D01*
X133332816Y-85365051D01*
X133488990Y-85251585D01*
X133504786Y-85240109D01*
X133504788Y-85240106D01*
X133504792Y-85240104D01*
X133655104Y-85089792D01*
X133655106Y-85089788D01*
X133655109Y-85089786D01*
X133780048Y-84917820D01*
X133780047Y-84917820D01*
X133780051Y-84917816D01*
X133876557Y-84728412D01*
X133942246Y-84526243D01*
X133975500Y-84316287D01*
X133975500Y-84103713D01*
X133942246Y-83893757D01*
X133876557Y-83691588D01*
X133780051Y-83502184D01*
X133780049Y-83502181D01*
X133780048Y-83502179D01*
X133655109Y-83330213D01*
X133504792Y-83179896D01*
X133480431Y-83162197D01*
X133340204Y-83060316D01*
X133297540Y-83004989D01*
X133291561Y-82935376D01*
X133324166Y-82873580D01*
X133340199Y-82859686D01*
X133504792Y-82740104D01*
X133655104Y-82589792D01*
X133655106Y-82589788D01*
X133655109Y-82589786D01*
X133780048Y-82417820D01*
X133780047Y-82417820D01*
X133780051Y-82417816D01*
X133876557Y-82228412D01*
X133942246Y-82026243D01*
X133975500Y-81816287D01*
X133975500Y-81603713D01*
X133966993Y-81550000D01*
X142424815Y-81550000D01*
X142443503Y-81727805D01*
X142443504Y-81727807D01*
X142498747Y-81897829D01*
X142498750Y-81897835D01*
X142588141Y-82052665D01*
X142615153Y-82082665D01*
X142707764Y-82185521D01*
X142707767Y-82185523D01*
X142707770Y-82185526D01*
X142852407Y-82290612D01*
X143015733Y-82363329D01*
X143190609Y-82400500D01*
X143190610Y-82400500D01*
X143369389Y-82400500D01*
X143369391Y-82400500D01*
X143544267Y-82363329D01*
X143707593Y-82290612D01*
X143852230Y-82185526D01*
X143871186Y-82164474D01*
X143886196Y-82147803D01*
X143971859Y-82052665D01*
X144061250Y-81897835D01*
X144116497Y-81727803D01*
X144135185Y-81550000D01*
X144116497Y-81372197D01*
X144070998Y-81232165D01*
X144061252Y-81202170D01*
X144061249Y-81202164D01*
X144055143Y-81191588D01*
X143971859Y-81047335D01*
X143925003Y-80995296D01*
X143852235Y-80914478D01*
X143852232Y-80914476D01*
X143852231Y-80914475D01*
X143852230Y-80914474D01*
X143707593Y-80809388D01*
X143544267Y-80736671D01*
X143544265Y-80736670D01*
X143406863Y-80707465D01*
X143369391Y-80699500D01*
X143190609Y-80699500D01*
X143159954Y-80706015D01*
X143015733Y-80736670D01*
X143015728Y-80736672D01*
X142852408Y-80809387D01*
X142707768Y-80914475D01*
X142588140Y-81047336D01*
X142498750Y-81202164D01*
X142498747Y-81202170D01*
X142443504Y-81372192D01*
X142443503Y-81372194D01*
X142424815Y-81550000D01*
X133966993Y-81550000D01*
X133942246Y-81393757D01*
X133876557Y-81191588D01*
X133780051Y-81002184D01*
X133780049Y-81002181D01*
X133780048Y-81002179D01*
X133655109Y-80830213D01*
X133504792Y-80679896D01*
X133463643Y-80650000D01*
X133340204Y-80560316D01*
X133297540Y-80504989D01*
X133291561Y-80435376D01*
X133324166Y-80373580D01*
X133340199Y-80359686D01*
X133504792Y-80240104D01*
X133655104Y-80089792D01*
X133655106Y-80089788D01*
X133655109Y-80089786D01*
X133780048Y-79917820D01*
X133780047Y-79917820D01*
X133780051Y-79917816D01*
X133876557Y-79728412D01*
X133942246Y-79526243D01*
X133975500Y-79316287D01*
X133975500Y-79103713D01*
X133949570Y-78940000D01*
X141624815Y-78940000D01*
X141643503Y-79117805D01*
X141643504Y-79117807D01*
X141698747Y-79287829D01*
X141698750Y-79287835D01*
X141788141Y-79442665D01*
X141817544Y-79475320D01*
X141907764Y-79575521D01*
X141907767Y-79575523D01*
X141907770Y-79575526D01*
X142052407Y-79680612D01*
X142215733Y-79753329D01*
X142390609Y-79790500D01*
X142390610Y-79790500D01*
X142569389Y-79790500D01*
X142569391Y-79790500D01*
X142744267Y-79753329D01*
X142907593Y-79680612D01*
X143052230Y-79575526D01*
X143061441Y-79565297D01*
X143084218Y-79540000D01*
X144034815Y-79540000D01*
X144053503Y-79717805D01*
X144053504Y-79717807D01*
X144108747Y-79887829D01*
X144108750Y-79887835D01*
X144198141Y-80042665D01*
X144239812Y-80088946D01*
X144317764Y-80175521D01*
X144317767Y-80175523D01*
X144317770Y-80175526D01*
X144462407Y-80280612D01*
X144625733Y-80353329D01*
X144800609Y-80390500D01*
X144800610Y-80390500D01*
X144979389Y-80390500D01*
X144979391Y-80390500D01*
X145154267Y-80353329D01*
X145317593Y-80280612D01*
X145462230Y-80175526D01*
X145581859Y-80042665D01*
X145671250Y-79887835D01*
X145726497Y-79717803D01*
X145745185Y-79540000D01*
X145726497Y-79362197D01*
X145698873Y-79277181D01*
X145671252Y-79192170D01*
X145671249Y-79192164D01*
X145646786Y-79149792D01*
X145581859Y-79037335D01*
X145528268Y-78977816D01*
X145462235Y-78904478D01*
X145462232Y-78904476D01*
X145462231Y-78904475D01*
X145462230Y-78904474D01*
X145317593Y-78799388D01*
X145154267Y-78726671D01*
X145154265Y-78726670D01*
X145026594Y-78699533D01*
X144979391Y-78689500D01*
X144800609Y-78689500D01*
X144790786Y-78691588D01*
X144625733Y-78726670D01*
X144625728Y-78726672D01*
X144462408Y-78799387D01*
X144317768Y-78904475D01*
X144198140Y-79037336D01*
X144108750Y-79192164D01*
X144108747Y-79192170D01*
X144053504Y-79362192D01*
X144053503Y-79362194D01*
X144034815Y-79540000D01*
X143084218Y-79540000D01*
X143171859Y-79442665D01*
X143261250Y-79287835D01*
X143316497Y-79117803D01*
X143335185Y-78940000D01*
X143316497Y-78762197D01*
X143261250Y-78592165D01*
X143171859Y-78437335D01*
X143116890Y-78376286D01*
X143052235Y-78304478D01*
X143052232Y-78304476D01*
X143052231Y-78304475D01*
X143052230Y-78304474D01*
X142907593Y-78199388D01*
X142744267Y-78126671D01*
X142744265Y-78126670D01*
X142616594Y-78099533D01*
X142569391Y-78089500D01*
X142390609Y-78089500D01*
X142359954Y-78096015D01*
X142215733Y-78126670D01*
X142215728Y-78126672D01*
X142052408Y-78199387D01*
X141907768Y-78304475D01*
X141788140Y-78437336D01*
X141698750Y-78592164D01*
X141698747Y-78592170D01*
X141643504Y-78762192D01*
X141643503Y-78762194D01*
X141624815Y-78940000D01*
X133949570Y-78940000D01*
X133942246Y-78893757D01*
X133876557Y-78691588D01*
X133780051Y-78502184D01*
X133780049Y-78502181D01*
X133780048Y-78502179D01*
X133655109Y-78330213D01*
X133515931Y-78191035D01*
X133482446Y-78129712D01*
X133487430Y-78060020D01*
X133529302Y-78004087D01*
X133538516Y-77997815D01*
X133693343Y-77902317D01*
X133817315Y-77778345D01*
X133909356Y-77629124D01*
X133909358Y-77629119D01*
X133964505Y-77462697D01*
X133964506Y-77462690D01*
X133974999Y-77359986D01*
X133975000Y-77359973D01*
X133975000Y-76960000D01*
X132904146Y-76960000D01*
X132942630Y-76893343D01*
X132975000Y-76772535D01*
X132975000Y-76647465D01*
X132942630Y-76526657D01*
X132904146Y-76460000D01*
X133974999Y-76460000D01*
X133974999Y-76060028D01*
X133974998Y-76060013D01*
X133964505Y-75957302D01*
X133909358Y-75790880D01*
X133909356Y-75790875D01*
X133817315Y-75641654D01*
X133693345Y-75517684D01*
X133544124Y-75425643D01*
X133544119Y-75425641D01*
X133377697Y-75370494D01*
X133377690Y-75370493D01*
X133274986Y-75360000D01*
X132750000Y-75360000D01*
X132750000Y-76305854D01*
X132683343Y-76267370D01*
X132562535Y-76235000D01*
X132437465Y-76235000D01*
X132316657Y-76267370D01*
X132250000Y-76305854D01*
X132250000Y-75360000D01*
X131725028Y-75360000D01*
X131725012Y-75360001D01*
X131622302Y-75370494D01*
X131455880Y-75425641D01*
X131455875Y-75425643D01*
X131306654Y-75517684D01*
X131182684Y-75641654D01*
X131090643Y-75790875D01*
X131090641Y-75790880D01*
X131035494Y-75957302D01*
X131035493Y-75957309D01*
X131025000Y-76060013D01*
X131025000Y-76460000D01*
X132095854Y-76460000D01*
X132057370Y-76526657D01*
X132025000Y-76647465D01*
X132025000Y-76772535D01*
X132057370Y-76893343D01*
X132095854Y-76960000D01*
X131025001Y-76960000D01*
X131025001Y-77359986D01*
X131035494Y-77462697D01*
X131090641Y-77629119D01*
X131090643Y-77629124D01*
X131182684Y-77778345D01*
X131306654Y-77902315D01*
X131461484Y-77997815D01*
X131508208Y-78049763D01*
X131519431Y-78118726D01*
X131491587Y-78182808D01*
X131484069Y-78191035D01*
X131344889Y-78330215D01*
X131219951Y-78502179D01*
X131123444Y-78691585D01*
X131057753Y-78893760D01*
X131044191Y-78979388D01*
X131024500Y-79103713D01*
X130500500Y-79103713D01*
X130500500Y-71353799D01*
X130520185Y-71286760D01*
X130572989Y-71241005D01*
X130642147Y-71231061D01*
X130705703Y-71260086D01*
X130740264Y-71309362D01*
X130754786Y-71347194D01*
X130930877Y-71692793D01*
X131142122Y-72018082D01*
X131347128Y-72271243D01*
X131386219Y-72319516D01*
X131660484Y-72593781D01*
X131788961Y-72697820D01*
X131961917Y-72837877D01*
X132247992Y-73023656D01*
X132287211Y-73049125D01*
X132632806Y-73225214D01*
X132994913Y-73364214D01*
X133369567Y-73464602D01*
X133752662Y-73525278D01*
X134118576Y-73544455D01*
X134139999Y-73545578D01*
X134140000Y-73545578D01*
X134140001Y-73545578D01*
X134160301Y-73544514D01*
X134527338Y-73525278D01*
X134910433Y-73464602D01*
X135285087Y-73364214D01*
X135647194Y-73225214D01*
X135992789Y-73049125D01*
X136318084Y-72837876D01*
X136619516Y-72593781D01*
X136893781Y-72319516D01*
X137137876Y-72018084D01*
X137349125Y-71692789D01*
X137525214Y-71347194D01*
X137664214Y-70985087D01*
X137764602Y-70610433D01*
X137825278Y-70227338D01*
X137845578Y-69840000D01*
X137825278Y-69452662D01*
X137764602Y-69069567D01*
X137664214Y-68694913D01*
X137525214Y-68332806D01*
X137349125Y-67987211D01*
X137137876Y-67661916D01*
X136893781Y-67360484D01*
X136619516Y-67086219D01*
X136585164Y-67058401D01*
X136318082Y-66842122D01*
X136143111Y-66728495D01*
X136097608Y-66675474D01*
X136087994Y-66606269D01*
X136117321Y-66542852D01*
X136176278Y-66505358D01*
X136210646Y-66500500D01*
X178200607Y-66500500D01*
X178267646Y-66520185D01*
G37*
%TD.AperFunction*%
%TD*%
%TA.AperFunction,Conductor*%
%TO.N,+5V*%
G36*
X159958331Y-77216081D02*
G01*
X160004376Y-77268632D01*
X160004458Y-77268809D01*
X160028758Y-77321471D01*
X160029566Y-77323348D01*
X160030097Y-77324373D01*
X160030098Y-77324374D01*
X160030100Y-77324379D01*
X160108363Y-77445112D01*
X162664544Y-80371754D01*
X163154198Y-80932373D01*
X163183472Y-80995814D01*
X163173801Y-81065011D01*
X163128254Y-81117995D01*
X163086586Y-81135234D01*
X162985733Y-81156670D01*
X162985728Y-81156672D01*
X162822408Y-81229387D01*
X162677768Y-81334475D01*
X162558140Y-81467336D01*
X162468750Y-81622164D01*
X162468747Y-81622170D01*
X162413504Y-81792192D01*
X162413503Y-81792194D01*
X162394815Y-81970000D01*
X162413503Y-82147805D01*
X162413504Y-82147807D01*
X162468747Y-82317829D01*
X162468750Y-82317835D01*
X162558141Y-82472665D01*
X162562648Y-82477670D01*
X162677764Y-82605521D01*
X162677767Y-82605523D01*
X162677770Y-82605526D01*
X162822407Y-82710612D01*
X162985733Y-82783329D01*
X163160609Y-82820500D01*
X163160610Y-82820500D01*
X163339389Y-82820500D01*
X163339391Y-82820500D01*
X163514267Y-82783329D01*
X163677593Y-82710612D01*
X163822230Y-82605526D01*
X163941859Y-82472665D01*
X164031250Y-82317835D01*
X164054008Y-82247792D01*
X164093445Y-82190118D01*
X164157804Y-82162919D01*
X164226650Y-82174833D01*
X164265329Y-82204538D01*
X164725680Y-82731607D01*
X164785415Y-82799999D01*
X165075856Y-83132533D01*
X165818698Y-83983033D01*
X168554655Y-87115506D01*
X168583929Y-87178947D01*
X168585261Y-87196676D01*
X168638898Y-103797466D01*
X168643819Y-103866232D01*
X168648513Y-103899615D01*
X168648514Y-103899621D01*
X168658653Y-103947688D01*
X168662733Y-103967030D01*
X168721255Y-104098472D01*
X168721259Y-104098480D01*
X168721260Y-104098482D01*
X168758467Y-104157605D01*
X168758470Y-104157610D01*
X168851642Y-104267230D01*
X168856668Y-104271669D01*
X168893882Y-104330804D01*
X168893218Y-104400670D01*
X168892509Y-104402923D01*
X168863505Y-104492189D01*
X168863503Y-104492194D01*
X168844815Y-104670000D01*
X168863503Y-104847805D01*
X168863504Y-104847807D01*
X168896093Y-104948105D01*
X168898088Y-105017946D01*
X168862008Y-105077779D01*
X168859669Y-105079871D01*
X168837262Y-105099414D01*
X168837250Y-105099426D01*
X168743391Y-105208455D01*
X168684043Y-105339527D01*
X168664578Y-105406617D01*
X168664572Y-105406642D01*
X168644558Y-105549116D01*
X168682562Y-117311543D01*
X168663094Y-117378646D01*
X168610439Y-117424571D01*
X168577961Y-117434417D01*
X168493760Y-117447753D01*
X168291585Y-117513444D01*
X168102179Y-117609951D01*
X167930213Y-117734890D01*
X167779894Y-117885209D01*
X167779890Y-117885214D01*
X167660318Y-118049793D01*
X167604989Y-118092459D01*
X167535375Y-118098438D01*
X167473580Y-118065833D01*
X167459682Y-118049793D01*
X167340109Y-117885214D01*
X167340105Y-117885209D01*
X167189786Y-117734890D01*
X167017820Y-117609951D01*
X166828414Y-117513444D01*
X166828413Y-117513443D01*
X166828412Y-117513443D01*
X166626243Y-117447754D01*
X166626241Y-117447753D01*
X166626240Y-117447753D01*
X166435777Y-117417587D01*
X166416287Y-117414500D01*
X166203713Y-117414500D01*
X166184223Y-117417587D01*
X165993760Y-117447753D01*
X165791585Y-117513444D01*
X165602179Y-117609951D01*
X165430213Y-117734890D01*
X165279894Y-117885209D01*
X165279890Y-117885214D01*
X165160318Y-118049793D01*
X165104989Y-118092459D01*
X165035375Y-118098438D01*
X164973580Y-118065833D01*
X164959682Y-118049793D01*
X164840109Y-117885214D01*
X164840105Y-117885209D01*
X164689786Y-117734890D01*
X164517820Y-117609951D01*
X164328414Y-117513444D01*
X164328413Y-117513443D01*
X164328412Y-117513443D01*
X164126243Y-117447754D01*
X164126241Y-117447753D01*
X164126240Y-117447753D01*
X163935777Y-117417587D01*
X163916287Y-117414500D01*
X163703713Y-117414500D01*
X163684223Y-117417587D01*
X163493760Y-117447753D01*
X163291585Y-117513444D01*
X163102179Y-117609951D01*
X162930213Y-117734890D01*
X162779894Y-117885209D01*
X162779890Y-117885214D01*
X162660318Y-118049793D01*
X162604989Y-118092459D01*
X162535375Y-118098438D01*
X162473580Y-118065833D01*
X162459682Y-118049793D01*
X162340109Y-117885214D01*
X162340105Y-117885209D01*
X162189786Y-117734890D01*
X162017820Y-117609951D01*
X161828414Y-117513444D01*
X161828413Y-117513443D01*
X161828412Y-117513443D01*
X161626243Y-117447754D01*
X161626241Y-117447753D01*
X161626240Y-117447753D01*
X161435777Y-117417587D01*
X161416287Y-117414500D01*
X161203713Y-117414500D01*
X161184223Y-117417587D01*
X160993760Y-117447753D01*
X160791585Y-117513444D01*
X160602179Y-117609951D01*
X160430213Y-117734890D01*
X160279894Y-117885209D01*
X160279890Y-117885214D01*
X160160318Y-118049793D01*
X160104989Y-118092459D01*
X160035375Y-118098438D01*
X159973580Y-118065833D01*
X159959682Y-118049793D01*
X159840109Y-117885214D01*
X159840105Y-117885209D01*
X159689786Y-117734890D01*
X159517820Y-117609951D01*
X159328414Y-117513444D01*
X159328413Y-117513443D01*
X159328412Y-117513443D01*
X159126243Y-117447754D01*
X159126241Y-117447753D01*
X159126240Y-117447753D01*
X158935777Y-117417587D01*
X158916287Y-117414500D01*
X158703713Y-117414500D01*
X158684223Y-117417587D01*
X158493760Y-117447753D01*
X158291585Y-117513444D01*
X158102179Y-117609951D01*
X157930213Y-117734890D01*
X157779894Y-117885209D01*
X157779890Y-117885214D01*
X157660318Y-118049793D01*
X157604989Y-118092459D01*
X157535375Y-118098438D01*
X157473580Y-118065833D01*
X157459682Y-118049793D01*
X157340109Y-117885214D01*
X157340105Y-117885209D01*
X157189786Y-117734890D01*
X157017820Y-117609951D01*
X156828414Y-117513444D01*
X156828413Y-117513443D01*
X156828412Y-117513443D01*
X156626243Y-117447754D01*
X156626241Y-117447753D01*
X156626240Y-117447753D01*
X156435777Y-117417587D01*
X156416287Y-117414500D01*
X156203713Y-117414500D01*
X156184223Y-117417587D01*
X155993760Y-117447753D01*
X155791585Y-117513444D01*
X155602179Y-117609951D01*
X155430215Y-117734889D01*
X155291035Y-117874069D01*
X155229712Y-117907553D01*
X155160020Y-117902569D01*
X155104087Y-117860697D01*
X155097815Y-117851484D01*
X155002315Y-117696654D01*
X154878345Y-117572684D01*
X154729124Y-117480643D01*
X154729119Y-117480641D01*
X154562697Y-117425494D01*
X154562690Y-117425493D01*
X154459986Y-117415000D01*
X154060000Y-117415000D01*
X154060000Y-118485854D01*
X153993343Y-118447370D01*
X153872535Y-118415000D01*
X153747465Y-118415000D01*
X153626657Y-118447370D01*
X153560000Y-118485854D01*
X153560000Y-117415000D01*
X153160028Y-117415000D01*
X153160012Y-117415001D01*
X153057302Y-117425494D01*
X152890880Y-117480641D01*
X152890875Y-117480643D01*
X152741654Y-117572684D01*
X152617684Y-117696654D01*
X152525643Y-117845875D01*
X152525641Y-117845880D01*
X152470494Y-118012302D01*
X152470493Y-118012309D01*
X152460000Y-118115013D01*
X152460000Y-118640000D01*
X153405854Y-118640000D01*
X153367370Y-118706657D01*
X153335000Y-118827465D01*
X153335000Y-118952535D01*
X153367370Y-119073343D01*
X153405854Y-119140000D01*
X152460001Y-119140000D01*
X152460001Y-119664986D01*
X152470494Y-119767697D01*
X152525641Y-119934119D01*
X152525643Y-119934124D01*
X152617684Y-120083345D01*
X152741654Y-120207315D01*
X152890875Y-120299356D01*
X152890880Y-120299358D01*
X153057302Y-120354505D01*
X153057309Y-120354506D01*
X153160019Y-120364999D01*
X153559999Y-120364999D01*
X153560000Y-120364998D01*
X153560000Y-119294145D01*
X153626657Y-119332630D01*
X153747465Y-119365000D01*
X153872535Y-119365000D01*
X153993343Y-119332630D01*
X154060000Y-119294145D01*
X154060000Y-120364999D01*
X154459972Y-120364999D01*
X154459986Y-120364998D01*
X154562697Y-120354505D01*
X154729119Y-120299358D01*
X154729124Y-120299356D01*
X154878345Y-120207315D01*
X155002317Y-120083343D01*
X155097815Y-119928516D01*
X155149763Y-119881791D01*
X155218725Y-119870568D01*
X155282808Y-119898412D01*
X155291035Y-119905931D01*
X155430213Y-120045109D01*
X155602179Y-120170048D01*
X155602181Y-120170049D01*
X155602184Y-120170051D01*
X155791588Y-120266557D01*
X155993757Y-120332246D01*
X156203713Y-120365500D01*
X156203714Y-120365500D01*
X156416286Y-120365500D01*
X156416287Y-120365500D01*
X156626243Y-120332246D01*
X156828412Y-120266557D01*
X157017816Y-120170051D01*
X157072131Y-120130589D01*
X157189786Y-120045109D01*
X157189788Y-120045106D01*
X157189792Y-120045104D01*
X157340104Y-119894792D01*
X157459683Y-119730204D01*
X157515011Y-119687540D01*
X157584624Y-119681561D01*
X157646420Y-119714166D01*
X157660313Y-119730199D01*
X157739502Y-119839194D01*
X157779896Y-119894792D01*
X157930213Y-120045109D01*
X158102179Y-120170048D01*
X158102181Y-120170049D01*
X158102184Y-120170051D01*
X158291588Y-120266557D01*
X158493757Y-120332246D01*
X158703713Y-120365500D01*
X158703714Y-120365500D01*
X158916286Y-120365500D01*
X158916287Y-120365500D01*
X159126243Y-120332246D01*
X159328412Y-120266557D01*
X159517816Y-120170051D01*
X159572131Y-120130589D01*
X159689786Y-120045109D01*
X159689788Y-120045106D01*
X159689792Y-120045104D01*
X159840104Y-119894792D01*
X159959683Y-119730204D01*
X160015011Y-119687540D01*
X160084624Y-119681561D01*
X160146420Y-119714166D01*
X160160313Y-119730199D01*
X160239502Y-119839194D01*
X160279896Y-119894792D01*
X160430213Y-120045109D01*
X160602179Y-120170048D01*
X160602181Y-120170049D01*
X160602184Y-120170051D01*
X160791588Y-120266557D01*
X160993757Y-120332246D01*
X161203713Y-120365500D01*
X161203714Y-120365500D01*
X161416286Y-120365500D01*
X161416287Y-120365500D01*
X161626243Y-120332246D01*
X161828412Y-120266557D01*
X162017816Y-120170051D01*
X162072131Y-120130589D01*
X162189786Y-120045109D01*
X162189788Y-120045106D01*
X162189792Y-120045104D01*
X162340104Y-119894792D01*
X162459683Y-119730204D01*
X162515011Y-119687540D01*
X162584624Y-119681561D01*
X162646420Y-119714166D01*
X162660313Y-119730199D01*
X162739502Y-119839194D01*
X162779896Y-119894792D01*
X162930213Y-120045109D01*
X163102179Y-120170048D01*
X163102181Y-120170049D01*
X163102184Y-120170051D01*
X163291588Y-120266557D01*
X163493757Y-120332246D01*
X163703713Y-120365500D01*
X163703714Y-120365500D01*
X163916286Y-120365500D01*
X163916287Y-120365500D01*
X164126243Y-120332246D01*
X164328412Y-120266557D01*
X164517816Y-120170051D01*
X164572131Y-120130589D01*
X164689786Y-120045109D01*
X164689788Y-120045106D01*
X164689792Y-120045104D01*
X164840104Y-119894792D01*
X164959683Y-119730204D01*
X165015011Y-119687540D01*
X165084624Y-119681561D01*
X165146420Y-119714166D01*
X165160313Y-119730199D01*
X165239502Y-119839194D01*
X165279896Y-119894792D01*
X165430213Y-120045109D01*
X165602179Y-120170048D01*
X165602181Y-120170049D01*
X165602184Y-120170051D01*
X165791588Y-120266557D01*
X165993757Y-120332246D01*
X166203713Y-120365500D01*
X166203714Y-120365500D01*
X166416286Y-120365500D01*
X166416287Y-120365500D01*
X166626243Y-120332246D01*
X166828412Y-120266557D01*
X167017816Y-120170051D01*
X167072131Y-120130589D01*
X167189786Y-120045109D01*
X167189788Y-120045106D01*
X167189792Y-120045104D01*
X167340104Y-119894792D01*
X167459683Y-119730204D01*
X167515011Y-119687540D01*
X167584624Y-119681561D01*
X167646420Y-119714166D01*
X167660313Y-119730199D01*
X167739502Y-119839194D01*
X167779896Y-119894792D01*
X167930213Y-120045109D01*
X168102179Y-120170048D01*
X168102181Y-120170049D01*
X168102184Y-120170051D01*
X168130222Y-120184337D01*
X168291583Y-120266555D01*
X168291585Y-120266555D01*
X168291588Y-120266557D01*
X168392539Y-120299358D01*
X168493756Y-120332246D01*
X168521262Y-120336602D01*
X168588164Y-120347198D01*
X168651298Y-120377127D01*
X168688230Y-120436438D01*
X168692765Y-120469270D01*
X168698924Y-122375099D01*
X168679457Y-122442202D01*
X168626801Y-122488127D01*
X168574925Y-122499500D01*
X151485772Y-122499500D01*
X151418733Y-122479815D01*
X151372978Y-122427011D01*
X151363001Y-122363521D01*
X151362647Y-122363505D01*
X151362725Y-122361767D01*
X151362615Y-122361063D01*
X151362848Y-122359079D01*
X151202184Y-116202733D01*
X151220113Y-116135205D01*
X151271705Y-116088088D01*
X151326142Y-116075500D01*
X163757054Y-116075500D01*
X163757055Y-116075500D01*
X163862397Y-116064402D01*
X163912944Y-116053632D01*
X164013662Y-116020825D01*
X164135361Y-115944073D01*
X164175185Y-115910155D01*
X164182733Y-115905372D01*
X164188549Y-115898773D01*
X164188553Y-115898771D01*
X164188554Y-115898771D01*
X164283700Y-115790841D01*
X164344585Y-115660478D01*
X164364841Y-115593609D01*
X164386532Y-115451376D01*
X164387144Y-115379714D01*
X164387144Y-115379712D01*
X164387149Y-115379185D01*
X164387149Y-115379126D01*
X164413345Y-112310554D01*
X164417771Y-111792130D01*
X164471222Y-105530718D01*
X164491478Y-105463853D01*
X164544670Y-105418550D01*
X164569432Y-105410491D01*
X164744267Y-105373329D01*
X164907593Y-105300612D01*
X165052230Y-105195526D01*
X165171859Y-105062665D01*
X165261250Y-104907835D01*
X165316497Y-104737803D01*
X165335185Y-104560000D01*
X165316497Y-104382197D01*
X165261250Y-104212165D01*
X165171859Y-104057335D01*
X165090548Y-103967030D01*
X165052235Y-103924478D01*
X165052232Y-103924476D01*
X165052231Y-103924475D01*
X165052230Y-103924474D01*
X164907593Y-103819388D01*
X164744267Y-103746671D01*
X164744265Y-103746670D01*
X164595737Y-103715100D01*
X164569391Y-103709500D01*
X164390609Y-103709500D01*
X164339248Y-103720417D01*
X164269581Y-103715100D01*
X164213848Y-103672962D01*
X164190149Y-103612090D01*
X164176497Y-103482197D01*
X164176495Y-103482191D01*
X164175145Y-103475838D01*
X164177546Y-103475327D01*
X164175846Y-103416579D01*
X164211903Y-103356732D01*
X164229638Y-103343171D01*
X164243006Y-103334741D01*
X164282830Y-103300823D01*
X164290378Y-103296040D01*
X164296194Y-103289441D01*
X164296198Y-103289439D01*
X164296199Y-103289439D01*
X164391345Y-103181509D01*
X164452230Y-103051146D01*
X164472486Y-102984277D01*
X164494177Y-102842042D01*
X164604419Y-89928768D01*
X164593594Y-89820315D01*
X164582642Y-89768293D01*
X164548819Y-89664676D01*
X164471621Y-89543259D01*
X164426123Y-89490233D01*
X164386630Y-89455675D01*
X164317846Y-89395485D01*
X164187267Y-89335082D01*
X164187262Y-89335080D01*
X164125669Y-89316668D01*
X164123718Y-89315988D01*
X164120314Y-89315067D01*
X163978000Y-89293901D01*
X157922660Y-89264507D01*
X157922551Y-89264506D01*
X157921169Y-89264501D01*
X157921169Y-89264502D01*
X157920449Y-89264501D01*
X157920449Y-89264500D01*
X157919604Y-89264500D01*
X150326253Y-89264500D01*
X150259214Y-89244815D01*
X150213459Y-89192011D01*
X150202341Y-89145163D01*
X150111448Y-86730000D01*
X156374815Y-86730000D01*
X156393503Y-86907805D01*
X156393504Y-86907807D01*
X156448747Y-87077829D01*
X156448751Y-87077837D01*
X156469053Y-87113002D01*
X156485524Y-87180902D01*
X156469053Y-87236998D01*
X156448751Y-87272162D01*
X156448747Y-87272170D01*
X156393504Y-87442192D01*
X156393503Y-87442194D01*
X156374815Y-87620000D01*
X156393503Y-87797805D01*
X156393504Y-87797807D01*
X156448747Y-87967829D01*
X156448750Y-87967835D01*
X156538141Y-88122665D01*
X156579812Y-88168946D01*
X156657764Y-88255521D01*
X156657767Y-88255523D01*
X156657770Y-88255526D01*
X156802407Y-88360612D01*
X156965733Y-88433329D01*
X157140609Y-88470500D01*
X157140610Y-88470500D01*
X157319389Y-88470500D01*
X157319391Y-88470500D01*
X157494267Y-88433329D01*
X157657593Y-88360612D01*
X157802230Y-88255526D01*
X157921859Y-88122665D01*
X158011250Y-87967835D01*
X158066497Y-87797803D01*
X158085185Y-87620000D01*
X158066497Y-87442197D01*
X158011250Y-87272165D01*
X158011250Y-87272164D01*
X157990948Y-87237001D01*
X157974474Y-87169101D01*
X157990948Y-87112999D01*
X158011250Y-87077835D01*
X158030444Y-87018762D01*
X158066497Y-86907803D01*
X158085185Y-86730000D01*
X158066497Y-86552197D01*
X158021766Y-86414530D01*
X158011252Y-86382170D01*
X158011249Y-86382164D01*
X157978908Y-86326147D01*
X162310827Y-86326147D01*
X162329515Y-86503952D01*
X162329516Y-86503954D01*
X162384759Y-86673976D01*
X162384762Y-86673982D01*
X162474153Y-86828812D01*
X162515824Y-86875093D01*
X162593776Y-86961668D01*
X162593779Y-86961670D01*
X162593782Y-86961673D01*
X162738419Y-87066759D01*
X162901745Y-87139476D01*
X163076621Y-87176647D01*
X163076622Y-87176647D01*
X163255401Y-87176647D01*
X163255403Y-87176647D01*
X163430279Y-87139476D01*
X163506144Y-87105698D01*
X163575388Y-87096413D01*
X163629464Y-87118662D01*
X163636606Y-87123851D01*
X163799932Y-87196568D01*
X163974808Y-87233739D01*
X163974809Y-87233739D01*
X164153588Y-87233739D01*
X164153590Y-87233739D01*
X164328466Y-87196568D01*
X164491792Y-87123851D01*
X164636429Y-87018765D01*
X164652094Y-87001368D01*
X164687835Y-86961673D01*
X164756058Y-86885904D01*
X164845449Y-86731074D01*
X164900696Y-86561042D01*
X164919384Y-86383239D01*
X164900696Y-86205436D01*
X164873072Y-86120420D01*
X164845451Y-86035409D01*
X164845448Y-86035403D01*
X164818882Y-85989389D01*
X164756058Y-85880574D01*
X164704652Y-85823482D01*
X164636434Y-85747717D01*
X164636431Y-85747715D01*
X164636430Y-85747714D01*
X164636429Y-85747713D01*
X164491792Y-85642627D01*
X164328466Y-85569910D01*
X164328464Y-85569909D01*
X164200793Y-85542772D01*
X164153590Y-85532739D01*
X163974808Y-85532739D01*
X163937638Y-85540639D01*
X163799933Y-85569909D01*
X163799928Y-85569911D01*
X163724067Y-85603686D01*
X163654817Y-85612970D01*
X163600748Y-85590725D01*
X163593606Y-85585536D01*
X163593605Y-85585535D01*
X163430279Y-85512818D01*
X163430277Y-85512817D01*
X163302606Y-85485680D01*
X163255403Y-85475647D01*
X163076621Y-85475647D01*
X163045966Y-85482162D01*
X162901745Y-85512817D01*
X162901740Y-85512819D01*
X162738420Y-85585534D01*
X162593780Y-85690622D01*
X162474152Y-85823483D01*
X162384762Y-85978311D01*
X162384759Y-85978317D01*
X162329516Y-86148339D01*
X162329515Y-86148341D01*
X162310827Y-86326147D01*
X157978908Y-86326147D01*
X157921859Y-86227335D01*
X157850735Y-86148344D01*
X157802235Y-86094478D01*
X157802232Y-86094476D01*
X157802231Y-86094475D01*
X157802230Y-86094474D01*
X157657593Y-85989388D01*
X157494267Y-85916671D01*
X157494265Y-85916670D01*
X157324448Y-85880575D01*
X157319391Y-85879500D01*
X157140609Y-85879500D01*
X157135552Y-85880575D01*
X156965733Y-85916670D01*
X156965728Y-85916672D01*
X156802408Y-85989387D01*
X156657768Y-86094475D01*
X156538140Y-86227336D01*
X156448750Y-86382164D01*
X156448747Y-86382170D01*
X156393504Y-86552192D01*
X156393503Y-86552194D01*
X156374815Y-86730000D01*
X150111448Y-86730000D01*
X150045906Y-84988460D01*
X149759587Y-77380568D01*
X149776736Y-77312838D01*
X149827782Y-77265130D01*
X149882813Y-77251909D01*
X159891187Y-77196766D01*
X159958331Y-77216081D01*
G37*
%TD.AperFunction*%
%TD*%
%TA.AperFunction,Conductor*%
%TO.N,+BATT*%
G36*
X172071116Y-71080421D02*
G01*
X172117672Y-71132520D01*
X172118767Y-71134890D01*
X175053077Y-77659767D01*
X175297598Y-78203497D01*
X175372945Y-78371042D01*
X175780142Y-79276505D01*
X175783590Y-79284171D01*
X175794500Y-79335029D01*
X175794500Y-83203499D01*
X175794500Y-97953499D01*
X175794500Y-102953499D01*
X175794500Y-117643807D01*
X175803285Y-117715117D01*
X175806875Y-117744267D01*
X175809613Y-117766488D01*
X175824220Y-117824876D01*
X175868656Y-117940224D01*
X175953779Y-118056220D01*
X175953779Y-118056221D01*
X176002706Y-118106088D01*
X176002722Y-118106101D01*
X176117057Y-118193402D01*
X176117063Y-118193406D01*
X176222953Y-118234055D01*
X176278485Y-118276457D01*
X176302277Y-118342152D01*
X176302514Y-118349873D01*
X176302293Y-118846607D01*
X176302123Y-118853041D01*
X176294422Y-118999997D01*
X176294422Y-119000002D01*
X176301987Y-119144373D01*
X176302157Y-119150917D01*
X176301935Y-119649865D01*
X176282221Y-119716896D01*
X176229396Y-119762627D01*
X176212872Y-119768787D01*
X176162495Y-119783579D01*
X176162492Y-119783581D01*
X176041462Y-119861363D01*
X176041451Y-119861371D01*
X175988659Y-119907115D01*
X175894433Y-120015856D01*
X175894430Y-120015860D01*
X175834664Y-120146726D01*
X175814976Y-120213774D01*
X175794500Y-120356193D01*
X175794500Y-122375500D01*
X175774815Y-122442539D01*
X175722011Y-122488294D01*
X175670500Y-122499500D01*
X169328429Y-122499500D01*
X169261390Y-122479815D01*
X169215635Y-122427011D01*
X169204430Y-122375901D01*
X169198043Y-120399409D01*
X169217510Y-120332306D01*
X169270166Y-120286381D01*
X169283725Y-120281077D01*
X169328406Y-120266559D01*
X169328412Y-120266557D01*
X169328416Y-120266555D01*
X169517816Y-120170051D01*
X169552176Y-120145087D01*
X169689786Y-120045109D01*
X169689788Y-120045106D01*
X169689792Y-120045104D01*
X169840104Y-119894792D01*
X169959683Y-119730204D01*
X170015011Y-119687540D01*
X170084624Y-119681561D01*
X170146420Y-119714166D01*
X170160313Y-119730199D01*
X170279892Y-119894786D01*
X170279896Y-119894792D01*
X170430213Y-120045109D01*
X170602179Y-120170048D01*
X170602181Y-120170049D01*
X170602184Y-120170051D01*
X170791588Y-120266557D01*
X170993757Y-120332246D01*
X171203713Y-120365500D01*
X171203714Y-120365500D01*
X171416286Y-120365500D01*
X171416287Y-120365500D01*
X171626243Y-120332246D01*
X171828412Y-120266557D01*
X172017816Y-120170051D01*
X172052176Y-120145087D01*
X172189786Y-120045109D01*
X172189788Y-120045106D01*
X172189792Y-120045104D01*
X172340104Y-119894792D01*
X172340106Y-119894788D01*
X172340109Y-119894786D01*
X172465048Y-119722820D01*
X172465047Y-119722820D01*
X172465051Y-119722816D01*
X172561557Y-119533412D01*
X172627246Y-119331243D01*
X172660500Y-119121287D01*
X172660500Y-118658713D01*
X172627246Y-118448757D01*
X172561557Y-118246588D01*
X172465051Y-118057184D01*
X172465049Y-118057181D01*
X172465048Y-118057179D01*
X172340109Y-117885213D01*
X172189786Y-117734890D01*
X172017820Y-117609951D01*
X171828414Y-117513444D01*
X171828413Y-117513443D01*
X171828412Y-117513443D01*
X171626243Y-117447754D01*
X171626241Y-117447753D01*
X171626240Y-117447753D01*
X171464957Y-117422208D01*
X171416287Y-117414500D01*
X171203713Y-117414500D01*
X171155042Y-117422208D01*
X170993760Y-117447753D01*
X170791585Y-117513444D01*
X170602179Y-117609951D01*
X170430213Y-117734890D01*
X170279894Y-117885209D01*
X170279890Y-117885214D01*
X170160318Y-118049793D01*
X170104989Y-118092459D01*
X170035375Y-118098438D01*
X169973580Y-118065833D01*
X169959682Y-118049793D01*
X169840109Y-117885214D01*
X169840105Y-117885209D01*
X169689786Y-117734890D01*
X169517820Y-117609951D01*
X169328416Y-117513444D01*
X169300545Y-117504388D01*
X169273960Y-117495750D01*
X169216286Y-117456313D01*
X169189088Y-117391954D01*
X169188281Y-117378237D01*
X169150056Y-105547479D01*
X169169524Y-105480378D01*
X169222179Y-105434453D01*
X169291305Y-105424286D01*
X169324485Y-105433798D01*
X169435733Y-105483329D01*
X169610609Y-105520500D01*
X169610610Y-105520500D01*
X169789389Y-105520500D01*
X169789391Y-105520500D01*
X169964267Y-105483329D01*
X170127593Y-105410612D01*
X170272230Y-105305526D01*
X170391859Y-105172665D01*
X170481250Y-105017835D01*
X170536497Y-104847803D01*
X170555185Y-104670000D01*
X170536497Y-104492197D01*
X170481250Y-104322165D01*
X170391859Y-104167335D01*
X170345003Y-104115296D01*
X170272235Y-104034478D01*
X170272232Y-104034476D01*
X170272231Y-104034475D01*
X170272230Y-104034474D01*
X170127593Y-103929388D01*
X169964267Y-103856671D01*
X169964265Y-103856670D01*
X169835209Y-103829239D01*
X169789391Y-103819500D01*
X169610609Y-103819500D01*
X169579954Y-103826015D01*
X169435733Y-103856670D01*
X169435732Y-103856670D01*
X169318830Y-103908719D01*
X169249580Y-103918003D01*
X169186304Y-103888374D01*
X169149091Y-103829239D01*
X169144396Y-103795846D01*
X169090000Y-86960000D01*
X166199424Y-83650500D01*
X165456582Y-82800000D01*
X166814815Y-82800000D01*
X166833503Y-82977805D01*
X166833504Y-82977807D01*
X166888747Y-83147829D01*
X166888750Y-83147835D01*
X166978141Y-83302665D01*
X166988054Y-83313674D01*
X167097764Y-83435521D01*
X167097767Y-83435523D01*
X167097770Y-83435526D01*
X167242407Y-83540612D01*
X167405733Y-83613329D01*
X167580609Y-83650500D01*
X167580610Y-83650500D01*
X167759389Y-83650500D01*
X167759391Y-83650500D01*
X167934267Y-83613329D01*
X168097593Y-83540612D01*
X168242230Y-83435526D01*
X168248593Y-83428460D01*
X168275372Y-83398718D01*
X168361859Y-83302665D01*
X168451250Y-83147835D01*
X168506497Y-82977803D01*
X168525185Y-82800000D01*
X168506497Y-82622197D01*
X168464052Y-82491564D01*
X168451252Y-82452170D01*
X168451249Y-82452164D01*
X168422935Y-82403122D01*
X168406462Y-82335221D01*
X168429315Y-82269195D01*
X168457434Y-82240806D01*
X168492230Y-82215526D01*
X168611859Y-82082665D01*
X168701250Y-81927835D01*
X168756497Y-81757803D01*
X168775185Y-81580000D01*
X168756497Y-81402197D01*
X168720757Y-81292201D01*
X168701252Y-81232170D01*
X168701249Y-81232164D01*
X168611859Y-81077335D01*
X168565003Y-81025296D01*
X168492235Y-80944478D01*
X168492232Y-80944476D01*
X168492231Y-80944475D01*
X168492230Y-80944474D01*
X168347593Y-80839388D01*
X168184267Y-80766671D01*
X168184265Y-80766670D01*
X168056594Y-80739533D01*
X168009391Y-80729500D01*
X167830609Y-80729500D01*
X167799954Y-80736015D01*
X167655733Y-80766670D01*
X167655728Y-80766672D01*
X167492408Y-80839387D01*
X167347768Y-80944475D01*
X167228140Y-81077336D01*
X167138750Y-81232164D01*
X167138747Y-81232170D01*
X167083504Y-81402192D01*
X167083503Y-81402194D01*
X167064815Y-81580000D01*
X167083503Y-81757805D01*
X167083504Y-81757807D01*
X167138750Y-81927836D01*
X167167064Y-81976877D01*
X167183537Y-82044777D01*
X167160685Y-82110804D01*
X167132564Y-82139194D01*
X167097769Y-82164474D01*
X167097764Y-82164478D01*
X166978140Y-82297336D01*
X166888750Y-82452164D01*
X166888747Y-82452170D01*
X166833504Y-82622192D01*
X166833503Y-82622194D01*
X166814815Y-82800000D01*
X165456582Y-82800000D01*
X160489089Y-77112579D01*
X160459815Y-77049138D01*
X160469486Y-76979941D01*
X160488900Y-76949654D01*
X160525203Y-76907902D01*
X160585193Y-76777124D01*
X160604990Y-76710118D01*
X160604990Y-76710116D01*
X160625705Y-76567735D01*
X160631205Y-73284085D01*
X160631205Y-73284082D01*
X160631205Y-73284080D01*
X160613897Y-73152097D01*
X160613896Y-73152087D01*
X160597098Y-73089559D01*
X160597097Y-73089558D01*
X160597096Y-73089552D01*
X160597095Y-73089551D01*
X160553611Y-72985109D01*
X160545928Y-72966656D01*
X160501289Y-72910240D01*
X160456653Y-72853826D01*
X160456651Y-72853824D01*
X160405938Y-72805757D01*
X160405615Y-72805529D01*
X160345204Y-72762782D01*
X160288488Y-72722649D01*
X160288486Y-72722648D01*
X160280592Y-72718608D01*
X160281968Y-72715917D01*
X160237259Y-72684282D01*
X160211096Y-72619495D01*
X160210499Y-72607357D01*
X160210499Y-71364007D01*
X160230184Y-71296969D01*
X160282988Y-71251214D01*
X160332604Y-71240022D01*
X163866057Y-71186053D01*
X163933388Y-71204712D01*
X163979944Y-71256811D01*
X163990942Y-71325810D01*
X163985881Y-71348354D01*
X163972753Y-71388758D01*
X163972753Y-71388759D01*
X163939500Y-71598713D01*
X163939500Y-72061286D01*
X163964257Y-72217600D01*
X163972754Y-72271243D01*
X163997042Y-72345994D01*
X164038444Y-72473414D01*
X164134951Y-72662820D01*
X164259890Y-72834786D01*
X164410213Y-72985109D01*
X164582179Y-73110048D01*
X164582181Y-73110049D01*
X164582184Y-73110051D01*
X164771588Y-73206557D01*
X164973757Y-73272246D01*
X165183713Y-73305500D01*
X165183714Y-73305500D01*
X165396286Y-73305500D01*
X165396287Y-73305500D01*
X165606243Y-73272246D01*
X165808412Y-73206557D01*
X165997816Y-73110051D01*
X166026032Y-73089551D01*
X166169786Y-72985109D01*
X166169788Y-72985106D01*
X166169792Y-72985104D01*
X166320104Y-72834792D01*
X166439991Y-72669779D01*
X166495320Y-72627115D01*
X166564933Y-72621136D01*
X166626729Y-72653741D01*
X166640627Y-72669781D01*
X166760272Y-72834459D01*
X166760276Y-72834464D01*
X166910535Y-72984723D01*
X166910540Y-72984727D01*
X167082442Y-73109620D01*
X167271782Y-73206095D01*
X167473871Y-73271757D01*
X167540000Y-73282231D01*
X167540000Y-72234145D01*
X167606657Y-72272630D01*
X167727465Y-72305000D01*
X167852535Y-72305000D01*
X167973343Y-72272630D01*
X168040000Y-72234145D01*
X168040000Y-73282230D01*
X168106126Y-73271757D01*
X168106129Y-73271757D01*
X168308217Y-73206095D01*
X168497557Y-73109620D01*
X168669458Y-72984728D01*
X168808330Y-72845856D01*
X168869653Y-72812371D01*
X168939345Y-72817355D01*
X168995279Y-72859226D01*
X169001551Y-72868440D01*
X169005185Y-72874331D01*
X169005186Y-72874334D01*
X169097288Y-73023656D01*
X169221344Y-73147712D01*
X169370666Y-73239814D01*
X169537203Y-73294999D01*
X169639991Y-73305500D01*
X170940008Y-73305499D01*
X171042797Y-73294999D01*
X171209334Y-73239814D01*
X171358656Y-73147712D01*
X171482712Y-73023656D01*
X171574814Y-72874334D01*
X171629999Y-72707797D01*
X171640500Y-72605009D01*
X171640499Y-71189430D01*
X171660184Y-71122392D01*
X171712987Y-71076637D01*
X171762604Y-71065445D01*
X172003784Y-71061762D01*
X172071116Y-71080421D01*
G37*
%TD.AperFunction*%
%TD*%
M02*
