M48
; DRILL file {KiCad 8.0.5} date 2024-10-08T13:01:32+0200
; FORMAT={-:-/ absolute / inch / decimal}
; #@! TF.CreationDate,2024-10-08T13:01:32+02:00
; #@! TF.GenerationSoftware,Kicad,Pcbnew,8.0.5
; #@! TF.FileFunction,Plated,1,4,PTH
FMAT,2
INCH
; #@! TA.AperFunction,Plated,PTH,ViaDrill
T1C0.0118
; #@! TA.AperFunction,Plated,PTH,ComponentDrill
T2C0.0197
; #@! TA.AperFunction,Plated,PTH,ComponentDrill
T3C0.0374
; #@! TA.AperFunction,Plated,PTH,ComponentDrill
T4C0.0394
; #@! TA.AperFunction,Plated,PTH,ComponentDrill
T5C0.1260
%
G90
G05
T1
X5.3492Y-3.3024
X5.463Y-3.4335
X5.4713Y-3.6323
X5.6094Y-3.1079
X5.6409Y-3.2106
X5.6531Y-3.702
X5.7043Y-3.1315
X5.8047Y-2.6598
X5.8228Y-3.7874
X5.9516Y-4.0071
X5.9642Y-4.2382
X6.0488Y-2.9724
X6.1193Y-3.9055
X6.1323Y-3.1386
X6.1429Y-3.8752
X6.1563Y-4.1945
X6.1575Y-4.0016
X6.1902Y-3.4146
X6.1902Y-3.4496
X6.2323Y-4.3886
X6.3173Y-4.4327
X6.3404Y-4.1955
X6.3409Y-3.778
X6.3744Y-4.0957
X6.3929Y-4.2248
X6.4239Y-3.3987
X6.4272Y-3.2272
X6.4307Y-4.0811
X6.4592Y-3.4009
X6.4756Y-4.1165
X6.5374Y-3.5118
X6.5528Y-3.6791
X6.5677Y-3.1752
X6.5756Y-3.7862
X6.6012Y-3.2598
X6.611Y-3.2118
X6.6811Y-4.1209
X6.8091Y-4.328
X6.8185Y-3.5839
X6.8378Y-4.0299
X6.8457Y-3.2811
T2
X5.1811Y-4.685
X5.1866Y-2.7496
X5.2088Y-4.6182
X5.2088Y-4.7519
X5.2143Y-2.6828
X5.2143Y-2.8164
X5.2756Y-4.5906
X5.2756Y-4.7795
X5.2811Y-2.6551
X5.2811Y-2.8441
X5.3424Y-4.6182
X5.3424Y-4.7519
X5.3479Y-2.6828
X5.3479Y-2.8164
X5.3701Y-4.685
X5.3756Y-2.7496
X6.9921Y-2.7559
X6.9921Y-4.685
X7.0198Y-2.6891
X7.0198Y-2.8227
X7.0198Y-4.6182
X7.0198Y-4.7519
X7.0866Y-2.6614
X7.0866Y-2.8504
X7.0866Y-4.5906
X7.0866Y-4.7795
X7.1534Y-2.6891
X7.1534Y-2.8227
X7.1534Y-4.6182
X7.1534Y-4.7519
X7.1811Y-2.7559
X7.1811Y-4.685
T3
X5.2161Y-4.1138
X5.2161Y-4.2122
X5.2161Y-4.3106
X5.2161Y-4.4091
X5.2165Y-3.0201
X5.2165Y-3.1185
X5.2165Y-3.2169
X5.2165Y-3.3154
X5.2177Y-3.578
X5.2177Y-3.6764
X5.2177Y-3.7748
X5.2177Y-3.8732
X6.0555Y-4.6807
X6.1539Y-4.6807
X6.2524Y-4.6807
X6.3508Y-4.6807
X6.4492Y-4.6807
X6.5075Y-2.828
X6.5476Y-4.6807
X6.6059Y-2.828
X6.6461Y-4.6807
X6.7043Y-2.828
X6.7445Y-4.6807
X7.1433Y-3.8591
X7.1433Y-3.9575
X7.1433Y-4.0559
X7.1433Y-4.1543
X7.1433Y-4.2528
X7.1433Y-4.3512
X7.1472Y-3.0815
X7.1472Y-3.1799
X7.1472Y-3.2783
X7.1472Y-3.3768
X7.1472Y-3.4752
X7.1472Y-3.5736
T4
X6.1559Y-2.8283
X6.2543Y-2.8283
T5
X5.2756Y-4.685
X5.2811Y-2.7496
X7.0866Y-2.7559
X7.0866Y-4.685
M30
