%TF.GenerationSoftware,KiCad,Pcbnew,8.0.5*%
%TF.CreationDate,2024-10-08T13:01:26+02:00*%
%TF.ProjectId,ESE_AL8,4553455f-414c-4382-9e6b-696361645f70,rev?*%
%TF.SameCoordinates,Original*%
%TF.FileFunction,Copper,L2,Inr*%
%TF.FilePolarity,Positive*%
%FSLAX46Y46*%
G04 Gerber Fmt 4.6, Leading zero omitted, Abs format (unit mm)*
G04 Created by KiCad (PCBNEW 8.0.5) date 2024-10-08 13:01:26*
%MOMM*%
%LPD*%
G01*
G04 APERTURE LIST*
G04 Aperture macros list*
%AMRoundRect*
0 Rectangle with rounded corners*
0 $1 Rounding radius*
0 $2 $3 $4 $5 $6 $7 $8 $9 X,Y pos of 4 corners*
0 Add a 4 corners polygon primitive as box body*
4,1,4,$2,$3,$4,$5,$6,$7,$8,$9,$2,$3,0*
0 Add four circle primitives for the rounded corners*
1,1,$1+$1,$2,$3*
1,1,$1+$1,$4,$5*
1,1,$1+$1,$6,$7*
1,1,$1+$1,$8,$9*
0 Add four rect primitives between the rounded corners*
20,1,$1+$1,$2,$3,$4,$5,0*
20,1,$1+$1,$4,$5,$6,$7,0*
20,1,$1+$1,$6,$7,$8,$9,0*
20,1,$1+$1,$8,$9,$2,$3,0*%
G04 Aperture macros list end*
%TA.AperFunction,ComponentPad*%
%ADD10C,0.800000*%
%TD*%
%TA.AperFunction,ComponentPad*%
%ADD11C,6.400000*%
%TD*%
%TA.AperFunction,ComponentPad*%
%ADD12RoundRect,0.250000X0.725000X-0.600000X0.725000X0.600000X-0.725000X0.600000X-0.725000X-0.600000X0*%
%TD*%
%TA.AperFunction,ComponentPad*%
%ADD13O,1.950000X1.700000*%
%TD*%
%TA.AperFunction,ComponentPad*%
%ADD14RoundRect,0.250000X-0.725000X0.600000X-0.725000X-0.600000X0.725000X-0.600000X0.725000X0.600000X0*%
%TD*%
%TA.AperFunction,ComponentPad*%
%ADD15RoundRect,0.250000X0.600000X0.725000X-0.600000X0.725000X-0.600000X-0.725000X0.600000X-0.725000X0*%
%TD*%
%TA.AperFunction,ComponentPad*%
%ADD16O,1.700000X1.950000*%
%TD*%
%TA.AperFunction,ComponentPad*%
%ADD17RoundRect,0.250000X-0.600000X-0.725000X0.600000X-0.725000X0.600000X0.725000X-0.600000X0.725000X0*%
%TD*%
%TA.AperFunction,ComponentPad*%
%ADD18RoundRect,0.250000X0.600000X0.750000X-0.600000X0.750000X-0.600000X-0.750000X0.600000X-0.750000X0*%
%TD*%
%TA.AperFunction,ComponentPad*%
%ADD19O,1.700000X2.000000*%
%TD*%
%TA.AperFunction,ViaPad*%
%ADD20C,0.700000*%
%TD*%
G04 APERTURE END LIST*
D10*
%TO.N,GND*%
%TO.C,H4*%
X131600000Y-119000000D03*
X132302944Y-117302944D03*
X132302944Y-120697056D03*
X134000000Y-116600000D03*
D11*
X134000000Y-119000000D03*
D10*
X134000000Y-121400000D03*
X135697056Y-117302944D03*
X135697056Y-120697056D03*
X136400000Y-119000000D03*
%TD*%
%TO.N,GND*%
%TO.C,H3*%
X177600000Y-119000000D03*
X178302944Y-117302944D03*
X178302944Y-120697056D03*
X180000000Y-116600000D03*
D11*
X180000000Y-119000000D03*
D10*
X180000000Y-121400000D03*
X181697056Y-117302944D03*
X181697056Y-120697056D03*
X182400000Y-119000000D03*
%TD*%
D12*
%TO.N,/Actionneur/MOTEUR1-*%
%TO.C,J4*%
X181540000Y-90770000D03*
D13*
%TO.N,GND*%
X181540000Y-88270000D03*
%TO.N,/SENSORS/PHASE_A1*%
X181540000Y-85770000D03*
%TO.N,/SENSORS/PHASE_B1*%
X181540000Y-83270000D03*
%TO.N,+3.3V*%
X181540000Y-80770000D03*
%TO.N,/Actionneur/MOTEUR1+*%
X181540000Y-78270000D03*
%TD*%
D14*
%TO.N,+3.3V*%
%TO.C,J1*%
X132530000Y-90880000D03*
D13*
%TO.N,GND*%
X132530000Y-93380000D03*
%TO.N,/SENSORS/CB_OUT1*%
X132530000Y-95880000D03*
%TO.N,/SENSORS/CB_IN*%
X132530000Y-98380000D03*
%TD*%
D12*
%TO.N,/Actionneur/MOTEUR2-*%
%TO.C,J5*%
X181440000Y-110520000D03*
D13*
%TO.N,GND*%
X181440000Y-108020000D03*
%TO.N,/SENSORS/PHASE_A2*%
X181440000Y-105520000D03*
%TO.N,/SENSORS/PHASE_B2*%
X181440000Y-103020000D03*
%TO.N,+3.3V*%
X181440000Y-100520000D03*
%TO.N,/Actionneur/MOTEUR2+*%
X181440000Y-98020000D03*
%TD*%
D15*
%TO.N,unconnected-(SW2-C-Pad1)*%
%TO.C,SW2*%
X170290000Y-71830000D03*
D16*
%TO.N,+BATT*%
X167790000Y-71830000D03*
%TO.N,+7.2V*%
X165290000Y-71830000D03*
%TD*%
D14*
%TO.N,+3.3V*%
%TO.C,J8*%
X132500000Y-76710000D03*
D13*
%TO.N,GND*%
X132500000Y-79210000D03*
%TO.N,/Actionneur/SCL*%
X132500000Y-81710000D03*
%TO.N,/Actionneur/SDA*%
X132500000Y-84210000D03*
%TD*%
D14*
%TO.N,+3.3V*%
%TO.C,J2*%
X132490000Y-104490000D03*
D13*
%TO.N,GND*%
X132490000Y-106990000D03*
%TO.N,/SENSORS/CB_OUT2*%
X132490000Y-109490000D03*
%TO.N,/SENSORS/CB_IN*%
X132490000Y-111990000D03*
%TD*%
D17*
%TO.N,+5V*%
%TO.C,J3*%
X153810000Y-118890000D03*
D16*
%TO.N,/SENSORS/TX_LIDAR*%
X156310000Y-118890000D03*
%TO.N,/SENSORS/RX_LIDAR*%
X158810000Y-118890000D03*
%TO.N,GND*%
X161310000Y-118890000D03*
%TO.N,/SENSORS/M_EN_LIDAR*%
X163810000Y-118890000D03*
%TO.N,/SENSORS/DEV_EN_LIDAR*%
X166310000Y-118890000D03*
%TO.N,/SENSORS/M_SCTR_LIDAR*%
X168810000Y-118890000D03*
%TO.N,unconnected-(J3-Pin_8-Pad8)*%
X171310000Y-118890000D03*
%TD*%
D10*
%TO.N,GND*%
%TO.C,H2*%
X177600000Y-70000000D03*
X178302944Y-68302944D03*
X178302944Y-71697056D03*
X180000000Y-67600000D03*
D11*
X180000000Y-70000000D03*
D10*
X180000000Y-72400000D03*
X181697056Y-68302944D03*
X181697056Y-71697056D03*
X182400000Y-70000000D03*
%TD*%
D18*
%TO.N,+7.2V*%
%TO.C,J6*%
X158860000Y-71840000D03*
D19*
%TO.N,GND*%
X156360000Y-71840000D03*
%TD*%
D10*
%TO.N,GND*%
%TO.C,H1*%
X131740000Y-69840000D03*
X132442944Y-68142944D03*
X132442944Y-71537056D03*
X134140000Y-67440000D03*
D11*
X134140000Y-69840000D03*
D10*
X134140000Y-72240000D03*
X135837056Y-68142944D03*
X135837056Y-71537056D03*
X136540000Y-69840000D03*
%TD*%
D20*
%TO.N,+3.3V*%
X151170000Y-101780000D03*
X147440000Y-67560000D03*
%TO.N,GND*%
X143280000Y-81550000D03*
%TO.N,+3.3V*%
X138970000Y-92260000D03*
X138760000Y-87210000D03*
%TO.N,GND*%
X147900000Y-96200000D03*
%TO.N,+3.3V*%
X135870000Y-83880000D03*
X153640000Y-75500000D03*
%TO.N,GND*%
X156370000Y-106540000D03*
%TO.N,+3.3V*%
X160460000Y-112590000D03*
X161910000Y-104030000D03*
X161060000Y-95960000D03*
%TO.N,NRST*%
X151490000Y-107650000D03*
X142480000Y-78940000D03*
%TO.N,SWO*%
X156030000Y-98430000D03*
X144890000Y-79540000D03*
%TO.N,/SENSORS/TX_LIDAR*%
X158300000Y-111470000D03*
%TO.N,/SENSORS/PHASE_A1*%
X163340000Y-103660000D03*
%TO.N,/SENSORS/PHASE_B1*%
X164480000Y-104560000D03*
%TO.N,/SENSORS/PHASE_B2*%
X162380000Y-107310000D03*
%TO.N,/SENSORS/PHASE_A2*%
X156400000Y-101640000D03*
%TO.N,/SENSORS/INT1_ACCELERO*%
X155430000Y-99200000D03*
X143590000Y-94030000D03*
%TO.N,/Actionneur/FWD2*%
X169700000Y-104670000D03*
X161045023Y-106565023D03*
%TO.N,+BATT*%
X173190000Y-91030000D03*
X173680000Y-102360000D03*
X172950000Y-109930000D03*
X173880000Y-83340000D03*
X166820000Y-80650000D03*
%TO.N,/Alimentation/vcc*%
X167670000Y-82800000D03*
X164064199Y-86383239D03*
%TO.N,/Alimentation/sw*%
X157230000Y-86730000D03*
X163250000Y-81970000D03*
X157230000Y-87620000D03*
%TO.N,+5V*%
X166050000Y-89200000D03*
X167020000Y-96170000D03*
X166440000Y-93450000D03*
X155760000Y-79720000D03*
%TO.N,/Alimentation/en{slash}sync*%
X163166012Y-86326147D03*
X167920000Y-81580000D03*
%TD*%
%TA.AperFunction,Conductor*%
%TO.N,GND*%
G36*
X147221135Y-66520185D02*
G01*
X147266890Y-66572989D01*
X147276834Y-66642147D01*
X147247809Y-66705703D01*
X147189031Y-66743477D01*
X147179876Y-66745790D01*
X147175735Y-66746670D01*
X147175728Y-66746672D01*
X147012408Y-66819387D01*
X146867768Y-66924475D01*
X146748140Y-67057336D01*
X146658750Y-67212164D01*
X146658747Y-67212170D01*
X146603504Y-67382192D01*
X146603503Y-67382194D01*
X146584815Y-67560000D01*
X146603503Y-67737805D01*
X146603504Y-67737807D01*
X146658747Y-67907829D01*
X146658750Y-67907835D01*
X146748141Y-68062665D01*
X146789812Y-68108946D01*
X146867764Y-68195521D01*
X146867767Y-68195523D01*
X146867770Y-68195526D01*
X147012407Y-68300612D01*
X147175733Y-68373329D01*
X147350609Y-68410500D01*
X147350610Y-68410500D01*
X147529389Y-68410500D01*
X147529391Y-68410500D01*
X147704267Y-68373329D01*
X147867593Y-68300612D01*
X148012230Y-68195526D01*
X148131859Y-68062665D01*
X148221250Y-67907835D01*
X148276497Y-67737803D01*
X148295185Y-67560000D01*
X148276497Y-67382197D01*
X148221250Y-67212165D01*
X148131859Y-67057335D01*
X148041165Y-66956609D01*
X148012235Y-66924478D01*
X148012232Y-66924476D01*
X148012231Y-66924475D01*
X148012230Y-66924474D01*
X147867593Y-66819388D01*
X147704267Y-66746671D01*
X147704265Y-66746670D01*
X147704264Y-66746670D01*
X147704263Y-66746669D01*
X147700124Y-66745790D01*
X147638642Y-66712598D01*
X147604865Y-66651435D01*
X147609517Y-66581721D01*
X147651121Y-66525588D01*
X147716469Y-66500859D01*
X147725904Y-66500500D01*
X178201706Y-66500500D01*
X178268745Y-66520185D01*
X178314500Y-66572989D01*
X178324444Y-66642147D01*
X178295419Y-66705703D01*
X178258001Y-66734985D01*
X178147456Y-66791310D01*
X177822206Y-67002531D01*
X177564648Y-67211095D01*
X177564648Y-67211096D01*
X179059301Y-68705748D01*
X178957670Y-68779588D01*
X178779588Y-68957670D01*
X178705748Y-69059300D01*
X177211096Y-67564648D01*
X177211095Y-67564648D01*
X177002531Y-67822206D01*
X176791310Y-68147456D01*
X176615244Y-68493005D01*
X176476262Y-68855063D01*
X176375887Y-69229669D01*
X176375886Y-69229676D01*
X176315219Y-69612712D01*
X176294922Y-69999999D01*
X176294922Y-70000000D01*
X176315219Y-70387287D01*
X176375886Y-70770323D01*
X176375887Y-70770330D01*
X176476262Y-71144936D01*
X176615244Y-71506994D01*
X176791310Y-71852543D01*
X177002531Y-72177793D01*
X177211095Y-72435350D01*
X177211096Y-72435350D01*
X178705748Y-70940698D01*
X178779588Y-71042330D01*
X178957670Y-71220412D01*
X179059300Y-71294251D01*
X177564648Y-72788903D01*
X177564649Y-72788904D01*
X177822206Y-72997468D01*
X178147456Y-73208689D01*
X178493005Y-73384755D01*
X178855063Y-73523737D01*
X179229669Y-73624112D01*
X179229676Y-73624113D01*
X179612712Y-73684780D01*
X179999999Y-73705078D01*
X180000001Y-73705078D01*
X180387287Y-73684780D01*
X180770323Y-73624113D01*
X180770330Y-73624112D01*
X181144936Y-73523737D01*
X181506994Y-73384755D01*
X181852543Y-73208689D01*
X182177783Y-72997476D01*
X182177785Y-72997475D01*
X182435349Y-72788902D01*
X180940698Y-71294251D01*
X181042330Y-71220412D01*
X181220412Y-71042330D01*
X181294251Y-70940698D01*
X182788902Y-72435349D01*
X182997475Y-72177785D01*
X182997476Y-72177783D01*
X183208691Y-71852541D01*
X183208692Y-71852538D01*
X183265015Y-71741999D01*
X183312989Y-71691202D01*
X183380810Y-71674407D01*
X183446945Y-71696944D01*
X183490397Y-71751659D01*
X183499500Y-71798293D01*
X183499500Y-117201706D01*
X183479815Y-117268745D01*
X183427011Y-117314500D01*
X183357853Y-117324444D01*
X183294297Y-117295419D01*
X183265015Y-117258001D01*
X183208689Y-117147456D01*
X182997468Y-116822206D01*
X182788904Y-116564649D01*
X182788903Y-116564648D01*
X181294251Y-118059300D01*
X181220412Y-117957670D01*
X181042330Y-117779588D01*
X180940698Y-117705748D01*
X182435350Y-116211096D01*
X182435350Y-116211095D01*
X182177793Y-116002531D01*
X181852543Y-115791310D01*
X181506994Y-115615244D01*
X181144936Y-115476262D01*
X180770330Y-115375887D01*
X180770323Y-115375886D01*
X180387287Y-115315219D01*
X180000001Y-115294922D01*
X179999999Y-115294922D01*
X179612712Y-115315219D01*
X179229676Y-115375886D01*
X179229669Y-115375887D01*
X178855063Y-115476262D01*
X178493005Y-115615244D01*
X178147456Y-115791310D01*
X177822206Y-116002531D01*
X177564648Y-116211095D01*
X177564648Y-116211096D01*
X179059301Y-117705748D01*
X178957670Y-117779588D01*
X178779588Y-117957670D01*
X178705748Y-118059300D01*
X177211096Y-116564648D01*
X177211095Y-116564648D01*
X177002531Y-116822206D01*
X176791310Y-117147456D01*
X176615244Y-117493005D01*
X176476262Y-117855063D01*
X176375887Y-118229669D01*
X176375886Y-118229676D01*
X176315219Y-118612712D01*
X176294922Y-118999999D01*
X176294922Y-119000000D01*
X176315219Y-119387287D01*
X176375886Y-119770323D01*
X176375887Y-119770330D01*
X176476262Y-120144936D01*
X176615244Y-120506994D01*
X176791310Y-120852543D01*
X177002531Y-121177793D01*
X177211095Y-121435350D01*
X177211096Y-121435350D01*
X178705748Y-119940698D01*
X178779588Y-120042330D01*
X178957670Y-120220412D01*
X179059300Y-120294251D01*
X177564648Y-121788903D01*
X177564649Y-121788904D01*
X177822206Y-121997468D01*
X178147456Y-122208689D01*
X178258001Y-122265015D01*
X178308797Y-122312990D01*
X178325592Y-122380811D01*
X178303055Y-122446945D01*
X178248340Y-122490397D01*
X178201706Y-122499500D01*
X135798294Y-122499500D01*
X135731255Y-122479815D01*
X135685500Y-122427011D01*
X135675556Y-122357853D01*
X135704581Y-122294297D01*
X135741999Y-122265015D01*
X135852543Y-122208689D01*
X136177783Y-121997476D01*
X136177785Y-121997475D01*
X136435349Y-121788902D01*
X134940698Y-120294251D01*
X135042330Y-120220412D01*
X135220412Y-120042330D01*
X135294251Y-119940698D01*
X136788902Y-121435349D01*
X136997475Y-121177785D01*
X136997476Y-121177783D01*
X137208689Y-120852543D01*
X137384755Y-120506994D01*
X137523737Y-120144936D01*
X137624112Y-119770330D01*
X137624113Y-119770323D01*
X137684780Y-119387287D01*
X137705078Y-119000000D01*
X137705078Y-118999999D01*
X137684780Y-118612712D01*
X137624113Y-118229676D01*
X137624112Y-118229669D01*
X137593382Y-118114983D01*
X152459500Y-118114983D01*
X152459500Y-119665001D01*
X152459501Y-119665018D01*
X152470000Y-119767796D01*
X152470001Y-119767799D01*
X152515894Y-119906294D01*
X152525186Y-119934334D01*
X152617288Y-120083656D01*
X152741344Y-120207712D01*
X152890666Y-120299814D01*
X153057203Y-120354999D01*
X153159991Y-120365500D01*
X154460008Y-120365499D01*
X154562797Y-120354999D01*
X154729334Y-120299814D01*
X154878656Y-120207712D01*
X155002712Y-120083656D01*
X155094814Y-119934334D01*
X155094814Y-119934331D01*
X155098178Y-119928879D01*
X155150126Y-119882154D01*
X155219088Y-119870931D01*
X155283170Y-119898774D01*
X155291398Y-119906294D01*
X155430213Y-120045109D01*
X155602179Y-120170048D01*
X155602181Y-120170049D01*
X155602184Y-120170051D01*
X155791588Y-120266557D01*
X155993757Y-120332246D01*
X156203713Y-120365500D01*
X156203714Y-120365500D01*
X156416286Y-120365500D01*
X156416287Y-120365500D01*
X156626243Y-120332246D01*
X156828412Y-120266557D01*
X157017816Y-120170051D01*
X157052384Y-120144936D01*
X157189786Y-120045109D01*
X157189788Y-120045106D01*
X157189792Y-120045104D01*
X157340104Y-119894792D01*
X157459683Y-119730204D01*
X157515011Y-119687540D01*
X157584624Y-119681561D01*
X157646420Y-119714166D01*
X157660313Y-119730199D01*
X157689465Y-119770323D01*
X157779896Y-119894792D01*
X157930213Y-120045109D01*
X158102179Y-120170048D01*
X158102181Y-120170049D01*
X158102184Y-120170051D01*
X158291588Y-120266557D01*
X158493757Y-120332246D01*
X158703713Y-120365500D01*
X158703714Y-120365500D01*
X158916286Y-120365500D01*
X158916287Y-120365500D01*
X159126243Y-120332246D01*
X159328412Y-120266557D01*
X159517816Y-120170051D01*
X159552384Y-120144936D01*
X159689786Y-120045109D01*
X159689788Y-120045106D01*
X159689792Y-120045104D01*
X159840104Y-119894792D01*
X159959991Y-119729779D01*
X160015320Y-119687115D01*
X160084933Y-119681136D01*
X160146729Y-119713741D01*
X160160627Y-119729781D01*
X160280272Y-119894459D01*
X160280276Y-119894464D01*
X160430535Y-120044723D01*
X160430540Y-120044727D01*
X160602442Y-120169620D01*
X160791782Y-120266095D01*
X160993871Y-120331757D01*
X161060000Y-120342231D01*
X161060000Y-119294145D01*
X161126657Y-119332630D01*
X161247465Y-119365000D01*
X161372535Y-119365000D01*
X161493343Y-119332630D01*
X161560000Y-119294145D01*
X161560000Y-120342230D01*
X161626126Y-120331757D01*
X161626129Y-120331757D01*
X161828217Y-120266095D01*
X162017557Y-120169620D01*
X162189459Y-120044727D01*
X162189464Y-120044723D01*
X162339721Y-119894466D01*
X162459371Y-119729781D01*
X162514701Y-119687115D01*
X162584314Y-119681136D01*
X162646110Y-119713741D01*
X162660008Y-119729781D01*
X162779890Y-119894785D01*
X162779894Y-119894790D01*
X162930213Y-120045109D01*
X163102179Y-120170048D01*
X163102181Y-120170049D01*
X163102184Y-120170051D01*
X163291588Y-120266557D01*
X163493757Y-120332246D01*
X163703713Y-120365500D01*
X163703714Y-120365500D01*
X163916286Y-120365500D01*
X163916287Y-120365500D01*
X164126243Y-120332246D01*
X164328412Y-120266557D01*
X164517816Y-120170051D01*
X164552384Y-120144936D01*
X164689786Y-120045109D01*
X164689788Y-120045106D01*
X164689792Y-120045104D01*
X164840104Y-119894792D01*
X164959683Y-119730204D01*
X165015011Y-119687540D01*
X165084624Y-119681561D01*
X165146420Y-119714166D01*
X165160313Y-119730199D01*
X165189465Y-119770323D01*
X165279896Y-119894792D01*
X165430213Y-120045109D01*
X165602179Y-120170048D01*
X165602181Y-120170049D01*
X165602184Y-120170051D01*
X165791588Y-120266557D01*
X165993757Y-120332246D01*
X166203713Y-120365500D01*
X166203714Y-120365500D01*
X166416286Y-120365500D01*
X166416287Y-120365500D01*
X166626243Y-120332246D01*
X166828412Y-120266557D01*
X167017816Y-120170051D01*
X167052384Y-120144936D01*
X167189786Y-120045109D01*
X167189788Y-120045106D01*
X167189792Y-120045104D01*
X167340104Y-119894792D01*
X167459683Y-119730204D01*
X167515011Y-119687540D01*
X167584624Y-119681561D01*
X167646420Y-119714166D01*
X167660313Y-119730199D01*
X167689465Y-119770323D01*
X167779896Y-119894792D01*
X167930213Y-120045109D01*
X168102179Y-120170048D01*
X168102181Y-120170049D01*
X168102184Y-120170051D01*
X168291588Y-120266557D01*
X168493757Y-120332246D01*
X168703713Y-120365500D01*
X168703714Y-120365500D01*
X168916286Y-120365500D01*
X168916287Y-120365500D01*
X169126243Y-120332246D01*
X169328412Y-120266557D01*
X169517816Y-120170051D01*
X169552384Y-120144936D01*
X169689786Y-120045109D01*
X169689788Y-120045106D01*
X169689792Y-120045104D01*
X169840104Y-119894792D01*
X169959683Y-119730204D01*
X170015011Y-119687540D01*
X170084624Y-119681561D01*
X170146420Y-119714166D01*
X170160313Y-119730199D01*
X170189465Y-119770323D01*
X170279896Y-119894792D01*
X170430213Y-120045109D01*
X170602179Y-120170048D01*
X170602181Y-120170049D01*
X170602184Y-120170051D01*
X170791588Y-120266557D01*
X170993757Y-120332246D01*
X171203713Y-120365500D01*
X171203714Y-120365500D01*
X171416286Y-120365500D01*
X171416287Y-120365500D01*
X171626243Y-120332246D01*
X171828412Y-120266557D01*
X172017816Y-120170051D01*
X172052384Y-120144936D01*
X172189786Y-120045109D01*
X172189788Y-120045106D01*
X172189792Y-120045104D01*
X172340104Y-119894792D01*
X172340106Y-119894788D01*
X172340109Y-119894786D01*
X172465048Y-119722820D01*
X172465047Y-119722820D01*
X172465051Y-119722816D01*
X172561557Y-119533412D01*
X172627246Y-119331243D01*
X172660500Y-119121287D01*
X172660500Y-118658713D01*
X172627246Y-118448757D01*
X172561557Y-118246588D01*
X172465051Y-118057184D01*
X172465049Y-118057181D01*
X172465048Y-118057179D01*
X172340109Y-117885213D01*
X172189786Y-117734890D01*
X172017820Y-117609951D01*
X171828414Y-117513444D01*
X171828413Y-117513443D01*
X171828412Y-117513443D01*
X171626243Y-117447754D01*
X171626241Y-117447753D01*
X171626240Y-117447753D01*
X171464957Y-117422208D01*
X171416287Y-117414500D01*
X171203713Y-117414500D01*
X171155042Y-117422208D01*
X170993760Y-117447753D01*
X170791585Y-117513444D01*
X170602179Y-117609951D01*
X170430213Y-117734890D01*
X170279894Y-117885209D01*
X170279890Y-117885214D01*
X170160318Y-118049793D01*
X170104989Y-118092459D01*
X170035375Y-118098438D01*
X169973580Y-118065833D01*
X169959682Y-118049793D01*
X169840109Y-117885214D01*
X169840105Y-117885209D01*
X169689786Y-117734890D01*
X169517820Y-117609951D01*
X169328414Y-117513444D01*
X169328413Y-117513443D01*
X169328412Y-117513443D01*
X169126243Y-117447754D01*
X169126241Y-117447753D01*
X169126240Y-117447753D01*
X168964957Y-117422208D01*
X168916287Y-117414500D01*
X168703713Y-117414500D01*
X168655042Y-117422208D01*
X168493760Y-117447753D01*
X168291585Y-117513444D01*
X168102179Y-117609951D01*
X167930213Y-117734890D01*
X167779894Y-117885209D01*
X167779890Y-117885214D01*
X167660318Y-118049793D01*
X167604989Y-118092459D01*
X167535375Y-118098438D01*
X167473580Y-118065833D01*
X167459682Y-118049793D01*
X167340109Y-117885214D01*
X167340105Y-117885209D01*
X167189786Y-117734890D01*
X167017820Y-117609951D01*
X166828414Y-117513444D01*
X166828413Y-117513443D01*
X166828412Y-117513443D01*
X166626243Y-117447754D01*
X166626241Y-117447753D01*
X166626240Y-117447753D01*
X166464957Y-117422208D01*
X166416287Y-117414500D01*
X166203713Y-117414500D01*
X166155042Y-117422208D01*
X165993760Y-117447753D01*
X165791585Y-117513444D01*
X165602179Y-117609951D01*
X165430213Y-117734890D01*
X165279894Y-117885209D01*
X165279890Y-117885214D01*
X165160318Y-118049793D01*
X165104989Y-118092459D01*
X165035375Y-118098438D01*
X164973580Y-118065833D01*
X164959682Y-118049793D01*
X164840109Y-117885214D01*
X164840105Y-117885209D01*
X164689786Y-117734890D01*
X164517820Y-117609951D01*
X164328414Y-117513444D01*
X164328413Y-117513443D01*
X164328412Y-117513443D01*
X164126243Y-117447754D01*
X164126241Y-117447753D01*
X164126240Y-117447753D01*
X163964957Y-117422208D01*
X163916287Y-117414500D01*
X163703713Y-117414500D01*
X163655042Y-117422208D01*
X163493760Y-117447753D01*
X163291585Y-117513444D01*
X163102179Y-117609951D01*
X162930213Y-117734890D01*
X162779894Y-117885209D01*
X162779890Y-117885214D01*
X162660008Y-118050218D01*
X162604678Y-118092884D01*
X162535065Y-118098863D01*
X162473270Y-118066257D01*
X162459372Y-118050218D01*
X162339727Y-117885540D01*
X162339723Y-117885535D01*
X162189464Y-117735276D01*
X162189459Y-117735272D01*
X162017557Y-117610379D01*
X161828215Y-117513903D01*
X161626124Y-117448241D01*
X161560000Y-117437768D01*
X161560000Y-118485854D01*
X161493343Y-118447370D01*
X161372535Y-118415000D01*
X161247465Y-118415000D01*
X161126657Y-118447370D01*
X161060000Y-118485854D01*
X161060000Y-117437768D01*
X161059999Y-117437768D01*
X160993875Y-117448241D01*
X160791784Y-117513903D01*
X160602442Y-117610379D01*
X160430540Y-117735272D01*
X160430535Y-117735276D01*
X160280276Y-117885535D01*
X160280272Y-117885540D01*
X160160627Y-118050218D01*
X160105297Y-118092884D01*
X160035684Y-118098863D01*
X159973889Y-118066257D01*
X159959991Y-118050218D01*
X159840109Y-117885214D01*
X159840105Y-117885209D01*
X159689786Y-117734890D01*
X159517820Y-117609951D01*
X159328414Y-117513444D01*
X159328413Y-117513443D01*
X159328412Y-117513443D01*
X159126243Y-117447754D01*
X159126241Y-117447753D01*
X159126240Y-117447753D01*
X158964957Y-117422208D01*
X158916287Y-117414500D01*
X158703713Y-117414500D01*
X158655042Y-117422208D01*
X158493760Y-117447753D01*
X158291585Y-117513444D01*
X158102179Y-117609951D01*
X157930213Y-117734890D01*
X157779894Y-117885209D01*
X157779890Y-117885214D01*
X157660318Y-118049793D01*
X157604989Y-118092459D01*
X157535375Y-118098438D01*
X157473580Y-118065833D01*
X157459682Y-118049793D01*
X157340109Y-117885214D01*
X157340105Y-117885209D01*
X157189786Y-117734890D01*
X157017820Y-117609951D01*
X156828414Y-117513444D01*
X156828413Y-117513443D01*
X156828412Y-117513443D01*
X156626243Y-117447754D01*
X156626241Y-117447753D01*
X156626240Y-117447753D01*
X156464957Y-117422208D01*
X156416287Y-117414500D01*
X156203713Y-117414500D01*
X156155042Y-117422208D01*
X155993760Y-117447753D01*
X155791585Y-117513444D01*
X155602179Y-117609951D01*
X155430215Y-117734889D01*
X155291398Y-117873706D01*
X155230075Y-117907190D01*
X155160383Y-117902206D01*
X155104450Y-117860334D01*
X155098178Y-117851120D01*
X155002712Y-117696344D01*
X154878657Y-117572289D01*
X154878656Y-117572288D01*
X154729334Y-117480186D01*
X154562797Y-117425001D01*
X154562795Y-117425000D01*
X154460010Y-117414500D01*
X153159998Y-117414500D01*
X153159981Y-117414501D01*
X153057203Y-117425000D01*
X153057200Y-117425001D01*
X152890668Y-117480185D01*
X152890663Y-117480187D01*
X152741342Y-117572289D01*
X152617289Y-117696342D01*
X152525187Y-117845663D01*
X152525185Y-117845668D01*
X152522072Y-117855063D01*
X152470001Y-118012203D01*
X152470001Y-118012204D01*
X152470000Y-118012204D01*
X152459500Y-118114983D01*
X137593382Y-118114983D01*
X137523737Y-117855063D01*
X137384755Y-117493005D01*
X137208689Y-117147456D01*
X136997468Y-116822206D01*
X136788904Y-116564649D01*
X136788903Y-116564648D01*
X135294251Y-118059300D01*
X135220412Y-117957670D01*
X135042330Y-117779588D01*
X134940698Y-117705748D01*
X136435350Y-116211096D01*
X136435350Y-116211095D01*
X136177793Y-116002531D01*
X135852543Y-115791310D01*
X135506994Y-115615244D01*
X135144936Y-115476262D01*
X134770330Y-115375887D01*
X134770323Y-115375886D01*
X134387287Y-115315219D01*
X134000001Y-115294922D01*
X133999999Y-115294922D01*
X133612712Y-115315219D01*
X133229676Y-115375886D01*
X133229669Y-115375887D01*
X132855063Y-115476262D01*
X132493005Y-115615244D01*
X132147456Y-115791310D01*
X131822206Y-116002531D01*
X131564648Y-116211095D01*
X131564648Y-116211096D01*
X133059301Y-117705748D01*
X132957670Y-117779588D01*
X132779588Y-117957670D01*
X132705748Y-118059301D01*
X131211096Y-116564648D01*
X131211095Y-116564648D01*
X131002531Y-116822206D01*
X130791310Y-117147456D01*
X130734985Y-117258001D01*
X130687010Y-117308797D01*
X130619189Y-117325592D01*
X130553055Y-117303055D01*
X130509603Y-117248340D01*
X130500500Y-117201706D01*
X130500500Y-103839983D01*
X131014500Y-103839983D01*
X131014500Y-105140001D01*
X131014501Y-105140018D01*
X131025000Y-105242796D01*
X131025001Y-105242799D01*
X131045786Y-105305523D01*
X131080186Y-105409334D01*
X131172288Y-105558656D01*
X131296344Y-105682712D01*
X131408182Y-105751694D01*
X131451558Y-105778448D01*
X131498283Y-105830396D01*
X131509506Y-105899358D01*
X131481663Y-105963441D01*
X131474144Y-105971668D01*
X131335271Y-106110541D01*
X131210379Y-106282442D01*
X131113904Y-106471782D01*
X131048242Y-106673870D01*
X131048242Y-106673873D01*
X131037769Y-106740000D01*
X132085854Y-106740000D01*
X132047370Y-106806657D01*
X132015000Y-106927465D01*
X132015000Y-107052535D01*
X132047370Y-107173343D01*
X132085854Y-107240000D01*
X131037769Y-107240000D01*
X131048242Y-107306126D01*
X131048242Y-107306129D01*
X131113904Y-107508217D01*
X131210379Y-107697557D01*
X131335272Y-107869459D01*
X131335276Y-107869464D01*
X131485535Y-108019723D01*
X131485540Y-108019727D01*
X131650218Y-108139372D01*
X131692884Y-108194701D01*
X131698863Y-108264315D01*
X131666258Y-108326110D01*
X131650218Y-108340008D01*
X131485214Y-108459890D01*
X131485209Y-108459894D01*
X131334890Y-108610213D01*
X131209951Y-108782179D01*
X131113444Y-108971585D01*
X131047753Y-109173760D01*
X131014500Y-109383713D01*
X131014500Y-109596286D01*
X131041570Y-109767203D01*
X131047754Y-109806243D01*
X131087965Y-109930000D01*
X131113444Y-110008414D01*
X131209951Y-110197820D01*
X131334890Y-110369786D01*
X131485209Y-110520105D01*
X131485214Y-110520109D01*
X131649793Y-110639682D01*
X131692459Y-110695011D01*
X131698438Y-110764625D01*
X131665833Y-110826420D01*
X131649793Y-110840318D01*
X131485214Y-110959890D01*
X131485209Y-110959894D01*
X131334890Y-111110213D01*
X131209951Y-111282179D01*
X131113444Y-111471585D01*
X131047753Y-111673760D01*
X131014500Y-111883713D01*
X131014500Y-112096286D01*
X131044124Y-112283329D01*
X131047754Y-112306243D01*
X131052386Y-112320500D01*
X131113444Y-112508414D01*
X131209951Y-112697820D01*
X131334890Y-112869786D01*
X131485213Y-113020109D01*
X131657179Y-113145048D01*
X131657181Y-113145049D01*
X131657184Y-113145051D01*
X131846588Y-113241557D01*
X132048757Y-113307246D01*
X132258713Y-113340500D01*
X132258714Y-113340500D01*
X132721286Y-113340500D01*
X132721287Y-113340500D01*
X132931243Y-113307246D01*
X133133412Y-113241557D01*
X133322816Y-113145051D01*
X133394920Y-113092665D01*
X133494786Y-113020109D01*
X133494788Y-113020106D01*
X133494792Y-113020104D01*
X133645104Y-112869792D01*
X133645106Y-112869788D01*
X133645109Y-112869786D01*
X133770048Y-112697820D01*
X133770047Y-112697820D01*
X133770051Y-112697816D01*
X133824986Y-112590000D01*
X159604815Y-112590000D01*
X159623503Y-112767805D01*
X159623504Y-112767807D01*
X159678747Y-112937829D01*
X159678750Y-112937835D01*
X159768141Y-113092665D01*
X159809812Y-113138946D01*
X159887764Y-113225521D01*
X159887767Y-113225523D01*
X159887770Y-113225526D01*
X160032407Y-113330612D01*
X160195733Y-113403329D01*
X160370609Y-113440500D01*
X160370610Y-113440500D01*
X160549389Y-113440500D01*
X160549391Y-113440500D01*
X160724267Y-113403329D01*
X160887593Y-113330612D01*
X161032230Y-113225526D01*
X161151859Y-113092665D01*
X161241250Y-112937835D01*
X161296497Y-112767803D01*
X161315185Y-112590000D01*
X161296497Y-112412197D01*
X161241250Y-112242165D01*
X161151859Y-112087335D01*
X161105003Y-112035296D01*
X161032235Y-111954478D01*
X161032232Y-111954476D01*
X161032231Y-111954475D01*
X161032230Y-111954474D01*
X160887593Y-111849388D01*
X160724267Y-111776671D01*
X160724265Y-111776670D01*
X160596594Y-111749533D01*
X160549391Y-111739500D01*
X160370609Y-111739500D01*
X160339954Y-111746015D01*
X160195733Y-111776670D01*
X160195728Y-111776672D01*
X160032408Y-111849387D01*
X159887768Y-111954475D01*
X159768140Y-112087336D01*
X159678750Y-112242164D01*
X159678747Y-112242170D01*
X159623504Y-112412192D01*
X159623503Y-112412194D01*
X159604815Y-112590000D01*
X133824986Y-112590000D01*
X133866557Y-112508412D01*
X133932246Y-112306243D01*
X133965500Y-112096287D01*
X133965500Y-111883713D01*
X133932246Y-111673757D01*
X133866557Y-111471588D01*
X133865748Y-111470000D01*
X157444815Y-111470000D01*
X157463503Y-111647805D01*
X157463504Y-111647807D01*
X157518747Y-111817829D01*
X157518750Y-111817835D01*
X157608141Y-111972665D01*
X157649812Y-112018946D01*
X157727764Y-112105521D01*
X157727767Y-112105523D01*
X157727770Y-112105526D01*
X157872407Y-112210612D01*
X158035733Y-112283329D01*
X158210609Y-112320500D01*
X158210610Y-112320500D01*
X158389389Y-112320500D01*
X158389391Y-112320500D01*
X158564267Y-112283329D01*
X158727593Y-112210612D01*
X158872230Y-112105526D01*
X158888609Y-112087336D01*
X158898148Y-112076741D01*
X158991859Y-111972665D01*
X159081250Y-111817835D01*
X159136497Y-111647803D01*
X159155185Y-111470000D01*
X159136497Y-111292197D01*
X159108873Y-111207181D01*
X159081252Y-111122170D01*
X159081249Y-111122164D01*
X158991859Y-110967335D01*
X158945003Y-110915296D01*
X158872235Y-110834478D01*
X158872232Y-110834476D01*
X158872231Y-110834475D01*
X158872230Y-110834474D01*
X158727593Y-110729388D01*
X158564267Y-110656671D01*
X158564265Y-110656670D01*
X158436594Y-110629533D01*
X158389391Y-110619500D01*
X158210609Y-110619500D01*
X158179954Y-110626015D01*
X158035733Y-110656670D01*
X158035728Y-110656672D01*
X157872408Y-110729387D01*
X157727768Y-110834475D01*
X157608140Y-110967336D01*
X157518750Y-111122164D01*
X157518747Y-111122170D01*
X157463504Y-111292192D01*
X157463503Y-111292194D01*
X157444815Y-111470000D01*
X133865748Y-111470000D01*
X133770051Y-111282184D01*
X133770049Y-111282181D01*
X133770048Y-111282179D01*
X133645109Y-111110213D01*
X133494792Y-110959896D01*
X133494784Y-110959890D01*
X133330204Y-110840316D01*
X133287540Y-110784989D01*
X133281561Y-110715376D01*
X133314166Y-110653580D01*
X133330199Y-110639686D01*
X133494792Y-110520104D01*
X133645104Y-110369792D01*
X133645106Y-110369788D01*
X133645109Y-110369786D01*
X133770048Y-110197820D01*
X133770047Y-110197820D01*
X133770051Y-110197816D01*
X133866557Y-110008412D01*
X133892035Y-109930000D01*
X172094815Y-109930000D01*
X172113503Y-110107805D01*
X172113504Y-110107807D01*
X172168747Y-110277829D01*
X172168750Y-110277835D01*
X172258141Y-110432665D01*
X172299812Y-110478946D01*
X172377764Y-110565521D01*
X172377767Y-110565523D01*
X172377770Y-110565526D01*
X172522407Y-110670612D01*
X172685733Y-110743329D01*
X172860609Y-110780500D01*
X172860610Y-110780500D01*
X173039389Y-110780500D01*
X173039391Y-110780500D01*
X173214267Y-110743329D01*
X173377593Y-110670612D01*
X173522230Y-110565526D01*
X173641859Y-110432665D01*
X173731250Y-110277835D01*
X173786497Y-110107803D01*
X173805185Y-109930000D01*
X173786497Y-109752197D01*
X173737262Y-109600668D01*
X173731252Y-109582170D01*
X173731249Y-109582164D01*
X173641859Y-109427335D01*
X173595003Y-109375296D01*
X173522235Y-109294478D01*
X173522232Y-109294476D01*
X173522231Y-109294475D01*
X173522230Y-109294474D01*
X173377593Y-109189388D01*
X173214267Y-109116671D01*
X173214265Y-109116670D01*
X173086594Y-109089533D01*
X173039391Y-109079500D01*
X172860609Y-109079500D01*
X172829954Y-109086015D01*
X172685733Y-109116670D01*
X172685728Y-109116672D01*
X172522408Y-109189387D01*
X172377768Y-109294475D01*
X172258140Y-109427336D01*
X172168750Y-109582164D01*
X172168747Y-109582170D01*
X172113504Y-109752192D01*
X172113503Y-109752194D01*
X172094815Y-109930000D01*
X133892035Y-109930000D01*
X133932246Y-109806243D01*
X133965500Y-109596287D01*
X133965500Y-109383713D01*
X133932246Y-109173757D01*
X133866557Y-108971588D01*
X133770051Y-108782184D01*
X133770049Y-108782181D01*
X133770048Y-108782179D01*
X133645109Y-108610213D01*
X133494790Y-108459894D01*
X133494785Y-108459890D01*
X133329781Y-108340008D01*
X133287115Y-108284678D01*
X133281136Y-108215065D01*
X133313741Y-108153270D01*
X133329781Y-108139371D01*
X133494466Y-108019721D01*
X133644723Y-107869464D01*
X133644727Y-107869459D01*
X133769620Y-107697557D01*
X133793852Y-107650000D01*
X150634815Y-107650000D01*
X150653503Y-107827805D01*
X150653504Y-107827807D01*
X150708747Y-107997829D01*
X150708750Y-107997835D01*
X150798141Y-108152665D01*
X150835991Y-108194701D01*
X150917764Y-108285521D01*
X150917767Y-108285523D01*
X150917770Y-108285526D01*
X151062407Y-108390612D01*
X151225733Y-108463329D01*
X151400609Y-108500500D01*
X151400610Y-108500500D01*
X151579389Y-108500500D01*
X151579391Y-108500500D01*
X151754267Y-108463329D01*
X151917593Y-108390612D01*
X152062230Y-108285526D01*
X152181859Y-108152665D01*
X152271250Y-107997835D01*
X152326497Y-107827803D01*
X152345185Y-107650000D01*
X152326497Y-107472197D01*
X152284765Y-107343760D01*
X152271252Y-107302170D01*
X152271249Y-107302164D01*
X152181859Y-107147335D01*
X152135003Y-107095296D01*
X152062235Y-107014478D01*
X152062232Y-107014476D01*
X152062231Y-107014475D01*
X152062230Y-107014474D01*
X151917593Y-106909388D01*
X151754267Y-106836671D01*
X151754265Y-106836670D01*
X151626594Y-106809533D01*
X151579391Y-106799500D01*
X151400609Y-106799500D01*
X151369954Y-106806015D01*
X151225733Y-106836670D01*
X151225728Y-106836672D01*
X151062408Y-106909387D01*
X150917768Y-107014475D01*
X150798140Y-107147336D01*
X150708750Y-107302164D01*
X150708747Y-107302170D01*
X150653504Y-107472192D01*
X150653503Y-107472194D01*
X150634815Y-107650000D01*
X133793852Y-107650000D01*
X133866095Y-107508217D01*
X133931757Y-107306129D01*
X133931757Y-107306126D01*
X133942231Y-107240000D01*
X132894146Y-107240000D01*
X132932630Y-107173343D01*
X132965000Y-107052535D01*
X132965000Y-106927465D01*
X132932630Y-106806657D01*
X132894146Y-106740000D01*
X133942231Y-106740000D01*
X133931757Y-106673873D01*
X133931757Y-106673870D01*
X133896391Y-106565023D01*
X160189838Y-106565023D01*
X160208526Y-106742828D01*
X160208527Y-106742830D01*
X160263770Y-106912852D01*
X160263773Y-106912858D01*
X160353164Y-107067688D01*
X160394835Y-107113969D01*
X160472787Y-107200544D01*
X160472790Y-107200546D01*
X160472793Y-107200549D01*
X160617430Y-107305635D01*
X160780756Y-107378352D01*
X160955632Y-107415523D01*
X160955633Y-107415523D01*
X161134412Y-107415523D01*
X161134414Y-107415523D01*
X161309290Y-107378352D01*
X161366130Y-107353045D01*
X161435375Y-107343760D01*
X161498652Y-107373388D01*
X161535866Y-107432522D01*
X161539882Y-107453361D01*
X161543502Y-107487796D01*
X161543504Y-107487807D01*
X161598747Y-107657829D01*
X161598750Y-107657835D01*
X161688141Y-107812665D01*
X161709744Y-107836657D01*
X161807764Y-107945521D01*
X161807767Y-107945523D01*
X161807770Y-107945526D01*
X161952407Y-108050612D01*
X162115733Y-108123329D01*
X162290609Y-108160500D01*
X162290610Y-108160500D01*
X162469389Y-108160500D01*
X162469391Y-108160500D01*
X162644267Y-108123329D01*
X162807593Y-108050612D01*
X162952230Y-107945526D01*
X163071859Y-107812665D01*
X163161250Y-107657835D01*
X163216497Y-107487803D01*
X163235185Y-107310000D01*
X163216497Y-107132197D01*
X163161250Y-106962165D01*
X163071859Y-106807335D01*
X163013778Y-106742830D01*
X162952235Y-106674478D01*
X162952232Y-106674476D01*
X162952231Y-106674475D01*
X162952230Y-106674474D01*
X162807593Y-106569388D01*
X162644267Y-106496671D01*
X162644265Y-106496670D01*
X162516594Y-106469533D01*
X162469391Y-106459500D01*
X162290609Y-106459500D01*
X162259954Y-106466015D01*
X162115733Y-106496670D01*
X162115728Y-106496672D01*
X162058896Y-106521976D01*
X161989646Y-106531261D01*
X161926369Y-106501633D01*
X161889156Y-106442498D01*
X161885140Y-106421667D01*
X161881520Y-106387220D01*
X161829728Y-106227820D01*
X161826275Y-106217193D01*
X161826272Y-106217187D01*
X161764700Y-106110541D01*
X161736882Y-106062358D01*
X161690026Y-106010319D01*
X161617258Y-105929501D01*
X161617255Y-105929499D01*
X161617254Y-105929498D01*
X161617253Y-105929497D01*
X161472616Y-105824411D01*
X161309290Y-105751694D01*
X161309288Y-105751693D01*
X161181617Y-105724556D01*
X161134414Y-105714523D01*
X160955632Y-105714523D01*
X160924977Y-105721038D01*
X160780756Y-105751693D01*
X160780751Y-105751695D01*
X160617431Y-105824410D01*
X160472791Y-105929498D01*
X160353163Y-106062359D01*
X160263773Y-106217187D01*
X160263770Y-106217193D01*
X160208527Y-106387215D01*
X160208526Y-106387217D01*
X160189838Y-106565023D01*
X133896391Y-106565023D01*
X133866095Y-106471782D01*
X133769620Y-106282442D01*
X133644727Y-106110540D01*
X133644723Y-106110535D01*
X133505856Y-105971668D01*
X133472371Y-105910345D01*
X133477355Y-105840653D01*
X133519227Y-105784720D01*
X133528441Y-105778448D01*
X133534331Y-105774814D01*
X133534334Y-105774814D01*
X133683656Y-105682712D01*
X133807712Y-105558656D01*
X133899814Y-105409334D01*
X133954999Y-105242797D01*
X133965500Y-105140009D01*
X133965499Y-104030000D01*
X161054815Y-104030000D01*
X161073503Y-104207805D01*
X161073504Y-104207807D01*
X161128747Y-104377829D01*
X161128750Y-104377835D01*
X161218141Y-104532665D01*
X161231080Y-104547035D01*
X161337764Y-104665521D01*
X161337767Y-104665523D01*
X161337770Y-104665526D01*
X161482407Y-104770612D01*
X161645733Y-104843329D01*
X161820609Y-104880500D01*
X161820610Y-104880500D01*
X161999389Y-104880500D01*
X161999391Y-104880500D01*
X162174267Y-104843329D01*
X162337593Y-104770612D01*
X162482230Y-104665526D01*
X162601859Y-104532665D01*
X162678482Y-104399950D01*
X162729048Y-104351734D01*
X162797655Y-104338510D01*
X162858754Y-104361630D01*
X162912407Y-104400612D01*
X163075733Y-104473329D01*
X163250609Y-104510500D01*
X163250610Y-104510500D01*
X163429389Y-104510500D01*
X163429391Y-104510500D01*
X163480750Y-104499583D01*
X163550416Y-104504899D01*
X163606149Y-104547035D01*
X163629851Y-104607911D01*
X163643503Y-104737805D01*
X163643504Y-104737807D01*
X163698747Y-104907829D01*
X163698750Y-104907835D01*
X163788141Y-105062665D01*
X163829812Y-105108946D01*
X163907764Y-105195521D01*
X163907767Y-105195523D01*
X163907770Y-105195526D01*
X164052407Y-105300612D01*
X164215733Y-105373329D01*
X164390609Y-105410500D01*
X164390610Y-105410500D01*
X164569389Y-105410500D01*
X164569391Y-105410500D01*
X164744267Y-105373329D01*
X164907593Y-105300612D01*
X165052230Y-105195526D01*
X165171859Y-105062665D01*
X165261250Y-104907835D01*
X165316497Y-104737803D01*
X165323623Y-104670000D01*
X168844815Y-104670000D01*
X168863503Y-104847805D01*
X168863504Y-104847807D01*
X168918747Y-105017829D01*
X168918750Y-105017835D01*
X169008141Y-105172665D01*
X169036139Y-105203760D01*
X169127764Y-105305521D01*
X169127767Y-105305523D01*
X169127770Y-105305526D01*
X169272407Y-105410612D01*
X169435733Y-105483329D01*
X169610609Y-105520500D01*
X169610610Y-105520500D01*
X169789389Y-105520500D01*
X169789391Y-105520500D01*
X169964267Y-105483329D01*
X170127593Y-105410612D01*
X170272230Y-105305526D01*
X170276657Y-105300610D01*
X170298148Y-105276741D01*
X170391859Y-105172665D01*
X170481250Y-105017835D01*
X170536497Y-104847803D01*
X170555185Y-104670000D01*
X170536497Y-104492197D01*
X170499338Y-104377835D01*
X170481252Y-104322170D01*
X170481249Y-104322164D01*
X170465870Y-104295526D01*
X170391859Y-104167335D01*
X170345003Y-104115296D01*
X170272235Y-104034478D01*
X170272232Y-104034476D01*
X170272231Y-104034475D01*
X170272230Y-104034474D01*
X170127593Y-103929388D01*
X169964267Y-103856671D01*
X169964265Y-103856670D01*
X169836594Y-103829533D01*
X169789391Y-103819500D01*
X169610609Y-103819500D01*
X169579954Y-103826015D01*
X169435733Y-103856670D01*
X169435728Y-103856672D01*
X169272408Y-103929387D01*
X169127768Y-104034475D01*
X169008140Y-104167336D01*
X168918750Y-104322164D01*
X168918747Y-104322170D01*
X168863504Y-104492192D01*
X168863503Y-104492194D01*
X168844815Y-104670000D01*
X165323623Y-104670000D01*
X165335185Y-104560000D01*
X165316497Y-104382197D01*
X165280042Y-104270000D01*
X165261252Y-104212170D01*
X165261249Y-104212164D01*
X165171859Y-104057335D01*
X165125003Y-104005296D01*
X165052235Y-103924478D01*
X165052232Y-103924476D01*
X165052231Y-103924475D01*
X165052230Y-103924474D01*
X164907593Y-103819388D01*
X164744267Y-103746671D01*
X164744265Y-103746670D01*
X164595737Y-103715100D01*
X164569391Y-103709500D01*
X164390609Y-103709500D01*
X164339248Y-103720417D01*
X164269581Y-103715100D01*
X164213848Y-103672962D01*
X164190149Y-103612090D01*
X164176497Y-103482197D01*
X164129731Y-103338266D01*
X164121252Y-103312170D01*
X164121249Y-103312164D01*
X164112661Y-103297289D01*
X164031859Y-103157335D01*
X163980783Y-103100610D01*
X163912235Y-103024478D01*
X163912232Y-103024476D01*
X163912231Y-103024475D01*
X163912230Y-103024474D01*
X163767593Y-102919388D01*
X163604267Y-102846671D01*
X163604265Y-102846670D01*
X163476594Y-102819533D01*
X163429391Y-102809500D01*
X163250609Y-102809500D01*
X163219954Y-102816015D01*
X163075733Y-102846670D01*
X163075728Y-102846672D01*
X162912408Y-102919387D01*
X162767768Y-103024475D01*
X162648139Y-103157336D01*
X162571517Y-103290050D01*
X162520950Y-103338266D01*
X162452343Y-103351488D01*
X162391245Y-103328368D01*
X162337597Y-103289390D01*
X162337593Y-103289388D01*
X162174267Y-103216671D01*
X162174265Y-103216670D01*
X162046594Y-103189533D01*
X161999391Y-103179500D01*
X161820609Y-103179500D01*
X161789954Y-103186015D01*
X161645733Y-103216670D01*
X161645728Y-103216672D01*
X161482408Y-103289387D01*
X161337768Y-103394475D01*
X161218140Y-103527336D01*
X161128750Y-103682164D01*
X161128747Y-103682170D01*
X161073504Y-103852192D01*
X161073503Y-103852194D01*
X161054815Y-104030000D01*
X133965499Y-104030000D01*
X133965499Y-103839992D01*
X133954999Y-103737203D01*
X133899814Y-103570666D01*
X133807712Y-103421344D01*
X133683656Y-103297288D01*
X133552956Y-103216672D01*
X133534336Y-103205187D01*
X133534331Y-103205185D01*
X133532862Y-103204698D01*
X133367797Y-103150001D01*
X133367795Y-103150000D01*
X133265010Y-103139500D01*
X131714998Y-103139500D01*
X131714981Y-103139501D01*
X131612203Y-103150000D01*
X131612200Y-103150001D01*
X131445668Y-103205185D01*
X131445663Y-103205187D01*
X131296342Y-103297289D01*
X131172289Y-103421342D01*
X131080187Y-103570663D01*
X131080186Y-103570666D01*
X131025001Y-103737203D01*
X131025001Y-103737204D01*
X131025000Y-103737204D01*
X131014500Y-103839983D01*
X130500500Y-103839983D01*
X130500500Y-101780000D01*
X150314815Y-101780000D01*
X150333503Y-101957805D01*
X150333504Y-101957807D01*
X150388747Y-102127829D01*
X150388750Y-102127835D01*
X150478141Y-102282665D01*
X150504716Y-102312179D01*
X150597764Y-102415521D01*
X150597767Y-102415523D01*
X150597770Y-102415526D01*
X150742407Y-102520612D01*
X150905733Y-102593329D01*
X151080609Y-102630500D01*
X151080610Y-102630500D01*
X151259389Y-102630500D01*
X151259391Y-102630500D01*
X151434267Y-102593329D01*
X151597593Y-102520612D01*
X151742230Y-102415526D01*
X151861859Y-102282665D01*
X151951250Y-102127835D01*
X152006497Y-101957803D01*
X152025185Y-101780000D01*
X152010470Y-101640000D01*
X155544815Y-101640000D01*
X155563503Y-101817805D01*
X155563504Y-101817807D01*
X155618747Y-101987829D01*
X155618750Y-101987835D01*
X155708141Y-102142665D01*
X155743733Y-102182194D01*
X155827764Y-102275521D01*
X155827767Y-102275523D01*
X155827770Y-102275526D01*
X155972407Y-102380612D01*
X156135733Y-102453329D01*
X156310609Y-102490500D01*
X156310610Y-102490500D01*
X156489389Y-102490500D01*
X156489391Y-102490500D01*
X156664267Y-102453329D01*
X156827593Y-102380612D01*
X156855963Y-102360000D01*
X172824815Y-102360000D01*
X172843503Y-102537805D01*
X172843504Y-102537807D01*
X172898747Y-102707829D01*
X172898750Y-102707835D01*
X172988141Y-102862665D01*
X173029812Y-102908946D01*
X173107764Y-102995521D01*
X173107767Y-102995523D01*
X173107770Y-102995526D01*
X173252407Y-103100612D01*
X173415733Y-103173329D01*
X173590609Y-103210500D01*
X173590610Y-103210500D01*
X173769389Y-103210500D01*
X173769391Y-103210500D01*
X173944267Y-103173329D01*
X174107593Y-103100612D01*
X174252230Y-102995526D01*
X174371859Y-102862665D01*
X174461250Y-102707835D01*
X174516497Y-102537803D01*
X174535185Y-102360000D01*
X174516497Y-102182197D01*
X174461250Y-102012165D01*
X174371859Y-101857335D01*
X174325003Y-101805296D01*
X174252235Y-101724478D01*
X174252232Y-101724476D01*
X174252231Y-101724475D01*
X174252230Y-101724474D01*
X174107593Y-101619388D01*
X173944267Y-101546671D01*
X173944265Y-101546670D01*
X173816594Y-101519533D01*
X173769391Y-101509500D01*
X173590609Y-101509500D01*
X173559954Y-101516015D01*
X173415733Y-101546670D01*
X173415728Y-101546672D01*
X173252408Y-101619387D01*
X173107768Y-101724475D01*
X172988140Y-101857336D01*
X172898750Y-102012164D01*
X172898747Y-102012170D01*
X172843504Y-102182192D01*
X172843503Y-102182194D01*
X172824815Y-102360000D01*
X156855963Y-102360000D01*
X156972230Y-102275526D01*
X157091859Y-102142665D01*
X157181250Y-101987835D01*
X157236497Y-101817803D01*
X157255185Y-101640000D01*
X157236497Y-101462197D01*
X157181250Y-101292165D01*
X157091859Y-101137335D01*
X157045003Y-101085296D01*
X156972235Y-101004478D01*
X156972232Y-101004476D01*
X156972231Y-101004475D01*
X156972230Y-101004474D01*
X156827593Y-100899388D01*
X156664267Y-100826671D01*
X156664265Y-100826670D01*
X156536594Y-100799533D01*
X156489391Y-100789500D01*
X156310609Y-100789500D01*
X156279954Y-100796015D01*
X156135733Y-100826670D01*
X156135728Y-100826672D01*
X155972408Y-100899387D01*
X155827768Y-101004475D01*
X155708140Y-101137336D01*
X155618750Y-101292164D01*
X155618747Y-101292170D01*
X155563504Y-101462192D01*
X155563503Y-101462194D01*
X155544815Y-101640000D01*
X152010470Y-101640000D01*
X152006497Y-101602197D01*
X151961007Y-101462194D01*
X151951252Y-101432170D01*
X151951249Y-101432164D01*
X151932556Y-101399786D01*
X151861859Y-101277335D01*
X151815003Y-101225296D01*
X151742235Y-101144478D01*
X151742232Y-101144476D01*
X151742231Y-101144475D01*
X151742230Y-101144474D01*
X151597593Y-101039388D01*
X151434267Y-100966671D01*
X151434265Y-100966670D01*
X151306594Y-100939533D01*
X151259391Y-100929500D01*
X151080609Y-100929500D01*
X151049954Y-100936015D01*
X150905733Y-100966670D01*
X150905728Y-100966672D01*
X150742408Y-101039387D01*
X150597768Y-101144475D01*
X150478140Y-101277336D01*
X150388750Y-101432164D01*
X150388747Y-101432170D01*
X150333504Y-101602192D01*
X150333503Y-101602194D01*
X150314815Y-101780000D01*
X130500500Y-101780000D01*
X130500500Y-90229983D01*
X131054500Y-90229983D01*
X131054500Y-91530001D01*
X131054501Y-91530018D01*
X131065000Y-91632796D01*
X131065001Y-91632799D01*
X131083736Y-91689336D01*
X131120186Y-91799334D01*
X131189783Y-91912170D01*
X131212289Y-91948657D01*
X131336344Y-92072712D01*
X131491558Y-92168448D01*
X131538283Y-92220396D01*
X131549506Y-92289358D01*
X131521663Y-92353441D01*
X131514144Y-92361668D01*
X131375271Y-92500541D01*
X131250379Y-92672442D01*
X131153904Y-92861782D01*
X131088242Y-93063870D01*
X131088242Y-93063873D01*
X131077769Y-93130000D01*
X132125854Y-93130000D01*
X132087370Y-93196657D01*
X132055000Y-93317465D01*
X132055000Y-93442535D01*
X132087370Y-93563343D01*
X132125854Y-93630000D01*
X131077769Y-93630000D01*
X131088242Y-93696126D01*
X131088242Y-93696129D01*
X131153904Y-93898217D01*
X131250379Y-94087557D01*
X131375272Y-94259459D01*
X131375276Y-94259464D01*
X131525535Y-94409723D01*
X131525540Y-94409727D01*
X131690218Y-94529372D01*
X131732884Y-94584701D01*
X131738863Y-94654315D01*
X131706258Y-94716110D01*
X131690218Y-94730008D01*
X131525214Y-94849890D01*
X131525209Y-94849894D01*
X131374890Y-95000213D01*
X131249951Y-95172179D01*
X131153444Y-95361585D01*
X131087753Y-95563760D01*
X131054500Y-95773713D01*
X131054500Y-95986286D01*
X131078498Y-96137807D01*
X131087754Y-96196243D01*
X131137000Y-96347807D01*
X131153444Y-96398414D01*
X131249951Y-96587820D01*
X131374890Y-96759786D01*
X131525209Y-96910105D01*
X131525214Y-96910109D01*
X131689793Y-97029682D01*
X131732459Y-97085011D01*
X131738438Y-97154625D01*
X131705833Y-97216420D01*
X131689793Y-97230318D01*
X131525214Y-97349890D01*
X131525209Y-97349894D01*
X131374890Y-97500213D01*
X131249951Y-97672179D01*
X131153444Y-97861585D01*
X131087753Y-98063760D01*
X131077850Y-98126286D01*
X131054500Y-98273713D01*
X131054500Y-98486287D01*
X131087754Y-98696243D01*
X131138416Y-98852165D01*
X131153444Y-98898414D01*
X131249951Y-99087820D01*
X131374890Y-99259786D01*
X131525213Y-99410109D01*
X131697179Y-99535048D01*
X131697181Y-99535049D01*
X131697184Y-99535051D01*
X131886588Y-99631557D01*
X132088757Y-99697246D01*
X132298713Y-99730500D01*
X132298714Y-99730500D01*
X132761286Y-99730500D01*
X132761287Y-99730500D01*
X132971243Y-99697246D01*
X133173412Y-99631557D01*
X133362816Y-99535051D01*
X133424975Y-99489890D01*
X133534786Y-99410109D01*
X133534788Y-99410106D01*
X133534792Y-99410104D01*
X133685104Y-99259792D01*
X133685106Y-99259788D01*
X133685109Y-99259786D01*
X133728546Y-99200000D01*
X154574815Y-99200000D01*
X154593503Y-99377805D01*
X154593504Y-99377807D01*
X154648747Y-99547829D01*
X154648750Y-99547835D01*
X154738141Y-99702665D01*
X154763204Y-99730500D01*
X154857764Y-99835521D01*
X154857767Y-99835523D01*
X154857770Y-99835526D01*
X155002407Y-99940612D01*
X155165733Y-100013329D01*
X155340609Y-100050500D01*
X155340610Y-100050500D01*
X155519389Y-100050500D01*
X155519391Y-100050500D01*
X155694267Y-100013329D01*
X155857593Y-99940612D01*
X156002230Y-99835526D01*
X156121859Y-99702665D01*
X156211250Y-99547835D01*
X156266497Y-99377803D01*
X156272478Y-99320895D01*
X156299061Y-99256283D01*
X156345360Y-99220580D01*
X156457593Y-99170612D01*
X156602230Y-99065526D01*
X156721859Y-98932665D01*
X156811250Y-98777835D01*
X156866497Y-98607803D01*
X156885185Y-98430000D01*
X156866497Y-98252197D01*
X156811250Y-98082165D01*
X156721859Y-97927335D01*
X156709594Y-97913713D01*
X179964500Y-97913713D01*
X179964500Y-98126286D01*
X179984441Y-98252192D01*
X179997754Y-98336243D01*
X180046506Y-98486287D01*
X180063444Y-98538414D01*
X180159951Y-98727820D01*
X180284890Y-98899786D01*
X180435209Y-99050105D01*
X180435214Y-99050109D01*
X180599793Y-99169682D01*
X180642459Y-99225011D01*
X180648438Y-99294625D01*
X180615833Y-99356420D01*
X180599793Y-99370318D01*
X180435214Y-99489890D01*
X180435209Y-99489894D01*
X180284890Y-99640213D01*
X180159951Y-99812179D01*
X180063444Y-100001585D01*
X179997753Y-100203760D01*
X179964500Y-100413713D01*
X179964500Y-100626286D01*
X179996237Y-100826670D01*
X179997754Y-100836243D01*
X180052416Y-101004476D01*
X180063444Y-101038414D01*
X180159951Y-101227820D01*
X180284890Y-101399786D01*
X180435209Y-101550105D01*
X180435214Y-101550109D01*
X180599793Y-101669682D01*
X180642459Y-101725011D01*
X180648438Y-101794625D01*
X180615833Y-101856420D01*
X180599793Y-101870318D01*
X180435214Y-101989890D01*
X180435209Y-101989894D01*
X180284890Y-102140213D01*
X180159951Y-102312179D01*
X180063444Y-102501585D01*
X179997753Y-102703760D01*
X179964500Y-102913713D01*
X179964500Y-103126286D01*
X179996506Y-103328368D01*
X179997754Y-103336243D01*
X180059844Y-103527336D01*
X180063444Y-103538414D01*
X180159951Y-103727820D01*
X180284890Y-103899786D01*
X180435209Y-104050105D01*
X180435214Y-104050109D01*
X180599793Y-104169682D01*
X180642459Y-104225011D01*
X180648438Y-104294625D01*
X180615833Y-104356420D01*
X180599793Y-104370318D01*
X180435214Y-104489890D01*
X180435209Y-104489894D01*
X180284890Y-104640213D01*
X180159951Y-104812179D01*
X180063444Y-105001585D01*
X179997753Y-105203760D01*
X179964500Y-105413713D01*
X179964500Y-105626286D01*
X179995879Y-105824410D01*
X179997754Y-105836243D01*
X180041756Y-105971668D01*
X180063444Y-106038414D01*
X180159951Y-106227820D01*
X180284890Y-106399786D01*
X180435209Y-106550105D01*
X180435214Y-106550109D01*
X180600218Y-106669991D01*
X180642884Y-106725320D01*
X180648863Y-106794934D01*
X180616258Y-106856729D01*
X180600218Y-106870627D01*
X180435540Y-106990272D01*
X180435535Y-106990276D01*
X180285276Y-107140535D01*
X180285272Y-107140540D01*
X180160379Y-107312442D01*
X180063904Y-107501782D01*
X179998242Y-107703870D01*
X179998242Y-107703873D01*
X179987769Y-107770000D01*
X181035854Y-107770000D01*
X180997370Y-107836657D01*
X180965000Y-107957465D01*
X180965000Y-108082535D01*
X180997370Y-108203343D01*
X181035854Y-108270000D01*
X179987769Y-108270000D01*
X179998242Y-108336126D01*
X179998242Y-108336129D01*
X180063904Y-108538217D01*
X180160379Y-108727557D01*
X180285272Y-108899459D01*
X180285276Y-108899464D01*
X180424143Y-109038331D01*
X180457628Y-109099654D01*
X180452644Y-109169346D01*
X180410772Y-109225279D01*
X180401559Y-109231551D01*
X180246342Y-109327289D01*
X180122289Y-109451342D01*
X180030187Y-109600663D01*
X180030186Y-109600666D01*
X179975001Y-109767203D01*
X179975001Y-109767204D01*
X179975000Y-109767204D01*
X179964500Y-109869983D01*
X179964500Y-111170001D01*
X179964501Y-111170018D01*
X179975000Y-111272796D01*
X179975001Y-111272799D01*
X180030185Y-111439331D01*
X180030186Y-111439334D01*
X180122288Y-111588656D01*
X180246344Y-111712712D01*
X180395666Y-111804814D01*
X180562203Y-111859999D01*
X180664991Y-111870500D01*
X182215008Y-111870499D01*
X182317797Y-111859999D01*
X182484334Y-111804814D01*
X182633656Y-111712712D01*
X182757712Y-111588656D01*
X182849814Y-111439334D01*
X182904999Y-111272797D01*
X182915500Y-111170009D01*
X182915499Y-109869992D01*
X182904999Y-109767203D01*
X182849814Y-109600666D01*
X182757712Y-109451344D01*
X182633656Y-109327288D01*
X182484334Y-109235186D01*
X182484332Y-109235185D01*
X182478440Y-109231551D01*
X182431716Y-109179603D01*
X182420493Y-109110641D01*
X182448337Y-109046558D01*
X182455856Y-109038330D01*
X182594728Y-108899458D01*
X182719620Y-108727557D01*
X182816095Y-108538217D01*
X182881757Y-108336129D01*
X182881757Y-108336126D01*
X182892231Y-108270000D01*
X181844146Y-108270000D01*
X181882630Y-108203343D01*
X181915000Y-108082535D01*
X181915000Y-107957465D01*
X181882630Y-107836657D01*
X181844146Y-107770000D01*
X182892231Y-107770000D01*
X182881757Y-107703873D01*
X182881757Y-107703870D01*
X182816095Y-107501782D01*
X182719620Y-107312442D01*
X182594727Y-107140540D01*
X182594723Y-107140535D01*
X182444464Y-106990276D01*
X182444459Y-106990272D01*
X182279781Y-106870627D01*
X182237115Y-106815297D01*
X182231136Y-106745684D01*
X182263741Y-106683889D01*
X182279776Y-106669994D01*
X182444792Y-106550104D01*
X182595104Y-106399792D01*
X182595106Y-106399788D01*
X182595109Y-106399786D01*
X182720048Y-106227820D01*
X182720047Y-106227820D01*
X182720051Y-106227816D01*
X182816557Y-106038412D01*
X182882246Y-105836243D01*
X182915500Y-105626287D01*
X182915500Y-105413713D01*
X182882246Y-105203757D01*
X182816557Y-105001588D01*
X182720051Y-104812184D01*
X182720049Y-104812181D01*
X182720048Y-104812179D01*
X182595109Y-104640213D01*
X182444792Y-104489896D01*
X182402922Y-104459476D01*
X182280204Y-104370316D01*
X182237540Y-104314989D01*
X182231561Y-104245376D01*
X182264166Y-104183580D01*
X182280199Y-104169686D01*
X182444792Y-104050104D01*
X182595104Y-103899792D01*
X182595106Y-103899788D01*
X182595109Y-103899786D01*
X182720048Y-103727820D01*
X182720047Y-103727820D01*
X182720051Y-103727816D01*
X182816557Y-103538412D01*
X182882246Y-103336243D01*
X182915500Y-103126287D01*
X182915500Y-102913713D01*
X182882246Y-102703757D01*
X182816557Y-102501588D01*
X182720051Y-102312184D01*
X182720049Y-102312181D01*
X182720048Y-102312179D01*
X182595109Y-102140213D01*
X182444792Y-101989896D01*
X182400619Y-101957803D01*
X182280204Y-101870316D01*
X182237540Y-101814989D01*
X182231561Y-101745376D01*
X182264166Y-101683580D01*
X182280199Y-101669686D01*
X182444792Y-101550104D01*
X182595104Y-101399792D01*
X182595106Y-101399788D01*
X182595109Y-101399786D01*
X182720048Y-101227820D01*
X182720047Y-101227820D01*
X182720051Y-101227816D01*
X182816557Y-101038412D01*
X182882246Y-100836243D01*
X182915500Y-100626287D01*
X182915500Y-100413713D01*
X182882246Y-100203757D01*
X182816557Y-100001588D01*
X182720051Y-99812184D01*
X182720049Y-99812181D01*
X182720048Y-99812179D01*
X182595109Y-99640213D01*
X182444792Y-99489896D01*
X182444784Y-99489890D01*
X182280204Y-99370316D01*
X182237540Y-99314989D01*
X182231561Y-99245376D01*
X182264166Y-99183580D01*
X182280199Y-99169686D01*
X182444792Y-99050104D01*
X182595104Y-98899792D01*
X182595106Y-98899788D01*
X182595109Y-98899786D01*
X182720048Y-98727820D01*
X182720047Y-98727820D01*
X182720051Y-98727816D01*
X182816557Y-98538412D01*
X182882246Y-98336243D01*
X182915500Y-98126287D01*
X182915500Y-97913713D01*
X182882246Y-97703757D01*
X182816557Y-97501588D01*
X182720051Y-97312184D01*
X182720049Y-97312181D01*
X182720048Y-97312179D01*
X182595109Y-97140213D01*
X182444786Y-96989890D01*
X182272820Y-96864951D01*
X182083414Y-96768444D01*
X182083413Y-96768443D01*
X182083412Y-96768443D01*
X181881243Y-96702754D01*
X181881241Y-96702753D01*
X181881240Y-96702753D01*
X181719957Y-96677208D01*
X181671287Y-96669500D01*
X181208713Y-96669500D01*
X181160042Y-96677208D01*
X180998760Y-96702753D01*
X180796585Y-96768444D01*
X180607179Y-96864951D01*
X180435213Y-96989890D01*
X180284890Y-97140213D01*
X180159951Y-97312179D01*
X180063444Y-97501585D01*
X179997753Y-97703760D01*
X179964500Y-97913713D01*
X156709594Y-97913713D01*
X156662657Y-97861585D01*
X156602235Y-97794478D01*
X156602232Y-97794476D01*
X156602231Y-97794475D01*
X156602230Y-97794474D01*
X156457593Y-97689388D01*
X156294267Y-97616671D01*
X156294265Y-97616670D01*
X156166594Y-97589533D01*
X156119391Y-97579500D01*
X155940609Y-97579500D01*
X155909954Y-97586015D01*
X155765733Y-97616670D01*
X155765728Y-97616672D01*
X155602408Y-97689387D01*
X155457768Y-97794475D01*
X155338140Y-97927336D01*
X155248750Y-98082164D01*
X155248747Y-98082170D01*
X155193504Y-98252192D01*
X155193502Y-98252202D01*
X155187520Y-98309106D01*
X155160934Y-98373720D01*
X155114636Y-98409420D01*
X155002408Y-98459387D01*
X154857768Y-98564475D01*
X154738140Y-98697336D01*
X154648750Y-98852164D01*
X154648747Y-98852170D01*
X154593504Y-99022192D01*
X154593503Y-99022194D01*
X154574815Y-99200000D01*
X133728546Y-99200000D01*
X133810048Y-99087820D01*
X133810047Y-99087820D01*
X133810051Y-99087816D01*
X133906557Y-98898412D01*
X133972246Y-98696243D01*
X134005500Y-98486287D01*
X134005500Y-98273713D01*
X133972246Y-98063757D01*
X133906557Y-97861588D01*
X133810051Y-97672184D01*
X133810049Y-97672181D01*
X133810048Y-97672179D01*
X133685109Y-97500213D01*
X133534792Y-97349896D01*
X133534784Y-97349890D01*
X133370204Y-97230316D01*
X133327540Y-97174989D01*
X133321561Y-97105376D01*
X133354166Y-97043580D01*
X133370199Y-97029686D01*
X133534792Y-96910104D01*
X133685104Y-96759792D01*
X133685106Y-96759788D01*
X133685109Y-96759786D01*
X133810048Y-96587820D01*
X133810047Y-96587820D01*
X133810051Y-96587816D01*
X133906557Y-96398412D01*
X133972246Y-96196243D01*
X134005500Y-95986287D01*
X134005500Y-95960000D01*
X160204815Y-95960000D01*
X160223503Y-96137805D01*
X160223504Y-96137807D01*
X160278747Y-96307829D01*
X160278750Y-96307835D01*
X160368141Y-96462665D01*
X160409812Y-96508946D01*
X160487764Y-96595521D01*
X160487767Y-96595523D01*
X160487770Y-96595526D01*
X160632407Y-96700612D01*
X160795733Y-96773329D01*
X160970609Y-96810500D01*
X160970610Y-96810500D01*
X161149389Y-96810500D01*
X161149391Y-96810500D01*
X161324267Y-96773329D01*
X161487593Y-96700612D01*
X161632230Y-96595526D01*
X161639173Y-96587816D01*
X161658148Y-96566741D01*
X161751859Y-96462665D01*
X161841250Y-96307835D01*
X161886036Y-96170000D01*
X166164815Y-96170000D01*
X166183503Y-96347805D01*
X166183504Y-96347807D01*
X166238747Y-96517829D01*
X166238750Y-96517835D01*
X166328141Y-96672665D01*
X166369812Y-96718946D01*
X166447764Y-96805521D01*
X166447767Y-96805523D01*
X166447770Y-96805526D01*
X166592407Y-96910612D01*
X166755733Y-96983329D01*
X166930609Y-97020500D01*
X166930610Y-97020500D01*
X167109389Y-97020500D01*
X167109391Y-97020500D01*
X167284267Y-96983329D01*
X167447593Y-96910612D01*
X167592230Y-96805526D01*
X167711859Y-96672665D01*
X167801250Y-96517835D01*
X167856497Y-96347803D01*
X167875185Y-96170000D01*
X167856497Y-95992197D01*
X167801250Y-95822165D01*
X167711859Y-95667335D01*
X167662183Y-95612164D01*
X167592235Y-95534478D01*
X167592232Y-95534476D01*
X167592231Y-95534475D01*
X167592230Y-95534474D01*
X167447593Y-95429388D01*
X167284267Y-95356671D01*
X167284265Y-95356670D01*
X167156594Y-95329533D01*
X167109391Y-95319500D01*
X166930609Y-95319500D01*
X166899954Y-95326015D01*
X166755733Y-95356670D01*
X166755728Y-95356672D01*
X166592408Y-95429387D01*
X166447768Y-95534475D01*
X166328140Y-95667336D01*
X166238750Y-95822164D01*
X166238747Y-95822170D01*
X166183504Y-95992192D01*
X166183503Y-95992194D01*
X166164815Y-96170000D01*
X161886036Y-96170000D01*
X161896497Y-96137803D01*
X161915185Y-95960000D01*
X161896497Y-95782197D01*
X161841250Y-95612165D01*
X161751859Y-95457335D01*
X161665648Y-95361588D01*
X161632235Y-95324478D01*
X161632232Y-95324476D01*
X161632231Y-95324475D01*
X161632230Y-95324474D01*
X161487593Y-95219388D01*
X161324267Y-95146671D01*
X161324265Y-95146670D01*
X161196594Y-95119533D01*
X161149391Y-95109500D01*
X160970609Y-95109500D01*
X160939954Y-95116015D01*
X160795733Y-95146670D01*
X160795728Y-95146672D01*
X160632408Y-95219387D01*
X160487768Y-95324475D01*
X160368140Y-95457336D01*
X160278750Y-95612164D01*
X160278747Y-95612170D01*
X160223504Y-95782192D01*
X160223503Y-95782194D01*
X160204815Y-95960000D01*
X134005500Y-95960000D01*
X134005500Y-95773713D01*
X133972246Y-95563757D01*
X133906557Y-95361588D01*
X133810051Y-95172184D01*
X133810049Y-95172181D01*
X133810048Y-95172179D01*
X133685109Y-95000213D01*
X133534790Y-94849894D01*
X133534785Y-94849890D01*
X133369781Y-94730008D01*
X133327115Y-94674678D01*
X133321136Y-94605065D01*
X133353741Y-94543270D01*
X133369781Y-94529371D01*
X133534466Y-94409721D01*
X133684723Y-94259464D01*
X133684727Y-94259459D01*
X133809620Y-94087557D01*
X133838947Y-94030000D01*
X142734815Y-94030000D01*
X142753503Y-94207805D01*
X142753504Y-94207807D01*
X142808747Y-94377829D01*
X142808750Y-94377835D01*
X142898141Y-94532665D01*
X142939812Y-94578946D01*
X143017764Y-94665521D01*
X143017767Y-94665523D01*
X143017770Y-94665526D01*
X143162407Y-94770612D01*
X143325733Y-94843329D01*
X143500609Y-94880500D01*
X143500610Y-94880500D01*
X143679389Y-94880500D01*
X143679391Y-94880500D01*
X143854267Y-94843329D01*
X144017593Y-94770612D01*
X144162230Y-94665526D01*
X144172325Y-94654315D01*
X144195620Y-94628443D01*
X144281859Y-94532665D01*
X144371250Y-94377835D01*
X144426497Y-94207803D01*
X144445185Y-94030000D01*
X144426497Y-93852197D01*
X144396571Y-93760095D01*
X144371252Y-93682170D01*
X144371249Y-93682164D01*
X144365183Y-93671657D01*
X144281859Y-93527335D01*
X144212226Y-93450000D01*
X165584815Y-93450000D01*
X165603503Y-93627805D01*
X165603504Y-93627807D01*
X165658747Y-93797829D01*
X165658750Y-93797835D01*
X165748141Y-93952665D01*
X165789812Y-93998946D01*
X165867764Y-94085521D01*
X165867767Y-94085523D01*
X165867770Y-94085526D01*
X166012407Y-94190612D01*
X166175733Y-94263329D01*
X166350609Y-94300500D01*
X166350610Y-94300500D01*
X166529389Y-94300500D01*
X166529391Y-94300500D01*
X166704267Y-94263329D01*
X166867593Y-94190612D01*
X167012230Y-94085526D01*
X167131859Y-93952665D01*
X167221250Y-93797835D01*
X167276497Y-93627803D01*
X167295185Y-93450000D01*
X167276497Y-93272197D01*
X167230294Y-93130000D01*
X167221252Y-93102170D01*
X167221249Y-93102164D01*
X167131859Y-92947335D01*
X167085003Y-92895296D01*
X167012235Y-92814478D01*
X167012232Y-92814476D01*
X167012231Y-92814475D01*
X167012230Y-92814474D01*
X166867593Y-92709388D01*
X166704267Y-92636671D01*
X166704265Y-92636670D01*
X166568576Y-92607829D01*
X166529391Y-92599500D01*
X166350609Y-92599500D01*
X166319954Y-92606015D01*
X166175733Y-92636670D01*
X166175728Y-92636672D01*
X166012408Y-92709387D01*
X165867768Y-92814475D01*
X165748140Y-92947336D01*
X165658750Y-93102164D01*
X165658747Y-93102170D01*
X165603504Y-93272192D01*
X165603503Y-93272194D01*
X165584815Y-93450000D01*
X144212226Y-93450000D01*
X144162235Y-93394478D01*
X144162232Y-93394476D01*
X144162231Y-93394475D01*
X144162230Y-93394474D01*
X144017593Y-93289388D01*
X143854267Y-93216671D01*
X143854265Y-93216670D01*
X143726594Y-93189533D01*
X143679391Y-93179500D01*
X143500609Y-93179500D01*
X143469954Y-93186015D01*
X143325733Y-93216670D01*
X143325728Y-93216672D01*
X143162408Y-93289387D01*
X143017768Y-93394475D01*
X142898140Y-93527336D01*
X142808750Y-93682164D01*
X142808747Y-93682170D01*
X142753504Y-93852192D01*
X142753503Y-93852194D01*
X142734815Y-94030000D01*
X133838947Y-94030000D01*
X133906095Y-93898217D01*
X133971757Y-93696129D01*
X133971757Y-93696126D01*
X133982231Y-93630000D01*
X132934146Y-93630000D01*
X132972630Y-93563343D01*
X133005000Y-93442535D01*
X133005000Y-93317465D01*
X132972630Y-93196657D01*
X132934146Y-93130000D01*
X133982231Y-93130000D01*
X133971757Y-93063873D01*
X133971757Y-93063870D01*
X133906095Y-92861782D01*
X133809620Y-92672442D01*
X133684727Y-92500540D01*
X133684723Y-92500535D01*
X133545856Y-92361668D01*
X133512371Y-92300345D01*
X133515256Y-92260000D01*
X138114815Y-92260000D01*
X138133503Y-92437805D01*
X138133504Y-92437807D01*
X138188747Y-92607829D01*
X138188750Y-92607835D01*
X138278141Y-92762665D01*
X138319812Y-92808946D01*
X138397764Y-92895521D01*
X138397767Y-92895523D01*
X138397770Y-92895526D01*
X138542407Y-93000612D01*
X138705733Y-93073329D01*
X138880609Y-93110500D01*
X138880610Y-93110500D01*
X139059389Y-93110500D01*
X139059391Y-93110500D01*
X139234267Y-93073329D01*
X139397593Y-93000612D01*
X139542230Y-92895526D01*
X139661859Y-92762665D01*
X139751250Y-92607835D01*
X139806497Y-92437803D01*
X139825185Y-92260000D01*
X139806497Y-92082197D01*
X139751250Y-91912165D01*
X139661859Y-91757335D01*
X139600632Y-91689336D01*
X139542235Y-91624478D01*
X139542232Y-91624476D01*
X139542231Y-91624475D01*
X139542230Y-91624474D01*
X139397593Y-91519388D01*
X139234267Y-91446671D01*
X139234265Y-91446670D01*
X139106594Y-91419533D01*
X139059391Y-91409500D01*
X138880609Y-91409500D01*
X138849954Y-91416015D01*
X138705733Y-91446670D01*
X138705728Y-91446672D01*
X138542408Y-91519387D01*
X138397768Y-91624475D01*
X138278140Y-91757336D01*
X138188750Y-91912164D01*
X138188747Y-91912170D01*
X138133504Y-92082192D01*
X138133503Y-92082194D01*
X138114815Y-92260000D01*
X133515256Y-92260000D01*
X133517355Y-92230653D01*
X133559227Y-92174720D01*
X133568441Y-92168448D01*
X133574331Y-92164814D01*
X133574334Y-92164814D01*
X133723656Y-92072712D01*
X133847712Y-91948656D01*
X133939814Y-91799334D01*
X133994999Y-91632797D01*
X134005500Y-91530009D01*
X134005500Y-91030000D01*
X172334815Y-91030000D01*
X172353503Y-91207805D01*
X172353504Y-91207807D01*
X172408747Y-91377829D01*
X172408750Y-91377835D01*
X172498141Y-91532665D01*
X172539812Y-91578946D01*
X172617764Y-91665521D01*
X172617767Y-91665523D01*
X172617770Y-91665526D01*
X172762407Y-91770612D01*
X172925733Y-91843329D01*
X173100609Y-91880500D01*
X173100610Y-91880500D01*
X173279389Y-91880500D01*
X173279391Y-91880500D01*
X173454267Y-91843329D01*
X173617593Y-91770612D01*
X173762230Y-91665526D01*
X173881859Y-91532665D01*
X173971250Y-91377835D01*
X174026497Y-91207803D01*
X174045185Y-91030000D01*
X174026497Y-90852197D01*
X173971250Y-90682165D01*
X173881859Y-90527335D01*
X173835003Y-90475296D01*
X173762235Y-90394478D01*
X173762232Y-90394476D01*
X173762231Y-90394475D01*
X173762230Y-90394474D01*
X173617593Y-90289388D01*
X173454267Y-90216671D01*
X173454265Y-90216670D01*
X173326594Y-90189533D01*
X173279391Y-90179500D01*
X173100609Y-90179500D01*
X173069954Y-90186015D01*
X172925733Y-90216670D01*
X172925728Y-90216672D01*
X172762408Y-90289387D01*
X172617768Y-90394475D01*
X172498140Y-90527336D01*
X172408750Y-90682164D01*
X172408747Y-90682170D01*
X172353504Y-90852192D01*
X172353503Y-90852194D01*
X172334815Y-91030000D01*
X134005500Y-91030000D01*
X134005499Y-90229992D01*
X133994999Y-90127203D01*
X133939814Y-89960666D01*
X133847712Y-89811344D01*
X133723656Y-89687288D01*
X133574334Y-89595186D01*
X133407797Y-89540001D01*
X133407795Y-89540000D01*
X133305010Y-89529500D01*
X131754998Y-89529500D01*
X131754981Y-89529501D01*
X131652203Y-89540000D01*
X131652200Y-89540001D01*
X131485668Y-89595185D01*
X131485663Y-89595187D01*
X131336342Y-89687289D01*
X131212289Y-89811342D01*
X131120187Y-89960663D01*
X131120186Y-89960666D01*
X131065001Y-90127203D01*
X131065001Y-90127204D01*
X131065000Y-90127204D01*
X131054500Y-90229983D01*
X130500500Y-90229983D01*
X130500500Y-89200000D01*
X165194815Y-89200000D01*
X165213503Y-89377805D01*
X165213504Y-89377807D01*
X165268747Y-89547829D01*
X165268750Y-89547835D01*
X165358141Y-89702665D01*
X165399812Y-89748946D01*
X165477764Y-89835521D01*
X165477767Y-89835523D01*
X165477770Y-89835526D01*
X165622407Y-89940612D01*
X165785733Y-90013329D01*
X165960609Y-90050500D01*
X165960610Y-90050500D01*
X166139389Y-90050500D01*
X166139391Y-90050500D01*
X166314267Y-90013329D01*
X166477593Y-89940612D01*
X166622230Y-89835526D01*
X166644006Y-89811342D01*
X166648148Y-89806741D01*
X166741859Y-89702665D01*
X166831250Y-89547835D01*
X166886497Y-89377803D01*
X166905185Y-89200000D01*
X166886497Y-89022197D01*
X166831250Y-88852165D01*
X166741859Y-88697335D01*
X166695003Y-88645296D01*
X166622235Y-88564478D01*
X166622232Y-88564476D01*
X166622231Y-88564475D01*
X166622230Y-88564474D01*
X166477593Y-88459388D01*
X166314267Y-88386671D01*
X166314265Y-88386670D01*
X166186594Y-88359533D01*
X166139391Y-88349500D01*
X165960609Y-88349500D01*
X165929954Y-88356015D01*
X165785733Y-88386670D01*
X165785728Y-88386672D01*
X165622408Y-88459387D01*
X165477768Y-88564475D01*
X165358140Y-88697336D01*
X165268750Y-88852164D01*
X165268747Y-88852170D01*
X165213504Y-89022192D01*
X165213503Y-89022194D01*
X165194815Y-89200000D01*
X130500500Y-89200000D01*
X130500500Y-87210000D01*
X137904815Y-87210000D01*
X137923503Y-87387805D01*
X137923504Y-87387807D01*
X137978747Y-87557829D01*
X137978750Y-87557835D01*
X138068141Y-87712665D01*
X138103362Y-87751782D01*
X138187764Y-87845521D01*
X138187767Y-87845523D01*
X138187770Y-87845526D01*
X138332407Y-87950612D01*
X138495733Y-88023329D01*
X138670609Y-88060500D01*
X138670610Y-88060500D01*
X138849389Y-88060500D01*
X138849391Y-88060500D01*
X139024267Y-88023329D01*
X139187593Y-87950612D01*
X139332230Y-87845526D01*
X139451859Y-87712665D01*
X139541250Y-87557835D01*
X139596497Y-87387803D01*
X139615185Y-87210000D01*
X139596497Y-87032197D01*
X139556080Y-86907807D01*
X139541252Y-86862170D01*
X139541249Y-86862164D01*
X139464945Y-86730000D01*
X156374815Y-86730000D01*
X156393503Y-86907805D01*
X156393504Y-86907807D01*
X156448747Y-87077829D01*
X156448751Y-87077837D01*
X156469053Y-87113002D01*
X156485524Y-87180902D01*
X156469053Y-87236998D01*
X156448751Y-87272162D01*
X156448747Y-87272170D01*
X156393504Y-87442192D01*
X156393503Y-87442194D01*
X156374815Y-87620000D01*
X156393503Y-87797805D01*
X156393504Y-87797807D01*
X156448747Y-87967829D01*
X156448750Y-87967835D01*
X156538141Y-88122665D01*
X156579812Y-88168946D01*
X156657764Y-88255521D01*
X156657767Y-88255523D01*
X156657770Y-88255526D01*
X156802407Y-88360612D01*
X156965733Y-88433329D01*
X157140609Y-88470500D01*
X157140610Y-88470500D01*
X157319389Y-88470500D01*
X157319391Y-88470500D01*
X157494267Y-88433329D01*
X157657593Y-88360612D01*
X157802230Y-88255526D01*
X157921859Y-88122665D01*
X158011250Y-87967835D01*
X158066497Y-87797803D01*
X158085185Y-87620000D01*
X158066497Y-87442197D01*
X158011250Y-87272165D01*
X158011250Y-87272164D01*
X157990948Y-87237001D01*
X157974474Y-87169101D01*
X157990948Y-87112999D01*
X158011250Y-87077835D01*
X158030444Y-87018762D01*
X158066497Y-86907803D01*
X158085185Y-86730000D01*
X158066497Y-86552197D01*
X158015964Y-86396672D01*
X158011252Y-86382170D01*
X158011249Y-86382164D01*
X157978908Y-86326147D01*
X162310827Y-86326147D01*
X162329515Y-86503952D01*
X162329516Y-86503954D01*
X162384759Y-86673976D01*
X162384762Y-86673982D01*
X162474153Y-86828812D01*
X162504189Y-86862170D01*
X162593776Y-86961668D01*
X162593779Y-86961670D01*
X162593782Y-86961673D01*
X162738419Y-87066759D01*
X162901745Y-87139476D01*
X163076621Y-87176647D01*
X163076622Y-87176647D01*
X163255401Y-87176647D01*
X163255403Y-87176647D01*
X163430279Y-87139476D01*
X163506144Y-87105698D01*
X163575388Y-87096413D01*
X163629464Y-87118662D01*
X163636606Y-87123851D01*
X163799932Y-87196568D01*
X163974808Y-87233739D01*
X163974809Y-87233739D01*
X164153588Y-87233739D01*
X164153590Y-87233739D01*
X164328466Y-87196568D01*
X164491792Y-87123851D01*
X164636429Y-87018765D01*
X164756058Y-86885904D01*
X164845449Y-86731074D01*
X164900696Y-86561042D01*
X164919384Y-86383239D01*
X164900696Y-86205436D01*
X164873072Y-86120420D01*
X164845451Y-86035409D01*
X164845448Y-86035403D01*
X164818882Y-85989389D01*
X164756058Y-85880574D01*
X164704652Y-85823482D01*
X164636434Y-85747717D01*
X164636431Y-85747715D01*
X164636430Y-85747714D01*
X164636429Y-85747713D01*
X164491792Y-85642627D01*
X164328466Y-85569910D01*
X164328464Y-85569909D01*
X164200793Y-85542772D01*
X164153590Y-85532739D01*
X163974808Y-85532739D01*
X163937638Y-85540639D01*
X163799933Y-85569909D01*
X163799928Y-85569911D01*
X163724067Y-85603686D01*
X163654817Y-85612970D01*
X163600748Y-85590725D01*
X163593606Y-85585536D01*
X163593605Y-85585535D01*
X163430279Y-85512818D01*
X163430277Y-85512817D01*
X163302606Y-85485680D01*
X163255403Y-85475647D01*
X163076621Y-85475647D01*
X163045966Y-85482162D01*
X162901745Y-85512817D01*
X162901740Y-85512819D01*
X162738420Y-85585534D01*
X162593780Y-85690622D01*
X162474152Y-85823483D01*
X162384762Y-85978311D01*
X162384759Y-85978317D01*
X162329516Y-86148339D01*
X162329515Y-86148341D01*
X162310827Y-86326147D01*
X157978908Y-86326147D01*
X157921859Y-86227335D01*
X157850735Y-86148344D01*
X157802235Y-86094478D01*
X157802232Y-86094476D01*
X157802231Y-86094475D01*
X157802230Y-86094474D01*
X157657593Y-85989388D01*
X157494267Y-85916671D01*
X157494265Y-85916670D01*
X157324448Y-85880575D01*
X157319391Y-85879500D01*
X157140609Y-85879500D01*
X157135552Y-85880575D01*
X156965733Y-85916670D01*
X156965728Y-85916672D01*
X156802408Y-85989387D01*
X156657768Y-86094475D01*
X156538140Y-86227336D01*
X156448750Y-86382164D01*
X156448747Y-86382170D01*
X156393504Y-86552192D01*
X156393503Y-86552194D01*
X156374815Y-86730000D01*
X139464945Y-86730000D01*
X139451859Y-86707335D01*
X139400047Y-86649792D01*
X139332235Y-86574478D01*
X139332232Y-86574476D01*
X139332231Y-86574475D01*
X139332230Y-86574474D01*
X139187593Y-86469388D01*
X139024267Y-86396671D01*
X139024265Y-86396670D01*
X138896594Y-86369533D01*
X138849391Y-86359500D01*
X138670609Y-86359500D01*
X138639954Y-86366015D01*
X138495733Y-86396670D01*
X138495728Y-86396672D01*
X138332408Y-86469387D01*
X138187768Y-86574475D01*
X138068140Y-86707336D01*
X137978750Y-86862164D01*
X137978747Y-86862170D01*
X137923504Y-87032192D01*
X137923503Y-87032194D01*
X137904815Y-87210000D01*
X130500500Y-87210000D01*
X130500500Y-76059983D01*
X131024500Y-76059983D01*
X131024500Y-77360001D01*
X131024501Y-77360018D01*
X131035000Y-77462796D01*
X131035001Y-77462799D01*
X131090185Y-77629331D01*
X131090186Y-77629334D01*
X131182288Y-77778656D01*
X131306344Y-77902712D01*
X131389106Y-77953760D01*
X131461558Y-77998448D01*
X131508283Y-78050396D01*
X131519506Y-78119358D01*
X131491663Y-78183441D01*
X131484144Y-78191668D01*
X131345271Y-78330541D01*
X131220379Y-78502442D01*
X131123904Y-78691782D01*
X131058242Y-78893870D01*
X131058242Y-78893873D01*
X131047769Y-78960000D01*
X132095854Y-78960000D01*
X132057370Y-79026657D01*
X132025000Y-79147465D01*
X132025000Y-79272535D01*
X132057370Y-79393343D01*
X132095854Y-79460000D01*
X131047769Y-79460000D01*
X131058242Y-79526126D01*
X131058242Y-79526129D01*
X131123904Y-79728217D01*
X131220379Y-79917557D01*
X131345272Y-80089459D01*
X131345276Y-80089464D01*
X131495535Y-80239723D01*
X131495540Y-80239727D01*
X131660218Y-80359372D01*
X131702884Y-80414701D01*
X131708863Y-80484315D01*
X131676258Y-80546110D01*
X131660218Y-80560008D01*
X131495214Y-80679890D01*
X131495209Y-80679894D01*
X131344890Y-80830213D01*
X131219951Y-81002179D01*
X131123444Y-81191585D01*
X131057753Y-81393760D01*
X131024500Y-81603713D01*
X131024500Y-81816286D01*
X131049639Y-81975011D01*
X131057754Y-82026243D01*
X131102669Y-82164478D01*
X131123444Y-82228414D01*
X131219951Y-82417820D01*
X131344890Y-82589786D01*
X131495209Y-82740105D01*
X131495214Y-82740109D01*
X131659793Y-82859682D01*
X131702459Y-82915011D01*
X131708438Y-82984625D01*
X131675833Y-83046420D01*
X131659793Y-83060318D01*
X131495214Y-83179890D01*
X131495209Y-83179894D01*
X131344890Y-83330213D01*
X131219951Y-83502179D01*
X131123444Y-83691585D01*
X131057753Y-83893760D01*
X131024500Y-84103713D01*
X131024500Y-84316286D01*
X131056056Y-84515526D01*
X131057754Y-84526243D01*
X131088416Y-84620612D01*
X131123444Y-84728414D01*
X131219951Y-84917820D01*
X131344890Y-85089786D01*
X131495213Y-85240109D01*
X131667179Y-85365048D01*
X131667181Y-85365049D01*
X131667184Y-85365051D01*
X131856588Y-85461557D01*
X132058757Y-85527246D01*
X132268713Y-85560500D01*
X132268714Y-85560500D01*
X132731286Y-85560500D01*
X132731287Y-85560500D01*
X132941243Y-85527246D01*
X133143412Y-85461557D01*
X133332816Y-85365051D01*
X133488990Y-85251585D01*
X133504786Y-85240109D01*
X133504788Y-85240106D01*
X133504792Y-85240104D01*
X133655104Y-85089792D01*
X133655106Y-85089788D01*
X133655109Y-85089786D01*
X133780048Y-84917820D01*
X133780047Y-84917820D01*
X133780051Y-84917816D01*
X133876557Y-84728412D01*
X133942246Y-84526243D01*
X133975500Y-84316287D01*
X133975500Y-84103713D01*
X133942246Y-83893757D01*
X133937776Y-83880000D01*
X135014815Y-83880000D01*
X135033503Y-84057805D01*
X135033504Y-84057807D01*
X135088747Y-84227829D01*
X135088750Y-84227835D01*
X135178141Y-84382665D01*
X135216306Y-84425051D01*
X135297764Y-84515521D01*
X135297767Y-84515523D01*
X135297770Y-84515526D01*
X135442407Y-84620612D01*
X135605733Y-84693329D01*
X135780609Y-84730500D01*
X135780610Y-84730500D01*
X135959389Y-84730500D01*
X135959391Y-84730500D01*
X136134267Y-84693329D01*
X136297593Y-84620612D01*
X136442230Y-84515526D01*
X136561859Y-84382665D01*
X136651250Y-84227835D01*
X136706497Y-84057803D01*
X136725185Y-83880000D01*
X136706497Y-83702197D01*
X136651250Y-83532165D01*
X136561859Y-83377335D01*
X136494624Y-83302663D01*
X136442235Y-83244478D01*
X136442232Y-83244476D01*
X136442231Y-83244475D01*
X136442230Y-83244474D01*
X136297593Y-83139388D01*
X136134267Y-83066671D01*
X136134265Y-83066670D01*
X136006594Y-83039533D01*
X135959391Y-83029500D01*
X135780609Y-83029500D01*
X135749954Y-83036015D01*
X135605733Y-83066670D01*
X135605728Y-83066672D01*
X135442408Y-83139387D01*
X135297768Y-83244475D01*
X135178140Y-83377336D01*
X135088750Y-83532164D01*
X135088747Y-83532170D01*
X135033504Y-83702192D01*
X135033503Y-83702194D01*
X135014815Y-83880000D01*
X133937776Y-83880000D01*
X133876557Y-83691588D01*
X133780051Y-83502184D01*
X133780049Y-83502181D01*
X133780048Y-83502179D01*
X133655109Y-83330213D01*
X133504792Y-83179896D01*
X133480424Y-83162192D01*
X133340204Y-83060316D01*
X133297540Y-83004989D01*
X133291561Y-82935376D01*
X133324166Y-82873580D01*
X133340199Y-82859686D01*
X133504792Y-82740104D01*
X133655104Y-82589792D01*
X133655106Y-82589788D01*
X133655109Y-82589786D01*
X133780048Y-82417820D01*
X133780047Y-82417820D01*
X133780051Y-82417816D01*
X133876557Y-82228412D01*
X133942246Y-82026243D01*
X133951154Y-81970000D01*
X162394815Y-81970000D01*
X162413503Y-82147805D01*
X162413504Y-82147807D01*
X162468747Y-82317829D01*
X162468750Y-82317835D01*
X162558141Y-82472665D01*
X162599812Y-82518946D01*
X162677764Y-82605521D01*
X162677767Y-82605523D01*
X162677770Y-82605526D01*
X162822407Y-82710612D01*
X162985733Y-82783329D01*
X163160609Y-82820500D01*
X163160610Y-82820500D01*
X163339389Y-82820500D01*
X163339391Y-82820500D01*
X163514267Y-82783329D01*
X163677593Y-82710612D01*
X163822230Y-82605526D01*
X163836403Y-82589786D01*
X163861260Y-82562179D01*
X163941859Y-82472665D01*
X164031250Y-82317835D01*
X164086497Y-82147803D01*
X164105185Y-81970000D01*
X164086497Y-81792197D01*
X164031250Y-81622165D01*
X163941859Y-81467335D01*
X163895003Y-81415296D01*
X163822235Y-81334478D01*
X163822232Y-81334476D01*
X163822231Y-81334475D01*
X163822230Y-81334474D01*
X163677593Y-81229388D01*
X163514267Y-81156671D01*
X163514265Y-81156670D01*
X163386594Y-81129533D01*
X163339391Y-81119500D01*
X163160609Y-81119500D01*
X163129954Y-81126015D01*
X162985733Y-81156670D01*
X162985728Y-81156672D01*
X162822408Y-81229387D01*
X162677768Y-81334475D01*
X162558140Y-81467336D01*
X162468750Y-81622164D01*
X162468747Y-81622170D01*
X162413504Y-81792192D01*
X162413503Y-81792194D01*
X162394815Y-81970000D01*
X133951154Y-81970000D01*
X133975500Y-81816287D01*
X133975500Y-81603713D01*
X133942246Y-81393757D01*
X133876557Y-81191588D01*
X133780051Y-81002184D01*
X133780049Y-81002181D01*
X133780048Y-81002179D01*
X133655109Y-80830213D01*
X133504790Y-80679894D01*
X133504785Y-80679890D01*
X133463645Y-80650000D01*
X165964815Y-80650000D01*
X165983503Y-80827805D01*
X165983504Y-80827807D01*
X166038747Y-80997829D01*
X166038750Y-80997835D01*
X166128141Y-81152665D01*
X166163185Y-81191585D01*
X166247764Y-81285521D01*
X166247767Y-81285523D01*
X166247770Y-81285526D01*
X166392407Y-81390612D01*
X166555733Y-81463329D01*
X166730609Y-81500500D01*
X166730610Y-81500500D01*
X166909388Y-81500500D01*
X166909391Y-81500500D01*
X166918535Y-81498556D01*
X166988200Y-81503869D01*
X167043935Y-81546003D01*
X167067640Y-81606882D01*
X167069247Y-81622170D01*
X167083503Y-81757803D01*
X167083504Y-81757805D01*
X167083504Y-81757807D01*
X167138750Y-81927836D01*
X167167064Y-81976877D01*
X167183537Y-82044777D01*
X167160685Y-82110804D01*
X167132564Y-82139194D01*
X167097769Y-82164474D01*
X167097764Y-82164478D01*
X166978140Y-82297336D01*
X166888750Y-82452164D01*
X166888747Y-82452170D01*
X166833504Y-82622192D01*
X166833503Y-82622194D01*
X166814815Y-82800000D01*
X166833503Y-82977805D01*
X166833504Y-82977807D01*
X166888747Y-83147829D01*
X166888750Y-83147835D01*
X166978141Y-83302665D01*
X167011758Y-83340000D01*
X167097764Y-83435521D01*
X167097767Y-83435523D01*
X167097770Y-83435526D01*
X167242407Y-83540612D01*
X167405733Y-83613329D01*
X167580609Y-83650500D01*
X167580610Y-83650500D01*
X167759389Y-83650500D01*
X167759391Y-83650500D01*
X167934267Y-83613329D01*
X168097593Y-83540612D01*
X168242230Y-83435526D01*
X168328242Y-83340000D01*
X173024815Y-83340000D01*
X173043503Y-83517805D01*
X173043504Y-83517807D01*
X173098747Y-83687829D01*
X173098750Y-83687835D01*
X173188141Y-83842665D01*
X173221758Y-83880000D01*
X173307764Y-83975521D01*
X173307767Y-83975523D01*
X173307770Y-83975526D01*
X173452407Y-84080612D01*
X173615733Y-84153329D01*
X173790609Y-84190500D01*
X173790610Y-84190500D01*
X173969389Y-84190500D01*
X173969391Y-84190500D01*
X174144267Y-84153329D01*
X174307593Y-84080612D01*
X174452230Y-83975526D01*
X174571859Y-83842665D01*
X174661250Y-83687835D01*
X174716497Y-83517803D01*
X174735185Y-83340000D01*
X174716497Y-83162197D01*
X174661250Y-82992165D01*
X174571859Y-82837335D01*
X174494652Y-82751588D01*
X174452235Y-82704478D01*
X174452232Y-82704476D01*
X174452231Y-82704475D01*
X174452230Y-82704474D01*
X174307593Y-82599388D01*
X174144267Y-82526671D01*
X174144265Y-82526670D01*
X174016594Y-82499533D01*
X173969391Y-82489500D01*
X173790609Y-82489500D01*
X173759954Y-82496015D01*
X173615733Y-82526670D01*
X173615728Y-82526672D01*
X173452408Y-82599387D01*
X173307768Y-82704475D01*
X173188140Y-82837336D01*
X173098750Y-82992164D01*
X173098747Y-82992170D01*
X173043504Y-83162192D01*
X173043503Y-83162194D01*
X173024815Y-83340000D01*
X168328242Y-83340000D01*
X168361859Y-83302665D01*
X168451250Y-83147835D01*
X168506497Y-82977803D01*
X168525185Y-82800000D01*
X168506497Y-82622197D01*
X168457911Y-82472665D01*
X168451252Y-82452170D01*
X168451249Y-82452164D01*
X168422935Y-82403122D01*
X168406462Y-82335221D01*
X168429315Y-82269195D01*
X168457434Y-82240806D01*
X168492230Y-82215526D01*
X168611859Y-82082665D01*
X168701250Y-81927835D01*
X168756497Y-81757803D01*
X168775185Y-81580000D01*
X168756497Y-81402197D01*
X168728873Y-81317181D01*
X168701252Y-81232170D01*
X168701249Y-81232164D01*
X168699647Y-81229389D01*
X168611859Y-81077335D01*
X168565003Y-81025296D01*
X168492235Y-80944478D01*
X168492232Y-80944476D01*
X168492231Y-80944475D01*
X168492230Y-80944474D01*
X168347593Y-80839388D01*
X168184267Y-80766671D01*
X168184265Y-80766670D01*
X168056594Y-80739533D01*
X168009391Y-80729500D01*
X167830609Y-80729500D01*
X167830606Y-80729500D01*
X167821453Y-80731445D01*
X167751786Y-80726125D01*
X167696055Y-80683985D01*
X167672359Y-80623118D01*
X167656497Y-80472197D01*
X167619838Y-80359372D01*
X167601252Y-80302170D01*
X167601249Y-80302164D01*
X167572049Y-80251588D01*
X167511859Y-80147335D01*
X167440277Y-80067835D01*
X167392235Y-80014478D01*
X167392232Y-80014476D01*
X167392231Y-80014475D01*
X167392230Y-80014474D01*
X167247593Y-79909388D01*
X167084267Y-79836671D01*
X167084265Y-79836670D01*
X166956594Y-79809533D01*
X166909391Y-79799500D01*
X166730609Y-79799500D01*
X166699954Y-79806015D01*
X166555733Y-79836670D01*
X166555728Y-79836672D01*
X166392408Y-79909387D01*
X166247768Y-80014475D01*
X166128140Y-80147336D01*
X166038750Y-80302164D01*
X166038747Y-80302170D01*
X165983504Y-80472192D01*
X165983503Y-80472194D01*
X165964815Y-80650000D01*
X133463645Y-80650000D01*
X133339781Y-80560008D01*
X133297115Y-80504678D01*
X133291136Y-80435065D01*
X133323741Y-80373270D01*
X133339781Y-80359371D01*
X133504466Y-80239721D01*
X133654723Y-80089464D01*
X133654727Y-80089459D01*
X133779620Y-79917557D01*
X133876095Y-79728217D01*
X133941757Y-79526129D01*
X133941757Y-79526126D01*
X133952231Y-79460000D01*
X132904146Y-79460000D01*
X132942630Y-79393343D01*
X132975000Y-79272535D01*
X132975000Y-79147465D01*
X132942630Y-79026657D01*
X132904146Y-78960000D01*
X133952231Y-78960000D01*
X133949063Y-78940000D01*
X141624815Y-78940000D01*
X141643503Y-79117805D01*
X141643504Y-79117807D01*
X141698747Y-79287829D01*
X141698750Y-79287835D01*
X141788141Y-79442665D01*
X141803750Y-79460000D01*
X141907764Y-79575521D01*
X141907767Y-79575523D01*
X141907770Y-79575526D01*
X142052407Y-79680612D01*
X142215733Y-79753329D01*
X142390609Y-79790500D01*
X142390610Y-79790500D01*
X142569389Y-79790500D01*
X142569391Y-79790500D01*
X142744267Y-79753329D01*
X142907593Y-79680612D01*
X143052230Y-79575526D01*
X143084218Y-79540000D01*
X144034815Y-79540000D01*
X144053503Y-79717805D01*
X144053504Y-79717807D01*
X144108747Y-79887829D01*
X144108750Y-79887835D01*
X144198141Y-80042665D01*
X144239812Y-80088946D01*
X144317764Y-80175521D01*
X144317767Y-80175523D01*
X144317770Y-80175526D01*
X144462407Y-80280612D01*
X144625733Y-80353329D01*
X144800609Y-80390500D01*
X144800610Y-80390500D01*
X144979389Y-80390500D01*
X144979391Y-80390500D01*
X145154267Y-80353329D01*
X145317593Y-80280612D01*
X145462230Y-80175526D01*
X145581859Y-80042665D01*
X145671250Y-79887835D01*
X145725783Y-79720000D01*
X154904815Y-79720000D01*
X154923503Y-79897805D01*
X154923504Y-79897807D01*
X154978747Y-80067829D01*
X154978750Y-80067835D01*
X155068141Y-80222665D01*
X155109812Y-80268946D01*
X155187764Y-80355521D01*
X155187767Y-80355523D01*
X155187770Y-80355526D01*
X155332407Y-80460612D01*
X155495733Y-80533329D01*
X155670609Y-80570500D01*
X155670610Y-80570500D01*
X155849389Y-80570500D01*
X155849391Y-80570500D01*
X156024267Y-80533329D01*
X156187593Y-80460612D01*
X156332230Y-80355526D01*
X156334209Y-80353329D01*
X156380272Y-80302170D01*
X156451859Y-80222665D01*
X156541250Y-80067835D01*
X156596497Y-79897803D01*
X156615185Y-79720000D01*
X156596497Y-79542197D01*
X156541250Y-79372165D01*
X156451859Y-79217335D01*
X156391043Y-79149792D01*
X156332235Y-79084478D01*
X156332232Y-79084476D01*
X156332231Y-79084475D01*
X156332230Y-79084474D01*
X156187593Y-78979388D01*
X156024267Y-78906671D01*
X156024265Y-78906670D01*
X155896594Y-78879533D01*
X155849391Y-78869500D01*
X155670609Y-78869500D01*
X155639954Y-78876015D01*
X155495733Y-78906670D01*
X155495728Y-78906672D01*
X155332408Y-78979387D01*
X155187768Y-79084475D01*
X155068140Y-79217336D01*
X154978750Y-79372164D01*
X154978747Y-79372170D01*
X154923504Y-79542192D01*
X154923503Y-79542194D01*
X154904815Y-79720000D01*
X145725783Y-79720000D01*
X145726497Y-79717803D01*
X145745185Y-79540000D01*
X145726497Y-79362197D01*
X145679429Y-79217336D01*
X145671252Y-79192170D01*
X145671249Y-79192164D01*
X145646786Y-79149792D01*
X145581859Y-79037335D01*
X145512226Y-78960000D01*
X145462235Y-78904478D01*
X145462232Y-78904476D01*
X145462231Y-78904475D01*
X145462230Y-78904474D01*
X145317593Y-78799388D01*
X145154267Y-78726671D01*
X145154265Y-78726670D01*
X145026594Y-78699533D01*
X144979391Y-78689500D01*
X144800609Y-78689500D01*
X144769954Y-78696015D01*
X144625733Y-78726670D01*
X144625728Y-78726672D01*
X144462408Y-78799387D01*
X144317768Y-78904475D01*
X144198140Y-79037336D01*
X144108750Y-79192164D01*
X144108747Y-79192170D01*
X144053504Y-79362192D01*
X144053503Y-79362194D01*
X144034815Y-79540000D01*
X143084218Y-79540000D01*
X143171859Y-79442665D01*
X143261250Y-79287835D01*
X143316497Y-79117803D01*
X143335185Y-78940000D01*
X143316497Y-78762197D01*
X143261250Y-78592165D01*
X143171859Y-78437335D01*
X143116890Y-78376286D01*
X143052235Y-78304478D01*
X143052232Y-78304476D01*
X143052231Y-78304475D01*
X143052230Y-78304474D01*
X142907593Y-78199388D01*
X142827465Y-78163713D01*
X180064500Y-78163713D01*
X180064500Y-78376287D01*
X180097754Y-78586243D01*
X180154925Y-78762197D01*
X180163444Y-78788414D01*
X180259951Y-78977820D01*
X180384890Y-79149786D01*
X180535209Y-79300105D01*
X180535214Y-79300109D01*
X180699793Y-79419682D01*
X180742459Y-79475011D01*
X180748438Y-79544625D01*
X180715833Y-79606420D01*
X180699793Y-79620318D01*
X180535214Y-79739890D01*
X180535209Y-79739894D01*
X180384890Y-79890213D01*
X180259951Y-80062179D01*
X180163444Y-80251585D01*
X180163443Y-80251587D01*
X180163443Y-80251588D01*
X180147010Y-80302164D01*
X180097753Y-80453760D01*
X180070930Y-80623114D01*
X180064500Y-80663713D01*
X180064500Y-80876287D01*
X180097754Y-81086243D01*
X180162505Y-81285526D01*
X180163444Y-81288414D01*
X180259951Y-81477820D01*
X180384890Y-81649786D01*
X180535209Y-81800105D01*
X180535214Y-81800109D01*
X180699793Y-81919682D01*
X180742459Y-81975011D01*
X180748438Y-82044625D01*
X180715833Y-82106420D01*
X180699793Y-82120318D01*
X180535214Y-82239890D01*
X180535209Y-82239894D01*
X180384890Y-82390213D01*
X180259951Y-82562179D01*
X180163444Y-82751585D01*
X180097753Y-82953760D01*
X180064500Y-83163713D01*
X180064500Y-83376286D01*
X180090526Y-83540612D01*
X180097754Y-83586243D01*
X180135428Y-83702192D01*
X180163444Y-83788414D01*
X180259951Y-83977820D01*
X180384890Y-84149786D01*
X180535209Y-84300105D01*
X180535214Y-84300109D01*
X180699793Y-84419682D01*
X180742459Y-84475011D01*
X180748438Y-84544625D01*
X180715833Y-84606420D01*
X180699793Y-84620318D01*
X180535214Y-84739890D01*
X180535209Y-84739894D01*
X180384890Y-84890213D01*
X180259951Y-85062179D01*
X180163444Y-85251585D01*
X180097753Y-85453760D01*
X180064500Y-85663713D01*
X180064500Y-85876286D01*
X180089702Y-86035409D01*
X180097754Y-86086243D01*
X180136482Y-86205436D01*
X180163444Y-86288414D01*
X180259951Y-86477820D01*
X180384890Y-86649786D01*
X180535209Y-86800105D01*
X180535214Y-86800109D01*
X180700218Y-86919991D01*
X180742884Y-86975320D01*
X180748863Y-87044934D01*
X180716258Y-87106729D01*
X180700218Y-87120627D01*
X180535540Y-87240272D01*
X180535535Y-87240276D01*
X180385276Y-87390535D01*
X180385272Y-87390540D01*
X180260379Y-87562442D01*
X180163904Y-87751782D01*
X180098242Y-87953870D01*
X180098242Y-87953873D01*
X180087769Y-88020000D01*
X181135854Y-88020000D01*
X181097370Y-88086657D01*
X181065000Y-88207465D01*
X181065000Y-88332535D01*
X181097370Y-88453343D01*
X181135854Y-88520000D01*
X180087769Y-88520000D01*
X180098242Y-88586126D01*
X180098242Y-88586129D01*
X180163904Y-88788217D01*
X180260379Y-88977557D01*
X180385272Y-89149459D01*
X180385276Y-89149464D01*
X180524143Y-89288331D01*
X180557628Y-89349654D01*
X180552644Y-89419346D01*
X180510772Y-89475279D01*
X180501559Y-89481551D01*
X180346342Y-89577289D01*
X180222289Y-89701342D01*
X180130187Y-89850663D01*
X180130186Y-89850666D01*
X180075001Y-90017203D01*
X180075001Y-90017204D01*
X180075000Y-90017204D01*
X180064500Y-90119983D01*
X180064500Y-91420001D01*
X180064501Y-91420018D01*
X180075000Y-91522796D01*
X180075001Y-91522799D01*
X180108693Y-91624474D01*
X180130186Y-91689334D01*
X180222288Y-91838656D01*
X180346344Y-91962712D01*
X180495666Y-92054814D01*
X180662203Y-92109999D01*
X180764991Y-92120500D01*
X182315008Y-92120499D01*
X182417797Y-92109999D01*
X182584334Y-92054814D01*
X182733656Y-91962712D01*
X182857712Y-91838656D01*
X182949814Y-91689334D01*
X183004999Y-91522797D01*
X183015500Y-91420009D01*
X183015499Y-90119992D01*
X183004999Y-90017203D01*
X182949814Y-89850666D01*
X182857712Y-89701344D01*
X182733656Y-89577288D01*
X182584334Y-89485186D01*
X182584332Y-89485185D01*
X182578440Y-89481551D01*
X182531716Y-89429603D01*
X182520493Y-89360641D01*
X182548337Y-89296558D01*
X182555856Y-89288330D01*
X182694728Y-89149458D01*
X182819620Y-88977557D01*
X182916095Y-88788217D01*
X182981757Y-88586129D01*
X182981757Y-88586126D01*
X182992231Y-88520000D01*
X181944146Y-88520000D01*
X181982630Y-88453343D01*
X182015000Y-88332535D01*
X182015000Y-88207465D01*
X181982630Y-88086657D01*
X181944146Y-88020000D01*
X182992231Y-88020000D01*
X182981757Y-87953873D01*
X182981757Y-87953870D01*
X182916095Y-87751782D01*
X182819620Y-87562442D01*
X182694727Y-87390540D01*
X182694723Y-87390535D01*
X182544464Y-87240276D01*
X182544459Y-87240272D01*
X182379781Y-87120627D01*
X182337115Y-87065297D01*
X182331136Y-86995684D01*
X182363741Y-86933889D01*
X182379776Y-86919994D01*
X182544792Y-86800104D01*
X182695104Y-86649792D01*
X182695106Y-86649788D01*
X182695109Y-86649786D01*
X182820048Y-86477820D01*
X182820047Y-86477820D01*
X182820051Y-86477816D01*
X182916557Y-86288412D01*
X182982246Y-86086243D01*
X183015500Y-85876287D01*
X183015500Y-85663713D01*
X182982246Y-85453757D01*
X182916557Y-85251588D01*
X182820051Y-85062184D01*
X182820049Y-85062181D01*
X182820048Y-85062179D01*
X182695109Y-84890213D01*
X182544792Y-84739896D01*
X182528988Y-84728414D01*
X182380204Y-84620316D01*
X182337540Y-84564989D01*
X182331561Y-84495376D01*
X182364166Y-84433580D01*
X182380199Y-84419686D01*
X182544792Y-84300104D01*
X182695104Y-84149792D01*
X182695106Y-84149788D01*
X182695109Y-84149786D01*
X182820048Y-83977820D01*
X182820047Y-83977820D01*
X182820051Y-83977816D01*
X182916557Y-83788412D01*
X182982246Y-83586243D01*
X183015500Y-83376287D01*
X183015500Y-83163713D01*
X182982246Y-82953757D01*
X182916557Y-82751588D01*
X182820051Y-82562184D01*
X182820049Y-82562181D01*
X182820048Y-82562179D01*
X182695109Y-82390213D01*
X182544792Y-82239896D01*
X182528988Y-82228414D01*
X182380204Y-82120316D01*
X182337540Y-82064989D01*
X182331561Y-81995376D01*
X182364166Y-81933580D01*
X182380199Y-81919686D01*
X182544792Y-81800104D01*
X182695104Y-81649792D01*
X182695106Y-81649788D01*
X182695109Y-81649786D01*
X182820048Y-81477820D01*
X182820047Y-81477820D01*
X182820051Y-81477816D01*
X182916557Y-81288412D01*
X182982246Y-81086243D01*
X183015500Y-80876287D01*
X183015500Y-80663713D01*
X182982246Y-80453757D01*
X182916557Y-80251588D01*
X182820051Y-80062184D01*
X182820049Y-80062181D01*
X182820048Y-80062179D01*
X182695109Y-79890213D01*
X182544792Y-79739896D01*
X182514383Y-79717803D01*
X182380204Y-79620316D01*
X182337540Y-79564989D01*
X182331561Y-79495376D01*
X182364166Y-79433580D01*
X182380199Y-79419686D01*
X182544792Y-79300104D01*
X182695104Y-79149792D01*
X182695106Y-79149788D01*
X182695109Y-79149786D01*
X182820048Y-78977820D01*
X182820047Y-78977820D01*
X182820051Y-78977816D01*
X182916557Y-78788412D01*
X182982246Y-78586243D01*
X183015500Y-78376287D01*
X183015500Y-78163713D01*
X182982246Y-77953757D01*
X182916557Y-77751588D01*
X182820051Y-77562184D01*
X182820049Y-77562181D01*
X182820048Y-77562179D01*
X182695109Y-77390213D01*
X182544786Y-77239890D01*
X182372820Y-77114951D01*
X182183414Y-77018444D01*
X182183413Y-77018443D01*
X182183412Y-77018443D01*
X181981243Y-76952754D01*
X181981241Y-76952753D01*
X181981240Y-76952753D01*
X181819957Y-76927208D01*
X181771287Y-76919500D01*
X181308713Y-76919500D01*
X181260042Y-76927208D01*
X181098760Y-76952753D01*
X180896585Y-77018444D01*
X180707179Y-77114951D01*
X180535213Y-77239890D01*
X180384890Y-77390213D01*
X180259951Y-77562179D01*
X180163444Y-77751585D01*
X180097753Y-77953760D01*
X180080847Y-78060500D01*
X180064500Y-78163713D01*
X142827465Y-78163713D01*
X142744267Y-78126671D01*
X142744265Y-78126670D01*
X142616594Y-78099533D01*
X142569391Y-78089500D01*
X142390609Y-78089500D01*
X142359954Y-78096015D01*
X142215733Y-78126670D01*
X142215728Y-78126672D01*
X142052408Y-78199387D01*
X141907768Y-78304475D01*
X141788140Y-78437336D01*
X141698750Y-78592164D01*
X141698747Y-78592170D01*
X141643504Y-78762192D01*
X141643503Y-78762194D01*
X141624815Y-78940000D01*
X133949063Y-78940000D01*
X133941757Y-78893873D01*
X133941757Y-78893870D01*
X133876095Y-78691782D01*
X133779620Y-78502442D01*
X133654727Y-78330540D01*
X133654723Y-78330535D01*
X133515856Y-78191668D01*
X133482371Y-78130345D01*
X133487355Y-78060653D01*
X133529227Y-78004720D01*
X133538441Y-77998448D01*
X133544331Y-77994814D01*
X133544334Y-77994814D01*
X133693656Y-77902712D01*
X133817712Y-77778656D01*
X133909814Y-77629334D01*
X133964999Y-77462797D01*
X133975500Y-77360009D01*
X133975499Y-76059992D01*
X133964999Y-75957203D01*
X133909814Y-75790666D01*
X133817712Y-75641344D01*
X133693656Y-75517288D01*
X133665628Y-75500000D01*
X152784815Y-75500000D01*
X152803503Y-75677805D01*
X152803504Y-75677807D01*
X152858747Y-75847829D01*
X152858750Y-75847835D01*
X152948141Y-76002665D01*
X152989812Y-76048946D01*
X153067764Y-76135521D01*
X153067767Y-76135523D01*
X153067770Y-76135526D01*
X153212407Y-76240612D01*
X153375733Y-76313329D01*
X153550609Y-76350500D01*
X153550610Y-76350500D01*
X153729389Y-76350500D01*
X153729391Y-76350500D01*
X153904267Y-76313329D01*
X154067593Y-76240612D01*
X154212230Y-76135526D01*
X154331859Y-76002665D01*
X154421250Y-75847835D01*
X154476497Y-75677803D01*
X154495185Y-75500000D01*
X154476497Y-75322197D01*
X154421250Y-75152165D01*
X154331859Y-74997335D01*
X154285003Y-74945296D01*
X154212235Y-74864478D01*
X154212232Y-74864476D01*
X154212231Y-74864475D01*
X154212230Y-74864474D01*
X154067593Y-74759388D01*
X153904267Y-74686671D01*
X153904265Y-74686670D01*
X153776594Y-74659533D01*
X153729391Y-74649500D01*
X153550609Y-74649500D01*
X153519954Y-74656015D01*
X153375733Y-74686670D01*
X153375728Y-74686672D01*
X153212408Y-74759387D01*
X153067768Y-74864475D01*
X152948140Y-74997336D01*
X152858750Y-75152164D01*
X152858747Y-75152170D01*
X152803504Y-75322192D01*
X152803503Y-75322194D01*
X152784815Y-75500000D01*
X133665628Y-75500000D01*
X133544334Y-75425186D01*
X133377797Y-75370001D01*
X133377795Y-75370000D01*
X133275010Y-75359500D01*
X131724998Y-75359500D01*
X131724981Y-75359501D01*
X131622203Y-75370000D01*
X131622200Y-75370001D01*
X131455668Y-75425185D01*
X131455663Y-75425187D01*
X131306342Y-75517289D01*
X131182289Y-75641342D01*
X131090187Y-75790663D01*
X131090186Y-75790666D01*
X131035001Y-75957203D01*
X131035001Y-75957204D01*
X131035000Y-75957204D01*
X131024500Y-76059983D01*
X130500500Y-76059983D01*
X130500500Y-71352406D01*
X130520185Y-71285367D01*
X130572989Y-71239612D01*
X130642147Y-71229668D01*
X130705703Y-71258693D01*
X130740264Y-71307968D01*
X130755244Y-71346994D01*
X130931310Y-71692543D01*
X131142531Y-72017793D01*
X131351095Y-72275350D01*
X131351096Y-72275350D01*
X132845747Y-70780698D01*
X132919588Y-70882330D01*
X133097670Y-71060412D01*
X133199300Y-71134251D01*
X131704648Y-72628903D01*
X131704649Y-72628904D01*
X131962206Y-72837468D01*
X132287456Y-73048689D01*
X132633005Y-73224755D01*
X132995063Y-73363737D01*
X133369669Y-73464112D01*
X133369676Y-73464113D01*
X133752712Y-73524780D01*
X134139999Y-73545078D01*
X134140001Y-73545078D01*
X134527287Y-73524780D01*
X134910323Y-73464113D01*
X134910330Y-73464112D01*
X135284936Y-73363737D01*
X135646994Y-73224755D01*
X135992543Y-73048689D01*
X136317783Y-72837476D01*
X136317785Y-72837475D01*
X136575349Y-72628902D01*
X135080698Y-71134251D01*
X135182330Y-71060412D01*
X135360412Y-70882330D01*
X135434251Y-70780698D01*
X136928902Y-72275349D01*
X137137475Y-72017785D01*
X137137476Y-72017783D01*
X137348689Y-71692543D01*
X137404120Y-71583753D01*
X155010000Y-71583753D01*
X155010000Y-71590000D01*
X155926988Y-71590000D01*
X155894075Y-71647007D01*
X155860000Y-71774174D01*
X155860000Y-71905826D01*
X155894075Y-72032993D01*
X155926988Y-72090000D01*
X155010000Y-72090000D01*
X155010000Y-72096246D01*
X155043242Y-72306127D01*
X155043242Y-72306130D01*
X155108904Y-72508217D01*
X155205379Y-72697557D01*
X155330272Y-72869459D01*
X155330276Y-72869464D01*
X155480535Y-73019723D01*
X155480540Y-73019727D01*
X155652442Y-73144620D01*
X155841782Y-73241095D01*
X156043871Y-73306757D01*
X156110000Y-73317231D01*
X156110000Y-72273012D01*
X156167007Y-72305925D01*
X156294174Y-72340000D01*
X156425826Y-72340000D01*
X156552993Y-72305925D01*
X156610000Y-72273012D01*
X156610000Y-73317230D01*
X156676126Y-73306757D01*
X156676129Y-73306757D01*
X156878217Y-73241095D01*
X157067557Y-73144620D01*
X157239458Y-73019728D01*
X157378330Y-72880856D01*
X157439653Y-72847371D01*
X157509345Y-72852355D01*
X157565279Y-72894226D01*
X157571551Y-72903440D01*
X157575185Y-72909331D01*
X157575186Y-72909334D01*
X157667288Y-73058656D01*
X157791344Y-73182712D01*
X157940666Y-73274814D01*
X158107203Y-73329999D01*
X158209991Y-73340500D01*
X159510008Y-73340499D01*
X159612797Y-73329999D01*
X159779334Y-73274814D01*
X159928656Y-73182712D01*
X160052712Y-73058656D01*
X160144814Y-72909334D01*
X160199999Y-72742797D01*
X160210500Y-72640009D01*
X160210499Y-71598713D01*
X163939500Y-71598713D01*
X163939500Y-72061286D01*
X163957951Y-72177785D01*
X163972754Y-72271243D01*
X163974088Y-72275350D01*
X164038444Y-72473414D01*
X164134951Y-72662820D01*
X164259890Y-72834786D01*
X164410213Y-72985109D01*
X164582179Y-73110048D01*
X164582181Y-73110049D01*
X164582184Y-73110051D01*
X164771588Y-73206557D01*
X164973757Y-73272246D01*
X165183713Y-73305500D01*
X165183714Y-73305500D01*
X165396286Y-73305500D01*
X165396287Y-73305500D01*
X165606243Y-73272246D01*
X165808412Y-73206557D01*
X165997816Y-73110051D01*
X166019789Y-73094086D01*
X166169786Y-72985109D01*
X166169788Y-72985106D01*
X166169792Y-72985104D01*
X166320104Y-72834792D01*
X166439683Y-72670204D01*
X166495011Y-72627540D01*
X166564624Y-72621561D01*
X166626420Y-72654166D01*
X166640313Y-72670199D01*
X166726555Y-72788902D01*
X166759896Y-72834792D01*
X166910213Y-72985109D01*
X167082179Y-73110048D01*
X167082181Y-73110049D01*
X167082184Y-73110051D01*
X167271588Y-73206557D01*
X167473757Y-73272246D01*
X167683713Y-73305500D01*
X167683714Y-73305500D01*
X167896286Y-73305500D01*
X167896287Y-73305500D01*
X168106243Y-73272246D01*
X168308412Y-73206557D01*
X168497816Y-73110051D01*
X168622143Y-73019723D01*
X168669784Y-72985110D01*
X168669784Y-72985109D01*
X168669792Y-72985104D01*
X168808604Y-72846291D01*
X168869923Y-72812809D01*
X168939615Y-72817793D01*
X168995549Y-72859664D01*
X169001821Y-72868878D01*
X169005185Y-72874333D01*
X169005186Y-72874334D01*
X169097288Y-73023656D01*
X169221344Y-73147712D01*
X169370666Y-73239814D01*
X169537203Y-73294999D01*
X169639991Y-73305500D01*
X170940008Y-73305499D01*
X171042797Y-73294999D01*
X171209334Y-73239814D01*
X171358656Y-73147712D01*
X171482712Y-73023656D01*
X171574814Y-72874334D01*
X171629999Y-72707797D01*
X171640500Y-72605009D01*
X171640499Y-71054992D01*
X171629999Y-70952203D01*
X171574814Y-70785666D01*
X171482712Y-70636344D01*
X171358656Y-70512288D01*
X171209334Y-70420186D01*
X171042797Y-70365001D01*
X171042795Y-70365000D01*
X170940010Y-70354500D01*
X169639998Y-70354500D01*
X169639981Y-70354501D01*
X169537203Y-70365000D01*
X169537200Y-70365001D01*
X169370668Y-70420185D01*
X169370663Y-70420187D01*
X169221342Y-70512289D01*
X169097289Y-70636342D01*
X169001821Y-70791121D01*
X168949873Y-70837845D01*
X168880910Y-70849068D01*
X168816828Y-70821224D01*
X168808601Y-70813705D01*
X168669786Y-70674890D01*
X168497820Y-70549951D01*
X168308414Y-70453444D01*
X168308413Y-70453443D01*
X168308412Y-70453443D01*
X168106243Y-70387754D01*
X168106241Y-70387753D01*
X168106240Y-70387753D01*
X167944957Y-70362208D01*
X167896287Y-70354500D01*
X167683713Y-70354500D01*
X167635042Y-70362208D01*
X167473760Y-70387753D01*
X167271585Y-70453444D01*
X167082179Y-70549951D01*
X166910213Y-70674890D01*
X166759894Y-70825209D01*
X166759890Y-70825214D01*
X166640318Y-70989793D01*
X166584989Y-71032459D01*
X166515375Y-71038438D01*
X166453580Y-71005833D01*
X166439682Y-70989793D01*
X166320109Y-70825214D01*
X166320105Y-70825209D01*
X166169786Y-70674890D01*
X165997820Y-70549951D01*
X165808414Y-70453444D01*
X165808413Y-70453443D01*
X165808412Y-70453443D01*
X165606243Y-70387754D01*
X165606241Y-70387753D01*
X165606240Y-70387753D01*
X165444957Y-70362208D01*
X165396287Y-70354500D01*
X165183713Y-70354500D01*
X165135042Y-70362208D01*
X164973760Y-70387753D01*
X164771585Y-70453444D01*
X164582179Y-70549951D01*
X164410213Y-70674890D01*
X164259890Y-70825213D01*
X164134951Y-70997179D01*
X164038444Y-71186585D01*
X163972753Y-71388760D01*
X163939500Y-71598713D01*
X160210499Y-71598713D01*
X160210499Y-71039992D01*
X160209729Y-71032459D01*
X160199999Y-70937203D01*
X160199998Y-70937200D01*
X160170794Y-70849068D01*
X160144814Y-70770666D01*
X160052712Y-70621344D01*
X159928656Y-70497288D01*
X159803653Y-70420186D01*
X159779336Y-70405187D01*
X159779331Y-70405185D01*
X159777862Y-70404698D01*
X159612797Y-70350001D01*
X159612795Y-70350000D01*
X159510010Y-70339500D01*
X158209998Y-70339500D01*
X158209981Y-70339501D01*
X158107203Y-70350000D01*
X158107200Y-70350001D01*
X157940668Y-70405185D01*
X157940663Y-70405187D01*
X157791342Y-70497289D01*
X157667289Y-70621342D01*
X157571551Y-70776559D01*
X157519603Y-70823283D01*
X157450640Y-70834506D01*
X157386558Y-70806662D01*
X157378331Y-70799143D01*
X157239464Y-70660276D01*
X157239459Y-70660272D01*
X157067557Y-70535379D01*
X156878215Y-70438903D01*
X156676124Y-70373241D01*
X156610000Y-70362768D01*
X156610000Y-71406988D01*
X156552993Y-71374075D01*
X156425826Y-71340000D01*
X156294174Y-71340000D01*
X156167007Y-71374075D01*
X156110000Y-71406988D01*
X156110000Y-70362768D01*
X156109999Y-70362768D01*
X156043875Y-70373241D01*
X155841784Y-70438903D01*
X155652442Y-70535379D01*
X155480540Y-70660272D01*
X155480535Y-70660276D01*
X155330276Y-70810535D01*
X155330272Y-70810540D01*
X155205379Y-70982442D01*
X155108904Y-71171782D01*
X155043242Y-71373869D01*
X155043242Y-71373872D01*
X155010000Y-71583753D01*
X137404120Y-71583753D01*
X137524755Y-71346994D01*
X137663737Y-70984936D01*
X137764112Y-70610330D01*
X137764113Y-70610323D01*
X137824780Y-70227287D01*
X137845078Y-69840000D01*
X137845078Y-69839999D01*
X137824780Y-69452712D01*
X137764113Y-69069676D01*
X137764112Y-69069669D01*
X137663737Y-68695063D01*
X137524755Y-68333005D01*
X137348689Y-67987456D01*
X137137468Y-67662206D01*
X136928904Y-67404649D01*
X136928903Y-67404648D01*
X135434251Y-68899300D01*
X135360412Y-68797670D01*
X135182330Y-68619588D01*
X135080698Y-68545747D01*
X136575350Y-67051096D01*
X136575350Y-67051095D01*
X136317793Y-66842531D01*
X136142194Y-66728495D01*
X136096691Y-66675474D01*
X136087077Y-66606269D01*
X136116404Y-66542852D01*
X136175361Y-66505358D01*
X136209729Y-66500500D01*
X147154096Y-66500500D01*
X147221135Y-66520185D01*
G37*
%TD.AperFunction*%
%TD*%
M02*
