M48
; DRILL file {KiCad 8.0.5} date 2024-09-20T22:50:19+0200
; FORMAT={-:-/ absolute / inch / decimal}
; #@! TF.CreationDate,2024-09-20T22:50:19+02:00
; #@! TF.GenerationSoftware,Kicad,Pcbnew,8.0.5
; #@! TF.FileFunction,Plated,1,4,PTH
FMAT,2
INCH
; #@! TA.AperFunction,Plated,PTH,ViaDrill
T1C0.0118
; #@! TA.AperFunction,Plated,PTH,ComponentDrill
T2C0.0197
; #@! TA.AperFunction,Plated,PTH,ComponentDrill
T3C0.0374
; #@! TA.AperFunction,Plated,PTH,ComponentDrill
T4C0.0394
; #@! TA.AperFunction,Plated,PTH,ComponentDrill
T5C0.0728
; #@! TA.AperFunction,Plated,PTH,ComponentDrill
T6C0.1260
%
G90
G05
T1
X5.7921Y-4.2146
X6.0307Y-3.8642
X6.0531Y-2.6551
X6.0728Y-3.6058
X6.0937Y-2.5366
X6.1173Y-3.5055
X6.1181Y-2.8646
X6.1426Y-3.3753
X6.1457Y-3.2709
X6.2661Y-3.5378
X6.2776Y-3.8243
X6.278Y-3.6063
X6.2878Y-4.152
X6.3079Y-2.8728
X6.3764Y-3.3228
X6.4082Y-3.3594
X6.4441Y-3.5614
X6.4469Y-3.4949
X6.4681Y-3.9587
X6.584Y-3.51
X6.6Y-2.6339
X6.6264Y-2.4441
X6.6598Y-2.9217
X6.6692Y-3.2427
X6.6724Y-3.8394
X6.6969Y-4.2012
X6.7071Y-3.7201
X6.7114Y-3.8165
X6.7843Y-3.4961
X6.7878Y-3.6436
X6.9331Y-3.7906
X6.9966Y-3.2975
X7.0665Y-3.7067
X7.0717Y-3.0331
X7.0969Y-3.7866
X7.1898Y-3.4638
X7.2795Y-4.1634
X7.3811Y-3.6016
X7.4602Y-3.9185
X7.5461Y-4.3071
T2
X5.5984Y-2.5591
X5.6022Y-4.5395
X5.6261Y-2.4922
X5.6261Y-2.6259
X5.6299Y-4.4727
X5.6299Y-4.6063
X5.6929Y-2.4646
X5.6929Y-2.6535
X5.6967Y-4.445
X5.6967Y-4.634
X5.7597Y-2.4922
X5.7597Y-2.6259
X5.7635Y-4.4727
X5.7635Y-4.6063
X5.7874Y-2.5591
X5.7912Y-4.5395
X7.5669Y-4.5395
X7.5946Y-2.5471
X7.5946Y-4.4727
X7.5946Y-4.6063
X7.6223Y-2.4803
X7.6223Y-2.6139
X7.6614Y-4.445
X7.6614Y-4.634
X7.6891Y-2.4526
X7.6891Y-2.6416
X7.7282Y-4.4727
X7.7282Y-4.6063
X7.7559Y-2.4803
X7.7559Y-2.6139
X7.7559Y-4.5395
X7.7836Y-2.5471
T3
X5.6417Y-3.5236
X5.6417Y-3.622
X5.6417Y-3.7205
X5.6417Y-3.8189
X5.6417Y-3.9173
X5.6417Y-4.0157
X5.6417Y-4.1142
X6.0Y-4.563
X6.0039Y-4.3465
X6.0984Y-4.563
X6.1024Y-4.3465
X6.1969Y-4.563
X6.2008Y-4.3465
X6.2953Y-4.563
X6.2992Y-4.3465
X7.0394Y-4.5669
X7.0433Y-4.3504
X7.1378Y-4.5669
X7.1417Y-4.3504
X7.2362Y-4.5669
X7.2402Y-4.3504
X7.3346Y-4.5669
X7.3386Y-4.3504
X7.7441Y-2.9567
X7.7441Y-3.0551
X7.7441Y-3.1535
X7.7441Y-3.252
X7.7441Y-3.3504
X7.7441Y-3.4488
X7.7441Y-3.7205
X7.7441Y-3.8189
X7.7441Y-3.9173
X7.7441Y-4.0157
X7.7441Y-4.1142
X7.7441Y-4.2126
T4
X5.6063Y-2.9055
X5.6063Y-3.0055
X5.6063Y-3.1055
X5.6063Y-3.2055
X5.811Y-2.9055
X5.811Y-3.0055
X5.811Y-3.1055
X7.2323Y-2.4528
X7.3307Y-2.4528
T5
X7.0433Y-2.7126
X7.2283Y-2.7126
X7.4134Y-2.7126
T6
X5.6929Y-2.5591
X5.6967Y-4.5395
X7.6614Y-4.5395
X7.6891Y-2.5471
M30
