%TF.GenerationSoftware,KiCad,Pcbnew,8.0.5*%
%TF.CreationDate,2024-10-08T13:01:26+02:00*%
%TF.ProjectId,ESE_AL8,4553455f-414c-4382-9e6b-696361645f70,rev?*%
%TF.SameCoordinates,Original*%
%TF.FileFunction,Legend,Top*%
%TF.FilePolarity,Positive*%
%FSLAX46Y46*%
G04 Gerber Fmt 4.6, Leading zero omitted, Abs format (unit mm)*
G04 Created by KiCad (PCBNEW 8.0.5) date 2024-10-08 13:01:26*
%MOMM*%
%LPD*%
G01*
G04 APERTURE LIST*
%ADD10C,0.150000*%
%ADD11C,0.125000*%
%ADD12C,0.120000*%
%ADD13C,0.152400*%
G04 APERTURE END LIST*
D10*
X143996905Y-102074819D02*
X143996905Y-101074819D01*
X143996905Y-101074819D02*
X144235000Y-101074819D01*
X144235000Y-101074819D02*
X144377857Y-101122438D01*
X144377857Y-101122438D02*
X144473095Y-101217676D01*
X144473095Y-101217676D02*
X144520714Y-101312914D01*
X144520714Y-101312914D02*
X144568333Y-101503390D01*
X144568333Y-101503390D02*
X144568333Y-101646247D01*
X144568333Y-101646247D02*
X144520714Y-101836723D01*
X144520714Y-101836723D02*
X144473095Y-101931961D01*
X144473095Y-101931961D02*
X144377857Y-102027200D01*
X144377857Y-102027200D02*
X144235000Y-102074819D01*
X144235000Y-102074819D02*
X143996905Y-102074819D01*
X144901667Y-101074819D02*
X145520714Y-101074819D01*
X145520714Y-101074819D02*
X145187381Y-101455771D01*
X145187381Y-101455771D02*
X145330238Y-101455771D01*
X145330238Y-101455771D02*
X145425476Y-101503390D01*
X145425476Y-101503390D02*
X145473095Y-101551009D01*
X145473095Y-101551009D02*
X145520714Y-101646247D01*
X145520714Y-101646247D02*
X145520714Y-101884342D01*
X145520714Y-101884342D02*
X145473095Y-101979580D01*
X145473095Y-101979580D02*
X145425476Y-102027200D01*
X145425476Y-102027200D02*
X145330238Y-102074819D01*
X145330238Y-102074819D02*
X145044524Y-102074819D01*
X145044524Y-102074819D02*
X144949286Y-102027200D01*
X144949286Y-102027200D02*
X144901667Y-101979580D01*
D11*
X130659047Y-116094809D02*
X130659047Y-115594809D01*
X130659047Y-115832904D02*
X130944761Y-115832904D01*
X130944761Y-116094809D02*
X130944761Y-115594809D01*
X131397143Y-115761476D02*
X131397143Y-116094809D01*
X131278095Y-115571000D02*
X131159048Y-115928142D01*
X131159048Y-115928142D02*
X131468571Y-115928142D01*
X146969405Y-106846714D02*
X146969405Y-107084809D01*
X146802739Y-106584809D02*
X146969405Y-106846714D01*
X146969405Y-106846714D02*
X147136072Y-106584809D01*
X147564643Y-107084809D02*
X147278929Y-107084809D01*
X147421786Y-107084809D02*
X147421786Y-106584809D01*
X147421786Y-106584809D02*
X147374167Y-106656238D01*
X147374167Y-106656238D02*
X147326548Y-106703857D01*
X147326548Y-106703857D02*
X147278929Y-106727666D01*
X165944809Y-84618094D02*
X165444809Y-84618094D01*
X165897190Y-84094285D02*
X165921000Y-84118094D01*
X165921000Y-84118094D02*
X165944809Y-84189523D01*
X165944809Y-84189523D02*
X165944809Y-84237142D01*
X165944809Y-84237142D02*
X165921000Y-84308570D01*
X165921000Y-84308570D02*
X165873380Y-84356189D01*
X165873380Y-84356189D02*
X165825761Y-84379999D01*
X165825761Y-84379999D02*
X165730523Y-84403808D01*
X165730523Y-84403808D02*
X165659095Y-84403808D01*
X165659095Y-84403808D02*
X165563857Y-84379999D01*
X165563857Y-84379999D02*
X165516238Y-84356189D01*
X165516238Y-84356189D02*
X165468619Y-84308570D01*
X165468619Y-84308570D02*
X165444809Y-84237142D01*
X165444809Y-84237142D02*
X165444809Y-84189523D01*
X165444809Y-84189523D02*
X165468619Y-84118094D01*
X165468619Y-84118094D02*
X165492428Y-84094285D01*
X165944809Y-83618094D02*
X165944809Y-83903808D01*
X165944809Y-83760951D02*
X165444809Y-83760951D01*
X165444809Y-83760951D02*
X165516238Y-83808570D01*
X165516238Y-83808570D02*
X165563857Y-83856189D01*
X165563857Y-83856189D02*
X165587666Y-83903808D01*
X153994809Y-85713333D02*
X153994809Y-85951428D01*
X153994809Y-85951428D02*
X153494809Y-85951428D01*
X153994809Y-85284761D02*
X153994809Y-85570475D01*
X153994809Y-85427618D02*
X153494809Y-85427618D01*
X153494809Y-85427618D02*
X153566238Y-85475237D01*
X153566238Y-85475237D02*
X153613857Y-85522856D01*
X153613857Y-85522856D02*
X153637666Y-85570475D01*
D10*
X142841667Y-115147200D02*
X142984524Y-115194819D01*
X142984524Y-115194819D02*
X143222619Y-115194819D01*
X143222619Y-115194819D02*
X143317857Y-115147200D01*
X143317857Y-115147200D02*
X143365476Y-115099580D01*
X143365476Y-115099580D02*
X143413095Y-115004342D01*
X143413095Y-115004342D02*
X143413095Y-114909104D01*
X143413095Y-114909104D02*
X143365476Y-114813866D01*
X143365476Y-114813866D02*
X143317857Y-114766247D01*
X143317857Y-114766247D02*
X143222619Y-114718628D01*
X143222619Y-114718628D02*
X143032143Y-114671009D01*
X143032143Y-114671009D02*
X142936905Y-114623390D01*
X142936905Y-114623390D02*
X142889286Y-114575771D01*
X142889286Y-114575771D02*
X142841667Y-114480533D01*
X142841667Y-114480533D02*
X142841667Y-114385295D01*
X142841667Y-114385295D02*
X142889286Y-114290057D01*
X142889286Y-114290057D02*
X142936905Y-114242438D01*
X142936905Y-114242438D02*
X143032143Y-114194819D01*
X143032143Y-114194819D02*
X143270238Y-114194819D01*
X143270238Y-114194819D02*
X143413095Y-114242438D01*
X143746429Y-114194819D02*
X143984524Y-115194819D01*
X143984524Y-115194819D02*
X144175000Y-114480533D01*
X144175000Y-114480533D02*
X144365476Y-115194819D01*
X144365476Y-115194819D02*
X144603572Y-114194819D01*
X145508333Y-115194819D02*
X144936905Y-115194819D01*
X145222619Y-115194819D02*
X145222619Y-114194819D01*
X145222619Y-114194819D02*
X145127381Y-114337676D01*
X145127381Y-114337676D02*
X145032143Y-114432914D01*
X145032143Y-114432914D02*
X144936905Y-114480533D01*
X142837142Y-104999580D02*
X142789523Y-105047200D01*
X142789523Y-105047200D02*
X142646666Y-105094819D01*
X142646666Y-105094819D02*
X142551428Y-105094819D01*
X142551428Y-105094819D02*
X142408571Y-105047200D01*
X142408571Y-105047200D02*
X142313333Y-104951961D01*
X142313333Y-104951961D02*
X142265714Y-104856723D01*
X142265714Y-104856723D02*
X142218095Y-104666247D01*
X142218095Y-104666247D02*
X142218095Y-104523390D01*
X142218095Y-104523390D02*
X142265714Y-104332914D01*
X142265714Y-104332914D02*
X142313333Y-104237676D01*
X142313333Y-104237676D02*
X142408571Y-104142438D01*
X142408571Y-104142438D02*
X142551428Y-104094819D01*
X142551428Y-104094819D02*
X142646666Y-104094819D01*
X142646666Y-104094819D02*
X142789523Y-104142438D01*
X142789523Y-104142438D02*
X142837142Y-104190057D01*
X143789523Y-105094819D02*
X143218095Y-105094819D01*
X143503809Y-105094819D02*
X143503809Y-104094819D01*
X143503809Y-104094819D02*
X143408571Y-104237676D01*
X143408571Y-104237676D02*
X143313333Y-104332914D01*
X143313333Y-104332914D02*
X143218095Y-104380533D01*
X144170476Y-104190057D02*
X144218095Y-104142438D01*
X144218095Y-104142438D02*
X144313333Y-104094819D01*
X144313333Y-104094819D02*
X144551428Y-104094819D01*
X144551428Y-104094819D02*
X144646666Y-104142438D01*
X144646666Y-104142438D02*
X144694285Y-104190057D01*
X144694285Y-104190057D02*
X144741904Y-104285295D01*
X144741904Y-104285295D02*
X144741904Y-104380533D01*
X144741904Y-104380533D02*
X144694285Y-104523390D01*
X144694285Y-104523390D02*
X144122857Y-105094819D01*
X144122857Y-105094819D02*
X144741904Y-105094819D01*
X148317142Y-110924819D02*
X147983809Y-110448628D01*
X147745714Y-110924819D02*
X147745714Y-109924819D01*
X147745714Y-109924819D02*
X148126666Y-109924819D01*
X148126666Y-109924819D02*
X148221904Y-109972438D01*
X148221904Y-109972438D02*
X148269523Y-110020057D01*
X148269523Y-110020057D02*
X148317142Y-110115295D01*
X148317142Y-110115295D02*
X148317142Y-110258152D01*
X148317142Y-110258152D02*
X148269523Y-110353390D01*
X148269523Y-110353390D02*
X148221904Y-110401009D01*
X148221904Y-110401009D02*
X148126666Y-110448628D01*
X148126666Y-110448628D02*
X147745714Y-110448628D01*
X149269523Y-110924819D02*
X148698095Y-110924819D01*
X148983809Y-110924819D02*
X148983809Y-109924819D01*
X148983809Y-109924819D02*
X148888571Y-110067676D01*
X148888571Y-110067676D02*
X148793333Y-110162914D01*
X148793333Y-110162914D02*
X148698095Y-110210533D01*
X149888571Y-109924819D02*
X149983809Y-109924819D01*
X149983809Y-109924819D02*
X150079047Y-109972438D01*
X150079047Y-109972438D02*
X150126666Y-110020057D01*
X150126666Y-110020057D02*
X150174285Y-110115295D01*
X150174285Y-110115295D02*
X150221904Y-110305771D01*
X150221904Y-110305771D02*
X150221904Y-110543866D01*
X150221904Y-110543866D02*
X150174285Y-110734342D01*
X150174285Y-110734342D02*
X150126666Y-110829580D01*
X150126666Y-110829580D02*
X150079047Y-110877200D01*
X150079047Y-110877200D02*
X149983809Y-110924819D01*
X149983809Y-110924819D02*
X149888571Y-110924819D01*
X149888571Y-110924819D02*
X149793333Y-110877200D01*
X149793333Y-110877200D02*
X149745714Y-110829580D01*
X149745714Y-110829580D02*
X149698095Y-110734342D01*
X149698095Y-110734342D02*
X149650476Y-110543866D01*
X149650476Y-110543866D02*
X149650476Y-110305771D01*
X149650476Y-110305771D02*
X149698095Y-110115295D01*
X149698095Y-110115295D02*
X149745714Y-110020057D01*
X149745714Y-110020057D02*
X149793333Y-109972438D01*
X149793333Y-109972438D02*
X149888571Y-109924819D01*
X163318095Y-96242319D02*
X163318095Y-97051842D01*
X163318095Y-97051842D02*
X163365714Y-97147080D01*
X163365714Y-97147080D02*
X163413333Y-97194700D01*
X163413333Y-97194700D02*
X163508571Y-97242319D01*
X163508571Y-97242319D02*
X163699047Y-97242319D01*
X163699047Y-97242319D02*
X163794285Y-97194700D01*
X163794285Y-97194700D02*
X163841904Y-97147080D01*
X163841904Y-97147080D02*
X163889523Y-97051842D01*
X163889523Y-97051842D02*
X163889523Y-96242319D01*
X164318095Y-96337557D02*
X164365714Y-96289938D01*
X164365714Y-96289938D02*
X164460952Y-96242319D01*
X164460952Y-96242319D02*
X164699047Y-96242319D01*
X164699047Y-96242319D02*
X164794285Y-96289938D01*
X164794285Y-96289938D02*
X164841904Y-96337557D01*
X164841904Y-96337557D02*
X164889523Y-96432795D01*
X164889523Y-96432795D02*
X164889523Y-96528033D01*
X164889523Y-96528033D02*
X164841904Y-96670890D01*
X164841904Y-96670890D02*
X164270476Y-97242319D01*
X164270476Y-97242319D02*
X164889523Y-97242319D01*
X150377142Y-104497080D02*
X150329523Y-104544700D01*
X150329523Y-104544700D02*
X150186666Y-104592319D01*
X150186666Y-104592319D02*
X150091428Y-104592319D01*
X150091428Y-104592319D02*
X149948571Y-104544700D01*
X149948571Y-104544700D02*
X149853333Y-104449461D01*
X149853333Y-104449461D02*
X149805714Y-104354223D01*
X149805714Y-104354223D02*
X149758095Y-104163747D01*
X149758095Y-104163747D02*
X149758095Y-104020890D01*
X149758095Y-104020890D02*
X149805714Y-103830414D01*
X149805714Y-103830414D02*
X149853333Y-103735176D01*
X149853333Y-103735176D02*
X149948571Y-103639938D01*
X149948571Y-103639938D02*
X150091428Y-103592319D01*
X150091428Y-103592319D02*
X150186666Y-103592319D01*
X150186666Y-103592319D02*
X150329523Y-103639938D01*
X150329523Y-103639938D02*
X150377142Y-103687557D01*
X151329523Y-104592319D02*
X150758095Y-104592319D01*
X151043809Y-104592319D02*
X151043809Y-103592319D01*
X151043809Y-103592319D02*
X150948571Y-103735176D01*
X150948571Y-103735176D02*
X150853333Y-103830414D01*
X150853333Y-103830414D02*
X150758095Y-103878033D01*
X152186666Y-103925652D02*
X152186666Y-104592319D01*
X151948571Y-103544700D02*
X151710476Y-104258985D01*
X151710476Y-104258985D02*
X152329523Y-104258985D01*
X143926905Y-100304819D02*
X143926905Y-99304819D01*
X143926905Y-99304819D02*
X144165000Y-99304819D01*
X144165000Y-99304819D02*
X144307857Y-99352438D01*
X144307857Y-99352438D02*
X144403095Y-99447676D01*
X144403095Y-99447676D02*
X144450714Y-99542914D01*
X144450714Y-99542914D02*
X144498333Y-99733390D01*
X144498333Y-99733390D02*
X144498333Y-99876247D01*
X144498333Y-99876247D02*
X144450714Y-100066723D01*
X144450714Y-100066723D02*
X144403095Y-100161961D01*
X144403095Y-100161961D02*
X144307857Y-100257200D01*
X144307857Y-100257200D02*
X144165000Y-100304819D01*
X144165000Y-100304819D02*
X143926905Y-100304819D01*
X144879286Y-99400057D02*
X144926905Y-99352438D01*
X144926905Y-99352438D02*
X145022143Y-99304819D01*
X145022143Y-99304819D02*
X145260238Y-99304819D01*
X145260238Y-99304819D02*
X145355476Y-99352438D01*
X145355476Y-99352438D02*
X145403095Y-99400057D01*
X145403095Y-99400057D02*
X145450714Y-99495295D01*
X145450714Y-99495295D02*
X145450714Y-99590533D01*
X145450714Y-99590533D02*
X145403095Y-99733390D01*
X145403095Y-99733390D02*
X144831667Y-100304819D01*
X144831667Y-100304819D02*
X145450714Y-100304819D01*
X138073333Y-89609580D02*
X138025714Y-89657200D01*
X138025714Y-89657200D02*
X137882857Y-89704819D01*
X137882857Y-89704819D02*
X137787619Y-89704819D01*
X137787619Y-89704819D02*
X137644762Y-89657200D01*
X137644762Y-89657200D02*
X137549524Y-89561961D01*
X137549524Y-89561961D02*
X137501905Y-89466723D01*
X137501905Y-89466723D02*
X137454286Y-89276247D01*
X137454286Y-89276247D02*
X137454286Y-89133390D01*
X137454286Y-89133390D02*
X137501905Y-88942914D01*
X137501905Y-88942914D02*
X137549524Y-88847676D01*
X137549524Y-88847676D02*
X137644762Y-88752438D01*
X137644762Y-88752438D02*
X137787619Y-88704819D01*
X137787619Y-88704819D02*
X137882857Y-88704819D01*
X137882857Y-88704819D02*
X138025714Y-88752438D01*
X138025714Y-88752438D02*
X138073333Y-88800057D01*
X138454286Y-88800057D02*
X138501905Y-88752438D01*
X138501905Y-88752438D02*
X138597143Y-88704819D01*
X138597143Y-88704819D02*
X138835238Y-88704819D01*
X138835238Y-88704819D02*
X138930476Y-88752438D01*
X138930476Y-88752438D02*
X138978095Y-88800057D01*
X138978095Y-88800057D02*
X139025714Y-88895295D01*
X139025714Y-88895295D02*
X139025714Y-88990533D01*
X139025714Y-88990533D02*
X138978095Y-89133390D01*
X138978095Y-89133390D02*
X138406667Y-89704819D01*
X138406667Y-89704819D02*
X139025714Y-89704819D01*
X162973333Y-88859580D02*
X162925714Y-88907200D01*
X162925714Y-88907200D02*
X162782857Y-88954819D01*
X162782857Y-88954819D02*
X162687619Y-88954819D01*
X162687619Y-88954819D02*
X162544762Y-88907200D01*
X162544762Y-88907200D02*
X162449524Y-88811961D01*
X162449524Y-88811961D02*
X162401905Y-88716723D01*
X162401905Y-88716723D02*
X162354286Y-88526247D01*
X162354286Y-88526247D02*
X162354286Y-88383390D01*
X162354286Y-88383390D02*
X162401905Y-88192914D01*
X162401905Y-88192914D02*
X162449524Y-88097676D01*
X162449524Y-88097676D02*
X162544762Y-88002438D01*
X162544762Y-88002438D02*
X162687619Y-87954819D01*
X162687619Y-87954819D02*
X162782857Y-87954819D01*
X162782857Y-87954819D02*
X162925714Y-88002438D01*
X162925714Y-88002438D02*
X162973333Y-88050057D01*
X163878095Y-87954819D02*
X163401905Y-87954819D01*
X163401905Y-87954819D02*
X163354286Y-88431009D01*
X163354286Y-88431009D02*
X163401905Y-88383390D01*
X163401905Y-88383390D02*
X163497143Y-88335771D01*
X163497143Y-88335771D02*
X163735238Y-88335771D01*
X163735238Y-88335771D02*
X163830476Y-88383390D01*
X163830476Y-88383390D02*
X163878095Y-88431009D01*
X163878095Y-88431009D02*
X163925714Y-88526247D01*
X163925714Y-88526247D02*
X163925714Y-88764342D01*
X163925714Y-88764342D02*
X163878095Y-88859580D01*
X163878095Y-88859580D02*
X163830476Y-88907200D01*
X163830476Y-88907200D02*
X163735238Y-88954819D01*
X163735238Y-88954819D02*
X163497143Y-88954819D01*
X163497143Y-88954819D02*
X163401905Y-88907200D01*
X163401905Y-88907200D02*
X163354286Y-88859580D01*
X156389580Y-115152857D02*
X156437200Y-115200476D01*
X156437200Y-115200476D02*
X156484819Y-115343333D01*
X156484819Y-115343333D02*
X156484819Y-115438571D01*
X156484819Y-115438571D02*
X156437200Y-115581428D01*
X156437200Y-115581428D02*
X156341961Y-115676666D01*
X156341961Y-115676666D02*
X156246723Y-115724285D01*
X156246723Y-115724285D02*
X156056247Y-115771904D01*
X156056247Y-115771904D02*
X155913390Y-115771904D01*
X155913390Y-115771904D02*
X155722914Y-115724285D01*
X155722914Y-115724285D02*
X155627676Y-115676666D01*
X155627676Y-115676666D02*
X155532438Y-115581428D01*
X155532438Y-115581428D02*
X155484819Y-115438571D01*
X155484819Y-115438571D02*
X155484819Y-115343333D01*
X155484819Y-115343333D02*
X155532438Y-115200476D01*
X155532438Y-115200476D02*
X155580057Y-115152857D01*
X156484819Y-114200476D02*
X156484819Y-114771904D01*
X156484819Y-114486190D02*
X155484819Y-114486190D01*
X155484819Y-114486190D02*
X155627676Y-114581428D01*
X155627676Y-114581428D02*
X155722914Y-114676666D01*
X155722914Y-114676666D02*
X155770533Y-114771904D01*
X155484819Y-113295714D02*
X155484819Y-113771904D01*
X155484819Y-113771904D02*
X155961009Y-113819523D01*
X155961009Y-113819523D02*
X155913390Y-113771904D01*
X155913390Y-113771904D02*
X155865771Y-113676666D01*
X155865771Y-113676666D02*
X155865771Y-113438571D01*
X155865771Y-113438571D02*
X155913390Y-113343333D01*
X155913390Y-113343333D02*
X155961009Y-113295714D01*
X155961009Y-113295714D02*
X156056247Y-113248095D01*
X156056247Y-113248095D02*
X156294342Y-113248095D01*
X156294342Y-113248095D02*
X156389580Y-113295714D01*
X156389580Y-113295714D02*
X156437200Y-113343333D01*
X156437200Y-113343333D02*
X156484819Y-113438571D01*
X156484819Y-113438571D02*
X156484819Y-113676666D01*
X156484819Y-113676666D02*
X156437200Y-113771904D01*
X156437200Y-113771904D02*
X156389580Y-113819523D01*
X136104642Y-103734819D02*
X135771309Y-103258628D01*
X135533214Y-103734819D02*
X135533214Y-102734819D01*
X135533214Y-102734819D02*
X135914166Y-102734819D01*
X135914166Y-102734819D02*
X136009404Y-102782438D01*
X136009404Y-102782438D02*
X136057023Y-102830057D01*
X136057023Y-102830057D02*
X136104642Y-102925295D01*
X136104642Y-102925295D02*
X136104642Y-103068152D01*
X136104642Y-103068152D02*
X136057023Y-103163390D01*
X136057023Y-103163390D02*
X136009404Y-103211009D01*
X136009404Y-103211009D02*
X135914166Y-103258628D01*
X135914166Y-103258628D02*
X135533214Y-103258628D01*
X137057023Y-103734819D02*
X136485595Y-103734819D01*
X136771309Y-103734819D02*
X136771309Y-102734819D01*
X136771309Y-102734819D02*
X136676071Y-102877676D01*
X136676071Y-102877676D02*
X136580833Y-102972914D01*
X136580833Y-102972914D02*
X136485595Y-103020533D01*
X137390357Y-102734819D02*
X138009404Y-102734819D01*
X138009404Y-102734819D02*
X137676071Y-103115771D01*
X137676071Y-103115771D02*
X137818928Y-103115771D01*
X137818928Y-103115771D02*
X137914166Y-103163390D01*
X137914166Y-103163390D02*
X137961785Y-103211009D01*
X137961785Y-103211009D02*
X138009404Y-103306247D01*
X138009404Y-103306247D02*
X138009404Y-103544342D01*
X138009404Y-103544342D02*
X137961785Y-103639580D01*
X137961785Y-103639580D02*
X137914166Y-103687200D01*
X137914166Y-103687200D02*
X137818928Y-103734819D01*
X137818928Y-103734819D02*
X137533214Y-103734819D01*
X137533214Y-103734819D02*
X137437976Y-103687200D01*
X137437976Y-103687200D02*
X137390357Y-103639580D01*
X137504819Y-82679166D02*
X137028628Y-83012499D01*
X137504819Y-83250594D02*
X136504819Y-83250594D01*
X136504819Y-83250594D02*
X136504819Y-82869642D01*
X136504819Y-82869642D02*
X136552438Y-82774404D01*
X136552438Y-82774404D02*
X136600057Y-82726785D01*
X136600057Y-82726785D02*
X136695295Y-82679166D01*
X136695295Y-82679166D02*
X136838152Y-82679166D01*
X136838152Y-82679166D02*
X136933390Y-82726785D01*
X136933390Y-82726785D02*
X136981009Y-82774404D01*
X136981009Y-82774404D02*
X137028628Y-82869642D01*
X137028628Y-82869642D02*
X137028628Y-83250594D01*
X137504819Y-81726785D02*
X137504819Y-82298213D01*
X137504819Y-82012499D02*
X136504819Y-82012499D01*
X136504819Y-82012499D02*
X136647676Y-82107737D01*
X136647676Y-82107737D02*
X136742914Y-82202975D01*
X136742914Y-82202975D02*
X136790533Y-82298213D01*
D11*
X169369048Y-85904809D02*
X169654762Y-85904809D01*
X169511905Y-86404809D02*
X169511905Y-85904809D01*
X169821428Y-86404809D02*
X169821428Y-85904809D01*
X169821428Y-85904809D02*
X170011904Y-85904809D01*
X170011904Y-85904809D02*
X170059523Y-85928619D01*
X170059523Y-85928619D02*
X170083333Y-85952428D01*
X170083333Y-85952428D02*
X170107142Y-86000047D01*
X170107142Y-86000047D02*
X170107142Y-86071476D01*
X170107142Y-86071476D02*
X170083333Y-86119095D01*
X170083333Y-86119095D02*
X170059523Y-86142904D01*
X170059523Y-86142904D02*
X170011904Y-86166714D01*
X170011904Y-86166714D02*
X169821428Y-86166714D01*
X170535714Y-85904809D02*
X170440476Y-85904809D01*
X170440476Y-85904809D02*
X170392857Y-85928619D01*
X170392857Y-85928619D02*
X170369047Y-85952428D01*
X170369047Y-85952428D02*
X170321428Y-86023857D01*
X170321428Y-86023857D02*
X170297619Y-86119095D01*
X170297619Y-86119095D02*
X170297619Y-86309571D01*
X170297619Y-86309571D02*
X170321428Y-86357190D01*
X170321428Y-86357190D02*
X170345238Y-86381000D01*
X170345238Y-86381000D02*
X170392857Y-86404809D01*
X170392857Y-86404809D02*
X170488095Y-86404809D01*
X170488095Y-86404809D02*
X170535714Y-86381000D01*
X170535714Y-86381000D02*
X170559523Y-86357190D01*
X170559523Y-86357190D02*
X170583333Y-86309571D01*
X170583333Y-86309571D02*
X170583333Y-86190523D01*
X170583333Y-86190523D02*
X170559523Y-86142904D01*
X170559523Y-86142904D02*
X170535714Y-86119095D01*
X170535714Y-86119095D02*
X170488095Y-86095285D01*
X170488095Y-86095285D02*
X170392857Y-86095285D01*
X170392857Y-86095285D02*
X170345238Y-86119095D01*
X170345238Y-86119095D02*
X170321428Y-86142904D01*
X170321428Y-86142904D02*
X170297619Y-86190523D01*
D10*
X168893333Y-81824819D02*
X168560000Y-81348628D01*
X168321905Y-81824819D02*
X168321905Y-80824819D01*
X168321905Y-80824819D02*
X168702857Y-80824819D01*
X168702857Y-80824819D02*
X168798095Y-80872438D01*
X168798095Y-80872438D02*
X168845714Y-80920057D01*
X168845714Y-80920057D02*
X168893333Y-81015295D01*
X168893333Y-81015295D02*
X168893333Y-81158152D01*
X168893333Y-81158152D02*
X168845714Y-81253390D01*
X168845714Y-81253390D02*
X168798095Y-81301009D01*
X168798095Y-81301009D02*
X168702857Y-81348628D01*
X168702857Y-81348628D02*
X168321905Y-81348628D01*
X169750476Y-81158152D02*
X169750476Y-81824819D01*
X169512381Y-80777200D02*
X169274286Y-81491485D01*
X169274286Y-81491485D02*
X169893333Y-81491485D01*
D11*
X182499047Y-116084809D02*
X182499047Y-115584809D01*
X182499047Y-115822904D02*
X182784761Y-115822904D01*
X182784761Y-116084809D02*
X182784761Y-115584809D01*
X182975238Y-115584809D02*
X183284762Y-115584809D01*
X183284762Y-115584809D02*
X183118095Y-115775285D01*
X183118095Y-115775285D02*
X183189524Y-115775285D01*
X183189524Y-115775285D02*
X183237143Y-115799095D01*
X183237143Y-115799095D02*
X183260952Y-115822904D01*
X183260952Y-115822904D02*
X183284762Y-115870523D01*
X183284762Y-115870523D02*
X183284762Y-115989571D01*
X183284762Y-115989571D02*
X183260952Y-116037190D01*
X183260952Y-116037190D02*
X183237143Y-116061000D01*
X183237143Y-116061000D02*
X183189524Y-116084809D01*
X183189524Y-116084809D02*
X183046667Y-116084809D01*
X183046667Y-116084809D02*
X182999048Y-116061000D01*
X182999048Y-116061000D02*
X182975238Y-116037190D01*
X169139048Y-101904809D02*
X169424762Y-101904809D01*
X169281905Y-102404809D02*
X169281905Y-101904809D01*
X169591428Y-102404809D02*
X169591428Y-101904809D01*
X169591428Y-101904809D02*
X169781904Y-101904809D01*
X169781904Y-101904809D02*
X169829523Y-101928619D01*
X169829523Y-101928619D02*
X169853333Y-101952428D01*
X169853333Y-101952428D02*
X169877142Y-102000047D01*
X169877142Y-102000047D02*
X169877142Y-102071476D01*
X169877142Y-102071476D02*
X169853333Y-102119095D01*
X169853333Y-102119095D02*
X169829523Y-102142904D01*
X169829523Y-102142904D02*
X169781904Y-102166714D01*
X169781904Y-102166714D02*
X169591428Y-102166714D01*
X170305714Y-102071476D02*
X170305714Y-102404809D01*
X170186666Y-101881000D02*
X170067619Y-102238142D01*
X170067619Y-102238142D02*
X170377142Y-102238142D01*
D10*
X161399580Y-101562857D02*
X161447200Y-101610476D01*
X161447200Y-101610476D02*
X161494819Y-101753333D01*
X161494819Y-101753333D02*
X161494819Y-101848571D01*
X161494819Y-101848571D02*
X161447200Y-101991428D01*
X161447200Y-101991428D02*
X161351961Y-102086666D01*
X161351961Y-102086666D02*
X161256723Y-102134285D01*
X161256723Y-102134285D02*
X161066247Y-102181904D01*
X161066247Y-102181904D02*
X160923390Y-102181904D01*
X160923390Y-102181904D02*
X160732914Y-102134285D01*
X160732914Y-102134285D02*
X160637676Y-102086666D01*
X160637676Y-102086666D02*
X160542438Y-101991428D01*
X160542438Y-101991428D02*
X160494819Y-101848571D01*
X160494819Y-101848571D02*
X160494819Y-101753333D01*
X160494819Y-101753333D02*
X160542438Y-101610476D01*
X160542438Y-101610476D02*
X160590057Y-101562857D01*
X160590057Y-101181904D02*
X160542438Y-101134285D01*
X160542438Y-101134285D02*
X160494819Y-101039047D01*
X160494819Y-101039047D02*
X160494819Y-100800952D01*
X160494819Y-100800952D02*
X160542438Y-100705714D01*
X160542438Y-100705714D02*
X160590057Y-100658095D01*
X160590057Y-100658095D02*
X160685295Y-100610476D01*
X160685295Y-100610476D02*
X160780533Y-100610476D01*
X160780533Y-100610476D02*
X160923390Y-100658095D01*
X160923390Y-100658095D02*
X161494819Y-101229523D01*
X161494819Y-101229523D02*
X161494819Y-100610476D01*
X161494819Y-99658095D02*
X161494819Y-100229523D01*
X161494819Y-99943809D02*
X160494819Y-99943809D01*
X160494819Y-99943809D02*
X160637676Y-100039047D01*
X160637676Y-100039047D02*
X160732914Y-100134285D01*
X160732914Y-100134285D02*
X160780533Y-100229523D01*
X135909642Y-101994819D02*
X135576309Y-101518628D01*
X135338214Y-101994819D02*
X135338214Y-100994819D01*
X135338214Y-100994819D02*
X135719166Y-100994819D01*
X135719166Y-100994819D02*
X135814404Y-101042438D01*
X135814404Y-101042438D02*
X135862023Y-101090057D01*
X135862023Y-101090057D02*
X135909642Y-101185295D01*
X135909642Y-101185295D02*
X135909642Y-101328152D01*
X135909642Y-101328152D02*
X135862023Y-101423390D01*
X135862023Y-101423390D02*
X135814404Y-101471009D01*
X135814404Y-101471009D02*
X135719166Y-101518628D01*
X135719166Y-101518628D02*
X135338214Y-101518628D01*
X136862023Y-101994819D02*
X136290595Y-101994819D01*
X136576309Y-101994819D02*
X136576309Y-100994819D01*
X136576309Y-100994819D02*
X136481071Y-101137676D01*
X136481071Y-101137676D02*
X136385833Y-101232914D01*
X136385833Y-101232914D02*
X136290595Y-101280533D01*
X137242976Y-101090057D02*
X137290595Y-101042438D01*
X137290595Y-101042438D02*
X137385833Y-100994819D01*
X137385833Y-100994819D02*
X137623928Y-100994819D01*
X137623928Y-100994819D02*
X137719166Y-101042438D01*
X137719166Y-101042438D02*
X137766785Y-101090057D01*
X137766785Y-101090057D02*
X137814404Y-101185295D01*
X137814404Y-101185295D02*
X137814404Y-101280533D01*
X137814404Y-101280533D02*
X137766785Y-101423390D01*
X137766785Y-101423390D02*
X137195357Y-101994819D01*
X137195357Y-101994819D02*
X137814404Y-101994819D01*
X154031905Y-77544819D02*
X154031905Y-76544819D01*
X154031905Y-76544819D02*
X154270000Y-76544819D01*
X154270000Y-76544819D02*
X154412857Y-76592438D01*
X154412857Y-76592438D02*
X154508095Y-76687676D01*
X154508095Y-76687676D02*
X154555714Y-76782914D01*
X154555714Y-76782914D02*
X154603333Y-76973390D01*
X154603333Y-76973390D02*
X154603333Y-77116247D01*
X154603333Y-77116247D02*
X154555714Y-77306723D01*
X154555714Y-77306723D02*
X154508095Y-77401961D01*
X154508095Y-77401961D02*
X154412857Y-77497200D01*
X154412857Y-77497200D02*
X154270000Y-77544819D01*
X154270000Y-77544819D02*
X154031905Y-77544819D01*
X155555714Y-77544819D02*
X154984286Y-77544819D01*
X155270000Y-77544819D02*
X155270000Y-76544819D01*
X155270000Y-76544819D02*
X155174762Y-76687676D01*
X155174762Y-76687676D02*
X155079524Y-76782914D01*
X155079524Y-76782914D02*
X154984286Y-76830533D01*
X157913333Y-83869580D02*
X157865714Y-83917200D01*
X157865714Y-83917200D02*
X157722857Y-83964819D01*
X157722857Y-83964819D02*
X157627619Y-83964819D01*
X157627619Y-83964819D02*
X157484762Y-83917200D01*
X157484762Y-83917200D02*
X157389524Y-83821961D01*
X157389524Y-83821961D02*
X157341905Y-83726723D01*
X157341905Y-83726723D02*
X157294286Y-83536247D01*
X157294286Y-83536247D02*
X157294286Y-83393390D01*
X157294286Y-83393390D02*
X157341905Y-83202914D01*
X157341905Y-83202914D02*
X157389524Y-83107676D01*
X157389524Y-83107676D02*
X157484762Y-83012438D01*
X157484762Y-83012438D02*
X157627619Y-82964819D01*
X157627619Y-82964819D02*
X157722857Y-82964819D01*
X157722857Y-82964819D02*
X157865714Y-83012438D01*
X157865714Y-83012438D02*
X157913333Y-83060057D01*
X158389524Y-83964819D02*
X158580000Y-83964819D01*
X158580000Y-83964819D02*
X158675238Y-83917200D01*
X158675238Y-83917200D02*
X158722857Y-83869580D01*
X158722857Y-83869580D02*
X158818095Y-83726723D01*
X158818095Y-83726723D02*
X158865714Y-83536247D01*
X158865714Y-83536247D02*
X158865714Y-83155295D01*
X158865714Y-83155295D02*
X158818095Y-83060057D01*
X158818095Y-83060057D02*
X158770476Y-83012438D01*
X158770476Y-83012438D02*
X158675238Y-82964819D01*
X158675238Y-82964819D02*
X158484762Y-82964819D01*
X158484762Y-82964819D02*
X158389524Y-83012438D01*
X158389524Y-83012438D02*
X158341905Y-83060057D01*
X158341905Y-83060057D02*
X158294286Y-83155295D01*
X158294286Y-83155295D02*
X158294286Y-83393390D01*
X158294286Y-83393390D02*
X158341905Y-83488628D01*
X158341905Y-83488628D02*
X158389524Y-83536247D01*
X158389524Y-83536247D02*
X158484762Y-83583866D01*
X158484762Y-83583866D02*
X158675238Y-83583866D01*
X158675238Y-83583866D02*
X158770476Y-83536247D01*
X158770476Y-83536247D02*
X158818095Y-83488628D01*
X158818095Y-83488628D02*
X158865714Y-83393390D01*
X142397142Y-78839580D02*
X142349523Y-78887200D01*
X142349523Y-78887200D02*
X142206666Y-78934819D01*
X142206666Y-78934819D02*
X142111428Y-78934819D01*
X142111428Y-78934819D02*
X141968571Y-78887200D01*
X141968571Y-78887200D02*
X141873333Y-78791961D01*
X141873333Y-78791961D02*
X141825714Y-78696723D01*
X141825714Y-78696723D02*
X141778095Y-78506247D01*
X141778095Y-78506247D02*
X141778095Y-78363390D01*
X141778095Y-78363390D02*
X141825714Y-78172914D01*
X141825714Y-78172914D02*
X141873333Y-78077676D01*
X141873333Y-78077676D02*
X141968571Y-77982438D01*
X141968571Y-77982438D02*
X142111428Y-77934819D01*
X142111428Y-77934819D02*
X142206666Y-77934819D01*
X142206666Y-77934819D02*
X142349523Y-77982438D01*
X142349523Y-77982438D02*
X142397142Y-78030057D01*
X142778095Y-78030057D02*
X142825714Y-77982438D01*
X142825714Y-77982438D02*
X142920952Y-77934819D01*
X142920952Y-77934819D02*
X143159047Y-77934819D01*
X143159047Y-77934819D02*
X143254285Y-77982438D01*
X143254285Y-77982438D02*
X143301904Y-78030057D01*
X143301904Y-78030057D02*
X143349523Y-78125295D01*
X143349523Y-78125295D02*
X143349523Y-78220533D01*
X143349523Y-78220533D02*
X143301904Y-78363390D01*
X143301904Y-78363390D02*
X142730476Y-78934819D01*
X142730476Y-78934819D02*
X143349523Y-78934819D01*
X143968571Y-77934819D02*
X144063809Y-77934819D01*
X144063809Y-77934819D02*
X144159047Y-77982438D01*
X144159047Y-77982438D02*
X144206666Y-78030057D01*
X144206666Y-78030057D02*
X144254285Y-78125295D01*
X144254285Y-78125295D02*
X144301904Y-78315771D01*
X144301904Y-78315771D02*
X144301904Y-78553866D01*
X144301904Y-78553866D02*
X144254285Y-78744342D01*
X144254285Y-78744342D02*
X144206666Y-78839580D01*
X144206666Y-78839580D02*
X144159047Y-78887200D01*
X144159047Y-78887200D02*
X144063809Y-78934819D01*
X144063809Y-78934819D02*
X143968571Y-78934819D01*
X143968571Y-78934819D02*
X143873333Y-78887200D01*
X143873333Y-78887200D02*
X143825714Y-78839580D01*
X143825714Y-78839580D02*
X143778095Y-78744342D01*
X143778095Y-78744342D02*
X143730476Y-78553866D01*
X143730476Y-78553866D02*
X143730476Y-78315771D01*
X143730476Y-78315771D02*
X143778095Y-78125295D01*
X143778095Y-78125295D02*
X143825714Y-78030057D01*
X143825714Y-78030057D02*
X143873333Y-77982438D01*
X143873333Y-77982438D02*
X143968571Y-77934819D01*
X158693333Y-86034819D02*
X158360000Y-85558628D01*
X158121905Y-86034819D02*
X158121905Y-85034819D01*
X158121905Y-85034819D02*
X158502857Y-85034819D01*
X158502857Y-85034819D02*
X158598095Y-85082438D01*
X158598095Y-85082438D02*
X158645714Y-85130057D01*
X158645714Y-85130057D02*
X158693333Y-85225295D01*
X158693333Y-85225295D02*
X158693333Y-85368152D01*
X158693333Y-85368152D02*
X158645714Y-85463390D01*
X158645714Y-85463390D02*
X158598095Y-85511009D01*
X158598095Y-85511009D02*
X158502857Y-85558628D01*
X158502857Y-85558628D02*
X158121905Y-85558628D01*
X159550476Y-85034819D02*
X159360000Y-85034819D01*
X159360000Y-85034819D02*
X159264762Y-85082438D01*
X159264762Y-85082438D02*
X159217143Y-85130057D01*
X159217143Y-85130057D02*
X159121905Y-85272914D01*
X159121905Y-85272914D02*
X159074286Y-85463390D01*
X159074286Y-85463390D02*
X159074286Y-85844342D01*
X159074286Y-85844342D02*
X159121905Y-85939580D01*
X159121905Y-85939580D02*
X159169524Y-85987200D01*
X159169524Y-85987200D02*
X159264762Y-86034819D01*
X159264762Y-86034819D02*
X159455238Y-86034819D01*
X159455238Y-86034819D02*
X159550476Y-85987200D01*
X159550476Y-85987200D02*
X159598095Y-85939580D01*
X159598095Y-85939580D02*
X159645714Y-85844342D01*
X159645714Y-85844342D02*
X159645714Y-85606247D01*
X159645714Y-85606247D02*
X159598095Y-85511009D01*
X159598095Y-85511009D02*
X159550476Y-85463390D01*
X159550476Y-85463390D02*
X159455238Y-85415771D01*
X159455238Y-85415771D02*
X159264762Y-85415771D01*
X159264762Y-85415771D02*
X159169524Y-85463390D01*
X159169524Y-85463390D02*
X159121905Y-85511009D01*
X159121905Y-85511009D02*
X159074286Y-85606247D01*
X168609580Y-88216666D02*
X168657200Y-88264285D01*
X168657200Y-88264285D02*
X168704819Y-88407142D01*
X168704819Y-88407142D02*
X168704819Y-88502380D01*
X168704819Y-88502380D02*
X168657200Y-88645237D01*
X168657200Y-88645237D02*
X168561961Y-88740475D01*
X168561961Y-88740475D02*
X168466723Y-88788094D01*
X168466723Y-88788094D02*
X168276247Y-88835713D01*
X168276247Y-88835713D02*
X168133390Y-88835713D01*
X168133390Y-88835713D02*
X167942914Y-88788094D01*
X167942914Y-88788094D02*
X167847676Y-88740475D01*
X167847676Y-88740475D02*
X167752438Y-88645237D01*
X167752438Y-88645237D02*
X167704819Y-88502380D01*
X167704819Y-88502380D02*
X167704819Y-88407142D01*
X167704819Y-88407142D02*
X167752438Y-88264285D01*
X167752438Y-88264285D02*
X167800057Y-88216666D01*
X167704819Y-87883332D02*
X167704819Y-87216666D01*
X167704819Y-87216666D02*
X168704819Y-87645237D01*
D11*
X179144809Y-84826666D02*
X179501952Y-84826666D01*
X179501952Y-84826666D02*
X179573380Y-84850475D01*
X179573380Y-84850475D02*
X179621000Y-84898094D01*
X179621000Y-84898094D02*
X179644809Y-84969523D01*
X179644809Y-84969523D02*
X179644809Y-85017142D01*
X179311476Y-84374285D02*
X179644809Y-84374285D01*
X179121000Y-84493333D02*
X179478142Y-84612380D01*
X179478142Y-84612380D02*
X179478142Y-84302857D01*
X169269048Y-91824809D02*
X169554762Y-91824809D01*
X169411905Y-92324809D02*
X169411905Y-91824809D01*
X169721428Y-92324809D02*
X169721428Y-91824809D01*
X169721428Y-91824809D02*
X169911904Y-91824809D01*
X169911904Y-91824809D02*
X169959523Y-91848619D01*
X169959523Y-91848619D02*
X169983333Y-91872428D01*
X169983333Y-91872428D02*
X170007142Y-91920047D01*
X170007142Y-91920047D02*
X170007142Y-91991476D01*
X170007142Y-91991476D02*
X169983333Y-92039095D01*
X169983333Y-92039095D02*
X169959523Y-92062904D01*
X169959523Y-92062904D02*
X169911904Y-92086714D01*
X169911904Y-92086714D02*
X169721428Y-92086714D01*
X170173809Y-91824809D02*
X170507142Y-91824809D01*
X170507142Y-91824809D02*
X170292857Y-92324809D01*
D10*
X135484819Y-94963333D02*
X136199104Y-94963333D01*
X136199104Y-94963333D02*
X136341961Y-95010952D01*
X136341961Y-95010952D02*
X136437200Y-95106190D01*
X136437200Y-95106190D02*
X136484819Y-95249047D01*
X136484819Y-95249047D02*
X136484819Y-95344285D01*
X136484819Y-93963333D02*
X136484819Y-94534761D01*
X136484819Y-94249047D02*
X135484819Y-94249047D01*
X135484819Y-94249047D02*
X135627676Y-94344285D01*
X135627676Y-94344285D02*
X135722914Y-94439523D01*
X135722914Y-94439523D02*
X135770533Y-94534761D01*
X138759580Y-120999047D02*
X138807200Y-121046666D01*
X138807200Y-121046666D02*
X138854819Y-121189523D01*
X138854819Y-121189523D02*
X138854819Y-121284761D01*
X138854819Y-121284761D02*
X138807200Y-121427618D01*
X138807200Y-121427618D02*
X138711961Y-121522856D01*
X138711961Y-121522856D02*
X138616723Y-121570475D01*
X138616723Y-121570475D02*
X138426247Y-121618094D01*
X138426247Y-121618094D02*
X138283390Y-121618094D01*
X138283390Y-121618094D02*
X138092914Y-121570475D01*
X138092914Y-121570475D02*
X137997676Y-121522856D01*
X137997676Y-121522856D02*
X137902438Y-121427618D01*
X137902438Y-121427618D02*
X137854819Y-121284761D01*
X137854819Y-121284761D02*
X137854819Y-121189523D01*
X137854819Y-121189523D02*
X137902438Y-121046666D01*
X137902438Y-121046666D02*
X137950057Y-120999047D01*
X137950057Y-120618094D02*
X137902438Y-120570475D01*
X137902438Y-120570475D02*
X137854819Y-120475237D01*
X137854819Y-120475237D02*
X137854819Y-120237142D01*
X137854819Y-120237142D02*
X137902438Y-120141904D01*
X137902438Y-120141904D02*
X137950057Y-120094285D01*
X137950057Y-120094285D02*
X138045295Y-120046666D01*
X138045295Y-120046666D02*
X138140533Y-120046666D01*
X138140533Y-120046666D02*
X138283390Y-120094285D01*
X138283390Y-120094285D02*
X138854819Y-120665713D01*
X138854819Y-120665713D02*
X138854819Y-120046666D01*
X137854819Y-119427618D02*
X137854819Y-119332380D01*
X137854819Y-119332380D02*
X137902438Y-119237142D01*
X137902438Y-119237142D02*
X137950057Y-119189523D01*
X137950057Y-119189523D02*
X138045295Y-119141904D01*
X138045295Y-119141904D02*
X138235771Y-119094285D01*
X138235771Y-119094285D02*
X138473866Y-119094285D01*
X138473866Y-119094285D02*
X138664342Y-119141904D01*
X138664342Y-119141904D02*
X138759580Y-119189523D01*
X138759580Y-119189523D02*
X138807200Y-119237142D01*
X138807200Y-119237142D02*
X138854819Y-119332380D01*
X138854819Y-119332380D02*
X138854819Y-119427618D01*
X138854819Y-119427618D02*
X138807200Y-119522856D01*
X138807200Y-119522856D02*
X138759580Y-119570475D01*
X138759580Y-119570475D02*
X138664342Y-119618094D01*
X138664342Y-119618094D02*
X138473866Y-119665713D01*
X138473866Y-119665713D02*
X138235771Y-119665713D01*
X138235771Y-119665713D02*
X138045295Y-119618094D01*
X138045295Y-119618094D02*
X137950057Y-119570475D01*
X137950057Y-119570475D02*
X137902438Y-119522856D01*
X137902438Y-119522856D02*
X137854819Y-119427618D01*
X138854819Y-118141904D02*
X138854819Y-118713332D01*
X138854819Y-118427618D02*
X137854819Y-118427618D01*
X137854819Y-118427618D02*
X137997676Y-118522856D01*
X137997676Y-118522856D02*
X138092914Y-118618094D01*
X138092914Y-118618094D02*
X138140533Y-118713332D01*
X157870833Y-78417080D02*
X157823214Y-78464700D01*
X157823214Y-78464700D02*
X157680357Y-78512319D01*
X157680357Y-78512319D02*
X157585119Y-78512319D01*
X157585119Y-78512319D02*
X157442262Y-78464700D01*
X157442262Y-78464700D02*
X157347024Y-78369461D01*
X157347024Y-78369461D02*
X157299405Y-78274223D01*
X157299405Y-78274223D02*
X157251786Y-78083747D01*
X157251786Y-78083747D02*
X157251786Y-77940890D01*
X157251786Y-77940890D02*
X157299405Y-77750414D01*
X157299405Y-77750414D02*
X157347024Y-77655176D01*
X157347024Y-77655176D02*
X157442262Y-77559938D01*
X157442262Y-77559938D02*
X157585119Y-77512319D01*
X157585119Y-77512319D02*
X157680357Y-77512319D01*
X157680357Y-77512319D02*
X157823214Y-77559938D01*
X157823214Y-77559938D02*
X157870833Y-77607557D01*
X158442262Y-77940890D02*
X158347024Y-77893271D01*
X158347024Y-77893271D02*
X158299405Y-77845652D01*
X158299405Y-77845652D02*
X158251786Y-77750414D01*
X158251786Y-77750414D02*
X158251786Y-77702795D01*
X158251786Y-77702795D02*
X158299405Y-77607557D01*
X158299405Y-77607557D02*
X158347024Y-77559938D01*
X158347024Y-77559938D02*
X158442262Y-77512319D01*
X158442262Y-77512319D02*
X158632738Y-77512319D01*
X158632738Y-77512319D02*
X158727976Y-77559938D01*
X158727976Y-77559938D02*
X158775595Y-77607557D01*
X158775595Y-77607557D02*
X158823214Y-77702795D01*
X158823214Y-77702795D02*
X158823214Y-77750414D01*
X158823214Y-77750414D02*
X158775595Y-77845652D01*
X158775595Y-77845652D02*
X158727976Y-77893271D01*
X158727976Y-77893271D02*
X158632738Y-77940890D01*
X158632738Y-77940890D02*
X158442262Y-77940890D01*
X158442262Y-77940890D02*
X158347024Y-77988509D01*
X158347024Y-77988509D02*
X158299405Y-78036128D01*
X158299405Y-78036128D02*
X158251786Y-78131366D01*
X158251786Y-78131366D02*
X158251786Y-78321842D01*
X158251786Y-78321842D02*
X158299405Y-78417080D01*
X158299405Y-78417080D02*
X158347024Y-78464700D01*
X158347024Y-78464700D02*
X158442262Y-78512319D01*
X158442262Y-78512319D02*
X158632738Y-78512319D01*
X158632738Y-78512319D02*
X158727976Y-78464700D01*
X158727976Y-78464700D02*
X158775595Y-78417080D01*
X158775595Y-78417080D02*
X158823214Y-78321842D01*
X158823214Y-78321842D02*
X158823214Y-78131366D01*
X158823214Y-78131366D02*
X158775595Y-78036128D01*
X158775595Y-78036128D02*
X158727976Y-77988509D01*
X158727976Y-77988509D02*
X158632738Y-77940890D01*
D11*
X179084809Y-104296666D02*
X179441952Y-104296666D01*
X179441952Y-104296666D02*
X179513380Y-104320475D01*
X179513380Y-104320475D02*
X179561000Y-104368094D01*
X179561000Y-104368094D02*
X179584809Y-104439523D01*
X179584809Y-104439523D02*
X179584809Y-104487142D01*
X179084809Y-103820476D02*
X179084809Y-104058571D01*
X179084809Y-104058571D02*
X179322904Y-104082380D01*
X179322904Y-104082380D02*
X179299095Y-104058571D01*
X179299095Y-104058571D02*
X179275285Y-104010952D01*
X179275285Y-104010952D02*
X179275285Y-103891904D01*
X179275285Y-103891904D02*
X179299095Y-103844285D01*
X179299095Y-103844285D02*
X179322904Y-103820476D01*
X179322904Y-103820476D02*
X179370523Y-103796666D01*
X179370523Y-103796666D02*
X179489571Y-103796666D01*
X179489571Y-103796666D02*
X179537190Y-103820476D01*
X179537190Y-103820476D02*
X179561000Y-103844285D01*
X179561000Y-103844285D02*
X179584809Y-103891904D01*
X179584809Y-103891904D02*
X179584809Y-104010952D01*
X179584809Y-104010952D02*
X179561000Y-104058571D01*
X179561000Y-104058571D02*
X179537190Y-104082380D01*
X140874809Y-90550952D02*
X141279571Y-90550952D01*
X141279571Y-90550952D02*
X141327190Y-90527142D01*
X141327190Y-90527142D02*
X141351000Y-90503333D01*
X141351000Y-90503333D02*
X141374809Y-90455714D01*
X141374809Y-90455714D02*
X141374809Y-90360476D01*
X141374809Y-90360476D02*
X141351000Y-90312857D01*
X141351000Y-90312857D02*
X141327190Y-90289047D01*
X141327190Y-90289047D02*
X141279571Y-90265238D01*
X141279571Y-90265238D02*
X140874809Y-90265238D01*
X141374809Y-89765237D02*
X141374809Y-90050951D01*
X141374809Y-89908094D02*
X140874809Y-89908094D01*
X140874809Y-89908094D02*
X140946238Y-89955713D01*
X140946238Y-89955713D02*
X140993857Y-90003332D01*
X140993857Y-90003332D02*
X141017666Y-90050951D01*
D10*
X173949580Y-98292857D02*
X173997200Y-98340476D01*
X173997200Y-98340476D02*
X174044819Y-98483333D01*
X174044819Y-98483333D02*
X174044819Y-98578571D01*
X174044819Y-98578571D02*
X173997200Y-98721428D01*
X173997200Y-98721428D02*
X173901961Y-98816666D01*
X173901961Y-98816666D02*
X173806723Y-98864285D01*
X173806723Y-98864285D02*
X173616247Y-98911904D01*
X173616247Y-98911904D02*
X173473390Y-98911904D01*
X173473390Y-98911904D02*
X173282914Y-98864285D01*
X173282914Y-98864285D02*
X173187676Y-98816666D01*
X173187676Y-98816666D02*
X173092438Y-98721428D01*
X173092438Y-98721428D02*
X173044819Y-98578571D01*
X173044819Y-98578571D02*
X173044819Y-98483333D01*
X173044819Y-98483333D02*
X173092438Y-98340476D01*
X173092438Y-98340476D02*
X173140057Y-98292857D01*
X173140057Y-97911904D02*
X173092438Y-97864285D01*
X173092438Y-97864285D02*
X173044819Y-97769047D01*
X173044819Y-97769047D02*
X173044819Y-97530952D01*
X173044819Y-97530952D02*
X173092438Y-97435714D01*
X173092438Y-97435714D02*
X173140057Y-97388095D01*
X173140057Y-97388095D02*
X173235295Y-97340476D01*
X173235295Y-97340476D02*
X173330533Y-97340476D01*
X173330533Y-97340476D02*
X173473390Y-97388095D01*
X173473390Y-97388095D02*
X174044819Y-97959523D01*
X174044819Y-97959523D02*
X174044819Y-97340476D01*
X173473390Y-96769047D02*
X173425771Y-96864285D01*
X173425771Y-96864285D02*
X173378152Y-96911904D01*
X173378152Y-96911904D02*
X173282914Y-96959523D01*
X173282914Y-96959523D02*
X173235295Y-96959523D01*
X173235295Y-96959523D02*
X173140057Y-96911904D01*
X173140057Y-96911904D02*
X173092438Y-96864285D01*
X173092438Y-96864285D02*
X173044819Y-96769047D01*
X173044819Y-96769047D02*
X173044819Y-96578571D01*
X173044819Y-96578571D02*
X173092438Y-96483333D01*
X173092438Y-96483333D02*
X173140057Y-96435714D01*
X173140057Y-96435714D02*
X173235295Y-96388095D01*
X173235295Y-96388095D02*
X173282914Y-96388095D01*
X173282914Y-96388095D02*
X173378152Y-96435714D01*
X173378152Y-96435714D02*
X173425771Y-96483333D01*
X173425771Y-96483333D02*
X173473390Y-96578571D01*
X173473390Y-96578571D02*
X173473390Y-96769047D01*
X173473390Y-96769047D02*
X173521009Y-96864285D01*
X173521009Y-96864285D02*
X173568628Y-96911904D01*
X173568628Y-96911904D02*
X173663866Y-96959523D01*
X173663866Y-96959523D02*
X173854342Y-96959523D01*
X173854342Y-96959523D02*
X173949580Y-96911904D01*
X173949580Y-96911904D02*
X173997200Y-96864285D01*
X173997200Y-96864285D02*
X174044819Y-96769047D01*
X174044819Y-96769047D02*
X174044819Y-96578571D01*
X174044819Y-96578571D02*
X173997200Y-96483333D01*
X173997200Y-96483333D02*
X173949580Y-96435714D01*
X173949580Y-96435714D02*
X173854342Y-96388095D01*
X173854342Y-96388095D02*
X173663866Y-96388095D01*
X173663866Y-96388095D02*
X173568628Y-96435714D01*
X173568628Y-96435714D02*
X173521009Y-96483333D01*
X173521009Y-96483333D02*
X173473390Y-96578571D01*
D11*
X167123334Y-74231000D02*
X167194762Y-74254809D01*
X167194762Y-74254809D02*
X167313810Y-74254809D01*
X167313810Y-74254809D02*
X167361429Y-74231000D01*
X167361429Y-74231000D02*
X167385238Y-74207190D01*
X167385238Y-74207190D02*
X167409048Y-74159571D01*
X167409048Y-74159571D02*
X167409048Y-74111952D01*
X167409048Y-74111952D02*
X167385238Y-74064333D01*
X167385238Y-74064333D02*
X167361429Y-74040523D01*
X167361429Y-74040523D02*
X167313810Y-74016714D01*
X167313810Y-74016714D02*
X167218572Y-73992904D01*
X167218572Y-73992904D02*
X167170953Y-73969095D01*
X167170953Y-73969095D02*
X167147143Y-73945285D01*
X167147143Y-73945285D02*
X167123334Y-73897666D01*
X167123334Y-73897666D02*
X167123334Y-73850047D01*
X167123334Y-73850047D02*
X167147143Y-73802428D01*
X167147143Y-73802428D02*
X167170953Y-73778619D01*
X167170953Y-73778619D02*
X167218572Y-73754809D01*
X167218572Y-73754809D02*
X167337619Y-73754809D01*
X167337619Y-73754809D02*
X167409048Y-73778619D01*
X167575714Y-73754809D02*
X167694762Y-74254809D01*
X167694762Y-74254809D02*
X167790000Y-73897666D01*
X167790000Y-73897666D02*
X167885238Y-74254809D01*
X167885238Y-74254809D02*
X168004286Y-73754809D01*
X168170953Y-73802428D02*
X168194762Y-73778619D01*
X168194762Y-73778619D02*
X168242381Y-73754809D01*
X168242381Y-73754809D02*
X168361429Y-73754809D01*
X168361429Y-73754809D02*
X168409048Y-73778619D01*
X168409048Y-73778619D02*
X168432857Y-73802428D01*
X168432857Y-73802428D02*
X168456667Y-73850047D01*
X168456667Y-73850047D02*
X168456667Y-73897666D01*
X168456667Y-73897666D02*
X168432857Y-73969095D01*
X168432857Y-73969095D02*
X168147143Y-74254809D01*
X168147143Y-74254809D02*
X168456667Y-74254809D01*
D10*
X176654819Y-107061904D02*
X177464342Y-107061904D01*
X177464342Y-107061904D02*
X177559580Y-107014285D01*
X177559580Y-107014285D02*
X177607200Y-106966666D01*
X177607200Y-106966666D02*
X177654819Y-106871428D01*
X177654819Y-106871428D02*
X177654819Y-106680952D01*
X177654819Y-106680952D02*
X177607200Y-106585714D01*
X177607200Y-106585714D02*
X177559580Y-106538095D01*
X177559580Y-106538095D02*
X177464342Y-106490476D01*
X177464342Y-106490476D02*
X176654819Y-106490476D01*
X176988152Y-105585714D02*
X177654819Y-105585714D01*
X176607200Y-105823809D02*
X177321485Y-106061904D01*
X177321485Y-106061904D02*
X177321485Y-105442857D01*
X145102142Y-110779580D02*
X145054523Y-110827200D01*
X145054523Y-110827200D02*
X144911666Y-110874819D01*
X144911666Y-110874819D02*
X144816428Y-110874819D01*
X144816428Y-110874819D02*
X144673571Y-110827200D01*
X144673571Y-110827200D02*
X144578333Y-110731961D01*
X144578333Y-110731961D02*
X144530714Y-110636723D01*
X144530714Y-110636723D02*
X144483095Y-110446247D01*
X144483095Y-110446247D02*
X144483095Y-110303390D01*
X144483095Y-110303390D02*
X144530714Y-110112914D01*
X144530714Y-110112914D02*
X144578333Y-110017676D01*
X144578333Y-110017676D02*
X144673571Y-109922438D01*
X144673571Y-109922438D02*
X144816428Y-109874819D01*
X144816428Y-109874819D02*
X144911666Y-109874819D01*
X144911666Y-109874819D02*
X145054523Y-109922438D01*
X145054523Y-109922438D02*
X145102142Y-109970057D01*
X146054523Y-110874819D02*
X145483095Y-110874819D01*
X145768809Y-110874819D02*
X145768809Y-109874819D01*
X145768809Y-109874819D02*
X145673571Y-110017676D01*
X145673571Y-110017676D02*
X145578333Y-110112914D01*
X145578333Y-110112914D02*
X145483095Y-110160533D01*
X146911666Y-109874819D02*
X146721190Y-109874819D01*
X146721190Y-109874819D02*
X146625952Y-109922438D01*
X146625952Y-109922438D02*
X146578333Y-109970057D01*
X146578333Y-109970057D02*
X146483095Y-110112914D01*
X146483095Y-110112914D02*
X146435476Y-110303390D01*
X146435476Y-110303390D02*
X146435476Y-110684342D01*
X146435476Y-110684342D02*
X146483095Y-110779580D01*
X146483095Y-110779580D02*
X146530714Y-110827200D01*
X146530714Y-110827200D02*
X146625952Y-110874819D01*
X146625952Y-110874819D02*
X146816428Y-110874819D01*
X146816428Y-110874819D02*
X146911666Y-110827200D01*
X146911666Y-110827200D02*
X146959285Y-110779580D01*
X146959285Y-110779580D02*
X147006904Y-110684342D01*
X147006904Y-110684342D02*
X147006904Y-110446247D01*
X147006904Y-110446247D02*
X146959285Y-110351009D01*
X146959285Y-110351009D02*
X146911666Y-110303390D01*
X146911666Y-110303390D02*
X146816428Y-110255771D01*
X146816428Y-110255771D02*
X146625952Y-110255771D01*
X146625952Y-110255771D02*
X146530714Y-110303390D01*
X146530714Y-110303390D02*
X146483095Y-110351009D01*
X146483095Y-110351009D02*
X146435476Y-110446247D01*
X167244819Y-84446666D02*
X166768628Y-84779999D01*
X167244819Y-85018094D02*
X166244819Y-85018094D01*
X166244819Y-85018094D02*
X166244819Y-84637142D01*
X166244819Y-84637142D02*
X166292438Y-84541904D01*
X166292438Y-84541904D02*
X166340057Y-84494285D01*
X166340057Y-84494285D02*
X166435295Y-84446666D01*
X166435295Y-84446666D02*
X166578152Y-84446666D01*
X166578152Y-84446666D02*
X166673390Y-84494285D01*
X166673390Y-84494285D02*
X166721009Y-84541904D01*
X166721009Y-84541904D02*
X166768628Y-84637142D01*
X166768628Y-84637142D02*
X166768628Y-85018094D01*
X166244819Y-84113332D02*
X166244819Y-83446666D01*
X166244819Y-83446666D02*
X167244819Y-83875237D01*
X158428333Y-77024819D02*
X158095000Y-76548628D01*
X157856905Y-77024819D02*
X157856905Y-76024819D01*
X157856905Y-76024819D02*
X158237857Y-76024819D01*
X158237857Y-76024819D02*
X158333095Y-76072438D01*
X158333095Y-76072438D02*
X158380714Y-76120057D01*
X158380714Y-76120057D02*
X158428333Y-76215295D01*
X158428333Y-76215295D02*
X158428333Y-76358152D01*
X158428333Y-76358152D02*
X158380714Y-76453390D01*
X158380714Y-76453390D02*
X158333095Y-76501009D01*
X158333095Y-76501009D02*
X158237857Y-76548628D01*
X158237857Y-76548628D02*
X157856905Y-76548628D01*
X158761667Y-76024819D02*
X159380714Y-76024819D01*
X159380714Y-76024819D02*
X159047381Y-76405771D01*
X159047381Y-76405771D02*
X159190238Y-76405771D01*
X159190238Y-76405771D02*
X159285476Y-76453390D01*
X159285476Y-76453390D02*
X159333095Y-76501009D01*
X159333095Y-76501009D02*
X159380714Y-76596247D01*
X159380714Y-76596247D02*
X159380714Y-76834342D01*
X159380714Y-76834342D02*
X159333095Y-76929580D01*
X159333095Y-76929580D02*
X159285476Y-76977200D01*
X159285476Y-76977200D02*
X159190238Y-77024819D01*
X159190238Y-77024819D02*
X158904524Y-77024819D01*
X158904524Y-77024819D02*
X158809286Y-76977200D01*
X158809286Y-76977200D02*
X158761667Y-76929580D01*
D11*
X160376666Y-113924809D02*
X160138571Y-113924809D01*
X160138571Y-113924809D02*
X160138571Y-113424809D01*
X160519524Y-113472428D02*
X160543333Y-113448619D01*
X160543333Y-113448619D02*
X160590952Y-113424809D01*
X160590952Y-113424809D02*
X160710000Y-113424809D01*
X160710000Y-113424809D02*
X160757619Y-113448619D01*
X160757619Y-113448619D02*
X160781428Y-113472428D01*
X160781428Y-113472428D02*
X160805238Y-113520047D01*
X160805238Y-113520047D02*
X160805238Y-113567666D01*
X160805238Y-113567666D02*
X160781428Y-113639095D01*
X160781428Y-113639095D02*
X160495714Y-113924809D01*
X160495714Y-113924809D02*
X160805238Y-113924809D01*
D10*
X158667142Y-116219580D02*
X158619523Y-116267200D01*
X158619523Y-116267200D02*
X158476666Y-116314819D01*
X158476666Y-116314819D02*
X158381428Y-116314819D01*
X158381428Y-116314819D02*
X158238571Y-116267200D01*
X158238571Y-116267200D02*
X158143333Y-116171961D01*
X158143333Y-116171961D02*
X158095714Y-116076723D01*
X158095714Y-116076723D02*
X158048095Y-115886247D01*
X158048095Y-115886247D02*
X158048095Y-115743390D01*
X158048095Y-115743390D02*
X158095714Y-115552914D01*
X158095714Y-115552914D02*
X158143333Y-115457676D01*
X158143333Y-115457676D02*
X158238571Y-115362438D01*
X158238571Y-115362438D02*
X158381428Y-115314819D01*
X158381428Y-115314819D02*
X158476666Y-115314819D01*
X158476666Y-115314819D02*
X158619523Y-115362438D01*
X158619523Y-115362438D02*
X158667142Y-115410057D01*
X159619523Y-116314819D02*
X159048095Y-116314819D01*
X159333809Y-116314819D02*
X159333809Y-115314819D01*
X159333809Y-115314819D02*
X159238571Y-115457676D01*
X159238571Y-115457676D02*
X159143333Y-115552914D01*
X159143333Y-115552914D02*
X159048095Y-115600533D01*
X160190952Y-115743390D02*
X160095714Y-115695771D01*
X160095714Y-115695771D02*
X160048095Y-115648152D01*
X160048095Y-115648152D02*
X160000476Y-115552914D01*
X160000476Y-115552914D02*
X160000476Y-115505295D01*
X160000476Y-115505295D02*
X160048095Y-115410057D01*
X160048095Y-115410057D02*
X160095714Y-115362438D01*
X160095714Y-115362438D02*
X160190952Y-115314819D01*
X160190952Y-115314819D02*
X160381428Y-115314819D01*
X160381428Y-115314819D02*
X160476666Y-115362438D01*
X160476666Y-115362438D02*
X160524285Y-115410057D01*
X160524285Y-115410057D02*
X160571904Y-115505295D01*
X160571904Y-115505295D02*
X160571904Y-115552914D01*
X160571904Y-115552914D02*
X160524285Y-115648152D01*
X160524285Y-115648152D02*
X160476666Y-115695771D01*
X160476666Y-115695771D02*
X160381428Y-115743390D01*
X160381428Y-115743390D02*
X160190952Y-115743390D01*
X160190952Y-115743390D02*
X160095714Y-115791009D01*
X160095714Y-115791009D02*
X160048095Y-115838628D01*
X160048095Y-115838628D02*
X160000476Y-115933866D01*
X160000476Y-115933866D02*
X160000476Y-116124342D01*
X160000476Y-116124342D02*
X160048095Y-116219580D01*
X160048095Y-116219580D02*
X160095714Y-116267200D01*
X160095714Y-116267200D02*
X160190952Y-116314819D01*
X160190952Y-116314819D02*
X160381428Y-116314819D01*
X160381428Y-116314819D02*
X160476666Y-116267200D01*
X160476666Y-116267200D02*
X160524285Y-116219580D01*
X160524285Y-116219580D02*
X160571904Y-116124342D01*
X160571904Y-116124342D02*
X160571904Y-115933866D01*
X160571904Y-115933866D02*
X160524285Y-115838628D01*
X160524285Y-115838628D02*
X160476666Y-115791009D01*
X160476666Y-115791009D02*
X160381428Y-115743390D01*
X172769580Y-99332857D02*
X172817200Y-99380476D01*
X172817200Y-99380476D02*
X172864819Y-99523333D01*
X172864819Y-99523333D02*
X172864819Y-99618571D01*
X172864819Y-99618571D02*
X172817200Y-99761428D01*
X172817200Y-99761428D02*
X172721961Y-99856666D01*
X172721961Y-99856666D02*
X172626723Y-99904285D01*
X172626723Y-99904285D02*
X172436247Y-99951904D01*
X172436247Y-99951904D02*
X172293390Y-99951904D01*
X172293390Y-99951904D02*
X172102914Y-99904285D01*
X172102914Y-99904285D02*
X172007676Y-99856666D01*
X172007676Y-99856666D02*
X171912438Y-99761428D01*
X171912438Y-99761428D02*
X171864819Y-99618571D01*
X171864819Y-99618571D02*
X171864819Y-99523333D01*
X171864819Y-99523333D02*
X171912438Y-99380476D01*
X171912438Y-99380476D02*
X171960057Y-99332857D01*
X171960057Y-98951904D02*
X171912438Y-98904285D01*
X171912438Y-98904285D02*
X171864819Y-98809047D01*
X171864819Y-98809047D02*
X171864819Y-98570952D01*
X171864819Y-98570952D02*
X171912438Y-98475714D01*
X171912438Y-98475714D02*
X171960057Y-98428095D01*
X171960057Y-98428095D02*
X172055295Y-98380476D01*
X172055295Y-98380476D02*
X172150533Y-98380476D01*
X172150533Y-98380476D02*
X172293390Y-98428095D01*
X172293390Y-98428095D02*
X172864819Y-98999523D01*
X172864819Y-98999523D02*
X172864819Y-98380476D01*
X172864819Y-97904285D02*
X172864819Y-97713809D01*
X172864819Y-97713809D02*
X172817200Y-97618571D01*
X172817200Y-97618571D02*
X172769580Y-97570952D01*
X172769580Y-97570952D02*
X172626723Y-97475714D01*
X172626723Y-97475714D02*
X172436247Y-97428095D01*
X172436247Y-97428095D02*
X172055295Y-97428095D01*
X172055295Y-97428095D02*
X171960057Y-97475714D01*
X171960057Y-97475714D02*
X171912438Y-97523333D01*
X171912438Y-97523333D02*
X171864819Y-97618571D01*
X171864819Y-97618571D02*
X171864819Y-97809047D01*
X171864819Y-97809047D02*
X171912438Y-97904285D01*
X171912438Y-97904285D02*
X171960057Y-97951904D01*
X171960057Y-97951904D02*
X172055295Y-97999523D01*
X172055295Y-97999523D02*
X172293390Y-97999523D01*
X172293390Y-97999523D02*
X172388628Y-97951904D01*
X172388628Y-97951904D02*
X172436247Y-97904285D01*
X172436247Y-97904285D02*
X172483866Y-97809047D01*
X172483866Y-97809047D02*
X172483866Y-97618571D01*
X172483866Y-97618571D02*
X172436247Y-97523333D01*
X172436247Y-97523333D02*
X172388628Y-97475714D01*
X172388628Y-97475714D02*
X172293390Y-97428095D01*
D11*
X140709048Y-84586809D02*
X140994762Y-84586809D01*
X140851905Y-85086809D02*
X140851905Y-84586809D01*
X141161428Y-85086809D02*
X141161428Y-84586809D01*
X141161428Y-84586809D02*
X141351904Y-84586809D01*
X141351904Y-84586809D02*
X141399523Y-84610619D01*
X141399523Y-84610619D02*
X141423333Y-84634428D01*
X141423333Y-84634428D02*
X141447142Y-84682047D01*
X141447142Y-84682047D02*
X141447142Y-84753476D01*
X141447142Y-84753476D02*
X141423333Y-84801095D01*
X141423333Y-84801095D02*
X141399523Y-84824904D01*
X141399523Y-84824904D02*
X141351904Y-84848714D01*
X141351904Y-84848714D02*
X141161428Y-84848714D01*
X141923333Y-85086809D02*
X141637619Y-85086809D01*
X141780476Y-85086809D02*
X141780476Y-84586809D01*
X141780476Y-84586809D02*
X141732857Y-84658238D01*
X141732857Y-84658238D02*
X141685238Y-84705857D01*
X141685238Y-84705857D02*
X141637619Y-84729666D01*
D10*
X174249580Y-79160357D02*
X174297200Y-79207976D01*
X174297200Y-79207976D02*
X174344819Y-79350833D01*
X174344819Y-79350833D02*
X174344819Y-79446071D01*
X174344819Y-79446071D02*
X174297200Y-79588928D01*
X174297200Y-79588928D02*
X174201961Y-79684166D01*
X174201961Y-79684166D02*
X174106723Y-79731785D01*
X174106723Y-79731785D02*
X173916247Y-79779404D01*
X173916247Y-79779404D02*
X173773390Y-79779404D01*
X173773390Y-79779404D02*
X173582914Y-79731785D01*
X173582914Y-79731785D02*
X173487676Y-79684166D01*
X173487676Y-79684166D02*
X173392438Y-79588928D01*
X173392438Y-79588928D02*
X173344819Y-79446071D01*
X173344819Y-79446071D02*
X173344819Y-79350833D01*
X173344819Y-79350833D02*
X173392438Y-79207976D01*
X173392438Y-79207976D02*
X173440057Y-79160357D01*
X173344819Y-78827023D02*
X173344819Y-78207976D01*
X173344819Y-78207976D02*
X173725771Y-78541309D01*
X173725771Y-78541309D02*
X173725771Y-78398452D01*
X173725771Y-78398452D02*
X173773390Y-78303214D01*
X173773390Y-78303214D02*
X173821009Y-78255595D01*
X173821009Y-78255595D02*
X173916247Y-78207976D01*
X173916247Y-78207976D02*
X174154342Y-78207976D01*
X174154342Y-78207976D02*
X174249580Y-78255595D01*
X174249580Y-78255595D02*
X174297200Y-78303214D01*
X174297200Y-78303214D02*
X174344819Y-78398452D01*
X174344819Y-78398452D02*
X174344819Y-78684166D01*
X174344819Y-78684166D02*
X174297200Y-78779404D01*
X174297200Y-78779404D02*
X174249580Y-78827023D01*
X173344819Y-77588928D02*
X173344819Y-77493690D01*
X173344819Y-77493690D02*
X173392438Y-77398452D01*
X173392438Y-77398452D02*
X173440057Y-77350833D01*
X173440057Y-77350833D02*
X173535295Y-77303214D01*
X173535295Y-77303214D02*
X173725771Y-77255595D01*
X173725771Y-77255595D02*
X173963866Y-77255595D01*
X173963866Y-77255595D02*
X174154342Y-77303214D01*
X174154342Y-77303214D02*
X174249580Y-77350833D01*
X174249580Y-77350833D02*
X174297200Y-77398452D01*
X174297200Y-77398452D02*
X174344819Y-77493690D01*
X174344819Y-77493690D02*
X174344819Y-77588928D01*
X174344819Y-77588928D02*
X174297200Y-77684166D01*
X174297200Y-77684166D02*
X174249580Y-77731785D01*
X174249580Y-77731785D02*
X174154342Y-77779404D01*
X174154342Y-77779404D02*
X173963866Y-77827023D01*
X173963866Y-77827023D02*
X173725771Y-77827023D01*
X173725771Y-77827023D02*
X173535295Y-77779404D01*
X173535295Y-77779404D02*
X173440057Y-77731785D01*
X173440057Y-77731785D02*
X173392438Y-77684166D01*
X173392438Y-77684166D02*
X173344819Y-77588928D01*
X163423333Y-79349580D02*
X163375714Y-79397200D01*
X163375714Y-79397200D02*
X163232857Y-79444819D01*
X163232857Y-79444819D02*
X163137619Y-79444819D01*
X163137619Y-79444819D02*
X162994762Y-79397200D01*
X162994762Y-79397200D02*
X162899524Y-79301961D01*
X162899524Y-79301961D02*
X162851905Y-79206723D01*
X162851905Y-79206723D02*
X162804286Y-79016247D01*
X162804286Y-79016247D02*
X162804286Y-78873390D01*
X162804286Y-78873390D02*
X162851905Y-78682914D01*
X162851905Y-78682914D02*
X162899524Y-78587676D01*
X162899524Y-78587676D02*
X162994762Y-78492438D01*
X162994762Y-78492438D02*
X163137619Y-78444819D01*
X163137619Y-78444819D02*
X163232857Y-78444819D01*
X163232857Y-78444819D02*
X163375714Y-78492438D01*
X163375714Y-78492438D02*
X163423333Y-78540057D01*
X163756667Y-78444819D02*
X164375714Y-78444819D01*
X164375714Y-78444819D02*
X164042381Y-78825771D01*
X164042381Y-78825771D02*
X164185238Y-78825771D01*
X164185238Y-78825771D02*
X164280476Y-78873390D01*
X164280476Y-78873390D02*
X164328095Y-78921009D01*
X164328095Y-78921009D02*
X164375714Y-79016247D01*
X164375714Y-79016247D02*
X164375714Y-79254342D01*
X164375714Y-79254342D02*
X164328095Y-79349580D01*
X164328095Y-79349580D02*
X164280476Y-79397200D01*
X164280476Y-79397200D02*
X164185238Y-79444819D01*
X164185238Y-79444819D02*
X163899524Y-79444819D01*
X163899524Y-79444819D02*
X163804286Y-79397200D01*
X163804286Y-79397200D02*
X163756667Y-79349580D01*
X160299580Y-95382857D02*
X160347200Y-95430476D01*
X160347200Y-95430476D02*
X160394819Y-95573333D01*
X160394819Y-95573333D02*
X160394819Y-95668571D01*
X160394819Y-95668571D02*
X160347200Y-95811428D01*
X160347200Y-95811428D02*
X160251961Y-95906666D01*
X160251961Y-95906666D02*
X160156723Y-95954285D01*
X160156723Y-95954285D02*
X159966247Y-96001904D01*
X159966247Y-96001904D02*
X159823390Y-96001904D01*
X159823390Y-96001904D02*
X159632914Y-95954285D01*
X159632914Y-95954285D02*
X159537676Y-95906666D01*
X159537676Y-95906666D02*
X159442438Y-95811428D01*
X159442438Y-95811428D02*
X159394819Y-95668571D01*
X159394819Y-95668571D02*
X159394819Y-95573333D01*
X159394819Y-95573333D02*
X159442438Y-95430476D01*
X159442438Y-95430476D02*
X159490057Y-95382857D01*
X160394819Y-94430476D02*
X160394819Y-95001904D01*
X160394819Y-94716190D02*
X159394819Y-94716190D01*
X159394819Y-94716190D02*
X159537676Y-94811428D01*
X159537676Y-94811428D02*
X159632914Y-94906666D01*
X159632914Y-94906666D02*
X159680533Y-95001904D01*
X160394819Y-93478095D02*
X160394819Y-94049523D01*
X160394819Y-93763809D02*
X159394819Y-93763809D01*
X159394819Y-93763809D02*
X159537676Y-93859047D01*
X159537676Y-93859047D02*
X159632914Y-93954285D01*
X159632914Y-93954285D02*
X159680533Y-94049523D01*
X175769580Y-111822857D02*
X175817200Y-111870476D01*
X175817200Y-111870476D02*
X175864819Y-112013333D01*
X175864819Y-112013333D02*
X175864819Y-112108571D01*
X175864819Y-112108571D02*
X175817200Y-112251428D01*
X175817200Y-112251428D02*
X175721961Y-112346666D01*
X175721961Y-112346666D02*
X175626723Y-112394285D01*
X175626723Y-112394285D02*
X175436247Y-112441904D01*
X175436247Y-112441904D02*
X175293390Y-112441904D01*
X175293390Y-112441904D02*
X175102914Y-112394285D01*
X175102914Y-112394285D02*
X175007676Y-112346666D01*
X175007676Y-112346666D02*
X174912438Y-112251428D01*
X174912438Y-112251428D02*
X174864819Y-112108571D01*
X174864819Y-112108571D02*
X174864819Y-112013333D01*
X174864819Y-112013333D02*
X174912438Y-111870476D01*
X174912438Y-111870476D02*
X174960057Y-111822857D01*
X174960057Y-111441904D02*
X174912438Y-111394285D01*
X174912438Y-111394285D02*
X174864819Y-111299047D01*
X174864819Y-111299047D02*
X174864819Y-111060952D01*
X174864819Y-111060952D02*
X174912438Y-110965714D01*
X174912438Y-110965714D02*
X174960057Y-110918095D01*
X174960057Y-110918095D02*
X175055295Y-110870476D01*
X175055295Y-110870476D02*
X175150533Y-110870476D01*
X175150533Y-110870476D02*
X175293390Y-110918095D01*
X175293390Y-110918095D02*
X175864819Y-111489523D01*
X175864819Y-111489523D02*
X175864819Y-110870476D01*
X175198152Y-110013333D02*
X175864819Y-110013333D01*
X174817200Y-110251428D02*
X175531485Y-110489523D01*
X175531485Y-110489523D02*
X175531485Y-109870476D01*
X171679580Y-82692857D02*
X171727200Y-82740476D01*
X171727200Y-82740476D02*
X171774819Y-82883333D01*
X171774819Y-82883333D02*
X171774819Y-82978571D01*
X171774819Y-82978571D02*
X171727200Y-83121428D01*
X171727200Y-83121428D02*
X171631961Y-83216666D01*
X171631961Y-83216666D02*
X171536723Y-83264285D01*
X171536723Y-83264285D02*
X171346247Y-83311904D01*
X171346247Y-83311904D02*
X171203390Y-83311904D01*
X171203390Y-83311904D02*
X171012914Y-83264285D01*
X171012914Y-83264285D02*
X170917676Y-83216666D01*
X170917676Y-83216666D02*
X170822438Y-83121428D01*
X170822438Y-83121428D02*
X170774819Y-82978571D01*
X170774819Y-82978571D02*
X170774819Y-82883333D01*
X170774819Y-82883333D02*
X170822438Y-82740476D01*
X170822438Y-82740476D02*
X170870057Y-82692857D01*
X170774819Y-82359523D02*
X170774819Y-81740476D01*
X170774819Y-81740476D02*
X171155771Y-82073809D01*
X171155771Y-82073809D02*
X171155771Y-81930952D01*
X171155771Y-81930952D02*
X171203390Y-81835714D01*
X171203390Y-81835714D02*
X171251009Y-81788095D01*
X171251009Y-81788095D02*
X171346247Y-81740476D01*
X171346247Y-81740476D02*
X171584342Y-81740476D01*
X171584342Y-81740476D02*
X171679580Y-81788095D01*
X171679580Y-81788095D02*
X171727200Y-81835714D01*
X171727200Y-81835714D02*
X171774819Y-81930952D01*
X171774819Y-81930952D02*
X171774819Y-82216666D01*
X171774819Y-82216666D02*
X171727200Y-82311904D01*
X171727200Y-82311904D02*
X171679580Y-82359523D01*
X171774819Y-80788095D02*
X171774819Y-81359523D01*
X171774819Y-81073809D02*
X170774819Y-81073809D01*
X170774819Y-81073809D02*
X170917676Y-81169047D01*
X170917676Y-81169047D02*
X171012914Y-81264285D01*
X171012914Y-81264285D02*
X171060533Y-81359523D01*
X162019642Y-111289580D02*
X161972023Y-111337200D01*
X161972023Y-111337200D02*
X161829166Y-111384819D01*
X161829166Y-111384819D02*
X161733928Y-111384819D01*
X161733928Y-111384819D02*
X161591071Y-111337200D01*
X161591071Y-111337200D02*
X161495833Y-111241961D01*
X161495833Y-111241961D02*
X161448214Y-111146723D01*
X161448214Y-111146723D02*
X161400595Y-110956247D01*
X161400595Y-110956247D02*
X161400595Y-110813390D01*
X161400595Y-110813390D02*
X161448214Y-110622914D01*
X161448214Y-110622914D02*
X161495833Y-110527676D01*
X161495833Y-110527676D02*
X161591071Y-110432438D01*
X161591071Y-110432438D02*
X161733928Y-110384819D01*
X161733928Y-110384819D02*
X161829166Y-110384819D01*
X161829166Y-110384819D02*
X161972023Y-110432438D01*
X161972023Y-110432438D02*
X162019642Y-110480057D01*
X162972023Y-111384819D02*
X162400595Y-111384819D01*
X162686309Y-111384819D02*
X162686309Y-110384819D01*
X162686309Y-110384819D02*
X162591071Y-110527676D01*
X162591071Y-110527676D02*
X162495833Y-110622914D01*
X162495833Y-110622914D02*
X162400595Y-110670533D01*
X163448214Y-111384819D02*
X163638690Y-111384819D01*
X163638690Y-111384819D02*
X163733928Y-111337200D01*
X163733928Y-111337200D02*
X163781547Y-111289580D01*
X163781547Y-111289580D02*
X163876785Y-111146723D01*
X163876785Y-111146723D02*
X163924404Y-110956247D01*
X163924404Y-110956247D02*
X163924404Y-110575295D01*
X163924404Y-110575295D02*
X163876785Y-110480057D01*
X163876785Y-110480057D02*
X163829166Y-110432438D01*
X163829166Y-110432438D02*
X163733928Y-110384819D01*
X163733928Y-110384819D02*
X163543452Y-110384819D01*
X163543452Y-110384819D02*
X163448214Y-110432438D01*
X163448214Y-110432438D02*
X163400595Y-110480057D01*
X163400595Y-110480057D02*
X163352976Y-110575295D01*
X163352976Y-110575295D02*
X163352976Y-110813390D01*
X163352976Y-110813390D02*
X163400595Y-110908628D01*
X163400595Y-110908628D02*
X163448214Y-110956247D01*
X163448214Y-110956247D02*
X163543452Y-111003866D01*
X163543452Y-111003866D02*
X163733928Y-111003866D01*
X163733928Y-111003866D02*
X163829166Y-110956247D01*
X163829166Y-110956247D02*
X163876785Y-110908628D01*
X163876785Y-110908628D02*
X163924404Y-110813390D01*
D11*
X169039048Y-108056809D02*
X169324762Y-108056809D01*
X169181905Y-108556809D02*
X169181905Y-108056809D01*
X169491428Y-108556809D02*
X169491428Y-108056809D01*
X169491428Y-108056809D02*
X169681904Y-108056809D01*
X169681904Y-108056809D02*
X169729523Y-108080619D01*
X169729523Y-108080619D02*
X169753333Y-108104428D01*
X169753333Y-108104428D02*
X169777142Y-108152047D01*
X169777142Y-108152047D02*
X169777142Y-108223476D01*
X169777142Y-108223476D02*
X169753333Y-108271095D01*
X169753333Y-108271095D02*
X169729523Y-108294904D01*
X169729523Y-108294904D02*
X169681904Y-108318714D01*
X169681904Y-108318714D02*
X169491428Y-108318714D01*
X170229523Y-108056809D02*
X169991428Y-108056809D01*
X169991428Y-108056809D02*
X169967619Y-108294904D01*
X169967619Y-108294904D02*
X169991428Y-108271095D01*
X169991428Y-108271095D02*
X170039047Y-108247285D01*
X170039047Y-108247285D02*
X170158095Y-108247285D01*
X170158095Y-108247285D02*
X170205714Y-108271095D01*
X170205714Y-108271095D02*
X170229523Y-108294904D01*
X170229523Y-108294904D02*
X170253333Y-108342523D01*
X170253333Y-108342523D02*
X170253333Y-108461571D01*
X170253333Y-108461571D02*
X170229523Y-108509190D01*
X170229523Y-108509190D02*
X170205714Y-108533000D01*
X170205714Y-108533000D02*
X170158095Y-108556809D01*
X170158095Y-108556809D02*
X170039047Y-108556809D01*
X170039047Y-108556809D02*
X169991428Y-108533000D01*
X169991428Y-108533000D02*
X169967619Y-108509190D01*
X134254809Y-81296666D02*
X134611952Y-81296666D01*
X134611952Y-81296666D02*
X134683380Y-81320475D01*
X134683380Y-81320475D02*
X134731000Y-81368094D01*
X134731000Y-81368094D02*
X134754809Y-81439523D01*
X134754809Y-81439523D02*
X134754809Y-81487142D01*
X134469095Y-80987142D02*
X134445285Y-81034761D01*
X134445285Y-81034761D02*
X134421476Y-81058571D01*
X134421476Y-81058571D02*
X134373857Y-81082380D01*
X134373857Y-81082380D02*
X134350047Y-81082380D01*
X134350047Y-81082380D02*
X134302428Y-81058571D01*
X134302428Y-81058571D02*
X134278619Y-81034761D01*
X134278619Y-81034761D02*
X134254809Y-80987142D01*
X134254809Y-80987142D02*
X134254809Y-80891904D01*
X134254809Y-80891904D02*
X134278619Y-80844285D01*
X134278619Y-80844285D02*
X134302428Y-80820476D01*
X134302428Y-80820476D02*
X134350047Y-80796666D01*
X134350047Y-80796666D02*
X134373857Y-80796666D01*
X134373857Y-80796666D02*
X134421476Y-80820476D01*
X134421476Y-80820476D02*
X134445285Y-80844285D01*
X134445285Y-80844285D02*
X134469095Y-80891904D01*
X134469095Y-80891904D02*
X134469095Y-80987142D01*
X134469095Y-80987142D02*
X134492904Y-81034761D01*
X134492904Y-81034761D02*
X134516714Y-81058571D01*
X134516714Y-81058571D02*
X134564333Y-81082380D01*
X134564333Y-81082380D02*
X134659571Y-81082380D01*
X134659571Y-81082380D02*
X134707190Y-81058571D01*
X134707190Y-81058571D02*
X134731000Y-81034761D01*
X134731000Y-81034761D02*
X134754809Y-80987142D01*
X134754809Y-80987142D02*
X134754809Y-80891904D01*
X134754809Y-80891904D02*
X134731000Y-80844285D01*
X134731000Y-80844285D02*
X134707190Y-80820476D01*
X134707190Y-80820476D02*
X134659571Y-80796666D01*
X134659571Y-80796666D02*
X134564333Y-80796666D01*
X134564333Y-80796666D02*
X134516714Y-80820476D01*
X134516714Y-80820476D02*
X134492904Y-80844285D01*
X134492904Y-80844285D02*
X134469095Y-80891904D01*
D10*
X176579819Y-88034404D02*
X177389342Y-88034404D01*
X177389342Y-88034404D02*
X177484580Y-87986785D01*
X177484580Y-87986785D02*
X177532200Y-87939166D01*
X177532200Y-87939166D02*
X177579819Y-87843928D01*
X177579819Y-87843928D02*
X177579819Y-87653452D01*
X177579819Y-87653452D02*
X177532200Y-87558214D01*
X177532200Y-87558214D02*
X177484580Y-87510595D01*
X177484580Y-87510595D02*
X177389342Y-87462976D01*
X177389342Y-87462976D02*
X176579819Y-87462976D01*
X176579819Y-86510595D02*
X176579819Y-86986785D01*
X176579819Y-86986785D02*
X177056009Y-87034404D01*
X177056009Y-87034404D02*
X177008390Y-86986785D01*
X177008390Y-86986785D02*
X176960771Y-86891547D01*
X176960771Y-86891547D02*
X176960771Y-86653452D01*
X176960771Y-86653452D02*
X177008390Y-86558214D01*
X177008390Y-86558214D02*
X177056009Y-86510595D01*
X177056009Y-86510595D02*
X177151247Y-86462976D01*
X177151247Y-86462976D02*
X177389342Y-86462976D01*
X177389342Y-86462976D02*
X177484580Y-86510595D01*
X177484580Y-86510595D02*
X177532200Y-86558214D01*
X177532200Y-86558214D02*
X177579819Y-86653452D01*
X177579819Y-86653452D02*
X177579819Y-86891547D01*
X177579819Y-86891547D02*
X177532200Y-86986785D01*
X177532200Y-86986785D02*
X177484580Y-87034404D01*
X166494580Y-78411666D02*
X166542200Y-78459285D01*
X166542200Y-78459285D02*
X166589819Y-78602142D01*
X166589819Y-78602142D02*
X166589819Y-78697380D01*
X166589819Y-78697380D02*
X166542200Y-78840237D01*
X166542200Y-78840237D02*
X166446961Y-78935475D01*
X166446961Y-78935475D02*
X166351723Y-78983094D01*
X166351723Y-78983094D02*
X166161247Y-79030713D01*
X166161247Y-79030713D02*
X166018390Y-79030713D01*
X166018390Y-79030713D02*
X165827914Y-78983094D01*
X165827914Y-78983094D02*
X165732676Y-78935475D01*
X165732676Y-78935475D02*
X165637438Y-78840237D01*
X165637438Y-78840237D02*
X165589819Y-78697380D01*
X165589819Y-78697380D02*
X165589819Y-78602142D01*
X165589819Y-78602142D02*
X165637438Y-78459285D01*
X165637438Y-78459285D02*
X165685057Y-78411666D01*
X165923152Y-77554523D02*
X166589819Y-77554523D01*
X165542200Y-77792618D02*
X166256485Y-78030713D01*
X166256485Y-78030713D02*
X166256485Y-77411666D01*
X177509580Y-102002857D02*
X177557200Y-102050476D01*
X177557200Y-102050476D02*
X177604819Y-102193333D01*
X177604819Y-102193333D02*
X177604819Y-102288571D01*
X177604819Y-102288571D02*
X177557200Y-102431428D01*
X177557200Y-102431428D02*
X177461961Y-102526666D01*
X177461961Y-102526666D02*
X177366723Y-102574285D01*
X177366723Y-102574285D02*
X177176247Y-102621904D01*
X177176247Y-102621904D02*
X177033390Y-102621904D01*
X177033390Y-102621904D02*
X176842914Y-102574285D01*
X176842914Y-102574285D02*
X176747676Y-102526666D01*
X176747676Y-102526666D02*
X176652438Y-102431428D01*
X176652438Y-102431428D02*
X176604819Y-102288571D01*
X176604819Y-102288571D02*
X176604819Y-102193333D01*
X176604819Y-102193333D02*
X176652438Y-102050476D01*
X176652438Y-102050476D02*
X176700057Y-102002857D01*
X176700057Y-101621904D02*
X176652438Y-101574285D01*
X176652438Y-101574285D02*
X176604819Y-101479047D01*
X176604819Y-101479047D02*
X176604819Y-101240952D01*
X176604819Y-101240952D02*
X176652438Y-101145714D01*
X176652438Y-101145714D02*
X176700057Y-101098095D01*
X176700057Y-101098095D02*
X176795295Y-101050476D01*
X176795295Y-101050476D02*
X176890533Y-101050476D01*
X176890533Y-101050476D02*
X177033390Y-101098095D01*
X177033390Y-101098095D02*
X177604819Y-101669523D01*
X177604819Y-101669523D02*
X177604819Y-101050476D01*
X176604819Y-100145714D02*
X176604819Y-100621904D01*
X176604819Y-100621904D02*
X177081009Y-100669523D01*
X177081009Y-100669523D02*
X177033390Y-100621904D01*
X177033390Y-100621904D02*
X176985771Y-100526666D01*
X176985771Y-100526666D02*
X176985771Y-100288571D01*
X176985771Y-100288571D02*
X177033390Y-100193333D01*
X177033390Y-100193333D02*
X177081009Y-100145714D01*
X177081009Y-100145714D02*
X177176247Y-100098095D01*
X177176247Y-100098095D02*
X177414342Y-100098095D01*
X177414342Y-100098095D02*
X177509580Y-100145714D01*
X177509580Y-100145714D02*
X177557200Y-100193333D01*
X177557200Y-100193333D02*
X177604819Y-100288571D01*
X177604819Y-100288571D02*
X177604819Y-100526666D01*
X177604819Y-100526666D02*
X177557200Y-100621904D01*
X177557200Y-100621904D02*
X177509580Y-100669523D01*
X143996905Y-103644819D02*
X143996905Y-102644819D01*
X143996905Y-102644819D02*
X144235000Y-102644819D01*
X144235000Y-102644819D02*
X144377857Y-102692438D01*
X144377857Y-102692438D02*
X144473095Y-102787676D01*
X144473095Y-102787676D02*
X144520714Y-102882914D01*
X144520714Y-102882914D02*
X144568333Y-103073390D01*
X144568333Y-103073390D02*
X144568333Y-103216247D01*
X144568333Y-103216247D02*
X144520714Y-103406723D01*
X144520714Y-103406723D02*
X144473095Y-103501961D01*
X144473095Y-103501961D02*
X144377857Y-103597200D01*
X144377857Y-103597200D02*
X144235000Y-103644819D01*
X144235000Y-103644819D02*
X143996905Y-103644819D01*
X145425476Y-102978152D02*
X145425476Y-103644819D01*
X145187381Y-102597200D02*
X144949286Y-103311485D01*
X144949286Y-103311485D02*
X145568333Y-103311485D01*
X177799580Y-83002857D02*
X177847200Y-83050476D01*
X177847200Y-83050476D02*
X177894819Y-83193333D01*
X177894819Y-83193333D02*
X177894819Y-83288571D01*
X177894819Y-83288571D02*
X177847200Y-83431428D01*
X177847200Y-83431428D02*
X177751961Y-83526666D01*
X177751961Y-83526666D02*
X177656723Y-83574285D01*
X177656723Y-83574285D02*
X177466247Y-83621904D01*
X177466247Y-83621904D02*
X177323390Y-83621904D01*
X177323390Y-83621904D02*
X177132914Y-83574285D01*
X177132914Y-83574285D02*
X177037676Y-83526666D01*
X177037676Y-83526666D02*
X176942438Y-83431428D01*
X176942438Y-83431428D02*
X176894819Y-83288571D01*
X176894819Y-83288571D02*
X176894819Y-83193333D01*
X176894819Y-83193333D02*
X176942438Y-83050476D01*
X176942438Y-83050476D02*
X176990057Y-83002857D01*
X176990057Y-82621904D02*
X176942438Y-82574285D01*
X176942438Y-82574285D02*
X176894819Y-82479047D01*
X176894819Y-82479047D02*
X176894819Y-82240952D01*
X176894819Y-82240952D02*
X176942438Y-82145714D01*
X176942438Y-82145714D02*
X176990057Y-82098095D01*
X176990057Y-82098095D02*
X177085295Y-82050476D01*
X177085295Y-82050476D02*
X177180533Y-82050476D01*
X177180533Y-82050476D02*
X177323390Y-82098095D01*
X177323390Y-82098095D02*
X177894819Y-82669523D01*
X177894819Y-82669523D02*
X177894819Y-82050476D01*
X176894819Y-81717142D02*
X176894819Y-81050476D01*
X176894819Y-81050476D02*
X177894819Y-81479047D01*
X151989580Y-99462857D02*
X152037200Y-99510476D01*
X152037200Y-99510476D02*
X152084819Y-99653333D01*
X152084819Y-99653333D02*
X152084819Y-99748571D01*
X152084819Y-99748571D02*
X152037200Y-99891428D01*
X152037200Y-99891428D02*
X151941961Y-99986666D01*
X151941961Y-99986666D02*
X151846723Y-100034285D01*
X151846723Y-100034285D02*
X151656247Y-100081904D01*
X151656247Y-100081904D02*
X151513390Y-100081904D01*
X151513390Y-100081904D02*
X151322914Y-100034285D01*
X151322914Y-100034285D02*
X151227676Y-99986666D01*
X151227676Y-99986666D02*
X151132438Y-99891428D01*
X151132438Y-99891428D02*
X151084819Y-99748571D01*
X151084819Y-99748571D02*
X151084819Y-99653333D01*
X151084819Y-99653333D02*
X151132438Y-99510476D01*
X151132438Y-99510476D02*
X151180057Y-99462857D01*
X152084819Y-98510476D02*
X152084819Y-99081904D01*
X152084819Y-98796190D02*
X151084819Y-98796190D01*
X151084819Y-98796190D02*
X151227676Y-98891428D01*
X151227676Y-98891428D02*
X151322914Y-98986666D01*
X151322914Y-98986666D02*
X151370533Y-99081904D01*
X151084819Y-98177142D02*
X151084819Y-97558095D01*
X151084819Y-97558095D02*
X151465771Y-97891428D01*
X151465771Y-97891428D02*
X151465771Y-97748571D01*
X151465771Y-97748571D02*
X151513390Y-97653333D01*
X151513390Y-97653333D02*
X151561009Y-97605714D01*
X151561009Y-97605714D02*
X151656247Y-97558095D01*
X151656247Y-97558095D02*
X151894342Y-97558095D01*
X151894342Y-97558095D02*
X151989580Y-97605714D01*
X151989580Y-97605714D02*
X152037200Y-97653333D01*
X152037200Y-97653333D02*
X152084819Y-97748571D01*
X152084819Y-97748571D02*
X152084819Y-98034285D01*
X152084819Y-98034285D02*
X152037200Y-98129523D01*
X152037200Y-98129523D02*
X151989580Y-98177142D01*
X136584819Y-87296666D02*
X136108628Y-87629999D01*
X136584819Y-87868094D02*
X135584819Y-87868094D01*
X135584819Y-87868094D02*
X135584819Y-87487142D01*
X135584819Y-87487142D02*
X135632438Y-87391904D01*
X135632438Y-87391904D02*
X135680057Y-87344285D01*
X135680057Y-87344285D02*
X135775295Y-87296666D01*
X135775295Y-87296666D02*
X135918152Y-87296666D01*
X135918152Y-87296666D02*
X136013390Y-87344285D01*
X136013390Y-87344285D02*
X136061009Y-87391904D01*
X136061009Y-87391904D02*
X136108628Y-87487142D01*
X136108628Y-87487142D02*
X136108628Y-87868094D01*
X135680057Y-86915713D02*
X135632438Y-86868094D01*
X135632438Y-86868094D02*
X135584819Y-86772856D01*
X135584819Y-86772856D02*
X135584819Y-86534761D01*
X135584819Y-86534761D02*
X135632438Y-86439523D01*
X135632438Y-86439523D02*
X135680057Y-86391904D01*
X135680057Y-86391904D02*
X135775295Y-86344285D01*
X135775295Y-86344285D02*
X135870533Y-86344285D01*
X135870533Y-86344285D02*
X136013390Y-86391904D01*
X136013390Y-86391904D02*
X136584819Y-86963332D01*
X136584819Y-86963332D02*
X136584819Y-86344285D01*
X168813333Y-83194819D02*
X168480000Y-82718628D01*
X168241905Y-83194819D02*
X168241905Y-82194819D01*
X168241905Y-82194819D02*
X168622857Y-82194819D01*
X168622857Y-82194819D02*
X168718095Y-82242438D01*
X168718095Y-82242438D02*
X168765714Y-82290057D01*
X168765714Y-82290057D02*
X168813333Y-82385295D01*
X168813333Y-82385295D02*
X168813333Y-82528152D01*
X168813333Y-82528152D02*
X168765714Y-82623390D01*
X168765714Y-82623390D02*
X168718095Y-82671009D01*
X168718095Y-82671009D02*
X168622857Y-82718628D01*
X168622857Y-82718628D02*
X168241905Y-82718628D01*
X169718095Y-82194819D02*
X169241905Y-82194819D01*
X169241905Y-82194819D02*
X169194286Y-82671009D01*
X169194286Y-82671009D02*
X169241905Y-82623390D01*
X169241905Y-82623390D02*
X169337143Y-82575771D01*
X169337143Y-82575771D02*
X169575238Y-82575771D01*
X169575238Y-82575771D02*
X169670476Y-82623390D01*
X169670476Y-82623390D02*
X169718095Y-82671009D01*
X169718095Y-82671009D02*
X169765714Y-82766247D01*
X169765714Y-82766247D02*
X169765714Y-83004342D01*
X169765714Y-83004342D02*
X169718095Y-83099580D01*
X169718095Y-83099580D02*
X169670476Y-83147200D01*
X169670476Y-83147200D02*
X169575238Y-83194819D01*
X169575238Y-83194819D02*
X169337143Y-83194819D01*
X169337143Y-83194819D02*
X169241905Y-83147200D01*
X169241905Y-83147200D02*
X169194286Y-83099580D01*
D11*
X141599048Y-95074809D02*
X141884762Y-95074809D01*
X141741905Y-95574809D02*
X141741905Y-95074809D01*
X142051428Y-95574809D02*
X142051428Y-95074809D01*
X142051428Y-95074809D02*
X142241904Y-95074809D01*
X142241904Y-95074809D02*
X142289523Y-95098619D01*
X142289523Y-95098619D02*
X142313333Y-95122428D01*
X142313333Y-95122428D02*
X142337142Y-95170047D01*
X142337142Y-95170047D02*
X142337142Y-95241476D01*
X142337142Y-95241476D02*
X142313333Y-95289095D01*
X142313333Y-95289095D02*
X142289523Y-95312904D01*
X142289523Y-95312904D02*
X142241904Y-95336714D01*
X142241904Y-95336714D02*
X142051428Y-95336714D01*
X142503809Y-95074809D02*
X142813333Y-95074809D01*
X142813333Y-95074809D02*
X142646666Y-95265285D01*
X142646666Y-95265285D02*
X142718095Y-95265285D01*
X142718095Y-95265285D02*
X142765714Y-95289095D01*
X142765714Y-95289095D02*
X142789523Y-95312904D01*
X142789523Y-95312904D02*
X142813333Y-95360523D01*
X142813333Y-95360523D02*
X142813333Y-95479571D01*
X142813333Y-95479571D02*
X142789523Y-95527190D01*
X142789523Y-95527190D02*
X142765714Y-95551000D01*
X142765714Y-95551000D02*
X142718095Y-95574809D01*
X142718095Y-95574809D02*
X142575238Y-95574809D01*
X142575238Y-95574809D02*
X142527619Y-95551000D01*
X142527619Y-95551000D02*
X142503809Y-95527190D01*
D10*
X135444819Y-108573333D02*
X136159104Y-108573333D01*
X136159104Y-108573333D02*
X136301961Y-108620952D01*
X136301961Y-108620952D02*
X136397200Y-108716190D01*
X136397200Y-108716190D02*
X136444819Y-108859047D01*
X136444819Y-108859047D02*
X136444819Y-108954285D01*
X135540057Y-108144761D02*
X135492438Y-108097142D01*
X135492438Y-108097142D02*
X135444819Y-108001904D01*
X135444819Y-108001904D02*
X135444819Y-107763809D01*
X135444819Y-107763809D02*
X135492438Y-107668571D01*
X135492438Y-107668571D02*
X135540057Y-107620952D01*
X135540057Y-107620952D02*
X135635295Y-107573333D01*
X135635295Y-107573333D02*
X135730533Y-107573333D01*
X135730533Y-107573333D02*
X135873390Y-107620952D01*
X135873390Y-107620952D02*
X136444819Y-108192380D01*
X136444819Y-108192380D02*
X136444819Y-107573333D01*
X162226666Y-114844819D02*
X162226666Y-115559104D01*
X162226666Y-115559104D02*
X162179047Y-115701961D01*
X162179047Y-115701961D02*
X162083809Y-115797200D01*
X162083809Y-115797200D02*
X161940952Y-115844819D01*
X161940952Y-115844819D02*
X161845714Y-115844819D01*
X162607619Y-114844819D02*
X163226666Y-114844819D01*
X163226666Y-114844819D02*
X162893333Y-115225771D01*
X162893333Y-115225771D02*
X163036190Y-115225771D01*
X163036190Y-115225771D02*
X163131428Y-115273390D01*
X163131428Y-115273390D02*
X163179047Y-115321009D01*
X163179047Y-115321009D02*
X163226666Y-115416247D01*
X163226666Y-115416247D02*
X163226666Y-115654342D01*
X163226666Y-115654342D02*
X163179047Y-115749580D01*
X163179047Y-115749580D02*
X163131428Y-115797200D01*
X163131428Y-115797200D02*
X163036190Y-115844819D01*
X163036190Y-115844819D02*
X162750476Y-115844819D01*
X162750476Y-115844819D02*
X162655238Y-115797200D01*
X162655238Y-115797200D02*
X162607619Y-115749580D01*
X157599580Y-115112857D02*
X157647200Y-115160476D01*
X157647200Y-115160476D02*
X157694819Y-115303333D01*
X157694819Y-115303333D02*
X157694819Y-115398571D01*
X157694819Y-115398571D02*
X157647200Y-115541428D01*
X157647200Y-115541428D02*
X157551961Y-115636666D01*
X157551961Y-115636666D02*
X157456723Y-115684285D01*
X157456723Y-115684285D02*
X157266247Y-115731904D01*
X157266247Y-115731904D02*
X157123390Y-115731904D01*
X157123390Y-115731904D02*
X156932914Y-115684285D01*
X156932914Y-115684285D02*
X156837676Y-115636666D01*
X156837676Y-115636666D02*
X156742438Y-115541428D01*
X156742438Y-115541428D02*
X156694819Y-115398571D01*
X156694819Y-115398571D02*
X156694819Y-115303333D01*
X156694819Y-115303333D02*
X156742438Y-115160476D01*
X156742438Y-115160476D02*
X156790057Y-115112857D01*
X156790057Y-114731904D02*
X156742438Y-114684285D01*
X156742438Y-114684285D02*
X156694819Y-114589047D01*
X156694819Y-114589047D02*
X156694819Y-114350952D01*
X156694819Y-114350952D02*
X156742438Y-114255714D01*
X156742438Y-114255714D02*
X156790057Y-114208095D01*
X156790057Y-114208095D02*
X156885295Y-114160476D01*
X156885295Y-114160476D02*
X156980533Y-114160476D01*
X156980533Y-114160476D02*
X157123390Y-114208095D01*
X157123390Y-114208095D02*
X157694819Y-114779523D01*
X157694819Y-114779523D02*
X157694819Y-114160476D01*
X156694819Y-113827142D02*
X156694819Y-113208095D01*
X156694819Y-113208095D02*
X157075771Y-113541428D01*
X157075771Y-113541428D02*
X157075771Y-113398571D01*
X157075771Y-113398571D02*
X157123390Y-113303333D01*
X157123390Y-113303333D02*
X157171009Y-113255714D01*
X157171009Y-113255714D02*
X157266247Y-113208095D01*
X157266247Y-113208095D02*
X157504342Y-113208095D01*
X157504342Y-113208095D02*
X157599580Y-113255714D01*
X157599580Y-113255714D02*
X157647200Y-113303333D01*
X157647200Y-113303333D02*
X157694819Y-113398571D01*
X157694819Y-113398571D02*
X157694819Y-113684285D01*
X157694819Y-113684285D02*
X157647200Y-113779523D01*
X157647200Y-113779523D02*
X157599580Y-113827142D01*
X168534819Y-84446666D02*
X168058628Y-84779999D01*
X168534819Y-85018094D02*
X167534819Y-85018094D01*
X167534819Y-85018094D02*
X167534819Y-84637142D01*
X167534819Y-84637142D02*
X167582438Y-84541904D01*
X167582438Y-84541904D02*
X167630057Y-84494285D01*
X167630057Y-84494285D02*
X167725295Y-84446666D01*
X167725295Y-84446666D02*
X167868152Y-84446666D01*
X167868152Y-84446666D02*
X167963390Y-84494285D01*
X167963390Y-84494285D02*
X168011009Y-84541904D01*
X168011009Y-84541904D02*
X168058628Y-84637142D01*
X168058628Y-84637142D02*
X168058628Y-85018094D01*
X167963390Y-83875237D02*
X167915771Y-83970475D01*
X167915771Y-83970475D02*
X167868152Y-84018094D01*
X167868152Y-84018094D02*
X167772914Y-84065713D01*
X167772914Y-84065713D02*
X167725295Y-84065713D01*
X167725295Y-84065713D02*
X167630057Y-84018094D01*
X167630057Y-84018094D02*
X167582438Y-83970475D01*
X167582438Y-83970475D02*
X167534819Y-83875237D01*
X167534819Y-83875237D02*
X167534819Y-83684761D01*
X167534819Y-83684761D02*
X167582438Y-83589523D01*
X167582438Y-83589523D02*
X167630057Y-83541904D01*
X167630057Y-83541904D02*
X167725295Y-83494285D01*
X167725295Y-83494285D02*
X167772914Y-83494285D01*
X167772914Y-83494285D02*
X167868152Y-83541904D01*
X167868152Y-83541904D02*
X167915771Y-83589523D01*
X167915771Y-83589523D02*
X167963390Y-83684761D01*
X167963390Y-83684761D02*
X167963390Y-83875237D01*
X167963390Y-83875237D02*
X168011009Y-83970475D01*
X168011009Y-83970475D02*
X168058628Y-84018094D01*
X168058628Y-84018094D02*
X168153866Y-84065713D01*
X168153866Y-84065713D02*
X168344342Y-84065713D01*
X168344342Y-84065713D02*
X168439580Y-84018094D01*
X168439580Y-84018094D02*
X168487200Y-83970475D01*
X168487200Y-83970475D02*
X168534819Y-83875237D01*
X168534819Y-83875237D02*
X168534819Y-83684761D01*
X168534819Y-83684761D02*
X168487200Y-83589523D01*
X168487200Y-83589523D02*
X168439580Y-83541904D01*
X168439580Y-83541904D02*
X168344342Y-83494285D01*
X168344342Y-83494285D02*
X168153866Y-83494285D01*
X168153866Y-83494285D02*
X168058628Y-83541904D01*
X168058628Y-83541904D02*
X168011009Y-83589523D01*
X168011009Y-83589523D02*
X167963390Y-83684761D01*
D11*
X173809047Y-73534809D02*
X173809047Y-73034809D01*
X173809047Y-73272904D02*
X174094761Y-73272904D01*
X174094761Y-73534809D02*
X174094761Y-73034809D01*
X174309048Y-73082428D02*
X174332857Y-73058619D01*
X174332857Y-73058619D02*
X174380476Y-73034809D01*
X174380476Y-73034809D02*
X174499524Y-73034809D01*
X174499524Y-73034809D02*
X174547143Y-73058619D01*
X174547143Y-73058619D02*
X174570952Y-73082428D01*
X174570952Y-73082428D02*
X174594762Y-73130047D01*
X174594762Y-73130047D02*
X174594762Y-73177666D01*
X174594762Y-73177666D02*
X174570952Y-73249095D01*
X174570952Y-73249095D02*
X174285238Y-73534809D01*
X174285238Y-73534809D02*
X174594762Y-73534809D01*
X157223333Y-73714809D02*
X157223333Y-74071952D01*
X157223333Y-74071952D02*
X157199524Y-74143380D01*
X157199524Y-74143380D02*
X157151905Y-74191000D01*
X157151905Y-74191000D02*
X157080476Y-74214809D01*
X157080476Y-74214809D02*
X157032857Y-74214809D01*
X157675714Y-73714809D02*
X157580476Y-73714809D01*
X157580476Y-73714809D02*
X157532857Y-73738619D01*
X157532857Y-73738619D02*
X157509047Y-73762428D01*
X157509047Y-73762428D02*
X157461428Y-73833857D01*
X157461428Y-73833857D02*
X157437619Y-73929095D01*
X157437619Y-73929095D02*
X157437619Y-74119571D01*
X157437619Y-74119571D02*
X157461428Y-74167190D01*
X157461428Y-74167190D02*
X157485238Y-74191000D01*
X157485238Y-74191000D02*
X157532857Y-74214809D01*
X157532857Y-74214809D02*
X157628095Y-74214809D01*
X157628095Y-74214809D02*
X157675714Y-74191000D01*
X157675714Y-74191000D02*
X157699523Y-74167190D01*
X157699523Y-74167190D02*
X157723333Y-74119571D01*
X157723333Y-74119571D02*
X157723333Y-74000523D01*
X157723333Y-74000523D02*
X157699523Y-73952904D01*
X157699523Y-73952904D02*
X157675714Y-73929095D01*
X157675714Y-73929095D02*
X157628095Y-73905285D01*
X157628095Y-73905285D02*
X157532857Y-73905285D01*
X157532857Y-73905285D02*
X157485238Y-73929095D01*
X157485238Y-73929095D02*
X157461428Y-73952904D01*
X157461428Y-73952904D02*
X157437619Y-74000523D01*
D10*
X138374819Y-72363333D02*
X139089104Y-72363333D01*
X139089104Y-72363333D02*
X139231961Y-72410952D01*
X139231961Y-72410952D02*
X139327200Y-72506190D01*
X139327200Y-72506190D02*
X139374819Y-72649047D01*
X139374819Y-72649047D02*
X139374819Y-72744285D01*
X138374819Y-71982380D02*
X138374819Y-71315714D01*
X138374819Y-71315714D02*
X139374819Y-71744285D01*
X136009642Y-100094819D02*
X135676309Y-99618628D01*
X135438214Y-100094819D02*
X135438214Y-99094819D01*
X135438214Y-99094819D02*
X135819166Y-99094819D01*
X135819166Y-99094819D02*
X135914404Y-99142438D01*
X135914404Y-99142438D02*
X135962023Y-99190057D01*
X135962023Y-99190057D02*
X136009642Y-99285295D01*
X136009642Y-99285295D02*
X136009642Y-99428152D01*
X136009642Y-99428152D02*
X135962023Y-99523390D01*
X135962023Y-99523390D02*
X135914404Y-99571009D01*
X135914404Y-99571009D02*
X135819166Y-99618628D01*
X135819166Y-99618628D02*
X135438214Y-99618628D01*
X136962023Y-100094819D02*
X136390595Y-100094819D01*
X136676309Y-100094819D02*
X136676309Y-99094819D01*
X136676309Y-99094819D02*
X136581071Y-99237676D01*
X136581071Y-99237676D02*
X136485833Y-99332914D01*
X136485833Y-99332914D02*
X136390595Y-99380533D01*
X137914404Y-100094819D02*
X137342976Y-100094819D01*
X137628690Y-100094819D02*
X137628690Y-99094819D01*
X137628690Y-99094819D02*
X137533452Y-99237676D01*
X137533452Y-99237676D02*
X137438214Y-99332914D01*
X137438214Y-99332914D02*
X137342976Y-99380533D01*
X176019580Y-92742857D02*
X176067200Y-92790476D01*
X176067200Y-92790476D02*
X176114819Y-92933333D01*
X176114819Y-92933333D02*
X176114819Y-93028571D01*
X176114819Y-93028571D02*
X176067200Y-93171428D01*
X176067200Y-93171428D02*
X175971961Y-93266666D01*
X175971961Y-93266666D02*
X175876723Y-93314285D01*
X175876723Y-93314285D02*
X175686247Y-93361904D01*
X175686247Y-93361904D02*
X175543390Y-93361904D01*
X175543390Y-93361904D02*
X175352914Y-93314285D01*
X175352914Y-93314285D02*
X175257676Y-93266666D01*
X175257676Y-93266666D02*
X175162438Y-93171428D01*
X175162438Y-93171428D02*
X175114819Y-93028571D01*
X175114819Y-93028571D02*
X175114819Y-92933333D01*
X175114819Y-92933333D02*
X175162438Y-92790476D01*
X175162438Y-92790476D02*
X175210057Y-92742857D01*
X175210057Y-92361904D02*
X175162438Y-92314285D01*
X175162438Y-92314285D02*
X175114819Y-92219047D01*
X175114819Y-92219047D02*
X175114819Y-91980952D01*
X175114819Y-91980952D02*
X175162438Y-91885714D01*
X175162438Y-91885714D02*
X175210057Y-91838095D01*
X175210057Y-91838095D02*
X175305295Y-91790476D01*
X175305295Y-91790476D02*
X175400533Y-91790476D01*
X175400533Y-91790476D02*
X175543390Y-91838095D01*
X175543390Y-91838095D02*
X176114819Y-92409523D01*
X176114819Y-92409523D02*
X176114819Y-91790476D01*
X175114819Y-90933333D02*
X175114819Y-91123809D01*
X175114819Y-91123809D02*
X175162438Y-91219047D01*
X175162438Y-91219047D02*
X175210057Y-91266666D01*
X175210057Y-91266666D02*
X175352914Y-91361904D01*
X175352914Y-91361904D02*
X175543390Y-91409523D01*
X175543390Y-91409523D02*
X175924342Y-91409523D01*
X175924342Y-91409523D02*
X176019580Y-91361904D01*
X176019580Y-91361904D02*
X176067200Y-91314285D01*
X176067200Y-91314285D02*
X176114819Y-91219047D01*
X176114819Y-91219047D02*
X176114819Y-91028571D01*
X176114819Y-91028571D02*
X176067200Y-90933333D01*
X176067200Y-90933333D02*
X176019580Y-90885714D01*
X176019580Y-90885714D02*
X175924342Y-90838095D01*
X175924342Y-90838095D02*
X175686247Y-90838095D01*
X175686247Y-90838095D02*
X175591009Y-90885714D01*
X175591009Y-90885714D02*
X175543390Y-90933333D01*
X175543390Y-90933333D02*
X175495771Y-91028571D01*
X175495771Y-91028571D02*
X175495771Y-91219047D01*
X175495771Y-91219047D02*
X175543390Y-91314285D01*
X175543390Y-91314285D02*
X175591009Y-91361904D01*
X175591009Y-91361904D02*
X175686247Y-91409523D01*
X139399580Y-94386666D02*
X139447200Y-94434285D01*
X139447200Y-94434285D02*
X139494819Y-94577142D01*
X139494819Y-94577142D02*
X139494819Y-94672380D01*
X139494819Y-94672380D02*
X139447200Y-94815237D01*
X139447200Y-94815237D02*
X139351961Y-94910475D01*
X139351961Y-94910475D02*
X139256723Y-94958094D01*
X139256723Y-94958094D02*
X139066247Y-95005713D01*
X139066247Y-95005713D02*
X138923390Y-95005713D01*
X138923390Y-95005713D02*
X138732914Y-94958094D01*
X138732914Y-94958094D02*
X138637676Y-94910475D01*
X138637676Y-94910475D02*
X138542438Y-94815237D01*
X138542438Y-94815237D02*
X138494819Y-94672380D01*
X138494819Y-94672380D02*
X138494819Y-94577142D01*
X138494819Y-94577142D02*
X138542438Y-94434285D01*
X138542438Y-94434285D02*
X138590057Y-94386666D01*
X139494819Y-93434285D02*
X139494819Y-94005713D01*
X139494819Y-93719999D02*
X138494819Y-93719999D01*
X138494819Y-93719999D02*
X138637676Y-93815237D01*
X138637676Y-93815237D02*
X138732914Y-93910475D01*
X138732914Y-93910475D02*
X138780533Y-94005713D01*
X153489580Y-99462857D02*
X153537200Y-99510476D01*
X153537200Y-99510476D02*
X153584819Y-99653333D01*
X153584819Y-99653333D02*
X153584819Y-99748571D01*
X153584819Y-99748571D02*
X153537200Y-99891428D01*
X153537200Y-99891428D02*
X153441961Y-99986666D01*
X153441961Y-99986666D02*
X153346723Y-100034285D01*
X153346723Y-100034285D02*
X153156247Y-100081904D01*
X153156247Y-100081904D02*
X153013390Y-100081904D01*
X153013390Y-100081904D02*
X152822914Y-100034285D01*
X152822914Y-100034285D02*
X152727676Y-99986666D01*
X152727676Y-99986666D02*
X152632438Y-99891428D01*
X152632438Y-99891428D02*
X152584819Y-99748571D01*
X152584819Y-99748571D02*
X152584819Y-99653333D01*
X152584819Y-99653333D02*
X152632438Y-99510476D01*
X152632438Y-99510476D02*
X152680057Y-99462857D01*
X153584819Y-98510476D02*
X153584819Y-99081904D01*
X153584819Y-98796190D02*
X152584819Y-98796190D01*
X152584819Y-98796190D02*
X152727676Y-98891428D01*
X152727676Y-98891428D02*
X152822914Y-98986666D01*
X152822914Y-98986666D02*
X152870533Y-99081904D01*
X152584819Y-98177142D02*
X152584819Y-97510476D01*
X152584819Y-97510476D02*
X153584819Y-97939047D01*
X168699580Y-95532857D02*
X168747200Y-95580476D01*
X168747200Y-95580476D02*
X168794819Y-95723333D01*
X168794819Y-95723333D02*
X168794819Y-95818571D01*
X168794819Y-95818571D02*
X168747200Y-95961428D01*
X168747200Y-95961428D02*
X168651961Y-96056666D01*
X168651961Y-96056666D02*
X168556723Y-96104285D01*
X168556723Y-96104285D02*
X168366247Y-96151904D01*
X168366247Y-96151904D02*
X168223390Y-96151904D01*
X168223390Y-96151904D02*
X168032914Y-96104285D01*
X168032914Y-96104285D02*
X167937676Y-96056666D01*
X167937676Y-96056666D02*
X167842438Y-95961428D01*
X167842438Y-95961428D02*
X167794819Y-95818571D01*
X167794819Y-95818571D02*
X167794819Y-95723333D01*
X167794819Y-95723333D02*
X167842438Y-95580476D01*
X167842438Y-95580476D02*
X167890057Y-95532857D01*
X168794819Y-94580476D02*
X168794819Y-95151904D01*
X168794819Y-94866190D02*
X167794819Y-94866190D01*
X167794819Y-94866190D02*
X167937676Y-94961428D01*
X167937676Y-94961428D02*
X168032914Y-95056666D01*
X168032914Y-95056666D02*
X168080533Y-95151904D01*
X167794819Y-93961428D02*
X167794819Y-93866190D01*
X167794819Y-93866190D02*
X167842438Y-93770952D01*
X167842438Y-93770952D02*
X167890057Y-93723333D01*
X167890057Y-93723333D02*
X167985295Y-93675714D01*
X167985295Y-93675714D02*
X168175771Y-93628095D01*
X168175771Y-93628095D02*
X168413866Y-93628095D01*
X168413866Y-93628095D02*
X168604342Y-93675714D01*
X168604342Y-93675714D02*
X168699580Y-93723333D01*
X168699580Y-93723333D02*
X168747200Y-93770952D01*
X168747200Y-93770952D02*
X168794819Y-93866190D01*
X168794819Y-93866190D02*
X168794819Y-93961428D01*
X168794819Y-93961428D02*
X168747200Y-94056666D01*
X168747200Y-94056666D02*
X168699580Y-94104285D01*
X168699580Y-94104285D02*
X168604342Y-94151904D01*
X168604342Y-94151904D02*
X168413866Y-94199523D01*
X168413866Y-94199523D02*
X168175771Y-94199523D01*
X168175771Y-94199523D02*
X167985295Y-94151904D01*
X167985295Y-94151904D02*
X167890057Y-94104285D01*
X167890057Y-94104285D02*
X167842438Y-94056666D01*
X167842438Y-94056666D02*
X167794819Y-93961428D01*
X154118095Y-101094819D02*
X154118095Y-101904342D01*
X154118095Y-101904342D02*
X154165714Y-101999580D01*
X154165714Y-101999580D02*
X154213333Y-102047200D01*
X154213333Y-102047200D02*
X154308571Y-102094819D01*
X154308571Y-102094819D02*
X154499047Y-102094819D01*
X154499047Y-102094819D02*
X154594285Y-102047200D01*
X154594285Y-102047200D02*
X154641904Y-101999580D01*
X154641904Y-101999580D02*
X154689523Y-101904342D01*
X154689523Y-101904342D02*
X154689523Y-101094819D01*
X155070476Y-101094819D02*
X155689523Y-101094819D01*
X155689523Y-101094819D02*
X155356190Y-101475771D01*
X155356190Y-101475771D02*
X155499047Y-101475771D01*
X155499047Y-101475771D02*
X155594285Y-101523390D01*
X155594285Y-101523390D02*
X155641904Y-101571009D01*
X155641904Y-101571009D02*
X155689523Y-101666247D01*
X155689523Y-101666247D02*
X155689523Y-101904342D01*
X155689523Y-101904342D02*
X155641904Y-101999580D01*
X155641904Y-101999580D02*
X155594285Y-102047200D01*
X155594285Y-102047200D02*
X155499047Y-102094819D01*
X155499047Y-102094819D02*
X155213333Y-102094819D01*
X155213333Y-102094819D02*
X155118095Y-102047200D01*
X155118095Y-102047200D02*
X155070476Y-101999580D01*
D11*
X143449048Y-86354809D02*
X143734762Y-86354809D01*
X143591905Y-86854809D02*
X143591905Y-86354809D01*
X143901428Y-86854809D02*
X143901428Y-86354809D01*
X143901428Y-86354809D02*
X144091904Y-86354809D01*
X144091904Y-86354809D02*
X144139523Y-86378619D01*
X144139523Y-86378619D02*
X144163333Y-86402428D01*
X144163333Y-86402428D02*
X144187142Y-86450047D01*
X144187142Y-86450047D02*
X144187142Y-86521476D01*
X144187142Y-86521476D02*
X144163333Y-86569095D01*
X144163333Y-86569095D02*
X144139523Y-86592904D01*
X144139523Y-86592904D02*
X144091904Y-86616714D01*
X144091904Y-86616714D02*
X143901428Y-86616714D01*
X144377619Y-86402428D02*
X144401428Y-86378619D01*
X144401428Y-86378619D02*
X144449047Y-86354809D01*
X144449047Y-86354809D02*
X144568095Y-86354809D01*
X144568095Y-86354809D02*
X144615714Y-86378619D01*
X144615714Y-86378619D02*
X144639523Y-86402428D01*
X144639523Y-86402428D02*
X144663333Y-86450047D01*
X144663333Y-86450047D02*
X144663333Y-86497666D01*
X144663333Y-86497666D02*
X144639523Y-86569095D01*
X144639523Y-86569095D02*
X144353809Y-86854809D01*
X144353809Y-86854809D02*
X144663333Y-86854809D01*
D10*
X159313333Y-88369580D02*
X159265714Y-88417200D01*
X159265714Y-88417200D02*
X159122857Y-88464819D01*
X159122857Y-88464819D02*
X159027619Y-88464819D01*
X159027619Y-88464819D02*
X158884762Y-88417200D01*
X158884762Y-88417200D02*
X158789524Y-88321961D01*
X158789524Y-88321961D02*
X158741905Y-88226723D01*
X158741905Y-88226723D02*
X158694286Y-88036247D01*
X158694286Y-88036247D02*
X158694286Y-87893390D01*
X158694286Y-87893390D02*
X158741905Y-87702914D01*
X158741905Y-87702914D02*
X158789524Y-87607676D01*
X158789524Y-87607676D02*
X158884762Y-87512438D01*
X158884762Y-87512438D02*
X159027619Y-87464819D01*
X159027619Y-87464819D02*
X159122857Y-87464819D01*
X159122857Y-87464819D02*
X159265714Y-87512438D01*
X159265714Y-87512438D02*
X159313333Y-87560057D01*
X160170476Y-87464819D02*
X159980000Y-87464819D01*
X159980000Y-87464819D02*
X159884762Y-87512438D01*
X159884762Y-87512438D02*
X159837143Y-87560057D01*
X159837143Y-87560057D02*
X159741905Y-87702914D01*
X159741905Y-87702914D02*
X159694286Y-87893390D01*
X159694286Y-87893390D02*
X159694286Y-88274342D01*
X159694286Y-88274342D02*
X159741905Y-88369580D01*
X159741905Y-88369580D02*
X159789524Y-88417200D01*
X159789524Y-88417200D02*
X159884762Y-88464819D01*
X159884762Y-88464819D02*
X160075238Y-88464819D01*
X160075238Y-88464819D02*
X160170476Y-88417200D01*
X160170476Y-88417200D02*
X160218095Y-88369580D01*
X160218095Y-88369580D02*
X160265714Y-88274342D01*
X160265714Y-88274342D02*
X160265714Y-88036247D01*
X160265714Y-88036247D02*
X160218095Y-87941009D01*
X160218095Y-87941009D02*
X160170476Y-87893390D01*
X160170476Y-87893390D02*
X160075238Y-87845771D01*
X160075238Y-87845771D02*
X159884762Y-87845771D01*
X159884762Y-87845771D02*
X159789524Y-87893390D01*
X159789524Y-87893390D02*
X159741905Y-87941009D01*
X159741905Y-87941009D02*
X159694286Y-88036247D01*
X161787142Y-113089580D02*
X161739523Y-113137200D01*
X161739523Y-113137200D02*
X161596666Y-113184819D01*
X161596666Y-113184819D02*
X161501428Y-113184819D01*
X161501428Y-113184819D02*
X161358571Y-113137200D01*
X161358571Y-113137200D02*
X161263333Y-113041961D01*
X161263333Y-113041961D02*
X161215714Y-112946723D01*
X161215714Y-112946723D02*
X161168095Y-112756247D01*
X161168095Y-112756247D02*
X161168095Y-112613390D01*
X161168095Y-112613390D02*
X161215714Y-112422914D01*
X161215714Y-112422914D02*
X161263333Y-112327676D01*
X161263333Y-112327676D02*
X161358571Y-112232438D01*
X161358571Y-112232438D02*
X161501428Y-112184819D01*
X161501428Y-112184819D02*
X161596666Y-112184819D01*
X161596666Y-112184819D02*
X161739523Y-112232438D01*
X161739523Y-112232438D02*
X161787142Y-112280057D01*
X162168095Y-112280057D02*
X162215714Y-112232438D01*
X162215714Y-112232438D02*
X162310952Y-112184819D01*
X162310952Y-112184819D02*
X162549047Y-112184819D01*
X162549047Y-112184819D02*
X162644285Y-112232438D01*
X162644285Y-112232438D02*
X162691904Y-112280057D01*
X162691904Y-112280057D02*
X162739523Y-112375295D01*
X162739523Y-112375295D02*
X162739523Y-112470533D01*
X162739523Y-112470533D02*
X162691904Y-112613390D01*
X162691904Y-112613390D02*
X162120476Y-113184819D01*
X162120476Y-113184819D02*
X162739523Y-113184819D01*
X163120476Y-112280057D02*
X163168095Y-112232438D01*
X163168095Y-112232438D02*
X163263333Y-112184819D01*
X163263333Y-112184819D02*
X163501428Y-112184819D01*
X163501428Y-112184819D02*
X163596666Y-112232438D01*
X163596666Y-112232438D02*
X163644285Y-112280057D01*
X163644285Y-112280057D02*
X163691904Y-112375295D01*
X163691904Y-112375295D02*
X163691904Y-112470533D01*
X163691904Y-112470533D02*
X163644285Y-112613390D01*
X163644285Y-112613390D02*
X163072857Y-113184819D01*
X163072857Y-113184819D02*
X163691904Y-113184819D01*
X165434819Y-88226666D02*
X164958628Y-88559999D01*
X165434819Y-88798094D02*
X164434819Y-88798094D01*
X164434819Y-88798094D02*
X164434819Y-88417142D01*
X164434819Y-88417142D02*
X164482438Y-88321904D01*
X164482438Y-88321904D02*
X164530057Y-88274285D01*
X164530057Y-88274285D02*
X164625295Y-88226666D01*
X164625295Y-88226666D02*
X164768152Y-88226666D01*
X164768152Y-88226666D02*
X164863390Y-88274285D01*
X164863390Y-88274285D02*
X164911009Y-88321904D01*
X164911009Y-88321904D02*
X164958628Y-88417142D01*
X164958628Y-88417142D02*
X164958628Y-88798094D01*
X165434819Y-87750475D02*
X165434819Y-87559999D01*
X165434819Y-87559999D02*
X165387200Y-87464761D01*
X165387200Y-87464761D02*
X165339580Y-87417142D01*
X165339580Y-87417142D02*
X165196723Y-87321904D01*
X165196723Y-87321904D02*
X165006247Y-87274285D01*
X165006247Y-87274285D02*
X164625295Y-87274285D01*
X164625295Y-87274285D02*
X164530057Y-87321904D01*
X164530057Y-87321904D02*
X164482438Y-87369523D01*
X164482438Y-87369523D02*
X164434819Y-87464761D01*
X164434819Y-87464761D02*
X164434819Y-87655237D01*
X164434819Y-87655237D02*
X164482438Y-87750475D01*
X164482438Y-87750475D02*
X164530057Y-87798094D01*
X164530057Y-87798094D02*
X164625295Y-87845713D01*
X164625295Y-87845713D02*
X164863390Y-87845713D01*
X164863390Y-87845713D02*
X164958628Y-87798094D01*
X164958628Y-87798094D02*
X165006247Y-87750475D01*
X165006247Y-87750475D02*
X165053866Y-87655237D01*
X165053866Y-87655237D02*
X165053866Y-87464761D01*
X165053866Y-87464761D02*
X165006247Y-87369523D01*
X165006247Y-87369523D02*
X164958628Y-87321904D01*
X164958628Y-87321904D02*
X164863390Y-87274285D01*
D12*
%TO.C,D3*%
X140772500Y-100745000D02*
X140772500Y-102215000D01*
X140772500Y-102215000D02*
X143057500Y-102215000D01*
X143057500Y-100745000D02*
X140772500Y-100745000D01*
%TO.C,Y1*%
X149107500Y-105360000D02*
X145107500Y-105360000D01*
X149107500Y-108660000D02*
X149107500Y-105360000D01*
%TO.C,IC1*%
X162015000Y-84137500D02*
X162015000Y-83337500D01*
X162015000Y-84137500D02*
X162015000Y-84937500D01*
X165135000Y-84137500D02*
X165135000Y-83337500D01*
X165135000Y-84137500D02*
X165135000Y-84937500D01*
X165390000Y-83077500D02*
X165060000Y-82837500D01*
X165390000Y-82597500D01*
X165390000Y-83077500D01*
G36*
X165390000Y-83077500D02*
G01*
X165060000Y-82837500D01*
X165390000Y-82597500D01*
X165390000Y-83077500D01*
G37*
D13*
%TO.C,L1*%
X151039500Y-83102700D02*
X151039500Y-88157300D01*
X151039500Y-88157300D02*
X151341760Y-88157300D01*
X151341760Y-83102700D02*
X151039500Y-83102700D01*
X156198240Y-88157300D02*
X156500500Y-88157300D01*
X156500500Y-83102700D02*
X156198240Y-83102700D01*
X156500500Y-88157300D02*
X156500500Y-83102700D01*
D12*
%TO.C,SW1*%
X140945000Y-115560000D02*
X147405000Y-115560000D01*
X140945000Y-115590000D02*
X140945000Y-115560000D01*
X140945000Y-117490000D02*
X140945000Y-120090000D01*
X140945000Y-122020000D02*
X140945000Y-121990000D01*
X140945000Y-122020000D02*
X147405000Y-122020000D01*
X147405000Y-115560000D02*
X147405000Y-115590000D01*
X147405000Y-117490000D02*
X147405000Y-120090000D01*
X147405000Y-122020000D02*
X147405000Y-121990000D01*
%TO.C,C12*%
X145762164Y-104380000D02*
X145977836Y-104380000D01*
X145762164Y-105100000D02*
X145977836Y-105100000D01*
%TO.C,R10*%
X147956359Y-108880000D02*
X148263641Y-108880000D01*
X147956359Y-109640000D02*
X148263641Y-109640000D01*
%TO.C,U2*%
X164080000Y-92827500D02*
X163280000Y-92827500D01*
X164080000Y-92827500D02*
X164880000Y-92827500D01*
X164080000Y-95947500D02*
X163280000Y-95947500D01*
X164080000Y-95947500D02*
X164880000Y-95947500D01*
X165620000Y-96227500D02*
X165140000Y-96227500D01*
X165380000Y-95897500D01*
X165620000Y-96227500D01*
G36*
X165620000Y-96227500D02*
G01*
X165140000Y-96227500D01*
X165380000Y-95897500D01*
X165620000Y-96227500D01*
G37*
%TO.C,C14*%
X151127836Y-102617500D02*
X150912164Y-102617500D01*
X151127836Y-103337500D02*
X150912164Y-103337500D01*
%TO.C,D2*%
X140772500Y-99055000D02*
X140772500Y-100525000D01*
X140772500Y-100525000D02*
X143057500Y-100525000D01*
X143057500Y-99055000D02*
X140772500Y-99055000D01*
%TO.C,C2*%
X138347836Y-87730000D02*
X138132164Y-87730000D01*
X138347836Y-88450000D02*
X138132164Y-88450000D01*
%TO.C,C5*%
X163477836Y-86970000D02*
X163262164Y-86970000D01*
X163477836Y-87690000D02*
X163262164Y-87690000D01*
%TO.C,C15*%
X155600000Y-112032164D02*
X155600000Y-112247836D01*
X156320000Y-112032164D02*
X156320000Y-112247836D01*
%TO.C,R13*%
X139588641Y-102730000D02*
X139281359Y-102730000D01*
X139588641Y-103490000D02*
X139281359Y-103490000D01*
%TO.C,R1*%
X135500000Y-82358859D02*
X135500000Y-82666141D01*
X136260000Y-82358859D02*
X136260000Y-82666141D01*
%TO.C,TP6*%
X170720000Y-84720000D02*
G75*
G02*
X169320000Y-84720000I-700000J0D01*
G01*
X169320000Y-84720000D02*
G75*
G02*
X170720000Y-84720000I700000J0D01*
G01*
%TO.C,R4*%
X166456359Y-81260000D02*
X166763641Y-81260000D01*
X166456359Y-82020000D02*
X166763641Y-82020000D01*
%TO.C,TP4*%
X170690000Y-103520000D02*
G75*
G02*
X169290000Y-103520000I-700000J0D01*
G01*
X169290000Y-103520000D02*
G75*
G02*
X170690000Y-103520000I700000J0D01*
G01*
%TO.C,C21*%
X160710000Y-103607836D02*
X160710000Y-103392164D01*
X161430000Y-103607836D02*
X161430000Y-103392164D01*
%TO.C,R12*%
X139498641Y-101160000D02*
X139191359Y-101160000D01*
X139498641Y-101920000D02*
X139191359Y-101920000D01*
%TO.C,D1*%
X154862500Y-76245000D02*
X157147500Y-76245000D01*
X157147500Y-74775000D02*
X154862500Y-74775000D01*
X157147500Y-76245000D02*
X157147500Y-74775000D01*
%TO.C,C9*%
X157776248Y-81052500D02*
X158298752Y-81052500D01*
X157776248Y-82522500D02*
X158298752Y-82522500D01*
%TO.C,C20*%
X142832164Y-76860000D02*
X143047836Y-76860000D01*
X142832164Y-77580000D02*
X143047836Y-77580000D01*
%TO.C,R6*%
X160913641Y-85330000D02*
X160606359Y-85330000D01*
X160913641Y-86090000D02*
X160606359Y-86090000D01*
%TO.C,C7*%
X166730000Y-87942164D02*
X166730000Y-88157836D01*
X167450000Y-87942164D02*
X167450000Y-88157836D01*
%TO.C,J4*%
X179130000Y-75710000D02*
X179130000Y-77130000D01*
X179130000Y-77130000D02*
X183630000Y-77130000D01*
X179130000Y-91910000D02*
X183630000Y-91910000D01*
X179130000Y-93330000D02*
X179130000Y-91910000D01*
X179440000Y-90470000D02*
X180040000Y-90770000D01*
X179440000Y-91070000D02*
X179440000Y-90470000D01*
X180040000Y-90770000D02*
X179440000Y-91070000D01*
X183630000Y-77130000D02*
X183630000Y-84520000D01*
X183630000Y-91910000D02*
X183630000Y-84520000D01*
X184740000Y-78020000D02*
X184740000Y-78520000D01*
X184740000Y-78520000D02*
X190240000Y-78520000D01*
X184740000Y-80520000D02*
X184740000Y-81020000D01*
X184740000Y-81020000D02*
X190240000Y-81020000D01*
X184740000Y-83020000D02*
X184740000Y-83520000D01*
X184740000Y-83520000D02*
X190240000Y-83520000D01*
X184740000Y-85520000D02*
X184740000Y-86020000D01*
X184740000Y-86020000D02*
X190240000Y-86020000D01*
X184740000Y-88020000D02*
X184740000Y-88520000D01*
X184740000Y-88520000D02*
X190240000Y-88520000D01*
X184740000Y-90520000D02*
X184740000Y-91020000D01*
X184740000Y-91020000D02*
X190240000Y-91020000D01*
X190240000Y-78020000D02*
X184740000Y-78020000D01*
X190240000Y-78520000D02*
X190240000Y-78020000D01*
X190240000Y-80520000D02*
X184740000Y-80520000D01*
X190240000Y-81020000D02*
X190240000Y-80520000D01*
X190240000Y-83020000D02*
X184740000Y-83020000D01*
X190240000Y-83520000D02*
X190240000Y-83020000D01*
X190240000Y-85520000D02*
X184740000Y-85520000D01*
X190240000Y-86020000D02*
X190240000Y-85520000D01*
X190240000Y-88020000D02*
X184740000Y-88020000D01*
X190240000Y-88520000D02*
X190240000Y-88020000D01*
X190240000Y-90520000D02*
X184740000Y-90520000D01*
X190240000Y-91020000D02*
X190240000Y-90520000D01*
X190850000Y-75710000D02*
X179130000Y-75710000D01*
X190850000Y-84520000D02*
X190850000Y-75710000D01*
X190850000Y-84520000D02*
X190850000Y-93330000D01*
X190850000Y-93330000D02*
X179130000Y-93330000D01*
%TO.C,TP7*%
X172360000Y-91880000D02*
G75*
G02*
X170960000Y-91880000I-700000J0D01*
G01*
X170960000Y-91880000D02*
G75*
G02*
X172360000Y-91880000I700000J0D01*
G01*
%TO.C,J1*%
X123220000Y-88320000D02*
X134940000Y-88320000D01*
X123220000Y-94630000D02*
X123220000Y-88320000D01*
X123220000Y-94630000D02*
X123220000Y-100940000D01*
X123220000Y-100940000D02*
X134940000Y-100940000D01*
X123830000Y-90630000D02*
X123830000Y-91130000D01*
X123830000Y-91130000D02*
X129330000Y-91130000D01*
X123830000Y-93130000D02*
X123830000Y-93630000D01*
X123830000Y-93630000D02*
X129330000Y-93630000D01*
X123830000Y-95630000D02*
X123830000Y-96130000D01*
X123830000Y-96130000D02*
X129330000Y-96130000D01*
X123830000Y-98130000D02*
X123830000Y-98630000D01*
X123830000Y-98630000D02*
X129330000Y-98630000D01*
X129330000Y-90630000D02*
X123830000Y-90630000D01*
X129330000Y-91130000D02*
X129330000Y-90630000D01*
X129330000Y-93130000D02*
X123830000Y-93130000D01*
X129330000Y-93630000D02*
X129330000Y-93130000D01*
X129330000Y-95630000D02*
X123830000Y-95630000D01*
X129330000Y-96130000D02*
X129330000Y-95630000D01*
X129330000Y-98130000D02*
X123830000Y-98130000D01*
X129330000Y-98630000D02*
X129330000Y-98130000D01*
X130440000Y-89740000D02*
X130440000Y-94630000D01*
X130440000Y-99520000D02*
X130440000Y-94630000D01*
X134030000Y-90880000D02*
X134630000Y-90580000D01*
X134630000Y-90580000D02*
X134630000Y-91180000D01*
X134630000Y-91180000D02*
X134030000Y-90880000D01*
X134940000Y-88320000D02*
X134940000Y-89740000D01*
X134940000Y-89740000D02*
X130440000Y-89740000D01*
X134940000Y-99520000D02*
X130440000Y-99520000D01*
X134940000Y-100940000D02*
X134940000Y-99520000D01*
%TO.C,C201*%
X138110000Y-116912164D02*
X138110000Y-117127836D01*
X138830000Y-116912164D02*
X138830000Y-117127836D01*
%TO.C,C8*%
X157776248Y-79002500D02*
X158298752Y-79002500D01*
X157776248Y-80472500D02*
X158298752Y-80472500D01*
%TO.C,J5*%
X179030000Y-95460000D02*
X179030000Y-96880000D01*
X179030000Y-96880000D02*
X183530000Y-96880000D01*
X179030000Y-111660000D02*
X183530000Y-111660000D01*
X179030000Y-113080000D02*
X179030000Y-111660000D01*
X179340000Y-110220000D02*
X179940000Y-110520000D01*
X179340000Y-110820000D02*
X179340000Y-110220000D01*
X179940000Y-110520000D02*
X179340000Y-110820000D01*
X183530000Y-96880000D02*
X183530000Y-104270000D01*
X183530000Y-111660000D02*
X183530000Y-104270000D01*
X184640000Y-97770000D02*
X184640000Y-98270000D01*
X184640000Y-98270000D02*
X190140000Y-98270000D01*
X184640000Y-100270000D02*
X184640000Y-100770000D01*
X184640000Y-100770000D02*
X190140000Y-100770000D01*
X184640000Y-102770000D02*
X184640000Y-103270000D01*
X184640000Y-103270000D02*
X190140000Y-103270000D01*
X184640000Y-105270000D02*
X184640000Y-105770000D01*
X184640000Y-105770000D02*
X190140000Y-105770000D01*
X184640000Y-107770000D02*
X184640000Y-108270000D01*
X184640000Y-108270000D02*
X190140000Y-108270000D01*
X184640000Y-110270000D02*
X184640000Y-110770000D01*
X184640000Y-110770000D02*
X190140000Y-110770000D01*
X190140000Y-97770000D02*
X184640000Y-97770000D01*
X190140000Y-98270000D02*
X190140000Y-97770000D01*
X190140000Y-100270000D02*
X184640000Y-100270000D01*
X190140000Y-100770000D02*
X190140000Y-100270000D01*
X190140000Y-102770000D02*
X184640000Y-102770000D01*
X190140000Y-103270000D02*
X190140000Y-102770000D01*
X190140000Y-105270000D02*
X184640000Y-105270000D01*
X190140000Y-105770000D02*
X190140000Y-105270000D01*
X190140000Y-107770000D02*
X184640000Y-107770000D01*
X190140000Y-108270000D02*
X190140000Y-107770000D01*
X190140000Y-110270000D02*
X184640000Y-110270000D01*
X190140000Y-110770000D02*
X190140000Y-110270000D01*
X190750000Y-95460000D02*
X179030000Y-95460000D01*
X190750000Y-104270000D02*
X190750000Y-95460000D01*
X190750000Y-104270000D02*
X190750000Y-113080000D01*
X190750000Y-113080000D02*
X179030000Y-113080000D01*
%TO.C,U1*%
X140590000Y-87560000D02*
X139840000Y-87560000D01*
X140590000Y-92780000D02*
X139540000Y-92780000D01*
X141710000Y-87560000D02*
X142760000Y-87560000D01*
X141710000Y-92780000D02*
X142760000Y-92780000D01*
X139540000Y-87560000D02*
X139400000Y-87370000D01*
X139680000Y-87370000D01*
X139540000Y-87560000D01*
G36*
X139540000Y-87560000D02*
G01*
X139400000Y-87370000D01*
X139680000Y-87370000D01*
X139540000Y-87560000D01*
G37*
%TO.C,C28*%
X173170000Y-100685580D02*
X173170000Y-100404420D01*
X174190000Y-100685580D02*
X174190000Y-100404420D01*
%TO.C,SW2*%
X162730000Y-62520000D02*
X162730000Y-74240000D01*
X162730000Y-74240000D02*
X164150000Y-74240000D01*
X164150000Y-69740000D02*
X167790000Y-69740000D01*
X164150000Y-74240000D02*
X164150000Y-69740000D01*
X165040000Y-63130000D02*
X165040000Y-68630000D01*
X165040000Y-68630000D02*
X165540000Y-68630000D01*
X165540000Y-63130000D02*
X165040000Y-63130000D01*
X165540000Y-68630000D02*
X165540000Y-63130000D01*
X167540000Y-63130000D02*
X167540000Y-68630000D01*
X167540000Y-68630000D02*
X168040000Y-68630000D01*
X167790000Y-62520000D02*
X162730000Y-62520000D01*
X167790000Y-62520000D02*
X172850000Y-62520000D01*
X168040000Y-63130000D02*
X167540000Y-63130000D01*
X168040000Y-68630000D02*
X168040000Y-63130000D01*
X169990000Y-73930000D02*
X170290000Y-73330000D01*
X170040000Y-63130000D02*
X170040000Y-68630000D01*
X170040000Y-68630000D02*
X170540000Y-68630000D01*
X170290000Y-73330000D02*
X170590000Y-73930000D01*
X170540000Y-63130000D02*
X170040000Y-63130000D01*
X170540000Y-68630000D02*
X170540000Y-63130000D01*
X170590000Y-73930000D02*
X169990000Y-73930000D01*
X171430000Y-69740000D02*
X167790000Y-69740000D01*
X171430000Y-74240000D02*
X171430000Y-69740000D01*
X172850000Y-62520000D02*
X172850000Y-74240000D01*
X172850000Y-74240000D02*
X171430000Y-74240000D01*
D10*
%TO.C,U4*%
X171037500Y-104245000D02*
X171037500Y-108395000D01*
X176187500Y-104245000D02*
X176187500Y-108395000D01*
D12*
X176517500Y-104060000D02*
X176187500Y-103820000D01*
X176517500Y-103580000D01*
X176517500Y-104060000D01*
G36*
X176517500Y-104060000D02*
G01*
X176187500Y-103820000D01*
X176517500Y-103580000D01*
X176517500Y-104060000D01*
G37*
%TO.C,C16*%
X145852836Y-108900000D02*
X145637164Y-108900000D01*
X145852836Y-109620000D02*
X145637164Y-109620000D01*
%TO.C,R7*%
X165615000Y-85953859D02*
X165615000Y-86261141D01*
X166375000Y-85953859D02*
X166375000Y-86261141D01*
%TO.C,R3*%
X158186359Y-74910000D02*
X158493641Y-74910000D01*
X158186359Y-75670000D02*
X158493641Y-75670000D01*
%TO.C,L2*%
X159026665Y-112220000D02*
X159258335Y-112220000D01*
X159026665Y-112940000D02*
X159258335Y-112940000D01*
%TO.C,C18*%
X158872164Y-114220000D02*
X159087836Y-114220000D01*
X158872164Y-114940000D02*
X159087836Y-114940000D01*
%TO.C,C29*%
X172040000Y-101237836D02*
X172040000Y-101022164D01*
X172760000Y-101237836D02*
X172760000Y-101022164D01*
%TO.C,TP1*%
X142040000Y-86310000D02*
G75*
G02*
X140640000Y-86310000I-700000J0D01*
G01*
X140640000Y-86310000D02*
G75*
G02*
X142040000Y-86310000I700000J0D01*
G01*
%TO.C,C30*%
X173370000Y-81364420D02*
X173370000Y-81645580D01*
X174390000Y-81364420D02*
X174390000Y-81645580D01*
%TO.C,C3*%
X163821252Y-79835000D02*
X163298748Y-79835000D01*
X163821252Y-81305000D02*
X163298748Y-81305000D01*
%TO.C,C11*%
X160740000Y-94847836D02*
X160740000Y-94632164D01*
X161460000Y-94847836D02*
X161460000Y-94632164D01*
%TO.C,C24*%
X173890000Y-111072164D02*
X173890000Y-111287836D01*
X174610000Y-111072164D02*
X174610000Y-111287836D01*
%TO.C,C31*%
X172240000Y-81962164D02*
X172240000Y-82177836D01*
X172960000Y-81962164D02*
X172960000Y-82177836D01*
%TO.C,C19*%
X160182164Y-110860000D02*
X160397836Y-110860000D01*
X160182164Y-111580000D02*
X160397836Y-111580000D01*
%TO.C,TP5*%
X170370000Y-109780000D02*
G75*
G02*
X168970000Y-109780000I-700000J0D01*
G01*
X168970000Y-109780000D02*
G75*
G02*
X170370000Y-109780000I700000J0D01*
G01*
%TO.C,J8*%
X123190000Y-74150000D02*
X134910000Y-74150000D01*
X123190000Y-80460000D02*
X123190000Y-74150000D01*
X123190000Y-80460000D02*
X123190000Y-86770000D01*
X123190000Y-86770000D02*
X134910000Y-86770000D01*
X123800000Y-76460000D02*
X123800000Y-76960000D01*
X123800000Y-76960000D02*
X129300000Y-76960000D01*
X123800000Y-78960000D02*
X123800000Y-79460000D01*
X123800000Y-79460000D02*
X129300000Y-79460000D01*
X123800000Y-81460000D02*
X123800000Y-81960000D01*
X123800000Y-81960000D02*
X129300000Y-81960000D01*
X123800000Y-83960000D02*
X123800000Y-84460000D01*
X123800000Y-84460000D02*
X129300000Y-84460000D01*
X129300000Y-76460000D02*
X123800000Y-76460000D01*
X129300000Y-76960000D02*
X129300000Y-76460000D01*
X129300000Y-78960000D02*
X123800000Y-78960000D01*
X129300000Y-79460000D02*
X129300000Y-78960000D01*
X129300000Y-81460000D02*
X123800000Y-81460000D01*
X129300000Y-81960000D02*
X129300000Y-81460000D01*
X129300000Y-83960000D02*
X123800000Y-83960000D01*
X129300000Y-84460000D02*
X129300000Y-83960000D01*
X130410000Y-75570000D02*
X130410000Y-80460000D01*
X130410000Y-85350000D02*
X130410000Y-80460000D01*
X134000000Y-76710000D02*
X134600000Y-76410000D01*
X134600000Y-76410000D02*
X134600000Y-77010000D01*
X134600000Y-77010000D02*
X134000000Y-76710000D01*
X134910000Y-74150000D02*
X134910000Y-75570000D01*
X134910000Y-75570000D02*
X130410000Y-75570000D01*
X134910000Y-85350000D02*
X130410000Y-85350000D01*
X134910000Y-86770000D02*
X134910000Y-85350000D01*
D10*
%TO.C,U5*%
X171250000Y-85197500D02*
X171250000Y-89347500D01*
X176400000Y-85197500D02*
X176400000Y-89347500D01*
D12*
X176730000Y-85012500D02*
X176400000Y-84772500D01*
X176730000Y-84532500D01*
X176730000Y-85012500D01*
G36*
X176730000Y-85012500D02*
G01*
X176400000Y-84772500D01*
X176730000Y-84532500D01*
X176730000Y-85012500D01*
G37*
%TO.C,C4*%
X165720000Y-80237836D02*
X165720000Y-80022164D01*
X166440000Y-80237836D02*
X166440000Y-80022164D01*
%TO.C,C25*%
X177500000Y-103877836D02*
X177500000Y-103662164D01*
X176780000Y-103877836D02*
X176780000Y-103662164D01*
%TO.C,D4*%
X140792500Y-102375000D02*
X140792500Y-103845000D01*
X140792500Y-103845000D02*
X143077500Y-103845000D01*
X143077500Y-102375000D02*
X140792500Y-102375000D01*
%TO.C,C27*%
X177690000Y-84877836D02*
X177690000Y-84662164D01*
X176970000Y-84877836D02*
X176970000Y-84662164D01*
%TO.C,C13*%
X151660000Y-101365336D02*
X151660000Y-101149664D01*
X152380000Y-101365336D02*
X152380000Y-101149664D01*
%TO.C,R2*%
X135540000Y-85393641D02*
X135540000Y-85086359D01*
X136300000Y-85393641D02*
X136300000Y-85086359D01*
%TO.C,R5*%
X166733641Y-82320000D02*
X166426359Y-82320000D01*
X166733641Y-83080000D02*
X166426359Y-83080000D01*
%TO.C,TP3*%
X142910000Y-93980000D02*
G75*
G02*
X141510000Y-93980000I-700000J0D01*
G01*
X141510000Y-93980000D02*
G75*
G02*
X142910000Y-93980000I700000J0D01*
G01*
%TO.C,J2*%
X123180000Y-101930000D02*
X134900000Y-101930000D01*
X123180000Y-108240000D02*
X123180000Y-101930000D01*
X123180000Y-108240000D02*
X123180000Y-114550000D01*
X123180000Y-114550000D02*
X134900000Y-114550000D01*
X123790000Y-104240000D02*
X123790000Y-104740000D01*
X123790000Y-104740000D02*
X129290000Y-104740000D01*
X123790000Y-106740000D02*
X123790000Y-107240000D01*
X123790000Y-107240000D02*
X129290000Y-107240000D01*
X123790000Y-109240000D02*
X123790000Y-109740000D01*
X123790000Y-109740000D02*
X129290000Y-109740000D01*
X123790000Y-111740000D02*
X123790000Y-112240000D01*
X123790000Y-112240000D02*
X129290000Y-112240000D01*
X129290000Y-104240000D02*
X123790000Y-104240000D01*
X129290000Y-104740000D02*
X129290000Y-104240000D01*
X129290000Y-106740000D02*
X123790000Y-106740000D01*
X129290000Y-107240000D02*
X129290000Y-106740000D01*
X129290000Y-109240000D02*
X123790000Y-109240000D01*
X129290000Y-109740000D02*
X129290000Y-109240000D01*
X129290000Y-111740000D02*
X123790000Y-111740000D01*
X129290000Y-112240000D02*
X129290000Y-111740000D01*
X130400000Y-103350000D02*
X130400000Y-108240000D01*
X130400000Y-113130000D02*
X130400000Y-108240000D01*
X133990000Y-104490000D02*
X134590000Y-104190000D01*
X134590000Y-104190000D02*
X134590000Y-104790000D01*
X134590000Y-104790000D02*
X133990000Y-104490000D01*
X134900000Y-101930000D02*
X134900000Y-103350000D01*
X134900000Y-103350000D02*
X130400000Y-103350000D01*
X134900000Y-113130000D02*
X130400000Y-113130000D01*
X134900000Y-114550000D02*
X134900000Y-113130000D01*
%TO.C,J3*%
X151250000Y-116480000D02*
X152670000Y-116480000D01*
X151250000Y-128200000D02*
X151250000Y-116480000D01*
X152670000Y-116480000D02*
X152670000Y-120980000D01*
X152670000Y-120980000D02*
X162560000Y-120980000D01*
X153510000Y-116790000D02*
X154110000Y-116790000D01*
X153560000Y-122090000D02*
X153560000Y-127590000D01*
X153560000Y-127590000D02*
X154060000Y-127590000D01*
X153810000Y-117390000D02*
X153510000Y-116790000D01*
X154060000Y-122090000D02*
X153560000Y-122090000D01*
X154060000Y-127590000D02*
X154060000Y-122090000D01*
X154110000Y-116790000D02*
X153810000Y-117390000D01*
X156060000Y-122090000D02*
X156060000Y-127590000D01*
X156060000Y-127590000D02*
X156560000Y-127590000D01*
X156560000Y-122090000D02*
X156060000Y-122090000D01*
X156560000Y-127590000D02*
X156560000Y-122090000D01*
X158560000Y-122090000D02*
X158560000Y-127590000D01*
X158560000Y-127590000D02*
X159060000Y-127590000D01*
X159060000Y-122090000D02*
X158560000Y-122090000D01*
X159060000Y-127590000D02*
X159060000Y-122090000D01*
X161060000Y-122090000D02*
X161060000Y-127590000D01*
X161060000Y-127590000D02*
X161560000Y-127590000D01*
X161560000Y-122090000D02*
X161060000Y-122090000D01*
X161560000Y-127590000D02*
X161560000Y-122090000D01*
X162560000Y-128200000D02*
X151250000Y-128200000D01*
X162560000Y-128200000D02*
X173870000Y-128200000D01*
X163560000Y-122090000D02*
X163560000Y-127590000D01*
X163560000Y-127590000D02*
X164060000Y-127590000D01*
X164060000Y-122090000D02*
X163560000Y-122090000D01*
X164060000Y-127590000D02*
X164060000Y-122090000D01*
X166060000Y-122090000D02*
X166060000Y-127590000D01*
X166060000Y-127590000D02*
X166560000Y-127590000D01*
X166560000Y-122090000D02*
X166060000Y-122090000D01*
X166560000Y-127590000D02*
X166560000Y-122090000D01*
X168560000Y-122090000D02*
X168560000Y-127590000D01*
X168560000Y-127590000D02*
X169060000Y-127590000D01*
X169060000Y-122090000D02*
X168560000Y-122090000D01*
X169060000Y-127590000D02*
X169060000Y-122090000D01*
X171060000Y-122090000D02*
X171060000Y-127590000D01*
X171060000Y-127590000D02*
X171560000Y-127590000D01*
X171560000Y-122090000D02*
X171060000Y-122090000D01*
X171560000Y-127590000D02*
X171560000Y-122090000D01*
X172450000Y-116480000D02*
X172450000Y-120980000D01*
X172450000Y-120980000D02*
X162560000Y-120980000D01*
X173870000Y-116480000D02*
X172450000Y-116480000D01*
X173870000Y-128200000D02*
X173870000Y-116480000D01*
%TO.C,C23*%
X156600000Y-112012164D02*
X156600000Y-112227836D01*
X157320000Y-112012164D02*
X157320000Y-112227836D01*
%TO.C,R8*%
X166685000Y-86273641D02*
X166685000Y-85966359D01*
X167445000Y-86273641D02*
X167445000Y-85966359D01*
%TO.C,J6*%
X153800000Y-62530000D02*
X153800000Y-74250000D01*
X153800000Y-74250000D02*
X155220000Y-74250000D01*
X155220000Y-69750000D02*
X157610000Y-69750000D01*
X155220000Y-74250000D02*
X155220000Y-69750000D01*
X156110000Y-63140000D02*
X156110000Y-68640000D01*
X156110000Y-68640000D02*
X156610000Y-68640000D01*
X156610000Y-63140000D02*
X156110000Y-63140000D01*
X156610000Y-68640000D02*
X156610000Y-63140000D01*
X157610000Y-62530000D02*
X153800000Y-62530000D01*
X157610000Y-62530000D02*
X161420000Y-62530000D01*
X158560000Y-73940000D02*
X158860000Y-73340000D01*
X158610000Y-63140000D02*
X158610000Y-68640000D01*
X158610000Y-68640000D02*
X159110000Y-68640000D01*
X158860000Y-73340000D02*
X159160000Y-73940000D01*
X159110000Y-63140000D02*
X158610000Y-63140000D01*
X159110000Y-68640000D02*
X159110000Y-63140000D01*
X159160000Y-73940000D02*
X158560000Y-73940000D01*
X160000000Y-69750000D02*
X157610000Y-69750000D01*
X160000000Y-74250000D02*
X160000000Y-69750000D01*
X161420000Y-62530000D02*
X161420000Y-74250000D01*
X161420000Y-74250000D02*
X160000000Y-74250000D01*
%TO.C,J7*%
X140305000Y-70475000D02*
X140305000Y-74005000D01*
X140370000Y-70475000D02*
X140305000Y-70475000D01*
X140370000Y-74005000D02*
X140305000Y-74005000D01*
X149250000Y-69150000D02*
X149250000Y-70475000D01*
X149315000Y-70475000D02*
X149250000Y-70475000D01*
X149315000Y-70475000D02*
X149315000Y-74005000D01*
X149315000Y-74005000D02*
X149250000Y-74005000D01*
%TO.C,R11*%
X139568641Y-99430000D02*
X139261359Y-99430000D01*
X139568641Y-100190000D02*
X139261359Y-100190000D01*
%TO.C,C26*%
X174140000Y-91992164D02*
X174140000Y-92207836D01*
X174860000Y-91992164D02*
X174860000Y-92207836D01*
%TO.C,C1*%
X139800000Y-93964664D02*
X139800000Y-94180336D01*
X140520000Y-93964664D02*
X140520000Y-94180336D01*
%TO.C,C17*%
X152660000Y-101365336D02*
X152660000Y-101149664D01*
X153380000Y-101365336D02*
X153380000Y-101149664D01*
%TO.C,C10*%
X166660000Y-94987836D02*
X166660000Y-94772164D01*
X167380000Y-94987836D02*
X167380000Y-94772164D01*
%TO.C,U3*%
X152760000Y-103405000D02*
X152760000Y-103170000D01*
X152760000Y-110150000D02*
X152760000Y-109675000D01*
X153235000Y-102930000D02*
X153060000Y-102930000D01*
X153235000Y-110150000D02*
X152760000Y-110150000D01*
X159505000Y-102930000D02*
X159980000Y-102930000D01*
X159505000Y-110150000D02*
X159980000Y-110150000D01*
X159980000Y-102930000D02*
X159980000Y-103405000D01*
X159980000Y-110150000D02*
X159980000Y-109675000D01*
X152760000Y-102930000D02*
X152520000Y-102600000D01*
X153000000Y-102600000D01*
X152760000Y-102930000D01*
G36*
X152760000Y-102930000D02*
G01*
X152520000Y-102600000D01*
X153000000Y-102600000D01*
X152760000Y-102930000D01*
G37*
%TO.C,TP2*%
X144740000Y-88040000D02*
G75*
G02*
X143340000Y-88040000I-700000J0D01*
G01*
X143340000Y-88040000D02*
G75*
G02*
X144740000Y-88040000I700000J0D01*
G01*
%TO.C,C6*%
X159757836Y-86460000D02*
X159542164Y-86460000D01*
X159757836Y-87180000D02*
X159542164Y-87180000D01*
%TO.C,C22*%
X158852164Y-113220000D02*
X159067836Y-113220000D01*
X158852164Y-113940000D02*
X159067836Y-113940000D01*
%TO.C,R9*%
X165670000Y-87886359D02*
X165670000Y-88193641D01*
X166430000Y-87886359D02*
X166430000Y-88193641D01*
%TD*%
M02*
