%TF.GenerationSoftware,KiCad,Pcbnew,8.0.5*%
%TF.CreationDate,2024-09-20T22:50:32+02:00*%
%TF.ProjectId,ESE_AL8,4553455f-414c-4382-9e6b-696361645f70,rev?*%
%TF.SameCoordinates,Original*%
%TF.FileFunction,Legend,Top*%
%TF.FilePolarity,Positive*%
%FSLAX46Y46*%
G04 Gerber Fmt 4.6, Leading zero omitted, Abs format (unit mm)*
G04 Created by KiCad (PCBNEW 8.0.5) date 2024-09-20 22:50:32*
%MOMM*%
%LPD*%
G01*
G04 APERTURE LIST*
%ADD10C,0.150000*%
%ADD11C,0.120000*%
G04 APERTURE END LIST*
D10*
X171035714Y-83314819D02*
X171607142Y-83314819D01*
X171321428Y-84314819D02*
X171321428Y-83314819D01*
X171940476Y-84314819D02*
X171940476Y-83314819D01*
X171940476Y-83314819D02*
X172321428Y-83314819D01*
X172321428Y-83314819D02*
X172416666Y-83362438D01*
X172416666Y-83362438D02*
X172464285Y-83410057D01*
X172464285Y-83410057D02*
X172511904Y-83505295D01*
X172511904Y-83505295D02*
X172511904Y-83648152D01*
X172511904Y-83648152D02*
X172464285Y-83743390D01*
X172464285Y-83743390D02*
X172416666Y-83791009D01*
X172416666Y-83791009D02*
X172321428Y-83838628D01*
X172321428Y-83838628D02*
X171940476Y-83838628D01*
X172892857Y-83410057D02*
X172940476Y-83362438D01*
X172940476Y-83362438D02*
X173035714Y-83314819D01*
X173035714Y-83314819D02*
X173273809Y-83314819D01*
X173273809Y-83314819D02*
X173369047Y-83362438D01*
X173369047Y-83362438D02*
X173416666Y-83410057D01*
X173416666Y-83410057D02*
X173464285Y-83505295D01*
X173464285Y-83505295D02*
X173464285Y-83600533D01*
X173464285Y-83600533D02*
X173416666Y-83743390D01*
X173416666Y-83743390D02*
X172845238Y-84314819D01*
X172845238Y-84314819D02*
X173464285Y-84314819D01*
X174083333Y-83314819D02*
X174178571Y-83314819D01*
X174178571Y-83314819D02*
X174273809Y-83362438D01*
X174273809Y-83362438D02*
X174321428Y-83410057D01*
X174321428Y-83410057D02*
X174369047Y-83505295D01*
X174369047Y-83505295D02*
X174416666Y-83695771D01*
X174416666Y-83695771D02*
X174416666Y-83933866D01*
X174416666Y-83933866D02*
X174369047Y-84124342D01*
X174369047Y-84124342D02*
X174321428Y-84219580D01*
X174321428Y-84219580D02*
X174273809Y-84267200D01*
X174273809Y-84267200D02*
X174178571Y-84314819D01*
X174178571Y-84314819D02*
X174083333Y-84314819D01*
X174083333Y-84314819D02*
X173988095Y-84267200D01*
X173988095Y-84267200D02*
X173940476Y-84219580D01*
X173940476Y-84219580D02*
X173892857Y-84124342D01*
X173892857Y-84124342D02*
X173845238Y-83933866D01*
X173845238Y-83933866D02*
X173845238Y-83695771D01*
X173845238Y-83695771D02*
X173892857Y-83505295D01*
X173892857Y-83505295D02*
X173940476Y-83410057D01*
X173940476Y-83410057D02*
X173988095Y-83362438D01*
X173988095Y-83362438D02*
X174083333Y-83314819D01*
X175369047Y-84314819D02*
X174797619Y-84314819D01*
X175083333Y-84314819D02*
X175083333Y-83314819D01*
X175083333Y-83314819D02*
X174988095Y-83457676D01*
X174988095Y-83457676D02*
X174892857Y-83552914D01*
X174892857Y-83552914D02*
X174797619Y-83600533D01*
X146978628Y-98628571D02*
X147454819Y-98628571D01*
X146454819Y-98961904D02*
X146978628Y-98628571D01*
X146978628Y-98628571D02*
X146454819Y-98295238D01*
X147454819Y-97438095D02*
X147454819Y-98009523D01*
X147454819Y-97723809D02*
X146454819Y-97723809D01*
X146454819Y-97723809D02*
X146597676Y-97819047D01*
X146597676Y-97819047D02*
X146692914Y-97914285D01*
X146692914Y-97914285D02*
X146740533Y-98009523D01*
X146454819Y-96819047D02*
X146454819Y-96723809D01*
X146454819Y-96723809D02*
X146502438Y-96628571D01*
X146502438Y-96628571D02*
X146550057Y-96580952D01*
X146550057Y-96580952D02*
X146645295Y-96533333D01*
X146645295Y-96533333D02*
X146835771Y-96485714D01*
X146835771Y-96485714D02*
X147073866Y-96485714D01*
X147073866Y-96485714D02*
X147264342Y-96533333D01*
X147264342Y-96533333D02*
X147359580Y-96580952D01*
X147359580Y-96580952D02*
X147407200Y-96628571D01*
X147407200Y-96628571D02*
X147454819Y-96723809D01*
X147454819Y-96723809D02*
X147454819Y-96819047D01*
X147454819Y-96819047D02*
X147407200Y-96914285D01*
X147407200Y-96914285D02*
X147359580Y-96961904D01*
X147359580Y-96961904D02*
X147264342Y-97009523D01*
X147264342Y-97009523D02*
X147073866Y-97057142D01*
X147073866Y-97057142D02*
X146835771Y-97057142D01*
X146835771Y-97057142D02*
X146645295Y-97009523D01*
X146645295Y-97009523D02*
X146550057Y-96961904D01*
X146550057Y-96961904D02*
X146502438Y-96914285D01*
X146502438Y-96914285D02*
X146454819Y-96819047D01*
X147454819Y-95533333D02*
X147454819Y-96104761D01*
X147454819Y-95819047D02*
X146454819Y-95819047D01*
X146454819Y-95819047D02*
X146597676Y-95914285D01*
X146597676Y-95914285D02*
X146692914Y-96009523D01*
X146692914Y-96009523D02*
X146740533Y-96104761D01*
X176385714Y-88354819D02*
X176385714Y-89164342D01*
X176385714Y-89164342D02*
X176433333Y-89259580D01*
X176433333Y-89259580D02*
X176480952Y-89307200D01*
X176480952Y-89307200D02*
X176576190Y-89354819D01*
X176576190Y-89354819D02*
X176766666Y-89354819D01*
X176766666Y-89354819D02*
X176861904Y-89307200D01*
X176861904Y-89307200D02*
X176909523Y-89259580D01*
X176909523Y-89259580D02*
X176957142Y-89164342D01*
X176957142Y-89164342D02*
X176957142Y-88354819D01*
X177338095Y-88354819D02*
X177957142Y-88354819D01*
X177957142Y-88354819D02*
X177623809Y-88735771D01*
X177623809Y-88735771D02*
X177766666Y-88735771D01*
X177766666Y-88735771D02*
X177861904Y-88783390D01*
X177861904Y-88783390D02*
X177909523Y-88831009D01*
X177909523Y-88831009D02*
X177957142Y-88926247D01*
X177957142Y-88926247D02*
X177957142Y-89164342D01*
X177957142Y-89164342D02*
X177909523Y-89259580D01*
X177909523Y-89259580D02*
X177861904Y-89307200D01*
X177861904Y-89307200D02*
X177766666Y-89354819D01*
X177766666Y-89354819D02*
X177480952Y-89354819D01*
X177480952Y-89354819D02*
X177385714Y-89307200D01*
X177385714Y-89307200D02*
X177338095Y-89259580D01*
X178576190Y-88354819D02*
X178671428Y-88354819D01*
X178671428Y-88354819D02*
X178766666Y-88402438D01*
X178766666Y-88402438D02*
X178814285Y-88450057D01*
X178814285Y-88450057D02*
X178861904Y-88545295D01*
X178861904Y-88545295D02*
X178909523Y-88735771D01*
X178909523Y-88735771D02*
X178909523Y-88973866D01*
X178909523Y-88973866D02*
X178861904Y-89164342D01*
X178861904Y-89164342D02*
X178814285Y-89259580D01*
X178814285Y-89259580D02*
X178766666Y-89307200D01*
X178766666Y-89307200D02*
X178671428Y-89354819D01*
X178671428Y-89354819D02*
X178576190Y-89354819D01*
X178576190Y-89354819D02*
X178480952Y-89307200D01*
X178480952Y-89307200D02*
X178433333Y-89259580D01*
X178433333Y-89259580D02*
X178385714Y-89164342D01*
X178385714Y-89164342D02*
X178338095Y-88973866D01*
X178338095Y-88973866D02*
X178338095Y-88735771D01*
X178338095Y-88735771D02*
X178385714Y-88545295D01*
X178385714Y-88545295D02*
X178433333Y-88450057D01*
X178433333Y-88450057D02*
X178480952Y-88402438D01*
X178480952Y-88402438D02*
X178576190Y-88354819D01*
X179861904Y-89354819D02*
X179290476Y-89354819D01*
X179576190Y-89354819D02*
X179576190Y-88354819D01*
X179576190Y-88354819D02*
X179480952Y-88497676D01*
X179480952Y-88497676D02*
X179385714Y-88592914D01*
X179385714Y-88592914D02*
X179290476Y-88640533D01*
X168285714Y-86004819D02*
X168285714Y-86814342D01*
X168285714Y-86814342D02*
X168333333Y-86909580D01*
X168333333Y-86909580D02*
X168380952Y-86957200D01*
X168380952Y-86957200D02*
X168476190Y-87004819D01*
X168476190Y-87004819D02*
X168666666Y-87004819D01*
X168666666Y-87004819D02*
X168761904Y-86957200D01*
X168761904Y-86957200D02*
X168809523Y-86909580D01*
X168809523Y-86909580D02*
X168857142Y-86814342D01*
X168857142Y-86814342D02*
X168857142Y-86004819D01*
X169285714Y-86100057D02*
X169333333Y-86052438D01*
X169333333Y-86052438D02*
X169428571Y-86004819D01*
X169428571Y-86004819D02*
X169666666Y-86004819D01*
X169666666Y-86004819D02*
X169761904Y-86052438D01*
X169761904Y-86052438D02*
X169809523Y-86100057D01*
X169809523Y-86100057D02*
X169857142Y-86195295D01*
X169857142Y-86195295D02*
X169857142Y-86290533D01*
X169857142Y-86290533D02*
X169809523Y-86433390D01*
X169809523Y-86433390D02*
X169238095Y-87004819D01*
X169238095Y-87004819D02*
X169857142Y-87004819D01*
X170476190Y-86004819D02*
X170571428Y-86004819D01*
X170571428Y-86004819D02*
X170666666Y-86052438D01*
X170666666Y-86052438D02*
X170714285Y-86100057D01*
X170714285Y-86100057D02*
X170761904Y-86195295D01*
X170761904Y-86195295D02*
X170809523Y-86385771D01*
X170809523Y-86385771D02*
X170809523Y-86623866D01*
X170809523Y-86623866D02*
X170761904Y-86814342D01*
X170761904Y-86814342D02*
X170714285Y-86909580D01*
X170714285Y-86909580D02*
X170666666Y-86957200D01*
X170666666Y-86957200D02*
X170571428Y-87004819D01*
X170571428Y-87004819D02*
X170476190Y-87004819D01*
X170476190Y-87004819D02*
X170380952Y-86957200D01*
X170380952Y-86957200D02*
X170333333Y-86909580D01*
X170333333Y-86909580D02*
X170285714Y-86814342D01*
X170285714Y-86814342D02*
X170238095Y-86623866D01*
X170238095Y-86623866D02*
X170238095Y-86385771D01*
X170238095Y-86385771D02*
X170285714Y-86195295D01*
X170285714Y-86195295D02*
X170333333Y-86100057D01*
X170333333Y-86100057D02*
X170380952Y-86052438D01*
X170380952Y-86052438D02*
X170476190Y-86004819D01*
X171142857Y-86004819D02*
X171761904Y-86004819D01*
X171761904Y-86004819D02*
X171428571Y-86385771D01*
X171428571Y-86385771D02*
X171571428Y-86385771D01*
X171571428Y-86385771D02*
X171666666Y-86433390D01*
X171666666Y-86433390D02*
X171714285Y-86481009D01*
X171714285Y-86481009D02*
X171761904Y-86576247D01*
X171761904Y-86576247D02*
X171761904Y-86814342D01*
X171761904Y-86814342D02*
X171714285Y-86909580D01*
X171714285Y-86909580D02*
X171666666Y-86957200D01*
X171666666Y-86957200D02*
X171571428Y-87004819D01*
X171571428Y-87004819D02*
X171285714Y-87004819D01*
X171285714Y-87004819D02*
X171190476Y-86957200D01*
X171190476Y-86957200D02*
X171142857Y-86909580D01*
X157735714Y-91762319D02*
X157735714Y-92571842D01*
X157735714Y-92571842D02*
X157783333Y-92667080D01*
X157783333Y-92667080D02*
X157830952Y-92714700D01*
X157830952Y-92714700D02*
X157926190Y-92762319D01*
X157926190Y-92762319D02*
X158116666Y-92762319D01*
X158116666Y-92762319D02*
X158211904Y-92714700D01*
X158211904Y-92714700D02*
X158259523Y-92667080D01*
X158259523Y-92667080D02*
X158307142Y-92571842D01*
X158307142Y-92571842D02*
X158307142Y-91762319D01*
X159307142Y-92762319D02*
X158735714Y-92762319D01*
X159021428Y-92762319D02*
X159021428Y-91762319D01*
X159021428Y-91762319D02*
X158926190Y-91905176D01*
X158926190Y-91905176D02*
X158830952Y-92000414D01*
X158830952Y-92000414D02*
X158735714Y-92048033D01*
X159926190Y-91762319D02*
X160021428Y-91762319D01*
X160021428Y-91762319D02*
X160116666Y-91809938D01*
X160116666Y-91809938D02*
X160164285Y-91857557D01*
X160164285Y-91857557D02*
X160211904Y-91952795D01*
X160211904Y-91952795D02*
X160259523Y-92143271D01*
X160259523Y-92143271D02*
X160259523Y-92381366D01*
X160259523Y-92381366D02*
X160211904Y-92571842D01*
X160211904Y-92571842D02*
X160164285Y-92667080D01*
X160164285Y-92667080D02*
X160116666Y-92714700D01*
X160116666Y-92714700D02*
X160021428Y-92762319D01*
X160021428Y-92762319D02*
X159926190Y-92762319D01*
X159926190Y-92762319D02*
X159830952Y-92714700D01*
X159830952Y-92714700D02*
X159783333Y-92667080D01*
X159783333Y-92667080D02*
X159735714Y-92571842D01*
X159735714Y-92571842D02*
X159688095Y-92381366D01*
X159688095Y-92381366D02*
X159688095Y-92143271D01*
X159688095Y-92143271D02*
X159735714Y-91952795D01*
X159735714Y-91952795D02*
X159783333Y-91857557D01*
X159783333Y-91857557D02*
X159830952Y-91809938D01*
X159830952Y-91809938D02*
X159926190Y-91762319D01*
X161211904Y-92762319D02*
X160640476Y-92762319D01*
X160926190Y-92762319D02*
X160926190Y-91762319D01*
X160926190Y-91762319D02*
X160830952Y-91905176D01*
X160830952Y-91905176D02*
X160735714Y-92000414D01*
X160735714Y-92000414D02*
X160640476Y-92048033D01*
X163613452Y-80684819D02*
X163280119Y-80208628D01*
X163042024Y-80684819D02*
X163042024Y-79684819D01*
X163042024Y-79684819D02*
X163422976Y-79684819D01*
X163422976Y-79684819D02*
X163518214Y-79732438D01*
X163518214Y-79732438D02*
X163565833Y-79780057D01*
X163565833Y-79780057D02*
X163613452Y-79875295D01*
X163613452Y-79875295D02*
X163613452Y-80018152D01*
X163613452Y-80018152D02*
X163565833Y-80113390D01*
X163565833Y-80113390D02*
X163518214Y-80161009D01*
X163518214Y-80161009D02*
X163422976Y-80208628D01*
X163422976Y-80208628D02*
X163042024Y-80208628D01*
X163946786Y-79684819D02*
X164565833Y-79684819D01*
X164565833Y-79684819D02*
X164232500Y-80065771D01*
X164232500Y-80065771D02*
X164375357Y-80065771D01*
X164375357Y-80065771D02*
X164470595Y-80113390D01*
X164470595Y-80113390D02*
X164518214Y-80161009D01*
X164518214Y-80161009D02*
X164565833Y-80256247D01*
X164565833Y-80256247D02*
X164565833Y-80494342D01*
X164565833Y-80494342D02*
X164518214Y-80589580D01*
X164518214Y-80589580D02*
X164470595Y-80637200D01*
X164470595Y-80637200D02*
X164375357Y-80684819D01*
X164375357Y-80684819D02*
X164089643Y-80684819D01*
X164089643Y-80684819D02*
X163994405Y-80637200D01*
X163994405Y-80637200D02*
X163946786Y-80589580D01*
X165184881Y-79684819D02*
X165280119Y-79684819D01*
X165280119Y-79684819D02*
X165375357Y-79732438D01*
X165375357Y-79732438D02*
X165422976Y-79780057D01*
X165422976Y-79780057D02*
X165470595Y-79875295D01*
X165470595Y-79875295D02*
X165518214Y-80065771D01*
X165518214Y-80065771D02*
X165518214Y-80303866D01*
X165518214Y-80303866D02*
X165470595Y-80494342D01*
X165470595Y-80494342D02*
X165422976Y-80589580D01*
X165422976Y-80589580D02*
X165375357Y-80637200D01*
X165375357Y-80637200D02*
X165280119Y-80684819D01*
X165280119Y-80684819D02*
X165184881Y-80684819D01*
X165184881Y-80684819D02*
X165089643Y-80637200D01*
X165089643Y-80637200D02*
X165042024Y-80589580D01*
X165042024Y-80589580D02*
X164994405Y-80494342D01*
X164994405Y-80494342D02*
X164946786Y-80303866D01*
X164946786Y-80303866D02*
X164946786Y-80065771D01*
X164946786Y-80065771D02*
X164994405Y-79875295D01*
X164994405Y-79875295D02*
X165042024Y-79780057D01*
X165042024Y-79780057D02*
X165089643Y-79732438D01*
X165089643Y-79732438D02*
X165184881Y-79684819D01*
X166375357Y-79684819D02*
X166184881Y-79684819D01*
X166184881Y-79684819D02*
X166089643Y-79732438D01*
X166089643Y-79732438D02*
X166042024Y-79780057D01*
X166042024Y-79780057D02*
X165946786Y-79922914D01*
X165946786Y-79922914D02*
X165899167Y-80113390D01*
X165899167Y-80113390D02*
X165899167Y-80494342D01*
X165899167Y-80494342D02*
X165946786Y-80589580D01*
X165946786Y-80589580D02*
X165994405Y-80637200D01*
X165994405Y-80637200D02*
X166089643Y-80684819D01*
X166089643Y-80684819D02*
X166280119Y-80684819D01*
X166280119Y-80684819D02*
X166375357Y-80637200D01*
X166375357Y-80637200D02*
X166422976Y-80589580D01*
X166422976Y-80589580D02*
X166470595Y-80494342D01*
X166470595Y-80494342D02*
X166470595Y-80256247D01*
X166470595Y-80256247D02*
X166422976Y-80161009D01*
X166422976Y-80161009D02*
X166375357Y-80113390D01*
X166375357Y-80113390D02*
X166280119Y-80065771D01*
X166280119Y-80065771D02*
X166089643Y-80065771D01*
X166089643Y-80065771D02*
X165994405Y-80113390D01*
X165994405Y-80113390D02*
X165946786Y-80161009D01*
X165946786Y-80161009D02*
X165899167Y-80256247D01*
X161124819Y-83909047D02*
X160648628Y-84242380D01*
X161124819Y-84480475D02*
X160124819Y-84480475D01*
X160124819Y-84480475D02*
X160124819Y-84099523D01*
X160124819Y-84099523D02*
X160172438Y-84004285D01*
X160172438Y-84004285D02*
X160220057Y-83956666D01*
X160220057Y-83956666D02*
X160315295Y-83909047D01*
X160315295Y-83909047D02*
X160458152Y-83909047D01*
X160458152Y-83909047D02*
X160553390Y-83956666D01*
X160553390Y-83956666D02*
X160601009Y-84004285D01*
X160601009Y-84004285D02*
X160648628Y-84099523D01*
X160648628Y-84099523D02*
X160648628Y-84480475D01*
X160124819Y-83575713D02*
X160124819Y-82956666D01*
X160124819Y-82956666D02*
X160505771Y-83289999D01*
X160505771Y-83289999D02*
X160505771Y-83147142D01*
X160505771Y-83147142D02*
X160553390Y-83051904D01*
X160553390Y-83051904D02*
X160601009Y-83004285D01*
X160601009Y-83004285D02*
X160696247Y-82956666D01*
X160696247Y-82956666D02*
X160934342Y-82956666D01*
X160934342Y-82956666D02*
X161029580Y-83004285D01*
X161029580Y-83004285D02*
X161077200Y-83051904D01*
X161077200Y-83051904D02*
X161124819Y-83147142D01*
X161124819Y-83147142D02*
X161124819Y-83432856D01*
X161124819Y-83432856D02*
X161077200Y-83528094D01*
X161077200Y-83528094D02*
X161029580Y-83575713D01*
X160124819Y-82337618D02*
X160124819Y-82242380D01*
X160124819Y-82242380D02*
X160172438Y-82147142D01*
X160172438Y-82147142D02*
X160220057Y-82099523D01*
X160220057Y-82099523D02*
X160315295Y-82051904D01*
X160315295Y-82051904D02*
X160505771Y-82004285D01*
X160505771Y-82004285D02*
X160743866Y-82004285D01*
X160743866Y-82004285D02*
X160934342Y-82051904D01*
X160934342Y-82051904D02*
X161029580Y-82099523D01*
X161029580Y-82099523D02*
X161077200Y-82147142D01*
X161077200Y-82147142D02*
X161124819Y-82242380D01*
X161124819Y-82242380D02*
X161124819Y-82337618D01*
X161124819Y-82337618D02*
X161077200Y-82432856D01*
X161077200Y-82432856D02*
X161029580Y-82480475D01*
X161029580Y-82480475D02*
X160934342Y-82528094D01*
X160934342Y-82528094D02*
X160743866Y-82575713D01*
X160743866Y-82575713D02*
X160505771Y-82575713D01*
X160505771Y-82575713D02*
X160315295Y-82528094D01*
X160315295Y-82528094D02*
X160220057Y-82480475D01*
X160220057Y-82480475D02*
X160172438Y-82432856D01*
X160172438Y-82432856D02*
X160124819Y-82337618D01*
X160124819Y-81099523D02*
X160124819Y-81575713D01*
X160124819Y-81575713D02*
X160601009Y-81623332D01*
X160601009Y-81623332D02*
X160553390Y-81575713D01*
X160553390Y-81575713D02*
X160505771Y-81480475D01*
X160505771Y-81480475D02*
X160505771Y-81242380D01*
X160505771Y-81242380D02*
X160553390Y-81147142D01*
X160553390Y-81147142D02*
X160601009Y-81099523D01*
X160601009Y-81099523D02*
X160696247Y-81051904D01*
X160696247Y-81051904D02*
X160934342Y-81051904D01*
X160934342Y-81051904D02*
X161029580Y-81099523D01*
X161029580Y-81099523D02*
X161077200Y-81147142D01*
X161077200Y-81147142D02*
X161124819Y-81242380D01*
X161124819Y-81242380D02*
X161124819Y-81480475D01*
X161124819Y-81480475D02*
X161077200Y-81575713D01*
X161077200Y-81575713D02*
X161029580Y-81623332D01*
X160924819Y-79879047D02*
X160448628Y-80212380D01*
X160924819Y-80450475D02*
X159924819Y-80450475D01*
X159924819Y-80450475D02*
X159924819Y-80069523D01*
X159924819Y-80069523D02*
X159972438Y-79974285D01*
X159972438Y-79974285D02*
X160020057Y-79926666D01*
X160020057Y-79926666D02*
X160115295Y-79879047D01*
X160115295Y-79879047D02*
X160258152Y-79879047D01*
X160258152Y-79879047D02*
X160353390Y-79926666D01*
X160353390Y-79926666D02*
X160401009Y-79974285D01*
X160401009Y-79974285D02*
X160448628Y-80069523D01*
X160448628Y-80069523D02*
X160448628Y-80450475D01*
X159924819Y-79545713D02*
X159924819Y-78926666D01*
X159924819Y-78926666D02*
X160305771Y-79259999D01*
X160305771Y-79259999D02*
X160305771Y-79117142D01*
X160305771Y-79117142D02*
X160353390Y-79021904D01*
X160353390Y-79021904D02*
X160401009Y-78974285D01*
X160401009Y-78974285D02*
X160496247Y-78926666D01*
X160496247Y-78926666D02*
X160734342Y-78926666D01*
X160734342Y-78926666D02*
X160829580Y-78974285D01*
X160829580Y-78974285D02*
X160877200Y-79021904D01*
X160877200Y-79021904D02*
X160924819Y-79117142D01*
X160924819Y-79117142D02*
X160924819Y-79402856D01*
X160924819Y-79402856D02*
X160877200Y-79498094D01*
X160877200Y-79498094D02*
X160829580Y-79545713D01*
X159924819Y-78307618D02*
X159924819Y-78212380D01*
X159924819Y-78212380D02*
X159972438Y-78117142D01*
X159972438Y-78117142D02*
X160020057Y-78069523D01*
X160020057Y-78069523D02*
X160115295Y-78021904D01*
X160115295Y-78021904D02*
X160305771Y-77974285D01*
X160305771Y-77974285D02*
X160543866Y-77974285D01*
X160543866Y-77974285D02*
X160734342Y-78021904D01*
X160734342Y-78021904D02*
X160829580Y-78069523D01*
X160829580Y-78069523D02*
X160877200Y-78117142D01*
X160877200Y-78117142D02*
X160924819Y-78212380D01*
X160924819Y-78212380D02*
X160924819Y-78307618D01*
X160924819Y-78307618D02*
X160877200Y-78402856D01*
X160877200Y-78402856D02*
X160829580Y-78450475D01*
X160829580Y-78450475D02*
X160734342Y-78498094D01*
X160734342Y-78498094D02*
X160543866Y-78545713D01*
X160543866Y-78545713D02*
X160305771Y-78545713D01*
X160305771Y-78545713D02*
X160115295Y-78498094D01*
X160115295Y-78498094D02*
X160020057Y-78450475D01*
X160020057Y-78450475D02*
X159972438Y-78402856D01*
X159972438Y-78402856D02*
X159924819Y-78307618D01*
X160258152Y-77117142D02*
X160924819Y-77117142D01*
X159877200Y-77355237D02*
X160591485Y-77593332D01*
X160591485Y-77593332D02*
X160591485Y-76974285D01*
X164084819Y-74019047D02*
X163608628Y-74352380D01*
X164084819Y-74590475D02*
X163084819Y-74590475D01*
X163084819Y-74590475D02*
X163084819Y-74209523D01*
X163084819Y-74209523D02*
X163132438Y-74114285D01*
X163132438Y-74114285D02*
X163180057Y-74066666D01*
X163180057Y-74066666D02*
X163275295Y-74019047D01*
X163275295Y-74019047D02*
X163418152Y-74019047D01*
X163418152Y-74019047D02*
X163513390Y-74066666D01*
X163513390Y-74066666D02*
X163561009Y-74114285D01*
X163561009Y-74114285D02*
X163608628Y-74209523D01*
X163608628Y-74209523D02*
X163608628Y-74590475D01*
X163084819Y-73685713D02*
X163084819Y-73066666D01*
X163084819Y-73066666D02*
X163465771Y-73399999D01*
X163465771Y-73399999D02*
X163465771Y-73257142D01*
X163465771Y-73257142D02*
X163513390Y-73161904D01*
X163513390Y-73161904D02*
X163561009Y-73114285D01*
X163561009Y-73114285D02*
X163656247Y-73066666D01*
X163656247Y-73066666D02*
X163894342Y-73066666D01*
X163894342Y-73066666D02*
X163989580Y-73114285D01*
X163989580Y-73114285D02*
X164037200Y-73161904D01*
X164037200Y-73161904D02*
X164084819Y-73257142D01*
X164084819Y-73257142D02*
X164084819Y-73542856D01*
X164084819Y-73542856D02*
X164037200Y-73638094D01*
X164037200Y-73638094D02*
X163989580Y-73685713D01*
X163084819Y-72447618D02*
X163084819Y-72352380D01*
X163084819Y-72352380D02*
X163132438Y-72257142D01*
X163132438Y-72257142D02*
X163180057Y-72209523D01*
X163180057Y-72209523D02*
X163275295Y-72161904D01*
X163275295Y-72161904D02*
X163465771Y-72114285D01*
X163465771Y-72114285D02*
X163703866Y-72114285D01*
X163703866Y-72114285D02*
X163894342Y-72161904D01*
X163894342Y-72161904D02*
X163989580Y-72209523D01*
X163989580Y-72209523D02*
X164037200Y-72257142D01*
X164037200Y-72257142D02*
X164084819Y-72352380D01*
X164084819Y-72352380D02*
X164084819Y-72447618D01*
X164084819Y-72447618D02*
X164037200Y-72542856D01*
X164037200Y-72542856D02*
X163989580Y-72590475D01*
X163989580Y-72590475D02*
X163894342Y-72638094D01*
X163894342Y-72638094D02*
X163703866Y-72685713D01*
X163703866Y-72685713D02*
X163465771Y-72685713D01*
X163465771Y-72685713D02*
X163275295Y-72638094D01*
X163275295Y-72638094D02*
X163180057Y-72590475D01*
X163180057Y-72590475D02*
X163132438Y-72542856D01*
X163132438Y-72542856D02*
X163084819Y-72447618D01*
X163084819Y-71780951D02*
X163084819Y-71161904D01*
X163084819Y-71161904D02*
X163465771Y-71495237D01*
X163465771Y-71495237D02*
X163465771Y-71352380D01*
X163465771Y-71352380D02*
X163513390Y-71257142D01*
X163513390Y-71257142D02*
X163561009Y-71209523D01*
X163561009Y-71209523D02*
X163656247Y-71161904D01*
X163656247Y-71161904D02*
X163894342Y-71161904D01*
X163894342Y-71161904D02*
X163989580Y-71209523D01*
X163989580Y-71209523D02*
X164037200Y-71257142D01*
X164037200Y-71257142D02*
X164084819Y-71352380D01*
X164084819Y-71352380D02*
X164084819Y-71638094D01*
X164084819Y-71638094D02*
X164037200Y-71733332D01*
X164037200Y-71733332D02*
X163989580Y-71780951D01*
X171380952Y-81654819D02*
X171047619Y-81178628D01*
X170809524Y-81654819D02*
X170809524Y-80654819D01*
X170809524Y-80654819D02*
X171190476Y-80654819D01*
X171190476Y-80654819D02*
X171285714Y-80702438D01*
X171285714Y-80702438D02*
X171333333Y-80750057D01*
X171333333Y-80750057D02*
X171380952Y-80845295D01*
X171380952Y-80845295D02*
X171380952Y-80988152D01*
X171380952Y-80988152D02*
X171333333Y-81083390D01*
X171333333Y-81083390D02*
X171285714Y-81131009D01*
X171285714Y-81131009D02*
X171190476Y-81178628D01*
X171190476Y-81178628D02*
X170809524Y-81178628D01*
X171714286Y-80654819D02*
X172333333Y-80654819D01*
X172333333Y-80654819D02*
X172000000Y-81035771D01*
X172000000Y-81035771D02*
X172142857Y-81035771D01*
X172142857Y-81035771D02*
X172238095Y-81083390D01*
X172238095Y-81083390D02*
X172285714Y-81131009D01*
X172285714Y-81131009D02*
X172333333Y-81226247D01*
X172333333Y-81226247D02*
X172333333Y-81464342D01*
X172333333Y-81464342D02*
X172285714Y-81559580D01*
X172285714Y-81559580D02*
X172238095Y-81607200D01*
X172238095Y-81607200D02*
X172142857Y-81654819D01*
X172142857Y-81654819D02*
X171857143Y-81654819D01*
X171857143Y-81654819D02*
X171761905Y-81607200D01*
X171761905Y-81607200D02*
X171714286Y-81559580D01*
X172952381Y-80654819D02*
X173047619Y-80654819D01*
X173047619Y-80654819D02*
X173142857Y-80702438D01*
X173142857Y-80702438D02*
X173190476Y-80750057D01*
X173190476Y-80750057D02*
X173238095Y-80845295D01*
X173238095Y-80845295D02*
X173285714Y-81035771D01*
X173285714Y-81035771D02*
X173285714Y-81273866D01*
X173285714Y-81273866D02*
X173238095Y-81464342D01*
X173238095Y-81464342D02*
X173190476Y-81559580D01*
X173190476Y-81559580D02*
X173142857Y-81607200D01*
X173142857Y-81607200D02*
X173047619Y-81654819D01*
X173047619Y-81654819D02*
X172952381Y-81654819D01*
X172952381Y-81654819D02*
X172857143Y-81607200D01*
X172857143Y-81607200D02*
X172809524Y-81559580D01*
X172809524Y-81559580D02*
X172761905Y-81464342D01*
X172761905Y-81464342D02*
X172714286Y-81273866D01*
X172714286Y-81273866D02*
X172714286Y-81035771D01*
X172714286Y-81035771D02*
X172761905Y-80845295D01*
X172761905Y-80845295D02*
X172809524Y-80750057D01*
X172809524Y-80750057D02*
X172857143Y-80702438D01*
X172857143Y-80702438D02*
X172952381Y-80654819D01*
X173666667Y-80750057D02*
X173714286Y-80702438D01*
X173714286Y-80702438D02*
X173809524Y-80654819D01*
X173809524Y-80654819D02*
X174047619Y-80654819D01*
X174047619Y-80654819D02*
X174142857Y-80702438D01*
X174142857Y-80702438D02*
X174190476Y-80750057D01*
X174190476Y-80750057D02*
X174238095Y-80845295D01*
X174238095Y-80845295D02*
X174238095Y-80940533D01*
X174238095Y-80940533D02*
X174190476Y-81083390D01*
X174190476Y-81083390D02*
X173619048Y-81654819D01*
X173619048Y-81654819D02*
X174238095Y-81654819D01*
X166280952Y-73354819D02*
X165947619Y-72878628D01*
X165709524Y-73354819D02*
X165709524Y-72354819D01*
X165709524Y-72354819D02*
X166090476Y-72354819D01*
X166090476Y-72354819D02*
X166185714Y-72402438D01*
X166185714Y-72402438D02*
X166233333Y-72450057D01*
X166233333Y-72450057D02*
X166280952Y-72545295D01*
X166280952Y-72545295D02*
X166280952Y-72688152D01*
X166280952Y-72688152D02*
X166233333Y-72783390D01*
X166233333Y-72783390D02*
X166185714Y-72831009D01*
X166185714Y-72831009D02*
X166090476Y-72878628D01*
X166090476Y-72878628D02*
X165709524Y-72878628D01*
X166614286Y-72354819D02*
X167233333Y-72354819D01*
X167233333Y-72354819D02*
X166900000Y-72735771D01*
X166900000Y-72735771D02*
X167042857Y-72735771D01*
X167042857Y-72735771D02*
X167138095Y-72783390D01*
X167138095Y-72783390D02*
X167185714Y-72831009D01*
X167185714Y-72831009D02*
X167233333Y-72926247D01*
X167233333Y-72926247D02*
X167233333Y-73164342D01*
X167233333Y-73164342D02*
X167185714Y-73259580D01*
X167185714Y-73259580D02*
X167138095Y-73307200D01*
X167138095Y-73307200D02*
X167042857Y-73354819D01*
X167042857Y-73354819D02*
X166757143Y-73354819D01*
X166757143Y-73354819D02*
X166661905Y-73307200D01*
X166661905Y-73307200D02*
X166614286Y-73259580D01*
X167852381Y-72354819D02*
X167947619Y-72354819D01*
X167947619Y-72354819D02*
X168042857Y-72402438D01*
X168042857Y-72402438D02*
X168090476Y-72450057D01*
X168090476Y-72450057D02*
X168138095Y-72545295D01*
X168138095Y-72545295D02*
X168185714Y-72735771D01*
X168185714Y-72735771D02*
X168185714Y-72973866D01*
X168185714Y-72973866D02*
X168138095Y-73164342D01*
X168138095Y-73164342D02*
X168090476Y-73259580D01*
X168090476Y-73259580D02*
X168042857Y-73307200D01*
X168042857Y-73307200D02*
X167947619Y-73354819D01*
X167947619Y-73354819D02*
X167852381Y-73354819D01*
X167852381Y-73354819D02*
X167757143Y-73307200D01*
X167757143Y-73307200D02*
X167709524Y-73259580D01*
X167709524Y-73259580D02*
X167661905Y-73164342D01*
X167661905Y-73164342D02*
X167614286Y-72973866D01*
X167614286Y-72973866D02*
X167614286Y-72735771D01*
X167614286Y-72735771D02*
X167661905Y-72545295D01*
X167661905Y-72545295D02*
X167709524Y-72450057D01*
X167709524Y-72450057D02*
X167757143Y-72402438D01*
X167757143Y-72402438D02*
X167852381Y-72354819D01*
X169138095Y-73354819D02*
X168566667Y-73354819D01*
X168852381Y-73354819D02*
X168852381Y-72354819D01*
X168852381Y-72354819D02*
X168757143Y-72497676D01*
X168757143Y-72497676D02*
X168661905Y-72592914D01*
X168661905Y-72592914D02*
X168566667Y-72640533D01*
X167978452Y-84274819D02*
X167645119Y-83798628D01*
X167407024Y-84274819D02*
X167407024Y-83274819D01*
X167407024Y-83274819D02*
X167787976Y-83274819D01*
X167787976Y-83274819D02*
X167883214Y-83322438D01*
X167883214Y-83322438D02*
X167930833Y-83370057D01*
X167930833Y-83370057D02*
X167978452Y-83465295D01*
X167978452Y-83465295D02*
X167978452Y-83608152D01*
X167978452Y-83608152D02*
X167930833Y-83703390D01*
X167930833Y-83703390D02*
X167883214Y-83751009D01*
X167883214Y-83751009D02*
X167787976Y-83798628D01*
X167787976Y-83798628D02*
X167407024Y-83798628D01*
X168359405Y-83370057D02*
X168407024Y-83322438D01*
X168407024Y-83322438D02*
X168502262Y-83274819D01*
X168502262Y-83274819D02*
X168740357Y-83274819D01*
X168740357Y-83274819D02*
X168835595Y-83322438D01*
X168835595Y-83322438D02*
X168883214Y-83370057D01*
X168883214Y-83370057D02*
X168930833Y-83465295D01*
X168930833Y-83465295D02*
X168930833Y-83560533D01*
X168930833Y-83560533D02*
X168883214Y-83703390D01*
X168883214Y-83703390D02*
X168311786Y-84274819D01*
X168311786Y-84274819D02*
X168930833Y-84274819D01*
X169549881Y-83274819D02*
X169645119Y-83274819D01*
X169645119Y-83274819D02*
X169740357Y-83322438D01*
X169740357Y-83322438D02*
X169787976Y-83370057D01*
X169787976Y-83370057D02*
X169835595Y-83465295D01*
X169835595Y-83465295D02*
X169883214Y-83655771D01*
X169883214Y-83655771D02*
X169883214Y-83893866D01*
X169883214Y-83893866D02*
X169835595Y-84084342D01*
X169835595Y-84084342D02*
X169787976Y-84179580D01*
X169787976Y-84179580D02*
X169740357Y-84227200D01*
X169740357Y-84227200D02*
X169645119Y-84274819D01*
X169645119Y-84274819D02*
X169549881Y-84274819D01*
X169549881Y-84274819D02*
X169454643Y-84227200D01*
X169454643Y-84227200D02*
X169407024Y-84179580D01*
X169407024Y-84179580D02*
X169359405Y-84084342D01*
X169359405Y-84084342D02*
X169311786Y-83893866D01*
X169311786Y-83893866D02*
X169311786Y-83655771D01*
X169311786Y-83655771D02*
X169359405Y-83465295D01*
X169359405Y-83465295D02*
X169407024Y-83370057D01*
X169407024Y-83370057D02*
X169454643Y-83322438D01*
X169454643Y-83322438D02*
X169549881Y-83274819D01*
X170264167Y-83370057D02*
X170311786Y-83322438D01*
X170311786Y-83322438D02*
X170407024Y-83274819D01*
X170407024Y-83274819D02*
X170645119Y-83274819D01*
X170645119Y-83274819D02*
X170740357Y-83322438D01*
X170740357Y-83322438D02*
X170787976Y-83370057D01*
X170787976Y-83370057D02*
X170835595Y-83465295D01*
X170835595Y-83465295D02*
X170835595Y-83560533D01*
X170835595Y-83560533D02*
X170787976Y-83703390D01*
X170787976Y-83703390D02*
X170216548Y-84274819D01*
X170216548Y-84274819D02*
X170835595Y-84274819D01*
X161980952Y-87354819D02*
X161647619Y-86878628D01*
X161409524Y-87354819D02*
X161409524Y-86354819D01*
X161409524Y-86354819D02*
X161790476Y-86354819D01*
X161790476Y-86354819D02*
X161885714Y-86402438D01*
X161885714Y-86402438D02*
X161933333Y-86450057D01*
X161933333Y-86450057D02*
X161980952Y-86545295D01*
X161980952Y-86545295D02*
X161980952Y-86688152D01*
X161980952Y-86688152D02*
X161933333Y-86783390D01*
X161933333Y-86783390D02*
X161885714Y-86831009D01*
X161885714Y-86831009D02*
X161790476Y-86878628D01*
X161790476Y-86878628D02*
X161409524Y-86878628D01*
X162361905Y-86450057D02*
X162409524Y-86402438D01*
X162409524Y-86402438D02*
X162504762Y-86354819D01*
X162504762Y-86354819D02*
X162742857Y-86354819D01*
X162742857Y-86354819D02*
X162838095Y-86402438D01*
X162838095Y-86402438D02*
X162885714Y-86450057D01*
X162885714Y-86450057D02*
X162933333Y-86545295D01*
X162933333Y-86545295D02*
X162933333Y-86640533D01*
X162933333Y-86640533D02*
X162885714Y-86783390D01*
X162885714Y-86783390D02*
X162314286Y-87354819D01*
X162314286Y-87354819D02*
X162933333Y-87354819D01*
X163552381Y-86354819D02*
X163647619Y-86354819D01*
X163647619Y-86354819D02*
X163742857Y-86402438D01*
X163742857Y-86402438D02*
X163790476Y-86450057D01*
X163790476Y-86450057D02*
X163838095Y-86545295D01*
X163838095Y-86545295D02*
X163885714Y-86735771D01*
X163885714Y-86735771D02*
X163885714Y-86973866D01*
X163885714Y-86973866D02*
X163838095Y-87164342D01*
X163838095Y-87164342D02*
X163790476Y-87259580D01*
X163790476Y-87259580D02*
X163742857Y-87307200D01*
X163742857Y-87307200D02*
X163647619Y-87354819D01*
X163647619Y-87354819D02*
X163552381Y-87354819D01*
X163552381Y-87354819D02*
X163457143Y-87307200D01*
X163457143Y-87307200D02*
X163409524Y-87259580D01*
X163409524Y-87259580D02*
X163361905Y-87164342D01*
X163361905Y-87164342D02*
X163314286Y-86973866D01*
X163314286Y-86973866D02*
X163314286Y-86735771D01*
X163314286Y-86735771D02*
X163361905Y-86545295D01*
X163361905Y-86545295D02*
X163409524Y-86450057D01*
X163409524Y-86450057D02*
X163457143Y-86402438D01*
X163457143Y-86402438D02*
X163552381Y-86354819D01*
X164838095Y-87354819D02*
X164266667Y-87354819D01*
X164552381Y-87354819D02*
X164552381Y-86354819D01*
X164552381Y-86354819D02*
X164457143Y-86497676D01*
X164457143Y-86497676D02*
X164361905Y-86592914D01*
X164361905Y-86592914D02*
X164266667Y-86640533D01*
X149980952Y-101054819D02*
X149647619Y-100578628D01*
X149409524Y-101054819D02*
X149409524Y-100054819D01*
X149409524Y-100054819D02*
X149790476Y-100054819D01*
X149790476Y-100054819D02*
X149885714Y-100102438D01*
X149885714Y-100102438D02*
X149933333Y-100150057D01*
X149933333Y-100150057D02*
X149980952Y-100245295D01*
X149980952Y-100245295D02*
X149980952Y-100388152D01*
X149980952Y-100388152D02*
X149933333Y-100483390D01*
X149933333Y-100483390D02*
X149885714Y-100531009D01*
X149885714Y-100531009D02*
X149790476Y-100578628D01*
X149790476Y-100578628D02*
X149409524Y-100578628D01*
X150933333Y-101054819D02*
X150361905Y-101054819D01*
X150647619Y-101054819D02*
X150647619Y-100054819D01*
X150647619Y-100054819D02*
X150552381Y-100197676D01*
X150552381Y-100197676D02*
X150457143Y-100292914D01*
X150457143Y-100292914D02*
X150361905Y-100340533D01*
X151552381Y-100054819D02*
X151647619Y-100054819D01*
X151647619Y-100054819D02*
X151742857Y-100102438D01*
X151742857Y-100102438D02*
X151790476Y-100150057D01*
X151790476Y-100150057D02*
X151838095Y-100245295D01*
X151838095Y-100245295D02*
X151885714Y-100435771D01*
X151885714Y-100435771D02*
X151885714Y-100673866D01*
X151885714Y-100673866D02*
X151838095Y-100864342D01*
X151838095Y-100864342D02*
X151790476Y-100959580D01*
X151790476Y-100959580D02*
X151742857Y-101007200D01*
X151742857Y-101007200D02*
X151647619Y-101054819D01*
X151647619Y-101054819D02*
X151552381Y-101054819D01*
X151552381Y-101054819D02*
X151457143Y-101007200D01*
X151457143Y-101007200D02*
X151409524Y-100959580D01*
X151409524Y-100959580D02*
X151361905Y-100864342D01*
X151361905Y-100864342D02*
X151314286Y-100673866D01*
X151314286Y-100673866D02*
X151314286Y-100435771D01*
X151314286Y-100435771D02*
X151361905Y-100245295D01*
X151361905Y-100245295D02*
X151409524Y-100150057D01*
X151409524Y-100150057D02*
X151457143Y-100102438D01*
X151457143Y-100102438D02*
X151552381Y-100054819D01*
X152266667Y-100150057D02*
X152314286Y-100102438D01*
X152314286Y-100102438D02*
X152409524Y-100054819D01*
X152409524Y-100054819D02*
X152647619Y-100054819D01*
X152647619Y-100054819D02*
X152742857Y-100102438D01*
X152742857Y-100102438D02*
X152790476Y-100150057D01*
X152790476Y-100150057D02*
X152838095Y-100245295D01*
X152838095Y-100245295D02*
X152838095Y-100340533D01*
X152838095Y-100340533D02*
X152790476Y-100483390D01*
X152790476Y-100483390D02*
X152219048Y-101054819D01*
X152219048Y-101054819D02*
X152838095Y-101054819D01*
X171980952Y-61354819D02*
X171647619Y-60878628D01*
X171409524Y-61354819D02*
X171409524Y-60354819D01*
X171409524Y-60354819D02*
X171790476Y-60354819D01*
X171790476Y-60354819D02*
X171885714Y-60402438D01*
X171885714Y-60402438D02*
X171933333Y-60450057D01*
X171933333Y-60450057D02*
X171980952Y-60545295D01*
X171980952Y-60545295D02*
X171980952Y-60688152D01*
X171980952Y-60688152D02*
X171933333Y-60783390D01*
X171933333Y-60783390D02*
X171885714Y-60831009D01*
X171885714Y-60831009D02*
X171790476Y-60878628D01*
X171790476Y-60878628D02*
X171409524Y-60878628D01*
X172933333Y-61354819D02*
X172361905Y-61354819D01*
X172647619Y-61354819D02*
X172647619Y-60354819D01*
X172647619Y-60354819D02*
X172552381Y-60497676D01*
X172552381Y-60497676D02*
X172457143Y-60592914D01*
X172457143Y-60592914D02*
X172361905Y-60640533D01*
X173552381Y-60354819D02*
X173647619Y-60354819D01*
X173647619Y-60354819D02*
X173742857Y-60402438D01*
X173742857Y-60402438D02*
X173790476Y-60450057D01*
X173790476Y-60450057D02*
X173838095Y-60545295D01*
X173838095Y-60545295D02*
X173885714Y-60735771D01*
X173885714Y-60735771D02*
X173885714Y-60973866D01*
X173885714Y-60973866D02*
X173838095Y-61164342D01*
X173838095Y-61164342D02*
X173790476Y-61259580D01*
X173790476Y-61259580D02*
X173742857Y-61307200D01*
X173742857Y-61307200D02*
X173647619Y-61354819D01*
X173647619Y-61354819D02*
X173552381Y-61354819D01*
X173552381Y-61354819D02*
X173457143Y-61307200D01*
X173457143Y-61307200D02*
X173409524Y-61259580D01*
X173409524Y-61259580D02*
X173361905Y-61164342D01*
X173361905Y-61164342D02*
X173314286Y-60973866D01*
X173314286Y-60973866D02*
X173314286Y-60735771D01*
X173314286Y-60735771D02*
X173361905Y-60545295D01*
X173361905Y-60545295D02*
X173409524Y-60450057D01*
X173409524Y-60450057D02*
X173457143Y-60402438D01*
X173457143Y-60402438D02*
X173552381Y-60354819D01*
X174838095Y-61354819D02*
X174266667Y-61354819D01*
X174552381Y-61354819D02*
X174552381Y-60354819D01*
X174552381Y-60354819D02*
X174457143Y-60497676D01*
X174457143Y-60497676D02*
X174361905Y-60592914D01*
X174361905Y-60592914D02*
X174266667Y-60640533D01*
X169245952Y-71992319D02*
X168769762Y-71992319D01*
X168769762Y-71992319D02*
X168769762Y-70992319D01*
X169484048Y-70992319D02*
X170103095Y-70992319D01*
X170103095Y-70992319D02*
X169769762Y-71373271D01*
X169769762Y-71373271D02*
X169912619Y-71373271D01*
X169912619Y-71373271D02*
X170007857Y-71420890D01*
X170007857Y-71420890D02*
X170055476Y-71468509D01*
X170055476Y-71468509D02*
X170103095Y-71563747D01*
X170103095Y-71563747D02*
X170103095Y-71801842D01*
X170103095Y-71801842D02*
X170055476Y-71897080D01*
X170055476Y-71897080D02*
X170007857Y-71944700D01*
X170007857Y-71944700D02*
X169912619Y-71992319D01*
X169912619Y-71992319D02*
X169626905Y-71992319D01*
X169626905Y-71992319D02*
X169531667Y-71944700D01*
X169531667Y-71944700D02*
X169484048Y-71897080D01*
X170722143Y-70992319D02*
X170817381Y-70992319D01*
X170817381Y-70992319D02*
X170912619Y-71039938D01*
X170912619Y-71039938D02*
X170960238Y-71087557D01*
X170960238Y-71087557D02*
X171007857Y-71182795D01*
X171007857Y-71182795D02*
X171055476Y-71373271D01*
X171055476Y-71373271D02*
X171055476Y-71611366D01*
X171055476Y-71611366D02*
X171007857Y-71801842D01*
X171007857Y-71801842D02*
X170960238Y-71897080D01*
X170960238Y-71897080D02*
X170912619Y-71944700D01*
X170912619Y-71944700D02*
X170817381Y-71992319D01*
X170817381Y-71992319D02*
X170722143Y-71992319D01*
X170722143Y-71992319D02*
X170626905Y-71944700D01*
X170626905Y-71944700D02*
X170579286Y-71897080D01*
X170579286Y-71897080D02*
X170531667Y-71801842D01*
X170531667Y-71801842D02*
X170484048Y-71611366D01*
X170484048Y-71611366D02*
X170484048Y-71373271D01*
X170484048Y-71373271D02*
X170531667Y-71182795D01*
X170531667Y-71182795D02*
X170579286Y-71087557D01*
X170579286Y-71087557D02*
X170626905Y-71039938D01*
X170626905Y-71039938D02*
X170722143Y-70992319D01*
X172007857Y-71992319D02*
X171436429Y-71992319D01*
X171722143Y-71992319D02*
X171722143Y-70992319D01*
X171722143Y-70992319D02*
X171626905Y-71135176D01*
X171626905Y-71135176D02*
X171531667Y-71230414D01*
X171531667Y-71230414D02*
X171436429Y-71278033D01*
X161000952Y-107024819D02*
X160524762Y-107024819D01*
X160524762Y-107024819D02*
X160524762Y-106024819D01*
X161858095Y-107024819D02*
X161286667Y-107024819D01*
X161572381Y-107024819D02*
X161572381Y-106024819D01*
X161572381Y-106024819D02*
X161477143Y-106167676D01*
X161477143Y-106167676D02*
X161381905Y-106262914D01*
X161381905Y-106262914D02*
X161286667Y-106310533D01*
X162477143Y-106024819D02*
X162572381Y-106024819D01*
X162572381Y-106024819D02*
X162667619Y-106072438D01*
X162667619Y-106072438D02*
X162715238Y-106120057D01*
X162715238Y-106120057D02*
X162762857Y-106215295D01*
X162762857Y-106215295D02*
X162810476Y-106405771D01*
X162810476Y-106405771D02*
X162810476Y-106643866D01*
X162810476Y-106643866D02*
X162762857Y-106834342D01*
X162762857Y-106834342D02*
X162715238Y-106929580D01*
X162715238Y-106929580D02*
X162667619Y-106977200D01*
X162667619Y-106977200D02*
X162572381Y-107024819D01*
X162572381Y-107024819D02*
X162477143Y-107024819D01*
X162477143Y-107024819D02*
X162381905Y-106977200D01*
X162381905Y-106977200D02*
X162334286Y-106929580D01*
X162334286Y-106929580D02*
X162286667Y-106834342D01*
X162286667Y-106834342D02*
X162239048Y-106643866D01*
X162239048Y-106643866D02*
X162239048Y-106405771D01*
X162239048Y-106405771D02*
X162286667Y-106215295D01*
X162286667Y-106215295D02*
X162334286Y-106120057D01*
X162334286Y-106120057D02*
X162381905Y-106072438D01*
X162381905Y-106072438D02*
X162477143Y-106024819D01*
X163762857Y-107024819D02*
X163191429Y-107024819D01*
X163477143Y-107024819D02*
X163477143Y-106024819D01*
X163477143Y-106024819D02*
X163381905Y-106167676D01*
X163381905Y-106167676D02*
X163286667Y-106262914D01*
X163286667Y-106262914D02*
X163191429Y-106310533D01*
X156144285Y-74724819D02*
X156144285Y-75439104D01*
X156144285Y-75439104D02*
X156096666Y-75581961D01*
X156096666Y-75581961D02*
X156001428Y-75677200D01*
X156001428Y-75677200D02*
X155858571Y-75724819D01*
X155858571Y-75724819D02*
X155763333Y-75724819D01*
X156620476Y-75724819D02*
X156620476Y-74724819D01*
X156620476Y-74724819D02*
X157001428Y-74724819D01*
X157001428Y-74724819D02*
X157096666Y-74772438D01*
X157096666Y-74772438D02*
X157144285Y-74820057D01*
X157144285Y-74820057D02*
X157191904Y-74915295D01*
X157191904Y-74915295D02*
X157191904Y-75058152D01*
X157191904Y-75058152D02*
X157144285Y-75153390D01*
X157144285Y-75153390D02*
X157096666Y-75201009D01*
X157096666Y-75201009D02*
X157001428Y-75248628D01*
X157001428Y-75248628D02*
X156620476Y-75248628D01*
X157572857Y-74820057D02*
X157620476Y-74772438D01*
X157620476Y-74772438D02*
X157715714Y-74724819D01*
X157715714Y-74724819D02*
X157953809Y-74724819D01*
X157953809Y-74724819D02*
X158049047Y-74772438D01*
X158049047Y-74772438D02*
X158096666Y-74820057D01*
X158096666Y-74820057D02*
X158144285Y-74915295D01*
X158144285Y-74915295D02*
X158144285Y-75010533D01*
X158144285Y-75010533D02*
X158096666Y-75153390D01*
X158096666Y-75153390D02*
X157525238Y-75724819D01*
X157525238Y-75724819D02*
X158144285Y-75724819D01*
X158763333Y-74724819D02*
X158858571Y-74724819D01*
X158858571Y-74724819D02*
X158953809Y-74772438D01*
X158953809Y-74772438D02*
X159001428Y-74820057D01*
X159001428Y-74820057D02*
X159049047Y-74915295D01*
X159049047Y-74915295D02*
X159096666Y-75105771D01*
X159096666Y-75105771D02*
X159096666Y-75343866D01*
X159096666Y-75343866D02*
X159049047Y-75534342D01*
X159049047Y-75534342D02*
X159001428Y-75629580D01*
X159001428Y-75629580D02*
X158953809Y-75677200D01*
X158953809Y-75677200D02*
X158858571Y-75724819D01*
X158858571Y-75724819D02*
X158763333Y-75724819D01*
X158763333Y-75724819D02*
X158668095Y-75677200D01*
X158668095Y-75677200D02*
X158620476Y-75629580D01*
X158620476Y-75629580D02*
X158572857Y-75534342D01*
X158572857Y-75534342D02*
X158525238Y-75343866D01*
X158525238Y-75343866D02*
X158525238Y-75105771D01*
X158525238Y-75105771D02*
X158572857Y-74915295D01*
X158572857Y-74915295D02*
X158620476Y-74820057D01*
X158620476Y-74820057D02*
X158668095Y-74772438D01*
X158668095Y-74772438D02*
X158763333Y-74724819D01*
X159477619Y-74820057D02*
X159525238Y-74772438D01*
X159525238Y-74772438D02*
X159620476Y-74724819D01*
X159620476Y-74724819D02*
X159858571Y-74724819D01*
X159858571Y-74724819D02*
X159953809Y-74772438D01*
X159953809Y-74772438D02*
X160001428Y-74820057D01*
X160001428Y-74820057D02*
X160049047Y-74915295D01*
X160049047Y-74915295D02*
X160049047Y-75010533D01*
X160049047Y-75010533D02*
X160001428Y-75153390D01*
X160001428Y-75153390D02*
X159430000Y-75724819D01*
X159430000Y-75724819D02*
X160049047Y-75724819D01*
X150014285Y-74754819D02*
X150014285Y-75469104D01*
X150014285Y-75469104D02*
X149966666Y-75611961D01*
X149966666Y-75611961D02*
X149871428Y-75707200D01*
X149871428Y-75707200D02*
X149728571Y-75754819D01*
X149728571Y-75754819D02*
X149633333Y-75754819D01*
X150490476Y-75754819D02*
X150490476Y-74754819D01*
X150490476Y-74754819D02*
X150871428Y-74754819D01*
X150871428Y-74754819D02*
X150966666Y-74802438D01*
X150966666Y-74802438D02*
X151014285Y-74850057D01*
X151014285Y-74850057D02*
X151061904Y-74945295D01*
X151061904Y-74945295D02*
X151061904Y-75088152D01*
X151061904Y-75088152D02*
X151014285Y-75183390D01*
X151014285Y-75183390D02*
X150966666Y-75231009D01*
X150966666Y-75231009D02*
X150871428Y-75278628D01*
X150871428Y-75278628D02*
X150490476Y-75278628D01*
X151442857Y-74850057D02*
X151490476Y-74802438D01*
X151490476Y-74802438D02*
X151585714Y-74754819D01*
X151585714Y-74754819D02*
X151823809Y-74754819D01*
X151823809Y-74754819D02*
X151919047Y-74802438D01*
X151919047Y-74802438D02*
X151966666Y-74850057D01*
X151966666Y-74850057D02*
X152014285Y-74945295D01*
X152014285Y-74945295D02*
X152014285Y-75040533D01*
X152014285Y-75040533D02*
X151966666Y-75183390D01*
X151966666Y-75183390D02*
X151395238Y-75754819D01*
X151395238Y-75754819D02*
X152014285Y-75754819D01*
X152633333Y-74754819D02*
X152728571Y-74754819D01*
X152728571Y-74754819D02*
X152823809Y-74802438D01*
X152823809Y-74802438D02*
X152871428Y-74850057D01*
X152871428Y-74850057D02*
X152919047Y-74945295D01*
X152919047Y-74945295D02*
X152966666Y-75135771D01*
X152966666Y-75135771D02*
X152966666Y-75373866D01*
X152966666Y-75373866D02*
X152919047Y-75564342D01*
X152919047Y-75564342D02*
X152871428Y-75659580D01*
X152871428Y-75659580D02*
X152823809Y-75707200D01*
X152823809Y-75707200D02*
X152728571Y-75754819D01*
X152728571Y-75754819D02*
X152633333Y-75754819D01*
X152633333Y-75754819D02*
X152538095Y-75707200D01*
X152538095Y-75707200D02*
X152490476Y-75659580D01*
X152490476Y-75659580D02*
X152442857Y-75564342D01*
X152442857Y-75564342D02*
X152395238Y-75373866D01*
X152395238Y-75373866D02*
X152395238Y-75135771D01*
X152395238Y-75135771D02*
X152442857Y-74945295D01*
X152442857Y-74945295D02*
X152490476Y-74850057D01*
X152490476Y-74850057D02*
X152538095Y-74802438D01*
X152538095Y-74802438D02*
X152633333Y-74754819D01*
X153919047Y-75754819D02*
X153347619Y-75754819D01*
X153633333Y-75754819D02*
X153633333Y-74754819D01*
X153633333Y-74754819D02*
X153538095Y-74897676D01*
X153538095Y-74897676D02*
X153442857Y-74992914D01*
X153442857Y-74992914D02*
X153347619Y-75040533D01*
X159814285Y-71184819D02*
X159814285Y-71899104D01*
X159814285Y-71899104D02*
X159766666Y-72041961D01*
X159766666Y-72041961D02*
X159671428Y-72137200D01*
X159671428Y-72137200D02*
X159528571Y-72184819D01*
X159528571Y-72184819D02*
X159433333Y-72184819D01*
X160242857Y-71280057D02*
X160290476Y-71232438D01*
X160290476Y-71232438D02*
X160385714Y-71184819D01*
X160385714Y-71184819D02*
X160623809Y-71184819D01*
X160623809Y-71184819D02*
X160719047Y-71232438D01*
X160719047Y-71232438D02*
X160766666Y-71280057D01*
X160766666Y-71280057D02*
X160814285Y-71375295D01*
X160814285Y-71375295D02*
X160814285Y-71470533D01*
X160814285Y-71470533D02*
X160766666Y-71613390D01*
X160766666Y-71613390D02*
X160195238Y-72184819D01*
X160195238Y-72184819D02*
X160814285Y-72184819D01*
X161433333Y-71184819D02*
X161528571Y-71184819D01*
X161528571Y-71184819D02*
X161623809Y-71232438D01*
X161623809Y-71232438D02*
X161671428Y-71280057D01*
X161671428Y-71280057D02*
X161719047Y-71375295D01*
X161719047Y-71375295D02*
X161766666Y-71565771D01*
X161766666Y-71565771D02*
X161766666Y-71803866D01*
X161766666Y-71803866D02*
X161719047Y-71994342D01*
X161719047Y-71994342D02*
X161671428Y-72089580D01*
X161671428Y-72089580D02*
X161623809Y-72137200D01*
X161623809Y-72137200D02*
X161528571Y-72184819D01*
X161528571Y-72184819D02*
X161433333Y-72184819D01*
X161433333Y-72184819D02*
X161338095Y-72137200D01*
X161338095Y-72137200D02*
X161290476Y-72089580D01*
X161290476Y-72089580D02*
X161242857Y-71994342D01*
X161242857Y-71994342D02*
X161195238Y-71803866D01*
X161195238Y-71803866D02*
X161195238Y-71565771D01*
X161195238Y-71565771D02*
X161242857Y-71375295D01*
X161242857Y-71375295D02*
X161290476Y-71280057D01*
X161290476Y-71280057D02*
X161338095Y-71232438D01*
X161338095Y-71232438D02*
X161433333Y-71184819D01*
X162719047Y-72184819D02*
X162147619Y-72184819D01*
X162433333Y-72184819D02*
X162433333Y-71184819D01*
X162433333Y-71184819D02*
X162338095Y-71327676D01*
X162338095Y-71327676D02*
X162242857Y-71422914D01*
X162242857Y-71422914D02*
X162147619Y-71470533D01*
X141114285Y-70484819D02*
X141114285Y-71199104D01*
X141114285Y-71199104D02*
X141066666Y-71341961D01*
X141066666Y-71341961D02*
X140971428Y-71437200D01*
X140971428Y-71437200D02*
X140828571Y-71484819D01*
X140828571Y-71484819D02*
X140733333Y-71484819D01*
X142114285Y-71484819D02*
X141542857Y-71484819D01*
X141828571Y-71484819D02*
X141828571Y-70484819D01*
X141828571Y-70484819D02*
X141733333Y-70627676D01*
X141733333Y-70627676D02*
X141638095Y-70722914D01*
X141638095Y-70722914D02*
X141542857Y-70770533D01*
X142733333Y-70484819D02*
X142828571Y-70484819D01*
X142828571Y-70484819D02*
X142923809Y-70532438D01*
X142923809Y-70532438D02*
X142971428Y-70580057D01*
X142971428Y-70580057D02*
X143019047Y-70675295D01*
X143019047Y-70675295D02*
X143066666Y-70865771D01*
X143066666Y-70865771D02*
X143066666Y-71103866D01*
X143066666Y-71103866D02*
X143019047Y-71294342D01*
X143019047Y-71294342D02*
X142971428Y-71389580D01*
X142971428Y-71389580D02*
X142923809Y-71437200D01*
X142923809Y-71437200D02*
X142828571Y-71484819D01*
X142828571Y-71484819D02*
X142733333Y-71484819D01*
X142733333Y-71484819D02*
X142638095Y-71437200D01*
X142638095Y-71437200D02*
X142590476Y-71389580D01*
X142590476Y-71389580D02*
X142542857Y-71294342D01*
X142542857Y-71294342D02*
X142495238Y-71103866D01*
X142495238Y-71103866D02*
X142495238Y-70865771D01*
X142495238Y-70865771D02*
X142542857Y-70675295D01*
X142542857Y-70675295D02*
X142590476Y-70580057D01*
X142590476Y-70580057D02*
X142638095Y-70532438D01*
X142638095Y-70532438D02*
X142733333Y-70484819D01*
X143447619Y-70580057D02*
X143495238Y-70532438D01*
X143495238Y-70532438D02*
X143590476Y-70484819D01*
X143590476Y-70484819D02*
X143828571Y-70484819D01*
X143828571Y-70484819D02*
X143923809Y-70532438D01*
X143923809Y-70532438D02*
X143971428Y-70580057D01*
X143971428Y-70580057D02*
X144019047Y-70675295D01*
X144019047Y-70675295D02*
X144019047Y-70770533D01*
X144019047Y-70770533D02*
X143971428Y-70913390D01*
X143971428Y-70913390D02*
X143400000Y-71484819D01*
X143400000Y-71484819D02*
X144019047Y-71484819D01*
X146314285Y-70484819D02*
X146314285Y-71199104D01*
X146314285Y-71199104D02*
X146266666Y-71341961D01*
X146266666Y-71341961D02*
X146171428Y-71437200D01*
X146171428Y-71437200D02*
X146028571Y-71484819D01*
X146028571Y-71484819D02*
X145933333Y-71484819D01*
X147314285Y-71484819D02*
X146742857Y-71484819D01*
X147028571Y-71484819D02*
X147028571Y-70484819D01*
X147028571Y-70484819D02*
X146933333Y-70627676D01*
X146933333Y-70627676D02*
X146838095Y-70722914D01*
X146838095Y-70722914D02*
X146742857Y-70770533D01*
X147933333Y-70484819D02*
X148028571Y-70484819D01*
X148028571Y-70484819D02*
X148123809Y-70532438D01*
X148123809Y-70532438D02*
X148171428Y-70580057D01*
X148171428Y-70580057D02*
X148219047Y-70675295D01*
X148219047Y-70675295D02*
X148266666Y-70865771D01*
X148266666Y-70865771D02*
X148266666Y-71103866D01*
X148266666Y-71103866D02*
X148219047Y-71294342D01*
X148219047Y-71294342D02*
X148171428Y-71389580D01*
X148171428Y-71389580D02*
X148123809Y-71437200D01*
X148123809Y-71437200D02*
X148028571Y-71484819D01*
X148028571Y-71484819D02*
X147933333Y-71484819D01*
X147933333Y-71484819D02*
X147838095Y-71437200D01*
X147838095Y-71437200D02*
X147790476Y-71389580D01*
X147790476Y-71389580D02*
X147742857Y-71294342D01*
X147742857Y-71294342D02*
X147695238Y-71103866D01*
X147695238Y-71103866D02*
X147695238Y-70865771D01*
X147695238Y-70865771D02*
X147742857Y-70675295D01*
X147742857Y-70675295D02*
X147790476Y-70580057D01*
X147790476Y-70580057D02*
X147838095Y-70532438D01*
X147838095Y-70532438D02*
X147933333Y-70484819D01*
X149219047Y-71484819D02*
X148647619Y-71484819D01*
X148933333Y-71484819D02*
X148933333Y-70484819D01*
X148933333Y-70484819D02*
X148838095Y-70627676D01*
X148838095Y-70627676D02*
X148742857Y-70722914D01*
X148742857Y-70722914D02*
X148647619Y-70770533D01*
X167171429Y-79854819D02*
X167171429Y-78854819D01*
X168219047Y-79759580D02*
X168171428Y-79807200D01*
X168171428Y-79807200D02*
X168028571Y-79854819D01*
X168028571Y-79854819D02*
X167933333Y-79854819D01*
X167933333Y-79854819D02*
X167790476Y-79807200D01*
X167790476Y-79807200D02*
X167695238Y-79711961D01*
X167695238Y-79711961D02*
X167647619Y-79616723D01*
X167647619Y-79616723D02*
X167600000Y-79426247D01*
X167600000Y-79426247D02*
X167600000Y-79283390D01*
X167600000Y-79283390D02*
X167647619Y-79092914D01*
X167647619Y-79092914D02*
X167695238Y-78997676D01*
X167695238Y-78997676D02*
X167790476Y-78902438D01*
X167790476Y-78902438D02*
X167933333Y-78854819D01*
X167933333Y-78854819D02*
X168028571Y-78854819D01*
X168028571Y-78854819D02*
X168171428Y-78902438D01*
X168171428Y-78902438D02*
X168219047Y-78950057D01*
X168552381Y-78854819D02*
X169171428Y-78854819D01*
X169171428Y-78854819D02*
X168838095Y-79235771D01*
X168838095Y-79235771D02*
X168980952Y-79235771D01*
X168980952Y-79235771D02*
X169076190Y-79283390D01*
X169076190Y-79283390D02*
X169123809Y-79331009D01*
X169123809Y-79331009D02*
X169171428Y-79426247D01*
X169171428Y-79426247D02*
X169171428Y-79664342D01*
X169171428Y-79664342D02*
X169123809Y-79759580D01*
X169123809Y-79759580D02*
X169076190Y-79807200D01*
X169076190Y-79807200D02*
X168980952Y-79854819D01*
X168980952Y-79854819D02*
X168695238Y-79854819D01*
X168695238Y-79854819D02*
X168600000Y-79807200D01*
X168600000Y-79807200D02*
X168552381Y-79759580D01*
X169790476Y-78854819D02*
X169885714Y-78854819D01*
X169885714Y-78854819D02*
X169980952Y-78902438D01*
X169980952Y-78902438D02*
X170028571Y-78950057D01*
X170028571Y-78950057D02*
X170076190Y-79045295D01*
X170076190Y-79045295D02*
X170123809Y-79235771D01*
X170123809Y-79235771D02*
X170123809Y-79473866D01*
X170123809Y-79473866D02*
X170076190Y-79664342D01*
X170076190Y-79664342D02*
X170028571Y-79759580D01*
X170028571Y-79759580D02*
X169980952Y-79807200D01*
X169980952Y-79807200D02*
X169885714Y-79854819D01*
X169885714Y-79854819D02*
X169790476Y-79854819D01*
X169790476Y-79854819D02*
X169695238Y-79807200D01*
X169695238Y-79807200D02*
X169647619Y-79759580D01*
X169647619Y-79759580D02*
X169600000Y-79664342D01*
X169600000Y-79664342D02*
X169552381Y-79473866D01*
X169552381Y-79473866D02*
X169552381Y-79235771D01*
X169552381Y-79235771D02*
X169600000Y-79045295D01*
X169600000Y-79045295D02*
X169647619Y-78950057D01*
X169647619Y-78950057D02*
X169695238Y-78902438D01*
X169695238Y-78902438D02*
X169790476Y-78854819D01*
X171076190Y-79854819D02*
X170504762Y-79854819D01*
X170790476Y-79854819D02*
X170790476Y-78854819D01*
X170790476Y-78854819D02*
X170695238Y-78997676D01*
X170695238Y-78997676D02*
X170600000Y-79092914D01*
X170600000Y-79092914D02*
X170504762Y-79140533D01*
X167009524Y-61354819D02*
X167009524Y-60354819D01*
X167009524Y-60354819D02*
X167247619Y-60354819D01*
X167247619Y-60354819D02*
X167390476Y-60402438D01*
X167390476Y-60402438D02*
X167485714Y-60497676D01*
X167485714Y-60497676D02*
X167533333Y-60592914D01*
X167533333Y-60592914D02*
X167580952Y-60783390D01*
X167580952Y-60783390D02*
X167580952Y-60926247D01*
X167580952Y-60926247D02*
X167533333Y-61116723D01*
X167533333Y-61116723D02*
X167485714Y-61211961D01*
X167485714Y-61211961D02*
X167390476Y-61307200D01*
X167390476Y-61307200D02*
X167247619Y-61354819D01*
X167247619Y-61354819D02*
X167009524Y-61354819D01*
X168533333Y-61354819D02*
X167961905Y-61354819D01*
X168247619Y-61354819D02*
X168247619Y-60354819D01*
X168247619Y-60354819D02*
X168152381Y-60497676D01*
X168152381Y-60497676D02*
X168057143Y-60592914D01*
X168057143Y-60592914D02*
X167961905Y-60640533D01*
X169152381Y-60354819D02*
X169247619Y-60354819D01*
X169247619Y-60354819D02*
X169342857Y-60402438D01*
X169342857Y-60402438D02*
X169390476Y-60450057D01*
X169390476Y-60450057D02*
X169438095Y-60545295D01*
X169438095Y-60545295D02*
X169485714Y-60735771D01*
X169485714Y-60735771D02*
X169485714Y-60973866D01*
X169485714Y-60973866D02*
X169438095Y-61164342D01*
X169438095Y-61164342D02*
X169390476Y-61259580D01*
X169390476Y-61259580D02*
X169342857Y-61307200D01*
X169342857Y-61307200D02*
X169247619Y-61354819D01*
X169247619Y-61354819D02*
X169152381Y-61354819D01*
X169152381Y-61354819D02*
X169057143Y-61307200D01*
X169057143Y-61307200D02*
X169009524Y-61259580D01*
X169009524Y-61259580D02*
X168961905Y-61164342D01*
X168961905Y-61164342D02*
X168914286Y-60973866D01*
X168914286Y-60973866D02*
X168914286Y-60735771D01*
X168914286Y-60735771D02*
X168961905Y-60545295D01*
X168961905Y-60545295D02*
X169009524Y-60450057D01*
X169009524Y-60450057D02*
X169057143Y-60402438D01*
X169057143Y-60402438D02*
X169152381Y-60354819D01*
X170438095Y-61354819D02*
X169866667Y-61354819D01*
X170152381Y-61354819D02*
X170152381Y-60354819D01*
X170152381Y-60354819D02*
X170057143Y-60497676D01*
X170057143Y-60497676D02*
X169961905Y-60592914D01*
X169961905Y-60592914D02*
X169866667Y-60640533D01*
X180209580Y-83799047D02*
X180257200Y-83846666D01*
X180257200Y-83846666D02*
X180304819Y-83989523D01*
X180304819Y-83989523D02*
X180304819Y-84084761D01*
X180304819Y-84084761D02*
X180257200Y-84227618D01*
X180257200Y-84227618D02*
X180161961Y-84322856D01*
X180161961Y-84322856D02*
X180066723Y-84370475D01*
X180066723Y-84370475D02*
X179876247Y-84418094D01*
X179876247Y-84418094D02*
X179733390Y-84418094D01*
X179733390Y-84418094D02*
X179542914Y-84370475D01*
X179542914Y-84370475D02*
X179447676Y-84322856D01*
X179447676Y-84322856D02*
X179352438Y-84227618D01*
X179352438Y-84227618D02*
X179304819Y-84084761D01*
X179304819Y-84084761D02*
X179304819Y-83989523D01*
X179304819Y-83989523D02*
X179352438Y-83846666D01*
X179352438Y-83846666D02*
X179400057Y-83799047D01*
X179304819Y-83465713D02*
X179304819Y-82846666D01*
X179304819Y-82846666D02*
X179685771Y-83179999D01*
X179685771Y-83179999D02*
X179685771Y-83037142D01*
X179685771Y-83037142D02*
X179733390Y-82941904D01*
X179733390Y-82941904D02*
X179781009Y-82894285D01*
X179781009Y-82894285D02*
X179876247Y-82846666D01*
X179876247Y-82846666D02*
X180114342Y-82846666D01*
X180114342Y-82846666D02*
X180209580Y-82894285D01*
X180209580Y-82894285D02*
X180257200Y-82941904D01*
X180257200Y-82941904D02*
X180304819Y-83037142D01*
X180304819Y-83037142D02*
X180304819Y-83322856D01*
X180304819Y-83322856D02*
X180257200Y-83418094D01*
X180257200Y-83418094D02*
X180209580Y-83465713D01*
X179304819Y-82227618D02*
X179304819Y-82132380D01*
X179304819Y-82132380D02*
X179352438Y-82037142D01*
X179352438Y-82037142D02*
X179400057Y-81989523D01*
X179400057Y-81989523D02*
X179495295Y-81941904D01*
X179495295Y-81941904D02*
X179685771Y-81894285D01*
X179685771Y-81894285D02*
X179923866Y-81894285D01*
X179923866Y-81894285D02*
X180114342Y-81941904D01*
X180114342Y-81941904D02*
X180209580Y-81989523D01*
X180209580Y-81989523D02*
X180257200Y-82037142D01*
X180257200Y-82037142D02*
X180304819Y-82132380D01*
X180304819Y-82132380D02*
X180304819Y-82227618D01*
X180304819Y-82227618D02*
X180257200Y-82322856D01*
X180257200Y-82322856D02*
X180209580Y-82370475D01*
X180209580Y-82370475D02*
X180114342Y-82418094D01*
X180114342Y-82418094D02*
X179923866Y-82465713D01*
X179923866Y-82465713D02*
X179685771Y-82465713D01*
X179685771Y-82465713D02*
X179495295Y-82418094D01*
X179495295Y-82418094D02*
X179400057Y-82370475D01*
X179400057Y-82370475D02*
X179352438Y-82322856D01*
X179352438Y-82322856D02*
X179304819Y-82227618D01*
X180304819Y-81418094D02*
X180304819Y-81227618D01*
X180304819Y-81227618D02*
X180257200Y-81132380D01*
X180257200Y-81132380D02*
X180209580Y-81084761D01*
X180209580Y-81084761D02*
X180066723Y-80989523D01*
X180066723Y-80989523D02*
X179876247Y-80941904D01*
X179876247Y-80941904D02*
X179495295Y-80941904D01*
X179495295Y-80941904D02*
X179400057Y-80989523D01*
X179400057Y-80989523D02*
X179352438Y-81037142D01*
X179352438Y-81037142D02*
X179304819Y-81132380D01*
X179304819Y-81132380D02*
X179304819Y-81322856D01*
X179304819Y-81322856D02*
X179352438Y-81418094D01*
X179352438Y-81418094D02*
X179400057Y-81465713D01*
X179400057Y-81465713D02*
X179495295Y-81513332D01*
X179495295Y-81513332D02*
X179733390Y-81513332D01*
X179733390Y-81513332D02*
X179828628Y-81465713D01*
X179828628Y-81465713D02*
X179876247Y-81418094D01*
X179876247Y-81418094D02*
X179923866Y-81322856D01*
X179923866Y-81322856D02*
X179923866Y-81132380D01*
X179923866Y-81132380D02*
X179876247Y-81037142D01*
X179876247Y-81037142D02*
X179828628Y-80989523D01*
X179828628Y-80989523D02*
X179733390Y-80941904D01*
X174659580Y-91119047D02*
X174707200Y-91166666D01*
X174707200Y-91166666D02*
X174754819Y-91309523D01*
X174754819Y-91309523D02*
X174754819Y-91404761D01*
X174754819Y-91404761D02*
X174707200Y-91547618D01*
X174707200Y-91547618D02*
X174611961Y-91642856D01*
X174611961Y-91642856D02*
X174516723Y-91690475D01*
X174516723Y-91690475D02*
X174326247Y-91738094D01*
X174326247Y-91738094D02*
X174183390Y-91738094D01*
X174183390Y-91738094D02*
X173992914Y-91690475D01*
X173992914Y-91690475D02*
X173897676Y-91642856D01*
X173897676Y-91642856D02*
X173802438Y-91547618D01*
X173802438Y-91547618D02*
X173754819Y-91404761D01*
X173754819Y-91404761D02*
X173754819Y-91309523D01*
X173754819Y-91309523D02*
X173802438Y-91166666D01*
X173802438Y-91166666D02*
X173850057Y-91119047D01*
X173754819Y-90785713D02*
X173754819Y-90166666D01*
X173754819Y-90166666D02*
X174135771Y-90499999D01*
X174135771Y-90499999D02*
X174135771Y-90357142D01*
X174135771Y-90357142D02*
X174183390Y-90261904D01*
X174183390Y-90261904D02*
X174231009Y-90214285D01*
X174231009Y-90214285D02*
X174326247Y-90166666D01*
X174326247Y-90166666D02*
X174564342Y-90166666D01*
X174564342Y-90166666D02*
X174659580Y-90214285D01*
X174659580Y-90214285D02*
X174707200Y-90261904D01*
X174707200Y-90261904D02*
X174754819Y-90357142D01*
X174754819Y-90357142D02*
X174754819Y-90642856D01*
X174754819Y-90642856D02*
X174707200Y-90738094D01*
X174707200Y-90738094D02*
X174659580Y-90785713D01*
X173754819Y-89547618D02*
X173754819Y-89452380D01*
X173754819Y-89452380D02*
X173802438Y-89357142D01*
X173802438Y-89357142D02*
X173850057Y-89309523D01*
X173850057Y-89309523D02*
X173945295Y-89261904D01*
X173945295Y-89261904D02*
X174135771Y-89214285D01*
X174135771Y-89214285D02*
X174373866Y-89214285D01*
X174373866Y-89214285D02*
X174564342Y-89261904D01*
X174564342Y-89261904D02*
X174659580Y-89309523D01*
X174659580Y-89309523D02*
X174707200Y-89357142D01*
X174707200Y-89357142D02*
X174754819Y-89452380D01*
X174754819Y-89452380D02*
X174754819Y-89547618D01*
X174754819Y-89547618D02*
X174707200Y-89642856D01*
X174707200Y-89642856D02*
X174659580Y-89690475D01*
X174659580Y-89690475D02*
X174564342Y-89738094D01*
X174564342Y-89738094D02*
X174373866Y-89785713D01*
X174373866Y-89785713D02*
X174135771Y-89785713D01*
X174135771Y-89785713D02*
X173945295Y-89738094D01*
X173945295Y-89738094D02*
X173850057Y-89690475D01*
X173850057Y-89690475D02*
X173802438Y-89642856D01*
X173802438Y-89642856D02*
X173754819Y-89547618D01*
X174183390Y-88642856D02*
X174135771Y-88738094D01*
X174135771Y-88738094D02*
X174088152Y-88785713D01*
X174088152Y-88785713D02*
X173992914Y-88833332D01*
X173992914Y-88833332D02*
X173945295Y-88833332D01*
X173945295Y-88833332D02*
X173850057Y-88785713D01*
X173850057Y-88785713D02*
X173802438Y-88738094D01*
X173802438Y-88738094D02*
X173754819Y-88642856D01*
X173754819Y-88642856D02*
X173754819Y-88452380D01*
X173754819Y-88452380D02*
X173802438Y-88357142D01*
X173802438Y-88357142D02*
X173850057Y-88309523D01*
X173850057Y-88309523D02*
X173945295Y-88261904D01*
X173945295Y-88261904D02*
X173992914Y-88261904D01*
X173992914Y-88261904D02*
X174088152Y-88309523D01*
X174088152Y-88309523D02*
X174135771Y-88357142D01*
X174135771Y-88357142D02*
X174183390Y-88452380D01*
X174183390Y-88452380D02*
X174183390Y-88642856D01*
X174183390Y-88642856D02*
X174231009Y-88738094D01*
X174231009Y-88738094D02*
X174278628Y-88785713D01*
X174278628Y-88785713D02*
X174373866Y-88833332D01*
X174373866Y-88833332D02*
X174564342Y-88833332D01*
X174564342Y-88833332D02*
X174659580Y-88785713D01*
X174659580Y-88785713D02*
X174707200Y-88738094D01*
X174707200Y-88738094D02*
X174754819Y-88642856D01*
X174754819Y-88642856D02*
X174754819Y-88452380D01*
X174754819Y-88452380D02*
X174707200Y-88357142D01*
X174707200Y-88357142D02*
X174659580Y-88309523D01*
X174659580Y-88309523D02*
X174564342Y-88261904D01*
X174564342Y-88261904D02*
X174373866Y-88261904D01*
X174373866Y-88261904D02*
X174278628Y-88309523D01*
X174278628Y-88309523D02*
X174231009Y-88357142D01*
X174231009Y-88357142D02*
X174183390Y-88452380D01*
X163320952Y-84159580D02*
X163273333Y-84207200D01*
X163273333Y-84207200D02*
X163130476Y-84254819D01*
X163130476Y-84254819D02*
X163035238Y-84254819D01*
X163035238Y-84254819D02*
X162892381Y-84207200D01*
X162892381Y-84207200D02*
X162797143Y-84111961D01*
X162797143Y-84111961D02*
X162749524Y-84016723D01*
X162749524Y-84016723D02*
X162701905Y-83826247D01*
X162701905Y-83826247D02*
X162701905Y-83683390D01*
X162701905Y-83683390D02*
X162749524Y-83492914D01*
X162749524Y-83492914D02*
X162797143Y-83397676D01*
X162797143Y-83397676D02*
X162892381Y-83302438D01*
X162892381Y-83302438D02*
X163035238Y-83254819D01*
X163035238Y-83254819D02*
X163130476Y-83254819D01*
X163130476Y-83254819D02*
X163273333Y-83302438D01*
X163273333Y-83302438D02*
X163320952Y-83350057D01*
X163654286Y-83254819D02*
X164273333Y-83254819D01*
X164273333Y-83254819D02*
X163940000Y-83635771D01*
X163940000Y-83635771D02*
X164082857Y-83635771D01*
X164082857Y-83635771D02*
X164178095Y-83683390D01*
X164178095Y-83683390D02*
X164225714Y-83731009D01*
X164225714Y-83731009D02*
X164273333Y-83826247D01*
X164273333Y-83826247D02*
X164273333Y-84064342D01*
X164273333Y-84064342D02*
X164225714Y-84159580D01*
X164225714Y-84159580D02*
X164178095Y-84207200D01*
X164178095Y-84207200D02*
X164082857Y-84254819D01*
X164082857Y-84254819D02*
X163797143Y-84254819D01*
X163797143Y-84254819D02*
X163701905Y-84207200D01*
X163701905Y-84207200D02*
X163654286Y-84159580D01*
X164892381Y-83254819D02*
X164987619Y-83254819D01*
X164987619Y-83254819D02*
X165082857Y-83302438D01*
X165082857Y-83302438D02*
X165130476Y-83350057D01*
X165130476Y-83350057D02*
X165178095Y-83445295D01*
X165178095Y-83445295D02*
X165225714Y-83635771D01*
X165225714Y-83635771D02*
X165225714Y-83873866D01*
X165225714Y-83873866D02*
X165178095Y-84064342D01*
X165178095Y-84064342D02*
X165130476Y-84159580D01*
X165130476Y-84159580D02*
X165082857Y-84207200D01*
X165082857Y-84207200D02*
X164987619Y-84254819D01*
X164987619Y-84254819D02*
X164892381Y-84254819D01*
X164892381Y-84254819D02*
X164797143Y-84207200D01*
X164797143Y-84207200D02*
X164749524Y-84159580D01*
X164749524Y-84159580D02*
X164701905Y-84064342D01*
X164701905Y-84064342D02*
X164654286Y-83873866D01*
X164654286Y-83873866D02*
X164654286Y-83635771D01*
X164654286Y-83635771D02*
X164701905Y-83445295D01*
X164701905Y-83445295D02*
X164749524Y-83350057D01*
X164749524Y-83350057D02*
X164797143Y-83302438D01*
X164797143Y-83302438D02*
X164892381Y-83254819D01*
X165559048Y-83254819D02*
X166225714Y-83254819D01*
X166225714Y-83254819D02*
X165797143Y-84254819D01*
X175259580Y-69794047D02*
X175307200Y-69841666D01*
X175307200Y-69841666D02*
X175354819Y-69984523D01*
X175354819Y-69984523D02*
X175354819Y-70079761D01*
X175354819Y-70079761D02*
X175307200Y-70222618D01*
X175307200Y-70222618D02*
X175211961Y-70317856D01*
X175211961Y-70317856D02*
X175116723Y-70365475D01*
X175116723Y-70365475D02*
X174926247Y-70413094D01*
X174926247Y-70413094D02*
X174783390Y-70413094D01*
X174783390Y-70413094D02*
X174592914Y-70365475D01*
X174592914Y-70365475D02*
X174497676Y-70317856D01*
X174497676Y-70317856D02*
X174402438Y-70222618D01*
X174402438Y-70222618D02*
X174354819Y-70079761D01*
X174354819Y-70079761D02*
X174354819Y-69984523D01*
X174354819Y-69984523D02*
X174402438Y-69841666D01*
X174402438Y-69841666D02*
X174450057Y-69794047D01*
X174354819Y-69460713D02*
X174354819Y-68841666D01*
X174354819Y-68841666D02*
X174735771Y-69174999D01*
X174735771Y-69174999D02*
X174735771Y-69032142D01*
X174735771Y-69032142D02*
X174783390Y-68936904D01*
X174783390Y-68936904D02*
X174831009Y-68889285D01*
X174831009Y-68889285D02*
X174926247Y-68841666D01*
X174926247Y-68841666D02*
X175164342Y-68841666D01*
X175164342Y-68841666D02*
X175259580Y-68889285D01*
X175259580Y-68889285D02*
X175307200Y-68936904D01*
X175307200Y-68936904D02*
X175354819Y-69032142D01*
X175354819Y-69032142D02*
X175354819Y-69317856D01*
X175354819Y-69317856D02*
X175307200Y-69413094D01*
X175307200Y-69413094D02*
X175259580Y-69460713D01*
X174354819Y-68222618D02*
X174354819Y-68127380D01*
X174354819Y-68127380D02*
X174402438Y-68032142D01*
X174402438Y-68032142D02*
X174450057Y-67984523D01*
X174450057Y-67984523D02*
X174545295Y-67936904D01*
X174545295Y-67936904D02*
X174735771Y-67889285D01*
X174735771Y-67889285D02*
X174973866Y-67889285D01*
X174973866Y-67889285D02*
X175164342Y-67936904D01*
X175164342Y-67936904D02*
X175259580Y-67984523D01*
X175259580Y-67984523D02*
X175307200Y-68032142D01*
X175307200Y-68032142D02*
X175354819Y-68127380D01*
X175354819Y-68127380D02*
X175354819Y-68222618D01*
X175354819Y-68222618D02*
X175307200Y-68317856D01*
X175307200Y-68317856D02*
X175259580Y-68365475D01*
X175259580Y-68365475D02*
X175164342Y-68413094D01*
X175164342Y-68413094D02*
X174973866Y-68460713D01*
X174973866Y-68460713D02*
X174735771Y-68460713D01*
X174735771Y-68460713D02*
X174545295Y-68413094D01*
X174545295Y-68413094D02*
X174450057Y-68365475D01*
X174450057Y-68365475D02*
X174402438Y-68317856D01*
X174402438Y-68317856D02*
X174354819Y-68222618D01*
X174354819Y-67032142D02*
X174354819Y-67222618D01*
X174354819Y-67222618D02*
X174402438Y-67317856D01*
X174402438Y-67317856D02*
X174450057Y-67365475D01*
X174450057Y-67365475D02*
X174592914Y-67460713D01*
X174592914Y-67460713D02*
X174783390Y-67508332D01*
X174783390Y-67508332D02*
X175164342Y-67508332D01*
X175164342Y-67508332D02*
X175259580Y-67460713D01*
X175259580Y-67460713D02*
X175307200Y-67413094D01*
X175307200Y-67413094D02*
X175354819Y-67317856D01*
X175354819Y-67317856D02*
X175354819Y-67127380D01*
X175354819Y-67127380D02*
X175307200Y-67032142D01*
X175307200Y-67032142D02*
X175259580Y-66984523D01*
X175259580Y-66984523D02*
X175164342Y-66936904D01*
X175164342Y-66936904D02*
X174926247Y-66936904D01*
X174926247Y-66936904D02*
X174831009Y-66984523D01*
X174831009Y-66984523D02*
X174783390Y-67032142D01*
X174783390Y-67032142D02*
X174735771Y-67127380D01*
X174735771Y-67127380D02*
X174735771Y-67317856D01*
X174735771Y-67317856D02*
X174783390Y-67413094D01*
X174783390Y-67413094D02*
X174831009Y-67460713D01*
X174831009Y-67460713D02*
X174926247Y-67508332D01*
X170659580Y-68119047D02*
X170707200Y-68166666D01*
X170707200Y-68166666D02*
X170754819Y-68309523D01*
X170754819Y-68309523D02*
X170754819Y-68404761D01*
X170754819Y-68404761D02*
X170707200Y-68547618D01*
X170707200Y-68547618D02*
X170611961Y-68642856D01*
X170611961Y-68642856D02*
X170516723Y-68690475D01*
X170516723Y-68690475D02*
X170326247Y-68738094D01*
X170326247Y-68738094D02*
X170183390Y-68738094D01*
X170183390Y-68738094D02*
X169992914Y-68690475D01*
X169992914Y-68690475D02*
X169897676Y-68642856D01*
X169897676Y-68642856D02*
X169802438Y-68547618D01*
X169802438Y-68547618D02*
X169754819Y-68404761D01*
X169754819Y-68404761D02*
X169754819Y-68309523D01*
X169754819Y-68309523D02*
X169802438Y-68166666D01*
X169802438Y-68166666D02*
X169850057Y-68119047D01*
X169754819Y-67785713D02*
X169754819Y-67166666D01*
X169754819Y-67166666D02*
X170135771Y-67499999D01*
X170135771Y-67499999D02*
X170135771Y-67357142D01*
X170135771Y-67357142D02*
X170183390Y-67261904D01*
X170183390Y-67261904D02*
X170231009Y-67214285D01*
X170231009Y-67214285D02*
X170326247Y-67166666D01*
X170326247Y-67166666D02*
X170564342Y-67166666D01*
X170564342Y-67166666D02*
X170659580Y-67214285D01*
X170659580Y-67214285D02*
X170707200Y-67261904D01*
X170707200Y-67261904D02*
X170754819Y-67357142D01*
X170754819Y-67357142D02*
X170754819Y-67642856D01*
X170754819Y-67642856D02*
X170707200Y-67738094D01*
X170707200Y-67738094D02*
X170659580Y-67785713D01*
X169754819Y-66547618D02*
X169754819Y-66452380D01*
X169754819Y-66452380D02*
X169802438Y-66357142D01*
X169802438Y-66357142D02*
X169850057Y-66309523D01*
X169850057Y-66309523D02*
X169945295Y-66261904D01*
X169945295Y-66261904D02*
X170135771Y-66214285D01*
X170135771Y-66214285D02*
X170373866Y-66214285D01*
X170373866Y-66214285D02*
X170564342Y-66261904D01*
X170564342Y-66261904D02*
X170659580Y-66309523D01*
X170659580Y-66309523D02*
X170707200Y-66357142D01*
X170707200Y-66357142D02*
X170754819Y-66452380D01*
X170754819Y-66452380D02*
X170754819Y-66547618D01*
X170754819Y-66547618D02*
X170707200Y-66642856D01*
X170707200Y-66642856D02*
X170659580Y-66690475D01*
X170659580Y-66690475D02*
X170564342Y-66738094D01*
X170564342Y-66738094D02*
X170373866Y-66785713D01*
X170373866Y-66785713D02*
X170135771Y-66785713D01*
X170135771Y-66785713D02*
X169945295Y-66738094D01*
X169945295Y-66738094D02*
X169850057Y-66690475D01*
X169850057Y-66690475D02*
X169802438Y-66642856D01*
X169802438Y-66642856D02*
X169754819Y-66547618D01*
X169754819Y-65309523D02*
X169754819Y-65785713D01*
X169754819Y-65785713D02*
X170231009Y-65833332D01*
X170231009Y-65833332D02*
X170183390Y-65785713D01*
X170183390Y-65785713D02*
X170135771Y-65690475D01*
X170135771Y-65690475D02*
X170135771Y-65452380D01*
X170135771Y-65452380D02*
X170183390Y-65357142D01*
X170183390Y-65357142D02*
X170231009Y-65309523D01*
X170231009Y-65309523D02*
X170326247Y-65261904D01*
X170326247Y-65261904D02*
X170564342Y-65261904D01*
X170564342Y-65261904D02*
X170659580Y-65309523D01*
X170659580Y-65309523D02*
X170707200Y-65357142D01*
X170707200Y-65357142D02*
X170754819Y-65452380D01*
X170754819Y-65452380D02*
X170754819Y-65690475D01*
X170754819Y-65690475D02*
X170707200Y-65785713D01*
X170707200Y-65785713D02*
X170659580Y-65833332D01*
X167448452Y-70259580D02*
X167400833Y-70307200D01*
X167400833Y-70307200D02*
X167257976Y-70354819D01*
X167257976Y-70354819D02*
X167162738Y-70354819D01*
X167162738Y-70354819D02*
X167019881Y-70307200D01*
X167019881Y-70307200D02*
X166924643Y-70211961D01*
X166924643Y-70211961D02*
X166877024Y-70116723D01*
X166877024Y-70116723D02*
X166829405Y-69926247D01*
X166829405Y-69926247D02*
X166829405Y-69783390D01*
X166829405Y-69783390D02*
X166877024Y-69592914D01*
X166877024Y-69592914D02*
X166924643Y-69497676D01*
X166924643Y-69497676D02*
X167019881Y-69402438D01*
X167019881Y-69402438D02*
X167162738Y-69354819D01*
X167162738Y-69354819D02*
X167257976Y-69354819D01*
X167257976Y-69354819D02*
X167400833Y-69402438D01*
X167400833Y-69402438D02*
X167448452Y-69450057D01*
X167781786Y-69354819D02*
X168400833Y-69354819D01*
X168400833Y-69354819D02*
X168067500Y-69735771D01*
X168067500Y-69735771D02*
X168210357Y-69735771D01*
X168210357Y-69735771D02*
X168305595Y-69783390D01*
X168305595Y-69783390D02*
X168353214Y-69831009D01*
X168353214Y-69831009D02*
X168400833Y-69926247D01*
X168400833Y-69926247D02*
X168400833Y-70164342D01*
X168400833Y-70164342D02*
X168353214Y-70259580D01*
X168353214Y-70259580D02*
X168305595Y-70307200D01*
X168305595Y-70307200D02*
X168210357Y-70354819D01*
X168210357Y-70354819D02*
X167924643Y-70354819D01*
X167924643Y-70354819D02*
X167829405Y-70307200D01*
X167829405Y-70307200D02*
X167781786Y-70259580D01*
X169019881Y-69354819D02*
X169115119Y-69354819D01*
X169115119Y-69354819D02*
X169210357Y-69402438D01*
X169210357Y-69402438D02*
X169257976Y-69450057D01*
X169257976Y-69450057D02*
X169305595Y-69545295D01*
X169305595Y-69545295D02*
X169353214Y-69735771D01*
X169353214Y-69735771D02*
X169353214Y-69973866D01*
X169353214Y-69973866D02*
X169305595Y-70164342D01*
X169305595Y-70164342D02*
X169257976Y-70259580D01*
X169257976Y-70259580D02*
X169210357Y-70307200D01*
X169210357Y-70307200D02*
X169115119Y-70354819D01*
X169115119Y-70354819D02*
X169019881Y-70354819D01*
X169019881Y-70354819D02*
X168924643Y-70307200D01*
X168924643Y-70307200D02*
X168877024Y-70259580D01*
X168877024Y-70259580D02*
X168829405Y-70164342D01*
X168829405Y-70164342D02*
X168781786Y-69973866D01*
X168781786Y-69973866D02*
X168781786Y-69735771D01*
X168781786Y-69735771D02*
X168829405Y-69545295D01*
X168829405Y-69545295D02*
X168877024Y-69450057D01*
X168877024Y-69450057D02*
X168924643Y-69402438D01*
X168924643Y-69402438D02*
X169019881Y-69354819D01*
X170210357Y-69688152D02*
X170210357Y-70354819D01*
X169972262Y-69307200D02*
X169734167Y-70021485D01*
X169734167Y-70021485D02*
X170353214Y-70021485D01*
X173099580Y-77724047D02*
X173147200Y-77771666D01*
X173147200Y-77771666D02*
X173194819Y-77914523D01*
X173194819Y-77914523D02*
X173194819Y-78009761D01*
X173194819Y-78009761D02*
X173147200Y-78152618D01*
X173147200Y-78152618D02*
X173051961Y-78247856D01*
X173051961Y-78247856D02*
X172956723Y-78295475D01*
X172956723Y-78295475D02*
X172766247Y-78343094D01*
X172766247Y-78343094D02*
X172623390Y-78343094D01*
X172623390Y-78343094D02*
X172432914Y-78295475D01*
X172432914Y-78295475D02*
X172337676Y-78247856D01*
X172337676Y-78247856D02*
X172242438Y-78152618D01*
X172242438Y-78152618D02*
X172194819Y-78009761D01*
X172194819Y-78009761D02*
X172194819Y-77914523D01*
X172194819Y-77914523D02*
X172242438Y-77771666D01*
X172242438Y-77771666D02*
X172290057Y-77724047D01*
X172194819Y-77390713D02*
X172194819Y-76771666D01*
X172194819Y-76771666D02*
X172575771Y-77104999D01*
X172575771Y-77104999D02*
X172575771Y-76962142D01*
X172575771Y-76962142D02*
X172623390Y-76866904D01*
X172623390Y-76866904D02*
X172671009Y-76819285D01*
X172671009Y-76819285D02*
X172766247Y-76771666D01*
X172766247Y-76771666D02*
X173004342Y-76771666D01*
X173004342Y-76771666D02*
X173099580Y-76819285D01*
X173099580Y-76819285D02*
X173147200Y-76866904D01*
X173147200Y-76866904D02*
X173194819Y-76962142D01*
X173194819Y-76962142D02*
X173194819Y-77247856D01*
X173194819Y-77247856D02*
X173147200Y-77343094D01*
X173147200Y-77343094D02*
X173099580Y-77390713D01*
X172194819Y-76152618D02*
X172194819Y-76057380D01*
X172194819Y-76057380D02*
X172242438Y-75962142D01*
X172242438Y-75962142D02*
X172290057Y-75914523D01*
X172290057Y-75914523D02*
X172385295Y-75866904D01*
X172385295Y-75866904D02*
X172575771Y-75819285D01*
X172575771Y-75819285D02*
X172813866Y-75819285D01*
X172813866Y-75819285D02*
X173004342Y-75866904D01*
X173004342Y-75866904D02*
X173099580Y-75914523D01*
X173099580Y-75914523D02*
X173147200Y-75962142D01*
X173147200Y-75962142D02*
X173194819Y-76057380D01*
X173194819Y-76057380D02*
X173194819Y-76152618D01*
X173194819Y-76152618D02*
X173147200Y-76247856D01*
X173147200Y-76247856D02*
X173099580Y-76295475D01*
X173099580Y-76295475D02*
X173004342Y-76343094D01*
X173004342Y-76343094D02*
X172813866Y-76390713D01*
X172813866Y-76390713D02*
X172575771Y-76390713D01*
X172575771Y-76390713D02*
X172385295Y-76343094D01*
X172385295Y-76343094D02*
X172290057Y-76295475D01*
X172290057Y-76295475D02*
X172242438Y-76247856D01*
X172242438Y-76247856D02*
X172194819Y-76152618D01*
X172194819Y-75485951D02*
X172194819Y-74866904D01*
X172194819Y-74866904D02*
X172575771Y-75200237D01*
X172575771Y-75200237D02*
X172575771Y-75057380D01*
X172575771Y-75057380D02*
X172623390Y-74962142D01*
X172623390Y-74962142D02*
X172671009Y-74914523D01*
X172671009Y-74914523D02*
X172766247Y-74866904D01*
X172766247Y-74866904D02*
X173004342Y-74866904D01*
X173004342Y-74866904D02*
X173099580Y-74914523D01*
X173099580Y-74914523D02*
X173147200Y-74962142D01*
X173147200Y-74962142D02*
X173194819Y-75057380D01*
X173194819Y-75057380D02*
X173194819Y-75343094D01*
X173194819Y-75343094D02*
X173147200Y-75438332D01*
X173147200Y-75438332D02*
X173099580Y-75485951D01*
X161080952Y-76459580D02*
X161033333Y-76507200D01*
X161033333Y-76507200D02*
X160890476Y-76554819D01*
X160890476Y-76554819D02*
X160795238Y-76554819D01*
X160795238Y-76554819D02*
X160652381Y-76507200D01*
X160652381Y-76507200D02*
X160557143Y-76411961D01*
X160557143Y-76411961D02*
X160509524Y-76316723D01*
X160509524Y-76316723D02*
X160461905Y-76126247D01*
X160461905Y-76126247D02*
X160461905Y-75983390D01*
X160461905Y-75983390D02*
X160509524Y-75792914D01*
X160509524Y-75792914D02*
X160557143Y-75697676D01*
X160557143Y-75697676D02*
X160652381Y-75602438D01*
X160652381Y-75602438D02*
X160795238Y-75554819D01*
X160795238Y-75554819D02*
X160890476Y-75554819D01*
X160890476Y-75554819D02*
X161033333Y-75602438D01*
X161033333Y-75602438D02*
X161080952Y-75650057D01*
X161414286Y-75554819D02*
X162033333Y-75554819D01*
X162033333Y-75554819D02*
X161700000Y-75935771D01*
X161700000Y-75935771D02*
X161842857Y-75935771D01*
X161842857Y-75935771D02*
X161938095Y-75983390D01*
X161938095Y-75983390D02*
X161985714Y-76031009D01*
X161985714Y-76031009D02*
X162033333Y-76126247D01*
X162033333Y-76126247D02*
X162033333Y-76364342D01*
X162033333Y-76364342D02*
X161985714Y-76459580D01*
X161985714Y-76459580D02*
X161938095Y-76507200D01*
X161938095Y-76507200D02*
X161842857Y-76554819D01*
X161842857Y-76554819D02*
X161557143Y-76554819D01*
X161557143Y-76554819D02*
X161461905Y-76507200D01*
X161461905Y-76507200D02*
X161414286Y-76459580D01*
X162652381Y-75554819D02*
X162747619Y-75554819D01*
X162747619Y-75554819D02*
X162842857Y-75602438D01*
X162842857Y-75602438D02*
X162890476Y-75650057D01*
X162890476Y-75650057D02*
X162938095Y-75745295D01*
X162938095Y-75745295D02*
X162985714Y-75935771D01*
X162985714Y-75935771D02*
X162985714Y-76173866D01*
X162985714Y-76173866D02*
X162938095Y-76364342D01*
X162938095Y-76364342D02*
X162890476Y-76459580D01*
X162890476Y-76459580D02*
X162842857Y-76507200D01*
X162842857Y-76507200D02*
X162747619Y-76554819D01*
X162747619Y-76554819D02*
X162652381Y-76554819D01*
X162652381Y-76554819D02*
X162557143Y-76507200D01*
X162557143Y-76507200D02*
X162509524Y-76459580D01*
X162509524Y-76459580D02*
X162461905Y-76364342D01*
X162461905Y-76364342D02*
X162414286Y-76173866D01*
X162414286Y-76173866D02*
X162414286Y-75935771D01*
X162414286Y-75935771D02*
X162461905Y-75745295D01*
X162461905Y-75745295D02*
X162509524Y-75650057D01*
X162509524Y-75650057D02*
X162557143Y-75602438D01*
X162557143Y-75602438D02*
X162652381Y-75554819D01*
X163366667Y-75650057D02*
X163414286Y-75602438D01*
X163414286Y-75602438D02*
X163509524Y-75554819D01*
X163509524Y-75554819D02*
X163747619Y-75554819D01*
X163747619Y-75554819D02*
X163842857Y-75602438D01*
X163842857Y-75602438D02*
X163890476Y-75650057D01*
X163890476Y-75650057D02*
X163938095Y-75745295D01*
X163938095Y-75745295D02*
X163938095Y-75840533D01*
X163938095Y-75840533D02*
X163890476Y-75983390D01*
X163890476Y-75983390D02*
X163319048Y-76554819D01*
X163319048Y-76554819D02*
X163938095Y-76554819D01*
X177159580Y-77656547D02*
X177207200Y-77704166D01*
X177207200Y-77704166D02*
X177254819Y-77847023D01*
X177254819Y-77847023D02*
X177254819Y-77942261D01*
X177254819Y-77942261D02*
X177207200Y-78085118D01*
X177207200Y-78085118D02*
X177111961Y-78180356D01*
X177111961Y-78180356D02*
X177016723Y-78227975D01*
X177016723Y-78227975D02*
X176826247Y-78275594D01*
X176826247Y-78275594D02*
X176683390Y-78275594D01*
X176683390Y-78275594D02*
X176492914Y-78227975D01*
X176492914Y-78227975D02*
X176397676Y-78180356D01*
X176397676Y-78180356D02*
X176302438Y-78085118D01*
X176302438Y-78085118D02*
X176254819Y-77942261D01*
X176254819Y-77942261D02*
X176254819Y-77847023D01*
X176254819Y-77847023D02*
X176302438Y-77704166D01*
X176302438Y-77704166D02*
X176350057Y-77656547D01*
X176254819Y-77323213D02*
X176254819Y-76704166D01*
X176254819Y-76704166D02*
X176635771Y-77037499D01*
X176635771Y-77037499D02*
X176635771Y-76894642D01*
X176635771Y-76894642D02*
X176683390Y-76799404D01*
X176683390Y-76799404D02*
X176731009Y-76751785D01*
X176731009Y-76751785D02*
X176826247Y-76704166D01*
X176826247Y-76704166D02*
X177064342Y-76704166D01*
X177064342Y-76704166D02*
X177159580Y-76751785D01*
X177159580Y-76751785D02*
X177207200Y-76799404D01*
X177207200Y-76799404D02*
X177254819Y-76894642D01*
X177254819Y-76894642D02*
X177254819Y-77180356D01*
X177254819Y-77180356D02*
X177207200Y-77275594D01*
X177207200Y-77275594D02*
X177159580Y-77323213D01*
X176254819Y-76085118D02*
X176254819Y-75989880D01*
X176254819Y-75989880D02*
X176302438Y-75894642D01*
X176302438Y-75894642D02*
X176350057Y-75847023D01*
X176350057Y-75847023D02*
X176445295Y-75799404D01*
X176445295Y-75799404D02*
X176635771Y-75751785D01*
X176635771Y-75751785D02*
X176873866Y-75751785D01*
X176873866Y-75751785D02*
X177064342Y-75799404D01*
X177064342Y-75799404D02*
X177159580Y-75847023D01*
X177159580Y-75847023D02*
X177207200Y-75894642D01*
X177207200Y-75894642D02*
X177254819Y-75989880D01*
X177254819Y-75989880D02*
X177254819Y-76085118D01*
X177254819Y-76085118D02*
X177207200Y-76180356D01*
X177207200Y-76180356D02*
X177159580Y-76227975D01*
X177159580Y-76227975D02*
X177064342Y-76275594D01*
X177064342Y-76275594D02*
X176873866Y-76323213D01*
X176873866Y-76323213D02*
X176635771Y-76323213D01*
X176635771Y-76323213D02*
X176445295Y-76275594D01*
X176445295Y-76275594D02*
X176350057Y-76227975D01*
X176350057Y-76227975D02*
X176302438Y-76180356D01*
X176302438Y-76180356D02*
X176254819Y-76085118D01*
X177254819Y-74799404D02*
X177254819Y-75370832D01*
X177254819Y-75085118D02*
X176254819Y-75085118D01*
X176254819Y-75085118D02*
X176397676Y-75180356D01*
X176397676Y-75180356D02*
X176492914Y-75275594D01*
X176492914Y-75275594D02*
X176540533Y-75370832D01*
X165080952Y-89459580D02*
X165033333Y-89507200D01*
X165033333Y-89507200D02*
X164890476Y-89554819D01*
X164890476Y-89554819D02*
X164795238Y-89554819D01*
X164795238Y-89554819D02*
X164652381Y-89507200D01*
X164652381Y-89507200D02*
X164557143Y-89411961D01*
X164557143Y-89411961D02*
X164509524Y-89316723D01*
X164509524Y-89316723D02*
X164461905Y-89126247D01*
X164461905Y-89126247D02*
X164461905Y-88983390D01*
X164461905Y-88983390D02*
X164509524Y-88792914D01*
X164509524Y-88792914D02*
X164557143Y-88697676D01*
X164557143Y-88697676D02*
X164652381Y-88602438D01*
X164652381Y-88602438D02*
X164795238Y-88554819D01*
X164795238Y-88554819D02*
X164890476Y-88554819D01*
X164890476Y-88554819D02*
X165033333Y-88602438D01*
X165033333Y-88602438D02*
X165080952Y-88650057D01*
X165461905Y-88650057D02*
X165509524Y-88602438D01*
X165509524Y-88602438D02*
X165604762Y-88554819D01*
X165604762Y-88554819D02*
X165842857Y-88554819D01*
X165842857Y-88554819D02*
X165938095Y-88602438D01*
X165938095Y-88602438D02*
X165985714Y-88650057D01*
X165985714Y-88650057D02*
X166033333Y-88745295D01*
X166033333Y-88745295D02*
X166033333Y-88840533D01*
X166033333Y-88840533D02*
X165985714Y-88983390D01*
X165985714Y-88983390D02*
X165414286Y-89554819D01*
X165414286Y-89554819D02*
X166033333Y-89554819D01*
X166985714Y-89554819D02*
X166414286Y-89554819D01*
X166700000Y-89554819D02*
X166700000Y-88554819D01*
X166700000Y-88554819D02*
X166604762Y-88697676D01*
X166604762Y-88697676D02*
X166509524Y-88792914D01*
X166509524Y-88792914D02*
X166414286Y-88840533D01*
X167604762Y-88554819D02*
X167700000Y-88554819D01*
X167700000Y-88554819D02*
X167795238Y-88602438D01*
X167795238Y-88602438D02*
X167842857Y-88650057D01*
X167842857Y-88650057D02*
X167890476Y-88745295D01*
X167890476Y-88745295D02*
X167938095Y-88935771D01*
X167938095Y-88935771D02*
X167938095Y-89173866D01*
X167938095Y-89173866D02*
X167890476Y-89364342D01*
X167890476Y-89364342D02*
X167842857Y-89459580D01*
X167842857Y-89459580D02*
X167795238Y-89507200D01*
X167795238Y-89507200D02*
X167700000Y-89554819D01*
X167700000Y-89554819D02*
X167604762Y-89554819D01*
X167604762Y-89554819D02*
X167509524Y-89507200D01*
X167509524Y-89507200D02*
X167461905Y-89459580D01*
X167461905Y-89459580D02*
X167414286Y-89364342D01*
X167414286Y-89364342D02*
X167366667Y-89173866D01*
X167366667Y-89173866D02*
X167366667Y-88935771D01*
X167366667Y-88935771D02*
X167414286Y-88745295D01*
X167414286Y-88745295D02*
X167461905Y-88650057D01*
X167461905Y-88650057D02*
X167509524Y-88602438D01*
X167509524Y-88602438D02*
X167604762Y-88554819D01*
X164980952Y-91359580D02*
X164933333Y-91407200D01*
X164933333Y-91407200D02*
X164790476Y-91454819D01*
X164790476Y-91454819D02*
X164695238Y-91454819D01*
X164695238Y-91454819D02*
X164552381Y-91407200D01*
X164552381Y-91407200D02*
X164457143Y-91311961D01*
X164457143Y-91311961D02*
X164409524Y-91216723D01*
X164409524Y-91216723D02*
X164361905Y-91026247D01*
X164361905Y-91026247D02*
X164361905Y-90883390D01*
X164361905Y-90883390D02*
X164409524Y-90692914D01*
X164409524Y-90692914D02*
X164457143Y-90597676D01*
X164457143Y-90597676D02*
X164552381Y-90502438D01*
X164552381Y-90502438D02*
X164695238Y-90454819D01*
X164695238Y-90454819D02*
X164790476Y-90454819D01*
X164790476Y-90454819D02*
X164933333Y-90502438D01*
X164933333Y-90502438D02*
X164980952Y-90550057D01*
X165361905Y-90550057D02*
X165409524Y-90502438D01*
X165409524Y-90502438D02*
X165504762Y-90454819D01*
X165504762Y-90454819D02*
X165742857Y-90454819D01*
X165742857Y-90454819D02*
X165838095Y-90502438D01*
X165838095Y-90502438D02*
X165885714Y-90550057D01*
X165885714Y-90550057D02*
X165933333Y-90645295D01*
X165933333Y-90645295D02*
X165933333Y-90740533D01*
X165933333Y-90740533D02*
X165885714Y-90883390D01*
X165885714Y-90883390D02*
X165314286Y-91454819D01*
X165314286Y-91454819D02*
X165933333Y-91454819D01*
X166552381Y-90454819D02*
X166647619Y-90454819D01*
X166647619Y-90454819D02*
X166742857Y-90502438D01*
X166742857Y-90502438D02*
X166790476Y-90550057D01*
X166790476Y-90550057D02*
X166838095Y-90645295D01*
X166838095Y-90645295D02*
X166885714Y-90835771D01*
X166885714Y-90835771D02*
X166885714Y-91073866D01*
X166885714Y-91073866D02*
X166838095Y-91264342D01*
X166838095Y-91264342D02*
X166790476Y-91359580D01*
X166790476Y-91359580D02*
X166742857Y-91407200D01*
X166742857Y-91407200D02*
X166647619Y-91454819D01*
X166647619Y-91454819D02*
X166552381Y-91454819D01*
X166552381Y-91454819D02*
X166457143Y-91407200D01*
X166457143Y-91407200D02*
X166409524Y-91359580D01*
X166409524Y-91359580D02*
X166361905Y-91264342D01*
X166361905Y-91264342D02*
X166314286Y-91073866D01*
X166314286Y-91073866D02*
X166314286Y-90835771D01*
X166314286Y-90835771D02*
X166361905Y-90645295D01*
X166361905Y-90645295D02*
X166409524Y-90550057D01*
X166409524Y-90550057D02*
X166457143Y-90502438D01*
X166457143Y-90502438D02*
X166552381Y-90454819D01*
X167361905Y-91454819D02*
X167552381Y-91454819D01*
X167552381Y-91454819D02*
X167647619Y-91407200D01*
X167647619Y-91407200D02*
X167695238Y-91359580D01*
X167695238Y-91359580D02*
X167790476Y-91216723D01*
X167790476Y-91216723D02*
X167838095Y-91026247D01*
X167838095Y-91026247D02*
X167838095Y-90645295D01*
X167838095Y-90645295D02*
X167790476Y-90550057D01*
X167790476Y-90550057D02*
X167742857Y-90502438D01*
X167742857Y-90502438D02*
X167647619Y-90454819D01*
X167647619Y-90454819D02*
X167457143Y-90454819D01*
X167457143Y-90454819D02*
X167361905Y-90502438D01*
X167361905Y-90502438D02*
X167314286Y-90550057D01*
X167314286Y-90550057D02*
X167266667Y-90645295D01*
X167266667Y-90645295D02*
X167266667Y-90883390D01*
X167266667Y-90883390D02*
X167314286Y-90978628D01*
X167314286Y-90978628D02*
X167361905Y-91026247D01*
X167361905Y-91026247D02*
X167457143Y-91073866D01*
X167457143Y-91073866D02*
X167647619Y-91073866D01*
X167647619Y-91073866D02*
X167742857Y-91026247D01*
X167742857Y-91026247D02*
X167790476Y-90978628D01*
X167790476Y-90978628D02*
X167838095Y-90883390D01*
X191129580Y-79629047D02*
X191177200Y-79676666D01*
X191177200Y-79676666D02*
X191224819Y-79819523D01*
X191224819Y-79819523D02*
X191224819Y-79914761D01*
X191224819Y-79914761D02*
X191177200Y-80057618D01*
X191177200Y-80057618D02*
X191081961Y-80152856D01*
X191081961Y-80152856D02*
X190986723Y-80200475D01*
X190986723Y-80200475D02*
X190796247Y-80248094D01*
X190796247Y-80248094D02*
X190653390Y-80248094D01*
X190653390Y-80248094D02*
X190462914Y-80200475D01*
X190462914Y-80200475D02*
X190367676Y-80152856D01*
X190367676Y-80152856D02*
X190272438Y-80057618D01*
X190272438Y-80057618D02*
X190224819Y-79914761D01*
X190224819Y-79914761D02*
X190224819Y-79819523D01*
X190224819Y-79819523D02*
X190272438Y-79676666D01*
X190272438Y-79676666D02*
X190320057Y-79629047D01*
X190320057Y-79248094D02*
X190272438Y-79200475D01*
X190272438Y-79200475D02*
X190224819Y-79105237D01*
X190224819Y-79105237D02*
X190224819Y-78867142D01*
X190224819Y-78867142D02*
X190272438Y-78771904D01*
X190272438Y-78771904D02*
X190320057Y-78724285D01*
X190320057Y-78724285D02*
X190415295Y-78676666D01*
X190415295Y-78676666D02*
X190510533Y-78676666D01*
X190510533Y-78676666D02*
X190653390Y-78724285D01*
X190653390Y-78724285D02*
X191224819Y-79295713D01*
X191224819Y-79295713D02*
X191224819Y-78676666D01*
X190224819Y-78057618D02*
X190224819Y-77962380D01*
X190224819Y-77962380D02*
X190272438Y-77867142D01*
X190272438Y-77867142D02*
X190320057Y-77819523D01*
X190320057Y-77819523D02*
X190415295Y-77771904D01*
X190415295Y-77771904D02*
X190605771Y-77724285D01*
X190605771Y-77724285D02*
X190843866Y-77724285D01*
X190843866Y-77724285D02*
X191034342Y-77771904D01*
X191034342Y-77771904D02*
X191129580Y-77819523D01*
X191129580Y-77819523D02*
X191177200Y-77867142D01*
X191177200Y-77867142D02*
X191224819Y-77962380D01*
X191224819Y-77962380D02*
X191224819Y-78057618D01*
X191224819Y-78057618D02*
X191177200Y-78152856D01*
X191177200Y-78152856D02*
X191129580Y-78200475D01*
X191129580Y-78200475D02*
X191034342Y-78248094D01*
X191034342Y-78248094D02*
X190843866Y-78295713D01*
X190843866Y-78295713D02*
X190605771Y-78295713D01*
X190605771Y-78295713D02*
X190415295Y-78248094D01*
X190415295Y-78248094D02*
X190320057Y-78200475D01*
X190320057Y-78200475D02*
X190272438Y-78152856D01*
X190272438Y-78152856D02*
X190224819Y-78057618D01*
X190653390Y-77152856D02*
X190605771Y-77248094D01*
X190605771Y-77248094D02*
X190558152Y-77295713D01*
X190558152Y-77295713D02*
X190462914Y-77343332D01*
X190462914Y-77343332D02*
X190415295Y-77343332D01*
X190415295Y-77343332D02*
X190320057Y-77295713D01*
X190320057Y-77295713D02*
X190272438Y-77248094D01*
X190272438Y-77248094D02*
X190224819Y-77152856D01*
X190224819Y-77152856D02*
X190224819Y-76962380D01*
X190224819Y-76962380D02*
X190272438Y-76867142D01*
X190272438Y-76867142D02*
X190320057Y-76819523D01*
X190320057Y-76819523D02*
X190415295Y-76771904D01*
X190415295Y-76771904D02*
X190462914Y-76771904D01*
X190462914Y-76771904D02*
X190558152Y-76819523D01*
X190558152Y-76819523D02*
X190605771Y-76867142D01*
X190605771Y-76867142D02*
X190653390Y-76962380D01*
X190653390Y-76962380D02*
X190653390Y-77152856D01*
X190653390Y-77152856D02*
X190701009Y-77248094D01*
X190701009Y-77248094D02*
X190748628Y-77295713D01*
X190748628Y-77295713D02*
X190843866Y-77343332D01*
X190843866Y-77343332D02*
X191034342Y-77343332D01*
X191034342Y-77343332D02*
X191129580Y-77295713D01*
X191129580Y-77295713D02*
X191177200Y-77248094D01*
X191177200Y-77248094D02*
X191224819Y-77152856D01*
X191224819Y-77152856D02*
X191224819Y-76962380D01*
X191224819Y-76962380D02*
X191177200Y-76867142D01*
X191177200Y-76867142D02*
X191129580Y-76819523D01*
X191129580Y-76819523D02*
X191034342Y-76771904D01*
X191034342Y-76771904D02*
X190843866Y-76771904D01*
X190843866Y-76771904D02*
X190748628Y-76819523D01*
X190748628Y-76819523D02*
X190701009Y-76867142D01*
X190701009Y-76867142D02*
X190653390Y-76962380D01*
X189680952Y-84959580D02*
X189633333Y-85007200D01*
X189633333Y-85007200D02*
X189490476Y-85054819D01*
X189490476Y-85054819D02*
X189395238Y-85054819D01*
X189395238Y-85054819D02*
X189252381Y-85007200D01*
X189252381Y-85007200D02*
X189157143Y-84911961D01*
X189157143Y-84911961D02*
X189109524Y-84816723D01*
X189109524Y-84816723D02*
X189061905Y-84626247D01*
X189061905Y-84626247D02*
X189061905Y-84483390D01*
X189061905Y-84483390D02*
X189109524Y-84292914D01*
X189109524Y-84292914D02*
X189157143Y-84197676D01*
X189157143Y-84197676D02*
X189252381Y-84102438D01*
X189252381Y-84102438D02*
X189395238Y-84054819D01*
X189395238Y-84054819D02*
X189490476Y-84054819D01*
X189490476Y-84054819D02*
X189633333Y-84102438D01*
X189633333Y-84102438D02*
X189680952Y-84150057D01*
X190061905Y-84150057D02*
X190109524Y-84102438D01*
X190109524Y-84102438D02*
X190204762Y-84054819D01*
X190204762Y-84054819D02*
X190442857Y-84054819D01*
X190442857Y-84054819D02*
X190538095Y-84102438D01*
X190538095Y-84102438D02*
X190585714Y-84150057D01*
X190585714Y-84150057D02*
X190633333Y-84245295D01*
X190633333Y-84245295D02*
X190633333Y-84340533D01*
X190633333Y-84340533D02*
X190585714Y-84483390D01*
X190585714Y-84483390D02*
X190014286Y-85054819D01*
X190014286Y-85054819D02*
X190633333Y-85054819D01*
X191252381Y-84054819D02*
X191347619Y-84054819D01*
X191347619Y-84054819D02*
X191442857Y-84102438D01*
X191442857Y-84102438D02*
X191490476Y-84150057D01*
X191490476Y-84150057D02*
X191538095Y-84245295D01*
X191538095Y-84245295D02*
X191585714Y-84435771D01*
X191585714Y-84435771D02*
X191585714Y-84673866D01*
X191585714Y-84673866D02*
X191538095Y-84864342D01*
X191538095Y-84864342D02*
X191490476Y-84959580D01*
X191490476Y-84959580D02*
X191442857Y-85007200D01*
X191442857Y-85007200D02*
X191347619Y-85054819D01*
X191347619Y-85054819D02*
X191252381Y-85054819D01*
X191252381Y-85054819D02*
X191157143Y-85007200D01*
X191157143Y-85007200D02*
X191109524Y-84959580D01*
X191109524Y-84959580D02*
X191061905Y-84864342D01*
X191061905Y-84864342D02*
X191014286Y-84673866D01*
X191014286Y-84673866D02*
X191014286Y-84435771D01*
X191014286Y-84435771D02*
X191061905Y-84245295D01*
X191061905Y-84245295D02*
X191109524Y-84150057D01*
X191109524Y-84150057D02*
X191157143Y-84102438D01*
X191157143Y-84102438D02*
X191252381Y-84054819D01*
X191919048Y-84054819D02*
X192585714Y-84054819D01*
X192585714Y-84054819D02*
X192157143Y-85054819D01*
X189859580Y-98119047D02*
X189907200Y-98166666D01*
X189907200Y-98166666D02*
X189954819Y-98309523D01*
X189954819Y-98309523D02*
X189954819Y-98404761D01*
X189954819Y-98404761D02*
X189907200Y-98547618D01*
X189907200Y-98547618D02*
X189811961Y-98642856D01*
X189811961Y-98642856D02*
X189716723Y-98690475D01*
X189716723Y-98690475D02*
X189526247Y-98738094D01*
X189526247Y-98738094D02*
X189383390Y-98738094D01*
X189383390Y-98738094D02*
X189192914Y-98690475D01*
X189192914Y-98690475D02*
X189097676Y-98642856D01*
X189097676Y-98642856D02*
X189002438Y-98547618D01*
X189002438Y-98547618D02*
X188954819Y-98404761D01*
X188954819Y-98404761D02*
X188954819Y-98309523D01*
X188954819Y-98309523D02*
X189002438Y-98166666D01*
X189002438Y-98166666D02*
X189050057Y-98119047D01*
X189050057Y-97738094D02*
X189002438Y-97690475D01*
X189002438Y-97690475D02*
X188954819Y-97595237D01*
X188954819Y-97595237D02*
X188954819Y-97357142D01*
X188954819Y-97357142D02*
X189002438Y-97261904D01*
X189002438Y-97261904D02*
X189050057Y-97214285D01*
X189050057Y-97214285D02*
X189145295Y-97166666D01*
X189145295Y-97166666D02*
X189240533Y-97166666D01*
X189240533Y-97166666D02*
X189383390Y-97214285D01*
X189383390Y-97214285D02*
X189954819Y-97785713D01*
X189954819Y-97785713D02*
X189954819Y-97166666D01*
X188954819Y-96547618D02*
X188954819Y-96452380D01*
X188954819Y-96452380D02*
X189002438Y-96357142D01*
X189002438Y-96357142D02*
X189050057Y-96309523D01*
X189050057Y-96309523D02*
X189145295Y-96261904D01*
X189145295Y-96261904D02*
X189335771Y-96214285D01*
X189335771Y-96214285D02*
X189573866Y-96214285D01*
X189573866Y-96214285D02*
X189764342Y-96261904D01*
X189764342Y-96261904D02*
X189859580Y-96309523D01*
X189859580Y-96309523D02*
X189907200Y-96357142D01*
X189907200Y-96357142D02*
X189954819Y-96452380D01*
X189954819Y-96452380D02*
X189954819Y-96547618D01*
X189954819Y-96547618D02*
X189907200Y-96642856D01*
X189907200Y-96642856D02*
X189859580Y-96690475D01*
X189859580Y-96690475D02*
X189764342Y-96738094D01*
X189764342Y-96738094D02*
X189573866Y-96785713D01*
X189573866Y-96785713D02*
X189335771Y-96785713D01*
X189335771Y-96785713D02*
X189145295Y-96738094D01*
X189145295Y-96738094D02*
X189050057Y-96690475D01*
X189050057Y-96690475D02*
X189002438Y-96642856D01*
X189002438Y-96642856D02*
X188954819Y-96547618D01*
X188954819Y-95357142D02*
X188954819Y-95547618D01*
X188954819Y-95547618D02*
X189002438Y-95642856D01*
X189002438Y-95642856D02*
X189050057Y-95690475D01*
X189050057Y-95690475D02*
X189192914Y-95785713D01*
X189192914Y-95785713D02*
X189383390Y-95833332D01*
X189383390Y-95833332D02*
X189764342Y-95833332D01*
X189764342Y-95833332D02*
X189859580Y-95785713D01*
X189859580Y-95785713D02*
X189907200Y-95738094D01*
X189907200Y-95738094D02*
X189954819Y-95642856D01*
X189954819Y-95642856D02*
X189954819Y-95452380D01*
X189954819Y-95452380D02*
X189907200Y-95357142D01*
X189907200Y-95357142D02*
X189859580Y-95309523D01*
X189859580Y-95309523D02*
X189764342Y-95261904D01*
X189764342Y-95261904D02*
X189526247Y-95261904D01*
X189526247Y-95261904D02*
X189431009Y-95309523D01*
X189431009Y-95309523D02*
X189383390Y-95357142D01*
X189383390Y-95357142D02*
X189335771Y-95452380D01*
X189335771Y-95452380D02*
X189335771Y-95642856D01*
X189335771Y-95642856D02*
X189383390Y-95738094D01*
X189383390Y-95738094D02*
X189431009Y-95785713D01*
X189431009Y-95785713D02*
X189526247Y-95833332D01*
X189780952Y-103459580D02*
X189733333Y-103507200D01*
X189733333Y-103507200D02*
X189590476Y-103554819D01*
X189590476Y-103554819D02*
X189495238Y-103554819D01*
X189495238Y-103554819D02*
X189352381Y-103507200D01*
X189352381Y-103507200D02*
X189257143Y-103411961D01*
X189257143Y-103411961D02*
X189209524Y-103316723D01*
X189209524Y-103316723D02*
X189161905Y-103126247D01*
X189161905Y-103126247D02*
X189161905Y-102983390D01*
X189161905Y-102983390D02*
X189209524Y-102792914D01*
X189209524Y-102792914D02*
X189257143Y-102697676D01*
X189257143Y-102697676D02*
X189352381Y-102602438D01*
X189352381Y-102602438D02*
X189495238Y-102554819D01*
X189495238Y-102554819D02*
X189590476Y-102554819D01*
X189590476Y-102554819D02*
X189733333Y-102602438D01*
X189733333Y-102602438D02*
X189780952Y-102650057D01*
X190161905Y-102650057D02*
X190209524Y-102602438D01*
X190209524Y-102602438D02*
X190304762Y-102554819D01*
X190304762Y-102554819D02*
X190542857Y-102554819D01*
X190542857Y-102554819D02*
X190638095Y-102602438D01*
X190638095Y-102602438D02*
X190685714Y-102650057D01*
X190685714Y-102650057D02*
X190733333Y-102745295D01*
X190733333Y-102745295D02*
X190733333Y-102840533D01*
X190733333Y-102840533D02*
X190685714Y-102983390D01*
X190685714Y-102983390D02*
X190114286Y-103554819D01*
X190114286Y-103554819D02*
X190733333Y-103554819D01*
X191352381Y-102554819D02*
X191447619Y-102554819D01*
X191447619Y-102554819D02*
X191542857Y-102602438D01*
X191542857Y-102602438D02*
X191590476Y-102650057D01*
X191590476Y-102650057D02*
X191638095Y-102745295D01*
X191638095Y-102745295D02*
X191685714Y-102935771D01*
X191685714Y-102935771D02*
X191685714Y-103173866D01*
X191685714Y-103173866D02*
X191638095Y-103364342D01*
X191638095Y-103364342D02*
X191590476Y-103459580D01*
X191590476Y-103459580D02*
X191542857Y-103507200D01*
X191542857Y-103507200D02*
X191447619Y-103554819D01*
X191447619Y-103554819D02*
X191352381Y-103554819D01*
X191352381Y-103554819D02*
X191257143Y-103507200D01*
X191257143Y-103507200D02*
X191209524Y-103459580D01*
X191209524Y-103459580D02*
X191161905Y-103364342D01*
X191161905Y-103364342D02*
X191114286Y-103173866D01*
X191114286Y-103173866D02*
X191114286Y-102935771D01*
X191114286Y-102935771D02*
X191161905Y-102745295D01*
X191161905Y-102745295D02*
X191209524Y-102650057D01*
X191209524Y-102650057D02*
X191257143Y-102602438D01*
X191257143Y-102602438D02*
X191352381Y-102554819D01*
X192590476Y-102554819D02*
X192114286Y-102554819D01*
X192114286Y-102554819D02*
X192066667Y-103031009D01*
X192066667Y-103031009D02*
X192114286Y-102983390D01*
X192114286Y-102983390D02*
X192209524Y-102935771D01*
X192209524Y-102935771D02*
X192447619Y-102935771D01*
X192447619Y-102935771D02*
X192542857Y-102983390D01*
X192542857Y-102983390D02*
X192590476Y-103031009D01*
X192590476Y-103031009D02*
X192638095Y-103126247D01*
X192638095Y-103126247D02*
X192638095Y-103364342D01*
X192638095Y-103364342D02*
X192590476Y-103459580D01*
X192590476Y-103459580D02*
X192542857Y-103507200D01*
X192542857Y-103507200D02*
X192447619Y-103554819D01*
X192447619Y-103554819D02*
X192209524Y-103554819D01*
X192209524Y-103554819D02*
X192114286Y-103507200D01*
X192114286Y-103507200D02*
X192066667Y-103459580D01*
X182159580Y-74419047D02*
X182207200Y-74466666D01*
X182207200Y-74466666D02*
X182254819Y-74609523D01*
X182254819Y-74609523D02*
X182254819Y-74704761D01*
X182254819Y-74704761D02*
X182207200Y-74847618D01*
X182207200Y-74847618D02*
X182111961Y-74942856D01*
X182111961Y-74942856D02*
X182016723Y-74990475D01*
X182016723Y-74990475D02*
X181826247Y-75038094D01*
X181826247Y-75038094D02*
X181683390Y-75038094D01*
X181683390Y-75038094D02*
X181492914Y-74990475D01*
X181492914Y-74990475D02*
X181397676Y-74942856D01*
X181397676Y-74942856D02*
X181302438Y-74847618D01*
X181302438Y-74847618D02*
X181254819Y-74704761D01*
X181254819Y-74704761D02*
X181254819Y-74609523D01*
X181254819Y-74609523D02*
X181302438Y-74466666D01*
X181302438Y-74466666D02*
X181350057Y-74419047D01*
X181350057Y-74038094D02*
X181302438Y-73990475D01*
X181302438Y-73990475D02*
X181254819Y-73895237D01*
X181254819Y-73895237D02*
X181254819Y-73657142D01*
X181254819Y-73657142D02*
X181302438Y-73561904D01*
X181302438Y-73561904D02*
X181350057Y-73514285D01*
X181350057Y-73514285D02*
X181445295Y-73466666D01*
X181445295Y-73466666D02*
X181540533Y-73466666D01*
X181540533Y-73466666D02*
X181683390Y-73514285D01*
X181683390Y-73514285D02*
X182254819Y-74085713D01*
X182254819Y-74085713D02*
X182254819Y-73466666D01*
X181254819Y-72847618D02*
X181254819Y-72752380D01*
X181254819Y-72752380D02*
X181302438Y-72657142D01*
X181302438Y-72657142D02*
X181350057Y-72609523D01*
X181350057Y-72609523D02*
X181445295Y-72561904D01*
X181445295Y-72561904D02*
X181635771Y-72514285D01*
X181635771Y-72514285D02*
X181873866Y-72514285D01*
X181873866Y-72514285D02*
X182064342Y-72561904D01*
X182064342Y-72561904D02*
X182159580Y-72609523D01*
X182159580Y-72609523D02*
X182207200Y-72657142D01*
X182207200Y-72657142D02*
X182254819Y-72752380D01*
X182254819Y-72752380D02*
X182254819Y-72847618D01*
X182254819Y-72847618D02*
X182207200Y-72942856D01*
X182207200Y-72942856D02*
X182159580Y-72990475D01*
X182159580Y-72990475D02*
X182064342Y-73038094D01*
X182064342Y-73038094D02*
X181873866Y-73085713D01*
X181873866Y-73085713D02*
X181635771Y-73085713D01*
X181635771Y-73085713D02*
X181445295Y-73038094D01*
X181445295Y-73038094D02*
X181350057Y-72990475D01*
X181350057Y-72990475D02*
X181302438Y-72942856D01*
X181302438Y-72942856D02*
X181254819Y-72847618D01*
X181350057Y-72133332D02*
X181302438Y-72085713D01*
X181302438Y-72085713D02*
X181254819Y-71990475D01*
X181254819Y-71990475D02*
X181254819Y-71752380D01*
X181254819Y-71752380D02*
X181302438Y-71657142D01*
X181302438Y-71657142D02*
X181350057Y-71609523D01*
X181350057Y-71609523D02*
X181445295Y-71561904D01*
X181445295Y-71561904D02*
X181540533Y-71561904D01*
X181540533Y-71561904D02*
X181683390Y-71609523D01*
X181683390Y-71609523D02*
X182254819Y-72180951D01*
X182254819Y-72180951D02*
X182254819Y-71561904D01*
X182159580Y-92919047D02*
X182207200Y-92966666D01*
X182207200Y-92966666D02*
X182254819Y-93109523D01*
X182254819Y-93109523D02*
X182254819Y-93204761D01*
X182254819Y-93204761D02*
X182207200Y-93347618D01*
X182207200Y-93347618D02*
X182111961Y-93442856D01*
X182111961Y-93442856D02*
X182016723Y-93490475D01*
X182016723Y-93490475D02*
X181826247Y-93538094D01*
X181826247Y-93538094D02*
X181683390Y-93538094D01*
X181683390Y-93538094D02*
X181492914Y-93490475D01*
X181492914Y-93490475D02*
X181397676Y-93442856D01*
X181397676Y-93442856D02*
X181302438Y-93347618D01*
X181302438Y-93347618D02*
X181254819Y-93204761D01*
X181254819Y-93204761D02*
X181254819Y-93109523D01*
X181254819Y-93109523D02*
X181302438Y-92966666D01*
X181302438Y-92966666D02*
X181350057Y-92919047D01*
X181350057Y-92538094D02*
X181302438Y-92490475D01*
X181302438Y-92490475D02*
X181254819Y-92395237D01*
X181254819Y-92395237D02*
X181254819Y-92157142D01*
X181254819Y-92157142D02*
X181302438Y-92061904D01*
X181302438Y-92061904D02*
X181350057Y-92014285D01*
X181350057Y-92014285D02*
X181445295Y-91966666D01*
X181445295Y-91966666D02*
X181540533Y-91966666D01*
X181540533Y-91966666D02*
X181683390Y-92014285D01*
X181683390Y-92014285D02*
X182254819Y-92585713D01*
X182254819Y-92585713D02*
X182254819Y-91966666D01*
X181254819Y-91347618D02*
X181254819Y-91252380D01*
X181254819Y-91252380D02*
X181302438Y-91157142D01*
X181302438Y-91157142D02*
X181350057Y-91109523D01*
X181350057Y-91109523D02*
X181445295Y-91061904D01*
X181445295Y-91061904D02*
X181635771Y-91014285D01*
X181635771Y-91014285D02*
X181873866Y-91014285D01*
X181873866Y-91014285D02*
X182064342Y-91061904D01*
X182064342Y-91061904D02*
X182159580Y-91109523D01*
X182159580Y-91109523D02*
X182207200Y-91157142D01*
X182207200Y-91157142D02*
X182254819Y-91252380D01*
X182254819Y-91252380D02*
X182254819Y-91347618D01*
X182254819Y-91347618D02*
X182207200Y-91442856D01*
X182207200Y-91442856D02*
X182159580Y-91490475D01*
X182159580Y-91490475D02*
X182064342Y-91538094D01*
X182064342Y-91538094D02*
X181873866Y-91585713D01*
X181873866Y-91585713D02*
X181635771Y-91585713D01*
X181635771Y-91585713D02*
X181445295Y-91538094D01*
X181445295Y-91538094D02*
X181350057Y-91490475D01*
X181350057Y-91490475D02*
X181302438Y-91442856D01*
X181302438Y-91442856D02*
X181254819Y-91347618D01*
X182254819Y-90061904D02*
X182254819Y-90633332D01*
X182254819Y-90347618D02*
X181254819Y-90347618D01*
X181254819Y-90347618D02*
X181397676Y-90442856D01*
X181397676Y-90442856D02*
X181492914Y-90538094D01*
X181492914Y-90538094D02*
X181540533Y-90633332D01*
X156313452Y-104159580D02*
X156265833Y-104207200D01*
X156265833Y-104207200D02*
X156122976Y-104254819D01*
X156122976Y-104254819D02*
X156027738Y-104254819D01*
X156027738Y-104254819D02*
X155884881Y-104207200D01*
X155884881Y-104207200D02*
X155789643Y-104111961D01*
X155789643Y-104111961D02*
X155742024Y-104016723D01*
X155742024Y-104016723D02*
X155694405Y-103826247D01*
X155694405Y-103826247D02*
X155694405Y-103683390D01*
X155694405Y-103683390D02*
X155742024Y-103492914D01*
X155742024Y-103492914D02*
X155789643Y-103397676D01*
X155789643Y-103397676D02*
X155884881Y-103302438D01*
X155884881Y-103302438D02*
X156027738Y-103254819D01*
X156027738Y-103254819D02*
X156122976Y-103254819D01*
X156122976Y-103254819D02*
X156265833Y-103302438D01*
X156265833Y-103302438D02*
X156313452Y-103350057D01*
X157265833Y-104254819D02*
X156694405Y-104254819D01*
X156980119Y-104254819D02*
X156980119Y-103254819D01*
X156980119Y-103254819D02*
X156884881Y-103397676D01*
X156884881Y-103397676D02*
X156789643Y-103492914D01*
X156789643Y-103492914D02*
X156694405Y-103540533D01*
X158218214Y-104254819D02*
X157646786Y-104254819D01*
X157932500Y-104254819D02*
X157932500Y-103254819D01*
X157932500Y-103254819D02*
X157837262Y-103397676D01*
X157837262Y-103397676D02*
X157742024Y-103492914D01*
X157742024Y-103492914D02*
X157646786Y-103540533D01*
X158599167Y-103350057D02*
X158646786Y-103302438D01*
X158646786Y-103302438D02*
X158742024Y-103254819D01*
X158742024Y-103254819D02*
X158980119Y-103254819D01*
X158980119Y-103254819D02*
X159075357Y-103302438D01*
X159075357Y-103302438D02*
X159122976Y-103350057D01*
X159122976Y-103350057D02*
X159170595Y-103445295D01*
X159170595Y-103445295D02*
X159170595Y-103540533D01*
X159170595Y-103540533D02*
X159122976Y-103683390D01*
X159122976Y-103683390D02*
X158551548Y-104254819D01*
X158551548Y-104254819D02*
X159170595Y-104254819D01*
X156213452Y-102859580D02*
X156165833Y-102907200D01*
X156165833Y-102907200D02*
X156022976Y-102954819D01*
X156022976Y-102954819D02*
X155927738Y-102954819D01*
X155927738Y-102954819D02*
X155784881Y-102907200D01*
X155784881Y-102907200D02*
X155689643Y-102811961D01*
X155689643Y-102811961D02*
X155642024Y-102716723D01*
X155642024Y-102716723D02*
X155594405Y-102526247D01*
X155594405Y-102526247D02*
X155594405Y-102383390D01*
X155594405Y-102383390D02*
X155642024Y-102192914D01*
X155642024Y-102192914D02*
X155689643Y-102097676D01*
X155689643Y-102097676D02*
X155784881Y-102002438D01*
X155784881Y-102002438D02*
X155927738Y-101954819D01*
X155927738Y-101954819D02*
X156022976Y-101954819D01*
X156022976Y-101954819D02*
X156165833Y-102002438D01*
X156165833Y-102002438D02*
X156213452Y-102050057D01*
X157165833Y-102954819D02*
X156594405Y-102954819D01*
X156880119Y-102954819D02*
X156880119Y-101954819D01*
X156880119Y-101954819D02*
X156784881Y-102097676D01*
X156784881Y-102097676D02*
X156689643Y-102192914D01*
X156689643Y-102192914D02*
X156594405Y-102240533D01*
X158118214Y-102954819D02*
X157546786Y-102954819D01*
X157832500Y-102954819D02*
X157832500Y-101954819D01*
X157832500Y-101954819D02*
X157737262Y-102097676D01*
X157737262Y-102097676D02*
X157642024Y-102192914D01*
X157642024Y-102192914D02*
X157546786Y-102240533D01*
X159070595Y-102954819D02*
X158499167Y-102954819D01*
X158784881Y-102954819D02*
X158784881Y-101954819D01*
X158784881Y-101954819D02*
X158689643Y-102097676D01*
X158689643Y-102097676D02*
X158594405Y-102192914D01*
X158594405Y-102192914D02*
X158499167Y-102240533D01*
X166713452Y-101959580D02*
X166665833Y-102007200D01*
X166665833Y-102007200D02*
X166522976Y-102054819D01*
X166522976Y-102054819D02*
X166427738Y-102054819D01*
X166427738Y-102054819D02*
X166284881Y-102007200D01*
X166284881Y-102007200D02*
X166189643Y-101911961D01*
X166189643Y-101911961D02*
X166142024Y-101816723D01*
X166142024Y-101816723D02*
X166094405Y-101626247D01*
X166094405Y-101626247D02*
X166094405Y-101483390D01*
X166094405Y-101483390D02*
X166142024Y-101292914D01*
X166142024Y-101292914D02*
X166189643Y-101197676D01*
X166189643Y-101197676D02*
X166284881Y-101102438D01*
X166284881Y-101102438D02*
X166427738Y-101054819D01*
X166427738Y-101054819D02*
X166522976Y-101054819D01*
X166522976Y-101054819D02*
X166665833Y-101102438D01*
X166665833Y-101102438D02*
X166713452Y-101150057D01*
X167665833Y-102054819D02*
X167094405Y-102054819D01*
X167380119Y-102054819D02*
X167380119Y-101054819D01*
X167380119Y-101054819D02*
X167284881Y-101197676D01*
X167284881Y-101197676D02*
X167189643Y-101292914D01*
X167189643Y-101292914D02*
X167094405Y-101340533D01*
X168618214Y-102054819D02*
X168046786Y-102054819D01*
X168332500Y-102054819D02*
X168332500Y-101054819D01*
X168332500Y-101054819D02*
X168237262Y-101197676D01*
X168237262Y-101197676D02*
X168142024Y-101292914D01*
X168142024Y-101292914D02*
X168046786Y-101340533D01*
X169237262Y-101054819D02*
X169332500Y-101054819D01*
X169332500Y-101054819D02*
X169427738Y-101102438D01*
X169427738Y-101102438D02*
X169475357Y-101150057D01*
X169475357Y-101150057D02*
X169522976Y-101245295D01*
X169522976Y-101245295D02*
X169570595Y-101435771D01*
X169570595Y-101435771D02*
X169570595Y-101673866D01*
X169570595Y-101673866D02*
X169522976Y-101864342D01*
X169522976Y-101864342D02*
X169475357Y-101959580D01*
X169475357Y-101959580D02*
X169427738Y-102007200D01*
X169427738Y-102007200D02*
X169332500Y-102054819D01*
X169332500Y-102054819D02*
X169237262Y-102054819D01*
X169237262Y-102054819D02*
X169142024Y-102007200D01*
X169142024Y-102007200D02*
X169094405Y-101959580D01*
X169094405Y-101959580D02*
X169046786Y-101864342D01*
X169046786Y-101864342D02*
X168999167Y-101673866D01*
X168999167Y-101673866D02*
X168999167Y-101435771D01*
X168999167Y-101435771D02*
X169046786Y-101245295D01*
X169046786Y-101245295D02*
X169094405Y-101150057D01*
X169094405Y-101150057D02*
X169142024Y-101102438D01*
X169142024Y-101102438D02*
X169237262Y-101054819D01*
X165713452Y-103259580D02*
X165665833Y-103307200D01*
X165665833Y-103307200D02*
X165522976Y-103354819D01*
X165522976Y-103354819D02*
X165427738Y-103354819D01*
X165427738Y-103354819D02*
X165284881Y-103307200D01*
X165284881Y-103307200D02*
X165189643Y-103211961D01*
X165189643Y-103211961D02*
X165142024Y-103116723D01*
X165142024Y-103116723D02*
X165094405Y-102926247D01*
X165094405Y-102926247D02*
X165094405Y-102783390D01*
X165094405Y-102783390D02*
X165142024Y-102592914D01*
X165142024Y-102592914D02*
X165189643Y-102497676D01*
X165189643Y-102497676D02*
X165284881Y-102402438D01*
X165284881Y-102402438D02*
X165427738Y-102354819D01*
X165427738Y-102354819D02*
X165522976Y-102354819D01*
X165522976Y-102354819D02*
X165665833Y-102402438D01*
X165665833Y-102402438D02*
X165713452Y-102450057D01*
X166665833Y-103354819D02*
X166094405Y-103354819D01*
X166380119Y-103354819D02*
X166380119Y-102354819D01*
X166380119Y-102354819D02*
X166284881Y-102497676D01*
X166284881Y-102497676D02*
X166189643Y-102592914D01*
X166189643Y-102592914D02*
X166094405Y-102640533D01*
X167284881Y-102354819D02*
X167380119Y-102354819D01*
X167380119Y-102354819D02*
X167475357Y-102402438D01*
X167475357Y-102402438D02*
X167522976Y-102450057D01*
X167522976Y-102450057D02*
X167570595Y-102545295D01*
X167570595Y-102545295D02*
X167618214Y-102735771D01*
X167618214Y-102735771D02*
X167618214Y-102973866D01*
X167618214Y-102973866D02*
X167570595Y-103164342D01*
X167570595Y-103164342D02*
X167522976Y-103259580D01*
X167522976Y-103259580D02*
X167475357Y-103307200D01*
X167475357Y-103307200D02*
X167380119Y-103354819D01*
X167380119Y-103354819D02*
X167284881Y-103354819D01*
X167284881Y-103354819D02*
X167189643Y-103307200D01*
X167189643Y-103307200D02*
X167142024Y-103259580D01*
X167142024Y-103259580D02*
X167094405Y-103164342D01*
X167094405Y-103164342D02*
X167046786Y-102973866D01*
X167046786Y-102973866D02*
X167046786Y-102735771D01*
X167046786Y-102735771D02*
X167094405Y-102545295D01*
X167094405Y-102545295D02*
X167142024Y-102450057D01*
X167142024Y-102450057D02*
X167189643Y-102402438D01*
X167189643Y-102402438D02*
X167284881Y-102354819D01*
X168094405Y-103354819D02*
X168284881Y-103354819D01*
X168284881Y-103354819D02*
X168380119Y-103307200D01*
X168380119Y-103307200D02*
X168427738Y-103259580D01*
X168427738Y-103259580D02*
X168522976Y-103116723D01*
X168522976Y-103116723D02*
X168570595Y-102926247D01*
X168570595Y-102926247D02*
X168570595Y-102545295D01*
X168570595Y-102545295D02*
X168522976Y-102450057D01*
X168522976Y-102450057D02*
X168475357Y-102402438D01*
X168475357Y-102402438D02*
X168380119Y-102354819D01*
X168380119Y-102354819D02*
X168189643Y-102354819D01*
X168189643Y-102354819D02*
X168094405Y-102402438D01*
X168094405Y-102402438D02*
X168046786Y-102450057D01*
X168046786Y-102450057D02*
X167999167Y-102545295D01*
X167999167Y-102545295D02*
X167999167Y-102783390D01*
X167999167Y-102783390D02*
X168046786Y-102878628D01*
X168046786Y-102878628D02*
X168094405Y-102926247D01*
X168094405Y-102926247D02*
X168189643Y-102973866D01*
X168189643Y-102973866D02*
X168380119Y-102973866D01*
X168380119Y-102973866D02*
X168475357Y-102926247D01*
X168475357Y-102926247D02*
X168522976Y-102878628D01*
X168522976Y-102878628D02*
X168570595Y-102783390D01*
X154429580Y-90499047D02*
X154477200Y-90546666D01*
X154477200Y-90546666D02*
X154524819Y-90689523D01*
X154524819Y-90689523D02*
X154524819Y-90784761D01*
X154524819Y-90784761D02*
X154477200Y-90927618D01*
X154477200Y-90927618D02*
X154381961Y-91022856D01*
X154381961Y-91022856D02*
X154286723Y-91070475D01*
X154286723Y-91070475D02*
X154096247Y-91118094D01*
X154096247Y-91118094D02*
X153953390Y-91118094D01*
X153953390Y-91118094D02*
X153762914Y-91070475D01*
X153762914Y-91070475D02*
X153667676Y-91022856D01*
X153667676Y-91022856D02*
X153572438Y-90927618D01*
X153572438Y-90927618D02*
X153524819Y-90784761D01*
X153524819Y-90784761D02*
X153524819Y-90689523D01*
X153524819Y-90689523D02*
X153572438Y-90546666D01*
X153572438Y-90546666D02*
X153620057Y-90499047D01*
X154524819Y-89546666D02*
X154524819Y-90118094D01*
X154524819Y-89832380D02*
X153524819Y-89832380D01*
X153524819Y-89832380D02*
X153667676Y-89927618D01*
X153667676Y-89927618D02*
X153762914Y-90022856D01*
X153762914Y-90022856D02*
X153810533Y-90118094D01*
X153524819Y-88927618D02*
X153524819Y-88832380D01*
X153524819Y-88832380D02*
X153572438Y-88737142D01*
X153572438Y-88737142D02*
X153620057Y-88689523D01*
X153620057Y-88689523D02*
X153715295Y-88641904D01*
X153715295Y-88641904D02*
X153905771Y-88594285D01*
X153905771Y-88594285D02*
X154143866Y-88594285D01*
X154143866Y-88594285D02*
X154334342Y-88641904D01*
X154334342Y-88641904D02*
X154429580Y-88689523D01*
X154429580Y-88689523D02*
X154477200Y-88737142D01*
X154477200Y-88737142D02*
X154524819Y-88832380D01*
X154524819Y-88832380D02*
X154524819Y-88927618D01*
X154524819Y-88927618D02*
X154477200Y-89022856D01*
X154477200Y-89022856D02*
X154429580Y-89070475D01*
X154429580Y-89070475D02*
X154334342Y-89118094D01*
X154334342Y-89118094D02*
X154143866Y-89165713D01*
X154143866Y-89165713D02*
X153905771Y-89165713D01*
X153905771Y-89165713D02*
X153715295Y-89118094D01*
X153715295Y-89118094D02*
X153620057Y-89070475D01*
X153620057Y-89070475D02*
X153572438Y-89022856D01*
X153572438Y-89022856D02*
X153524819Y-88927618D01*
X153953390Y-88022856D02*
X153905771Y-88118094D01*
X153905771Y-88118094D02*
X153858152Y-88165713D01*
X153858152Y-88165713D02*
X153762914Y-88213332D01*
X153762914Y-88213332D02*
X153715295Y-88213332D01*
X153715295Y-88213332D02*
X153620057Y-88165713D01*
X153620057Y-88165713D02*
X153572438Y-88118094D01*
X153572438Y-88118094D02*
X153524819Y-88022856D01*
X153524819Y-88022856D02*
X153524819Y-87832380D01*
X153524819Y-87832380D02*
X153572438Y-87737142D01*
X153572438Y-87737142D02*
X153620057Y-87689523D01*
X153620057Y-87689523D02*
X153715295Y-87641904D01*
X153715295Y-87641904D02*
X153762914Y-87641904D01*
X153762914Y-87641904D02*
X153858152Y-87689523D01*
X153858152Y-87689523D02*
X153905771Y-87737142D01*
X153905771Y-87737142D02*
X153953390Y-87832380D01*
X153953390Y-87832380D02*
X153953390Y-88022856D01*
X153953390Y-88022856D02*
X154001009Y-88118094D01*
X154001009Y-88118094D02*
X154048628Y-88165713D01*
X154048628Y-88165713D02*
X154143866Y-88213332D01*
X154143866Y-88213332D02*
X154334342Y-88213332D01*
X154334342Y-88213332D02*
X154429580Y-88165713D01*
X154429580Y-88165713D02*
X154477200Y-88118094D01*
X154477200Y-88118094D02*
X154524819Y-88022856D01*
X154524819Y-88022856D02*
X154524819Y-87832380D01*
X154524819Y-87832380D02*
X154477200Y-87737142D01*
X154477200Y-87737142D02*
X154429580Y-87689523D01*
X154429580Y-87689523D02*
X154334342Y-87641904D01*
X154334342Y-87641904D02*
X154143866Y-87641904D01*
X154143866Y-87641904D02*
X154048628Y-87689523D01*
X154048628Y-87689523D02*
X154001009Y-87737142D01*
X154001009Y-87737142D02*
X153953390Y-87832380D01*
X165813452Y-104459580D02*
X165765833Y-104507200D01*
X165765833Y-104507200D02*
X165622976Y-104554819D01*
X165622976Y-104554819D02*
X165527738Y-104554819D01*
X165527738Y-104554819D02*
X165384881Y-104507200D01*
X165384881Y-104507200D02*
X165289643Y-104411961D01*
X165289643Y-104411961D02*
X165242024Y-104316723D01*
X165242024Y-104316723D02*
X165194405Y-104126247D01*
X165194405Y-104126247D02*
X165194405Y-103983390D01*
X165194405Y-103983390D02*
X165242024Y-103792914D01*
X165242024Y-103792914D02*
X165289643Y-103697676D01*
X165289643Y-103697676D02*
X165384881Y-103602438D01*
X165384881Y-103602438D02*
X165527738Y-103554819D01*
X165527738Y-103554819D02*
X165622976Y-103554819D01*
X165622976Y-103554819D02*
X165765833Y-103602438D01*
X165765833Y-103602438D02*
X165813452Y-103650057D01*
X166765833Y-104554819D02*
X166194405Y-104554819D01*
X166480119Y-104554819D02*
X166480119Y-103554819D01*
X166480119Y-103554819D02*
X166384881Y-103697676D01*
X166384881Y-103697676D02*
X166289643Y-103792914D01*
X166289643Y-103792914D02*
X166194405Y-103840533D01*
X167384881Y-103554819D02*
X167480119Y-103554819D01*
X167480119Y-103554819D02*
X167575357Y-103602438D01*
X167575357Y-103602438D02*
X167622976Y-103650057D01*
X167622976Y-103650057D02*
X167670595Y-103745295D01*
X167670595Y-103745295D02*
X167718214Y-103935771D01*
X167718214Y-103935771D02*
X167718214Y-104173866D01*
X167718214Y-104173866D02*
X167670595Y-104364342D01*
X167670595Y-104364342D02*
X167622976Y-104459580D01*
X167622976Y-104459580D02*
X167575357Y-104507200D01*
X167575357Y-104507200D02*
X167480119Y-104554819D01*
X167480119Y-104554819D02*
X167384881Y-104554819D01*
X167384881Y-104554819D02*
X167289643Y-104507200D01*
X167289643Y-104507200D02*
X167242024Y-104459580D01*
X167242024Y-104459580D02*
X167194405Y-104364342D01*
X167194405Y-104364342D02*
X167146786Y-104173866D01*
X167146786Y-104173866D02*
X167146786Y-103935771D01*
X167146786Y-103935771D02*
X167194405Y-103745295D01*
X167194405Y-103745295D02*
X167242024Y-103650057D01*
X167242024Y-103650057D02*
X167289643Y-103602438D01*
X167289643Y-103602438D02*
X167384881Y-103554819D01*
X168051548Y-103554819D02*
X168718214Y-103554819D01*
X168718214Y-103554819D02*
X168289643Y-104554819D01*
X153899580Y-94851547D02*
X153947200Y-94899166D01*
X153947200Y-94899166D02*
X153994819Y-95042023D01*
X153994819Y-95042023D02*
X153994819Y-95137261D01*
X153994819Y-95137261D02*
X153947200Y-95280118D01*
X153947200Y-95280118D02*
X153851961Y-95375356D01*
X153851961Y-95375356D02*
X153756723Y-95422975D01*
X153756723Y-95422975D02*
X153566247Y-95470594D01*
X153566247Y-95470594D02*
X153423390Y-95470594D01*
X153423390Y-95470594D02*
X153232914Y-95422975D01*
X153232914Y-95422975D02*
X153137676Y-95375356D01*
X153137676Y-95375356D02*
X153042438Y-95280118D01*
X153042438Y-95280118D02*
X152994819Y-95137261D01*
X152994819Y-95137261D02*
X152994819Y-95042023D01*
X152994819Y-95042023D02*
X153042438Y-94899166D01*
X153042438Y-94899166D02*
X153090057Y-94851547D01*
X153994819Y-93899166D02*
X153994819Y-94470594D01*
X153994819Y-94184880D02*
X152994819Y-94184880D01*
X152994819Y-94184880D02*
X153137676Y-94280118D01*
X153137676Y-94280118D02*
X153232914Y-94375356D01*
X153232914Y-94375356D02*
X153280533Y-94470594D01*
X152994819Y-93280118D02*
X152994819Y-93184880D01*
X152994819Y-93184880D02*
X153042438Y-93089642D01*
X153042438Y-93089642D02*
X153090057Y-93042023D01*
X153090057Y-93042023D02*
X153185295Y-92994404D01*
X153185295Y-92994404D02*
X153375771Y-92946785D01*
X153375771Y-92946785D02*
X153613866Y-92946785D01*
X153613866Y-92946785D02*
X153804342Y-92994404D01*
X153804342Y-92994404D02*
X153899580Y-93042023D01*
X153899580Y-93042023D02*
X153947200Y-93089642D01*
X153947200Y-93089642D02*
X153994819Y-93184880D01*
X153994819Y-93184880D02*
X153994819Y-93280118D01*
X153994819Y-93280118D02*
X153947200Y-93375356D01*
X153947200Y-93375356D02*
X153899580Y-93422975D01*
X153899580Y-93422975D02*
X153804342Y-93470594D01*
X153804342Y-93470594D02*
X153613866Y-93518213D01*
X153613866Y-93518213D02*
X153375771Y-93518213D01*
X153375771Y-93518213D02*
X153185295Y-93470594D01*
X153185295Y-93470594D02*
X153090057Y-93422975D01*
X153090057Y-93422975D02*
X153042438Y-93375356D01*
X153042438Y-93375356D02*
X152994819Y-93280118D01*
X152994819Y-92089642D02*
X152994819Y-92280118D01*
X152994819Y-92280118D02*
X153042438Y-92375356D01*
X153042438Y-92375356D02*
X153090057Y-92422975D01*
X153090057Y-92422975D02*
X153232914Y-92518213D01*
X153232914Y-92518213D02*
X153423390Y-92565832D01*
X153423390Y-92565832D02*
X153804342Y-92565832D01*
X153804342Y-92565832D02*
X153899580Y-92518213D01*
X153899580Y-92518213D02*
X153947200Y-92470594D01*
X153947200Y-92470594D02*
X153994819Y-92375356D01*
X153994819Y-92375356D02*
X153994819Y-92184880D01*
X153994819Y-92184880D02*
X153947200Y-92089642D01*
X153947200Y-92089642D02*
X153899580Y-92042023D01*
X153899580Y-92042023D02*
X153804342Y-91994404D01*
X153804342Y-91994404D02*
X153566247Y-91994404D01*
X153566247Y-91994404D02*
X153471009Y-92042023D01*
X153471009Y-92042023D02*
X153423390Y-92089642D01*
X153423390Y-92089642D02*
X153375771Y-92184880D01*
X153375771Y-92184880D02*
X153375771Y-92375356D01*
X153375771Y-92375356D02*
X153423390Y-92470594D01*
X153423390Y-92470594D02*
X153471009Y-92518213D01*
X153471009Y-92518213D02*
X153566247Y-92565832D01*
X147459580Y-102019047D02*
X147507200Y-102066666D01*
X147507200Y-102066666D02*
X147554819Y-102209523D01*
X147554819Y-102209523D02*
X147554819Y-102304761D01*
X147554819Y-102304761D02*
X147507200Y-102447618D01*
X147507200Y-102447618D02*
X147411961Y-102542856D01*
X147411961Y-102542856D02*
X147316723Y-102590475D01*
X147316723Y-102590475D02*
X147126247Y-102638094D01*
X147126247Y-102638094D02*
X146983390Y-102638094D01*
X146983390Y-102638094D02*
X146792914Y-102590475D01*
X146792914Y-102590475D02*
X146697676Y-102542856D01*
X146697676Y-102542856D02*
X146602438Y-102447618D01*
X146602438Y-102447618D02*
X146554819Y-102304761D01*
X146554819Y-102304761D02*
X146554819Y-102209523D01*
X146554819Y-102209523D02*
X146602438Y-102066666D01*
X146602438Y-102066666D02*
X146650057Y-102019047D01*
X147554819Y-101066666D02*
X147554819Y-101638094D01*
X147554819Y-101352380D02*
X146554819Y-101352380D01*
X146554819Y-101352380D02*
X146697676Y-101447618D01*
X146697676Y-101447618D02*
X146792914Y-101542856D01*
X146792914Y-101542856D02*
X146840533Y-101638094D01*
X146554819Y-100447618D02*
X146554819Y-100352380D01*
X146554819Y-100352380D02*
X146602438Y-100257142D01*
X146602438Y-100257142D02*
X146650057Y-100209523D01*
X146650057Y-100209523D02*
X146745295Y-100161904D01*
X146745295Y-100161904D02*
X146935771Y-100114285D01*
X146935771Y-100114285D02*
X147173866Y-100114285D01*
X147173866Y-100114285D02*
X147364342Y-100161904D01*
X147364342Y-100161904D02*
X147459580Y-100209523D01*
X147459580Y-100209523D02*
X147507200Y-100257142D01*
X147507200Y-100257142D02*
X147554819Y-100352380D01*
X147554819Y-100352380D02*
X147554819Y-100447618D01*
X147554819Y-100447618D02*
X147507200Y-100542856D01*
X147507200Y-100542856D02*
X147459580Y-100590475D01*
X147459580Y-100590475D02*
X147364342Y-100638094D01*
X147364342Y-100638094D02*
X147173866Y-100685713D01*
X147173866Y-100685713D02*
X146935771Y-100685713D01*
X146935771Y-100685713D02*
X146745295Y-100638094D01*
X146745295Y-100638094D02*
X146650057Y-100590475D01*
X146650057Y-100590475D02*
X146602438Y-100542856D01*
X146602438Y-100542856D02*
X146554819Y-100447618D01*
X146554819Y-99209523D02*
X146554819Y-99685713D01*
X146554819Y-99685713D02*
X147031009Y-99733332D01*
X147031009Y-99733332D02*
X146983390Y-99685713D01*
X146983390Y-99685713D02*
X146935771Y-99590475D01*
X146935771Y-99590475D02*
X146935771Y-99352380D01*
X146935771Y-99352380D02*
X146983390Y-99257142D01*
X146983390Y-99257142D02*
X147031009Y-99209523D01*
X147031009Y-99209523D02*
X147126247Y-99161904D01*
X147126247Y-99161904D02*
X147364342Y-99161904D01*
X147364342Y-99161904D02*
X147459580Y-99209523D01*
X147459580Y-99209523D02*
X147507200Y-99257142D01*
X147507200Y-99257142D02*
X147554819Y-99352380D01*
X147554819Y-99352380D02*
X147554819Y-99590475D01*
X147554819Y-99590475D02*
X147507200Y-99685713D01*
X147507200Y-99685713D02*
X147459580Y-99733332D01*
X165380952Y-93649580D02*
X165333333Y-93697200D01*
X165333333Y-93697200D02*
X165190476Y-93744819D01*
X165190476Y-93744819D02*
X165095238Y-93744819D01*
X165095238Y-93744819D02*
X164952381Y-93697200D01*
X164952381Y-93697200D02*
X164857143Y-93601961D01*
X164857143Y-93601961D02*
X164809524Y-93506723D01*
X164809524Y-93506723D02*
X164761905Y-93316247D01*
X164761905Y-93316247D02*
X164761905Y-93173390D01*
X164761905Y-93173390D02*
X164809524Y-92982914D01*
X164809524Y-92982914D02*
X164857143Y-92887676D01*
X164857143Y-92887676D02*
X164952381Y-92792438D01*
X164952381Y-92792438D02*
X165095238Y-92744819D01*
X165095238Y-92744819D02*
X165190476Y-92744819D01*
X165190476Y-92744819D02*
X165333333Y-92792438D01*
X165333333Y-92792438D02*
X165380952Y-92840057D01*
X166333333Y-93744819D02*
X165761905Y-93744819D01*
X166047619Y-93744819D02*
X166047619Y-92744819D01*
X166047619Y-92744819D02*
X165952381Y-92887676D01*
X165952381Y-92887676D02*
X165857143Y-92982914D01*
X165857143Y-92982914D02*
X165761905Y-93030533D01*
X166952381Y-92744819D02*
X167047619Y-92744819D01*
X167047619Y-92744819D02*
X167142857Y-92792438D01*
X167142857Y-92792438D02*
X167190476Y-92840057D01*
X167190476Y-92840057D02*
X167238095Y-92935295D01*
X167238095Y-92935295D02*
X167285714Y-93125771D01*
X167285714Y-93125771D02*
X167285714Y-93363866D01*
X167285714Y-93363866D02*
X167238095Y-93554342D01*
X167238095Y-93554342D02*
X167190476Y-93649580D01*
X167190476Y-93649580D02*
X167142857Y-93697200D01*
X167142857Y-93697200D02*
X167047619Y-93744819D01*
X167047619Y-93744819D02*
X166952381Y-93744819D01*
X166952381Y-93744819D02*
X166857143Y-93697200D01*
X166857143Y-93697200D02*
X166809524Y-93649580D01*
X166809524Y-93649580D02*
X166761905Y-93554342D01*
X166761905Y-93554342D02*
X166714286Y-93363866D01*
X166714286Y-93363866D02*
X166714286Y-93125771D01*
X166714286Y-93125771D02*
X166761905Y-92935295D01*
X166761905Y-92935295D02*
X166809524Y-92840057D01*
X166809524Y-92840057D02*
X166857143Y-92792438D01*
X166857143Y-92792438D02*
X166952381Y-92744819D01*
X168142857Y-93078152D02*
X168142857Y-93744819D01*
X167904762Y-92697200D02*
X167666667Y-93411485D01*
X167666667Y-93411485D02*
X168285714Y-93411485D01*
X155570952Y-87959580D02*
X155523333Y-88007200D01*
X155523333Y-88007200D02*
X155380476Y-88054819D01*
X155380476Y-88054819D02*
X155285238Y-88054819D01*
X155285238Y-88054819D02*
X155142381Y-88007200D01*
X155142381Y-88007200D02*
X155047143Y-87911961D01*
X155047143Y-87911961D02*
X154999524Y-87816723D01*
X154999524Y-87816723D02*
X154951905Y-87626247D01*
X154951905Y-87626247D02*
X154951905Y-87483390D01*
X154951905Y-87483390D02*
X154999524Y-87292914D01*
X154999524Y-87292914D02*
X155047143Y-87197676D01*
X155047143Y-87197676D02*
X155142381Y-87102438D01*
X155142381Y-87102438D02*
X155285238Y-87054819D01*
X155285238Y-87054819D02*
X155380476Y-87054819D01*
X155380476Y-87054819D02*
X155523333Y-87102438D01*
X155523333Y-87102438D02*
X155570952Y-87150057D01*
X156523333Y-88054819D02*
X155951905Y-88054819D01*
X156237619Y-88054819D02*
X156237619Y-87054819D01*
X156237619Y-87054819D02*
X156142381Y-87197676D01*
X156142381Y-87197676D02*
X156047143Y-87292914D01*
X156047143Y-87292914D02*
X155951905Y-87340533D01*
X157142381Y-87054819D02*
X157237619Y-87054819D01*
X157237619Y-87054819D02*
X157332857Y-87102438D01*
X157332857Y-87102438D02*
X157380476Y-87150057D01*
X157380476Y-87150057D02*
X157428095Y-87245295D01*
X157428095Y-87245295D02*
X157475714Y-87435771D01*
X157475714Y-87435771D02*
X157475714Y-87673866D01*
X157475714Y-87673866D02*
X157428095Y-87864342D01*
X157428095Y-87864342D02*
X157380476Y-87959580D01*
X157380476Y-87959580D02*
X157332857Y-88007200D01*
X157332857Y-88007200D02*
X157237619Y-88054819D01*
X157237619Y-88054819D02*
X157142381Y-88054819D01*
X157142381Y-88054819D02*
X157047143Y-88007200D01*
X157047143Y-88007200D02*
X156999524Y-87959580D01*
X156999524Y-87959580D02*
X156951905Y-87864342D01*
X156951905Y-87864342D02*
X156904286Y-87673866D01*
X156904286Y-87673866D02*
X156904286Y-87435771D01*
X156904286Y-87435771D02*
X156951905Y-87245295D01*
X156951905Y-87245295D02*
X156999524Y-87150057D01*
X156999524Y-87150057D02*
X157047143Y-87102438D01*
X157047143Y-87102438D02*
X157142381Y-87054819D01*
X157809048Y-87054819D02*
X158428095Y-87054819D01*
X158428095Y-87054819D02*
X158094762Y-87435771D01*
X158094762Y-87435771D02*
X158237619Y-87435771D01*
X158237619Y-87435771D02*
X158332857Y-87483390D01*
X158332857Y-87483390D02*
X158380476Y-87531009D01*
X158380476Y-87531009D02*
X158428095Y-87626247D01*
X158428095Y-87626247D02*
X158428095Y-87864342D01*
X158428095Y-87864342D02*
X158380476Y-87959580D01*
X158380476Y-87959580D02*
X158332857Y-88007200D01*
X158332857Y-88007200D02*
X158237619Y-88054819D01*
X158237619Y-88054819D02*
X157951905Y-88054819D01*
X157951905Y-88054819D02*
X157856667Y-88007200D01*
X157856667Y-88007200D02*
X157809048Y-87959580D01*
X193354819Y-82635714D02*
X194069104Y-82635714D01*
X194069104Y-82635714D02*
X194211961Y-82683333D01*
X194211961Y-82683333D02*
X194307200Y-82778571D01*
X194307200Y-82778571D02*
X194354819Y-82921428D01*
X194354819Y-82921428D02*
X194354819Y-83016666D01*
X193450057Y-82207142D02*
X193402438Y-82159523D01*
X193402438Y-82159523D02*
X193354819Y-82064285D01*
X193354819Y-82064285D02*
X193354819Y-81826190D01*
X193354819Y-81826190D02*
X193402438Y-81730952D01*
X193402438Y-81730952D02*
X193450057Y-81683333D01*
X193450057Y-81683333D02*
X193545295Y-81635714D01*
X193545295Y-81635714D02*
X193640533Y-81635714D01*
X193640533Y-81635714D02*
X193783390Y-81683333D01*
X193783390Y-81683333D02*
X194354819Y-82254761D01*
X194354819Y-82254761D02*
X194354819Y-81635714D01*
X193354819Y-81016666D02*
X193354819Y-80921428D01*
X193354819Y-80921428D02*
X193402438Y-80826190D01*
X193402438Y-80826190D02*
X193450057Y-80778571D01*
X193450057Y-80778571D02*
X193545295Y-80730952D01*
X193545295Y-80730952D02*
X193735771Y-80683333D01*
X193735771Y-80683333D02*
X193973866Y-80683333D01*
X193973866Y-80683333D02*
X194164342Y-80730952D01*
X194164342Y-80730952D02*
X194259580Y-80778571D01*
X194259580Y-80778571D02*
X194307200Y-80826190D01*
X194307200Y-80826190D02*
X194354819Y-80921428D01*
X194354819Y-80921428D02*
X194354819Y-81016666D01*
X194354819Y-81016666D02*
X194307200Y-81111904D01*
X194307200Y-81111904D02*
X194259580Y-81159523D01*
X194259580Y-81159523D02*
X194164342Y-81207142D01*
X194164342Y-81207142D02*
X193973866Y-81254761D01*
X193973866Y-81254761D02*
X193735771Y-81254761D01*
X193735771Y-81254761D02*
X193545295Y-81207142D01*
X193545295Y-81207142D02*
X193450057Y-81159523D01*
X193450057Y-81159523D02*
X193402438Y-81111904D01*
X193402438Y-81111904D02*
X193354819Y-81016666D01*
X193450057Y-80302380D02*
X193402438Y-80254761D01*
X193402438Y-80254761D02*
X193354819Y-80159523D01*
X193354819Y-80159523D02*
X193354819Y-79921428D01*
X193354819Y-79921428D02*
X193402438Y-79826190D01*
X193402438Y-79826190D02*
X193450057Y-79778571D01*
X193450057Y-79778571D02*
X193545295Y-79730952D01*
X193545295Y-79730952D02*
X193640533Y-79730952D01*
X193640533Y-79730952D02*
X193783390Y-79778571D01*
X193783390Y-79778571D02*
X194354819Y-80349999D01*
X194354819Y-80349999D02*
X194354819Y-79730952D01*
X192885714Y-111557719D02*
X192885714Y-110557719D01*
X192885714Y-111033909D02*
X193457142Y-111033909D01*
X193457142Y-111557719D02*
X193457142Y-110557719D01*
X194457142Y-111557719D02*
X193885714Y-111557719D01*
X194171428Y-111557719D02*
X194171428Y-110557719D01*
X194171428Y-110557719D02*
X194076190Y-110700576D01*
X194076190Y-110700576D02*
X193980952Y-110795814D01*
X193980952Y-110795814D02*
X193885714Y-110843433D01*
X195076190Y-110557719D02*
X195171428Y-110557719D01*
X195171428Y-110557719D02*
X195266666Y-110605338D01*
X195266666Y-110605338D02*
X195314285Y-110652957D01*
X195314285Y-110652957D02*
X195361904Y-110748195D01*
X195361904Y-110748195D02*
X195409523Y-110938671D01*
X195409523Y-110938671D02*
X195409523Y-111176766D01*
X195409523Y-111176766D02*
X195361904Y-111367242D01*
X195361904Y-111367242D02*
X195314285Y-111462480D01*
X195314285Y-111462480D02*
X195266666Y-111510100D01*
X195266666Y-111510100D02*
X195171428Y-111557719D01*
X195171428Y-111557719D02*
X195076190Y-111557719D01*
X195076190Y-111557719D02*
X194980952Y-111510100D01*
X194980952Y-111510100D02*
X194933333Y-111462480D01*
X194933333Y-111462480D02*
X194885714Y-111367242D01*
X194885714Y-111367242D02*
X194838095Y-111176766D01*
X194838095Y-111176766D02*
X194838095Y-110938671D01*
X194838095Y-110938671D02*
X194885714Y-110748195D01*
X194885714Y-110748195D02*
X194933333Y-110652957D01*
X194933333Y-110652957D02*
X194980952Y-110605338D01*
X194980952Y-110605338D02*
X195076190Y-110557719D01*
X196266666Y-110891052D02*
X196266666Y-111557719D01*
X196028571Y-110510100D02*
X195790476Y-111224385D01*
X195790476Y-111224385D02*
X196409523Y-111224385D01*
X180654819Y-82114285D02*
X181464342Y-82114285D01*
X181464342Y-82114285D02*
X181559580Y-82066666D01*
X181559580Y-82066666D02*
X181607200Y-82019047D01*
X181607200Y-82019047D02*
X181654819Y-81923809D01*
X181654819Y-81923809D02*
X181654819Y-81733333D01*
X181654819Y-81733333D02*
X181607200Y-81638095D01*
X181607200Y-81638095D02*
X181559580Y-81590476D01*
X181559580Y-81590476D02*
X181464342Y-81542857D01*
X181464342Y-81542857D02*
X180654819Y-81542857D01*
X180750057Y-81114285D02*
X180702438Y-81066666D01*
X180702438Y-81066666D02*
X180654819Y-80971428D01*
X180654819Y-80971428D02*
X180654819Y-80733333D01*
X180654819Y-80733333D02*
X180702438Y-80638095D01*
X180702438Y-80638095D02*
X180750057Y-80590476D01*
X180750057Y-80590476D02*
X180845295Y-80542857D01*
X180845295Y-80542857D02*
X180940533Y-80542857D01*
X180940533Y-80542857D02*
X181083390Y-80590476D01*
X181083390Y-80590476D02*
X181654819Y-81161904D01*
X181654819Y-81161904D02*
X181654819Y-80542857D01*
X180654819Y-79923809D02*
X180654819Y-79828571D01*
X180654819Y-79828571D02*
X180702438Y-79733333D01*
X180702438Y-79733333D02*
X180750057Y-79685714D01*
X180750057Y-79685714D02*
X180845295Y-79638095D01*
X180845295Y-79638095D02*
X181035771Y-79590476D01*
X181035771Y-79590476D02*
X181273866Y-79590476D01*
X181273866Y-79590476D02*
X181464342Y-79638095D01*
X181464342Y-79638095D02*
X181559580Y-79685714D01*
X181559580Y-79685714D02*
X181607200Y-79733333D01*
X181607200Y-79733333D02*
X181654819Y-79828571D01*
X181654819Y-79828571D02*
X181654819Y-79923809D01*
X181654819Y-79923809D02*
X181607200Y-80019047D01*
X181607200Y-80019047D02*
X181559580Y-80066666D01*
X181559580Y-80066666D02*
X181464342Y-80114285D01*
X181464342Y-80114285D02*
X181273866Y-80161904D01*
X181273866Y-80161904D02*
X181035771Y-80161904D01*
X181035771Y-80161904D02*
X180845295Y-80114285D01*
X180845295Y-80114285D02*
X180750057Y-80066666D01*
X180750057Y-80066666D02*
X180702438Y-80019047D01*
X180702438Y-80019047D02*
X180654819Y-79923809D01*
X180750057Y-79209523D02*
X180702438Y-79161904D01*
X180702438Y-79161904D02*
X180654819Y-79066666D01*
X180654819Y-79066666D02*
X180654819Y-78828571D01*
X180654819Y-78828571D02*
X180702438Y-78733333D01*
X180702438Y-78733333D02*
X180750057Y-78685714D01*
X180750057Y-78685714D02*
X180845295Y-78638095D01*
X180845295Y-78638095D02*
X180940533Y-78638095D01*
X180940533Y-78638095D02*
X181083390Y-78685714D01*
X181083390Y-78685714D02*
X181654819Y-79257142D01*
X181654819Y-79257142D02*
X181654819Y-78638095D01*
X176914285Y-61754819D02*
X176914285Y-62469104D01*
X176914285Y-62469104D02*
X176866666Y-62611961D01*
X176866666Y-62611961D02*
X176771428Y-62707200D01*
X176771428Y-62707200D02*
X176628571Y-62754819D01*
X176628571Y-62754819D02*
X176533333Y-62754819D01*
X177295238Y-61754819D02*
X177914285Y-61754819D01*
X177914285Y-61754819D02*
X177580952Y-62135771D01*
X177580952Y-62135771D02*
X177723809Y-62135771D01*
X177723809Y-62135771D02*
X177819047Y-62183390D01*
X177819047Y-62183390D02*
X177866666Y-62231009D01*
X177866666Y-62231009D02*
X177914285Y-62326247D01*
X177914285Y-62326247D02*
X177914285Y-62564342D01*
X177914285Y-62564342D02*
X177866666Y-62659580D01*
X177866666Y-62659580D02*
X177819047Y-62707200D01*
X177819047Y-62707200D02*
X177723809Y-62754819D01*
X177723809Y-62754819D02*
X177438095Y-62754819D01*
X177438095Y-62754819D02*
X177342857Y-62707200D01*
X177342857Y-62707200D02*
X177295238Y-62659580D01*
X178533333Y-61754819D02*
X178628571Y-61754819D01*
X178628571Y-61754819D02*
X178723809Y-61802438D01*
X178723809Y-61802438D02*
X178771428Y-61850057D01*
X178771428Y-61850057D02*
X178819047Y-61945295D01*
X178819047Y-61945295D02*
X178866666Y-62135771D01*
X178866666Y-62135771D02*
X178866666Y-62373866D01*
X178866666Y-62373866D02*
X178819047Y-62564342D01*
X178819047Y-62564342D02*
X178771428Y-62659580D01*
X178771428Y-62659580D02*
X178723809Y-62707200D01*
X178723809Y-62707200D02*
X178628571Y-62754819D01*
X178628571Y-62754819D02*
X178533333Y-62754819D01*
X178533333Y-62754819D02*
X178438095Y-62707200D01*
X178438095Y-62707200D02*
X178390476Y-62659580D01*
X178390476Y-62659580D02*
X178342857Y-62564342D01*
X178342857Y-62564342D02*
X178295238Y-62373866D01*
X178295238Y-62373866D02*
X178295238Y-62135771D01*
X178295238Y-62135771D02*
X178342857Y-61945295D01*
X178342857Y-61945295D02*
X178390476Y-61850057D01*
X178390476Y-61850057D02*
X178438095Y-61802438D01*
X178438095Y-61802438D02*
X178533333Y-61754819D01*
X179819047Y-62754819D02*
X179247619Y-62754819D01*
X179533333Y-62754819D02*
X179533333Y-61754819D01*
X179533333Y-61754819D02*
X179438095Y-61897676D01*
X179438095Y-61897676D02*
X179342857Y-61992914D01*
X179342857Y-61992914D02*
X179247619Y-62040533D01*
X141314285Y-85254819D02*
X141314285Y-85969104D01*
X141314285Y-85969104D02*
X141266666Y-86111961D01*
X141266666Y-86111961D02*
X141171428Y-86207200D01*
X141171428Y-86207200D02*
X141028571Y-86254819D01*
X141028571Y-86254819D02*
X140933333Y-86254819D01*
X141742857Y-85350057D02*
X141790476Y-85302438D01*
X141790476Y-85302438D02*
X141885714Y-85254819D01*
X141885714Y-85254819D02*
X142123809Y-85254819D01*
X142123809Y-85254819D02*
X142219047Y-85302438D01*
X142219047Y-85302438D02*
X142266666Y-85350057D01*
X142266666Y-85350057D02*
X142314285Y-85445295D01*
X142314285Y-85445295D02*
X142314285Y-85540533D01*
X142314285Y-85540533D02*
X142266666Y-85683390D01*
X142266666Y-85683390D02*
X141695238Y-86254819D01*
X141695238Y-86254819D02*
X142314285Y-86254819D01*
X142933333Y-85254819D02*
X143028571Y-85254819D01*
X143028571Y-85254819D02*
X143123809Y-85302438D01*
X143123809Y-85302438D02*
X143171428Y-85350057D01*
X143171428Y-85350057D02*
X143219047Y-85445295D01*
X143219047Y-85445295D02*
X143266666Y-85635771D01*
X143266666Y-85635771D02*
X143266666Y-85873866D01*
X143266666Y-85873866D02*
X143219047Y-86064342D01*
X143219047Y-86064342D02*
X143171428Y-86159580D01*
X143171428Y-86159580D02*
X143123809Y-86207200D01*
X143123809Y-86207200D02*
X143028571Y-86254819D01*
X143028571Y-86254819D02*
X142933333Y-86254819D01*
X142933333Y-86254819D02*
X142838095Y-86207200D01*
X142838095Y-86207200D02*
X142790476Y-86159580D01*
X142790476Y-86159580D02*
X142742857Y-86064342D01*
X142742857Y-86064342D02*
X142695238Y-85873866D01*
X142695238Y-85873866D02*
X142695238Y-85635771D01*
X142695238Y-85635771D02*
X142742857Y-85445295D01*
X142742857Y-85445295D02*
X142790476Y-85350057D01*
X142790476Y-85350057D02*
X142838095Y-85302438D01*
X142838095Y-85302438D02*
X142933333Y-85254819D01*
X144123809Y-85588152D02*
X144123809Y-86254819D01*
X143885714Y-85207200D02*
X143647619Y-85921485D01*
X143647619Y-85921485D02*
X144266666Y-85921485D01*
X193588614Y-69454863D02*
X193588614Y-68454863D01*
X193588614Y-68931053D02*
X194160042Y-68931053D01*
X194160042Y-69454863D02*
X194160042Y-68454863D01*
X195160042Y-69454863D02*
X194588614Y-69454863D01*
X194874328Y-69454863D02*
X194874328Y-68454863D01*
X194874328Y-68454863D02*
X194779090Y-68597720D01*
X194779090Y-68597720D02*
X194683852Y-68692958D01*
X194683852Y-68692958D02*
X194588614Y-68740577D01*
X195779090Y-68454863D02*
X195874328Y-68454863D01*
X195874328Y-68454863D02*
X195969566Y-68502482D01*
X195969566Y-68502482D02*
X196017185Y-68550101D01*
X196017185Y-68550101D02*
X196064804Y-68645339D01*
X196064804Y-68645339D02*
X196112423Y-68835815D01*
X196112423Y-68835815D02*
X196112423Y-69073910D01*
X196112423Y-69073910D02*
X196064804Y-69264386D01*
X196064804Y-69264386D02*
X196017185Y-69359624D01*
X196017185Y-69359624D02*
X195969566Y-69407244D01*
X195969566Y-69407244D02*
X195874328Y-69454863D01*
X195874328Y-69454863D02*
X195779090Y-69454863D01*
X195779090Y-69454863D02*
X195683852Y-69407244D01*
X195683852Y-69407244D02*
X195636233Y-69359624D01*
X195636233Y-69359624D02*
X195588614Y-69264386D01*
X195588614Y-69264386D02*
X195540995Y-69073910D01*
X195540995Y-69073910D02*
X195540995Y-68835815D01*
X195540995Y-68835815D02*
X195588614Y-68645339D01*
X195588614Y-68645339D02*
X195636233Y-68550101D01*
X195636233Y-68550101D02*
X195683852Y-68502482D01*
X195683852Y-68502482D02*
X195779090Y-68454863D01*
X196493376Y-68550101D02*
X196540995Y-68502482D01*
X196540995Y-68502482D02*
X196636233Y-68454863D01*
X196636233Y-68454863D02*
X196874328Y-68454863D01*
X196874328Y-68454863D02*
X196969566Y-68502482D01*
X196969566Y-68502482D02*
X197017185Y-68550101D01*
X197017185Y-68550101D02*
X197064804Y-68645339D01*
X197064804Y-68645339D02*
X197064804Y-68740577D01*
X197064804Y-68740577D02*
X197017185Y-68883434D01*
X197017185Y-68883434D02*
X196445757Y-69454863D01*
X196445757Y-69454863D02*
X197064804Y-69454863D01*
X193354819Y-102035714D02*
X194069104Y-102035714D01*
X194069104Y-102035714D02*
X194211961Y-102083333D01*
X194211961Y-102083333D02*
X194307200Y-102178571D01*
X194307200Y-102178571D02*
X194354819Y-102321428D01*
X194354819Y-102321428D02*
X194354819Y-102416666D01*
X193450057Y-101607142D02*
X193402438Y-101559523D01*
X193402438Y-101559523D02*
X193354819Y-101464285D01*
X193354819Y-101464285D02*
X193354819Y-101226190D01*
X193354819Y-101226190D02*
X193402438Y-101130952D01*
X193402438Y-101130952D02*
X193450057Y-101083333D01*
X193450057Y-101083333D02*
X193545295Y-101035714D01*
X193545295Y-101035714D02*
X193640533Y-101035714D01*
X193640533Y-101035714D02*
X193783390Y-101083333D01*
X193783390Y-101083333D02*
X194354819Y-101654761D01*
X194354819Y-101654761D02*
X194354819Y-101035714D01*
X193354819Y-100416666D02*
X193354819Y-100321428D01*
X193354819Y-100321428D02*
X193402438Y-100226190D01*
X193402438Y-100226190D02*
X193450057Y-100178571D01*
X193450057Y-100178571D02*
X193545295Y-100130952D01*
X193545295Y-100130952D02*
X193735771Y-100083333D01*
X193735771Y-100083333D02*
X193973866Y-100083333D01*
X193973866Y-100083333D02*
X194164342Y-100130952D01*
X194164342Y-100130952D02*
X194259580Y-100178571D01*
X194259580Y-100178571D02*
X194307200Y-100226190D01*
X194307200Y-100226190D02*
X194354819Y-100321428D01*
X194354819Y-100321428D02*
X194354819Y-100416666D01*
X194354819Y-100416666D02*
X194307200Y-100511904D01*
X194307200Y-100511904D02*
X194259580Y-100559523D01*
X194259580Y-100559523D02*
X194164342Y-100607142D01*
X194164342Y-100607142D02*
X193973866Y-100654761D01*
X193973866Y-100654761D02*
X193735771Y-100654761D01*
X193735771Y-100654761D02*
X193545295Y-100607142D01*
X193545295Y-100607142D02*
X193450057Y-100559523D01*
X193450057Y-100559523D02*
X193402438Y-100511904D01*
X193402438Y-100511904D02*
X193354819Y-100416666D01*
X193354819Y-99749999D02*
X193354819Y-99130952D01*
X193354819Y-99130952D02*
X193735771Y-99464285D01*
X193735771Y-99464285D02*
X193735771Y-99321428D01*
X193735771Y-99321428D02*
X193783390Y-99226190D01*
X193783390Y-99226190D02*
X193831009Y-99178571D01*
X193831009Y-99178571D02*
X193926247Y-99130952D01*
X193926247Y-99130952D02*
X194164342Y-99130952D01*
X194164342Y-99130952D02*
X194259580Y-99178571D01*
X194259580Y-99178571D02*
X194307200Y-99226190D01*
X194307200Y-99226190D02*
X194354819Y-99321428D01*
X194354819Y-99321428D02*
X194354819Y-99607142D01*
X194354819Y-99607142D02*
X194307200Y-99702380D01*
X194307200Y-99702380D02*
X194259580Y-99749999D01*
X140785714Y-69454819D02*
X140785714Y-68454819D01*
X140785714Y-68931009D02*
X141357142Y-68931009D01*
X141357142Y-69454819D02*
X141357142Y-68454819D01*
X142357142Y-69454819D02*
X141785714Y-69454819D01*
X142071428Y-69454819D02*
X142071428Y-68454819D01*
X142071428Y-68454819D02*
X141976190Y-68597676D01*
X141976190Y-68597676D02*
X141880952Y-68692914D01*
X141880952Y-68692914D02*
X141785714Y-68740533D01*
X142976190Y-68454819D02*
X143071428Y-68454819D01*
X143071428Y-68454819D02*
X143166666Y-68502438D01*
X143166666Y-68502438D02*
X143214285Y-68550057D01*
X143214285Y-68550057D02*
X143261904Y-68645295D01*
X143261904Y-68645295D02*
X143309523Y-68835771D01*
X143309523Y-68835771D02*
X143309523Y-69073866D01*
X143309523Y-69073866D02*
X143261904Y-69264342D01*
X143261904Y-69264342D02*
X143214285Y-69359580D01*
X143214285Y-69359580D02*
X143166666Y-69407200D01*
X143166666Y-69407200D02*
X143071428Y-69454819D01*
X143071428Y-69454819D02*
X142976190Y-69454819D01*
X142976190Y-69454819D02*
X142880952Y-69407200D01*
X142880952Y-69407200D02*
X142833333Y-69359580D01*
X142833333Y-69359580D02*
X142785714Y-69264342D01*
X142785714Y-69264342D02*
X142738095Y-69073866D01*
X142738095Y-69073866D02*
X142738095Y-68835771D01*
X142738095Y-68835771D02*
X142785714Y-68645295D01*
X142785714Y-68645295D02*
X142833333Y-68550057D01*
X142833333Y-68550057D02*
X142880952Y-68502438D01*
X142880952Y-68502438D02*
X142976190Y-68454819D01*
X144261904Y-69454819D02*
X143690476Y-69454819D01*
X143976190Y-69454819D02*
X143976190Y-68454819D01*
X143976190Y-68454819D02*
X143880952Y-68597676D01*
X143880952Y-68597676D02*
X143785714Y-68692914D01*
X143785714Y-68692914D02*
X143690476Y-68740533D01*
X142982814Y-111557719D02*
X142982814Y-110557719D01*
X142982814Y-111033909D02*
X143554242Y-111033909D01*
X143554242Y-111557719D02*
X143554242Y-110557719D01*
X144554242Y-111557719D02*
X143982814Y-111557719D01*
X144268528Y-111557719D02*
X144268528Y-110557719D01*
X144268528Y-110557719D02*
X144173290Y-110700576D01*
X144173290Y-110700576D02*
X144078052Y-110795814D01*
X144078052Y-110795814D02*
X143982814Y-110843433D01*
X145173290Y-110557719D02*
X145268528Y-110557719D01*
X145268528Y-110557719D02*
X145363766Y-110605338D01*
X145363766Y-110605338D02*
X145411385Y-110652957D01*
X145411385Y-110652957D02*
X145459004Y-110748195D01*
X145459004Y-110748195D02*
X145506623Y-110938671D01*
X145506623Y-110938671D02*
X145506623Y-111176766D01*
X145506623Y-111176766D02*
X145459004Y-111367242D01*
X145459004Y-111367242D02*
X145411385Y-111462480D01*
X145411385Y-111462480D02*
X145363766Y-111510100D01*
X145363766Y-111510100D02*
X145268528Y-111557719D01*
X145268528Y-111557719D02*
X145173290Y-111557719D01*
X145173290Y-111557719D02*
X145078052Y-111510100D01*
X145078052Y-111510100D02*
X145030433Y-111462480D01*
X145030433Y-111462480D02*
X144982814Y-111367242D01*
X144982814Y-111367242D02*
X144935195Y-111176766D01*
X144935195Y-111176766D02*
X144935195Y-110938671D01*
X144935195Y-110938671D02*
X144982814Y-110748195D01*
X144982814Y-110748195D02*
X145030433Y-110652957D01*
X145030433Y-110652957D02*
X145078052Y-110605338D01*
X145078052Y-110605338D02*
X145173290Y-110557719D01*
X145839957Y-110557719D02*
X146459004Y-110557719D01*
X146459004Y-110557719D02*
X146125671Y-110938671D01*
X146125671Y-110938671D02*
X146268528Y-110938671D01*
X146268528Y-110938671D02*
X146363766Y-110986290D01*
X146363766Y-110986290D02*
X146411385Y-111033909D01*
X146411385Y-111033909D02*
X146459004Y-111129147D01*
X146459004Y-111129147D02*
X146459004Y-111367242D01*
X146459004Y-111367242D02*
X146411385Y-111462480D01*
X146411385Y-111462480D02*
X146363766Y-111510100D01*
X146363766Y-111510100D02*
X146268528Y-111557719D01*
X146268528Y-111557719D02*
X145982814Y-111557719D01*
X145982814Y-111557719D02*
X145887576Y-111510100D01*
X145887576Y-111510100D02*
X145839957Y-111462480D01*
X186489580Y-92856547D02*
X186537200Y-92904166D01*
X186537200Y-92904166D02*
X186584819Y-93047023D01*
X186584819Y-93047023D02*
X186584819Y-93142261D01*
X186584819Y-93142261D02*
X186537200Y-93285118D01*
X186537200Y-93285118D02*
X186441961Y-93380356D01*
X186441961Y-93380356D02*
X186346723Y-93427975D01*
X186346723Y-93427975D02*
X186156247Y-93475594D01*
X186156247Y-93475594D02*
X186013390Y-93475594D01*
X186013390Y-93475594D02*
X185822914Y-93427975D01*
X185822914Y-93427975D02*
X185727676Y-93380356D01*
X185727676Y-93380356D02*
X185632438Y-93285118D01*
X185632438Y-93285118D02*
X185584819Y-93142261D01*
X185584819Y-93142261D02*
X185584819Y-93047023D01*
X185584819Y-93047023D02*
X185632438Y-92904166D01*
X185632438Y-92904166D02*
X185680057Y-92856547D01*
X185680057Y-92475594D02*
X185632438Y-92427975D01*
X185632438Y-92427975D02*
X185584819Y-92332737D01*
X185584819Y-92332737D02*
X185584819Y-92094642D01*
X185584819Y-92094642D02*
X185632438Y-91999404D01*
X185632438Y-91999404D02*
X185680057Y-91951785D01*
X185680057Y-91951785D02*
X185775295Y-91904166D01*
X185775295Y-91904166D02*
X185870533Y-91904166D01*
X185870533Y-91904166D02*
X186013390Y-91951785D01*
X186013390Y-91951785D02*
X186584819Y-92523213D01*
X186584819Y-92523213D02*
X186584819Y-91904166D01*
X185584819Y-91285118D02*
X185584819Y-91189880D01*
X185584819Y-91189880D02*
X185632438Y-91094642D01*
X185632438Y-91094642D02*
X185680057Y-91047023D01*
X185680057Y-91047023D02*
X185775295Y-90999404D01*
X185775295Y-90999404D02*
X185965771Y-90951785D01*
X185965771Y-90951785D02*
X186203866Y-90951785D01*
X186203866Y-90951785D02*
X186394342Y-90999404D01*
X186394342Y-90999404D02*
X186489580Y-91047023D01*
X186489580Y-91047023D02*
X186537200Y-91094642D01*
X186537200Y-91094642D02*
X186584819Y-91189880D01*
X186584819Y-91189880D02*
X186584819Y-91285118D01*
X186584819Y-91285118D02*
X186537200Y-91380356D01*
X186537200Y-91380356D02*
X186489580Y-91427975D01*
X186489580Y-91427975D02*
X186394342Y-91475594D01*
X186394342Y-91475594D02*
X186203866Y-91523213D01*
X186203866Y-91523213D02*
X185965771Y-91523213D01*
X185965771Y-91523213D02*
X185775295Y-91475594D01*
X185775295Y-91475594D02*
X185680057Y-91427975D01*
X185680057Y-91427975D02*
X185632438Y-91380356D01*
X185632438Y-91380356D02*
X185584819Y-91285118D01*
X185584819Y-90618451D02*
X185584819Y-89999404D01*
X185584819Y-89999404D02*
X185965771Y-90332737D01*
X185965771Y-90332737D02*
X185965771Y-90189880D01*
X185965771Y-90189880D02*
X186013390Y-90094642D01*
X186013390Y-90094642D02*
X186061009Y-90047023D01*
X186061009Y-90047023D02*
X186156247Y-89999404D01*
X186156247Y-89999404D02*
X186394342Y-89999404D01*
X186394342Y-89999404D02*
X186489580Y-90047023D01*
X186489580Y-90047023D02*
X186537200Y-90094642D01*
X186537200Y-90094642D02*
X186584819Y-90189880D01*
X186584819Y-90189880D02*
X186584819Y-90475594D01*
X186584819Y-90475594D02*
X186537200Y-90570832D01*
X186537200Y-90570832D02*
X186489580Y-90618451D01*
X181214285Y-107054819D02*
X181214285Y-107769104D01*
X181214285Y-107769104D02*
X181166666Y-107911961D01*
X181166666Y-107911961D02*
X181071428Y-108007200D01*
X181071428Y-108007200D02*
X180928571Y-108054819D01*
X180928571Y-108054819D02*
X180833333Y-108054819D01*
X181642857Y-107150057D02*
X181690476Y-107102438D01*
X181690476Y-107102438D02*
X181785714Y-107054819D01*
X181785714Y-107054819D02*
X182023809Y-107054819D01*
X182023809Y-107054819D02*
X182119047Y-107102438D01*
X182119047Y-107102438D02*
X182166666Y-107150057D01*
X182166666Y-107150057D02*
X182214285Y-107245295D01*
X182214285Y-107245295D02*
X182214285Y-107340533D01*
X182214285Y-107340533D02*
X182166666Y-107483390D01*
X182166666Y-107483390D02*
X181595238Y-108054819D01*
X181595238Y-108054819D02*
X182214285Y-108054819D01*
X182833333Y-107054819D02*
X182928571Y-107054819D01*
X182928571Y-107054819D02*
X183023809Y-107102438D01*
X183023809Y-107102438D02*
X183071428Y-107150057D01*
X183071428Y-107150057D02*
X183119047Y-107245295D01*
X183119047Y-107245295D02*
X183166666Y-107435771D01*
X183166666Y-107435771D02*
X183166666Y-107673866D01*
X183166666Y-107673866D02*
X183119047Y-107864342D01*
X183119047Y-107864342D02*
X183071428Y-107959580D01*
X183071428Y-107959580D02*
X183023809Y-108007200D01*
X183023809Y-108007200D02*
X182928571Y-108054819D01*
X182928571Y-108054819D02*
X182833333Y-108054819D01*
X182833333Y-108054819D02*
X182738095Y-108007200D01*
X182738095Y-108007200D02*
X182690476Y-107959580D01*
X182690476Y-107959580D02*
X182642857Y-107864342D01*
X182642857Y-107864342D02*
X182595238Y-107673866D01*
X182595238Y-107673866D02*
X182595238Y-107435771D01*
X182595238Y-107435771D02*
X182642857Y-107245295D01*
X182642857Y-107245295D02*
X182690476Y-107150057D01*
X182690476Y-107150057D02*
X182738095Y-107102438D01*
X182738095Y-107102438D02*
X182833333Y-107054819D01*
X184023809Y-107054819D02*
X183833333Y-107054819D01*
X183833333Y-107054819D02*
X183738095Y-107102438D01*
X183738095Y-107102438D02*
X183690476Y-107150057D01*
X183690476Y-107150057D02*
X183595238Y-107292914D01*
X183595238Y-107292914D02*
X183547619Y-107483390D01*
X183547619Y-107483390D02*
X183547619Y-107864342D01*
X183547619Y-107864342D02*
X183595238Y-107959580D01*
X183595238Y-107959580D02*
X183642857Y-108007200D01*
X183642857Y-108007200D02*
X183738095Y-108054819D01*
X183738095Y-108054819D02*
X183928571Y-108054819D01*
X183928571Y-108054819D02*
X184023809Y-108007200D01*
X184023809Y-108007200D02*
X184071428Y-107959580D01*
X184071428Y-107959580D02*
X184119047Y-107864342D01*
X184119047Y-107864342D02*
X184119047Y-107626247D01*
X184119047Y-107626247D02*
X184071428Y-107531009D01*
X184071428Y-107531009D02*
X184023809Y-107483390D01*
X184023809Y-107483390D02*
X183928571Y-107435771D01*
X183928571Y-107435771D02*
X183738095Y-107435771D01*
X183738095Y-107435771D02*
X183642857Y-107483390D01*
X183642857Y-107483390D02*
X183595238Y-107531009D01*
X183595238Y-107531009D02*
X183547619Y-107626247D01*
X154014285Y-107054819D02*
X154014285Y-107769104D01*
X154014285Y-107769104D02*
X153966666Y-107911961D01*
X153966666Y-107911961D02*
X153871428Y-108007200D01*
X153871428Y-108007200D02*
X153728571Y-108054819D01*
X153728571Y-108054819D02*
X153633333Y-108054819D01*
X154442857Y-107150057D02*
X154490476Y-107102438D01*
X154490476Y-107102438D02*
X154585714Y-107054819D01*
X154585714Y-107054819D02*
X154823809Y-107054819D01*
X154823809Y-107054819D02*
X154919047Y-107102438D01*
X154919047Y-107102438D02*
X154966666Y-107150057D01*
X154966666Y-107150057D02*
X155014285Y-107245295D01*
X155014285Y-107245295D02*
X155014285Y-107340533D01*
X155014285Y-107340533D02*
X154966666Y-107483390D01*
X154966666Y-107483390D02*
X154395238Y-108054819D01*
X154395238Y-108054819D02*
X155014285Y-108054819D01*
X155633333Y-107054819D02*
X155728571Y-107054819D01*
X155728571Y-107054819D02*
X155823809Y-107102438D01*
X155823809Y-107102438D02*
X155871428Y-107150057D01*
X155871428Y-107150057D02*
X155919047Y-107245295D01*
X155919047Y-107245295D02*
X155966666Y-107435771D01*
X155966666Y-107435771D02*
X155966666Y-107673866D01*
X155966666Y-107673866D02*
X155919047Y-107864342D01*
X155919047Y-107864342D02*
X155871428Y-107959580D01*
X155871428Y-107959580D02*
X155823809Y-108007200D01*
X155823809Y-108007200D02*
X155728571Y-108054819D01*
X155728571Y-108054819D02*
X155633333Y-108054819D01*
X155633333Y-108054819D02*
X155538095Y-108007200D01*
X155538095Y-108007200D02*
X155490476Y-107959580D01*
X155490476Y-107959580D02*
X155442857Y-107864342D01*
X155442857Y-107864342D02*
X155395238Y-107673866D01*
X155395238Y-107673866D02*
X155395238Y-107435771D01*
X155395238Y-107435771D02*
X155442857Y-107245295D01*
X155442857Y-107245295D02*
X155490476Y-107150057D01*
X155490476Y-107150057D02*
X155538095Y-107102438D01*
X155538095Y-107102438D02*
X155633333Y-107054819D01*
X156871428Y-107054819D02*
X156395238Y-107054819D01*
X156395238Y-107054819D02*
X156347619Y-107531009D01*
X156347619Y-107531009D02*
X156395238Y-107483390D01*
X156395238Y-107483390D02*
X156490476Y-107435771D01*
X156490476Y-107435771D02*
X156728571Y-107435771D01*
X156728571Y-107435771D02*
X156823809Y-107483390D01*
X156823809Y-107483390D02*
X156871428Y-107531009D01*
X156871428Y-107531009D02*
X156919047Y-107626247D01*
X156919047Y-107626247D02*
X156919047Y-107864342D01*
X156919047Y-107864342D02*
X156871428Y-107959580D01*
X156871428Y-107959580D02*
X156823809Y-108007200D01*
X156823809Y-108007200D02*
X156728571Y-108054819D01*
X156728571Y-108054819D02*
X156490476Y-108054819D01*
X156490476Y-108054819D02*
X156395238Y-108007200D01*
X156395238Y-108007200D02*
X156347619Y-107959580D01*
X186759580Y-74319047D02*
X186807200Y-74366666D01*
X186807200Y-74366666D02*
X186854819Y-74509523D01*
X186854819Y-74509523D02*
X186854819Y-74604761D01*
X186854819Y-74604761D02*
X186807200Y-74747618D01*
X186807200Y-74747618D02*
X186711961Y-74842856D01*
X186711961Y-74842856D02*
X186616723Y-74890475D01*
X186616723Y-74890475D02*
X186426247Y-74938094D01*
X186426247Y-74938094D02*
X186283390Y-74938094D01*
X186283390Y-74938094D02*
X186092914Y-74890475D01*
X186092914Y-74890475D02*
X185997676Y-74842856D01*
X185997676Y-74842856D02*
X185902438Y-74747618D01*
X185902438Y-74747618D02*
X185854819Y-74604761D01*
X185854819Y-74604761D02*
X185854819Y-74509523D01*
X185854819Y-74509523D02*
X185902438Y-74366666D01*
X185902438Y-74366666D02*
X185950057Y-74319047D01*
X185950057Y-73938094D02*
X185902438Y-73890475D01*
X185902438Y-73890475D02*
X185854819Y-73795237D01*
X185854819Y-73795237D02*
X185854819Y-73557142D01*
X185854819Y-73557142D02*
X185902438Y-73461904D01*
X185902438Y-73461904D02*
X185950057Y-73414285D01*
X185950057Y-73414285D02*
X186045295Y-73366666D01*
X186045295Y-73366666D02*
X186140533Y-73366666D01*
X186140533Y-73366666D02*
X186283390Y-73414285D01*
X186283390Y-73414285D02*
X186854819Y-73985713D01*
X186854819Y-73985713D02*
X186854819Y-73366666D01*
X185854819Y-72747618D02*
X185854819Y-72652380D01*
X185854819Y-72652380D02*
X185902438Y-72557142D01*
X185902438Y-72557142D02*
X185950057Y-72509523D01*
X185950057Y-72509523D02*
X186045295Y-72461904D01*
X186045295Y-72461904D02*
X186235771Y-72414285D01*
X186235771Y-72414285D02*
X186473866Y-72414285D01*
X186473866Y-72414285D02*
X186664342Y-72461904D01*
X186664342Y-72461904D02*
X186759580Y-72509523D01*
X186759580Y-72509523D02*
X186807200Y-72557142D01*
X186807200Y-72557142D02*
X186854819Y-72652380D01*
X186854819Y-72652380D02*
X186854819Y-72747618D01*
X186854819Y-72747618D02*
X186807200Y-72842856D01*
X186807200Y-72842856D02*
X186759580Y-72890475D01*
X186759580Y-72890475D02*
X186664342Y-72938094D01*
X186664342Y-72938094D02*
X186473866Y-72985713D01*
X186473866Y-72985713D02*
X186235771Y-72985713D01*
X186235771Y-72985713D02*
X186045295Y-72938094D01*
X186045295Y-72938094D02*
X185950057Y-72890475D01*
X185950057Y-72890475D02*
X185902438Y-72842856D01*
X185902438Y-72842856D02*
X185854819Y-72747618D01*
X186188152Y-71557142D02*
X186854819Y-71557142D01*
X185807200Y-71795237D02*
X186521485Y-72033332D01*
X186521485Y-72033332D02*
X186521485Y-71414285D01*
X180354819Y-100214285D02*
X181164342Y-100214285D01*
X181164342Y-100214285D02*
X181259580Y-100166666D01*
X181259580Y-100166666D02*
X181307200Y-100119047D01*
X181307200Y-100119047D02*
X181354819Y-100023809D01*
X181354819Y-100023809D02*
X181354819Y-99833333D01*
X181354819Y-99833333D02*
X181307200Y-99738095D01*
X181307200Y-99738095D02*
X181259580Y-99690476D01*
X181259580Y-99690476D02*
X181164342Y-99642857D01*
X181164342Y-99642857D02*
X180354819Y-99642857D01*
X180450057Y-99214285D02*
X180402438Y-99166666D01*
X180402438Y-99166666D02*
X180354819Y-99071428D01*
X180354819Y-99071428D02*
X180354819Y-98833333D01*
X180354819Y-98833333D02*
X180402438Y-98738095D01*
X180402438Y-98738095D02*
X180450057Y-98690476D01*
X180450057Y-98690476D02*
X180545295Y-98642857D01*
X180545295Y-98642857D02*
X180640533Y-98642857D01*
X180640533Y-98642857D02*
X180783390Y-98690476D01*
X180783390Y-98690476D02*
X181354819Y-99261904D01*
X181354819Y-99261904D02*
X181354819Y-98642857D01*
X180354819Y-98023809D02*
X180354819Y-97928571D01*
X180354819Y-97928571D02*
X180402438Y-97833333D01*
X180402438Y-97833333D02*
X180450057Y-97785714D01*
X180450057Y-97785714D02*
X180545295Y-97738095D01*
X180545295Y-97738095D02*
X180735771Y-97690476D01*
X180735771Y-97690476D02*
X180973866Y-97690476D01*
X180973866Y-97690476D02*
X181164342Y-97738095D01*
X181164342Y-97738095D02*
X181259580Y-97785714D01*
X181259580Y-97785714D02*
X181307200Y-97833333D01*
X181307200Y-97833333D02*
X181354819Y-97928571D01*
X181354819Y-97928571D02*
X181354819Y-98023809D01*
X181354819Y-98023809D02*
X181307200Y-98119047D01*
X181307200Y-98119047D02*
X181259580Y-98166666D01*
X181259580Y-98166666D02*
X181164342Y-98214285D01*
X181164342Y-98214285D02*
X180973866Y-98261904D01*
X180973866Y-98261904D02*
X180735771Y-98261904D01*
X180735771Y-98261904D02*
X180545295Y-98214285D01*
X180545295Y-98214285D02*
X180450057Y-98166666D01*
X180450057Y-98166666D02*
X180402438Y-98119047D01*
X180402438Y-98119047D02*
X180354819Y-98023809D01*
X181354819Y-96738095D02*
X181354819Y-97309523D01*
X181354819Y-97023809D02*
X180354819Y-97023809D01*
X180354819Y-97023809D02*
X180497676Y-97119047D01*
X180497676Y-97119047D02*
X180592914Y-97214285D01*
X180592914Y-97214285D02*
X180640533Y-97309523D01*
X180814285Y-118554819D02*
X180814285Y-119269104D01*
X180814285Y-119269104D02*
X180766666Y-119411961D01*
X180766666Y-119411961D02*
X180671428Y-119507200D01*
X180671428Y-119507200D02*
X180528571Y-119554819D01*
X180528571Y-119554819D02*
X180433333Y-119554819D01*
X181242857Y-118650057D02*
X181290476Y-118602438D01*
X181290476Y-118602438D02*
X181385714Y-118554819D01*
X181385714Y-118554819D02*
X181623809Y-118554819D01*
X181623809Y-118554819D02*
X181719047Y-118602438D01*
X181719047Y-118602438D02*
X181766666Y-118650057D01*
X181766666Y-118650057D02*
X181814285Y-118745295D01*
X181814285Y-118745295D02*
X181814285Y-118840533D01*
X181814285Y-118840533D02*
X181766666Y-118983390D01*
X181766666Y-118983390D02*
X181195238Y-119554819D01*
X181195238Y-119554819D02*
X181814285Y-119554819D01*
X182433333Y-118554819D02*
X182528571Y-118554819D01*
X182528571Y-118554819D02*
X182623809Y-118602438D01*
X182623809Y-118602438D02*
X182671428Y-118650057D01*
X182671428Y-118650057D02*
X182719047Y-118745295D01*
X182719047Y-118745295D02*
X182766666Y-118935771D01*
X182766666Y-118935771D02*
X182766666Y-119173866D01*
X182766666Y-119173866D02*
X182719047Y-119364342D01*
X182719047Y-119364342D02*
X182671428Y-119459580D01*
X182671428Y-119459580D02*
X182623809Y-119507200D01*
X182623809Y-119507200D02*
X182528571Y-119554819D01*
X182528571Y-119554819D02*
X182433333Y-119554819D01*
X182433333Y-119554819D02*
X182338095Y-119507200D01*
X182338095Y-119507200D02*
X182290476Y-119459580D01*
X182290476Y-119459580D02*
X182242857Y-119364342D01*
X182242857Y-119364342D02*
X182195238Y-119173866D01*
X182195238Y-119173866D02*
X182195238Y-118935771D01*
X182195238Y-118935771D02*
X182242857Y-118745295D01*
X182242857Y-118745295D02*
X182290476Y-118650057D01*
X182290476Y-118650057D02*
X182338095Y-118602438D01*
X182338095Y-118602438D02*
X182433333Y-118554819D01*
X183338095Y-118983390D02*
X183242857Y-118935771D01*
X183242857Y-118935771D02*
X183195238Y-118888152D01*
X183195238Y-118888152D02*
X183147619Y-118792914D01*
X183147619Y-118792914D02*
X183147619Y-118745295D01*
X183147619Y-118745295D02*
X183195238Y-118650057D01*
X183195238Y-118650057D02*
X183242857Y-118602438D01*
X183242857Y-118602438D02*
X183338095Y-118554819D01*
X183338095Y-118554819D02*
X183528571Y-118554819D01*
X183528571Y-118554819D02*
X183623809Y-118602438D01*
X183623809Y-118602438D02*
X183671428Y-118650057D01*
X183671428Y-118650057D02*
X183719047Y-118745295D01*
X183719047Y-118745295D02*
X183719047Y-118792914D01*
X183719047Y-118792914D02*
X183671428Y-118888152D01*
X183671428Y-118888152D02*
X183623809Y-118935771D01*
X183623809Y-118935771D02*
X183528571Y-118983390D01*
X183528571Y-118983390D02*
X183338095Y-118983390D01*
X183338095Y-118983390D02*
X183242857Y-119031009D01*
X183242857Y-119031009D02*
X183195238Y-119078628D01*
X183195238Y-119078628D02*
X183147619Y-119173866D01*
X183147619Y-119173866D02*
X183147619Y-119364342D01*
X183147619Y-119364342D02*
X183195238Y-119459580D01*
X183195238Y-119459580D02*
X183242857Y-119507200D01*
X183242857Y-119507200D02*
X183338095Y-119554819D01*
X183338095Y-119554819D02*
X183528571Y-119554819D01*
X183528571Y-119554819D02*
X183623809Y-119507200D01*
X183623809Y-119507200D02*
X183671428Y-119459580D01*
X183671428Y-119459580D02*
X183719047Y-119364342D01*
X183719047Y-119364342D02*
X183719047Y-119173866D01*
X183719047Y-119173866D02*
X183671428Y-119078628D01*
X183671428Y-119078628D02*
X183623809Y-119031009D01*
X183623809Y-119031009D02*
X183528571Y-118983390D01*
X154814285Y-118454819D02*
X154814285Y-119169104D01*
X154814285Y-119169104D02*
X154766666Y-119311961D01*
X154766666Y-119311961D02*
X154671428Y-119407200D01*
X154671428Y-119407200D02*
X154528571Y-119454819D01*
X154528571Y-119454819D02*
X154433333Y-119454819D01*
X155242857Y-118550057D02*
X155290476Y-118502438D01*
X155290476Y-118502438D02*
X155385714Y-118454819D01*
X155385714Y-118454819D02*
X155623809Y-118454819D01*
X155623809Y-118454819D02*
X155719047Y-118502438D01*
X155719047Y-118502438D02*
X155766666Y-118550057D01*
X155766666Y-118550057D02*
X155814285Y-118645295D01*
X155814285Y-118645295D02*
X155814285Y-118740533D01*
X155814285Y-118740533D02*
X155766666Y-118883390D01*
X155766666Y-118883390D02*
X155195238Y-119454819D01*
X155195238Y-119454819D02*
X155814285Y-119454819D01*
X156433333Y-118454819D02*
X156528571Y-118454819D01*
X156528571Y-118454819D02*
X156623809Y-118502438D01*
X156623809Y-118502438D02*
X156671428Y-118550057D01*
X156671428Y-118550057D02*
X156719047Y-118645295D01*
X156719047Y-118645295D02*
X156766666Y-118835771D01*
X156766666Y-118835771D02*
X156766666Y-119073866D01*
X156766666Y-119073866D02*
X156719047Y-119264342D01*
X156719047Y-119264342D02*
X156671428Y-119359580D01*
X156671428Y-119359580D02*
X156623809Y-119407200D01*
X156623809Y-119407200D02*
X156528571Y-119454819D01*
X156528571Y-119454819D02*
X156433333Y-119454819D01*
X156433333Y-119454819D02*
X156338095Y-119407200D01*
X156338095Y-119407200D02*
X156290476Y-119359580D01*
X156290476Y-119359580D02*
X156242857Y-119264342D01*
X156242857Y-119264342D02*
X156195238Y-119073866D01*
X156195238Y-119073866D02*
X156195238Y-118835771D01*
X156195238Y-118835771D02*
X156242857Y-118645295D01*
X156242857Y-118645295D02*
X156290476Y-118550057D01*
X156290476Y-118550057D02*
X156338095Y-118502438D01*
X156338095Y-118502438D02*
X156433333Y-118454819D01*
X157100000Y-118454819D02*
X157766666Y-118454819D01*
X157766666Y-118454819D02*
X157338095Y-119454819D01*
X167139286Y-111307200D02*
X167282143Y-111354819D01*
X167282143Y-111354819D02*
X167520238Y-111354819D01*
X167520238Y-111354819D02*
X167615476Y-111307200D01*
X167615476Y-111307200D02*
X167663095Y-111259580D01*
X167663095Y-111259580D02*
X167710714Y-111164342D01*
X167710714Y-111164342D02*
X167710714Y-111069104D01*
X167710714Y-111069104D02*
X167663095Y-110973866D01*
X167663095Y-110973866D02*
X167615476Y-110926247D01*
X167615476Y-110926247D02*
X167520238Y-110878628D01*
X167520238Y-110878628D02*
X167329762Y-110831009D01*
X167329762Y-110831009D02*
X167234524Y-110783390D01*
X167234524Y-110783390D02*
X167186905Y-110735771D01*
X167186905Y-110735771D02*
X167139286Y-110640533D01*
X167139286Y-110640533D02*
X167139286Y-110545295D01*
X167139286Y-110545295D02*
X167186905Y-110450057D01*
X167186905Y-110450057D02*
X167234524Y-110402438D01*
X167234524Y-110402438D02*
X167329762Y-110354819D01*
X167329762Y-110354819D02*
X167567857Y-110354819D01*
X167567857Y-110354819D02*
X167710714Y-110402438D01*
X168044048Y-110354819D02*
X168282143Y-111354819D01*
X168282143Y-111354819D02*
X168472619Y-110640533D01*
X168472619Y-110640533D02*
X168663095Y-111354819D01*
X168663095Y-111354819D02*
X168901191Y-110354819D01*
X169234524Y-110450057D02*
X169282143Y-110402438D01*
X169282143Y-110402438D02*
X169377381Y-110354819D01*
X169377381Y-110354819D02*
X169615476Y-110354819D01*
X169615476Y-110354819D02*
X169710714Y-110402438D01*
X169710714Y-110402438D02*
X169758333Y-110450057D01*
X169758333Y-110450057D02*
X169805952Y-110545295D01*
X169805952Y-110545295D02*
X169805952Y-110640533D01*
X169805952Y-110640533D02*
X169758333Y-110783390D01*
X169758333Y-110783390D02*
X169186905Y-111354819D01*
X169186905Y-111354819D02*
X169805952Y-111354819D01*
X170425000Y-110354819D02*
X170520238Y-110354819D01*
X170520238Y-110354819D02*
X170615476Y-110402438D01*
X170615476Y-110402438D02*
X170663095Y-110450057D01*
X170663095Y-110450057D02*
X170710714Y-110545295D01*
X170710714Y-110545295D02*
X170758333Y-110735771D01*
X170758333Y-110735771D02*
X170758333Y-110973866D01*
X170758333Y-110973866D02*
X170710714Y-111164342D01*
X170710714Y-111164342D02*
X170663095Y-111259580D01*
X170663095Y-111259580D02*
X170615476Y-111307200D01*
X170615476Y-111307200D02*
X170520238Y-111354819D01*
X170520238Y-111354819D02*
X170425000Y-111354819D01*
X170425000Y-111354819D02*
X170329762Y-111307200D01*
X170329762Y-111307200D02*
X170282143Y-111259580D01*
X170282143Y-111259580D02*
X170234524Y-111164342D01*
X170234524Y-111164342D02*
X170186905Y-110973866D01*
X170186905Y-110973866D02*
X170186905Y-110735771D01*
X170186905Y-110735771D02*
X170234524Y-110545295D01*
X170234524Y-110545295D02*
X170282143Y-110450057D01*
X170282143Y-110450057D02*
X170329762Y-110402438D01*
X170329762Y-110402438D02*
X170425000Y-110354819D01*
X171710714Y-111354819D02*
X171139286Y-111354819D01*
X171425000Y-111354819D02*
X171425000Y-110354819D01*
X171425000Y-110354819D02*
X171329762Y-110497676D01*
X171329762Y-110497676D02*
X171234524Y-110592914D01*
X171234524Y-110592914D02*
X171139286Y-110640533D01*
X182514286Y-66407200D02*
X182657143Y-66454819D01*
X182657143Y-66454819D02*
X182895238Y-66454819D01*
X182895238Y-66454819D02*
X182990476Y-66407200D01*
X182990476Y-66407200D02*
X183038095Y-66359580D01*
X183038095Y-66359580D02*
X183085714Y-66264342D01*
X183085714Y-66264342D02*
X183085714Y-66169104D01*
X183085714Y-66169104D02*
X183038095Y-66073866D01*
X183038095Y-66073866D02*
X182990476Y-66026247D01*
X182990476Y-66026247D02*
X182895238Y-65978628D01*
X182895238Y-65978628D02*
X182704762Y-65931009D01*
X182704762Y-65931009D02*
X182609524Y-65883390D01*
X182609524Y-65883390D02*
X182561905Y-65835771D01*
X182561905Y-65835771D02*
X182514286Y-65740533D01*
X182514286Y-65740533D02*
X182514286Y-65645295D01*
X182514286Y-65645295D02*
X182561905Y-65550057D01*
X182561905Y-65550057D02*
X182609524Y-65502438D01*
X182609524Y-65502438D02*
X182704762Y-65454819D01*
X182704762Y-65454819D02*
X182942857Y-65454819D01*
X182942857Y-65454819D02*
X183085714Y-65502438D01*
X183419048Y-65454819D02*
X183657143Y-66454819D01*
X183657143Y-66454819D02*
X183847619Y-65740533D01*
X183847619Y-65740533D02*
X184038095Y-66454819D01*
X184038095Y-66454819D02*
X184276191Y-65454819D01*
X184561905Y-65454819D02*
X185180952Y-65454819D01*
X185180952Y-65454819D02*
X184847619Y-65835771D01*
X184847619Y-65835771D02*
X184990476Y-65835771D01*
X184990476Y-65835771D02*
X185085714Y-65883390D01*
X185085714Y-65883390D02*
X185133333Y-65931009D01*
X185133333Y-65931009D02*
X185180952Y-66026247D01*
X185180952Y-66026247D02*
X185180952Y-66264342D01*
X185180952Y-66264342D02*
X185133333Y-66359580D01*
X185133333Y-66359580D02*
X185085714Y-66407200D01*
X185085714Y-66407200D02*
X184990476Y-66454819D01*
X184990476Y-66454819D02*
X184704762Y-66454819D01*
X184704762Y-66454819D02*
X184609524Y-66407200D01*
X184609524Y-66407200D02*
X184561905Y-66359580D01*
X185800000Y-65454819D02*
X185895238Y-65454819D01*
X185895238Y-65454819D02*
X185990476Y-65502438D01*
X185990476Y-65502438D02*
X186038095Y-65550057D01*
X186038095Y-65550057D02*
X186085714Y-65645295D01*
X186085714Y-65645295D02*
X186133333Y-65835771D01*
X186133333Y-65835771D02*
X186133333Y-66073866D01*
X186133333Y-66073866D02*
X186085714Y-66264342D01*
X186085714Y-66264342D02*
X186038095Y-66359580D01*
X186038095Y-66359580D02*
X185990476Y-66407200D01*
X185990476Y-66407200D02*
X185895238Y-66454819D01*
X185895238Y-66454819D02*
X185800000Y-66454819D01*
X185800000Y-66454819D02*
X185704762Y-66407200D01*
X185704762Y-66407200D02*
X185657143Y-66359580D01*
X185657143Y-66359580D02*
X185609524Y-66264342D01*
X185609524Y-66264342D02*
X185561905Y-66073866D01*
X185561905Y-66073866D02*
X185561905Y-65835771D01*
X185561905Y-65835771D02*
X185609524Y-65645295D01*
X185609524Y-65645295D02*
X185657143Y-65550057D01*
X185657143Y-65550057D02*
X185704762Y-65502438D01*
X185704762Y-65502438D02*
X185800000Y-65454819D01*
X187085714Y-66454819D02*
X186514286Y-66454819D01*
X186800000Y-66454819D02*
X186800000Y-65454819D01*
X186800000Y-65454819D02*
X186704762Y-65597676D01*
X186704762Y-65597676D02*
X186609524Y-65692914D01*
X186609524Y-65692914D02*
X186514286Y-65740533D01*
X145825952Y-93279580D02*
X145778333Y-93327200D01*
X145778333Y-93327200D02*
X145635476Y-93374819D01*
X145635476Y-93374819D02*
X145540238Y-93374819D01*
X145540238Y-93374819D02*
X145397381Y-93327200D01*
X145397381Y-93327200D02*
X145302143Y-93231961D01*
X145302143Y-93231961D02*
X145254524Y-93136723D01*
X145254524Y-93136723D02*
X145206905Y-92946247D01*
X145206905Y-92946247D02*
X145206905Y-92803390D01*
X145206905Y-92803390D02*
X145254524Y-92612914D01*
X145254524Y-92612914D02*
X145302143Y-92517676D01*
X145302143Y-92517676D02*
X145397381Y-92422438D01*
X145397381Y-92422438D02*
X145540238Y-92374819D01*
X145540238Y-92374819D02*
X145635476Y-92374819D01*
X145635476Y-92374819D02*
X145778333Y-92422438D01*
X145778333Y-92422438D02*
X145825952Y-92470057D01*
X146778333Y-93374819D02*
X146206905Y-93374819D01*
X146492619Y-93374819D02*
X146492619Y-92374819D01*
X146492619Y-92374819D02*
X146397381Y-92517676D01*
X146397381Y-92517676D02*
X146302143Y-92612914D01*
X146302143Y-92612914D02*
X146206905Y-92660533D01*
X147397381Y-92374819D02*
X147492619Y-92374819D01*
X147492619Y-92374819D02*
X147587857Y-92422438D01*
X147587857Y-92422438D02*
X147635476Y-92470057D01*
X147635476Y-92470057D02*
X147683095Y-92565295D01*
X147683095Y-92565295D02*
X147730714Y-92755771D01*
X147730714Y-92755771D02*
X147730714Y-92993866D01*
X147730714Y-92993866D02*
X147683095Y-93184342D01*
X147683095Y-93184342D02*
X147635476Y-93279580D01*
X147635476Y-93279580D02*
X147587857Y-93327200D01*
X147587857Y-93327200D02*
X147492619Y-93374819D01*
X147492619Y-93374819D02*
X147397381Y-93374819D01*
X147397381Y-93374819D02*
X147302143Y-93327200D01*
X147302143Y-93327200D02*
X147254524Y-93279580D01*
X147254524Y-93279580D02*
X147206905Y-93184342D01*
X147206905Y-93184342D02*
X147159286Y-92993866D01*
X147159286Y-92993866D02*
X147159286Y-92755771D01*
X147159286Y-92755771D02*
X147206905Y-92565295D01*
X147206905Y-92565295D02*
X147254524Y-92470057D01*
X147254524Y-92470057D02*
X147302143Y-92422438D01*
X147302143Y-92422438D02*
X147397381Y-92374819D01*
X148111667Y-92470057D02*
X148159286Y-92422438D01*
X148159286Y-92422438D02*
X148254524Y-92374819D01*
X148254524Y-92374819D02*
X148492619Y-92374819D01*
X148492619Y-92374819D02*
X148587857Y-92422438D01*
X148587857Y-92422438D02*
X148635476Y-92470057D01*
X148635476Y-92470057D02*
X148683095Y-92565295D01*
X148683095Y-92565295D02*
X148683095Y-92660533D01*
X148683095Y-92660533D02*
X148635476Y-92803390D01*
X148635476Y-92803390D02*
X148064048Y-93374819D01*
X148064048Y-93374819D02*
X148683095Y-93374819D01*
D11*
%TO.C,TP201*%
X173390000Y-85540000D02*
G75*
G02*
X171990000Y-85540000I-700000J0D01*
G01*
X171990000Y-85540000D02*
G75*
G02*
X173390000Y-85540000I700000J0D01*
G01*
%TO.C,Y101*%
X151800000Y-95500000D02*
X147800000Y-95500000D01*
X151800000Y-98800000D02*
X151800000Y-95500000D01*
%TO.C,U301*%
X176300000Y-87910000D02*
X178100000Y-87910000D01*
X177300000Y-84690000D02*
X176500000Y-84690000D01*
X177300000Y-84690000D02*
X178100000Y-84690000D01*
X176000000Y-84740000D02*
X175760000Y-84410000D01*
X176240000Y-84410000D01*
X176000000Y-84740000D01*
G36*
X176000000Y-84740000D02*
G01*
X175760000Y-84410000D01*
X176240000Y-84410000D01*
X176000000Y-84740000D01*
G37*
%TO.C,U203*%
X169440000Y-87390000D02*
X168690000Y-87390000D01*
X169440000Y-92610000D02*
X168390000Y-92610000D01*
X170560000Y-87390000D02*
X171610000Y-87390000D01*
X170560000Y-92610000D02*
X171610000Y-92610000D01*
X168390000Y-87390000D02*
X168250000Y-87200000D01*
X168530000Y-87200000D01*
X168390000Y-87390000D01*
G36*
X168390000Y-87390000D02*
G01*
X168250000Y-87200000D01*
X168530000Y-87200000D01*
X168390000Y-87390000D01*
G37*
%TO.C,U101*%
X155840000Y-94002500D02*
X155840000Y-93767500D01*
X155840000Y-100747500D02*
X155840000Y-100272500D01*
X156315000Y-93527500D02*
X156140000Y-93527500D01*
X156315000Y-100747500D02*
X155840000Y-100747500D01*
X162585000Y-93527500D02*
X163060000Y-93527500D01*
X162585000Y-100747500D02*
X163060000Y-100747500D01*
X163060000Y-93527500D02*
X163060000Y-94002500D01*
X163060000Y-100747500D02*
X163060000Y-100272500D01*
X155840000Y-93527500D02*
X155600000Y-93197500D01*
X156080000Y-93197500D01*
X155840000Y-93527500D01*
G36*
X155840000Y-93527500D02*
G01*
X155600000Y-93197500D01*
X156080000Y-93197500D01*
X155840000Y-93527500D01*
G37*
%TO.C,R306*%
X163964879Y-81020000D02*
X164300121Y-81020000D01*
X163964879Y-81780000D02*
X164300121Y-81780000D01*
%TO.C,R305*%
X162812500Y-81832379D02*
X162812500Y-82167621D01*
X162052500Y-81832379D02*
X162052500Y-82167621D01*
%TO.C,R304*%
X162812500Y-79532379D02*
X162812500Y-79867621D01*
X162052500Y-79532379D02*
X162052500Y-79867621D01*
%TO.C,R303*%
X164420000Y-73067621D02*
X164420000Y-72732379D01*
X165180000Y-73067621D02*
X165180000Y-72732379D01*
%TO.C,R302*%
X169334879Y-80720000D02*
X169670121Y-80720000D01*
X169334879Y-81480000D02*
X169670121Y-81480000D01*
%TO.C,R301*%
X167470121Y-74380000D02*
X167134879Y-74380000D01*
X167470121Y-73620000D02*
X167134879Y-73620000D01*
%TO.C,R202*%
X170247621Y-85420000D02*
X169912379Y-85420000D01*
X170247621Y-84660000D02*
X169912379Y-84660000D01*
%TO.C,R201*%
X164667621Y-85980000D02*
X164332379Y-85980000D01*
X164667621Y-85220000D02*
X164332379Y-85220000D01*
%TO.C,R102*%
X150929879Y-99020000D02*
X151265121Y-99020000D01*
X150929879Y-99780000D02*
X151265121Y-99780000D01*
%TO.C,R101*%
X172334879Y-61720000D02*
X172670121Y-61720000D01*
X172334879Y-62480000D02*
X172670121Y-62480000D01*
%TO.C,L301*%
X170816665Y-72640000D02*
X171048335Y-72640000D01*
X170816665Y-73360000D02*
X171048335Y-73360000D01*
%TO.C,L101*%
X161716665Y-104940000D02*
X161948335Y-104940000D01*
X161716665Y-105660000D02*
X161948335Y-105660000D01*
%TO.C,JP202*%
X159030000Y-71315000D02*
X159030000Y-74115000D01*
X157030000Y-71315000D02*
X159030000Y-71315000D01*
X159030000Y-74115000D02*
X157030000Y-74115000D01*
X157030000Y-74115000D02*
X157030000Y-71315000D01*
%TO.C,JP201*%
X151900000Y-74075000D02*
X151900000Y-71275000D01*
X153900000Y-74075000D02*
X151900000Y-74075000D01*
X151900000Y-71275000D02*
X153900000Y-71275000D01*
X153900000Y-71275000D02*
X153900000Y-74075000D01*
%TO.C,J201*%
X157160000Y-60870000D02*
X158485000Y-60870000D01*
X158485000Y-60805000D02*
X158485000Y-60870000D01*
X158485000Y-60805000D02*
X162015000Y-60805000D01*
X158485000Y-69750000D02*
X158485000Y-69815000D01*
X158485000Y-69815000D02*
X162015000Y-69815000D01*
X162015000Y-60805000D02*
X162015000Y-60870000D01*
X162015000Y-69750000D02*
X162015000Y-69815000D01*
%TO.C,J102*%
X141070000Y-75070000D02*
X141070000Y-82750000D01*
X141070000Y-75070000D02*
X143730000Y-75070000D01*
X141070000Y-82750000D02*
X143730000Y-82750000D01*
X142400000Y-72470000D02*
X143730000Y-72470000D01*
X143730000Y-72470000D02*
X143730000Y-73800000D01*
X143730000Y-75070000D02*
X143730000Y-82750000D01*
%TO.C,J101*%
X146270000Y-75070000D02*
X146270000Y-80210000D01*
X146270000Y-75070000D02*
X148930000Y-75070000D01*
X146270000Y-80210000D02*
X148930000Y-80210000D01*
X147600000Y-72470000D02*
X148930000Y-72470000D01*
X148930000Y-72470000D02*
X148930000Y-73800000D01*
X148930000Y-75070000D02*
X148930000Y-80210000D01*
%TO.C,IC301*%
X168750000Y-78635000D02*
X168270000Y-78635000D01*
X168510000Y-78305000D01*
X168750000Y-78635000D01*
G36*
X168750000Y-78635000D02*
G01*
X168270000Y-78635000D01*
X168510000Y-78305000D01*
X168750000Y-78635000D01*
G37*
X167210000Y-78380000D02*
X166410000Y-78380000D01*
X167210000Y-78380000D02*
X168010000Y-78380000D01*
X168170000Y-75310000D02*
X166410000Y-75310000D01*
%TO.C,D101*%
X170370121Y-62480000D02*
X170034879Y-62480000D01*
X170370121Y-61720000D02*
X170034879Y-61720000D01*
%TO.C,C309*%
X178240000Y-83383335D02*
X178240000Y-83151665D01*
X178960000Y-83383335D02*
X178960000Y-83151665D01*
%TO.C,C308*%
X175860000Y-89216665D02*
X175860000Y-89448335D01*
X175140000Y-89216665D02*
X175140000Y-89448335D01*
%TO.C,C307*%
X164016665Y-82040000D02*
X164248335Y-82040000D01*
X164016665Y-82760000D02*
X164248335Y-82760000D01*
%TO.C,C306*%
X172890000Y-68883767D02*
X172890000Y-68591233D01*
X173910000Y-68883767D02*
X173910000Y-68591233D01*
%TO.C,C305*%
X171290000Y-68846267D02*
X171290000Y-68553733D01*
X172310000Y-68846267D02*
X172310000Y-68553733D01*
%TO.C,C304*%
X167051665Y-70740000D02*
X167283335Y-70740000D01*
X167051665Y-71460000D02*
X167283335Y-71460000D01*
%TO.C,C303*%
X173540000Y-76720835D02*
X173540000Y-76489165D01*
X174260000Y-76720835D02*
X174260000Y-76489165D01*
%TO.C,C302*%
X163148335Y-77560000D02*
X162916665Y-77560000D01*
X163148335Y-76840000D02*
X162916665Y-76840000D01*
%TO.C,C301*%
X174690000Y-76446267D02*
X174690000Y-76153733D01*
X175710000Y-76446267D02*
X175710000Y-76153733D01*
%TO.C,C210*%
X167048335Y-88360000D02*
X166816665Y-88360000D01*
X167048335Y-87640000D02*
X166816665Y-87640000D01*
%TO.C,C209*%
X167115835Y-92460000D02*
X166884165Y-92460000D01*
X167115835Y-91740000D02*
X166884165Y-91740000D01*
%TO.C,C208*%
X188460000Y-78283335D02*
X188460000Y-78051665D01*
X189180000Y-78283335D02*
X189180000Y-78051665D01*
%TO.C,C207*%
X187616665Y-84240000D02*
X187848335Y-84240000D01*
X187616665Y-84960000D02*
X187848335Y-84960000D01*
%TO.C,C206*%
X187540000Y-96915835D02*
X187540000Y-96684165D01*
X188260000Y-96915835D02*
X188260000Y-96684165D01*
%TO.C,C205*%
X187551665Y-102740000D02*
X187783335Y-102740000D01*
X187551665Y-103460000D02*
X187783335Y-103460000D01*
%TO.C,C202*%
X183460000Y-73284165D02*
X183460000Y-73515835D01*
X182740000Y-73284165D02*
X182740000Y-73515835D01*
%TO.C,C201*%
X183360000Y-91621665D02*
X183360000Y-91853335D01*
X182640000Y-91621665D02*
X182640000Y-91853335D01*
%TO.C,C112*%
X160748335Y-104160000D02*
X160516665Y-104160000D01*
X160748335Y-103440000D02*
X160516665Y-103440000D01*
%TO.C,C111*%
X160748335Y-103060000D02*
X160516665Y-103060000D01*
X160748335Y-102340000D02*
X160516665Y-102340000D01*
%TO.C,C110*%
X164616665Y-101540000D02*
X164848335Y-101540000D01*
X164616665Y-102260000D02*
X164848335Y-102260000D01*
%TO.C,C109*%
X163684165Y-102740000D02*
X163915835Y-102740000D01*
X163684165Y-103460000D02*
X163915835Y-103460000D01*
%TO.C,C108*%
X155140000Y-90983335D02*
X155140000Y-90751665D01*
X155860000Y-90983335D02*
X155860000Y-90751665D01*
%TO.C,C107*%
X163716665Y-103740000D02*
X163948335Y-103740000D01*
X163716665Y-104460000D02*
X163948335Y-104460000D01*
%TO.C,C106*%
X154340000Y-93648335D02*
X154340000Y-93416665D01*
X155060000Y-93648335D02*
X155060000Y-93416665D01*
%TO.C,C105*%
X148960000Y-99916665D02*
X148960000Y-100148335D01*
X148240000Y-99916665D02*
X148240000Y-100148335D01*
%TO.C,C104*%
X165674165Y-94040000D02*
X165905835Y-94040000D01*
X165674165Y-94760000D02*
X165905835Y-94760000D01*
%TO.C,C103*%
X156290000Y-90083767D02*
X156290000Y-89791233D01*
X157310000Y-90083767D02*
X157310000Y-89791233D01*
%TO.C,J202*%
X194990000Y-72490000D02*
X194990000Y-90210000D01*
X194990000Y-90210000D02*
X199010000Y-90210000D01*
X195490000Y-72990000D02*
X196700000Y-72990000D01*
X195490000Y-89710000D02*
X195490000Y-72990000D01*
X196700000Y-72990000D02*
X196700000Y-72490000D01*
X196700000Y-89710000D02*
X195490000Y-89710000D01*
X196700000Y-90210000D02*
X196700000Y-89710000D01*
X196810000Y-90510000D02*
X199310000Y-90510000D01*
X197510000Y-72490000D02*
X197510000Y-73490000D01*
X197510000Y-73490000D02*
X199010000Y-73490000D01*
X197510000Y-89210000D02*
X199010000Y-89210000D01*
X197510000Y-90210000D02*
X197510000Y-89210000D01*
X199010000Y-72490000D02*
X194990000Y-72490000D01*
X199010000Y-90210000D02*
X199010000Y-72490000D01*
X199310000Y-90510000D02*
X199310000Y-88010000D01*
%TO.C,U202*%
X187600000Y-78042500D02*
X187270000Y-77802500D01*
X187600000Y-77562500D01*
X187600000Y-78042500D01*
G36*
X187600000Y-78042500D02*
G01*
X187270000Y-77802500D01*
X187600000Y-77562500D01*
X187600000Y-78042500D01*
G37*
D10*
X187270000Y-78227500D02*
X187270000Y-82377500D01*
X182120000Y-78227500D02*
X182120000Y-82377500D01*
D11*
%TO.C,J301*%
X188810000Y-64610000D02*
X188810000Y-60590000D01*
X188810000Y-63110000D02*
X187810000Y-63110000D01*
X188810000Y-60590000D02*
X181090000Y-60590000D01*
X188310000Y-62300000D02*
X188810000Y-62300000D01*
X188310000Y-61090000D02*
X188310000Y-62300000D01*
X187810000Y-63110000D02*
X187810000Y-64610000D01*
X182090000Y-63110000D02*
X182090000Y-64610000D01*
X181590000Y-62300000D02*
X181590000Y-61090000D01*
X181590000Y-61090000D02*
X188310000Y-61090000D01*
X181090000Y-64610000D02*
X188810000Y-64610000D01*
X181090000Y-63110000D02*
X182090000Y-63110000D01*
X181090000Y-62300000D02*
X181590000Y-62300000D01*
X181090000Y-60590000D02*
X181090000Y-64610000D01*
X180790000Y-64910000D02*
X183290000Y-64910000D01*
X180790000Y-62410000D02*
X180790000Y-64910000D01*
%TO.C,J204*%
X140690000Y-86590000D02*
X140690000Y-89090000D01*
X140990000Y-86890000D02*
X140990000Y-107110000D01*
X140990000Y-107110000D02*
X145010000Y-107110000D01*
X142490000Y-86890000D02*
X142490000Y-87890000D01*
X142490000Y-87890000D02*
X140990000Y-87890000D01*
X142490000Y-106110000D02*
X140990000Y-106110000D01*
X142490000Y-107110000D02*
X142490000Y-106110000D01*
X143190000Y-86590000D02*
X140690000Y-86590000D01*
X143300000Y-86890000D02*
X143300000Y-87390000D01*
X143300000Y-87390000D02*
X144510000Y-87390000D01*
X143300000Y-106610000D02*
X143300000Y-107110000D01*
X144510000Y-87390000D02*
X144510000Y-106610000D01*
X144510000Y-106610000D02*
X143300000Y-106610000D01*
X145010000Y-86890000D02*
X140990000Y-86890000D01*
X145010000Y-107110000D02*
X145010000Y-86890000D01*
%TO.C,J203*%
X194990000Y-91890000D02*
X194990000Y-109610000D01*
X194990000Y-109610000D02*
X199010000Y-109610000D01*
X195490000Y-92390000D02*
X196700000Y-92390000D01*
X195490000Y-109110000D02*
X195490000Y-92390000D01*
X196700000Y-92390000D02*
X196700000Y-91890000D01*
X196700000Y-109110000D02*
X195490000Y-109110000D01*
X196700000Y-109610000D02*
X196700000Y-109110000D01*
X196810000Y-109910000D02*
X199310000Y-109910000D01*
X197510000Y-91890000D02*
X197510000Y-92890000D01*
X197510000Y-92890000D02*
X199010000Y-92890000D01*
X197510000Y-108610000D02*
X199010000Y-108610000D01*
X197510000Y-109610000D02*
X197510000Y-108610000D01*
X199010000Y-91890000D02*
X194990000Y-91890000D01*
X199010000Y-109610000D02*
X199010000Y-91890000D01*
X199310000Y-109910000D02*
X199310000Y-107410000D01*
%TO.C,C203*%
X184190000Y-91591233D02*
X184190000Y-91883767D01*
X185210000Y-91591233D02*
X185210000Y-91883767D01*
%TO.C,J206*%
X175990000Y-110610000D02*
X175990000Y-113110000D01*
X175990000Y-113110000D02*
X178490000Y-113110000D01*
X176290000Y-108790000D02*
X176290000Y-112810000D01*
X176290000Y-110500000D02*
X176790000Y-110500000D01*
X176290000Y-111310000D02*
X177290000Y-111310000D01*
X176290000Y-112810000D02*
X189010000Y-112810000D01*
X176790000Y-109290000D02*
X188510000Y-109290000D01*
X176790000Y-110500000D02*
X176790000Y-109290000D01*
X177290000Y-111310000D02*
X177290000Y-112810000D01*
X188010000Y-111310000D02*
X188010000Y-112810000D01*
X188510000Y-109290000D02*
X188510000Y-110500000D01*
X188510000Y-110500000D02*
X189010000Y-110500000D01*
X189010000Y-108790000D02*
X176290000Y-108790000D01*
X189010000Y-111310000D02*
X188010000Y-111310000D01*
X189010000Y-112810000D02*
X189010000Y-108790000D01*
%TO.C,J205*%
X149590000Y-110510000D02*
X149590000Y-113010000D01*
X149590000Y-113010000D02*
X152090000Y-113010000D01*
X149890000Y-108690000D02*
X149890000Y-112710000D01*
X149890000Y-110400000D02*
X150390000Y-110400000D01*
X149890000Y-111210000D02*
X150890000Y-111210000D01*
X149890000Y-112710000D02*
X162610000Y-112710000D01*
X150390000Y-109190000D02*
X162110000Y-109190000D01*
X150390000Y-110400000D02*
X150390000Y-109190000D01*
X150890000Y-111210000D02*
X150890000Y-112710000D01*
X161610000Y-111210000D02*
X161610000Y-112710000D01*
X162110000Y-109190000D02*
X162110000Y-110400000D01*
X162110000Y-110400000D02*
X162610000Y-110400000D01*
X162610000Y-108690000D02*
X149890000Y-108690000D01*
X162610000Y-111210000D02*
X161610000Y-111210000D01*
X162610000Y-112710000D02*
X162610000Y-108690000D01*
%TO.C,C204*%
X184290000Y-73191233D02*
X184290000Y-73483767D01*
X185310000Y-73191233D02*
X185310000Y-73483767D01*
D10*
%TO.C,U201*%
X181720000Y-96527500D02*
X181720000Y-100677500D01*
X186870000Y-96527500D02*
X186870000Y-100677500D01*
D11*
X187200000Y-96342500D02*
X186870000Y-96102500D01*
X187200000Y-95862500D01*
X187200000Y-96342500D01*
G36*
X187200000Y-96342500D02*
G01*
X186870000Y-96102500D01*
X187200000Y-95862500D01*
X187200000Y-96342500D01*
G37*
%TO.C,J208*%
X175890000Y-116110000D02*
X175890000Y-118610000D01*
X175890000Y-118610000D02*
X178390000Y-118610000D01*
X176190000Y-114290000D02*
X176190000Y-118310000D01*
X176190000Y-116000000D02*
X176690000Y-116000000D01*
X176190000Y-116810000D02*
X177190000Y-116810000D01*
X176190000Y-118310000D02*
X188910000Y-118310000D01*
X176690000Y-114790000D02*
X188410000Y-114790000D01*
X176690000Y-116000000D02*
X176690000Y-114790000D01*
X177190000Y-116810000D02*
X177190000Y-118310000D01*
X187910000Y-116810000D02*
X187910000Y-118310000D01*
X188410000Y-114790000D02*
X188410000Y-116000000D01*
X188410000Y-116000000D02*
X188910000Y-116000000D01*
X188910000Y-114290000D02*
X176190000Y-114290000D01*
X188910000Y-116810000D02*
X187910000Y-116810000D01*
X188910000Y-118310000D02*
X188910000Y-114290000D01*
%TO.C,J207*%
X149490000Y-116010000D02*
X149490000Y-118510000D01*
X149490000Y-118510000D02*
X151990000Y-118510000D01*
X149790000Y-114190000D02*
X149790000Y-118210000D01*
X149790000Y-115900000D02*
X150290000Y-115900000D01*
X149790000Y-116710000D02*
X150790000Y-116710000D01*
X149790000Y-118210000D02*
X162510000Y-118210000D01*
X150290000Y-114690000D02*
X162010000Y-114690000D01*
X150290000Y-115900000D02*
X150290000Y-114690000D01*
X150790000Y-116710000D02*
X150790000Y-118210000D01*
X161510000Y-116710000D02*
X161510000Y-118210000D01*
X162010000Y-114690000D02*
X162010000Y-115900000D01*
X162010000Y-115900000D02*
X162510000Y-115900000D01*
X162510000Y-114190000D02*
X149790000Y-114190000D01*
X162510000Y-116710000D02*
X161510000Y-116710000D01*
X162510000Y-118210000D02*
X162510000Y-114190000D01*
%TO.C,SW201*%
X166195000Y-111720000D02*
X172655000Y-111720000D01*
X166195000Y-111750000D02*
X166195000Y-111720000D01*
X166195000Y-113650000D02*
X166195000Y-116250000D01*
X166195000Y-118180000D02*
X166195000Y-118150000D01*
X166195000Y-118180000D02*
X172655000Y-118180000D01*
X172655000Y-111720000D02*
X172655000Y-111750000D01*
X172655000Y-113650000D02*
X172655000Y-116250000D01*
X172655000Y-118180000D02*
X172655000Y-118150000D01*
%TO.C,SW301*%
X176900000Y-66900000D02*
X190300000Y-66900000D01*
X176900000Y-69900000D02*
X176900000Y-66900000D01*
X177900000Y-70900000D02*
X176900000Y-69900000D01*
X190300000Y-66900000D02*
X190300000Y-70900000D01*
X190300000Y-70900000D02*
X177900000Y-70900000D01*
%TO.C,C102*%
X147866665Y-93740000D02*
X148098335Y-93740000D01*
X147866665Y-94460000D02*
X148098335Y-94460000D01*
%TD*%
M02*
