%TF.GenerationSoftware,KiCad,Pcbnew,8.0.5*%
%TF.CreationDate,2024-09-20T22:50:33+02:00*%
%TF.ProjectId,ESE_AL8,4553455f-414c-4382-9e6b-696361645f70,rev?*%
%TF.SameCoordinates,Original*%
%TF.FileFunction,Soldermask,Bot*%
%TF.FilePolarity,Negative*%
%FSLAX46Y46*%
G04 Gerber Fmt 4.6, Leading zero omitted, Abs format (unit mm)*
G04 Created by KiCad (PCBNEW 8.0.5) date 2024-09-20 22:50:33*
%MOMM*%
%LPD*%
G01*
G04 APERTURE LIST*
G04 Aperture macros list*
%AMRoundRect*
0 Rectangle with rounded corners*
0 $1 Rounding radius*
0 $2 $3 $4 $5 $6 $7 $8 $9 X,Y pos of 4 corners*
0 Add a 4 corners polygon primitive as box body*
4,1,4,$2,$3,$4,$5,$6,$7,$8,$9,$2,$3,0*
0 Add four circle primitives for the rounded corners*
1,1,$1+$1,$2,$3*
1,1,$1+$1,$4,$5*
1,1,$1+$1,$6,$7*
1,1,$1+$1,$8,$9*
0 Add four rect primitives between the rounded corners*
20,1,$1+$1,$2,$3,$4,$5,0*
20,1,$1+$1,$4,$5,$6,$7,0*
20,1,$1+$1,$6,$7,$8,$9,0*
20,1,$1+$1,$8,$9,$2,$3,0*%
G04 Aperture macros list end*
%ADD10R,1.700000X1.700000*%
%ADD11O,1.700000X1.700000*%
%ADD12RoundRect,0.250000X0.725000X-0.600000X0.725000X0.600000X-0.725000X0.600000X-0.725000X-0.600000X0*%
%ADD13O,1.950000X1.700000*%
%ADD14C,0.800000*%
%ADD15C,6.400000*%
%ADD16RoundRect,0.250000X-0.600000X-0.750000X0.600000X-0.750000X0.600000X0.750000X-0.600000X0.750000X0*%
%ADD17O,1.700000X2.000000*%
%ADD18RoundRect,0.250000X-0.725000X0.600000X-0.725000X-0.600000X0.725000X-0.600000X0.725000X0.600000X0*%
%ADD19RoundRect,0.250000X-0.600000X-0.725000X0.600000X-0.725000X0.600000X0.725000X-0.600000X0.725000X0*%
%ADD20O,1.700000X1.950000*%
%ADD21O,3.000000X3.000000*%
G04 APERTURE END LIST*
D10*
%TO.C,J102*%
X142400000Y-73800000D03*
D11*
X142400000Y-76340000D03*
X142400000Y-78880000D03*
X142400000Y-81420000D03*
%TD*%
D10*
%TO.C,J101*%
X147600000Y-73800000D03*
D11*
X147600000Y-76340000D03*
X147600000Y-78880000D03*
%TD*%
D12*
%TO.C,J202*%
X196700000Y-87600000D03*
D13*
X196700000Y-85100000D03*
X196700000Y-82600000D03*
X196700000Y-80100000D03*
X196700000Y-77600000D03*
X196700000Y-75100000D03*
%TD*%
D14*
%TO.C,H104*%
X192200000Y-115302900D03*
X192902944Y-113605844D03*
X192902944Y-116999956D03*
X194600000Y-112902900D03*
D15*
X194600000Y-115302900D03*
D14*
X194600000Y-117702900D03*
X196297056Y-113605844D03*
X196297056Y-116999956D03*
X197000000Y-115302900D03*
%TD*%
D16*
%TO.C,J301*%
X183700000Y-62300000D03*
D17*
X186200000Y-62300000D03*
%TD*%
D18*
%TO.C,J204*%
X143300000Y-89500000D03*
D13*
X143300000Y-92000000D03*
X143300000Y-94500000D03*
X143300000Y-97000000D03*
X143300000Y-99500000D03*
X143300000Y-102000000D03*
X143300000Y-104500000D03*
%TD*%
D14*
%TO.C,H102*%
X192902900Y-64697100D03*
X193605844Y-63000044D03*
X193605844Y-66394156D03*
X195302900Y-62297100D03*
D15*
X195302900Y-64697100D03*
D14*
X195302900Y-67097100D03*
X196999956Y-63000044D03*
X196999956Y-66394156D03*
X197702900Y-64697100D03*
%TD*%
D12*
%TO.C,J203*%
X196700000Y-107000000D03*
D13*
X196700000Y-104500000D03*
X196700000Y-102000000D03*
X196700000Y-99500000D03*
X196700000Y-97000000D03*
X196700000Y-94500000D03*
%TD*%
D14*
%TO.C,H101*%
X142200000Y-65000000D03*
X142902944Y-63302944D03*
X142902944Y-66697056D03*
X144600000Y-62600000D03*
D15*
X144600000Y-65000000D03*
D14*
X144600000Y-67400000D03*
X146297056Y-63302944D03*
X146297056Y-66697056D03*
X147000000Y-65000000D03*
%TD*%
%TO.C,H103*%
X142297100Y-115302900D03*
X143000044Y-113605844D03*
X143000044Y-116999956D03*
X144697100Y-112902900D03*
D15*
X144697100Y-115302900D03*
D14*
X144697100Y-117702900D03*
X146394156Y-113605844D03*
X146394156Y-116999956D03*
X147097100Y-115302900D03*
%TD*%
D19*
%TO.C,J206*%
X178900000Y-110500000D03*
D20*
X181400000Y-110500000D03*
X183900000Y-110500000D03*
X186400000Y-110500000D03*
%TD*%
D19*
%TO.C,J205*%
X152500000Y-110400000D03*
D20*
X155000000Y-110400000D03*
X157500000Y-110400000D03*
X160000000Y-110400000D03*
%TD*%
D19*
%TO.C,J208*%
X178800000Y-116000000D03*
D20*
X181300000Y-116000000D03*
X183800000Y-116000000D03*
X186300000Y-116000000D03*
%TD*%
D19*
%TO.C,J207*%
X152400000Y-115900000D03*
D20*
X154900000Y-115900000D03*
X157400000Y-115900000D03*
X159900000Y-115900000D03*
%TD*%
D21*
%TO.C,SW301*%
X178900000Y-68900000D03*
X183600000Y-68900000D03*
X188300000Y-68900000D03*
%TD*%
M02*
