%TF.GenerationSoftware,KiCad,Pcbnew,8.0.5*%
%TF.CreationDate,2024-09-20T22:50:33+02:00*%
%TF.ProjectId,ESE_AL8,4553455f-414c-4382-9e6b-696361645f70,rev?*%
%TF.SameCoordinates,Original*%
%TF.FileFunction,Soldermask,Top*%
%TF.FilePolarity,Negative*%
%FSLAX46Y46*%
G04 Gerber Fmt 4.6, Leading zero omitted, Abs format (unit mm)*
G04 Created by KiCad (PCBNEW 8.0.5) date 2024-09-20 22:50:33*
%MOMM*%
%LPD*%
G01*
G04 APERTURE LIST*
G04 Aperture macros list*
%AMRoundRect*
0 Rectangle with rounded corners*
0 $1 Rounding radius*
0 $2 $3 $4 $5 $6 $7 $8 $9 X,Y pos of 4 corners*
0 Add a 4 corners polygon primitive as box body*
4,1,4,$2,$3,$4,$5,$6,$7,$8,$9,$2,$3,0*
0 Add four circle primitives for the rounded corners*
1,1,$1+$1,$2,$3*
1,1,$1+$1,$4,$5*
1,1,$1+$1,$6,$7*
1,1,$1+$1,$8,$9*
0 Add four rect primitives between the rounded corners*
20,1,$1+$1,$2,$3,$4,$5,0*
20,1,$1+$1,$4,$5,$6,$7,0*
20,1,$1+$1,$6,$7,$8,$9,0*
20,1,$1+$1,$8,$9,$2,$3,0*%
%AMFreePoly0*
4,1,6,1.000000,0.000000,0.500000,-0.750000,-0.500000,-0.750000,-0.500000,0.750000,0.500000,0.750000,1.000000,0.000000,1.000000,0.000000,$1*%
%AMFreePoly1*
4,1,6,0.500000,-0.750000,-0.650000,-0.750000,-0.150000,0.000000,-0.650000,0.750000,0.500000,0.750000,0.500000,-0.750000,0.500000,-0.750000,$1*%
G04 Aperture macros list end*
%ADD10C,1.000000*%
%ADD11R,1.400000X1.200000*%
%ADD12RoundRect,0.162500X-0.617500X-0.162500X0.617500X-0.162500X0.617500X0.162500X-0.617500X0.162500X0*%
%ADD13RoundRect,0.150000X-0.325000X-0.150000X0.325000X-0.150000X0.325000X0.150000X-0.325000X0.150000X0*%
%ADD14RoundRect,0.150000X-0.150000X-0.325000X0.150000X-0.325000X0.150000X0.325000X-0.150000X0.325000X0*%
%ADD15RoundRect,0.062500X-0.375000X-0.062500X0.375000X-0.062500X0.375000X0.062500X-0.375000X0.062500X0*%
%ADD16RoundRect,0.062500X-0.062500X-0.375000X0.062500X-0.375000X0.062500X0.375000X-0.062500X0.375000X0*%
%ADD17R,5.600000X5.600000*%
%ADD18RoundRect,0.160000X-0.197500X-0.160000X0.197500X-0.160000X0.197500X0.160000X-0.197500X0.160000X0*%
%ADD19RoundRect,0.160000X-0.160000X0.197500X-0.160000X-0.197500X0.160000X-0.197500X0.160000X0.197500X0*%
%ADD20RoundRect,0.160000X0.160000X-0.197500X0.160000X0.197500X-0.160000X0.197500X-0.160000X-0.197500X0*%
%ADD21RoundRect,0.160000X0.197500X0.160000X-0.197500X0.160000X-0.197500X-0.160000X0.197500X-0.160000X0*%
%ADD22RoundRect,0.155000X-0.212500X-0.155000X0.212500X-0.155000X0.212500X0.155000X-0.212500X0.155000X0*%
%ADD23FreePoly0,270.000000*%
%ADD24FreePoly1,270.000000*%
%ADD25R,2.400000X0.740000*%
%ADD26R,1.700000X1.700000*%
%ADD27O,1.700000X1.700000*%
%ADD28RoundRect,0.100000X0.900000X0.100000X-0.900000X0.100000X-0.900000X-0.100000X0.900000X-0.100000X0*%
%ADD29RoundRect,0.155000X0.155000X-0.212500X0.155000X0.212500X-0.155000X0.212500X-0.155000X-0.212500X0*%
%ADD30RoundRect,0.155000X-0.155000X0.212500X-0.155000X-0.212500X0.155000X-0.212500X0.155000X0.212500X0*%
%ADD31RoundRect,0.237500X0.237500X-0.300000X0.237500X0.300000X-0.237500X0.300000X-0.237500X-0.300000X0*%
%ADD32RoundRect,0.155000X0.212500X0.155000X-0.212500X0.155000X-0.212500X-0.155000X0.212500X-0.155000X0*%
%ADD33RoundRect,0.250000X0.725000X-0.600000X0.725000X0.600000X-0.725000X0.600000X-0.725000X-0.600000X0*%
%ADD34O,1.950000X1.700000*%
%ADD35C,0.800000*%
%ADD36C,6.400000*%
%ADD37R,3.502000X2.613000*%
%ADD38R,0.802000X1.505000*%
%ADD39RoundRect,0.250000X-0.600000X-0.750000X0.600000X-0.750000X0.600000X0.750000X-0.600000X0.750000X0*%
%ADD40O,1.700000X2.000000*%
%ADD41RoundRect,0.250000X-0.725000X0.600000X-0.725000X-0.600000X0.725000X-0.600000X0.725000X0.600000X0*%
%ADD42RoundRect,0.237500X-0.237500X0.300000X-0.237500X-0.300000X0.237500X-0.300000X0.237500X0.300000X0*%
%ADD43RoundRect,0.250000X-0.600000X-0.725000X0.600000X-0.725000X0.600000X0.725000X-0.600000X0.725000X0*%
%ADD44O,1.700000X1.950000*%
%ADD45R,1.550000X1.300000*%
%ADD46O,3.000000X3.000000*%
G04 APERTURE END LIST*
D10*
%TO.C,TP201*%
X172690000Y-85540000D03*
%TD*%
D11*
%TO.C,Y101*%
X150900000Y-98000000D03*
X148700000Y-98000000D03*
X148700000Y-96300000D03*
X150900000Y-96300000D03*
%TD*%
D12*
%TO.C,U301*%
X175850000Y-85350000D03*
X175850000Y-86300000D03*
X175850000Y-87250000D03*
X178550000Y-87250000D03*
X178550000Y-85350000D03*
%TD*%
D13*
%TO.C,U203*%
X169000000Y-88000000D03*
X169000000Y-88800000D03*
X169000000Y-89600000D03*
X169000000Y-90400000D03*
X169000000Y-91200000D03*
X169000000Y-92000000D03*
D14*
X170000000Y-92000000D03*
D13*
X171000000Y-92000000D03*
X171000000Y-91200000D03*
X171000000Y-90400000D03*
X171000000Y-89600000D03*
X171000000Y-88800000D03*
X171000000Y-88000000D03*
D14*
X170000000Y-88000000D03*
%TD*%
D15*
%TO.C,U101*%
X156012500Y-94387500D03*
X156012500Y-94887500D03*
X156012500Y-95387500D03*
X156012500Y-95887500D03*
X156012500Y-96387500D03*
X156012500Y-96887500D03*
X156012500Y-97387500D03*
X156012500Y-97887500D03*
X156012500Y-98387500D03*
X156012500Y-98887500D03*
X156012500Y-99387500D03*
X156012500Y-99887500D03*
D16*
X156700000Y-100575000D03*
X157200000Y-100575000D03*
X157700000Y-100575000D03*
X158200000Y-100575000D03*
X158700000Y-100575000D03*
X159200000Y-100575000D03*
X159700000Y-100575000D03*
X160200000Y-100575000D03*
X160700000Y-100575000D03*
X161200000Y-100575000D03*
X161700000Y-100575000D03*
X162200000Y-100575000D03*
D15*
X162887500Y-99887500D03*
X162887500Y-99387500D03*
X162887500Y-98887500D03*
X162887500Y-98387500D03*
X162887500Y-97887500D03*
X162887500Y-97387500D03*
X162887500Y-96887500D03*
X162887500Y-96387500D03*
X162887500Y-95887500D03*
X162887500Y-95387500D03*
X162887500Y-94887500D03*
X162887500Y-94387500D03*
D16*
X162200000Y-93700000D03*
X161700000Y-93700000D03*
X161200000Y-93700000D03*
X160700000Y-93700000D03*
X160200000Y-93700000D03*
X159700000Y-93700000D03*
X159200000Y-93700000D03*
X158700000Y-93700000D03*
X158200000Y-93700000D03*
X157700000Y-93700000D03*
X157200000Y-93700000D03*
X156700000Y-93700000D03*
D17*
X159450000Y-97137500D03*
%TD*%
D18*
%TO.C,R306*%
X163535000Y-81400000D03*
X164730000Y-81400000D03*
%TD*%
D19*
%TO.C,R305*%
X162432500Y-81402500D03*
X162432500Y-82597500D03*
%TD*%
%TO.C,R304*%
X162432500Y-79102500D03*
X162432500Y-80297500D03*
%TD*%
D20*
%TO.C,R303*%
X164800000Y-73497500D03*
X164800000Y-72302500D03*
%TD*%
D18*
%TO.C,R302*%
X168905000Y-81100000D03*
X170100000Y-81100000D03*
%TD*%
D21*
%TO.C,R301*%
X167900000Y-74000000D03*
X166705000Y-74000000D03*
%TD*%
%TO.C,R202*%
X170677500Y-85040000D03*
X169482500Y-85040000D03*
%TD*%
%TO.C,R201*%
X165097500Y-85600000D03*
X163902500Y-85600000D03*
%TD*%
D18*
%TO.C,R102*%
X150500000Y-99400000D03*
X151695000Y-99400000D03*
%TD*%
%TO.C,R101*%
X171905000Y-62100000D03*
X173100000Y-62100000D03*
%TD*%
D22*
%TO.C,L301*%
X170365000Y-73000000D03*
X171500000Y-73000000D03*
%TD*%
%TO.C,L101*%
X161265000Y-105300000D03*
X162400000Y-105300000D03*
%TD*%
D23*
%TO.C,JP202*%
X158030000Y-71990000D03*
D24*
X158030000Y-73440000D03*
%TD*%
%TO.C,JP201*%
X152900000Y-73400000D03*
D23*
X152900000Y-71950000D03*
%TD*%
D25*
%TO.C,J201*%
X158300000Y-61500000D03*
X162200000Y-61500000D03*
X158300000Y-62770000D03*
X162200000Y-62770000D03*
X158300000Y-64040000D03*
X162200000Y-64040000D03*
X158300000Y-65310000D03*
X162200000Y-65310000D03*
X158300000Y-66580000D03*
X162200000Y-66580000D03*
X158300000Y-67850000D03*
X162200000Y-67850000D03*
X158300000Y-69120000D03*
X162200000Y-69120000D03*
%TD*%
D26*
%TO.C,J102*%
X142400000Y-73800000D03*
D27*
X142400000Y-76340000D03*
X142400000Y-78880000D03*
X142400000Y-81420000D03*
%TD*%
D26*
%TO.C,J101*%
X147600000Y-73800000D03*
D27*
X147600000Y-76340000D03*
X147600000Y-78880000D03*
%TD*%
D28*
%TO.C,IC301*%
X165580000Y-77840000D03*
X165580000Y-77200000D03*
X165580000Y-76540000D03*
X165580000Y-75900000D03*
X169000000Y-75900000D03*
X169000000Y-76540000D03*
X169000000Y-77200000D03*
X169000000Y-77840000D03*
%TD*%
D21*
%TO.C,D101*%
X170800000Y-62100000D03*
X169605000Y-62100000D03*
%TD*%
D29*
%TO.C,C309*%
X178600000Y-83835000D03*
X178600000Y-82700000D03*
%TD*%
D30*
%TO.C,C308*%
X175500000Y-88765000D03*
X175500000Y-89900000D03*
%TD*%
D22*
%TO.C,C307*%
X163565000Y-82400000D03*
X164700000Y-82400000D03*
%TD*%
D31*
%TO.C,C306*%
X173400000Y-69600000D03*
X173400000Y-67875000D03*
%TD*%
%TO.C,C305*%
X171800000Y-69562500D03*
X171800000Y-67837500D03*
%TD*%
D22*
%TO.C,C304*%
X166600000Y-71100000D03*
X167735000Y-71100000D03*
%TD*%
D29*
%TO.C,C303*%
X173900000Y-77172500D03*
X173900000Y-76037500D03*
%TD*%
D32*
%TO.C,C302*%
X163600000Y-77200000D03*
X162465000Y-77200000D03*
%TD*%
D31*
%TO.C,C301*%
X175200000Y-77162500D03*
X175200000Y-75437500D03*
%TD*%
D32*
%TO.C,C210*%
X167500000Y-88000000D03*
X166365000Y-88000000D03*
%TD*%
%TO.C,C209*%
X167567500Y-92100000D03*
X166432500Y-92100000D03*
%TD*%
D29*
%TO.C,C208*%
X188820000Y-78735000D03*
X188820000Y-77600000D03*
%TD*%
D22*
%TO.C,C207*%
X187165000Y-84600000D03*
X188300000Y-84600000D03*
%TD*%
D29*
%TO.C,C206*%
X187900000Y-97367500D03*
X187900000Y-96232500D03*
%TD*%
D22*
%TO.C,C205*%
X187100000Y-103100000D03*
X188235000Y-103100000D03*
%TD*%
D30*
%TO.C,C202*%
X183100000Y-72832500D03*
X183100000Y-73967500D03*
%TD*%
%TO.C,C201*%
X183000000Y-91170000D03*
X183000000Y-92305000D03*
%TD*%
D32*
%TO.C,C112*%
X161200000Y-103800000D03*
X160065000Y-103800000D03*
%TD*%
%TO.C,C111*%
X161200000Y-102700000D03*
X160065000Y-102700000D03*
%TD*%
D22*
%TO.C,C110*%
X164165000Y-101900000D03*
X165300000Y-101900000D03*
%TD*%
%TO.C,C109*%
X163232500Y-103100000D03*
X164367500Y-103100000D03*
%TD*%
D29*
%TO.C,C108*%
X155500000Y-91435000D03*
X155500000Y-90300000D03*
%TD*%
D22*
%TO.C,C107*%
X163265000Y-104100000D03*
X164400000Y-104100000D03*
%TD*%
D29*
%TO.C,C106*%
X154700000Y-94100000D03*
X154700000Y-92965000D03*
%TD*%
D30*
%TO.C,C105*%
X148600000Y-99465000D03*
X148600000Y-100600000D03*
%TD*%
D22*
%TO.C,C104*%
X165222500Y-94400000D03*
X166357500Y-94400000D03*
%TD*%
D31*
%TO.C,C103*%
X156800000Y-90800000D03*
X156800000Y-89075000D03*
%TD*%
D33*
%TO.C,J202*%
X196700000Y-87600000D03*
D34*
X196700000Y-85100000D03*
X196700000Y-82600000D03*
X196700000Y-80100000D03*
X196700000Y-77600000D03*
X196700000Y-75100000D03*
%TD*%
D35*
%TO.C,H104*%
X192200000Y-115302900D03*
X192902944Y-113605844D03*
X192902944Y-116999956D03*
X194600000Y-112902900D03*
D36*
X194600000Y-115302900D03*
D35*
X194600000Y-117702900D03*
X196297056Y-113605844D03*
X196297056Y-116999956D03*
X197000000Y-115302900D03*
%TD*%
D37*
%TO.C,U202*%
X184695000Y-80302500D03*
D38*
X186600000Y-82800000D03*
X185330000Y-82800000D03*
X184060000Y-82800000D03*
X182790000Y-82800000D03*
X182790000Y-77805000D03*
X184060000Y-77805000D03*
X185330000Y-77805000D03*
X186600000Y-77805000D03*
%TD*%
D39*
%TO.C,J301*%
X183700000Y-62300000D03*
D40*
X186200000Y-62300000D03*
%TD*%
D41*
%TO.C,J204*%
X143300000Y-89500000D03*
D34*
X143300000Y-92000000D03*
X143300000Y-94500000D03*
X143300000Y-97000000D03*
X143300000Y-99500000D03*
X143300000Y-102000000D03*
X143300000Y-104500000D03*
%TD*%
D35*
%TO.C,H102*%
X192902900Y-64697100D03*
X193605844Y-63000044D03*
X193605844Y-66394156D03*
X195302900Y-62297100D03*
D36*
X195302900Y-64697100D03*
D35*
X195302900Y-67097100D03*
X196999956Y-63000044D03*
X196999956Y-66394156D03*
X197702900Y-64697100D03*
%TD*%
D33*
%TO.C,J203*%
X196700000Y-107000000D03*
D34*
X196700000Y-104500000D03*
X196700000Y-102000000D03*
X196700000Y-99500000D03*
X196700000Y-97000000D03*
X196700000Y-94500000D03*
%TD*%
D35*
%TO.C,H101*%
X142200000Y-65000000D03*
X142902944Y-63302944D03*
X142902944Y-66697056D03*
X144600000Y-62600000D03*
D36*
X144600000Y-65000000D03*
D35*
X144600000Y-67400000D03*
X146297056Y-63302944D03*
X146297056Y-66697056D03*
X147000000Y-65000000D03*
%TD*%
%TO.C,H103*%
X142297100Y-115302900D03*
X143000044Y-113605844D03*
X143000044Y-116999956D03*
X144697100Y-112902900D03*
D36*
X144697100Y-115302900D03*
D35*
X144697100Y-117702900D03*
X146394156Y-113605844D03*
X146394156Y-116999956D03*
X147097100Y-115302900D03*
%TD*%
D42*
%TO.C,C203*%
X184700000Y-90875000D03*
X184700000Y-92600000D03*
%TD*%
D43*
%TO.C,J206*%
X178900000Y-110500000D03*
D44*
X181400000Y-110500000D03*
X183900000Y-110500000D03*
X186400000Y-110500000D03*
%TD*%
D43*
%TO.C,J205*%
X152500000Y-110400000D03*
D44*
X155000000Y-110400000D03*
X157500000Y-110400000D03*
X160000000Y-110400000D03*
%TD*%
D42*
%TO.C,C204*%
X184800000Y-72475000D03*
X184800000Y-74200000D03*
%TD*%
D38*
%TO.C,U201*%
X186200000Y-96105000D03*
X184930000Y-96105000D03*
X183660000Y-96105000D03*
X182390000Y-96105000D03*
X182390000Y-101100000D03*
X183660000Y-101100000D03*
X184930000Y-101100000D03*
X186200000Y-101100000D03*
D37*
X184295000Y-98602500D03*
%TD*%
D43*
%TO.C,J208*%
X178800000Y-116000000D03*
D44*
X181300000Y-116000000D03*
X183800000Y-116000000D03*
X186300000Y-116000000D03*
%TD*%
D43*
%TO.C,J207*%
X152400000Y-115900000D03*
D44*
X154900000Y-115900000D03*
X157400000Y-115900000D03*
X159900000Y-115900000D03*
%TD*%
D45*
%TO.C,SW201*%
X165450000Y-112700000D03*
X173400000Y-112700000D03*
X165450000Y-117200000D03*
X173400000Y-117200000D03*
%TD*%
D46*
%TO.C,SW301*%
X178900000Y-68900000D03*
X183600000Y-68900000D03*
X188300000Y-68900000D03*
%TD*%
D22*
%TO.C,C102*%
X147415000Y-94100000D03*
X148550000Y-94100000D03*
%TD*%
M02*
