%TF.GenerationSoftware,KiCad,Pcbnew,8.0.5*%
%TF.CreationDate,2024-10-08T13:01:26+02:00*%
%TF.ProjectId,ESE_AL8,4553455f-414c-4382-9e6b-696361645f70,rev?*%
%TF.SameCoordinates,Original*%
%TF.FileFunction,Paste,Top*%
%TF.FilePolarity,Positive*%
%FSLAX46Y46*%
G04 Gerber Fmt 4.6, Leading zero omitted, Abs format (unit mm)*
G04 Created by KiCad (PCBNEW 8.0.5) date 2024-10-08 13:01:26*
%MOMM*%
%LPD*%
G01*
G04 APERTURE LIST*
G04 Aperture macros list*
%AMRoundRect*
0 Rectangle with rounded corners*
0 $1 Rounding radius*
0 $2 $3 $4 $5 $6 $7 $8 $9 X,Y pos of 4 corners*
0 Add a 4 corners polygon primitive as box body*
4,1,4,$2,$3,$4,$5,$6,$7,$8,$9,$2,$3,0*
0 Add four circle primitives for the rounded corners*
1,1,$1+$1,$2,$3*
1,1,$1+$1,$4,$5*
1,1,$1+$1,$6,$7*
1,1,$1+$1,$8,$9*
0 Add four rect primitives between the rounded corners*
20,1,$1+$1,$2,$3,$4,$5,0*
20,1,$1+$1,$4,$5,$6,$7,0*
20,1,$1+$1,$6,$7,$8,$9,0*
20,1,$1+$1,$8,$9,$2,$3,0*%
G04 Aperture macros list end*
%ADD10RoundRect,0.218750X-0.218750X-0.256250X0.218750X-0.256250X0.218750X0.256250X-0.218750X0.256250X0*%
%ADD11R,1.400000X1.200000*%
%ADD12RoundRect,0.125000X-0.125000X0.537500X-0.125000X-0.537500X0.125000X-0.537500X0.125000X0.537500X0*%
%ADD13R,4.191000X1.841500*%
%ADD14R,1.550000X1.300000*%
%ADD15RoundRect,0.140000X-0.140000X-0.170000X0.140000X-0.170000X0.140000X0.170000X-0.140000X0.170000X0*%
%ADD16RoundRect,0.135000X-0.135000X-0.185000X0.135000X-0.185000X0.135000X0.185000X-0.135000X0.185000X0*%
%ADD17RoundRect,0.150000X0.512500X0.150000X-0.512500X0.150000X-0.512500X-0.150000X0.512500X-0.150000X0*%
%ADD18RoundRect,0.140000X0.140000X0.170000X-0.140000X0.170000X-0.140000X-0.170000X0.140000X-0.170000X0*%
%ADD19RoundRect,0.140000X-0.170000X0.140000X-0.170000X-0.140000X0.170000X-0.140000X0.170000X0.140000X0*%
%ADD20RoundRect,0.135000X0.135000X0.185000X-0.135000X0.185000X-0.135000X-0.185000X0.135000X-0.185000X0*%
%ADD21RoundRect,0.135000X-0.185000X0.135000X-0.185000X-0.135000X0.185000X-0.135000X0.185000X0.135000X0*%
%ADD22RoundRect,0.140000X0.170000X-0.140000X0.170000X0.140000X-0.170000X0.140000X-0.170000X-0.140000X0*%
%ADD23RoundRect,0.218750X0.218750X0.256250X-0.218750X0.256250X-0.218750X-0.256250X0.218750X-0.256250X0*%
%ADD24RoundRect,0.250000X-0.250000X-0.475000X0.250000X-0.475000X0.250000X0.475000X-0.250000X0.475000X0*%
%ADD25RoundRect,0.150000X-0.325000X-0.150000X0.325000X-0.150000X0.325000X0.150000X-0.325000X0.150000X0*%
%ADD26RoundRect,0.150000X-0.150000X-0.325000X0.150000X-0.325000X0.150000X0.325000X-0.150000X0.325000X0*%
%ADD27RoundRect,0.225000X0.250000X-0.225000X0.250000X0.225000X-0.250000X0.225000X-0.250000X-0.225000X0*%
%ADD28R,0.802000X1.505000*%
%ADD29R,2.101200X1.567800*%
%ADD30RoundRect,0.155000X-0.212500X-0.155000X0.212500X-0.155000X0.212500X0.155000X-0.212500X0.155000X0*%
%ADD31RoundRect,0.225000X-0.250000X0.225000X-0.250000X-0.225000X0.250000X-0.225000X0.250000X0.225000X0*%
%ADD32RoundRect,0.250000X0.250000X0.475000X-0.250000X0.475000X-0.250000X-0.475000X0.250000X-0.475000X0*%
%ADD33RoundRect,0.135000X0.185000X-0.135000X0.185000X0.135000X-0.185000X0.135000X-0.185000X-0.135000X0*%
%ADD34R,0.740000X2.400000*%
%ADD35RoundRect,0.250000X-0.315000X-0.315000X0.315000X-0.315000X0.315000X0.315000X-0.315000X0.315000X0*%
%ADD36RoundRect,0.062500X-0.375000X-0.062500X0.375000X-0.062500X0.375000X0.062500X-0.375000X0.062500X0*%
%ADD37RoundRect,0.062500X-0.062500X-0.375000X0.062500X-0.375000X0.062500X0.375000X-0.062500X0.375000X0*%
G04 APERTURE END LIST*
D10*
%TO.C,D3*%
X141470000Y-101480000D03*
X143045000Y-101480000D03*
%TD*%
D11*
%TO.C,Y1*%
X148207500Y-106160000D03*
X146007500Y-106160000D03*
X146007500Y-107860000D03*
X148207500Y-107860000D03*
%TD*%
D12*
%TO.C,IC1*%
X164550000Y-83000000D03*
X163900000Y-83000000D03*
X163250000Y-83000000D03*
X162600000Y-83000000D03*
X162600000Y-85275000D03*
X163250000Y-85275000D03*
X163900000Y-85275000D03*
X164550000Y-85275000D03*
%TD*%
D13*
%TO.C,L1*%
X153770000Y-87312750D03*
X153770000Y-83947250D03*
%TD*%
D14*
%TO.C,SW1*%
X140200000Y-116540000D03*
X148150000Y-116540000D03*
X140200000Y-121040000D03*
X148150000Y-121040000D03*
%TD*%
D15*
%TO.C,C12*%
X145390000Y-104740000D03*
X146350000Y-104740000D03*
%TD*%
D16*
%TO.C,R10*%
X147600000Y-109260000D03*
X148620000Y-109260000D03*
%TD*%
D17*
%TO.C,U2*%
X165217500Y-95337500D03*
X165217500Y-94387500D03*
X165217500Y-93437500D03*
X162942500Y-93437500D03*
X162942500Y-95337500D03*
%TD*%
D18*
%TO.C,C14*%
X151500000Y-102977500D03*
X150540000Y-102977500D03*
%TD*%
D10*
%TO.C,D2*%
X141470000Y-99790000D03*
X143045000Y-99790000D03*
%TD*%
D18*
%TO.C,C2*%
X138720000Y-88090000D03*
X137760000Y-88090000D03*
%TD*%
%TO.C,C5*%
X163850000Y-87330000D03*
X162890000Y-87330000D03*
%TD*%
D19*
%TO.C,C15*%
X155960000Y-111660000D03*
X155960000Y-112620000D03*
%TD*%
D20*
%TO.C,R13*%
X139945000Y-103110000D03*
X138925000Y-103110000D03*
%TD*%
D21*
%TO.C,R1*%
X135880000Y-82002500D03*
X135880000Y-83022500D03*
%TD*%
D16*
%TO.C,R4*%
X166100000Y-81640000D03*
X167120000Y-81640000D03*
%TD*%
D22*
%TO.C,C21*%
X161070000Y-103980000D03*
X161070000Y-103020000D03*
%TD*%
D20*
%TO.C,R12*%
X139855000Y-101540000D03*
X138835000Y-101540000D03*
%TD*%
D23*
%TO.C,D1*%
X156450000Y-75510000D03*
X154875000Y-75510000D03*
%TD*%
D24*
%TO.C,C9*%
X157087500Y-81787500D03*
X158987500Y-81787500D03*
%TD*%
D15*
%TO.C,C20*%
X142460000Y-77220000D03*
X143420000Y-77220000D03*
%TD*%
D20*
%TO.C,R6*%
X161270000Y-85710000D03*
X160250000Y-85710000D03*
%TD*%
D19*
%TO.C,C7*%
X167090000Y-87570000D03*
X167090000Y-88530000D03*
%TD*%
%TO.C,C201*%
X138470000Y-116540000D03*
X138470000Y-117500000D03*
%TD*%
D24*
%TO.C,C8*%
X157087500Y-79737500D03*
X158987500Y-79737500D03*
%TD*%
D25*
%TO.C,U1*%
X140150000Y-88170000D03*
X140150000Y-88970000D03*
X140150000Y-89770000D03*
X140150000Y-90570000D03*
X140150000Y-91370000D03*
X140150000Y-92170000D03*
D26*
X141150000Y-92170000D03*
D25*
X142150000Y-92170000D03*
X142150000Y-91370000D03*
X142150000Y-90570000D03*
X142150000Y-89770000D03*
X142150000Y-88970000D03*
X142150000Y-88170000D03*
D26*
X141150000Y-88170000D03*
%TD*%
D27*
%TO.C,C28*%
X173680000Y-101320000D03*
X173680000Y-99770000D03*
%TD*%
D28*
%TO.C,U4*%
X175517500Y-103822500D03*
X174247500Y-103822500D03*
X172977500Y-103822500D03*
X171707500Y-103822500D03*
X171707500Y-108817500D03*
X172977500Y-108817500D03*
X174247500Y-108817500D03*
X175517500Y-108817500D03*
D29*
X173612500Y-106320000D03*
%TD*%
D18*
%TO.C,C16*%
X146225000Y-109260000D03*
X145265000Y-109260000D03*
%TD*%
D21*
%TO.C,R7*%
X165995000Y-85597500D03*
X165995000Y-86617500D03*
%TD*%
D16*
%TO.C,R3*%
X157830000Y-75290000D03*
X158850000Y-75290000D03*
%TD*%
D30*
%TO.C,L2*%
X158575000Y-112580000D03*
X159710000Y-112580000D03*
%TD*%
D15*
%TO.C,C18*%
X158500000Y-114580000D03*
X159460000Y-114580000D03*
%TD*%
D22*
%TO.C,C29*%
X172400000Y-101610000D03*
X172400000Y-100650000D03*
%TD*%
D31*
%TO.C,C30*%
X173880000Y-80730000D03*
X173880000Y-82280000D03*
%TD*%
D32*
%TO.C,C3*%
X164510000Y-80570000D03*
X162610000Y-80570000D03*
%TD*%
D22*
%TO.C,C11*%
X161100000Y-95220000D03*
X161100000Y-94260000D03*
%TD*%
D19*
%TO.C,C24*%
X174250000Y-110700000D03*
X174250000Y-111660000D03*
%TD*%
%TO.C,C31*%
X172600000Y-81590000D03*
X172600000Y-82550000D03*
%TD*%
D15*
%TO.C,C19*%
X159810000Y-111220000D03*
X160770000Y-111220000D03*
%TD*%
D28*
%TO.C,U5*%
X175730000Y-84775000D03*
X174460000Y-84775000D03*
X173190000Y-84775000D03*
X171920000Y-84775000D03*
X171920000Y-89770000D03*
X173190000Y-89770000D03*
X174460000Y-89770000D03*
X175730000Y-89770000D03*
D29*
X173825000Y-87272500D03*
%TD*%
D22*
%TO.C,C4*%
X166080000Y-80610000D03*
X166080000Y-79650000D03*
%TD*%
%TO.C,C25*%
X177140000Y-104250000D03*
X177140000Y-103290000D03*
%TD*%
D10*
%TO.C,D4*%
X141490000Y-103110000D03*
X143065000Y-103110000D03*
%TD*%
D22*
%TO.C,C27*%
X177330000Y-85250000D03*
X177330000Y-84290000D03*
%TD*%
%TO.C,C13*%
X152020000Y-101737500D03*
X152020000Y-100777500D03*
%TD*%
D33*
%TO.C,R2*%
X135920000Y-84730000D03*
X135920000Y-85750000D03*
%TD*%
D20*
%TO.C,R5*%
X167090000Y-82700000D03*
X166070000Y-82700000D03*
%TD*%
D19*
%TO.C,C23*%
X156960000Y-111640000D03*
X156960000Y-112600000D03*
%TD*%
D33*
%TO.C,R8*%
X167065000Y-86630000D03*
X167065000Y-85610000D03*
%TD*%
D34*
%TO.C,J7*%
X148620000Y-70290000D03*
X148620000Y-74190000D03*
X147350000Y-70290000D03*
X147350000Y-74190000D03*
X146080000Y-70290000D03*
X146080000Y-74190000D03*
X144810000Y-70290000D03*
X144810000Y-74190000D03*
X143540000Y-70290000D03*
X143540000Y-74190000D03*
X142270000Y-70290000D03*
X142270000Y-74190000D03*
X141000000Y-70290000D03*
X141000000Y-74190000D03*
%TD*%
D20*
%TO.C,R11*%
X139925000Y-99810000D03*
X138905000Y-99810000D03*
%TD*%
D19*
%TO.C,C26*%
X174500000Y-91620000D03*
X174500000Y-92580000D03*
%TD*%
%TO.C,C1*%
X140160000Y-93592500D03*
X140160000Y-94552500D03*
%TD*%
D22*
%TO.C,C17*%
X153020000Y-101737500D03*
X153020000Y-100777500D03*
%TD*%
%TO.C,C10*%
X167020000Y-95360000D03*
X167020000Y-94400000D03*
%TD*%
D35*
%TO.C,U3*%
X154270000Y-104440000D03*
X154270000Y-105840000D03*
X154270000Y-107240000D03*
X154270000Y-108640000D03*
X155670000Y-104440000D03*
X155670000Y-105840000D03*
X155670000Y-107240000D03*
X155670000Y-108640000D03*
X157070000Y-104440000D03*
X157070000Y-105840000D03*
X157070000Y-107240000D03*
X157070000Y-108640000D03*
X158470000Y-104440000D03*
X158470000Y-105840000D03*
X158470000Y-107240000D03*
X158470000Y-108640000D03*
D36*
X152932500Y-103790000D03*
X152932500Y-104290000D03*
X152932500Y-104790000D03*
X152932500Y-105290000D03*
X152932500Y-105790000D03*
X152932500Y-106290000D03*
X152932500Y-106790000D03*
X152932500Y-107290000D03*
X152932500Y-107790000D03*
X152932500Y-108290000D03*
X152932500Y-108790000D03*
X152932500Y-109290000D03*
D37*
X153620000Y-109977500D03*
X154120000Y-109977500D03*
X154620000Y-109977500D03*
X155120000Y-109977500D03*
X155620000Y-109977500D03*
X156120000Y-109977500D03*
X156620000Y-109977500D03*
X157120000Y-109977500D03*
X157620000Y-109977500D03*
X158120000Y-109977500D03*
X158620000Y-109977500D03*
X159120000Y-109977500D03*
D36*
X159807500Y-109290000D03*
X159807500Y-108790000D03*
X159807500Y-108290000D03*
X159807500Y-107790000D03*
X159807500Y-107290000D03*
X159807500Y-106790000D03*
X159807500Y-106290000D03*
X159807500Y-105790000D03*
X159807500Y-105290000D03*
X159807500Y-104790000D03*
X159807500Y-104290000D03*
X159807500Y-103790000D03*
D37*
X159120000Y-103102500D03*
X158620000Y-103102500D03*
X158120000Y-103102500D03*
X157620000Y-103102500D03*
X157120000Y-103102500D03*
X156620000Y-103102500D03*
X156120000Y-103102500D03*
X155620000Y-103102500D03*
X155120000Y-103102500D03*
X154620000Y-103102500D03*
X154120000Y-103102500D03*
X153620000Y-103102500D03*
%TD*%
D18*
%TO.C,C6*%
X160130000Y-86820000D03*
X159170000Y-86820000D03*
%TD*%
D15*
%TO.C,C22*%
X158480000Y-113580000D03*
X159440000Y-113580000D03*
%TD*%
D21*
%TO.C,R9*%
X166050000Y-87530000D03*
X166050000Y-88550000D03*
%TD*%
M02*
